<?xml version="1.0" encoding="UTF-8"?>
<svg width="32" height="32" version="1.1" viewBox="0 0 32 32" xmlns="http://www.w3.org/2000/svg"><path d="m16 2c-7.7201 0-14 6.2799-14 14s6.2799 14 14 14c7.6546 0 13.875-6.1786 13.98-13.809a1 1 0 0 0 0.019531-0.19141 1 1 0 0 0-0.019531-0.19727c-0.10854-7.6273-6.3279-13.803-13.98-13.803zm0 2c6.6393 0 12 5.3607 12 12s-5.3607 12-12 12c-6.6393 0-12-5.3607-12-12s5.3607-12 12-12zm-3.75 6.7148c-0.3064 0-0.59971 0.12129-0.81641 0.33789l-4.4844 4.4844c-0.26035 0.2604-0.26035 0.68296 0 0.94336l4.4629 4.4629c0.2191 0.219 0.51637 0.3418 0.82617 0.3418 0.645 0 1.168-0.52287 1.168-1.168v-1.5586h5.1875v1.5703c0 0.6381 0.51815 1.1562 1.1562 1.1562 0.3064 0 0.59971-0.12119 0.81641-0.33789l4.4844-4.4844c0.2604-0.2603 0.2604-0.68296 0-0.94336l-4.4629-4.4629c-0.2191-0.219-0.51647-0.3418-0.82617-0.3418-0.6451 0-1.168 0.52297-1.168 1.168v1.5586h-5.1875v-1.5703c0-0.6381-0.51815-1.1562-1.1562-1.1562zm7.8223 1.918 3.3574 3.3574-3.3574 3.3594v-1.6035c0-0.3683-0.29772-0.66797-0.66602-0.66797h-6.8125c-0.3682 0-0.66602 0.29967-0.66602 0.66797v1.6211l-3.3574-3.3574 3.3574-3.3594v1.6035c0 0.3682 0.29782 0.66797 0.66602 0.66797h6.8125c0.3683 0 0.66602-0.29977 0.66602-0.66797v-1.6211z"/></svg>