<?xml version="1.0" encoding="UTF-8"?>
<svg width="32" height="32" version="1.1" viewBox="0 0 32 32" xmlns="http://www.w3.org/2000/svg"><path d="m16 2c-7.7201 0-14 6.2799-14 14s6.2799 14 14 14c7.6546 0 13.875-6.1786 13.98-13.809a1 1 0 0 0 0.019531-0.19141 1 1 0 0 0-0.019531-0.19727c-0.10854-7.6273-6.3279-13.803-13.98-13.803zm0 2c6.6393 0 12 5.3607 12 12s-5.3607 12-12 12c-3.4129 0-6.4814-1.4226-8.6641-3.7012h7.9844c1.8346 0 3.4944-1.0521 4.8047-2.6309h3.0586c1.223 0 2.1836-1.2275 2.1836-2.6309 0-0.4385-5.21e-4 -0.70195-0.087891-1.0527 0.87359-0.4386 1.3984-1.317 1.3984-2.5449 0-1.228-0.69958-2.1043-1.3984-2.4551v-0.96484c0-1.4033-0.87326-2.6309-2.1836-2.6309h-3.0586c-1.223-1.5788-2.8828-2.6309-4.8047-2.6309h-6.8848a12 12 0 0 0-0.13672 0.11523c2.0951-1.7887 4.8111-2.873 7.7891-2.873zm-8.3242 3.3594a12 12 0 0 0-0.32031 0.32031c0.10489-0.10897 0.21139-0.21538 0.32031-0.32031zm-0.79883 0.84766a12 12 0 0 0-0.26172 0.31641c0.085467-0.10724 0.17269-0.21222 0.26172-0.31641zm8.2695 0.2168c1.0483 0 2.0966 0.52507 2.8828 1.3145h-2.7969-2.9688c0.78622-0.78939 1.8346-1.3145 2.8828-1.3145zm-8.5879 0.17578h4.4805c-1.3977 1.5787-2.4453 4.1211-2.4453 7.0156 0 2.8944 1.0487 5.4388 2.6211 7.0176h-5.2148a12 12 0 0 0 0.1543 0.22656c-1.3547-1.9435-2.1543-4.3048-2.1543-6.8594 0-2.7977 0.96029-5.3622 2.5586-7.4004zm5.0938 2.1035h0.17383 1.6602 5.6777c-0.26211 0.35078-0.4375 0.79018-0.4375 1.3164 0 0.52622 0.088125 0.96562 0.4375 1.3164-1.223 0-3.3191-0.26452-5.6777-0.70313-0.96086-0.087718-1.6602-0.34995-2.6211-0.52539 0.08737-0.52622 0.35027-1.0535 0.78711-1.4043zm8.8223 0c0.52421 0 0.87305 0.70246 0.87305 1.3164 0 0.61395-0.4362 1.3164-0.87305 1.3164-0.52412 0-0.96094-0.70246-0.96094-1.3164 0-0.61395 0.43682-1.3164 0.96094-1.3164zm2.6211 0c0.52412 0 0.87305 0.70246 0.87305 1.3164 0 0.61395-0.4362 1.3164-0.87305 1.3164-0.52412 0-0.96094-0.70246-0.96094-1.3164 0-0.61395 0.43682-1.3164 0.96094-1.3164zm-12.58 2.3691c0.96096 0.17544 1.9219 0.26189 2.8828 0.34961 1.7472 0.26316 3.1441 0.52778 4.3672 0.70312-0.26211 0.4386-0.43555 0.96374-0.43555 1.4023 0.08737 0.4385 0.17487 0.87773 0.34961 1.2285-1.1357-0.08772-2.6209-0.35029-4.1934-0.70117-1.0482-0.08772-2.0973-0.352-3.3203-0.52734 0-0.87711 0.087503-1.6657 0.34961-2.4551zm8.6484 1.1406c0.43684 0 0.87305 0.52506 0.87305 1.3145 0 0.70167-0.4362 1.3164-0.87305 1.3164-0.52411 0-0.96094-0.70246-0.96094-1.3164 0-0.61404 0.43682-1.3145 0.96094-1.3145zm2.6211 0c0.43675 0 0.87305 0.52506 0.87305 1.3145 0 0.70167-0.4363 1.3164-0.87305 1.3164-0.52421 0-0.96094-0.70246-0.96094-1.3164 0-0.61404 0.43672-1.3145 0.96094-1.3145zm2.707 0c0.52421 0 0.875 0.70041 0.875 1.3145 0 0.61395-0.35079 1.3164-0.875 1.3164-0.52412 0-0.96094-0.61474-0.96094-1.3164 0-0.70167 0.43682-1.3145 0.96094-1.3145zm-14.238 2.2793c1.2231 0.26316 2.2721 0.3519 3.3203 0.52734 2.3587 0.35078 4.3674 0.70117 5.6777 0.70117-0.26211 0.35078-0.4375 0.79018-0.4375 1.3164-0.08737 0.4386 0.001142 0.87585 0.17578 1.3145h-7.1641c-0.96086-0.87711-1.4849-2.8945-1.5723-3.8594zm10.221 1.2285c0.43684 0 0.87305 0.61474 0.87305 1.3164 0 0.70167-0.4362 1.3145-0.87305 1.3145-0.52412 0-0.96094-0.70051-0.96094-1.3145 0-0.61395 0.43682-1.3164 0.96094-1.3164zm2.6211 0c0.43684 0 0.87305 0.61474 0.87305 1.3164 0 0.70167-0.4362 1.3145-0.87305 1.3145-0.52412 0-0.96094-0.70051-0.96094-1.3145 0-0.61395 0.43682-1.3164 0.96094-1.3164zm-10.746 3.5078h2.8828 2.8828c-0.78622 0.78939-1.8345 1.3164-2.8828 1.3164-1.0483 0-2.0966-0.52702-2.8828-1.3164zm-5.7305 2.2539a12 12 0 0 0 0.24219 0.29492c-0.082544-0.096959-0.16272-0.19533-0.24219-0.29492z"/></svg>