<?xml version="1.0" encoding="UTF-8"?>
<svg width="32" height="32" version="1.1" viewBox="0 0 32 32" xmlns="http://www.w3.org/2000/svg"><path d="m16 2c-7.7201 0-14 6.2799-14 14s6.2799 14 14 14c7.6546 0 13.875-6.1786 13.98-13.809a1 1 0 0 0 0.019531-0.19141 1 1 0 0 0-0.019531-0.19727c-0.10854-7.6273-6.3279-13.803-13.98-13.803zm0 2c6.6393 0 12 5.3607 12 12s-5.3607 12-12 12c-6.6393 0-12-5.3607-12-12s5.3607-12 12-12zm8.2617 6.498c-0.2348 0-0.46045 0.09221-0.62695 0.25781l-9.8652 9.8223-5.334-5.334c-0.16265-0.1756-0.38773-0.28006-0.62695-0.28906-0.23921-0.0092-0.47282 0.07753-0.64844 0.24023-0.17564 0.1627-0.27989 0.38775-0.28906 0.62695-0.00916 0.2392 0.077574 0.47284 0.24023 0.64844l6.6582 6.6406 11.119-11.094c0.0834-0.0826 0.15021-0.18076 0.19531-0.28906 0.0452-0.1083 0.06836-0.2245 0.06836-0.3418 0-0.1174-0.02316-0.2335-0.06836-0.3418-0.0451-0.1083-0.11191-0.20646-0.19531-0.28906-0.1665-0.1656-0.39215-0.25781-0.62695-0.25781z"/></svg>