<?xml version="1.0" encoding="UTF-8"?>
<svg width="32" height="32" version="1.1" viewBox="0 0 32 32" xmlns="http://www.w3.org/2000/svg"><path d="m16 2c-7.7201 0-14 6.2799-14 14 0 7.7201 6.2799 14 14 14 7.7201 0 14-6.2799 14-14 0-7.7201-6.2799-14-14-14zm0 2c6.6393 0 12 5.3607 12 12 0 6.6393-5.3607 12-12 12-6.6393 0-12-5.3607-12-12 0-6.6393 5.3607-12 12-12zm-7.6973 7.9199v9.3301h1.9219v-3.416h1.5312l1.75 3.416h2.0625v-0.08984l-2.0176-3.8125c0.55971-0.2521 0.97664-0.59079 1.25-1.0137 0.27769-0.42722 0.41602-0.95911 0.41602-1.5957 0-0.89725-0.29818-1.5907-0.89648-2.082-0.5981-0.4914-1.4485-0.73633-2.5508-0.73633zm8.291 0v6.2148c0.0129 1.0083 0.3415 1.8021 0.98242 2.3789 0.64083 0.57664 1.5044 0.86523 2.5938 0.86523 1.1066 0 1.9786-0.29861 2.6152-0.89258 0.64092-0.59377 0.96094-1.4008 0.96094-2.4219v-6.1445h-1.9277v6.209c-0.01703 1.1365-0.5674 1.7051-1.6484 1.7051-0.5168 0-0.92198-0.13822-1.2168-0.41602-0.29059-0.28192-0.43555-0.72894-0.43555-1.3398v-6.1582zm-6.3691 1.5566h1.5449c0.51699 0 0.89862 0.12496 1.1465 0.37695 0.2521 0.2521 0.37891 0.59915 0.37891 1.0391 0 0.43155-0.13344 0.77176-0.39844 1.0195-0.2648 0.24363-0.63826 0.36524-1.1211 0.36524h-1.5508z"/></svg>