<svg width="103" height="33" viewBox="0 0 103 33" fill="none" xmlns="http://www.w3.org/2000/svg">
<g clip-path="url(#clip0_3120_74539)">
<path d="M0.223861 5.93146C0.0870569 6.11864 0 6.34246 0 6.55406V24.9757C0 25.3745 0.298481 25.8303 0.671582 25.9971L14.3727 32.0889C14.5592 32.1702 14.7997 32.2109 15.0443 32.2109V27.3319L5.13636 22.9533V20.6012L14.3727 24.6827C14.5592 24.7641 14.7997 24.8048 15.0443 24.8048V19.9257L5.13636 15.5472V13.1951L14.3727 17.2766C14.5592 17.358 14.7997 17.3987 15.0443 17.3987V12.5196L0.223861 5.93146Z" fill="#C21F24"/>
<path d="M29.4086 13.5382L15.04 19.927V24.8061C15.2846 24.8061 15.5251 24.7654 15.7116 24.684L29.4127 18.5923C29.7817 18.4295 30.0843 17.9697 30.0843 17.5709V13.9614C30.0802 13.5626 29.7775 13.3714 29.4086 13.5382Z" fill="#DA1F24"/>
<path d="M29.4086 20.9437L15.04 27.3325V32.2116C15.2846 32.2116 15.5251 32.1709 15.7116 32.0895L29.4127 25.9978C29.7817 25.835 30.0843 25.3752 30.0843 24.9764V21.3669C30.0802 20.9681 29.7775 20.7769 29.4086 20.9437Z" fill="#DA1F24"/>
<path d="M29.8564 5.93201C29.7362 5.76517 29.5745 5.63088 29.3962 5.5617L15.72 0.112923C15.3428 -0.0376409 14.7334 -0.0376409 14.3561 0.112923L0.679885 5.5617C0.501625 5.63088 0.344094 5.76924 0.219727 5.93201L15.036 12.5202V17.3993C15.2806 17.3993 15.521 17.3586 15.7076 17.2772L29.4087 11.1855C29.7776 11.0227 30.0803 10.5629 30.0803 10.1641V6.55461C30.0803 6.34301 29.9932 6.1192 29.8564 5.93201Z" fill="#DA1F24"/>
<path d="M39.7156 9.23204H34V22.768H36.78V18.3978H39.7156C42.6317 18.3978 44.5563 16.6188 44.5563 13.7762C44.5563 10.9337 42.6317 9.23204 39.7156 9.23204ZM39.5989 15.768H36.78V11.8619H39.5989C41.0376 11.8619 41.7374 12.616 41.7374 13.8149C41.7374 14.9945 41.0376 15.768 39.5989 15.768Z" fill="white"/>
<path d="M54.7445 22.768H58.1661L54.3557 17.6823C56.2609 17.1989 57.4079 15.8453 57.4079 13.6409C57.4079 10.953 55.6777 9.23204 52.7615 9.23204H46.9099V22.768H49.6899V17.895H51.2257L54.7445 22.768ZM49.6899 11.8619H52.4505C53.8891 11.8619 54.589 12.558 54.589 13.6796C54.589 14.7818 53.9085 15.4779 52.4505 15.4779H49.6899V11.8619Z" fill="white"/>
<path d="M66.1041 9C62.0993 9 59.0277 12.0166 59.0277 16C59.0277 19.9834 62.0993 23 66.1041 23C70.1089 23 73.2 19.9834 73.2 16C73.2 12.0166 70.1089 9 66.1041 9ZM66.1041 11.6298C68.5537 11.6298 70.3811 13.4669 70.3811 16C70.3811 18.5331 68.5537 20.3702 66.1041 20.3702C63.6546 20.3702 61.8272 18.5331 61.8272 16C61.8272 13.4669 63.6546 11.6298 66.1041 11.6298Z" fill="white"/>
<path d="M83.5871 20.3258L83.6263 20.3062L85.3121 18.8315C87.7821 16.6685 89.2327 15.4494 89.2327 13.3258C89.2327 10.986 87.4292 9 84.4104 9C81.47 9 79.3332 10.868 79.1372 13.8567H81.96C82.1757 12.4607 82.901 11.6742 84.2928 11.6742C85.7434 11.6742 86.3903 12.5393 86.3903 13.4635C86.3903 14.4663 85.8022 15.0169 82.999 17.4944L79 20.9944V23H89.5267V20.3258H83.5871Z" fill="#DA1F24"/>
<path d="M102.333 17.3567L100.412 17.3371V9.23595H96.2761L90.8069 17.3567V19.9916H97.6091V23H100.412V19.9916L102.333 19.9719V17.3567ZM93.8061 17.3371L97.4326 11.8511H97.6091V17.3371H93.8061Z" fill="#DA1F24"/>
</g>
<defs>
<clipPath id="clip0_3120_74539">
<rect width="103" height="32.1016" fill="white"/>
</clipPath>
</defs>
</svg>
