<?xml version="1.0" encoding="UTF-8"?>
<svg width="300" height="95" version="1.1" viewBox="0 0 300 95" xmlns="http://www.w3.org/2000/svg"><path d="m99 23.375v47.609h9.7388v-15.371h10.276c10.204 0 16.947-6.2597 16.947-16.255 0-9.9955-6.7313-15.983-16.935-15.983zm9.7505 9.2537h9.8693c5.0311 0 7.4848 2.6574 7.4848 6.8711 0 4.1418-2.4536 6.8711-7.4848 6.8711h-9.8693zm55.325 0.13247c-5.3064 0-9.3914 2.4544-11.702 7.3503v-6.536h-9.7388v37.408h9.7388v-16.662c0-8.8464 5.3058-11.564 11.498-11.564 1.0902 0 1.6405 0.05861 2.3826 0.13053v-9.994c-0.61044-0.05985-1.2923-0.13248-2.178-0.13248zm25.388 0c-10.756 0-19.464 8.2358-19.464 19.524 0 11.229 8.5758 19.524 19.464 19.524 10.959 0 19.536-8.2359 19.536-19.524 0-11.289-8.7206-19.524-19.536-19.524zm0 9.2537c5.4491 0 9.6647 4.1535 9.6647 10.271 0 6.1889-4.2157 10.271-9.6647 10.271-5.4501 0-9.6667-4.0817-9.6667-10.271 0-6.1172 4.2166-10.271 9.6667-10.271z" fill="#fff"/><path d="m43.559 0c-0.71448 0-1.4283 0.11196-1.9746 0.33398l-39.615 16.068c-0.51635 0.204-0.97179 0.6118-1.332 1.0918l42.916 19.432v14.389c0.7085 0 1.4049-0.11938 1.9453-0.35938l39.688-17.967c1.0687-0.48 1.9453-1.8356 1.9453-3.0117v-10.645c0-0.624-0.25214-1.2858-0.64844-1.8379-0.3482-0.492-0.81758-0.8878-1.334-1.0918l-39.615-16.068c-0.54635-0.22203-1.2601-0.33398-1.9746-0.33398zm206.51 32.316c-8.1923 0-14.147 5.1939-14.689 13.49h7.8711c0.60112-3.8716 2.6219-6.0605 6.4961-6.0605 4.0425 0 5.8477 2.4057 5.8477 4.9668 0 2.7895-1.6485 4.3157-9.457 11.193l-11.141 9.7168v5.5664h29.33v-7.418h-16.555l0.10938-0.048828 4.7051-4.0996c6.8808-6.0119 10.922-9.4033 10.922-15.295 0-6.4929-5.0298-12.012-13.439-12.012zm33.051 0.64844-15.244 22.545v7.3223h18.961v8.3574h7.8086v-8.3574l5.3516-0.058593v-7.2637l-5.3516-0.046875v-22.498h-11.525zm-197.18 6.7832c-0.23266-0.002066-0.48868 0.054734-0.75586 0.17773l-41.619 18.842v14.391c0.7084 0 1.4049-0.12123 1.9453-0.36133l39.686-17.965c1.0687-0.4801 1.9453-1.8375 1.9453-3.0137v-10.645c-9e-3 -0.88215-0.50321-1.4196-1.2012-1.4258zm200.41 0.47852h0.49414v15.236h-10.6l10.105-15.236zm-200.41 21.363c-0.23266-0.002066-0.48868 0.054734-0.75586 0.17773l-41.619 18.842v14.391c0.7084 0 1.4049-0.11938 1.9453-0.35938l39.686-17.967c1.0687-0.4801 1.9453-1.8355 1.9453-3.0117v-10.646c-9e-3 -0.88215-0.50321-1.4196-1.2012-1.4258z" fill="#e01b22"/><path d="m0.64843 17.495c-0.39626 0.5521-0.64843 1.2122-0.64843 1.8362v54.33c0 1.1762 0.86458 2.5203 1.9453 3.0124l39.686 17.966c0.5404 0.24 1.2369 0.36 1.9453 0.36v-14.39l-28.699-12.913v-6.9369l26.754 12.037c0.5404 0.2401 1.2369 0.3601 1.9453 0.3601v-14.39l-28.699-12.914v-6.9368l26.754 12.037c0.5404 0.24 1.2369 0.36 1.9453 0.36v-14.39l-42.929-19.43z" fill="#b01e23"/></svg>
