<?xml version="1.0" encoding="UTF-8"?>
<svg width="918" height="380" fill="none" version="1.1" viewBox="0 0 918 380" xmlns="http://www.w3.org/2000/svg"><path d="m558.47 45.07v1h265.11c5.2528 0 9.5 4.2472 9.5 9.5v121.17h-66.291v-20.475c0-5.7923-4.7077-10.5-10.5-10.5h-264.72v-63.807c1.4048-0.2499 2.4666-1.4883 2.4336-2.957-0.03652-1.6218-1.3899-2.9174-3.0117-2.8809-1.6218 0.036521-2.9174 1.3919-2.8809 3.0137 0.03225 1.4324 1.0943 2.6057 2.459 2.8359v116.27c0 5.2518-4.2473 9.5-9.5 9.5h-26.4v-121.17c0-5.7933-4.7078-10.5-10.5-10.5h-265.11v1h265.11c5.2518 0 9.5 4.2473 9.5 9.5v121.17h-66.291v-20.475c0-5.7922-4.7067-10.5-10.5-10.5h-265.11v1h265.11c5.2527 0 9.5 4.2482 9.5 9.5v20.475h-120.71v1h120.71v91.457h-56.93v-49.982c1.4057-0.24911 2.4706-1.4876 2.4375-2.957-0.03652-1.6218-1.3919-2.9174-3.0137-2.8809-1.6218 0.03652-2.9174 1.3919-2.8809 3.0137 0.03224 1.4318 1.0933 2.6049 2.457 2.8359v49.971h-43.34c-5.7923 0-10.5 4.7067-10.5 10.5v28.512c0 5.2528-4.2472 9.5-9.5 9.5h-265.11v1h265.11c5.7932 0 10.5-4.7068 10.5-10.5v-28.512c0-5.2527 4.2482-9.5 9.5-9.5h43.34v65.299c0 5.2528-4.2472 9.5-9.5 9.5h-215.4v1h215.4c5.7932 0 10.5-4.7068 10.5-10.5v-65.299h56.93v16.512h-6.9688v1h6.9688v12.518c0 5.7933 4.7077 10.5 10.5 10.5h49.73c0.24591 1.7289 1.7245 3.0703 3.5195 3.0703 1.9657 0 3.5703-1.6026 3.5703-3.5684s-1.6046-3.5703-3.5703-3.5703c-1.7941 0-3.2705 1.3405-3.5176 3.0684h-49.732c-5.2518 0-9.5-4.2473-9.5-9.5v-12.518h257.14c5.7922 0 10.5-4.7067 10.5-10.5v-28.512c0-5.2528 4.2472-9.5 9.5-9.5h43.34v65.299c0 5.2528-4.2472 9.5-9.5 9.5h-215.4v1h215.4c5.7932 0 10.5-4.7068 10.5-10.5v-65.299h56.93v30.029c0 5.7932 4.7068 10.5 10.5 10.5h49.732c0.24684 1.7282 1.7233 3.0703 3.5176 3.0703 1.9657 0 3.5703-1.6046 3.5703-3.5703 0-1.9657-1.6046-3.5684-3.5703-3.5684-1.7948 0-3.2734 1.3397-3.5195 3.0684h-49.73c-5.2528 0-9.5-4.2472-9.5-9.5v-30.029h65.373c0.24652 1.7282 1.7233 3.0703 3.5176 3.0703 1.9657 0 3.5703-1.6046 3.5703-3.5703 0-1.9657-1.6046-3.5703-3.5703-3.5703-1.7948-1e-5 -3.2716 1.3415-3.5176 3.0703h-65.373v-91.457h66.291v29.641c-1.4221 0.47088-2.459 1.799-2.459 3.375 0 1.9657 1.6046 3.5703 3.5703 3.5703 1.9657 0 3.5703-1.6046 3.5703-3.5703 0-1.9657-1.6046-3.5703-3.5703-3.5703-0.03807 0-0.07354 0.01053-0.11133 0.01172v-29.457h26.4c5.7923 0 10.5-4.7077 10.5-10.5v-116.28c1.4036-0.2509 2.4647-1.4891 2.4316-2.957-0.03652-1.6218-1.3919-2.9174-3.0137-2.8809-1.6218 0.036521-2.9174 1.3919-2.8809 3.0137 0.03228 1.4338 1.0964 2.6092 2.4629 2.8379v116.27c0 5.2517-4.2483 9.5-9.5 9.5h-26.4v-121.17c0-5.7932-4.7068-10.5-10.5-10.5h-265.11zm-66.9 101.7h264.72c5.2517 0 9.5 4.2483 9.5 9.5v20.475h-120.71v1h120.71v91.457h-56.93v-49.984c1.4045-0.25012 2.4666-1.4885 2.4336-2.957-0.03652-1.6218-1.3919-2.9154-3.0137-2.8789-1.6218 0.03652-2.9154 1.3899-2.8789 3.0117 0.03227 1.4331 1.0934 2.6084 2.459 2.8379v49.971h-43.34c-5.7932 0-10.5 4.7068-10.5 10.5v28.512c0 5.2527-4.2482 9.5-9.5 9.5h-257.14v-16.512h65.373c0.24653 1.7282 1.7233 3.0703 3.5176 3.0703 1.9657 0 3.5703-1.6046 3.5703-3.5703 0-1.9657-1.6046-3.5703-3.5703-3.5703-1.7948 0-3.2716 1.3415-3.5176 3.0703h-65.373v-91.457h66.291v29.643c-1.422 0.47045-2.459 1.7971-2.459 3.373 0 1.9657 1.6046 3.5703 3.5703 3.5703 1.9657 0 3.5703-1.6046 3.5703-3.5703 0-1.9657-1.6046-3.5684-3.5703-3.5684-0.03808 0-0.07353 0.01052-0.11133 0.01171v-29.459h26.4c5.7933 0 10.5-4.7078 10.5-10.5v-51.475z" fill="#6baed3"/></svg>
