<?xml version="1.0" encoding="UTF-8"?>
<svg width="24" height="24" version="1.1" viewBox="0 0 24 24" xmlns="http://www.w3.org/2000/svg" xmlns:xlink="http://www.w3.org/1999/xlink"><path d="m12 4c-7.622 0-10.916 7.6016-10.916 7.6016l-0.17383 0.39453 0.16992 0.39648s3.2501 7.6074 10.92 7.6074c7.6699 0 10.92-7.6074 10.92-7.6074l0.16992-0.39648-0.17383-0.39453s-3.294-7.6016-10.916-7.6016zm0 2c5.8899 0 8.484 5.3038 8.8125 6.002-0.32101 0.69523-2.8667 5.998-8.8125 5.998-5.9458 0-8.4915-5.3028-8.8125-5.998 0.32853-0.69812 2.9226-6.002 8.8125-6.002zm0 2c-2.1973 0-4 1.8027-4 4 0 2.1973 1.8027 4 4 4 2.1973 0 4-1.8027 4-4 0-2.1973-1.8027-4-4-4zm0 2c1.1164 0 2 0.88359 2 2s-0.88359 2-2 2-2-0.88359-2-2 0.88359-2 2-2z"></path></svg>