<?xml version="1.0" encoding="UTF-8"?>
<svg width="24" height="24" version="1.1" viewBox="0 0 24 24" xmlns="http://www.w3.org/2000/svg"><path d="m11.984 0.98633a1.0001 1.0001 0 0 0-0.98438 1.0137v9a1.0001 1.0001 0 1 0 2 0v-9a1.0001 1.0001 0 0 0-1.0156-1.0137zm5.0078 2.5273a1.0001 1.0001 0 0 0-0.54688 1.8398c2.2214 1.4842 3.5533 3.9749 3.5547 6.6465 0 4.4301-3.5699 8-8 8s-8-3.5699-8-8c0.0025838-2.6703 1.3344-5.1591 3.5547-6.6426a1.0001 1.0001 0 1 0-1.1094-1.6641c-2.7732 1.8529-4.4421 4.9713-4.4453 8.3066 0 5.511 4.489 10 10 10s10-4.489 10-10c-0.001777-3.3368-1.6708-6.4567-4.4453-8.3105a1.0001 1.0001 0 0 0-0.5625-0.17578z"/></svg>
