<?xml version="1.0" encoding="UTF-8"?>
<svg width="144" height="120" version="1.1" viewBox="0 0 144 120" xmlns="http://www.w3.org/2000/svg"><path d="m71.994 17.905c-5.6366 0-10.277 4.619-10.277 10.25v51.355c-5.7059 4.0471-9.1426 11.2-7.2402 18.988a2.5002 2.5002 0 0 0 0.0039 0.0117c1.5935 6.3967 6.7365 11.529 13.221 12.99 11.697 2.7397 22.35-6.163 22.35-17.471 0-6.0898-3.1604-11.32-7.7793-14.578v-51.297c0-5.631-4.6408-10.25-10.277-10.25zm0 5c2.919 0 5.2774 2.356 5.2774 5.25v52.506a2.5002 2.5002 0 0 0 1.2363 2.1582c3.9167 2.2957 6.543 6.3914 6.543 11.211 0 8.2185-7.4644 14.658-16.219 12.602a2.5002 2.5002 0 0 0-0.02343-6e-3c-4.553-1.0224-8.3456-4.7955-9.4746-9.3203-3.6e-4 -1e-3 -2e-3 -2e-3 -2e-3 -4e-3 -1.5232-6.2588 1.385-11.7 6.1445-14.48a2.5002 2.5002 0 0 0 1.2402-2.1602v-52.506c0-2.894 2.3583-5.25 5.2773-5.25zm-0.03711 6.5898a2.5002 2.5002 0 0 0-2.4629 2.5352v56.143c-2.2733 0.98023-3.8887 3.2462-3.8887 5.8574 0 3.496 2.8946 6.375 6.3887 6.375s6.3887-2.879 6.3887-6.375c0-2.6112-1.6153-4.8772-3.8887-5.8574v-56.143a2.5002 2.5002 0 0 0-2.5371-2.5352zm-0.20703 63.184a2.5002 2.5002 0 0 0 0.48242 0c0.67573 0.10546 1.1504 0.64823 1.1504 1.3516 0 0.78417-0.58713 1.375-1.3887 1.375s-1.3887-0.59083-1.3887-1.375c0-0.70136 0.47184-1.2439 1.1445-1.3516z"/></svg>
