<?xml version="1.0" encoding="UTF-8"?>
<svg width="144" height="120" version="1.1" viewBox="0 0 144 120" xmlns="http://www.w3.org/2000/svg"><path d="m101.25 40.471a2.5002 2.5002 0 0 0-2.0547 1.1172l-11.297 17.023a2.5002 2.5002 0 1 0 4.166 2.7637l8.1152-12.227c3.2566 11.312-1.0214 22.338-9.3652 30.396-8.3833 8.0963-20.761 12.811-32.795 10.994-12.445-1.8785-20.62-7.4512-25.074-14.793-4.4544-7.3418-5.2844-16.694-1.9746-26.641a3.5004 3.5004 0 0 0-3.2832-4.6523 3.5004 3.5004 0 0 0-3.3574 2.4414c-3.8442 11.553-3.0014 23.201 2.6309 32.484 4.4302 7.3019 11.776 12.981 21.545 16.109l-12.088 10.512h-22.066a3.5055 3.5004 0 0 0-2.3555 0.86914v5.1309h120v-5.1309a3.5055 3.5004 0 0 0-2.3555-0.86914h-61.541l14.119-12.275c5.0014-2.2852 9.5813-5.3996 13.459-9.1445 9.1209-8.8087 14.475-21.36 11.949-34.371l9.3164 6.2148a2.5002 2.5002 0 1 0 2.7734-4.1582l-17.051-11.375a2.5002 2.5002 0 0 0-1.416-0.41992zm-49.299 56c1.6171 0.39621 3.2912 0.72877 5.0234 0.99024 0.5628 0.08495 1.1252 0.13742 1.6875 0.19922l-9.2734 8.3398h-8.3984zm22.533 0.0039-10.955 9.5254h-9.6523l8.9824-8.0781c3.9602 0.04216 7.8631-0.47032 11.625-1.4473z"/></svg>
