<?xml version="1.0" encoding="UTF-8"?>
<svg width="144" height="120" version="1.1" viewBox="0 0 144 120" xmlns="http://www.w3.org/2000/svg"><path d="m72.004 10.209a2.5002 2.5002 0 0 0-2.1094 1.1523l-16.775 26.227-6.2539-9.4277a2.5002 2.5002 0 0 0-4.4883 0.69922l-1.8809 6.6348c-7.4e-4 0.0026-9.5e-4 0.0052-2e-3 0.0078l-2e-3 0.0078c-1.6149 5.5765-2.3984 11.362-2.3984 17.178 0 9.3842 3.8965 17.044 10.117 22.145 6.2207 5.1003 14.644 7.709 23.789 7.709s17.57-2.6086 23.791-7.709 10.115-12.76 10.115-22.145c0-5.8161-0.78151-11.601-2.3965-17.178l-2e-3 -0.0078-1.8828-6.6426a2.5002 2.5002 0 0 0-4.4883-0.69922l-6.2539 9.4277-16.775-26.227a2.5002 2.5002 0 0 0-2.1034-1.1523zm-0.00391 7.1387 16.738 26.166a2.5002 2.5002 0 0 0 4.1894 0.03516l5.3691-8.0938 0.40235 1.418a2.5002 2.5002 0 0 0 0.0039 0.01367c1.4808 5.1079 2.2031 10.428 2.2031 15.801 0 8.0383-3.1388 14.056-8.2871 18.277-5.1483 4.2211-12.428 6.5762-20.619 6.5762s-15.471-2.355-20.619-6.5762c-5.1484-4.2211-8.2871-10.239-8.2871-18.277 0-5.3727 0.72432-10.693 2.2051-15.801a2.5002 2.5002 0 0 0 0.0039-0.01367l0.40235-1.418 5.3691 8.0938a2.5002 2.5002 0 0 0 4.1894-0.03516zm-0.09766 8.4043a2.5002 2.5002 0 0 0-2.0098 1.1816l-2.9297 4.584-2.9707 4.627a2.5002 2.5002 0 0 0-0.0098 0.01367l-2.9297 4.6289a2.5002 2.5002 0 1 0 4.2227 2.6738l2.9277-4.6211 2.9687-4.623a2.5002 2.5002 0 0 0 0.0039-0.0039l2.9297-4.5879a2.5002 2.5002 0 0 0-2.2031-3.873zm-22.764 51.789c-2.5063 0-4.9186 1.4423-6.0859 3.8242-1.799 3.5673-0.27757 7.9711 3.3301 9.6191a2.5002 2.5002 0 0 0 0.01953 0.0098l8.457 3.7773-8.457 3.7773a2.5002 2.5002 0 0 0-0.01953 0.0078c-3.5861 1.6382-5.1248 6.0249-3.3281 9.582 1.6182 3.2404 5.5708 4.7446 8.8926 3.209l20.006-8.9375 20.133 8.9941a2.5002 2.5002 0 0 0 0.03125 0.0137c0.86448 0.37234 1.803 0.582 2.748 0.582 2.5086 0 4.9218-1.4442 6.0879-3.8301 1.7931-3.566 0.27318-7.9665-3.332-9.6133a2.5002 2.5002 0 0 0-0.01953-0.0078l-8.5039-3.7988 8.5059-3.7988a2.5002 2.5002 0 0 0 0.01757-0.0078c3.5862-1.6381 5.1267-6.0249 3.3301-9.582-1.2044-2.4118-3.7213-3.8651-6.3086-3.8047-0.86147 0.02011-1.7296 0.20837-2.5606 0.58398-2e-3 8.79e-4 -0.0039 0.0011-0.0059 2e-3l-20.072 8.9667-20.086-8.9707a2.5002 2.5002 0 0 0-0.03125-0.01367c-0.86415-0.37216-1.8027-0.58399-2.748-0.58399zm45.693 4.9785c0.22538-0.01272 0.4433 0.02027 0.64649 0.09766 0.40637 0.15477 0.7568 0.48578 1.002 0.97852a2.5002 2.5002 0 0 0 0.0078 0.01758c0.5424 1.0707 0.0742 2.3165-0.94336 2.7812l-45.668 20.402a2.5002 2.5002 0 0 0-0.02929 0.0137c-0.86269 0.3988-1.8458 0.0553-2.3242-0.90625a2.5002 2.5002 0 0 0-0.0078-0.0176c-0.54241-1.0707-0.0723-2.3164 0.94531-2.7812l13.244-5.916a2.5002 2.5002 0 0 0 0.65625-0.29297 2.5002 2.5002 0 0 0 0.0059-0.0039l10.295-4.5996a2.5002 2.5002 0 0 0 0.78516-0.35156l20.68-9.2383a2.5002 2.5002 0 0 0 0.01172-0.0059c0.23514-0.10657 0.46798-0.16501 0.69336-0.17773zm-45.693 0.02148c0.22672 0 0.46023 0.0437 0.76758 0.17578h2e-3l15.969 7.1309-4.8887 2.1836-12.527-5.5938-2e-3 -2e-3c-0.99292-0.45548-1.4798-1.7653-0.94335-2.8242a2.5002 2.5002 0 0 0 0.02148-0.03906c0.34584-0.7144 0.93597-1.0312 1.6016-1.0312zm33.832 14.947 12.572 5.6172c0.99459 0.45431 1.4802 1.7644 0.94336 2.8242a2.5002 2.5002 0 0 0-0.01953 0.041c-0.34575 0.71429-0.93582 1.0293-1.6016 1.0293-0.22562 0-0.45928-0.0417-0.76367-0.17188-2e-3 -1e-3 -0.0029-8.7e-4 -0.0059-2e-3l-16.014-7.1542z"/></svg>
