<?xml version="1.0" encoding="UTF-8"?>
<svg width="144" height="120" version="1.1" viewBox="0 0 144 120" xmlns="http://www.w3.org/2000/svg"><path d="m64.285 33.984a3.0003 3.0003 0 0 0-1.0801 0.23047c-2.7634 1.1087-5.2519 2.7025-7.3613 4.6973-2.1093 1.9948-3.8136 4.3681-5.0039 7.0215-1.1966 2.6674-1.8398 5.5972-1.8398 8.6504 0 1.5119 0.1741 2.9706 0.46484 4.3848a3.0003 3.0003 0 0 0 4e-3 0.01563c0.29138 1.3778 0.71976 2.7568 1.332 4.0918 0.28289 0.67203 0.60204 1.3129 0.94531 1.9258-3.2916 0.0143-6.414 0.73141-9.2519 2.0078-2.8765 1.2939-5.4485 3.163-7.5957 5.4609-2.1472 2.298-3.8705 5.0255-5.0586 8.0508-1.1845 3.0161-1.8398 6.3095-1.8398 9.7871 0 3.4777 0.65534 6.771 1.8398 9.7871a3.0003 3.0003 0 1 0 5.584-2.1914c-0.91822-2.3381-1.4238-4.8656-1.4238-7.5957 0-2.73 0.5056-5.2557 1.4238-7.5938 0.91463-2.3289 2.2361-4.4112 3.8594-6.1484 1.6232-1.7371 3.5454-3.1275 5.6719-4.084 2.1363-0.96086 4.4184-1.4824 6.8906-1.4824 0.28742 0 0.74058 0.02194 1.2344 0.03125-0.40521 1.5883-0.64258 3.2422-0.64258 4.9531 0 9.424 6.5471 17.359 15.312 19.512-0.26112 0.60195-0.54728 1.193-0.88281 1.7578-1.0025 1.6875-2.371 3.2398-4.0137 4.541-1.6576 1.313-3.5292 2.3555-5.6504 3.0879a3.0003 3.0003 0 0 0-0.01367 6e-3c-2.0648 0.72407-4.3581 1.1113-6.7793 1.1113-2.6446 0-5.0918-0.47148-7.3516-1.3242a3.0003 3.0003 0 1 0-2.1172 5.6133c2.9216 1.1025 6.106 1.7109 9.4688 1.7109 3.0557 0 6.0145-0.4871 8.752-1.4453l2e-3 -2e-3c2.7591-0.95297 5.2425-2.3346 7.4141-4.0547 2.1872-1.7326 4.0467-3.8221 5.4473-6.1797 0.0064-0.0107 0.01121-0.0225 0.01758-0.0332 0.01394 0.0229 0.02504 0.0475 0.03906 0.0703a3.0003 3.0003 0 0 0 0.02148 0.0352c1.4606 2.3072 3.3305 4.3987 5.5977 6.1367 2.2522 1.7264 4.8315 3.0892 7.6133 4.0332a3.0003 3.0003 0 0 0 0.0332 0.0117c2.7691 0.90212 5.7954 1.4277 8.9609 1.4277 3.4514 0 6.7196-0.60329 9.7207-1.6992a3.0003 3.0003 0 1 0-2.0586-5.6348c-2.3531 0.85928-4.9057 1.334-7.6621 1.334-2.4927 0-4.8912-0.41637-7.084-1.1289-2.1772-0.74108-4.1726-1.802-5.873-3.1055-1.6849-1.2917-3.0676-2.8373-4.166-4.5684-0.29482-0.48177-0.55398-0.98202-0.79297-1.4902 9.1973-1.8268 16.17-9.9907 16.17-19.723 0-1.0111-0.07745-2.0046-0.22266-2.9766 0.13938-1e-3 0.23883-0.0078 0.39258-0.0078 2.4079 0 4.6312 0.48913 6.7051 1.3867 2.0642 0.89343 3.9233 2.1893 5.4883 3.8008 1.565 1.6116 2.8341 3.5372 3.7109 5.6855 0.88066 2.1576 1.3633 4.4809 1.3633 6.9961 0 2.5153-0.48262 4.8404-1.3633 6.998a3.0003 3.0003 0 1 0 5.5547 2.2656c1.1637-2.8512 1.8086-5.9716 1.8086-9.2637 0-3.292-0.64485-6.4125-1.8086-9.2637-1.1675-2.8605-2.8602-5.4344-4.9609-7.5977-2.1006-2.1631-4.6104-3.9152-7.4102-5.127-2.7901-1.2076-5.8562-1.8809-9.0879-1.8809-0.22401 0-0.51738 0.0156-0.77148 0.01953 0.05171-0.07237 0.10744-0.14175 0.1582-0.21484 0.81965-1.1803 1.4879-2.41 2.0586-3.6406a3.0003 3.0003 0 0 0 0.04687-0.10547c0.52836-1.2654 0.99876-2.6204 1.3066-4.0723 0.29813-1.4065 0.46875-2.8898 0.46875-4.4023 0-3.0543-0.64598-5.9845-1.8457-8.6523-1.1935-2.6538-2.9015-5.0271-5.0156-7.0215-2.1142-1.9944-4.6081-3.5872-7.377-4.6953a3.0003 3.0003 0 0 0-1.1699-0.23046 3.0003 3.0003 0 0 0-1.0586 5.8008c2.084 0.83405 3.9259 2.0164 5.4883 3.4902 1.5623 1.4738 2.7968 3.193 3.6621 5.1172 0.85908 1.9103 1.3164 3.9741 1.3164 6.1914 0 1.054-0.12338 2.1369-0.33984 3.1582-0.20303 0.95741-0.53893 1.9435-0.95508 2.9473-0.34471 0.73847-0.72675 1.426-1.1348 2.0801-3.6822-4.2111-9.0685-6.8926-15.07-6.8926-6.0058 0-11.396 2.6845-15.078 6.9004-0.43166-0.67995-0.8214-1.3685-1.1113-2.0645a3.0003 3.0003 0 0 0-0.04687-0.10547c-0.39992-0.86457-0.70375-1.8213-0.92188-2.8477-4.06e-4 -2e-3 4.05e-4 -0.0039 0-0.0059-0.22188-1.0809-0.3418-2.1172-0.3418-3.1699 0-2.2184 0.45728-4.2826 1.3145-6.1934 0.86344-1.9246 2.0943-3.6457 3.6523-5.1191 1.5582-1.4735 3.3951-2.6528 5.4727-3.4863a3.0003 3.0003 0 0 0-1.1543-5.8008zm8.2148 27.893c4.4636 0 8.4188 2.0616 10.99 5.2891-0.03193 0.02437-0.05959 0.04992-0.0918 0.07422a3.0003 3.0003 0 0 0 0 2e-3c-0.60076 0.45345-1.2507 0.8653-1.9688 1.2656v-2e-3c-0.66079 0.36831-1.3521 0.68061-2.0781 0.9375a3.0003 3.0003 0 0 0-0.01367 0.0059c-0.28042 0.10076-0.55822 0.19052-0.83594 0.2793-1.565-1.5084-3.6807-2.4473-6.002-2.4473-2.3238 0-4.4424 0.93996-6.0078 2.4512-0.29221-0.09155-0.58265-0.18354-0.85937-0.2832a3.0003 3.0003 0 0 0-0.01367-0.0059c-0.21897-0.07765-0.45543-0.18537-0.68945-0.28711-0.10306-0.07299-0.19517-0.14879-0.30078-0.2207-0.97738-0.66564-1.9716-1.1919-2.9062-1.6504-0.0618-0.03032-0.13267-0.05771-0.19531-0.08789-0.0087-0.0066-0.01673-0.01291-0.02539-0.01953 2.5712-3.2338 6.5294-5.3008 10.998-5.3008zm-13.654 10.764c0.58743 0.39723 1.1793 0.77129 1.7773 1.1055a3.0003 3.0003 0 0 0 0.08789 0.04687c0.37695 0.19446 0.78713 0.40013 1.2148 0.60156 0.42412 0.32318 0.85416 0.66599 1.2891 1.0371 0.21627 0.2045 0.40808 0.3905 0.59961 0.57812 0.0085 2.8803 1.4508 5.4492 3.6426 7.0312a3.0003 3.0003 0 0 0 0.07617 0.17969c0.2253 0.5056 0.41088 0.93119 0.54492 1.3164a3.0003 3.0003 0 0 0 0.0039 0.0098c0.18264 0.51913 0.3434 1.0739 0.51562 1.6895 0.11351 0.52057 0.21104 1.0837 0.3125 1.6895 0.05723 0.53613 0.08984 1.1122 0.08984 1.6914v0.02148c-6.0872-1.5512-10.562-7.0402-10.562-13.654 0-1.1551 0.15078-2.2714 0.4082-3.3438zm13.654 0.64062c1.3673 0 2.4468 0.95598 2.6465 2.2676a3.0003 3.0003 0 0 0-0.12891 1.3828c-0.37136 1.0392-1.3361 1.7539-2.5176 1.7539-1.4843 0-2.6328-1.1237-2.6797-2.6094a3.0003 3.0003 0 0 0 0-2e-3 3.0003 3.0003 0 0 0 0.18555-1.1113c0.38991-1.0003 1.3402-1.6816 2.4941-1.6816zm13.939 0.91602c0.07308 0.58613 0.12305 1.1801 0.12305 1.7871 0 6.9722-4.9698 12.7-11.562 13.875v-0.24219c0-0.59299 0.03194-1.142 0.09766-1.7461 0.06461-0.56132 0.15383-1.0652 0.28906-1.5352a3.0003 3.0003 0 0 0 0.04102-0.1582c0.10126-0.43979 0.28481-0.96126 0.51758-1.6016a3.0003 3.0003 0 0 0 0.0039-0.0098c0.08042-0.22371 0.21328-0.50846 0.32812-0.76953 2.4-1.178 4.1964-3.4256 4.7383-6.1094 0.21017-0.20651 0.41797-0.40331 0.61719-0.57227a3.0003 3.0003 0 0 0 0.03516-0.03125c0.58012-0.5077 1.203-0.96868 1.8887-1.418 0.65104-0.42661 1.3599-0.81668 2.0059-1.0938a3.0003 3.0003 0 0 0 0.09766-0.04492c0.24794-0.11704 0.51452-0.22328 0.7793-0.33008z"/></svg>
