<?xml version="1.0" encoding="UTF-8"?>
<svg width="200" height="175" fill="none" version="1.1" viewBox="0 0 200 175" xmlns="http://www.w3.org/2000/svg" xmlns:xlink="http://www.w3.org/1999/xlink"><rect x="1.6254" y="1.5" width="197" height="172" rx="16" ry="16" fill="none" stroke="#676767" stroke-width="3"/><g transform="translate(218.88 6.599)"><g fill="none" stroke="#e11b22" stroke-width="2"><path d="m-124.53 78.584c25.244-5.152 13.639 16.731 14.516 16.302"/><path d="m-136.59 78.025c11.55-0.28498 18.986-7.795 19.706-8.455"/><path d="m-100.15 78.152c-5.578 7.722-3.535 14.474-3.004 14.16"/></g><path d="m-175.1 73.953-0.13795 12.675h60.278v80.773h13.094l1.717-76.806-14.811-6.6-13.159-10.105z" fill="#676767" stroke="#676767" stroke-linecap="round" stroke-linejoin="round" stroke-miterlimit="10" stroke-width="2"/><path d="m-102.43 34.824 27.365-30.106 13.536 6.361-23.549 21.983 16.243 7.632-35.486 26.29 15.427-25.8z" fill="#e11b22"/></g></svg>
