<?xml version="1.0" encoding="UTF-8"?>
<svg width="200" height="175" fill="none" version="1.1" viewBox="0 0 200 175" xmlns="http://www.w3.org/2000/svg" xmlns:xlink="http://www.w3.org/1999/xlink"><rect x="1.6254" y="1.5" width="197" height="172" rx="16" ry="16" fill="none" stroke="#676767" stroke-width="3"/><g transform="translate(229.89 2.9953)"><path d="m-184.45 20.883 26.03-19.23 9.57 7.0665-21.789 13.488 11.484 8.4798-31.771 14.99 16.047-17.728z" fill="#e11b22"/><path d="m-176.34 52.178-0.64199 58.623 10.346 0.11301 0.64101-58.622z" fill="#fff" stroke="#676767" stroke-linecap="round" stroke-linejoin="round" stroke-miterlimit="10" stroke-width="5"/><path d="m-135.11 66.424-0.17007 15.518-0.17008 15.518-19.079 10.137-12.07-0.13198 0.28309-25.863 0.28309-25.863 12.07 0.1321z" fill="#fff" stroke="#676767" stroke-linecap="round" stroke-linejoin="round" stroke-miterlimit="10" stroke-width="5"/><g fill="none" stroke="#676767"><g stroke-linecap="round" stroke-linejoin="round" stroke-miterlimit="10" stroke-width="5"><path d="m-145.63 81.829c0.0302-2.8567-2.26-5.1979-5.116-5.2292-2.857-0.03137-5.198 2.2593-5.23 5.116-0.0302 2.8567 2.26 5.1979 5.116 5.2292 2.857 0.03137 5.198-2.2593 5.23-5.116z"/><path d="m-176.79 93.558-0.076 6.8964-27.587-0.30198c-1.896-0.02-3.431-1.589-3.41-3.486 0.0189-1.8962 1.589-3.431 3.486-3.4103z"/><path d="m-176.45 62.522-0.0748 6.8968-27.587-0.30191c-1.897-0.02079-3.432-1.5895-3.411-3.4861 0.0227-1.8966 1.59-3.4314 3.486-3.4106z"/></g><path d="m-134.48 79.872c128.98-2.01e-4 53.085 31.344 65.672 61.753" stroke-width="15"/></g><path d="m-226.39 16.166c15.564 0.2668 28.099 12.967 28.099 28.595v73.141c0 15.628-12.535 28.328-28.099 28.595z" fill="#c4c4c4" stroke="#000"/></g></svg>
