<?xml version="1.0" encoding="UTF-8"?>
<svg width="200" height="175" fill="none" version="1.1" viewBox="0 0 200 175" xmlns="http://www.w3.org/2000/svg" xmlns:xlink="http://www.w3.org/1999/xlink"><rect x="1.6254" y="1.5" width="197" height="172" rx="16" ry="16" fill="none" stroke="#676767" stroke-width="3"/><g transform="translate(230.53)"><g fill="none" stroke="#e11b22" stroke-width="2"><path d="m-144.62 110.19c13.16 3.545 21.75 1.514 22.79 1.008"/><path d="m-158.86 109.53c13.632-0.336 21.292-4.721 22.142-5.5"/><path d="m-128.03 106.13c11.65 7.085 20.47 7.536 21.6 7.339"/></g><path d="m-204.31 104.71-0.16403 14.961 148.21 1.622 0.15987-14.961-61.67 0.083-15.55 10.148-15.53-11.928z" fill="#676767" stroke="#676767" stroke-linecap="round" stroke-linejoin="round" stroke-miterlimit="10" stroke-width="2"/><path d="m-118.53 58.539 32.3-35.534 15.97 7.507-27.79 25.948 19.17 9.0083-41.89 31.029 18.21-30.452z" fill="#e11b22"/><path d="m-160.45 68.625c-2.971-3.453-6.591-6.2534-10.615-8.2381-4.646-2.2838-9.832-3.5345-15.153-3.5345-9.4 0-17.665 7.1777-18.205 16.639-0.54097 9.7606 6.779 17.917 16.179 18.624l45.914 0.0816-10.53-13.784" fill="#fff"/><path d="m-160.45 68.625c-2.971-3.453-6.591-6.2534-10.615-8.2381-4.646-2.2838-9.832-3.5345-15.153-3.5345-9.4 0-17.665 7.1777-18.205 16.639-0.54097 9.7606 6.779 17.917 16.179 18.624l45.914 0.0816-10.53-13.784" fill="none" stroke="#5c5c5c" stroke-linecap="round" stroke-linejoin="round" stroke-miterlimit="10" stroke-width="3"/><path d="m-152.86 78.413c2.94-0.7341 5.13-3.4258 5.13-6.6068 0-3.752-3.02-6.7971-6.75-6.7971-2.594 0-4.835 1.4682-5.97 3.6161" fill="#fff"/><path d="m-152.86 78.413c2.94-0.7341 5.13-3.4258 5.13-6.6068 0-3.752-3.02-6.7971-6.75-6.7971-2.594 0-4.835 1.4682-5.97 3.6161" fill="none" stroke="#5c5c5c" stroke-linecap="round" stroke-linejoin="round" stroke-miterlimit="10" stroke-width="3"/><path d="m-154.49 86.759c-0.746 0-1.351-0.6086-1.351-1.3594 0-0.7508 0.60503-1.3594 1.351-1.3594 0.74597 0 1.35 0.6086 1.35 1.3594 0 0.7508-0.60401 1.3594-1.35 1.3594z" fill="#fff" stroke="#5c5c5c" stroke-linecap="round" stroke-linejoin="round" stroke-miterlimit="10" stroke-width="3"/><path d="m-202.02 65.743c-0.70201-2.2567-2.431-2.9092-2.431-6.1718 0-4.0782 2.701-4.0782 2.701-8.1565 0-4.0782-2.701-4.0782-2.701-8.1565" fill="#fff"/><path d="m-202.02 65.743c-0.70201-2.2567-2.431-2.9092-2.431-6.1718 0-4.0782 2.701-4.0782 2.701-8.1565 0-4.0782-2.701-4.0782-2.701-8.1565" fill="none" stroke="#5c5c5c" stroke-linecap="round" stroke-linejoin="round" stroke-miterlimit="10" stroke-width="3"/></g></svg>
