<?xml version="1.0" encoding="UTF-8"?>
<svg width="200" height="175" fill="none" version="1.1" viewBox="0 0 200 175" xmlns="http://www.w3.org/2000/svg" xmlns:xlink="http://www.w3.org/1999/xlink"><rect x="1.6254" y="1.5" width="197" height="172" rx="16" ry="16" stroke="#676767" stroke-width="3"/><g fill="#fff" stroke="#676767" stroke-miterlimit="22.926" stroke-width="3"><path d="m79.211 33.515 9.5186 0.0795-0.4341 36.338h22.498l0.428-35.904 10.38-0.0123v-15.124h-17.735v4.7562l-7.275-0.0305-0.073-4.7257-17.307-0.1345z" clip-rule="evenodd" fill-rule="evenodd"/><path d="m111.07 72.733h-22.84v7.1037h22.84z"/><path d="m110.92 82.563h-22.839v7.1038h22.839z"/><path d="m88.05 92.491h22.84v3.552c0 1.95-1.595 3.552-3.552 3.552h-15.742c-1.9502 0-3.5519-1.595-3.5519-3.552v-3.552z" clip-rule="evenodd" fill-rule="evenodd"/></g><g stroke="#676767" stroke-miterlimit="22.926"><path d="m146.51 55.536h-93.938v73.464h93.938z" stroke-width="6"/><path d="m78.031 107.87h-52.006v9.751h52.006z"/><path d="m130.04 110.79h-52.007v4.879h52.007z" fill="#fff"/><path d="m29.937 99.864c6.4129 0 9.0539-1.547 13.382-6.107 1.5894-1.669 8.577-13.425 8.7054-13.45"/><path d="m41.754 107.87c2.9711-0.544 8.2958-5.269 10.276-9.182" stroke-width=".5669"/><path d="m30.823 99.919c-1.3816-0.905-5.9177 3.356-5.2269 9.005 1.027 8.473 3.6191 9.793-7.1038 9.28-1.8951-0.092-12.562 0.959-18.069 0.536" stroke-width="3"/><path d="m30.824 99.919c-3.393-2.158-26.153-1.681-30.824-1.681" stroke-width="3"/></g><path d="m124.6 68.894 19.494-21.446 9.643 4.5308-16.776 15.661 11.571 5.437-25.28 18.728 10.991-18.38z" fill="#e11b22"/></svg>
