<?xml version="1.0" encoding="UTF-8"?>
<svg width="200" height="175" fill="none" version="1.1" viewBox="0 0 200 175" xmlns="http://www.w3.org/2000/svg" xmlns:xlink="http://www.w3.org/1999/xlink"><g transform="translate(213.17)"><path d="m-71.985 70.707c8.61 2.3181 14.226 0.9897 14.903 0.6588" fill="none" stroke="#e11b22" stroke-width="2"/><g stroke="#676767" stroke-linecap="round" stroke-linejoin="round" stroke-miterlimit="10"><path d="m-145.71 47.367-0.541 49.369 8.712 0.095 0.541-49.369z" fill="#fff" stroke-width="5"/><path d="m-111.08 68.077-0.0949 8.7122 96.911 1.0605 0.096-8.7122h-40.324l-10.165 5.8975-10.164-6.958z" fill="#676767" stroke-width="2"/><path d="m-110.99 59.364-0.14287 13.068-0.14286 13.068-16.068 8.5374-10.164-0.1112 0.23811-21.78 0.23886-21.78 10.164 0.1113z" fill="#fff" stroke-width="5"/></g><g fill="none" stroke="#676767" stroke-linecap="round" stroke-linejoin="round" stroke-miterlimit="10" stroke-width="5"><path d="m-119.84 72.337c0.0265-2.4058-1.902-4.3774-4.308-4.4037-2.406-0.026-4.377 1.9026-4.404 4.3084-0.0265 2.4058 1.903 4.3775 4.309 4.4038 2.405 0.026 4.377-1.9026 4.403-4.3085z"/><path d="m-146.09 82.214-0.0639 5.8082-23.232-0.2542c-1.598-0.017-2.89-1.3387-2.873-2.9359 0.0189-1.5972 1.339-2.8898 2.936-2.8723z"/><path d="m-145.81 56.078-0.0639 5.8082-23.233-0.2543c-1.597-0.017-2.889-1.3386-2.872-2.9358 0.0189-1.5972 1.339-2.8898 2.936-2.8723z"/></g><path d="m-69.667 50.171 5.299-17.22h6.623l-5.299 13.246h7.948l-9.272 17.22 1.324-13.246z" fill="#e11b22"/></g><rect x="1.6254" y="1.5" width="197" height="172" rx="16" ry="16" fill="none" stroke="#676767" stroke-width="3"/></svg>
