<?xml version="1.0" encoding="UTF-8"?>
<svg width="200" height="175" fill="none" version="1.1" viewBox="0 0 200 175" xmlns="http://www.w3.org/2000/svg" xmlns:xlink="http://www.w3.org/1999/xlink"><rect x="3" y="44" width="66" height="109" fill="#c4c4c4" style="paint-order:markers fill stroke"/><rect x="1.6254" y="1.5" width="197" height="172" rx="16" ry="16" fill="none" stroke="#676767" stroke-width="3"/><path d="m54.597 28.946 23.021-25.326 11.382 5.3505-19.807 18.494 13.663 6.4205-29.856 22.116 12.979-21.704z" fill="#e11b22"/><g fill="none"><path d="m35 143c33.234-72.125-41.813-9.5578 0-86" stroke="#676767" stroke-width="10"/><g stroke="#000" stroke-linecap="round"><path d="m43 77h68v7h-68l-4-3.5z" stroke-width="2" style="paint-order:markers fill stroke"/><path d="m111 69 14-6v35l-14-6z" stroke-linejoin="bevel" stroke-width="2" style="paint-order:markers fill stroke"/><rect x="125" y="63" width="32" height="35" stroke-linejoin="bevel" stroke-width="2" style="paint-order:markers fill stroke"/></g></g><g fill="#000"><path d="m130 76 2 10v12h-2z" style="paint-order:markers fill stroke"/><path d="m42 77h3l10 7h-3z" style="paint-order:markers fill stroke"/><path d="m58 77h3l10 7h-3z" style="paint-order:markers fill stroke"/><path d="m74 77h3l10 7h-3z" style="paint-order:markers fill stroke"/><path d="m90 77h3l10 7h-3z" style="paint-order:markers fill stroke"/><path d="m151 76-2 10v12h2z" style="paint-order:markers fill stroke"/></g></svg>
