<?xml version="1.0" encoding="UTF-8"?>
<svg width="200" height="175" fill="none" version="1.1" viewBox="0 0 200 175" xmlns="http://www.w3.org/2000/svg" xmlns:xlink="http://www.w3.org/1999/xlink"><rect x="1.6254" y="1.5" width="197" height="172" rx="16" ry="16" fill="none" stroke="#676767" stroke-width="3"/><g transform="translate(223.67)"><g fill="#fff" stroke="#000"><path d="m-77.438 90.857c2.749 1.825 4.306 5.838 3.499 9.019-0.809 3.192-3.697 4.363-6.48 2.626l-18.549-11.576c-0.15685-0.09902-0.32315-0.14098-0.47702-0.12586l3.22-2.609c0.30614-0.2468 0.47199-0.68799 0.45101-1.196l-0.2982-7.167c-0.0412-0.97799 0.86298-1.298 1.478-0.52301 0.1731 0.21921 0.37115 0.40399 0.58201 0.54402z" stroke-width="2"/><path d="m-203.95 78.517c-2.366-2.253-3.229-6.452-1.939-9.434 1.295-2.993 4.276-3.652 6.689-1.477l16.584 14.947c0.14097 0.12699 0.29896 0.1988 0.45502 0.20787l-3.567 1.966c-0.34809 0.192-0.587 0.609-0.64702 1.128l-0.816 7.03c-0.11489 0.997-1.066 1.173-1.555 0.28687l-0.32088 0.30085 0.32088-0.30085c-0.1338-0.24189-0.29594-0.45502-0.47803-0.62899z" stroke-width="2"/><g stroke-width="2.0171"><rect transform="matrix(.87524 .48369 -.63584 .77183 0 0)" x="-95.654" y="140.43" width="11.074" height="55.071" rx="5.537" ry="5.537"/><rect transform="matrix(.87524 .48369 -.63584 .77183 0 0)" x="-79.486" y="134.16" width="8.8917" height="44.936" rx="4.4458" ry="4.4458"/><rect transform="matrix(.87524 .48369 -.63584 .77183 0 0)" x="-67.219" y="126.47" width="8.8917" height="44.936" rx="4.4458" ry="4.4458"/><rect transform="matrix(.87524 .48369 -.63584 .77183 0 0)" x="-54.625" y="118.58" width="8.8917" height="44.936" rx="4.4458" ry="4.4458"/><rect transform="matrix(.87524 .48369 -.63584 .77183 0 0)" x="-42.184" y="110.78" width="8.8917" height="44.936" rx="4.4458" ry="4.4458"/><rect transform="matrix(.87524 .48369 -.63584 .77183 0 0)" x="-28.748" y="89.505" width="11.074" height="55.071" rx="5.537" ry="5.537"/></g></g><rect x="-79.802" y="57.042" width="51.635" height="14.859" fill="#676767" stroke="#959595" stroke-width="3"/><rect x="-79.802" y="88.79" width="51.635" height="14.859" fill="#676767" stroke="#959595" stroke-width="3"/></g></svg>
