<?xml version="1.0" encoding="UTF-8"?>
<svg width="200" height="175" fill="none" version="1.1" viewBox="0 0 200 175" xmlns="http://www.w3.org/2000/svg" xmlns:xlink="http://www.w3.org/1999/xlink"><rect x="1.6254" y="1.5" width="197" height="172" rx="16" ry="16" fill="none" stroke="#676767" stroke-width="3"/><g transform="translate(209.82 4.4107)"><path d="m-133.81 97.885 17.602 16.713-3.97 7.991-12.806-14.331-4.764 9.589-15.22-21.508 15.189 9.537z" fill="#e11b22"/><g stroke="#000"><path d="m-113.48 72.193v-30.783l29.673 10.76v30.294z" fill="#ede5e5"/><path d="m-83.987 82.45v-31.044l56.217-21.194v31.536z" fill="#c4c4c4"/><path d="m-72.039 36.86v0.01512l9.8e-4 0.01398c0.12284 2.06-0.16516 3.512-0.722 4.545-0.552 1.021-1.392 1.681-2.482 2.113-1.102 0.437-2.451 0.635-3.986 0.719-1.209 0.06701-2.502 0.06202-3.856 0.057-0.36812-2e-3 -0.73999-3e-3 -1.116-3e-3 -3.517 0-6.948-0.13202-9.376-1.26-1.195-0.554-2.122-1.341-2.701-2.458-0.58201-1.122-0.84-2.631-0.59501-4.678l4e-3 -0.02986v-0.0291c0-1.924 1.344-3.531 3.682-4.683 2.331-1.149 5.541-1.783 8.986-1.783 3.417 0 6.486 0.872 8.686 2.255 2.207 1.387 3.475 3.241 3.475 5.206z" fill="#928b8b"/><path d="m-73.779 33.028c0 0.37198-0.20296 0.79-0.709 1.23-0.50498 0.44-1.265 0.859-2.247 1.221-1.959 0.722-4.7 1.178-7.752 1.178-3.051 0-5.792-0.456-7.752-1.178-0.98097-0.362-1.741-0.781-2.246-1.221-0.506-0.44-0.709-0.858-0.709-1.23 0-0.37202 0.20296-0.789 0.709-1.23 0.50498-0.44 1.265-0.859 2.246-1.22 1.96-0.722 4.701-1.179 7.752-1.179 3.052 0 5.793 0.457 7.752 1.179 0.982 0.36098 1.742 0.78 2.247 1.22 0.506 0.441 0.709 0.858 0.709 1.23z" fill="#c4c4c4"/><path d="m-43.135 25.652v0.01512l1e-3 0.01512c0.12284 2.06-0.16516 3.512-0.72302 4.545-0.55098 1.02-1.392 1.681-2.481 2.112-1.103 0.437-2.451 0.635-3.987 0.72-1.208 0.06599-2.501 0.06198-3.855 0.05601-0.36812-1e-3 -0.73999-2e-3 -1.117-2e-3 -3.516 0-6.947-0.13202-9.375-1.26-1.195-0.555-2.122-1.341-2.702-2.458-0.58102-1.123-0.83901-2.632-0.59402-4.678l4e-3 -0.02986v-0.02986c0-1.923 1.344-3.53 3.682-4.683 2.33-1.148 5.541-1.782 8.985-1.782 3.417 0 6.487 0.872 8.687 2.255 2.207 1.387 3.475 3.24 3.475 5.205z" fill="#928b8b"/><path d="m-44.876 21.821c0 0.37202-0.20296 0.789-0.709 1.23-0.50498 0.44-1.265 0.859-2.247 1.22-1.959 0.722-4.7 1.179-7.752 1.179-3.051 0-5.792-0.457-7.752-1.179-0.98098-0.36102-1.741-0.78-2.246-1.22-0.506-0.441-0.709-0.858-0.709-1.23 0-0.37202 0.20296-0.79 0.709-1.23 0.50502-0.44 1.265-0.859 2.246-1.221 1.96-0.722 4.701-1.178 7.752-1.178 3.052 0 5.793 0.456 7.752 1.178 0.98203 0.362 1.742 0.781 2.247 1.221 0.506 0.44 0.709 0.858 0.709 1.23z" fill="#c4c4c4"/></g><g fill="none" stroke="#000"><path d="m-113.22 41.404 17.154-7.568"/><path d="m-83.989 29.296 17.154-7.568"/><path d="m-43.092 24.251 15.705 5.911"/></g><path d="m-98.081 63.604c0 3.936-2.971 7.068-6.564 7.068-3.593 0-6.563-3.132-6.563-7.068 0-3.937 2.97-7.068 6.563-7.068 3.593 0 6.564 3.131 6.564 7.068z" fill="#c4c4c4" stroke="#000"/><path d="m-192.43 97.296 87-40.251 5.213 11.269-20.066 8.407-15.64 7.064-9.082-4.037-3.027 8.073h-12.613v7.568l-26.571 13.177z" fill="#c4c4c4"/></g></svg>
