<?xml version="1.0" encoding="UTF-8"?>
<svg width="200" height="175" fill="none" version="1.1" viewBox="0 0 200 175" xmlns="http://www.w3.org/2000/svg" xmlns:xlink="http://www.w3.org/1999/xlink"><rect x="1.6254" y="1.5" width="197" height="172" rx="16" ry="16" fill="none" stroke="#676767" stroke-width="3"/><g transform="translate(252.41)"><path d="m-192.51 31.666-0.60703 55.503 9.794 0.10711 0.60801-55.503z" fill="#fff" stroke="#676767" stroke-linecap="round" stroke-linejoin="round" stroke-miterlimit="10" stroke-width="5"/><path d="m-153.47 45.154-0.16101 14.692-0.15988 14.692-18.064 9.5982-11.428-0.1251 0.26797-24.487 0.26796-24.487 11.427 0.12499z" fill="#fff" stroke="#676767" stroke-linecap="round" stroke-linejoin="round" stroke-miterlimit="10" stroke-width="5"/><g fill="none" stroke="#676767" stroke-linecap="round" stroke-linejoin="round" stroke-miterlimit="10" stroke-width="5"><path d="m-163.43 59.738c0.0302-2.7047-2.139-4.9213-4.843-4.9509-2.705-0.02948-4.922 2.139-4.951 4.8438-0.0302 2.7047 2.139 4.9213 4.843 4.9509 2.705 0.02948 4.922-2.139 4.951-4.8438z"/><path d="m-192.93 70.844-0.0711 6.5297-26.119-0.28581c-1.796-0.01965-3.249-1.5049-3.23-3.3006 0.0189-1.7957 1.505-3.2488 3.301-3.2291z"/><path d="m-192.62 41.46-0.0718 6.5298-26.119-0.28581c-1.795-0.01965-3.249-1.505-3.229-3.3006 0.0189-1.7957 1.505-3.2488 3.301-3.2292z"/></g><path d="m-94.25 81.412 24.644-18.207 9.061 6.6905-20.629 12.77 10.873 8.0286-30.081 14.193 15.193-16.785z" fill="#e11b22"/><path d="m-153.42 59.861c130.53 0-72.281 69.582 100.47 57.296" fill="none" stroke="#676767" stroke-width="15"/></g></svg>
