<?xml version="1.0" encoding="UTF-8"?>
<svg width="24" height="24" fill="none" version="1.1" viewBox="0 0 24 24" xmlns="http://www.w3.org/2000/svg"><g clip-path="url(#clip0)"><path d="M-12 0V24H36V0H-12Z" fill="#012169"/><g clip-rule="evenodd" fill-rule="evenodd"><path d="m6.6335 12-19.707-9.8533 2.1466-4.2932 22.927 11.463 22.927-11.463 2.1466 4.2932-19.707 9.8533 19.707 9.8534-2.1466 4.2933-22.927-11.463-22.927 11.463-2.1466-4.2933 19.707-9.8534z" fill="#fff"/><path d="m8.422 12-21.138-10.569 1.4311-2.8622 23.284 11.642 23.284-11.642 1.4311 2.8622-21.138 10.569 21.138 10.569-1.4311 2.8622-23.284-11.642-23.284 11.642-1.4311-2.8622 21.138-10.569z" fill="#DA1F24"/><path d="M16 16V24H8V16H-12V8H8V0H16V8H36V16H16Z" fill="#fff"/><path d="M14.4 14.4V24H9.6V14.4H-12V9.6H9.6V0H14.4V9.6H36V14.4H14.4Z" fill="#DA1F24"/></g></g><defs><clipPath id="clip0"><path d="m0 12c0-6.6274 5.3726-12 12-12 6.6274 0 12 5.3726 12 12 0 6.6274-5.3726 12-12 12-6.6274 0-12-5.3726-12-12z" fill="#fff"/></clipPath></defs></svg>
