<?xml version="1.0" encoding="UTF-8"?>
<svg width="24" height="24" fill="none" version="1.1" viewBox="0 0 24 24" xmlns="http://www.w3.org/2000/svg"><g clip-path="url(#clip0)"><path d="M-12 0H36V24H-12V0Z" fill="#00AFCA"/><g fill="#FEC50C"><path d="m11.942 14.074c2.3989 0 4.3435-1.9384 4.3435-4.3294 0-2.3911-1.9446-4.3294-4.3435-4.3294-2.3988 0-4.3434 1.9384-4.3434 4.3294 0 2.391 1.9446 4.3294 4.3434 4.3294z"/><path d="m11.942 4.8248c0.2583-0.00322 0.3551-0.1641 0.3551-0.35717 0-0.25741-0.3551-1.4834-0.3551-1.4834s-0.3551 1.226-0.3551 1.4834c0 0.19307 0.0969 0.35717 0.3551 0.35717z"/><path d="m11.167 19.123c-0.1162 0.0065-0.2292 0.0214-0.34 0.0568-0.1517 0.0204-0.297 0.073-0.4476 0.0977l-0.0603 0.0096-0.1011 0.0097c0.0064 0.0278 0.0107 0.0557 0.0107 0.0836 0 0.029-0.0032 0.0569-0.0107 0.0805-0.0065 0.0225-0.027 0.0504-0.0431 0.0675-0.0215 0.0236-0.0441 0.044-0.071 0.0569-0.0259 0.0128-0.0549 0.0182-0.084 0.0204-0.02901 1e-3 -0.05913 0-0.08712-0.0108-0.02905-0.0096-0.05595-0.0278-0.08071-0.0493-0.03011 0.0075-0.06133 0.0129-0.09038 0.0161-0.03012 0.0032-0.05811 0.0032-0.085 0-0.03012-0.0086-0.06133-0.0183-0.09039-0.03-0.02926-0.0121-0.05735-0.0268-0.08393-0.044-0.10976 0.0643-0.23243 0.1255-0.29915 0.2381-0.03764 0.0515-0.0452 0.1105-0.05378 0.1716-0.00539 0.0751 0.01398 0.1544 0.04626 0.2242 0.01184 0.0203 0.02153-0.074 0.0581-0.0869 0.06134-0.0504 0.13775-0.0869 0.21523-0.1073 0.06562-0.0332 0.057 0.0022 0.03011 0.0537-0.00645 0.0268-0.04303 0.1287 0.00646 0.0772 0.21845-0.0966 0.46056-0.1159 0.6962-0.1341 0.3422-0.0354 0.6854-0.0429 1.0287-0.0472 0.3228 0.0043 0.6456 0.0086 0.9684 0.0204 0.1539 0.0043 0.3089 0.0386 0.4606 0.0129 0.0366-0.0097 0.0936-0.0118 0.1151-0.0333-0.0688-0.0397-0.1496-0.0407-0.2259-0.0504h-0.6155c-0.1711-0.0171-0.3497-0.0193-0.5112-0.0837-0.043-0.0171-0.0828-0.0579-0.1237-0.0139-0.0614 0.0215-0.127 0.0365-0.1915 0.0408-0.113 0.0085-0.226-0.015-0.3304-0.0569 0.0753-0.104 0.1657-0.1952 0.2486-0.2917-0.0667-0.0107-0.1313-0.0247-0.198-0.0408 0.1173-0.0804 0.2259-0.1716 0.34-0.2574z"/><path d="m16.195 20.235c-0.2339 0.14-0.4124-0.1082-0.6079-0.1826-0.1396 0.0756-0.1526 0.3285-0.2831 0.4482-0.1561 0.1771-0.3473-0.0494-0.3331-0.2241-0.1867 0.1569-0.281 0.5123-0.5829 0.4648-0.143-0.1163-0.2493-0.3604-0.3585-0.0825-0.0891 0.1359-0.3264 0.3292-0.4493 0.1241-0.038-0.1812-0.1291-0.3942-0.228-0.1065-0.0678 0.2035-0.2856 0.3533-0.4964 0.2642-0.1154-0.0941 0.0925-0.4417-0.0544-0.417-0.2195 0.1446-0.3471 0.5038-0.6534 0.4751-0.119-0.1331 0.0722-0.3586-0.0583-0.5063-0.154 0.197-0.3249 0.4855-0.5913 0.5063-0.1287-0.104 0.0051-0.4023-0.0771-0.4464-0.2733 0.1634-0.5617 0.4546-0.9055 0.3634 0.134-0.5108 0.6937-0.69 1.1645-0.7298 0.8099-0.0992 1.662 0.0832 2.4412-0.2082 0.1259-0.0763 0.431-0.1846 0.3224-0.3617-0.0962-0.1399 0.2502-0.0852 0.2836-0.2486-0.0207-0.2069 0.159-0.1784 0.3345-0.1965 0.7869-0.0339 1.5642 0.1313 2.3488 0.1594 0.0592 0.381-0.3648 0.6486-0.7062 0.5309-0.1631 0.0264-0.4076-0.3737-0.3597-0.0827-0.0329 0.1528-0.0099 0.3545-0.1499 0.4566v-1e-4zm-6.6952-0.7802c0.18217 0.1662 0.3099-0.0313 0.48019-0.1034 0.57117-0.1958 1.0694-0.538 1.5607-0.8799 0.2976-0.2455 0.5557-0.5639 0.9554-0.6435 0.7798-0.235 1.6087-0.2065 2.3914-0.4234 0.5961-0.8134 1.6085-1.1036 2.4566-1.5712 0.1904-0.059 0.264-0.2152 0.3248-0.3877 0.3237-0.5093 0.7647-0.9607 1.2862-1.269 0.2468-0.1344 0.5412-0.2118 0.8206-0.1503-0.0201 0.3316-0.2109 0.6256-0.4414 0.8549 0.1886-0.0041 0.3507-0.1229 0.5413-0.1162 0.0653 0.3404-0.3035 0.5185-0.4997 0.7305 0.1093 0.0253 0.5279 0.0568 0.2998 0.166-0.2907 0.2011-0.6227 0.3391-0.891 0.5727 0.2476 0.0443 0.2758 0.0968 0.024 0.186-0.1363 0.0921-0.3984 0.1243-0.4237 0.3037 0.187 0.1146-0.0862 0.2283-0.1915 0.2656-0.2015 0.0468-0.4132 0.134-0.1455 0.2866-0.1013 0.1525-0.3185 0.185-0.4958 0.1699 0.0538 0.1728 0.1317 0.3661-0.0933 0.4424-0.5044 0.38-1.0963 0.6564-1.7303 0.7197 0.792 0.0607 1.6078-0.0859 2.2846-0.5152 0.0894-0.1053 0.5579-0.2185 0.2959-0.307-0.1234-0.0512-0.3879-0.1081-0.4058-0.2018 0.3665-0.2255 0.8284-0.1453 1.2228-0.2792 0.0102-0.1273-0.3-0.0919-0.4156-0.1208-0.2758-0.0225-0.2596-0.0927 0.0063-0.1187 0.3364-0.0888 0.7175-0.1063 1.0005-0.3249-0.2304-0.1064-0.5202-0.0128-0.7661-0.0996 0.4168-0.1818 0.9085-0.2001 1.2824-0.4732 0.1704-0.1889-0.2182-0.1298-0.3314-0.1252-0.2308 0.04-0.3376-0.0701-0.0753-0.1657 0.4477-0.3291 1.0147-0.5428 1.3292-1.0199 0.0745-0.1068 0.1754-0.4286-0.0622-0.3129-0.3125 0.1036-0.5875 0.4538-0.9435 0.3455 0.7015-0.542 1.3691-1.1591 1.8486-1.9091 0.0248-0.2163-0.3159-0.2397-0.4045-0.0699-0.4508 0.4329-0.8587 0.9439-1.4358 1.2153 0.5527-0.5317 1.0096-1.1613 1.4083-1.8138 0.0855-0.1941 0.3152-0.4276 0.1905-0.643-0.2009-0.1659-0.4523-0.0141-0.5568 0.1843-0.3504 0.456-0.6164 0.9882-1.067 1.3595 0.3945-0.7504 0.8029-1.5492 0.8128-2.4147-0.0012-0.1782-0.0371-0.4407-0.2798-0.4074-0.1925 0.0344-0.1468 0.3215-0.2261 0.4667-0.1747 0.5913-0.2567 1.2317-0.615 1.7495 0.0806-0.4805 0.2216-0.9814 0.1134-1.4666-0.0506-0.2169-0.4019-0.1236-0.3567 0.091-0.4197 2.1192-1.8463 3.9726-3.712 5.0447-0.8543 0.4818-1.8085 0.7924-2.7793 0.9332-0.2612 0.057-0.5436 0.0236-0.7932 0.1123-0.6049 0.4623-0.9711 1.2359-1.7368 1.4781-0.3433 0.17-0.7908 0.2045-1.0362 0.5223-0.02124 0.0407-0.0258 0.0878-0.02496 0.1328z"/><path d="m11.792 17.305c-0.113 0.2044-0.1795 0.4394-0.3247 0.6225-0.4372-0.3965-1.0708-0.3834-1.6253-0.4097-0.45765-0.0244-0.95534-0.0665-1.3094-0.3918-0.3725-0.3042-0.67655-0.699-1.0928-0.9458-0.37992-0.103-0.76291-0.2318-1.0684-0.4914-0.65273-0.5303-1.0265-1.3172-1.6644-1.8641-0.1216-0.1193-0.265-0.2118-0.40123-0.313-0.12944 0.0314-0.07085 0.3099-0.22926 0.168-0.08619-0.0612-0.30176-0.0671-0.3212 0.0183 0.19501 0.2561 0.39022 0.5486 0.41724 0.8762-0.133 0.0135-0.36946-0.028-0.43538 0.0213 0.17661 0.2639 0.403 0.4979 0.66022 0.6842-0.12338 0.0198-0.36649 9e-3 -0.41378 0.0586 0.25531 0.2074 0.52909 0.4194 0.86343 0.4727 0.06843 0.0899-0.10008 0.2635 0.04164 0.3403 0.08216 0.0334 0.35329 0.0894 0.16654 0.1826-0.12816 0.086-0.08061 0.2867 0.08329 0.2822 0.10362 0.0527 0.33627 0.0656 0.35448 0.157-0.09184 0.0931-0.37763 0.2036-0.13439 0.2909 0.22723 0.1256 0.48638 0.2071 0.74586 0.2161-0.13022 0.1092-0.29066 0.1712-0.42469 0.2739 0.59882 0.35 1.2626 0.5802 1.9186 0.8018 0.26116 0.087 0.52535 0.1681 0.79606 0.2192-0.78663-0.0453-1.547-0.2774-2.2634-0.5952-0.37134-0.1623-0.74519-0.3191-1.1258-0.459 0.16686-0.0865 0.35987-0.1077 0.53293-0.1826-0.35923-0.0717-0.75167-0.0952-1.0674-0.292 0.04842-0.0861 0.23188-0.0902 0.33334-0.134 0.19081-0.0456 0.30919-0.1009 0.04013-0.1174-0.27133-0.0734-0.58252-0.0404-0.82163-0.2036 0.0154-0.0978 0.26564-0.0637 0.36755-0.106 0.12836-0.022 0.27104-0.0404 0.3736-0.1264-0.41947-0.1734-0.96812-0.0506-1.2967-0.4198-0.07577-0.1407 0.2353-0.0273 0.32388-0.0508 0.2251 0 0.46701 0.0713 0.68136-0.0191-0.61121-0.2675-1.2659-0.5179-1.7321-1.0127-0.05175-0.0795-0.20682-0.2968-0.0817-0.3237 0.36281 0.0479 0.62542 0.4425 1.0135 0.3811 0.05155-0.0693-0.22546-0.1828-0.2946-0.2818-0.56583-0.484-1.115-1.0092-1.5116-1.6431-0.02728-0.2118 0.30658-0.2435 0.39448-0.08 0.43273 0.4155 0.82363 0.9003 1.3626 1.1839 0.19124 0.0924-0.10982-0.1094-0.14991-0.1826-0.498-0.5765-0.97209-1.1853-1.3202-1.8641-0.0623-0.1224-0.16554-0.3439 0.02085-0.409 0.18637-0.0931 0.37127 0.0337 0.46576 0.1933 0.36614 0.4603 0.63556 1.0074 1.0917 1.3908-0.38857-0.7516-0.80345-1.5428-0.81349-2.4077 0.00914-0.1676 0.01995-0.4213 0.24805-0.4144 0.19153-0.0289 0.16128 0.2155 0.22403 0.332 0.18872 0.6354 0.27101 1.3232 0.64957 1.8842-0.08361-0.4714-0.2067-0.9568-0.12493-1.436 0.01885-0.1573 0.19656-0.2049 0.31255-0.1098 0.09378 0.2287 0.11331 0.5113 0.19876 0.7558 0.48615 1.6578 1.5778 3.1158 3.0003 4.0942 1.1716 0.801 2.5619 1.2791 3.9809 1.3625 0.1282 0.0111 0.2569 0.015 0.3852 0.0228"/><path d="m9.9902 19.502c0.04218 0 0.07638-0.0341 0.07638-0.0762 0-0.042-0.0342-0.0761-0.07638-0.0761-0.0422 0-0.07641 0.0341-0.07641 0.0761 0 0.0421 0.03421 0.0762 0.07641 0.0762z"/><path d="m9.9838 19.445c0.01724 0 0.03114-0.014 0.03114-0.0311s-0.0139-0.0311-0.03114-0.0311c-0.0172 0-0.03115 0.014-0.03115 0.0311s0.01395 0.0311 0.03115 0.0311z"/><path d="m-19.479-1.5528c0.1054-0.13035 0.4156 0.12951 0.4156 0.12951l3e-4 -1e-4 0.1754-0.21928s-0.252-0.29478-0.5506-0.29478c-0.2304 0-0.4658 0.14564-0.4658 0.40659 0 0.16886 0.1333 0.46547 0.2704 0.77063 0.1453 0.32327 0.2948 0.65614 0.2948 0.85689 0 0.29323-0.2152 0.4472-0.5003 0.43841-0.3163-0.009524-0.5563-0.15702-0.5563-0.45357 0-0.32148 0.1638-0.45154 0.3659-0.46032 0.202-0.008785 0.2894 0.12926 0.2894 0.22891 0 0.11445-0.071 0.13974-0.1489 0.13974-0.1732 0-0.1054-0.27209-0.1054-0.27209-0.1067 0.061329-0.1799 0.13694-0.1142 0.27209-0.0863-0.0029602-0.1613 0.0334-0.2108 0.096563 0.0488 0.057887 0.1206 0.088262 0.2108 0.096532-0.0531 0.14473 0.0215 0.21427 0.1389 0.24522-0.0311-0.064193-0.0467-0.15011-0.0164-0.2143 0.0429 0.031952 0.119 0.053221 0.1707 0.053221 0.1603 0 0.3243-0.16716 0.3243-0.40038 0-0.30877-0.2612-0.60371-0.6858-0.49382 0.1463-0.099491 0.2061-0.20516 0.215-0.30465-0.0158 0.003255-0.0301 0.006494-0.0434 0.009482-0.0653 0.014735-0.1035 0.023333-0.1524-0.002724 0.0731-0.096562 0.1276-0.20863 0.0931-0.30517-0.0587 0.05535-0.1269 0.07224-0.202 0.06146 0.1331-0.34831-0.1009-0.78415-0.5732-0.83126 0 0 0.2672 0.41341 0.2672 0.73817 0 0.30147-0.0569 0.50445-0.112 0.70136-0.052 0.18545-0.1025 0.3655-0.1025 0.61736 0 0.3367 0.1961 0.55303 0.3887 0.65268-0.173 0.010972-0.2397 0.051483-0.3424 0.18898 0 0 1e-4 8e-6 2e-4 2.4e-5l-3e-4 7.2e-5c0.0536 0.097107 0.1461 0.16908 0.2897 0.20926-0.219 0.16124-0.3294 0.39536-0.3294 0.61241 0 0.23899 0.0436 0.39558 0.0911 0.56637 0.057 0.20483 0.1197 0.43007 0.1197 0.84234 0 0.23329-0.091 0.4676-0.2767 0.68464 0.5075-0.10365 0.707-0.5417 0.5446-0.86019 0.0813-0.03371 0.1451 9.7e-4 0.2079 0.03512 0.017 0.00928 0.034 0.01852 0.0512 0.02633 0.0026-0.14599-0.0458-0.22393-0.0915-0.29743-0.0093-0.01495-0.0184-0.02971-0.027-0.04483 0 0 0.0878 0.00437 0.1669 0.03507-0.0107-0.11294-0.0634-0.21394-0.1669-0.2633 0.4353 0.07017 0.6676-0.21067 0.6676-0.54418 0-0.33593-0.299-0.42394-0.4941-0.36862-0.0083-0.04714-0.0075-0.09711 0.0175-0.1514-0.1239 0.02903-0.1812 0.09798-0.1383 0.23918-0.0725 0.01245-0.1288 0.04907-0.1779 0.09653 0.0465 0.05319 0.1088 0.0901 0.1779 0.10531-0.0428 0.11571 0.032 0.20838 0.123 0.22823 0 0-0.0515-0.24576 0.1317-0.24576 0.0725 0 0.123 0.04504 0.123 0.1492 0 0.14946-0.0851 0.23698-0.2987 0.23698-0.1735 0-0.3425-0.14479-0.3425-0.46956 0-0.26739 0.2679-0.50202 0.5138-0.49591 0.2698 0.00663 0.5271 0.22273 0.5271 0.48713 0 0.17118-0.0161 0.28799-0.0659 0.39057-0.3994 0.82251-1.4253 2.9491-1.4253 2.9491-0.1272 0.26324-0.1778 0.43581-0.1778 0.71086 0 0.48519 0.3311 0.85584 0.9531 0.85584 0.4616 0 1.0491-0.33522 1.0491-0.98745l-0.0653-2.5436c-0.1305 0.08003-0.3294 0.3507-0.3294 0.59502 0 0.18058 0.1064 0.27431 0.2064 0.31598-0.4117-0.04109-0.5896 0.12118-0.6764 0.4213 0.2299-0.07758 0.5915-0.08502 0.5797 0.17555 0 0-0.0164 0.69339-0.0219 0.86895-0.0934-0.13167-0.2534-0.16678-0.4568-0.16678-0.2788 0-0.2484-0.18785-0.202-0.35108-0.1467 0.05216-0.296 0.14621-0.2416 0.36862-0.1247 0.00225-0.2058 0.06554-0.2723 0.1492 0.0845 0.09499 0.1761 0.14046 0.2723 0.15362-0.0271 0.14335 0.0717 0.27929 0.2416 0.35546-0.0544-0.14589-0.071-0.37741 0.202-0.37741 0.1142 0 0.1933 0.08743 0.1933 0.23258 0 0.2291-0.246 0.41251-0.4875 0.41251-0.2021 0-0.5579-0.13514-0.5579-0.52224 0-0.1539 0.0382-0.29606 0.1011-0.43007 0.2965-0.6319 1.2476-2.6421 1.4494-3.0632 0.1842-0.3848 0.0626-0.81221 0-0.9303-0.0627-0.11822-0.2753-0.35108-0.5798-0.38625-0.0167-0.006527-0.0342-0.012651-0.0526-0.018373 0.42-0.096187 0.7379-0.28584 0.7379-0.82119 0-0.16307-0.1358-0.45917-0.2722-0.75653-0.1711-0.3732-0.3432-0.74839-0.2489-0.86506z"/></g></g><defs><clipPath id="clip0"><path d="m0 12c0-6.6274 5.3726-12 12-12 6.6274 0 12 5.3726 12 12 0 6.6274-5.3726 12-12 12-6.6274 0-12-5.3726-12-12z" fill="#fff"/></clipPath></defs></svg>
