<svg width="53" height="44" viewBox="0 0 53 44" fill="none" xmlns="http://www.w3.org/2000/svg">
<path fill-rule="evenodd" clip-rule="evenodd" d="M44 5.5L44 8.23821H52.25L44 16.5L44 38.5H39.875V41.25H44L44 44H0V41.25H4.125V38.5H0V5.5H4.125V2.75H0V0H44L44 2.75H39.875V5.5H44ZM15.125 2.75H6.875V5.5H15.125V2.75ZM1.375 6.875H9.625V8.25H1.375V6.875ZM12.375 9.625H9.625V34.375H12.375V9.625ZM6.875 15.125H4.125V17.875H6.875V15.125ZM37.125 2.75H28.875V5.5H37.125V2.75ZM26.125 2.75H17.875V5.5H26.125V2.75ZM12.375 6.875H20.625V8.25H12.375V6.875ZM31.625 6.875H23.375V8.25H31.625V6.875ZM34.375 6.875H42.625V8.25H34.375V6.875ZM9.625 35.75V37.125H1.375V35.75H9.625ZM6.875 41.25H15.125V38.5H6.875V41.25ZM28.875 41.25H37.125V38.5H28.875V41.25ZM17.875 41.25H26.125V38.5H17.875V41.25ZM20.625 35.75V37.125H12.375V35.75H20.625ZM23.375 35.75V37.125H31.625V35.75H23.375ZM42.625 35.75V37.125H34.375V35.75H42.625ZM4.125 28.875V26.125H6.875V28.875H4.125ZM5.5 23.375C6.25939 23.375 6.875 22.7594 6.875 22C6.875 21.2406 6.25939 20.625 5.5 20.625C4.74061 20.625 4.125 21.2406 4.125 22C4.125 22.7594 4.74061 23.375 5.5 23.375ZM20.625 9.625H23.375V34.375H20.625V9.625ZM17.875 15.125H15.125V17.875H17.875V15.125ZM15.125 28.875V26.125H17.875V28.875H15.125ZM16.5 23.375C17.2594 23.375 17.875 22.7594 17.875 22C17.875 21.2406 17.2594 20.625 16.5 20.625C15.7406 20.625 15.125 21.2406 15.125 22C15.125 22.7594 15.7406 23.375 16.5 23.375ZM31.625 9.625H34.375V34.375H31.625V9.625ZM28.875 15.125H26.125V17.875H28.875V15.125ZM26.125 28.875V26.125H28.875V28.875H26.125ZM27.5 23.375C28.2594 23.375 28.875 22.7594 28.875 22C28.875 21.2406 28.2594 20.625 27.5 20.625C26.7406 20.625 26.125 21.2406 26.125 22C26.125 22.7594 26.7406 23.375 27.5 23.375ZM37.125 15.125H39.875V17.875H37.125V15.125ZM37.125 26.125V28.875H39.875V26.125H37.125ZM39.875 22C39.875 22.7594 39.2594 23.375 38.5 23.375C37.7406 23.375 37.125 22.7594 37.125 22C37.125 21.2406 37.7406 20.625 38.5 20.625C39.2594 20.625 39.875 21.2406 39.875 22Z" fill="#DA1F24"/>
</svg>
