<svg width="53" height="44" viewBox="0 0 53 44" fill="none" xmlns="http://www.w3.org/2000/svg">
<path d="M15.125 15.125C15.5047 15.125 15.8125 14.8172 15.8125 14.4375C15.8125 14.0578 15.5047 13.75 15.125 13.75C14.7453 13.75 14.4375 14.0578 14.4375 14.4375C14.4375 14.8172 14.7453 15.125 15.125 15.125Z" fill="#DA1F24"/>
<path d="M11 22.6875C11 23.0672 10.6922 23.375 10.3125 23.375C9.9328 23.375 9.625 23.0672 9.625 22.6875C9.625 22.3078 9.9328 22 10.3125 22C10.6922 22 11 22.3078 11 22.6875Z" fill="#DA1F24"/>
<path d="M32.3125 25.4375C32.6922 25.4375 33 25.1297 33 24.75C33 24.3703 32.6922 24.0625 32.3125 24.0625C31.9328 24.0625 31.625 24.3703 31.625 24.75C31.625 25.1297 31.9328 25.4375 32.3125 25.4375Z" fill="#DA1F24"/>
<path d="M33 16.5C33 16.8797 32.6922 17.1875 32.3125 17.1875C31.9328 17.1875 31.625 16.8797 31.625 16.5C31.625 16.1203 31.9328 15.8125 32.3125 15.8125C32.6922 15.8125 33 16.1203 33 16.5Z" fill="#DA1F24"/>
<path fill-rule="evenodd" clip-rule="evenodd" d="M44 8.23821V0H0V44H44V16.5L52.25 8.23821H44ZM22 38.5V17.875C22 16.3562 20.7688 15.125 19.25 15.125H17.7884C17.4831 16.3111 16.4064 17.1875 15.125 17.1875C13.6062 17.1875 12.375 15.9563 12.375 14.4375C12.375 12.9187 13.6062 11.6875 15.125 11.6875C16.4064 11.6875 17.4831 12.5639 17.7884 13.75H19.25C21.5282 13.75 23.375 15.5968 23.375 17.875V38.4435C23.839 38.4052 24.2976 38.3478 24.75 38.2719V28.1875C24.75 25.9093 26.5968 24.0625 28.875 24.0625H29.6491C29.9544 22.8764 31.0311 22 32.3125 22C33.8313 22 35.0625 23.2312 35.0625 24.75C35.0625 26.2688 33.8313 27.5 32.3125 27.5C31.0311 27.5 29.9544 26.6236 29.6491 25.4375H28.875C27.3562 25.4375 26.125 26.6687 26.125 28.1875V37.9802C33.2416 36.1485 38.5 29.6883 38.5 22C38.5 14.3117 33.2416 7.8515 26.125 6.01982V13.0625C26.125 14.5813 27.3562 15.8125 28.875 15.8125H29.6491C29.9544 14.6264 31.0311 13.75 32.3125 13.75C33.8313 13.75 35.0625 14.9812 35.0625 16.5C35.0625 18.0188 33.8313 19.25 32.3125 19.25C31.0311 19.25 29.9544 18.3736 29.6491 17.1875H28.875C26.5968 17.1875 24.75 15.3407 24.75 13.0625V5.72814C23.8557 5.5781 22.937 5.5 22 5.5C14.3117 5.5 7.8515 10.7584 6.01982 17.875H16.5C18.7782 17.875 20.625 19.7218 20.625 22V38.4435C21.0784 38.4809 21.537 38.5 22 38.5ZM19.25 38.2719V22C19.25 20.4812 18.0188 19.25 16.5 19.25H5.72814C5.5781 20.1443 5.5 21.063 5.5 22C5.5 29.1842 10.0914 35.296 16.5 37.5611V26.125C16.5 24.6062 15.2688 23.375 13.75 23.375H12.9759C12.6706 24.5611 11.5939 25.4375 10.3125 25.4375C8.79372 25.4375 7.5625 24.2063 7.5625 22.6875C7.5625 21.1687 8.79372 19.9375 10.3125 19.9375C11.5939 19.9375 12.6706 20.8139 12.9759 22H13.75C16.0282 22 17.875 23.8468 17.875 26.125V37.9802C18.3262 38.0963 18.7848 38.1938 19.25 38.2719ZM16.5 14.4375C16.5 15.1969 15.8844 15.8125 15.125 15.8125C14.3656 15.8125 13.75 15.1969 13.75 14.4375C13.75 13.6781 14.3656 13.0625 15.125 13.0625C15.8844 13.0625 16.5 13.6781 16.5 14.4375ZM10.3125 24.0625C11.0719 24.0625 11.6875 23.4469 11.6875 22.6875C11.6875 21.9281 11.0719 21.3125 10.3125 21.3125C9.55311 21.3125 8.9375 21.9281 8.9375 22.6875C8.9375 23.4469 9.55311 24.0625 10.3125 24.0625ZM33.6875 24.75C33.6875 25.5094 33.0719 26.125 32.3125 26.125C31.5531 26.125 30.9375 25.5094 30.9375 24.75C30.9375 23.9906 31.5531 23.375 32.3125 23.375C33.0719 23.375 33.6875 23.9906 33.6875 24.75ZM32.3125 17.875C33.0719 17.875 33.6875 17.2594 33.6875 16.5C33.6875 15.7406 33.0719 15.125 32.3125 15.125C31.5531 15.125 30.9375 15.7406 30.9375 16.5C30.9375 17.2594 31.5531 17.875 32.3125 17.875Z" fill="#DA1F24"/>
</svg>
