<svg width="53" height="44" viewBox="0 0 53 44" fill="none" xmlns="http://www.w3.org/2000/svg">
<rect width="44" height="44" fill="white"/>
<path fill-rule="evenodd" clip-rule="evenodd" d="M44 0V8.23821H52.25L44 16.5V44H0V0H44ZM21.9741 16.8125L21.9658 16.8193L21.9575 16.8125L21.9224 16.8551L8.10278 28.2401L9.24808 29.6303L21.9658 19.1531L34.6835 29.6303L35.8288 28.2401L22.0092 16.8551L21.9741 16.8125ZM10.9737 30.6924L21.945 21.5399L32.9414 30.6924V37.1875H24.9658V31.8125H18.9658V37.1875H10.9737V30.6924ZM36.3079 7.5645L34.8289 8.4455V6.8125H33.8289V8.4455L32.3349 7.5495L31.8289 8.4165L33.3279 9.3125L31.8289 10.1775L32.3659 11.0445L33.8289 10.1795V11.8125H34.8289V10.1795L36.2959 11.0485L36.8289 10.1815L35.3299 9.3125L36.8289 8.4315L36.3079 7.5645ZM34.8289 16.4455L36.3079 15.5645L36.8289 16.4315L35.3299 17.3125L36.8289 18.1815L36.2959 19.0485L34.8289 18.1795V19.8125H33.8289V18.1795L32.3659 19.0445L31.8289 18.1775L33.3279 17.3125L31.8289 16.4165L32.3349 15.5495L33.8289 16.4455V14.8125H34.8289V16.4455ZM28.0886 7.5645L26.6096 8.4455V6.8125H25.6096V8.4455L24.1156 7.5495L23.6096 8.4165L25.1086 9.3125L23.6096 10.1775L24.1466 11.0445L25.6096 10.1795V11.8125H26.6096V10.1795L28.0766 11.0485L28.6096 10.1815L27.1106 9.3125L28.6096 8.4315L28.0886 7.5645ZM18.3904 8.4455L19.8694 7.5645L20.3904 8.4315L18.8914 9.3125L20.3904 10.1815L19.8574 11.0485L18.3904 10.1795V11.8125H17.3904V10.1795L15.9274 11.0445L15.3904 10.1775L16.8894 9.3125L15.3904 8.4165L15.8964 7.5495L17.3904 8.4455V6.8125H18.3904V8.4455ZM11.6501 7.5645L10.1711 8.4455V6.8125H9.17114V8.4455L7.67714 7.5495L7.17114 8.4165L8.67014 9.3125L7.17114 10.1775L7.70814 11.0445L9.17114 10.1795V11.8125H10.1711V10.1795L11.6381 11.0485L12.1711 10.1815L10.6721 9.3125L12.1711 8.4315L11.6501 7.5645ZM10.1711 16.4455L11.6501 15.5645L12.1711 16.4315L10.6721 17.3125L12.1711 18.1815L11.6381 19.0485L10.1711 18.1795V19.8125H9.17114V18.1795L7.70814 19.0445L7.17114 18.1775L8.67014 17.3125L7.17114 16.4165L7.67714 15.5495L9.17114 16.4455V14.8125H10.1711V16.4455Z" fill="#DA1F24"/>
</svg>
