<svg width="53" height="44" viewBox="0 0 53 44" fill="none" xmlns="http://www.w3.org/2000/svg">
<path fill-rule="evenodd" clip-rule="evenodd" d="M44 0V8.23821H52.25L44 16.5V44H0V0H44ZM15.9997 11.875V11.8752L15.9397 11.8152L10.4397 17.3152L10.4997 17.3752V17.875V34.375V34.875H10.9997H27.4997H27.9997V34.8745L28.06 34.9348L33.56 29.4348L33.4997 29.3745V28.875V12.375V11.875H32.9997H16.4997H15.9997ZM11.7941 17.375L15.9997 13.1694V17.375H11.7941ZM32.2056 29.375H27.9997V33.581L32.2056 29.375ZM27.9997 28.375H32.4997V13.5821L27.9997 18.0821V28.375ZM27.2926 17.375L31.7926 12.875H16.9997V17.375H27.2926ZM16.9997 18.375H26.9997V28.375H16.9997V18.375ZM15.9997 18.375V28.6679L11.4997 33.1679V18.375H15.9997ZM12.2068 33.875L16.7068 29.375H26.9997V33.875H12.2068Z" fill="#DA1F24"/>
</svg>
