<svg width="53" height="44" viewBox="0 0 53 44" fill="none" xmlns="http://www.w3.org/2000/svg">
<path fill-rule="evenodd" clip-rule="evenodd" d="M44 0V8.23821H52.25L44 16.5V44H0V0H44ZM11 6.875H34.375V38.5H11V6.875ZM13.75 9.625H31.625V15.125H13.75V9.625ZM13.75 17.875H17.875V22H13.75V17.875ZM24.75 17.875H20.625V22H24.75V17.875ZM31.625 17.875H27.5V22H31.625V17.875ZM31.625 24.75H27.5V28.875H31.625V24.75ZM27.5 31.625H31.625V35.75H27.5V31.625ZM20.625 24.75H24.75V28.875H20.625V24.75ZM24.75 31.625H20.625V35.75H24.75V31.625ZM17.875 24.75H13.75V28.875H17.875V24.75ZM13.75 31.625H17.875V35.75H13.75V31.625ZM15.125 19.25H16.5V20.625H15.125V19.25Z" fill="#DA1F24"/>
</svg>
