<svg width="53" height="45" viewBox="0 0 53 45" fill="none" xmlns="http://www.w3.org/2000/svg">
<path fill-rule="evenodd" clip-rule="evenodd" d="M44 0.978271V9.21649H52.25L44 17.4783V44.9783H0V0.978271H44ZM14.8987 11.1505C16.5711 9.55459 18.6327 8.59364 20.9086 8.34907C21.6425 8.27023 23.0084 8.32046 23.8236 8.45632C25.1845 8.68315 26.7134 9.3094 27.9106 10.1304C31.8419 12.8263 33.1922 17.8768 31.1125 22.1068C30.351 23.6557 28.9923 25.1341 27.432 26.1115C26.8641 26.4673 26.5273 26.7273 26.4302 26.8851L26.2837 27.1228H24.6986H23.1134L23.1323 24.2398L23.1512 21.3568L23.4406 21.2488C24.6268 20.8056 25.5601 19.7349 25.8217 18.5173C25.972 17.8173 25.9663 17.4884 25.7927 16.8382C25.6075 16.1449 25.3089 15.6522 24.7486 15.1156C23.9793 14.3788 23.0898 14.0276 21.9967 14.0292C20.794 14.0308 19.7068 14.5224 18.9715 15.3969C17.3737 17.2975 18.0464 20.1014 20.3492 21.1383L20.9458 21.4069L20.9272 24.2475L20.9086 27.0881L19.3121 27.1068L17.7155 27.1253L17.5398 26.8652C17.4243 26.6945 17.066 26.4162 16.4959 26.0548C11.1091 22.6393 10.3438 15.497 14.8987 11.1505ZM20.7995 18.9269C19.9614 18.146 20.1907 16.791 21.2463 16.2871C22.1352 15.8629 23.2149 16.2551 23.6035 17.1431C23.7499 17.4778 23.7368 18.1122 23.5768 18.4351C23.0543 19.4896 21.6672 19.7352 20.7995 18.9269ZM16.3166 30.7763C16.3184 29.5791 16.346 29.4749 16.7129 29.2817C16.8142 29.2283 18.3981 29.2049 21.9938 29.2036C26.9611 29.2018 27.1375 29.2062 27.3614 29.3369C27.6873 29.5272 27.7639 29.8629 27.7328 30.9647C27.7033 32.0124 27.6238 32.2009 27.1615 32.3202C26.9787 32.3673 25.1438 32.3854 21.8102 32.3727L16.7371 32.3536L16.5261 32.1273L16.315 31.9011L16.3166 30.7763ZM19.0495 37.1494C18.1782 36.6131 17.6879 35.8649 17.5528 34.8651L17.499 34.4667H22.0115H26.5239L26.4764 34.7958C26.3101 35.9488 25.6705 36.8422 24.678 37.3079C24.0101 37.6213 23.5704 37.6703 21.7425 37.6352C19.944 37.6005 19.7158 37.5594 19.0495 37.1494Z" fill="#DA1F24"/>
</svg>
