<?xml version="1.0" encoding="UTF-8"?>
<svg width="24" height="24" fill="none" version="1.1" viewBox="0 0 24 24" xmlns="http://www.w3.org/2000/svg"><path d="m16.354 1.5525c-0.69817-0.085856-1.4095-0.066979-2.1094 0.060547-1.3998 0.25505-2.6892 0.93139-3.6953 1.9375-1.006 1.0061-1.6825 2.2955-1.9375 3.6953-0.21006 1.153-0.055276 2.3179 0.30859 3.4238l-6.5039 6.5059a1.0001 1.0001 0 0 0-0.00195 0c-0.58498 0.58509-0.91406 1.3796-0.91406 2.207 0 0.82743 0.33087 1.6219 0.91602 2.207 0.58497 0.58438 1.3802 0.91602 2.207 0.91602 0.82745 0 1.6219-0.33082 2.207-0.91602l6.5059-6.5039c1.1059 0.36386 2.2708 0.51865 3.4238 0.30859 1.3998-0.25502 2.6892-0.9313 3.6953-1.9375 1.0062-1.0061 1.6825-2.2955 1.9375-3.6953 0.25514-1.3999 0.07677-2.8444-0.50977-4.1406a1.0001 1.0001 0 0 0-1.6172-0.29492l-3.7637 3.7617-1.584-1.584 2e-3 -0.00391 3.7598-3.7598a1.0001 1.0001 0 0 0-0.29497-1.6172c-0.64816-0.2933-1.3331-0.48446-2.0312-0.57031zm-1.752 2.0273c0.4244-0.077328 0.83057 0.12158 1.2559 0.1543l-2.3516 2.3516-0.01172 0.00977a1.0001 1.0001 0 0 0-0.0059 0.00781c-0.3664 0.37366-0.57227 0.87732-0.57227 1.4004 0 0.52307 0.20586 1.0267 0.57227 1.4004a1.0001 1.0001 0 0 0 0.0059 0.00586l1.6016 1.5996a1.0001 1.0001 0 0 0 0.0059 0.0078c0.37364 0.36644 0.87732 0.57227 1.4004 0.57227 0.52307 0 1.0268-0.20604 1.4004-0.57227a1.0001 1.0001 0 0 0 0.0078-0.0078l2.3613-2.3613c0.03271 0.42527 0.23165 0.83148 0.1543 1.2559a1.0001 1.0001 0 0 0-2e-3 0c-0.18218 1-0.66402 1.92-1.3828 2.6387-0.71871 0.71879-1.6387 1.2006-2.6387 1.3828-1.0001 0.18219-2.031 0.05583-2.957-0.36328a1.0001 1.0001 0 0 0-1.1211 0.20312l-6.9082 6.9102a1.0001 1.0001 0 0 0-0.00195 0c-0.21057 0.2106-0.49324 0.33008-0.79102 0.33008s-0.58242-0.11949-0.79297-0.33008c-0.21051-0.2105-0.33008-0.4952-0.33008-0.79297 0-0.29777 0.1194-0.58226 0.33008-0.79297l6.9102-6.9082a1.0001 1.0001 0 0 0 0.20312-1.1211c-0.41906-0.92592-0.54546-1.957-0.36326-2.957 0.18218-0.99997 0.66405-1.9199 1.3828-2.6387 0.71872-0.71875 1.6387-1.2026 2.6387-1.3848z" color="#000000" fill="#212529" stroke-linecap="round" stroke-linejoin="round" style="-inkscape-stroke:none"/></svg>
