<?xml version="1.0" encoding="UTF-8"?>
<svg width="24" height="24" fill="none" version="1.1" viewBox="0 0 24 24" xmlns="http://www.w3.org/2000/svg"><path d="m12.001 1c-0.52509 0-1.0429 0.13849-1.4978 0.40035l-6.9993 3.9996a1 1 0 0 0-0.00391 0.00195c-0.39878 0.23026-0.73147 0.55232-0.98623 0.9335a0.9999 0.9999 0 0 0-0.10741 0.12108 0.9999 0.9999 0 0 0-0.041012 0.12108c-0.23507 0.4359-0.36469 0.92171-0.36519 1.4179a1 1 0 0 0 0 0.00195v7.9992c5.398e-4 0.52599 0.14109 1.0425 0.40426 1.4978a1 1 0 0 0 0 2e-3c0.26321 0.45527 0.64187 0.8326 1.0976 1.0956a1 1 0 0 0 0.00195 2e-3l6.9993 3.9996c0.31647 0.18219 0.66493 0.29972 1.0233 0.35738a0.9999 0.9999 0 0 0 0.47456 0.12499 0.9999 0.9999 0 0 0 0.47261-0.12304c0.36032-0.05766 0.70898-0.17751 1.0272-0.36129l6.9954-3.9976a1 1 0 0 0 2e-3 -2e-3c0.45562-0.263 0.83434-0.64222 1.0976-1.0976 0.26314-0.45536 0.40366-0.97197 0.40426-1.4978v-7.9992a1 1 0 0 0 0-0.00195c-5.52e-4 -0.45155-0.11074-0.89376-0.30661-1.2987a0.9999 0.9999 0 0 0-2e-3 -0.00586 0.9999 0.9999 0 0 0-0.09765-0.23436 0.9999 0.9999 0 0 0-0.10741-0.12108c-0.25477-0.3812-0.5875-0.70325-0.98623-0.9335a1 1 0 0 0-0.0039-0.00195l-6.9973-3.9976c-0.45587-0.26313-0.97136-0.4023-1.4978-0.4023zm0 1.9998c0.17559 0 0.34768 0.04491 0.49995 0.1328a1 1 0 0 0 2e-3 0.00391l6.4563 3.6891-6.9583 4.025-6.9602-4.025 6.4563-3.6891a1 1 0 0 0 0.0039-0.00391c0.15197-0.087751 0.32436-0.1328 0.49995-0.1328zm-8.0012 5.5346 7.0013 4.0504v7.9894l-6.5013-3.7144-0.00195-2e-3c-0.15069-0.087461-0.27592-0.2122-0.36324-0.36324-0.087492-0.1514-0.13424-0.32332-0.13476-0.498v-7.4621zm16 0v7.4601c-2e-4 0.1754-0.04694 0.34798-0.13475 0.49995-0.08729 0.151-0.21262 0.27573-0.36324 0.36324l-6.5013 3.7144v-7.9894l6.9993-4.0484z" color="#000000" fill="#212529" stroke-linecap="round" stroke-linejoin="round" stroke-width=".9999" style="-inkscape-stroke:none"/></svg>
