<?xml version="1.0" encoding="UTF-8"?>
<svg width="24" height="24" fill="none" version="1.1" viewBox="0 0 24 24" xmlns="http://www.w3.org/2000/svg"><g transform="translate(-.55566 -.59814)" clip-path="url(#clip0_6749_107336)" stroke="#212529" stroke-linecap="round" stroke-linejoin="round" stroke-width="2"><path d="m12.556 15.598c1.6568 0 3-1.3431 3-3 0-1.6568-1.3432-3-3-3-1.6569 0-3 1.3432-3 3 0 1.6569 1.3431 3 3 3z"/><path d="m19.956 15.598c-0.1332 0.3017-0.1729 0.6362-0.114 0.9606 0.0588 0.3244 0.2134 0.6238 0.444 0.8594l0.06 0.06c0.1859 0.1858 0.3334 0.4064 0.4341 0.6492 0.1006 0.2428 0.1524 0.503 0.1524 0.7658 0 0.2629-0.0518 0.5231-0.1524 0.7659-0.1007 0.2428-0.2482 0.4634-0.4341 0.6491-0.1858 0.186-0.4064 0.3335-0.6492 0.4342-0.2428 0.1006-0.503 0.1524-0.7658 0.1524-0.2629 0-0.5231-0.0518-0.7659-0.1524-0.2428-0.1007-0.4634-0.2482-0.6491-0.4342l-0.06-0.06c-0.2357-0.2305-0.5351-0.3851-0.8594-0.444-0.3244-0.0588-0.659-0.0191-0.9606 0.114-0.2958 0.1268-0.5481 0.3373-0.7257 0.6056-0.1777 0.2683-0.2731 0.5827-0.2743 0.9044v0.17c0 0.5305-0.2108 1.0392-0.5858 1.4143-0.3751 0.375-0.8838 0.5857-1.4142 0.5857-0.5305 0-1.0392-0.2107-1.4142-0.5857-0.3751-0.3751-0.5858-0.8838-0.5858-1.4143v-0.09c-0.0078-0.331-0.1149-0.652-0.3075-0.9213-0.1926-0.2692-0.4618-0.4744-0.77254-0.5887-0.30161-0.1331-0.63619-0.1728-0.96058-0.114-0.3244 0.0589-0.62374 0.2135-0.85942 0.444l-0.06 0.06c-0.18574 0.186-0.40632 0.3335-0.64912 0.4342-0.24279 0.1006-0.50305 0.1524-0.76588 0.1524s-0.52308-0.0518-0.76588-0.1524c-0.24279-0.1007-0.46337-0.2482-0.64912-0.4342-0.18595-0.1857-0.33347-0.4063-0.43412-0.6491-0.10064-0.2428-0.15245-0.503-0.15245-0.7659 0-0.2628 0.05181-0.523 0.15245-0.7658 0.10065-0.2428 0.24817-0.4634 0.43412-0.6492l0.06-0.06c0.23054-0.2356 0.38519-0.535 0.44401-0.8594s0.01911-0.6589-0.11401-0.9606c-0.12676-0.2957-0.33724-0.548-0.60553-0.7256-0.26829-0.1777-0.58268-0.2731-0.90447-0.2744h-0.17c-0.53043 0-1.0391-0.2107-1.4142-0.5857-0.37507-0.3751-0.58579-0.8838-0.58579-1.4143 0-0.5304 0.21072-1.0391 0.58579-1.4142 0.37507-0.375 0.88378-0.5858 1.4142-0.5858h0.09c0.331-0.0077 0.65201-0.1148 0.9213-0.3074 0.2693-0.1927 0.47442-0.46182 0.5887-0.77256 0.13312-0.30161 0.17283-0.63619 0.11401-0.96058-0.05882-0.3244-0.21347-0.62374-0.44401-0.85942l-0.06-0.06c-0.18595-0.18574-0.33347-0.40632-0.43412-0.64911-0.10064-0.2428-0.15245-0.50305-0.15245-0.76589 0-0.26283 0.05181-0.52308 0.15245-0.76588 0.10065-0.24279 0.24817-0.46337 0.43412-0.64912 0.18575-0.18595 0.40633-0.33347 0.64912-0.43411 0.2428-0.10065 0.50305-0.15246 0.76588-0.15246 0.26284 0 0.52309 0.05181 0.76588 0.15246 0.2428 0.10064 0.46338 0.24816 0.64912 0.43411l0.06 0.06c0.23568 0.23054 0.53502 0.38519 0.85942 0.44401 0.32439 0.05882 0.65897 0.01911 0.96058-0.11401h0.08c0.29577-0.12676 0.54804-0.33724 0.72574-0.60553 0.1776-0.26829 0.273-0.58268 0.2743-0.90447v-0.17c0-0.53043 0.2107-1.0391 0.5858-1.4142 0.375-0.37507 0.8837-0.58579 1.4142-0.58579 0.5304 0 1.0391 0.21072 1.4142 0.58579 0.375 0.37507 0.5858 0.88378 0.5858 1.4142v0.09c0.0012 0.32179 0.0966 0.63618 0.2743 0.90447 0.1776 0.26829 0.4299 0.47877 0.7257 0.60553 0.3016 0.13312 0.6362 0.17283 0.9606 0.11401 0.3243-0.05882 0.6237-0.21347 0.8594-0.44401l0.06-0.06c0.1857-0.18595 0.4063-0.33347 0.6491-0.43411 0.2428-0.10065 0.503-0.15246 0.7659-0.15246 0.2628 0 0.523 0.05181 0.7658 0.15246 0.2428 0.10064 0.4634 0.24816 0.6492 0.43411 0.1859 0.18575 0.3334 0.40633 0.4341 0.64912 0.1006 0.2428 0.1524 0.50305 0.1524 0.76588 0 0.26284-0.0518 0.52309-0.1524 0.76589-0.1007 0.24279-0.2482 0.46337-0.4341 0.64911l-0.06 0.06c-0.2306 0.23568-0.3852 0.53502-0.444 0.85942-0.0589 0.32439-0.0192 0.65897 0.114 0.96058v0.08c0.1267 0.29577 0.3372 0.54806 0.6055 0.72566 0.2683 0.1777 0.5827 0.2731 0.9045 0.2743h0.17c0.5304 0 1.0391 0.2108 1.4142 0.5858 0.375 0.3751 0.5858 0.8838 0.5858 1.4142 0 0.5305-0.2108 1.0392-0.5858 1.4143-0.3751 0.375-0.8838 0.5857-1.4142 0.5857h-0.09c-0.3218 0.0013-0.6362 0.0967-0.9045 0.2744-0.2683 0.1776-0.4788 0.4299-0.6055 0.7256z"/></g><defs><clipPath id="clip0_6749_107336"><rect transform="translate(.55566 .59814)" width="24" height="24" fill="#fff"/></clipPath></defs></svg>
