<?xml version="1.0" encoding="UTF-8"?>
<svg width="24" height="24" fill="none" version="1.1" viewBox="0 0 24 24" xmlns="http://www.w3.org/2000/svg"><path d="m12 1c-6.0633 0-11 4.9368-11 11 0 6.0633 4.9367 11 11 11 6.0632 0 11-4.9367 11-11 0-6.0632-4.9368-11-11-11zm0 2c4.9823 0 9 4.0177 9 9 0 4.9824-4.0176 9-9 9-4.9824 0-9-4.0175-9-9 0-4.9823 4.0176-9 9-9zm0 4a1 1 0 0 0-1 1v4a1 1 0 0 0 1 1 1 1 0 0 0 1-1v-4a1 1 0 0 0-1-1zm0 8a1 1 0 0 0-1 1 1 1 0 0 0 1 1h0.009766a1 1 0 0 0 1-1 1 1 0 0 0-1-1h-0.009766z" color="#000000" fill="#212529" stroke-linecap="round" stroke-linejoin="round" style="-inkscape-stroke:none"/></svg>
