<?xml version="1.0" encoding="UTF-8"?>
<svg width="24" height="24" fill="none" version="1.1" viewBox="0 0 24 24" xmlns="http://www.w3.org/2000/svg"><path d="m11.764 1.0025c-0.73297 0.015536-1.4665 0.10422-2.1895 0.26758-2.3136 0.52273-4.3964 1.779-5.9375 3.582-1.5411 1.8031-2.4572 4.057-2.6133 6.4238-0.15606 2.3667 0.45706 4.7211 1.748 6.7109 1.291 1.9899 3.1911 3.5081 5.416 4.3301 2.2249 0.8221 4.6551 0.90297 6.9297 0.23047 2.2745-0.6726 4.2712-2.0612 5.6914-3.9609 1.4202-1.8998 2.19-4.2082 2.1914-6.5801a1.0001 1.0001 0 0 0 0-2e-3v-0.91992a1 1 0 0 0-1-1 1 1 0 0 0-1 1v0.91992c-0.0012 1.9409-0.6308 3.8282-1.793 5.3828-1.1622 1.5545-2.795 2.6918-4.6562 3.2422-1.8612 0.5503-3.8493 0.4852-5.6699-0.1875-1.8206-0.67253-3.3752-1.9166-4.4316-3.5449-1.0564-1.6282-1.5593-3.5536-1.4316-5.4902 0.12771-1.9367 0.87957-3.7804 2.1406-5.2559 1.2611-1.4754 2.9642-2.5019 4.8574-2.9297 1.8932-0.42775 3.8735-0.23332 5.6465 0.55664a1 1 0 0 0 1.3203-0.50586 1 1 0 0 0-0.50586-1.3203c-1.0833-0.48268-2.2312-0.78331-3.3965-0.89844-0.43697-0.043174-0.87662-0.060103-1.3164-0.050781zm10.234 2.002a1 1 0 0 0-0.70703 0.29297l-9.293 9.3008-2.291-2.291a1 1 0 0 0-1.416 0 1 1 0 0 0 0 1.4141l3 3a1.0001 1.0001 0 0 0 1.416 0l10-10.01a1 1 0 0 0-2e-3 -1.4141 1 1 0 0 0-0.70703-0.29297z" color="#000000" fill="#212529" stroke-linecap="round" stroke-linejoin="round" style="-inkscape-stroke:none"/></svg>
