<?xml version="1.0" encoding="UTF-8"?>
<svg width="24" height="24" fill="none" version="1.1" viewBox="0 0 24 24" xmlns="http://www.w3.org/2000/svg"><path d="m20.284 1.7936-5.5169 5.5169-3.5636 3.5656c-1.1058-0.77548-2.3729-1.2952-3.7399-1.2832-1.7091 0.014815-3.3444 0.70148-4.553 1.9101-1.2086 1.2086-1.8953 2.8438-1.9101 4.553-0.01485 1.7091 0.64241 3.3569 1.8298 4.5863a1.0032 1.0032 0 0 0 0.00783 0.0078c0.60391 0.61201 1.323 1.0991 2.1159 1.4321 0.79278 0.33312 1.6438 0.50456 2.5038 0.50741 0.85977 0.0028 1.7106-0.16394 2.5057-0.49174 0.79492-0.32776 1.5176-0.80844 2.1256-1.4164s1.0906-1.3307 1.4184-2.1256c0.32781-0.79505 0.49458-1.6478 0.49174-2.5077-0.0028-0.85993-0.17625-1.711-0.50937-2.5038-0.1988-0.47333-0.55187-0.8517-0.85417-1.2637l2.8407-2.8407 2.3 2.3a1.0032 1.0032 0 0 0 1.4184 0l3.5107-3.5107a1.0032 1.0032 0 0 0 0-1.4203l-2.298-2.3 1.295-1.295a1.0031 1.0031 0 0 0 0-1.4203 1.0031 1.0031 0 0 0-1.4184 0zm-1.297 4.1357 1.5908 1.5889-2.0923 2.0923-1.5889-1.5908zm-11.506 5.6697c1.1829-0.01033 2.3224 0.4443 3.1738 1.2656 6.62e-4 6.39e-4 0.0013 0.0013 2e-3 2e-3 0.41949 0.4162 0.7546 0.91069 0.98348 1.4557 0.2306 0.54876 0.35067 1.1385 0.35264 1.7338 2e-3 0.59545-0.114 1.1835-0.34088 1.7338-0.22694 0.55038-0.56058 1.0503-0.98152 1.4713-0.42095 0.42095-0.92091 0.75459-1.4713 0.98152-0.55033 0.22689-1.1404 0.34286-1.7358 0.34088-0.59528-2e-3 -1.183-0.12203-1.7319-0.35264-0.54574-0.22923-1.0409-0.56302-1.4576-0.98348-3.885e-4 -4.02e-4 3.883e-4 -0.0016 0-2e-3 -0.82179-0.85144-1.2779-1.9885-1.2676-3.1718 0.010286-1.1839 0.48528-2.3151 1.3224-3.1522 0.83714-0.83719 1.9683-1.3121 3.1522-1.3224z" color="#000000" fill="#212529" stroke-linecap="round" stroke-linejoin="round" stroke-width="1.0031" style="-inkscape-stroke:none"/></svg>
