<?xml version="1.0" encoding="UTF-8"?>
<svg width="24" height="24" fill="none" version="1.1" viewBox="0 0 24 24" xmlns="http://www.w3.org/2000/svg">
 <path d="m8.5 2c-2.7496 0-5 2.2504-5 5s2.2504 5 5 5c2.7495 0 5-2.2504 5-5s-2.2505-5-5-5zm0 2c1.6686 0 3 1.3313 3 3s-1.3314 3-3 3c-1.6687 0-3-1.3313-3-3s1.3313-3 3-3zm14.5 4a1 1 0 0 0-0.70703 0.29297l-3.293 3.293-1.293-1.293a1 1 0 0 0-1.4141 0 1 1 0 0 0 0 1.4141l2 2a1.0001 1.0001 0 0 0 1.4141 0l4-4a1 1 0 0 0 0-1.4141 1 1 0 0 0-0.70703-0.29297zm-18 6c-1.3257 0-2.5977 0.52736-3.5352 1.4648-0.93742 0.93737-1.4648 2.2094-1.4648 3.5352v2a1 1 0 0 0 1 1 1 1 0 0 0 1-1v-2c0-0.79607 0.31605-1.5583 0.87891-2.1211 0.56288-0.56291 1.325-0.87891 2.1211-0.87891h7c0.79609 0 1.5583 0.31602 2.1211 0.87891 0.56289 0.56282 0.87891 1.325 0.87891 2.1211v2a1 1 0 0 0 1 1 1 1 0 0 0 1-1v-2c0-1.3257-0.52734-2.5978-1.4648-3.5352-0.93738-0.93751-2.2095-1.4648-3.5352-1.4648h-7z" color="#000000" fill="#212529" stroke-linecap="round" stroke-linejoin="round" style="-inkscape-stroke:none"/>
</svg>
