<?xml version="1.0" encoding="UTF-8"?>
<svg width="24" height="24" fill="none" version="1.1" viewBox="0 0 24 24" xmlns="http://www.w3.org/2000/svg"><path d="m12.98 1a1.0001 1.0001 0 0 0-0.74805 0.35938l-10 12a1.0001 1.0001 0 0 0 0.76758 1.6406h7.8672l-0.85938 6.875a1.0001 1.0001 0 0 0 1.7598 0.76562l10-12a1.0001 1.0001 0 0 0-0.76758-1.6406h-7.8672l0.85938-6.875a1.0001 1.0001 0 0 0-1.0117-1.125zm-1.3965 4.2598-0.57617 4.6152a1.0001 1.0001 0 0 0 0.99219 1.125h6.8652l-6.4492 7.7402 0.57617-4.6152a1.0001 1.0001 0 0 0-0.99219-1.125h-6.8652z" color="#000000" fill="#212529" stroke-linecap="round" stroke-linejoin="round" style="-inkscape-stroke:none"/></svg>
