<?xml version="1.0" encoding="UTF-8"?>
<svg width="24" height="24" fill="none" version="1.1" viewBox="0 0 24 24" xmlns="http://www.w3.org/2000/svg"><path d="m10.999 1a1 1 0 0 0-0.91398 0.59565l-3.736 8.4055h-2.3494c-0.79518 0-1.5586 0.31455-2.1209 0.87687-0.56236 0.56225-0.87883 1.3277-0.87883 2.1228v6.9994c0 0.79517 0.31658 1.5586 0.87883 2.1209 0.5623 0.56233 1.3257 0.87884 2.1209 0.87884h14.278l-0.0098-2e-3c0.72309 0.0081 1.4253-0.2445 1.9764-0.71283 0.55059-0.46804 0.91462-1.1195 1.0233-1.8338v-2e-3l1.3788-8.9972a1 1 0 0 0 0-2e-3c0.06542-0.43023 0.03711-0.86966-0.08397-1.287-0.12125-0.41771-0.33204-0.80269-0.61711-1.1306-0.2854-0.32828-0.63841-0.59144-1.0351-0.76946-0.39665-0.17802-0.82872-0.26662-1.2636-0.2617l0.01172-0.00195h-4.6598v-2.9997c0-1.0603-0.42195-2.078-1.1718-2.8279-0.74982-0.74984-1.7674-1.1718-2.8279-1.1718zm0.54878 2.2264c0.30397 0.095733 0.63546 0.12963 0.86517 0.35935 0.37528 0.37529 0.58589 0.88311 0.58589 1.414v3.9997a1 1 0 0 0 0.99991 0.99991h5.6597a1 1 0 0 0 0.01172 0c0.14511-0.0016 0.28758 0.02851 0.41988 0.08788 0.13229 0.05937 0.2507 0.1466 0.34567 0.25584 0.0953 0.10963 0.16475 0.23998 0.20506 0.37888 0.04051 0.13962 0.05106 0.28458 0.0293 0.42769l-1.3808 8.9992c-0.03619 0.23869-0.15593 0.45691-0.33981 0.61323-0.18405 0.15642-0.41847 0.24097-0.6601 0.23826a1 1 0 0 0-0.01172 0h-10.278v-9.7883zm-7.5482 8.7746h1.9998v8.9992h-1.9998c-0.26561 0-0.51918-0.10513-0.70697-0.29294-0.18782-0.18784-0.29294-0.44144-0.29294-0.70697v-6.9994c0-0.26568 0.10523-0.5193 0.29294-0.70697a1 1 0 0 0 0-2e-3c0.18779-0.18776 0.44136-0.29094 0.70697-0.29094z" color="#000000" fill="#212529" stroke-linecap="round" stroke-linejoin="round" stroke-width=".99991" style="-inkscape-stroke:none"/></svg>
