<?xml version="1.0" encoding="UTF-8"?>
<svg width="24" height="24" fill="none" version="1.1" viewBox="0 0 24 24" xmlns="http://www.w3.org/2000/svg"><path d="m2 2a1.0001 1.0001 0 0 0-1 1v15a1.0001 1.0001 0 0 0 1 1h7c0.53075 0 1.0387 0.21061 1.4141 0.58594 0.37537 0.37537 0.58594 0.8832 0.58594 1.4141a1.0001 1.0001 0 0 0 1.3789 0.91211 1.0001 1.0001 0 0 0 0.62109-0.91211c0-0.53094 0.21055-1.0387 0.58594-1.4141 0.37537-0.37537 0.8832-0.58594 1.4141-0.58594h7a1.0001 1.0001 0 0 0 1-1v-15a1.0001 1.0001 0 0 0-1-1h-6c-1.3257 0-2.5978 0.52742-3.5352 1.4648-0.16877 0.16876-0.32334 0.3483-0.46484 0.53711-0.1415-0.18881-0.29607-0.36835-0.46484-0.53711-0.93739-0.93744-2.2095-1.4648-3.5352-1.4648h-6zm1 2h5c0.79604 0 1.5583 0.31607 2.1211 0.87891 0.56291 0.56288 0.87891 1.325 0.87891 2.1211v10.617c-0.61126-0.36115-1.2783-0.61719-2-0.61719h-6v-13zm13 0h5v13h-6c-0.72175 0-1.3888 0.25604-2 0.61719v-10.617c0-0.79605 0.31599-1.5582 0.87891-2.1211 0.56283-0.56286 1.325-0.87891 2.1211-0.87891z" color="#000000" fill="#212529" stroke-linecap="round" stroke-linejoin="round" style="-inkscape-stroke:none"/></svg>
