<?xml version="1.0" encoding="UTF-8"?>
<svg width="40" height="40" version="1.1" viewBox="0 0 40 40" xmlns="http://www.w3.org/2000/svg"><path d="m4 1v15h2v-13h15v13h13v21h-30v2h32v-24l-14-14h-18zm19 3.8281 9.1719 9.1719h-9.1719v-9.1719zm-19 17.826v10.428h3.6543c1.0673-0.0095 1.8881-0.27148 2.4648-0.78711 0.5767-0.5204 0.86719-1.2826 0.86719-2.2852 0-0.5013-0.12227-0.97092-0.36328-1.4102-0.24101-0.43924-0.63467-0.7359-1.1855-0.88867 0.46481-0.2053 0.80434-0.50608 1.0195-0.90234 0.21519-0.39627 0.32227-0.83008 0.32227-1.3027 0-0.97396-0.30839-1.6931-0.92383-2.1562-0.61544-0.46311-1.4678-0.69531-2.5566-0.69531h-3.2988zm8.4395 0v10.428h1.9414v-2.8496l-0.19336-4.8984 2.5312 7.748h1.3301l2.5293-7.748-0.19336 4.8984v2.8496h1.9434v-10.428h-2.5371l-2.4082 7.5625-2.4062-7.5625h-2.5371zm11.58 0v10.428h1.9434v-3.6816h1.7305c1.1104 0 1.974-0.29774 2.5938-0.89453 0.62405-0.59679 0.9375-1.3989 0.9375-2.4062 0-0.99783-0.31345-1.8214-0.9375-2.4707-0.61974-0.6493-1.4834-0.97461-2.5938-0.97461h-3.6738zm-18.076 1.7402h1.4219c0.98126 0.0191 1.4707 0.46311 1.4707 1.332 0 0.85938-0.51281 1.2891-1.5371 1.2891h-1.3555v-2.6211zm20.02 0h1.7305c0.55518 0 0.9539 0.17491 1.1992 0.52344 0.24532 0.34375 0.36914 0.74175 0.36914 1.1953 0 0.45356-0.12383 0.82596-0.36914 1.1172-0.24531 0.29123-0.64403 0.4375-1.1992 0.4375h-1.7305v-3.2734zm-20.02 4.1406h1.8281c0.85214 0.03342 1.2773 0.51736 1.2773 1.4531 0 0.39149-0.11876 0.7168-0.35547 0.97461-0.23671 0.25781-0.60077 0.38672-1.0957 0.38672h-1.6543v-2.8145z"/></svg>
