<?xml version="1.0" encoding="UTF-8"?>
<svg width="24" height="24" version="1.1" viewBox="0 0 24 24" xmlns="http://www.w3.org/2000/svg"><path d="m3 1v9h2v-7h7v7h7v11h-16v2h18v-14.414l-7.5859-7.5859h-10.414zm11 3.4141 3.5859 3.5859h-3.5859v-3.5859zm-11 8.9082v5.6875h1.9805c0.59758 0 1.0584-0.14062 1.3809-0.42188 0.32488-0.28386 0.48828-0.70182 0.48828-1.2539 0-0.27344-0.066423-0.52995-0.19922-0.76953-0.1328-0.23958-0.35272-0.40104-0.65625-0.48438 0.25611-0.11198 0.44393-0.27604 0.5625-0.49219 0.11857-0.21615 0.17773-0.45312 0.17773-0.71094 0-0.53125-0.16871-0.92318-0.50781-1.1758s-0.80825-0.37891-1.4082-0.37891h-1.8184zm4.6484 0v5.6875h1.0703v-1.5547l-0.10547-2.6719 1.3945 4.2266h0.73242l1.3945-4.2266-0.10742 2.6719v1.5547h1.0703v-5.6875h-1.3965l-1.3281 4.125-1.3262-4.125h-1.3984zm6.3828 0v5.6875h1.0703v-2.0078h0.95313c0.61181 0 1.0882-0.16276 1.4297-0.48828 0.34385-0.32552 0.51562-0.76302 0.51562-1.3125 0-0.54427-0.17178-0.99349-0.51562-1.3477-0.34148-0.35417-0.81788-0.53125-1.4297-0.53125h-2.0234zm-9.9609 0.94922h0.74805c0.56438 0 0.8457 0.24219 0.8457 0.72656 0 0.46875-0.28132 0.70312-0.8457 0.70312h-0.74805v-1.4297zm11.031 0h0.95313c0.3059 0 0.52694 0.095052 0.66211 0.28516 0.13517 0.1875 0.20117 0.40495 0.20117 0.65234 0 0.2474-0.066005 0.45052-0.20117 0.60938-0.13517 0.15886-0.3562 0.23828-0.66211 0.23828h-0.95313v-1.7852zm-11.031 2.2578h0.95312c0.27033 0 0.46388 0.071614 0.58008 0.21484 0.11857 0.14062 0.17773 0.33333 0.17773 0.57812 0 0.21354-0.064888 0.39062-0.19531 0.53125s-0.33276 0.21094-0.60547 0.21094h-0.91016v-1.5352z"/></svg>
