<?xml version="1.0" encoding="UTF-8"?>
<svg width="24" height="24" version="1.1" viewBox="0 0 24 24" xmlns="http://www.w3.org/2000/svg"><path d="m3 1v9h2v-7h7v7h7v11h-16v2h18v-14.414l-7.5859-7.5859h-10.414zm11 3.4141 3.5859 3.5859h-3.5859v-3.5859zm-8.3359 8.8164c-0.35937 0-0.6862 0.063806-0.98047 0.19141-0.29427 0.1276-0.54687 0.31249-0.75781 0.55469-0.20833 0.2395-0.3698 0.5312-0.48438 0.875-0.11198 0.3411-0.16797 0.72524-0.16797 1.1523v0.30859c0 0.4271 0.053386 0.81124 0.16016 1.1523 0.10938 0.3412 0.26693 0.63159 0.47266 0.87109 0.20833 0.2396 0.46094 0.42318 0.75781 0.55078 0.29945 0.1276 0.63933 0.19141 1.0195 0.19141 0.4688 0 0.875-0.0833 1.2188-0.25 0.34636-0.1692 0.61719-0.40493 0.8125-0.70703 0.19532-0.3021 0.30208-0.65098 0.32031-1.0469h-1.3672c-0.00521 0.2136-0.04688 0.38924-0.125 0.52734-0.07813 0.1354-0.1888 0.23699-0.33203 0.30469-0.14323 0.0652-0.319 0.097656-0.52734 0.097656-0.1875 0-0.34635-0.03125-0.47656-0.09375-0.1276-0.0651-0.23177-0.16538-0.3125-0.30078-0.08073-0.1354-0.13932-0.30984-0.17578-0.52344-0.03646-0.2135-0.054688-0.47134-0.054688-0.77344v-0.31641c0-0.3021 0.019524-0.55994 0.058594-0.77344 0.04166-0.2162 0.10416-0.39194 0.1875-0.52734 0.08333-0.1354 0.1875-0.23438 0.3125-0.29687 0.125-0.0625 0.27214-0.09375 0.44141-0.09375 0.24219 0 0.4362 0.036375 0.58203 0.10937 0.14584 0.0729 0.2526 0.18233 0.32031 0.32813 0.0677 0.1432 0.10417 0.32166 0.10938 0.53516h1.3672c-0.03386-0.3932-0.14453-0.74348-0.33203-1.0508-0.1875-0.3099-0.45183-0.55337-0.79297-0.73047-0.34114-0.1771-0.75912-0.26562-1.2539-0.26562zm3.0195 0.082031v5.6875h1.3711v-2.2656h2.2109v-1.0547h-2.2109v-1.3086h2.4336v-1.0586h-3.8047zm4 0 1.5898 2.8203-1.6328 2.8672h1.582l0.95703-1.9258 0.95703 1.9258h1.5781l-1.6289-2.8672 1.5859-2.8203h-1.5625l-0.92969 1.8906-0.92969-1.8906h-1.5664z"/></svg>
