<?xml version="1.0" encoding="UTF-8"?>
<svg width="40" height="40" version="1.1" viewBox="0 0 40 40" xmlns="http://www.w3.org/2000/svg"><path d="m4 1v15h2v-13h15v13h13v21h-30v2h32v-24l-14-14h-18zm19 3.8281 9.1719 9.1719h-9.1719v-9.1719zm-14.668 17.676c-1.3129 0-2.3626 0.45421-3.1504 1.3613-0.78776 0.90234-1.1816 2.1239-1.1816 3.666v0.68164c0 1.5421 0.38368 2.7637 1.1523 3.666 0.76866 0.89757 1.8214 1.3457 3.1582 1.3457 1.2795 0 2.281-0.33659 3.002-1.0098 0.72569-0.67795 1.1237-1.5456 1.1953-2.6055h-2.1484c-0.052518 0.62066-0.23872 1.0862-0.55859 1.3965-0.3151 0.30556-0.81228 0.45703-1.4902 0.45703-0.76389 0-1.3092-0.27214-1.6387-0.81641-0.32465-0.54427-0.48828-1.3546-0.48828-2.4336v-0.85938c0.038194-2.0577 0.75434-3.0879 2.1484-3.0879 0.71137 0 1.2157 0.16775 1.5117 0.50195 0.30078 0.32943 0.47569 0.80512 0.52344 1.4258h2.1484c-0.10026-1.0694-0.49718-1.9503-1.1895-2.6426-0.69227-0.69705-1.6908-1.0469-2.9941-1.0469zm9.3242 0.007813c-1.1267 0-2.0506 0.26801-2.7715 0.80273-0.72092 0.53472-1.0801 1.2376-1.0801 2.1113-1e-6 0.90712 0.35091 1.6079 1.0527 2.0996 0.6684 0.47266 1.4603 0.85937 2.377 1.1602 0.92144 0.29601 1.5015 0.56098 1.7402 0.79492 0.23872 0.22917 0.35742 0.51671 0.35742 0.86523 0 0.3342-0.13303 0.6135-0.40039 0.83789-0.26259 0.22439-0.67079 0.33789-1.2246 0.33789-0.61588 0-1.1142-0.12891-1.4961-0.38672-0.37717-0.25781-0.56641-0.70486-0.56641-1.3398h-2.1562c0 0.78776 0.20768 1.4353 0.62305 1.9414 0.41536 0.50608 0.94531 0.87956 1.5898 1.123s1.3136 0.36523 2.0059 0.36523c1.1458 0 2.0625-0.25174 2.75-0.75781 0.6875-0.51085 1.0312-1.2229 1.0312-2.1348 0-0.85938-0.29362-1.551-0.88086-2.0762-0.58247-0.52517-1.4449-0.96202-2.5859-1.3105-0.67318-0.20529-1.1858-0.42318-1.5391-0.65234s-0.5293-0.51563-0.5293-0.85938c0-0.3342 0.13607-0.61762 0.4082-0.85156 0.27691-0.23872 0.6964-0.35938 1.2598-0.35938 0.57769 0 1.0074 0.14214 1.2891 0.42383 0.28168 0.28168 0.42188 0.64084 0.42188 1.0801h2.1484c0-0.93576-0.34787-1.7031-1.0449-2.3047-0.69705-0.60634-1.6239-0.91016-2.7793-0.91016zm4.4043 0.14258 3.6172 10.428h2.2344l3.6387-10.428h-2.3926l-2.3633 7.8359-2.3555-7.8359h-2.3789z"/></svg>
