<?xml version="1.0" encoding="UTF-8"?>
<svg width="24" height="24" version="1.1" viewBox="0 0 24 24" xmlns="http://www.w3.org/2000/svg"><path d="m3 1v9h2v-7h7v7h7v11h-16v2h18v-14.414l-7.5859-7.5859h-10.414zm11 3.4141 3.5859 3.5859h-3.5859v-3.5859zm-8.3359 8.8164c-0.47916 0-0.90104 0.11465-1.2656 0.34375-0.36459 0.2266-0.64452 0.54945-0.83984 0.96875-0.1927 0.4166-0.28906 0.90364-0.28906 1.4609v0.28125c0 0.888 0.21485 1.5755 0.64453 2.0625 0.42969 0.4869 1.0182 0.73047 1.7656 0.73047 0.45312 0 0.85547-0.0833 1.207-0.25 0.35417-0.1666 0.6289-0.40102 0.82422-0.70312 0.19531-0.3047 0.30208-0.65488 0.32031-1.0508h-1.3633c-0.01042 0.3229-0.098955 0.55863-0.26562 0.70703-0.16666 0.1485-0.40756 0.22266-0.72266 0.22266-0.3724 0-0.63541-0.13022-0.78906-0.39062-0.15104-0.2604-0.22656-0.69398-0.22656-1.3008v-0.40234c0.00782-0.5599 0.09115-0.96746 0.25-1.2227 0.15886-0.2552 0.40886-0.38281 0.75-0.38281 0.33594-1e-6 0.58594 0.075562 0.75 0.22656 0.16406 0.1511 0.2513 0.39979 0.26172 0.74609h1.3672c-0.05729-0.638-0.29556-1.138-0.71484-1.5-0.41927-0.3645-0.97395-0.54688-1.6641-0.54688zm4.9961 0.003906c-0.4193 0-0.79687 0.067725-1.1328 0.20312-0.33593 0.1328-0.59635 0.3203-0.78125 0.5625-0.18229 0.2396-0.27344 0.51693-0.27344 0.83203 0 0.6328 0.36849 1.1302 1.1055 1.4922 0.22657 0.112 0.5183 0.22786 0.875 0.34766 0.3568 0.1198 0.60549 0.23576 0.74609 0.34766 0.1433 0.112 0.21484 0.26825 0.21484 0.46875 0 0.1771-0.066418 0.31516-0.19922 0.41406-0.1302 0.0964-0.30856 0.14453-0.53516 0.14453-0.3542 0-0.61071-0.071544-0.76953-0.21484-0.15625-0.1458-0.23438-0.37108-0.23438-0.67578h-1.375c0 0.375 0.09375 0.70709 0.28125 0.99609 0.1901 0.2865 0.47135 0.51309 0.84375 0.67969 0.375 0.1641 0.79301 0.24609 1.2539 0.24609 0.6537 0 1.168-0.14188 1.543-0.42578 0.375-0.2838 0.5625-0.67448 0.5625-1.1719 0-0.6224-0.30728-1.1106-0.92188-1.4648-0.2526-0.1458-0.57555-0.28125-0.96875-0.40625-0.3933-0.1276-0.66792-0.24999-0.82422-0.36719-0.15622-0.1198-0.23437-0.25264-0.23437-0.39844 0-0.1667 0.070308-0.30336 0.21094-0.41016 0.1432-0.1094 0.33723-0.16406 0.58203-0.16406 0.2422 0 0.43362 0.063807 0.57422 0.19141 0.1433 0.1276 0.21484 0.30726 0.21484 0.53906h1.3672c0-0.3464-0.089831-0.65358-0.26953-0.92188-0.1796-0.2708-0.43221-0.4791-0.75781-0.625-0.3229-0.1458-0.68886-0.21875-1.0977-0.21875zm2.1855 0.078125 1.8984 5.6875h1.5l1.9141-5.6875h-1.5312l-1.1328 4.1406-1.1289-4.1406h-1.5195z"/></svg>
