<?xml version="1.0" encoding="UTF-8"?>
<svg width="24" height="24" version="1.1" viewBox="0 0 24 24" xmlns="http://www.w3.org/2000/svg"><path d="m3 1v9h2v-7h7v7h7v11h-16v2h18v-14.414l-7.5859-7.5859h-10.414zm11 3.4141 3.5859 3.5859h-3.5859v-3.5859zm-4.5508 8.7617c-0.47396 0-0.89583 0.11458-1.2656 0.34375-0.36719 0.22656-0.65234 0.55339-0.85547 0.98047-0.20052 0.42448-0.30078 0.91667-0.30078 1.4766v0.28125c0.0026041 0.54688 0.10547 1.0312 0.30859 1.4531 0.20312 0.41927 0.48958 0.74219 0.85938 0.96875 0.36979 0.22656 0.79036 0.33984 1.2617 0.33984 0.47656 0 0.89844-0.11458 1.2656-0.34375 0.36979-0.22917 0.65365-0.55469 0.85156-0.97656 0.19792-0.42188 0.29688-0.91276 0.29688-1.4727v-0.25391c0-0.55729-0.10156-1.0482-0.30469-1.4727-0.20052-0.42708-0.48568-0.75391-0.85547-0.98047-0.36719-0.22917-0.78776-0.34375-1.2617-0.34375zm5.4648 0c-0.47396 0-0.89062 0.11198-1.25 0.33594-0.35677 0.22135-0.63151 0.54036-0.82422 0.95703-0.19271 0.41667-0.28906 0.89844-0.28906 1.4453v0.34766c0 0.85677 0.20833 1.5312 0.625 2.0234 0.41927 0.48958 0.99349 0.73438 1.7227 0.73438 0.66667 0 1.2031-0.17578 1.6094-0.52734 0.40886-0.35156 0.63542-0.83333 0.67969-1.4453h-1.1719c-0.026042 0.34635-0.12891 0.60286-0.30859 0.76953-0.17708 0.16406-0.44661 0.24609-0.80859 0.24609-0.40104 0-0.69531-0.14193-0.88281-0.42578-0.1849-0.28385-0.27734-0.73307-0.27734-1.3477v-0.42969c0.005209-0.58854 0.10417-1.0221 0.29688-1.3008 0.19531-0.28125 0.48828-0.42188 0.87891-0.42188 0.35938 0 0.6263 0.083333 0.80078 0.25 0.17708 0.16406 0.27995 0.42969 0.30859 0.79688h1.1719c-0.0625-0.63542-0.29427-1.1289-0.69531-1.4805s-0.92969-0.52734-1.5859-0.52734zm-12.914 0.078125v5.6875h1.7617c0.4974-0.002604 0.94401-0.11719 1.3398-0.34375 0.39583-0.22656 0.70182-0.54557 0.91797-0.95703 0.21875-0.41146 0.32812-0.88151 0.32812-1.4102v-0.26172c0-0.52865-0.11068-1-0.33203-1.4141-0.22135-0.41667-0.52995-0.73698-0.92578-0.96094-0.39323-0.22656-0.83984-0.33984-1.3398-0.33984h-1.75zm7.4492 0.89062c0.39583 0 0.70052 0.15495 0.91406 0.46484 0.21354 0.3099 0.32031 0.76302 0.32031 1.3594v0.27734c-0.002604 0.59115-0.10938 1.0417-0.32031 1.3516-0.21094 0.30729-0.51302 0.46094-0.90625 0.46094-0.40104 0-0.70833-0.16016-0.92188-0.48047-0.21354-0.32031-0.32031-0.77083-0.32031-1.3516v-0.27734c0.0026041-0.59115 0.11068-1.0391 0.32422-1.3438 0.21354-0.30729 0.51693-0.46094 0.91016-0.46094zm-6.2773 0.058594h0.57812c0.46094 0 0.8112 0.14974 1.0508 0.44922 0.23958 0.29688 0.35938 0.73438 0.35938 1.3125v0.30078c-0.0052083 0.55729-0.12891 0.98568-0.37109 1.2852s-0.59245 0.44922-1.0508 0.44922h-0.56641v-3.7969z"/></svg>
