<?xml version="1.0" encoding="UTF-8"?>
<svg width="40" height="40" version="1.1" viewBox="0 0 40 40" xmlns="http://www.w3.org/2000/svg"><path d="m4 1v15h2v-13h15v13h13v21h-30v2h32v-24l-14-14h-18zm19 3.8281 9.1719 9.1719h-9.1719v-9.1719zm3.6836 17.676c-1.2574 0-2.2651 0.45421-3.0195 1.3613-0.75447 0.90234-1.1328 2.1239-1.1328 3.666v0.68164c0 1.5421 0.36929 2.7637 1.1055 3.666 0.73618 0.89757 1.7451 1.3457 3.0254 1.3457 1.2254 0 2.1826-0.33659 2.873-1.0098 0.69503-0.67795 1.0759-1.5456 1.1445-2.6055h-2.0566c-0.0503 0.62066-0.2288 1.0862-0.53516 1.3965-0.30179 0.30556-0.77648 0.45703-1.4258 0.45703-0.73161 0-1.2548-0.27214-1.5703-0.81641-0.31093-0.54427-0.4668-1.3546-0.4668-2.4336v-0.85938c0.03658-2.0577 0.72341-3.0879 2.0586-3.0879 0.68131 0 1.1618 0.16775 1.4453 0.50195 0.28807 0.32943 0.45623 0.80512 0.50195 1.4258h2.0566c-0.09602-1.0694-0.47565-1.9503-1.1387-2.6426-0.66302-0.69705-1.6169-1.0469-2.8652-1.0469zm-9.5977 0.007813c-1.2529 0-2.2734 0.45833-3.0645 1.375-0.79105 0.91189-1.1875 2.1621-1.1875 3.752v0.4668c0 1.5898 0.39774 2.8401 1.1934 3.752 0.79562 0.91189 1.8194 1.3672 3.0723 1.3672 1.2529 0 2.2741-0.45529 3.0605-1.3672 0.79105-0.91189 1.1855-2.1621 1.1855-3.752v-0.4668c0-1.5898-0.39774-2.8401-1.1934-3.752-0.79105-0.91667-1.8135-1.375-3.0664-1.375zm-13.086 0.14258v10.428h3.0527c1.3626 0 2.4666-0.45529 3.3125-1.3672 0.85049-0.91667 1.2754-2.1198 1.2754-3.6094v-0.4668c0-1.4896-0.4249-2.6927-1.2754-3.6094-0.84592-0.91667-1.9428-1.375-3.2871-1.375h-3.0781zm13.086 1.6328c0.69045 0 1.2259 0.28537 1.6055 0.85352s0.56836 1.3958 0.56836 2.4844v0.51562c-0.0046 1.0742-0.19341 1.8947-0.56836 2.4629-0.37038 0.56814-0.90134 0.85352-1.5918 0.85352-0.69502 0-1.2318-0.28646-1.6113-0.85938-0.37952-0.57769-0.57031-1.4084-0.57031-2.4922v-0.51562c0.0046-1.079 0.19536-1.8984 0.57031-2.457 0.37495-0.56337 0.9072-0.8457 1.5977-0.8457zm-11.021 0.10742h1.0762c0.80477 0.01432 1.4069 0.29254 1.8047 0.83203 0.40238 0.5395 0.60352 1.3385 0.60352 2.3984v0.54492c-0.00915 1.0217-0.2271 1.8064-0.65234 2.3555-0.42067 0.54904-1.0344 0.82422-1.8438 0.82422h-0.98828v-6.9551z"/></svg>
