<?xml version="1.0" encoding="UTF-8"?>
<svg width="40" height="40" version="1.1" viewBox="0 0 40 40" xmlns="http://www.w3.org/2000/svg"><path d="m4 1v15h2v-13h15v13h13v21h-30v2h32v-24l-14-14h-18zm19 3.8281 9.1719 9.1719h-9.1719v-9.1719zm-1.2285 17.676c-1.0196 0-1.8355 0.45421-2.4473 1.3613-0.61179 0.90234-0.91797 2.1239-0.91797 3.666v0.68164c0 1.5421 0.29953 2.7637 0.89648 3.666 0.59696 0.89757 1.413 1.3457 2.4512 1.3457 0.9937 0 1.7722-0.33659 2.332-1.0098 0.56359-0.67795 0.87212-1.5456 0.92773-2.6055h-1.668c-0.04079 0.62066-0.18517 1.0862-0.43359 1.3965-0.24471 0.30556-0.63169 0.45703-1.1582 0.45703-0.59325 0-1.0156-0.27214-1.2715-0.81641-0.25213-0.54427-0.37891-1.3546-0.37891-2.4336v-0.85938c0.02966-2.0577 0.58529-3.0879 1.668-3.0879 0.55246 0 0.94394 0.16775 1.1738 0.50195 0.2336 0.32943 0.36918 0.80512 0.40625 1.4258h1.668c-0.07786-1.0694-0.38619-1.9503-0.92383-2.6426-0.53763-0.69705-1.312-1.0469-2.3242-1.0469zm-7.4688 0.007813c-1.0159 0-1.8449 0.45833-2.4863 1.375-0.64145 0.91189-0.96289 2.1621-0.96289 3.752v0.4668c0 1.5898 0.32164 2.8401 0.9668 3.752 0.64516 0.91189 1.4762 1.3672 2.4922 1.3672s1.8427-0.45529 2.4805-1.3672c0.64145-0.91189 0.96289-2.1621 0.96289-3.752v-0.4668c0-1.5898-0.32164-2.8401-0.9668-3.752-0.64145-0.91667-1.4704-1.375-2.4863-1.375zm-10.303 0.14258v10.428h2.4746c1.1049 0 2.0016-0.45529 2.6875-1.3672 0.68965-0.91667 1.0332-2.1198 1.0332-3.6094v-0.4668c0-1.4896-0.34355-2.6927-1.0332-3.6094-0.68595-0.91667-1.574-1.375-2.6641-1.375h-2.498zm21.344 0 2.3574 5.1719-2.4199 5.2559h1.9414l1.5586-3.6523 1.5508 3.6523h1.9395l-2.4121-5.2559 2.3516-5.1719h-1.918l-1.5117 3.5879-1.5195-3.5879h-1.918zm-11.041 1.6328c0.55988 0 0.99303 0.28537 1.3008 0.85352 0.30775 0.56814 0.46094 1.3958 0.46094 2.4844v0.51562c-0.0037 1.0742-0.1569 1.8947-0.46094 2.4629-0.30033 0.56814-0.73114 0.85352-1.291 0.85352-0.56359 0-0.99889-0.28646-1.3066-0.85938-0.30775-0.57769-0.46094-1.4084-0.46094-2.4922v-0.51562c0.0037-1.079 0.1569-1.8984 0.46094-2.457 0.30404-0.56337 0.737-0.8457 1.2969-0.8457zm-8.6289 0.10742h0.875c0.65258 0.01432 1.1384 0.29254 1.4609 0.83203 0.32629 0.5395 0.49023 1.3385 0.49023 2.3984v0.54492c-0.00742 1.0217-0.18447 1.8064-0.5293 2.3555-0.34112 0.54904-0.83981 0.82422-1.4961 0.82422h-0.80078v-6.9551z"/></svg>
