<?xml version="1.0" encoding="UTF-8"?>
<svg width="24" height="24" version="1.1" viewBox="0 0 24 24" xmlns="http://www.w3.org/2000/svg"><path d="m3 1v9h2v-7h7v7h7v11h-16v2h18v-14.414l-7.5859-7.5859h-10.414zm11 3.4141 3.5859 3.5859h-3.5859v-3.5859zm-7.3066 8.7637c-0.39401 0-0.74532 0.11458-1.0527 0.34375-0.30525 0.22656-0.54207 0.55339-0.71094 0.98047-0.1667 0.42448-0.25 0.91667-0.25 1.4766v0.28125c0.0021649 0.54687 0.086996 1.0312 0.25586 1.4531 0.16886 0.41927 0.40743 0.74219 0.71484 0.96875 0.30742 0.22656 0.65698 0.33984 1.0488 0.33984 0.39618 0 0.74748-0.11458 1.0527-0.34375 0.30742-0.22917 0.5425-0.55469 0.70703-0.97656 0.16453-0.42188 0.24805-0.91276 0.24805-1.4727v-0.25391c0-0.55729-0.085043-1.0482-0.25391-1.4727-0.1667-0.42708-0.40352-0.75391-0.71094-0.98047-0.30525-0.22917-0.65481-0.34375-1.0488-0.34375zm4.543 0c-0.39401 0-0.7403 0.11198-1.0391 0.33594-0.29659 0.22135-0.52534 0.54036-0.68555 0.95703-0.1602 0.41667-0.24023 0.89844-0.24023 1.4453v0.34766c0 0.85677 0.17314 1.5312 0.51953 2.0234 0.34855 0.48958 0.82546 0.73438 1.4316 0.73438 0.55422 0 1.0002-0.17578 1.3379-0.52734 0.33989-0.35156 0.52765-0.83333 0.56445-1.4453h-0.97266c-0.021649 0.34635-0.10843 0.60286-0.25781 0.76953-0.14721 0.16406-0.37095 0.24609-0.67188 0.24609-0.3334 0-0.5785-0.14193-0.73438-0.42578-0.15371-0.28385-0.23047-0.73307-0.23047-1.3477v-0.42969c0.00433-0.58854 0.087844-1.0221 0.24805-1.3008 0.16237-0.28125 0.40573-0.42188 0.73047-0.42188 0.29876 0 0.52097 0.083333 0.66602 0.25 0.14721 0.16406 0.23204 0.42969 0.25586 0.79688h0.97461c-0.051957-0.63542-0.24473-1.1289-0.57812-1.4805-0.3334-0.35156-0.7728-0.52734-1.3184-0.52734zm-10.736 0.078125v5.6875h1.4648c0.4135-0.002604 0.78421-0.11719 1.1133-0.34375 0.32907-0.22656 0.58398-0.54557 0.76367-0.95703 0.18185-0.41146 0.27344-0.88151 0.27344-1.4102v-0.26172c0-0.52864-0.093326-1-0.27734-1.4141-0.18402-0.41667-0.44046-0.73698-0.76953-0.96094-0.3269-0.22656-0.69762-0.33984-1.1133-0.33984h-1.4551zm12.951 0 1.377 2.8203-1.4141 2.8672h1.1348l0.9082-1.9922 0.91016 1.9922h1.1328l-1.4121-2.8672 1.377-2.8203h-1.1211l-0.88672 1.9609-0.88672-1.9609h-1.1191zm-6.7578 0.89062c0.32907 0 0.58224 0.15495 0.75977 0.46484s0.26562 0.76302 0.26562 1.3594v0.27734c-0.0021649 0.59114-0.090267 1.0417-0.26562 1.3516-0.17536 0.30729-0.427 0.46094-0.75391 0.46094-0.3334 0-0.5881-0.16016-0.76562-0.48047-0.17752-0.32031-0.26758-0.77083-0.26758-1.3516v-0.27734c0.0021649-0.59115 0.092008-1.0391 0.26953-1.3438 0.17752-0.30729 0.43091-0.46094 0.75781-0.46094zm-5.2188 0.058594h0.48047c0.38319 0 0.67387 0.14974 0.87305 0.44922 0.19917 0.29688 0.29883 0.73438 0.29883 1.3125v0.30078c-0.0043298 0.55729-0.10726 0.98568-0.30859 1.2852s-0.49202 0.44922-0.87305 0.44922h-0.4707v-3.7969z"/></svg>
