<?xml version="1.0" encoding="UTF-8"?>
<svg width="40" height="40" version="1.1" viewBox="0 0 40 40" xmlns="http://www.w3.org/2000/svg"><path d="m4 1v15h2v-13h15v13h13v21h-30v2h32v-24l-14-14h-18zm19 3.8281 9.1719 9.1719h-9.1719v-9.1719zm4.8008 17.676c-1.2446 0-2.2418 0.44292-2.9922 1.3262-0.75036 0.87847-1.127 2.1215-1.127 3.7305v0.62305c0 1.6089 0.39202 2.852 1.1738 3.7305 0.7863 0.8737 1.8163 1.3105 3.0879 1.3105 1.0784 0 1.9147-0.16884 2.5078-0.50781 0.59759-0.33898 1.0124-0.65712 1.2461-0.95312v-4.1602h-3.8633v1.5762h1.834v1.7969c-0.10784 0.10981-0.28276 0.22439-0.52539 0.34375-0.24263 0.11458-0.60654 0.17188-1.0918 0.17188-0.77282 0-1.3538-0.27626-1.7402-0.83008-0.38192-0.55382-0.57031-1.3804-0.57031-2.4785l0.003907-1.0234c0.08088-1.9479 0.78585-2.9219 2.1113-2.9219 0.61107 0 1.0554 0.15755 1.334 0.47266 0.27858 0.3151 0.45682 0.73459 0.5332 1.2598h1.9668c-0.10782-1.0122-0.46569-1.8429-1.0723-2.4922-0.60658-0.64931-1.5448-0.97461-2.8164-0.97461zm-23.801 0.15039v10.428h3c1.339 0 2.4246-0.45529 3.2559-1.3672 0.83573-0.91667 1.252-2.1198 1.252-3.6094v-0.4668c0-1.4896-0.41622-2.6927-1.252-3.6094-0.83123-0.91667-1.9095-1.375-3.2305-1.375h-3.0254zm7.7734 0 2.1836 10.428h2.0352l1.5977-6.9746 1.5957 6.9746h2.0352l2.1719-10.428h-2.0098l-1.3203 7.3984-1.6172-7.3984h-1.7129l-1.6172 7.3984-1.3281-7.3984h-2.0137zm-5.7441 1.7402h1.0566c0.7908 0.01432 1.3825 0.29254 1.7734 0.83203 0.3954 0.5395 0.5918 1.3385 0.5918 2.3984v0.54492c-0.00899 1.0217-0.22081 1.8064-0.63867 2.3555-0.41337 0.54904-1.0172 0.82422-1.8125 0.82422h-0.9707v-6.9551z"/></svg>
