<?xml version="1.0" encoding="UTF-8"?>
<svg width="24" height="24" version="1.1" viewBox="0 0 24 24" xmlns="http://www.w3.org/2000/svg"><path d="m3 1v9h2v-7h7v7h7v11h-16v2h18v-14.414l-7.5859-7.5859h-10.414zm11 3.4141 3.5859 3.5859h-3.5859v-3.5859zm1.9512 8.8164c-0.4843 0-0.91145 0.11334-1.2812 0.33984-0.3672 0.224-0.64976 0.54554-0.84766 0.96484-0.1979 0.4166-0.29688 0.90494-0.29688 1.4648l0.003906 0.49219c0.0312 0.8125 0.26954 1.4466 0.71484 1.9023 0.4453 0.4558 1.0404 0.68359 1.7852 0.68359 0.4843 0 0.92964-0.071644 1.3359-0.21484 0.4062-0.1432 0.71478-0.33211 0.92578-0.56641v-2.3359h-2.3242v0.94141h0.95312v0.88281c-0.1745 0.1588-0.44008 0.23828-0.79688 0.23828-0.4167 0-0.72267-0.14198-0.91797-0.42578-0.1927-0.2865-0.28906-0.71355-0.28906-1.2812v-0.34375c0.0026-0.5417 0.097656-0.9584 0.28516-1.25 0.1875-0.2917 0.45318-0.4375 0.79688-0.4375 0.2865 0 0.50776 0.067725 0.66406 0.20312 0.1562 0.1354 0.25779 0.36199 0.30469 0.67969h1.3203c-0.0651-0.6433-0.2943-1.1263-0.6875-1.4492-0.3907-0.3256-0.94004-0.48828-1.6484-0.48828zm-12.842 0.082031v5.6875h1.8711c0.49215-0.0026 0.9375-0.11976 1.3359-0.35156 0.40104-0.2343 0.71094-0.55735 0.92969-0.96875 0.22135-0.4141 0.33203-0.88144 0.33203-1.4023v-0.26172c-0.0026-0.5156-0.11719-0.98043-0.34375-1.3945-0.22396-0.4167-0.53646-0.73824-0.9375-0.96484-0.40107-0.2291-0.85287-0.34375-1.3555-0.34375h-1.832zm4.0254 0 1.2109 5.6875h1.418l0.74609-3.2422 0.76172 3.2422h1.4219l1.207-5.6875h-1.3594l-0.65234 3.5664-0.79297-3.5664h-1.1641l-0.78125 3.5664-0.65234-3.5664h-1.3633zm-2.6543 1.0586h0.46094c0.40365 0 0.71094 0.13927 0.92188 0.41797 0.21093 0.2786 0.31641 0.69279 0.31641 1.2422v0.24609c0 0.5521-0.10548 0.9688-0.31641 1.25-0.21094 0.2787-0.51303 0.41797-0.90625 0.41797h-0.47656v-3.5742z"/></svg>
