<?xml version="1.0" encoding="UTF-8"?>
<svg width="24" height="24" version="1.1" viewBox="0 0 24 24" xmlns="http://www.w3.org/2000/svg"><path d="m3 1v9h2v-7h7v7h7v11h-16v2h18v-14.414l-7.5859-7.5859h-10.414zm11 3.4141 3.5859 3.5859h-3.5859v-3.5859zm-8.25 8.8164c-0.35417 0-0.67969 0.061194-0.97656 0.18359-0.29427 0.1224-0.55078 0.30206-0.76953 0.53906-0.21615 0.2344-0.38412 0.52349-0.50391 0.86719-0.11979 0.3438-0.17969 0.73699-0.17969 1.1797v0.31641c0 0.4427 0.058601 0.83589 0.17578 1.1797 0.1198 0.3411 0.28906 0.63019 0.50781 0.86719 0.22135 0.2344 0.48567 0.41276 0.79297 0.53516 0.30729 0.1198 0.64973 0.17969 1.0273 0.17969 0.40885 0 0.76433-0.042906 1.0664-0.12891 0.30209-0.0859 0.55209-0.18879 0.75-0.30859 0.20053-0.1224 0.34895-0.23705 0.44531-0.34375v-2.3359h-2.3242v0.94141h0.95312v0.88281c-0.03645 0.0338-0.089846 0.070375-0.16016 0.10938-0.06771 0.0365-0.15365 0.06765-0.25781 0.09375-0.10417 0.0234-0.22917 0.035157-0.375 0.035157-0.20834 0-0.38933-0.035169-0.54297-0.10547-0.15105-0.0729-0.27605-0.17971-0.375-0.32031-0.09636-0.1433-0.16927-0.32166-0.21875-0.53516-0.04688-0.2135-0.070312-0.46219-0.070312-0.74609v-0.32422c0-0.2865 0.024739-0.5365 0.074219-0.75 0.05209-0.2136 0.125-0.39055 0.21875-0.53125 0.09375-0.1432 0.20702-0.25001 0.33984-0.32031 0.13541-0.0703 0.28515-0.10547 0.44922-0.10547 0.21093 0 0.38282 0.035169 0.51562 0.10547 0.13281 0.0677 0.23438 0.16798 0.30469 0.30078 0.07291 0.1302 0.1224 0.28906 0.14844 0.47656h1.3164c-0.03646-0.3802-0.13932-0.71491-0.30859-1.0039-0.16927-0.2917-0.41796-0.51959-0.74609-0.68359-0.32812-0.1667-0.7539-0.25-1.2773-0.25zm9.5781 0c-0.3593 0-0.68627 0.063806-0.98047 0.19141-0.2943 0.1276-0.54681 0.31249-0.75781 0.55469-0.2083 0.2395-0.36978 0.5312-0.48438 0.875-0.112 0.3411-0.16797 0.72524-0.16797 1.1523v0.30859c0 0.4271 0.053356 0.81124 0.16016 1.1523 0.1093 0.3412 0.26696 0.63159 0.47266 0.87109 0.2083 0.2396 0.46091 0.42318 0.75781 0.55078 0.2995 0.1276 0.63923 0.19141 1.0195 0.19141 0.4687 0 0.87505-0.0833 1.2188-0.25 0.3464-0.1692 0.6172-0.40493 0.8125-0.70703 0.1953-0.3021 0.30211-0.65098 0.32031-1.0469h-1.3672c-0.0052 0.2136-0.0468 0.38924-0.125 0.52734-0.0781 0.1354-0.18883 0.23699-0.33203 0.30469-0.1432 0.0652-0.31904 0.097656-0.52734 0.097656-0.1875 0-0.34636-0.03125-0.47656-0.09375-0.1276-0.0651-0.2318-0.16538-0.3125-0.30078s-0.13928-0.30984-0.17578-0.52344c-0.036399-0.2135-0.054687-0.47134-0.054687-0.77344v-0.31641c0-0.3021 0.019594-0.55994 0.058594-0.77344 0.0417-0.2162 0.1042-0.39194 0.1875-0.52734 0.0834-0.1354 0.1875-0.23438 0.3125-0.29687 0.125-0.0625 0.27221-0.093751 0.44141-0.09375 0.2422 0 0.43613 0.036375 0.58203 0.10937 0.1458 0.0729 0.25261 0.18233 0.32031 0.32813 0.0677 0.1432 0.10418 0.32166 0.10938 0.53516h1.3672c-0.0338-0.3932-0.14453-0.74348-0.33203-1.0508-0.1875-0.3099-0.45177-0.55337-0.79297-0.73047-0.3411-0.1771-0.75911-0.26562-1.2539-0.26562zm-6.9414 0.082031v5.6875h1.3711v-1.9297h0.89844c0.4558 0 0.84768-0.075562 1.1758-0.22656 0.3308-0.1537 0.58462-0.36712 0.76172-0.64062 0.177-0.2734 0.26562-0.59374 0.26562-0.96094 0-0.3724-0.088625-0.70309-0.26562-0.99219-0.1771-0.2917-0.43092-0.5208-0.76172-0.6875-0.3281-0.1667-0.71998-0.25-1.1758-0.25h-2.2695zm1.3711 1.0586h0.89844c0.1928 0 0.34895 0.0417 0.46875 0.125 0.1198 0.0807 0.20702 0.18751 0.26172 0.32031 0.0573 0.1328 0.085937 0.27739 0.085937 0.43359 0 0.1458-0.028637 0.27733-0.085937 0.39453-0.0547 0.1146-0.14192 0.20443-0.26172 0.26953-0.1198 0.0651-0.27595 0.097657-0.46875 0.097657h-0.89844v-1.6406z"/></svg>
