<?xml version="1.0" encoding="UTF-8"?>
<svg width="40" height="40" version="1.1" viewBox="0 0 40 40" xmlns="http://www.w3.org/2000/svg"><path d="m4 1v15h2v-13h15v13h13v21h-30v2h32v-24l-14-14h-18zm19 3.8281 9.1719 9.1719h-9.1719v-9.1719zm-2.8652 17.684c-1.1267 0-2.0506 0.26801-2.7715 0.80273-0.72092 0.53472-1.082 1.2376-1.082 2.1113 0 0.90712 0.35091 1.6079 1.0527 2.0996 0.6684 0.47266 1.4622 0.85937 2.3789 1.1602 0.92144 0.29601 1.5015 0.56098 1.7402 0.79492 0.23872 0.22917 0.35742 0.51671 0.35742 0.86523 0 0.3342-0.13303 0.6135-0.40039 0.83789-0.26259 0.22439-0.67079 0.33789-1.2246 0.33789-0.61589 0-1.1161-0.12891-1.498-0.38672-0.37717-0.25781-0.56445-0.70486-0.56445-1.3398h-2.1562c0 0.78776 0.20768 1.4353 0.62305 1.9414 0.41536 0.50608 0.94531 0.87956 1.5898 1.123 0.64453 0.24349 1.3136 0.36523 2.0059 0.36523 1.1458 0 2.0625-0.25174 2.75-0.75781 0.6875-0.51085 1.0312-1.2229 1.0312-2.1348 0-0.85938-0.29362-1.551-0.88086-2.0762-0.58247-0.52517-1.4449-0.96202-2.5859-1.3105-0.67318-0.20529-1.1858-0.42318-1.5391-0.65234-0.3533-0.22917-0.53125-0.51563-0.53125-0.85938 0-0.3342 0.13607-0.61762 0.4082-0.85156 0.27691-0.23872 0.69835-0.35938 1.2617-0.35938 0.57769 0 1.0074 0.14214 1.2891 0.42383 0.28168 0.28168 0.42188 0.64084 0.42188 1.0801h2.1484c0-0.93576-0.34787-1.7031-1.0449-2.3047-0.69705-0.60634-1.6239-0.91016-2.7793-0.91016zm-16.135 0.14258v10.428h2.1484v-10.428h-2.1484zm4.1465 0v10.428h6.9961v-1.7324h-4.8398v-2.7871h4.1172v-1.6816h-4.1172v-2.4863h4.8184v-1.7402h-6.9746z"/></svg>
