<?xml version="1.0" encoding="UTF-8"?>
<svg width="24" height="24" version="1.1" viewBox="0 0 24 24" xmlns="http://www.w3.org/2000/svg"><path d="m3 1v9h2v-7h7v7h7v11h-16v2h18v-14.414l-7.5859-7.5859h-10.414zm11 3.4141 3.5859 3.5859h-3.5859v-3.5859zm-2.1035 8.8262c-0.40842 0-0.77609 0.067709-1.1055 0.20312-0.32674 0.13542-0.57932 0.32422-0.75586 0.56641-0.17391 0.23958-0.25977 0.51302-0.25977 0.82031 0 0.59115 0.32504 1.0612 0.97852 1.4102 0.23978 0.1276 0.5655 0.25781 0.97656 0.39062 0.41106 0.13021 0.69542 0.25521 0.85352 0.375 0.1581 0.11719 0.23828 0.28646 0.23828 0.50781 0 0.20312-0.080182 0.36198-0.23828 0.47656-0.1581 0.11198-0.37821 0.16797-0.66016 0.16797-0.75888 0-1.1367-0.3138-1.1367-0.94141h-1.1895c0 0.36719 0.093483 0.6901 0.2832 0.96875 0.19235 0.27865 0.47035 0.4987 0.83398 0.66016 0.36363 0.15885 0.7663 0.23828 1.209 0.23828 0.63767 0 1.1466-0.13932 1.5234-0.41797 0.3768-0.28125 0.56445-0.66797 0.56445-1.1602 0-0.44271-0.1546-0.8125-0.46289-1.1094s-0.80005-0.54557-1.4746-0.74609c-0.36626-0.10938-0.64426-0.22656-0.83398-0.35156-0.18708-0.125-0.2793-0.27995-0.2793-0.46484 0-0.19792 0.079499-0.35677 0.24023-0.47656 0.16074-0.1224 0.38593-0.18359 0.67578-0.18359 0.30039 0 0.53321 0.072917 0.69922 0.21875 0.166 0.14323 0.25 0.34505 0.25 0.60547h1.1855c0-0.34115-0.090351-0.64583-0.26953-0.91406-0.17655-0.26823-0.42462-0.47526-0.74609-0.62109-0.32147-0.14844-0.68855-0.22266-1.0996-0.22266zm-8.8965 0.078125v5.6875h1.1855v-5.6875h-1.1855zm2.2852 0v5.6875h3.8574v-0.94141h-2.6719v-1.5234h2.2754v-0.91797h-2.2754v-1.3555h2.6641v-0.94922h-3.8496z"/></svg>
