<?xml version="1.0" encoding="UTF-8"?>
<svg width="24" height="24" version="1.1" viewBox="0 0 24 24" xmlns="http://www.w3.org/2000/svg"><path d="m3 1v9h2v-7h7v7h7v11h-16v2h18v-14.414l-7.5859-7.5859h-10.414zm11 3.4141 3.5859 3.5859h-3.5859v-3.5859zm1.0566 8.8164c-0.4843 0-0.91145 0.11334-1.2812 0.33984-0.3672 0.224-0.64976 0.54554-0.84766 0.96484-0.1979 0.4166-0.29688 0.90494-0.29688 1.4648l0.003907 0.49219c0.0312 0.8125 0.26954 1.4466 0.71484 1.9023 0.4453 0.4558 1.0404 0.68359 1.7852 0.68359 0.4843 0 0.92964-0.071644 1.3359-0.21484 0.4062-0.1432 0.71478-0.33211 0.92578-0.56641v-2.3359h-2.3242v0.94141h0.95312v0.88281c-0.1745 0.1588-0.44008 0.23828-0.79688 0.23828-0.4167 0-0.72257-0.14198-0.91797-0.42578-0.1927-0.2865-0.28906-0.71355-0.28906-1.2812v-0.34375c0.0026-0.5417 0.097657-0.9584 0.28516-1.25 0.1875-0.2917 0.45318-0.4375 0.79688-0.4375 0.2865 0 0.50776 0.067725 0.66406 0.20312 0.1562 0.1354 0.25779 0.36199 0.30469 0.67969h1.3203c-0.0651-0.6433-0.2943-1.1263-0.6875-1.4492-0.3907-0.3256-0.94004-0.48828-1.6484-0.48828zm-9.3613 0.082031v3.9023c0 0.2553-0.05208 0.45446-0.15625 0.59766-0.10156 0.1406-0.24739 0.21094-0.4375 0.21094-0.21094-1e-6 -0.36198-0.058682-0.45312-0.17578-0.08854-0.1172-0.13281-0.30591-0.13281-0.56641h-1.375c0 0.573 0.17188 1.0156 0.51562 1.3281s0.82552 0.46875 1.4453 0.46875c0.36979 0 0.70443-0.078175 1.0039-0.23438 0.30208-0.1563 0.53646-0.37636 0.70312-0.66016 0.16927-0.2839 0.25391-0.60675 0.25391-0.96875v-3.9023h-1.3672zm2.0352 0v5.6875h1.3711v-1.9297h0.875c0.69272 0 1.237-0.16539 1.6328-0.49609 0.3984-0.3333 0.59766-0.77733 0.59766-1.332 0-0.375-0.092443-0.70961-0.27734-1.0039-0.1823-0.2969-0.44144-0.52479-0.77734-0.68359-0.3334-0.1615-0.71746-0.24219-1.1523-0.24219h-2.2695zm1.3711 1.0586h0.91406c0.2474 0.0026 0.44274 0.083287 0.58594 0.24219 0.1432 0.1588 0.21484 0.37112 0.21484 0.63672 0 0.2422-0.070337 0.4297-0.21094 0.5625-0.138 0.1328-0.33989 0.19922-0.60547 0.19922h-0.89844v-1.6406z"/></svg>
