<?xml version="1.0" encoding="UTF-8"?>
<svg width="40" height="40" version="1.1" viewBox="0 0 40 40" xmlns="http://www.w3.org/2000/svg"><path d="m4 1v15h2v-13h15v13h13v21h-30v2h32v-24l-14-14h-18zm19 3.8281 9.1719 9.1719h-9.1719v-9.1719zm3.416 17.676c-1.3225 0-2.3824 0.44292-3.1797 1.3262-0.79731 0.87847-1.1973 2.1215-1.1973 3.7305v0.62305c0 1.6089 0.41536 2.852 1.2461 3.7305 0.8355 0.8737 1.9301 1.3105 3.2812 1.3105 1.1458 0 2.0339-0.16884 2.6641-0.50781 0.63498-0.33898 1.076-0.65712 1.3242-0.95312v-4.1602h-4.1035v1.5762h1.9473v1.7969c-0.11458 0.10981-0.30078 0.22439-0.55859 0.34375-0.25781 0.11458-0.64453 0.17188-1.1602 0.17188-0.82118 0-1.4371-0.27626-1.8477-0.83008-0.40582-0.55382-0.60742-1.3804-0.60742-2.4785l0.00586-1.0234c0.08594-1.9479 0.83377-2.9219 2.2422-2.9219 0.64931 0 1.122 0.15755 1.418 0.47266 0.29601 0.3151 0.48524 0.73459 0.56641 1.2598h2.0898c-0.11458-1.0122-0.49414-1.8429-1.1387-2.4922-0.64453-0.64931-1.6411-0.97461-2.9922-0.97461zm-17.568 0.15039v7.2188c0 0.51562-0.12174 0.91558-0.36523 1.1973-0.24349 0.28168-0.56988 0.42188-0.98047 0.42188-0.41059-1e-6 -0.73698-0.10742-0.98047-0.32227-0.24349-0.21962-0.36523-0.60937-0.36523-1.168h-2.1562c0 1.1029 0.32639 1.9182 0.98047 2.4434 0.65885 0.5204 1.4998 0.7793 2.5215 0.7793 0.99306 0 1.8238-0.29774 2.4922-0.89453 0.6684-0.59679 1.002-1.4162 1.002-2.457v-7.2188h-2.1484zm3.9824 0v10.428h2.1562v-3.6816h1.918c1.2318 0 2.1914-0.29774 2.8789-0.89453 0.69228-0.59679 1.0391-1.3989 1.0391-2.4062 0-0.99783-0.34679-1.8214-1.0391-2.4707-0.6875-0.6493-1.6471-0.97461-2.8789-0.97461h-4.0742zm2.1562 1.7402h1.918c0.61589 0 1.0599 0.17491 1.332 0.52344 0.27214 0.34375 0.4082 0.74175 0.4082 1.1953 1e-6 0.45356-0.13607 0.82596-0.4082 1.1172-0.27214 0.29123-0.71614 0.4375-1.332 0.4375h-1.918v-3.2734z"/></svg>
