<?xml version="1.0" encoding="UTF-8"?>
<svg width="24" height="24" version="1.1" viewBox="0 0 24 24" xmlns="http://www.w3.org/2000/svg"><path d="m3 1v9h2v-7h7v7h7v11h-16v2h18v-14.414l-7.5859-7.5859h-10.414zm11 3.4141 3.5859 3.5859h-3.5859v-3.5859zm-5.9688 9.2617c-0.23633 0-0.45312 0.027385-0.65234 0.083985-0.19922 0.0547-0.37305 0.13669-0.52148 0.24219-0.14649 0.1035-0.26172 0.22855-0.34375 0.37695-0.08203 0.1465-0.12305 0.31054-0.12305 0.49414 0 0.1914 0.041024 0.35941 0.12109 0.50391 0.08008 0.1426 0.1875 0.2676 0.32422 0.375 0.13672 0.1055 0.29297 0.1993 0.4668 0.2793 0.17383 0.0782 0.35352 0.14844 0.54102 0.21094 0.16016 0.052699 0.28906 0.10354 0.38672 0.15234 0.09961 0.0469 0.17578 0.093725 0.22852 0.14062 0.05273 0.0468 0.089845 0.097644 0.10938 0.15234 0.01954 0.0527 0.029297 0.11133 0.029297 0.17773 0 0.0762-0.019531 0.14654-0.056641 0.21094-0.03711 0.0625-0.095711 0.1152-0.17578 0.1543-0.08008 0.0371-0.18555 0.054687-0.31641 0.054687-0.12109 0-0.22852-0.011703-0.32227-0.033203-0.09375-0.0234-0.17188-0.060528-0.23633-0.11133-0.06445-0.0527-0.11327-0.12113-0.14648-0.20703-0.0332-0.0859-0.050781-0.19141-0.050781-0.31641h-1.0312c0 0.2519 0.050784 0.46874 0.15234 0.65234 0.10352 0.1816 0.24218 0.33202 0.41406 0.44922 0.17187 0.1152 0.36328 0.20111 0.57422 0.25781 0.21289 0.0546 0.42773 0.082032 0.64648 0.082032 0.23828 0 0.45508-0.025425 0.64844-0.078125s0.35938-0.13082 0.49805-0.23242c0.13867-0.1035 0.24414-0.23041 0.31836-0.37891 0.07422-0.1484 0.11133-0.31641 0.11133-0.50781 0-0.1797-0.031253-0.34188-0.095703-0.48438-0.0625-0.1426-0.15625-0.26956-0.2793-0.38086-0.12109-0.1133-0.26954-0.21484-0.44727-0.30274-0.17578-0.0898-0.37695-0.16999-0.60352-0.24219-0.12109-0.0391-0.23048-0.078141-0.32812-0.11914-0.0957-0.0411-0.17773-0.085859-0.24609-0.13086-0.0664-0.0449-0.11914-0.091778-0.15625-0.14258-0.03516-0.0527-0.052734-0.11128-0.052734-0.17578 0-0.078099 0.023439-0.15034 0.068359-0.21484 0.04492-0.0664 0.11133-0.1191 0.19922-0.1582 0.08789-0.039 0.19532-0.058594 0.32422-0.058594 0.13282 0 0.24414 0.025366 0.33203 0.072266 0.08789 0.046799 0.15234 0.10941 0.19531 0.19141 0.04492 0.0821 0.068359 0.17776 0.068359 0.28516h1.0215c0-0.2695-0.068358-0.50387-0.20508-0.70117-0.13476-0.1992-0.32226-0.35148-0.5625-0.45898-0.23828-0.1093-0.51367-0.16406-0.82617-0.16406zm3.5684 0c-0.2754 0-0.52736 0.048785-0.75586 0.14648-0.2266 0.0957-0.42384 0.23437-0.58984 0.41797-0.1641 0.1817-0.29101 0.40241-0.38281 0.66211-0.08984 0.2598-0.13477 0.55281-0.13477 0.87891v0.17383c0 0.3261 0.044926 0.61911 0.13477 0.87891 0.0918 0.2578 0.22072 0.47851 0.38672 0.66211 0.168 0.1816 0.3653 0.32037 0.5918 0.41797 0.2285 0.0957 0.48046 0.14453 0.75586 0.14453 0.2734 0 0.5234-0.048832 0.75-0.14453 0.2265-0.097599 0.42189-0.23637 0.58789-0.41797 0.1661-0.1836 0.29497-0.40431 0.38477-0.66211 0.0918-0.2598 0.13672-0.55281 0.13672-0.87891v-0.17383c0-0.3261-0.044919-0.61911-0.13672-0.87891-0.0918-0.2597-0.22072-0.48041-0.38672-0.66211-0.166-0.1836-0.3633-0.32227-0.5918-0.41797-0.2265-0.0977-0.4765-0.14648-0.75-0.14648zm-6.5781 0.058594v2.9258c0 0.127-0.017574 0.23828-0.052734 0.33008-0.03516 0.0898-0.085944 0.15813-0.15234 0.20703-0.06446 0.0468-0.14453 0.070312-0.23828 0.070312-0.0957 0-0.17579-0.015575-0.24219-0.046875-0.06446-0.0332-0.11327-0.089822-0.14648-0.16992-0.0332-0.082-0.048828-0.19524-0.048828-0.33984h-1.0312c0 0.3086 0.0625 0.56242 0.1875 0.76172 0.12695 0.1992 0.29883 0.34571 0.51953 0.44141 0.22266 0.0957 0.47657 0.14453 0.76172 0.14453 0.27539 0 0.52344-0.056622 0.74414-0.16992 0.22266-0.1153 0.40039-0.27733 0.5293-0.48633 0.13086-0.2089 0.19531-0.45699 0.19531-0.74219v-2.9258h-1.0254zm8.6777 0v4.2656h1.0273v-2.6543l1.5098 2.6543h1.0254v-4.2656h-1.0254v2.6543l-1.5098-2.6543h-1.0273zm-2.0996 0.74609c0.1309 0 0.24606 0.029337 0.34766 0.085937 0.1035 0.0547 0.19142 0.13669 0.26172 0.24609s0.123 0.24415 0.1582 0.40625c0.037099 0.1602 0.054687 0.34759 0.054687 0.55859v0.17773c0 0.209-0.017588 0.39454-0.054687 0.55664-0.0352 0.1602-0.087904 0.29495-0.1582 0.40625-0.0684 0.1114-0.15426 0.19731-0.25586 0.25391s-0.21686 0.083984-0.34766 0.083984c-0.1367 0-0.25783-0.027384-0.36133-0.083984-0.1015-0.0566-0.18751-0.14251-0.25781-0.25391-0.0683-0.1113-0.1191-0.24605-0.1543-0.40625-0.0332-0.1621-0.050781-0.34764-0.050781-0.55664v-0.17773c0-0.211 0.017581-0.39839 0.050781-0.55859 0.0352-0.1621 0.085997-0.29685 0.1543-0.40625 0.0684-0.1094 0.15426-0.19139 0.25586-0.24609 0.1016-0.0566 0.22072-0.085937 0.35742-0.085937z"/></svg>
