<?xml version="1.0" encoding="UTF-8"?>
<svg width="24" height="24" version="1.1" viewBox="0 0 24 24" xmlns="http://www.w3.org/2000/svg"><path d="m3 1v9h2v-7h7v7h7v11h-16v2h18v-14.414l-7.5859-7.5859h-10.414zm11 3.4141 3.5859 3.5859h-3.5859v-3.5859zm-4.6289 8.832c-0.61458 0-1.1185 0.14583-1.5117 0.4375-0.39323 0.29166-0.58984 0.67578-0.58984 1.1523 0 0.49479 0.19141 0.8763 0.57422 1.1445 0.36458 0.25781 0.79688 0.46875 1.2969 0.63281 0.5026 0.16146 0.81901 0.30599 0.94922 0.43359 0.13021 0.125 0.19531 0.28255 0.19531 0.47266 0 0.18229-0.072917 0.33464-0.21875 0.45703-0.14323 0.1224-0.36589 0.18359-0.66797 0.18359-0.33594 0-0.60807-0.070312-0.81641-0.21094-0.20573-0.14062-0.30859-0.38412-0.30859-0.73047h-1.1758c0 0.42969 0.11328 0.78255 0.33984 1.0586 0.22656 0.27604 0.51563 0.48047 0.86719 0.61328 0.35156 0.13281 0.71615 0.19922 1.0938 0.19922 0.625 0 1.125-0.13802 1.5-0.41406 0.375-0.27864 0.5625-0.66667 0.5625-1.1641-1e-6 -0.46875-0.16016-0.84636-0.48047-1.1328-0.31771-0.28646-0.78776-0.52474-1.4102-0.71484-0.36719-0.11198-0.64714-0.23047-0.83984-0.35547-0.19271-0.125-0.28906-0.28125-0.28906-0.46875 1e-7 -0.18229 0.074219-0.33724 0.22266-0.46484 0.15104-0.13021 0.38021-0.19531 0.6875-0.19531 0.3151-1e-6 0.54948 0.076822 0.70313 0.23047 0.15364 0.15364 0.23047 0.35026 0.23047 0.58984h1.1719c0-0.51042-0.19011-0.92969-0.57031-1.2578-0.38021-0.33073-0.88542-0.49609-1.5156-0.49609zm-6.3711 0.078125v5.6875h3.6602v-0.94531h-2.4844v-4.7422h-1.1758zm9.25 0v5.6875h1.1758v-2.0078h1.0469c0.67188 0 1.1953-0.16276 1.5703-0.48828 0.3776-0.32552 0.56641-0.76302 0.56641-1.3125 0-0.54427-0.1888-0.99349-0.56641-1.3477-0.375-0.35417-0.89844-0.53125-1.5703-0.53125h-2.2227zm1.1758 0.94922h1.0469c0.33594-1e-6 0.57812 0.095052 0.72656 0.28516 0.14844 0.1875 0.22266 0.40495 0.22266 0.65234 0 0.24739-0.074219 0.45052-0.22266 0.60937-0.14844 0.15885-0.39063 0.23828-0.72656 0.23828h-1.0469v-1.7852z"/></svg>
