<?xml version="1.0" encoding="UTF-8"?>
<svg width="40" height="40" version="1.1" viewBox="0 0 40 40" xmlns="http://www.w3.org/2000/svg"><path d="m4 1v15h2v-13h15v13h13v21h-30v2h32v-24l-14-14h-18zm19 3.8281 9.1719 9.1719h-9.1719v-9.1719zm-19 17.832v10.42h2.5117v-3.5352h1.6035c1.2691 0 2.265-0.30426 2.9902-0.91016 0.7299-0.6107 1.0957-1.4233 1.0957-2.4395 0-0.6871-0.16911-1.3006-0.50781-1.8398-0.334-0.5438-0.80838-0.96095-1.4238-1.252-0.61069-0.2958-1.3146-0.44336-2.1113-0.44336h-4.1582zm9.5469 0v10.42h3.4277c0.9017-0.0048 1.7173-0.21993 2.4473-0.64453 0.7347-0.4294 1.3024-1.0216 1.7031-1.7754 0.4056-0.7586 0.60938-1.6142 0.60938-2.5684v-0.48047c-0.0047-0.9446-0.21586-1.7961-0.63086-2.5547-0.4103-0.7634-0.9821-1.3525-1.7168-1.7676-0.7347-0.4198-1.5636-0.62891-2.4844-0.62891h-3.3555zm9.4746 0v10.42h2.5117v-4.1504h4.0508v-1.9336h-4.0508v-2.3965h4.459v-1.9395h-6.9707zm-16.51 1.9395h1.6758c0.45324 0.0047 0.80987 0.15226 1.0723 0.44336 0.26241 0.291 0.39453 0.67932 0.39453 1.166 0 0.4437-0.12909 0.78795-0.38672 1.0312-0.25286 0.2433-0.62274 0.36524-1.1094 0.36524h-1.6465v-3.0059zm9.5469 0h0.84375c0.7395 0 1.3031 0.25513 1.6895 0.76562 0.3865 0.5105 0.58008 1.2687 0.58008 2.2754v0.45117c0 1.0115-0.19358 1.7738-0.58008 2.2891-0.3864 0.5105-0.93966 0.76758-1.6602 0.76758h-0.87305v-6.5488z"/></svg>
