<?xml version="1.0" encoding="UTF-8"?>
<svg width="24" height="24" version="1.1" viewBox="0 0 24 24" xmlns="http://www.w3.org/2000/svg"><path d="m3 1v9h2v-7h7v7h7v11h-16v2h18v-14.414l-7.5859-7.5859h-10.414zm11 3.4141 3.5859 3.5859h-3.5859v-3.5859zm-10.57 8.8984v5.6875h1.3711v-1.9297h0.875c0.69271 0 1.237-0.16539 1.6328-0.49609 0.39844-0.3333 0.59766-0.77733 0.59766-1.332 0-0.375-0.092454-0.70961-0.27734-1.0039-0.1823-0.2969-0.4414-0.52479-0.77734-0.68359-0.33333-0.1615-0.71745-0.24219-1.1523-0.24219h-2.2695zm5.2109 0v5.6875h1.8711c0.4922-0.0026 0.93744-0.11976 1.3359-0.35156 0.401-0.2343 0.71099-0.55735 0.92969-0.96875 0.2214-0.4141 0.33203-0.88144 0.33203-1.4023v-0.26172c-0.0026-0.5156-0.11715-0.98043-0.34375-1.3945-0.2239-0.4167-0.5364-0.73824-0.9375-0.96484-0.401-0.2291-0.85287-0.34375-1.3555-0.34375h-1.832zm5.1719 0v5.6875h1.3711v-2.2656h2.2109v-1.0547h-2.2109v-1.3086h2.4336v-1.0586h-3.8047zm-9.0117 1.0586h0.91406c0.2474 0.0026 0.44271 0.083287 0.58594 0.24219 0.14323 0.1588 0.21484 0.37112 0.21484 0.63672 0 0.2422-0.070318 0.4297-0.21094 0.5625-0.13802 0.1328-0.33985 0.19922-0.60547 0.19922h-0.89844v-1.6406zm5.2109 0h0.46094c0.4036 0 0.71098 0.13927 0.92188 0.41797 0.211 0.2786 0.31641 0.69279 0.31641 1.2422v0.24609c0 0.5521-0.10541 0.9688-0.31641 1.25-0.2109 0.2787-0.51305 0.41797-0.90625 0.41797h-0.47656v-3.5742z"/></svg>
