<?xml version="1.0" encoding="UTF-8"?>
<svg width="40" height="40" version="1.1" viewBox="0 0 40 40" xmlns="http://www.w3.org/2000/svg"><path d="m4 1v15h2v-13h15v13h13v21h-30v2h32v-24l-14-14h-18zm19 3.8281 9.1719 9.1719h-9.1719v-9.1719zm4.1484 17.676c-1.3225 0-2.3824 0.44292-3.1797 1.3262-0.79731 0.87847-1.1953 2.1215-1.1953 3.7305v0.62305c0 1.6089 0.41536 2.852 1.2461 3.7305 0.8355 0.8737 1.9282 1.3105 3.2793 1.3105 1.1458 0 2.0339-0.16884 2.6641-0.50781 0.63498-0.33898 1.076-0.65712 1.3242-0.95312v-4.1602h-4.1035v1.5762h1.9492v1.7969c-0.11458 0.10981-0.30078 0.22439-0.55859 0.34375-0.25781 0.11458-0.64453 0.17188-1.1602 0.17188-0.82118 0-1.4371-0.27626-1.8477-0.83008-0.40582-0.55382-0.60938-1.3804-0.60938-2.4785l0.007813-1.0234c0.085938-1.9479 0.83181-2.9219 2.2402-2.9219 0.6493 0 1.122 0.15755 1.418 0.47266 0.29601 0.3151 0.48524 0.73459 0.56641 1.2598h2.0918c-0.11458-1.0122-0.49414-1.8429-1.1387-2.4922-0.64453-0.64931-1.643-0.97461-2.9941-0.97461zm-23.148 0.15039v10.428h2.1562v-3.6816h1.9199c1.2318 0 2.1914-0.29774 2.8789-0.89453 0.69227-0.59679 1.0371-1.3989 1.0371-2.4062-1e-6 -0.99783-0.34484-1.8214-1.0371-2.4707-0.6875-0.6493-1.6471-0.97461-2.8789-0.97461h-4.0762zm9.0684 0v10.428h2.1543v-6.8672l4.1836 6.8672h2.1484v-10.428h-2.1484v6.875l-4.1836-6.875h-2.1543zm-6.9121 1.7402h1.9199c0.61589 0 1.0599 0.17491 1.332 0.52344 0.27214 0.34375 0.4082 0.74175 0.4082 1.1953 0 0.45356-0.13607 0.82596-0.4082 1.1172-0.27214 0.29123-0.71615 0.4375-1.332 0.4375h-1.9199v-3.2734z"/></svg>
