<?xml version="1.0" encoding="UTF-8"?>
<svg width="24" height="24" version="1.1" viewBox="0 0 24 24" xmlns="http://www.w3.org/2000/svg"><path d="m3 1v9h2v-7h7v7h7v11h-16v2h18v-14.414l-7.5859-7.5859h-10.414zm11 3.4141 3.5859 3.5859h-3.5859v-3.5859zm2.0938 8.8164c-0.72135 0-1.2995 0.24088-1.7344 0.72266-0.4349 0.47917-0.65234 1.1576-0.65234 2.0352v0.33984c0 0.8776 0.22656 1.556 0.67969 2.0352 0.45573 0.47656 1.0521 0.71484 1.7891 0.71484 0.625 0 1.1094-0.092448 1.4531-0.27734 0.34636-0.1849 0.58724-0.35807 0.72266-0.51953v-2.2695h-2.2383v0.85938h1.0625v0.98047c-0.0625 0.059894-0.16406 0.12239-0.30469 0.1875-0.14063 0.0625-0.35156 0.09375-0.63281 0.09375-0.89323 0-1.3398-0.60156-1.3398-1.8047v-0.34766c0-1.2031 0.40885-1.8047 1.2266-1.8047 0.35417 0 0.61198 0.085937 0.77344 0.25781 0.16146 0.17187 0.26432 0.40104 0.30859 0.6875h1.1406c-0.0625-0.55208-0.26953-1.0052-0.62109-1.3594-0.35156-0.35417-0.89583-0.53125-1.6328-0.53125zm-12.662 0.082031v5.6875h1.1758v-2.0078h1.0469c0.67188 0 1.1953-0.16276 1.5703-0.48828 0.3776-0.32552 0.56641-0.76302 0.56641-1.3125 0-0.54427-0.1888-0.99349-0.56641-1.3477-0.375-0.35417-0.89844-0.53125-1.5703-0.53125h-2.2227zm4.9648 0v5.6875h1.1758v-3.7461l2.2813 3.7461h1.1719v-5.6875h-1.1719v3.75l-2.2813-3.75h-1.1758zm-3.7891 0.94922h1.0469c0.33594 0 0.57812 0.095052 0.72656 0.28516 0.14844 0.1875 0.22266 0.40495 0.22266 0.65234 0 0.2474-0.074219 0.45052-0.22266 0.60938-0.14844 0.15885-0.39062 0.23828-0.72656 0.23828h-1.0469v-1.7852z"/></svg>
