<?xml version="1.0" encoding="UTF-8"?>
<svg width="24" height="24" version="1.1" viewBox="0 0 24 24" xmlns="http://www.w3.org/2000/svg"><path d="m3 1v9h2v-7h7v7h7v11h-16v2h18v-14.414l-7.5859-7.5859h-10.414zm11 3.4141 3.5859 3.5859h-3.5859v-3.5859zm-11 8.8906v5.6875h1.1758v-2.0078h1.0469c0.67187 0 1.1953-0.16276 1.5703-0.48828 0.3776-0.32552 0.56641-0.76302 0.56641-1.3125 0-0.54427-0.1888-0.99349-0.56641-1.3477-0.375-0.35417-0.89844-0.53125-1.5703-0.53125h-2.2227zm4.8633 0v5.6875h1.1758v-2.0078h1.0469c0.67187 0 1.1953-0.16276 1.5703-0.48828 0.3776-0.32552 0.56641-0.76302 0.56641-1.3125 0-0.54427-0.1888-0.99349-0.56641-1.3477-0.375-0.35417-0.89844-0.53125-1.5703-0.53125h-2.2227zm4.5156 0v0.94922h1.7188v4.7383h1.1719v-4.7383h1.7383v-0.94922h-4.6289zm-8.2031 0.94922h1.0469c0.33594 0 0.57813 0.095051 0.72656 0.28516 0.14844 0.1875 0.22266 0.40495 0.22266 0.65234-1e-7 0.2474-0.074219 0.45052-0.22266 0.60938-0.14844 0.15885-0.39063 0.23828-0.72656 0.23828h-1.0469v-1.7852zm4.8633 0h1.0469c0.33594 0 0.57812 0.095051 0.72656 0.28516 0.14844 0.1875 0.22266 0.40495 0.22266 0.65234 0 0.2474-0.07422 0.45052-0.22266 0.60938-0.14844 0.15885-0.39063 0.23828-0.72656 0.23828h-1.0469v-1.7852z"/></svg>
