<?xml version="1.0" encoding="UTF-8"?>
<svg width="40" height="40" version="1.1" viewBox="0 0 40 40" xmlns="http://www.w3.org/2000/svg"><path d="m4 1v15h2v-13h15v13h13v21h-30v2h32v-24l-14-14h-18zm19 3.8281 9.1719 9.1719h-9.1719v-9.1719zm-19 17.838v10.428h2.1562v-3.6816h1.9199c1.2318 0 2.1914-0.29774 2.8789-0.89453 0.69227-0.59679 1.0371-1.3989 1.0371-2.4062 0-0.99783-0.34484-1.8214-1.0371-2.4707-0.6875-0.6493-1.6471-0.97461-2.8789-0.97461h-4.0762zm8.8691 0v10.428h2.1543v-3.6816h1.9199c1.2318 0 2.1914-0.29774 2.8789-0.89453 0.69227-0.59679 1.0391-1.3989 1.0391-2.4062 0-0.99783-0.34679-1.8214-1.0391-2.4707-0.6875-0.6493-1.6471-0.97461-2.8789-0.97461h-4.0742zm8.2285 0v1.7402h3.1523v8.6875h2.1484v-8.6875h3.1875v-1.7402h-8.4883zm-14.941 1.7402h1.9199c0.61589 0 1.0599 0.17491 1.332 0.52344 0.27214 0.34375 0.4082 0.74175 0.4082 1.1953s-0.13607 0.82595-0.4082 1.1172c-0.27214 0.29123-0.71615 0.4375-1.332 0.4375h-1.9199v-3.2734zm8.8672 0h1.9199c0.61589 0 1.0599 0.17491 1.332 0.52344 0.27213 0.34375 0.4082 0.74175 0.4082 1.1953s-0.13607 0.82595-0.4082 1.1172c-0.27214 0.29123-0.71615 0.4375-1.332 0.4375h-1.9199v-3.2734z"/></svg>
