<?xml version="1.0" encoding="UTF-8"?>
<svg width="24" height="24" version="1.1" viewBox="0 0 24 24" xmlns="http://www.w3.org/2000/svg"><path d="m3 1v9h2v-7h7v7h7v11h-16v2h18v-14.414l-7.5859-7.5859h-10.414zm11 3.4141 3.5859 3.5859h-3.5859v-3.5859zm-10.801 8.8867v5.6875h1.1719v-2.082h0.93359l1.0664 2.082h1.2578v-0.054687l-1.2305-2.3242c0.34115-0.15365 0.59505-0.35938 0.76172-0.61719 0.16927-0.26042 0.25391-0.58464 0.25391-0.97266 0-0.54688-0.18229-0.97005-0.54688-1.2695s-0.88281-0.44922-1.5547-0.44922h-2.1133zm6.7422 0-2.1172 5.6875h1.2461l0.39062-1.1719h2.0547l0.39453 1.1719h1.2461l-2.1289-5.6875h-1.0859zm3.7461 0v5.6875h1.1719v-2.082h0.93359l1.0664 2.082h1.2578v-0.054687l-1.2305-2.3242c0.34115-0.15365 0.59505-0.35938 0.76172-0.61719 0.16927-0.26042 0.25391-0.58464 0.25391-0.97266 0-0.54688-0.18229-0.97005-0.54688-1.2695-0.36458-0.29948-0.88281-0.44922-1.5547-0.44922h-2.1133zm-9.3164 0.94922h0.94141c0.3151 0 0.54818 0.076823 0.69922 0.23047 0.15365 0.15365 0.23047 0.36458 0.23047 0.63281 0 0.26302-0.080729 0.47005-0.24219 0.62109-0.16146 0.14844-0.38932 0.22266-0.68359 0.22266h-0.94531v-1.707zm10.488 0h0.94141c0.3151 0 0.54818 0.076823 0.69922 0.23047 0.15365 0.15365 0.23047 0.36458 0.23047 0.63281 0 0.26302-0.080729 0.47005-0.24219 0.62109-0.16146 0.14844-0.38932 0.22266-0.68359 0.22266h-0.94531v-1.707zm-4.375 0.48828 0.71484 2.1289h-1.4219l0.70703-2.1289z"/></svg>
