<?xml version="1.0" encoding="UTF-8"?>
<svg width="40" height="40" version="1.1" viewBox="0 0 40 40" xmlns="http://www.w3.org/2000/svg"><path d="m4 1v15h2v-13h15v13h13v21h-30v2h32v-24l-14-14h-18zm19 3.8281 9.1719 9.1719h-9.1719v-9.1719zm-18.502 17.771v10.508h2.166v-3.8457h1.7246l1.9688 3.8457h2.3242v-0.09961l-2.2734-4.2949c0.6303-0.28387 1.1003-0.6643 1.4082-1.1406 0.31274-0.48114 0.46875-1.08 0.46875-1.7969 0-1.0104-0.33617-1.7924-1.0098-2.3457-0.6736-0.55331-1.6317-0.83008-2.873-0.83008h-3.9043zm12.457 0-3.9121 10.508h2.3027l0.7207-2.1641h3.7969l0.72852 2.1641h2.3027l-3.9336-10.508h-2.0059zm6.9219 0v10.508h2.1641v-3.8457h1.7246l1.9707 3.8457h2.3242v-0.09961l-2.2734-4.2949c0.6303-0.28387 1.0983-0.6643 1.4062-1.1406 0.31274-0.48114 0.4707-1.08 0.4707-1.7969 0-1.0104-0.33812-1.7924-1.0117-2.3457-0.6736-0.55331-1.6297-0.83008-2.8711-0.83008h-3.9043zm-17.213 1.7539h1.7383c0.58218 0 1.012 0.14191 1.291 0.42578 0.28387 0.28387 0.42773 0.67434 0.42773 1.1699 0 0.48595-0.15091 0.86742-0.44922 1.1465-0.29831 0.27425-0.71803 0.41211-1.2617 0.41211h-1.7461v-3.1543zm19.377 0h1.7402c0.58218 0 1.012 0.14191 1.291 0.42578 0.28387 0.28387 0.42578 0.67434 0.42578 1.1699 0 0.48595-0.14896 0.86742-0.44727 1.1465-0.29831 0.27425-0.71998 0.41211-1.2637 0.41211h-1.7461v-3.1543zm-8.084 0.90234 1.3223 3.9336h-2.627l1.3047-3.9336z"/></svg>
