<?xml version="1.0" encoding="UTF-8"?>
<svg width="24" height="24" version="1.1" viewBox="0 0 24 24" xmlns="http://www.w3.org/2000/svg"><path d="m3 1v9h2v-7h7v7h7v11h-16v2h18v-14.414l-7.5859-7.5859h-10.414zm11 3.4141 3.5859 3.5859h-3.5859v-3.5859zm-8.5273 8.8086c-0.40365 0-0.76823 0.067709-1.0938 0.20312-0.32292 0.13542-0.57161 0.32422-0.74609 0.56641-0.17188 0.23958-0.25781 0.51302-0.25781 0.82031 0 0.59115 0.32292 1.0612 0.96875 1.4102 0.23698 0.1276 0.55859 0.25781 0.96484 0.39062 0.40625 0.13021 0.6875 0.25521 0.84375 0.375 0.15625 0.11719 0.23438 0.28646 0.23438 0.50781 0 0.20312-0.078125 0.36198-0.23438 0.47656-0.15625 0.11198-0.3737 0.16797-0.65234 0.16797-0.75 0-1.125-0.3138-1.125-0.94141h-1.1758c0 0.36719 0.09375 0.6901 0.28125 0.96875 0.1901 0.27865 0.46484 0.4987 0.82422 0.66016 0.35938 0.15885 0.75781 0.23828 1.1953 0.23828 0.63021 0 1.1315-0.13932 1.5039-0.41797 0.3724-0.28125 0.55859-0.66797 0.55859-1.1602 0-0.44271-0.15234-0.8125-0.45703-1.1094-0.30469-0.29688-0.79036-0.54557-1.457-0.74609-0.36198-0.10937-0.63672-0.22656-0.82422-0.35156-0.1849-0.125-0.27734-0.27995-0.27734-0.46484 0-0.19792 0.079427-0.35677 0.23828-0.47656 0.15885-0.1224 0.38151-0.18359 0.66797-0.18359 0.29688 0 0.52734 0.072917 0.69141 0.21875 0.16406 0.14323 0.24609 0.34505 0.24609 0.60547h1.1719c0-0.34115-0.088542-0.64583-0.26562-0.91406-0.17448-0.26823-0.42057-0.47526-0.73828-0.62109-0.31771-0.14844-0.67969-0.22266-1.0859-0.22266zm2.8828 0.078125v5.6875h1.7617c0.4974-0.002604 0.94401-0.11719 1.3398-0.34375 0.39583-0.22656 0.70182-0.54557 0.91797-0.95703 0.21875-0.41146 0.32812-0.88151 0.32812-1.4102v-0.26172c0-0.52865-0.11068-1-0.33203-1.4141-0.22135-0.41667-0.52995-0.73698-0.92578-0.96094-0.39323-0.22656-0.83984-0.33984-1.3398-0.33984h-1.75zm5.1992 0v5.6875h1.1719v-2.3242h2.25v-0.94531h-2.25v-1.4688h2.5312v-0.94922h-3.7031zm-4.0273 0.94922h0.57813c0.46094 0 0.8112 0.14974 1.0508 0.44922 0.23958 0.29688 0.35938 0.73438 0.35938 1.3125v0.30078c-0.005208 0.55729-0.12891 0.98568-0.37109 1.2852-0.24219 0.29948-0.59245 0.44922-1.0508 0.44922h-0.56641v-3.7969z"/></svg>
