<?xml version="1.0" encoding="UTF-8"?>
<svg width="40" height="40" version="1.1" viewBox="0 0 40 40" xmlns="http://www.w3.org/2000/svg"><path d="m4 1v15h2v-13h15v13h13v21h-30v2h32v-24l-14-14h-18zm19 3.8281 9.1719 9.1719h-9.1719v-9.1719zm-15.42 17.684c-0.96763 0-1.7617 0.26801-2.3809 0.80273-0.61912 0.53472-0.92969 1.2376-0.92969 2.1113 0 0.90712 0.30158 1.6079 0.9043 2.0996 0.57402 0.47266 1.2557 0.85937 2.043 1.1602 0.79132 0.29601 1.2891 0.56098 1.4941 0.79492 0.20501 0.22917 0.30664 0.51671 0.30664 0.86523 0 0.3342-0.11414 0.6135-0.34375 0.83789-0.22551 0.22439-0.57517 0.33789-1.0508 0.33789-0.52891 0-0.9591-0.12891-1.2871-0.38672-0.32391-0.25781-0.48438-0.70486-0.48438-1.3398h-1.8516c0 0.78776 0.17845 1.4353 0.53516 1.9414 0.35671 0.50608 0.81172 0.87956 1.3652 1.123 0.55352 0.24349 1.1281 0.36523 1.7227 0.36523 0.98403 0 1.7709-0.25174 2.3613-0.75781 0.59042-0.51085 0.88672-1.2229 0.88672-2.1348 0-0.85938-0.2535-1.551-0.75781-2.0762-0.50021-0.52517-1.2408-0.96202-2.2207-1.3105-0.57812-0.20529-1.0169-0.42318-1.3203-0.65234-0.30341-0.22917-0.45703-0.51563-0.45703-0.85938 0-0.3342 0.1159-0.61762 0.34961-0.85156 0.23781-0.23872 0.60017-0.35938 1.084-0.35938 0.49611 0 0.86552 0.14214 1.1074 0.42383 0.24191 0.28168 0.36133 0.64084 0.36133 1.0801h1.8457c0-0.93576-0.29787-1.7031-0.89648-2.3047-0.59862-0.60634-1.3945-0.91016-2.3867-0.91016zm3.2988 0.14258v1.7402h2.7051v8.6875h1.8457v-8.6875h2.7363v-1.7402h-7.2871zm7.6523 0v10.428h6.0078v-1.7324h-4.1562v-2.7871h3.5352v-1.6816h-3.5352v-2.4863h4.1367v-1.7402h-5.9883zm6.3105 0v10.428h1.8516v-3.6816h1.6504c1.0578 0 1.8803-0.29774 2.4707-0.89453 0.59452-0.59679 0.89062-1.3989 0.89062-2.4062 0-0.99783-0.29611-1.8214-0.89062-2.4707-0.59042-0.6493-1.4129-0.97461-2.4707-0.97461h-3.502zm1.8516 1.7402h1.6504c0.52891 0 0.90887 0.17491 1.1426 0.52344 0.23371 0.34375 0.35156 0.74175 0.35156 1.1953-1e-6 0.45356-0.11786 0.82596-0.35156 1.1172-0.23371 0.29123-0.61366 0.4375-1.1426 0.4375h-1.6504v-3.2734z"/></svg>
