<?xml version="1.0" encoding="UTF-8"?>
<svg width="24" height="24" version="1.1" viewBox="0 0 24 24" xmlns="http://www.w3.org/2000/svg"><path d="m3 1v9h2v-7h7v7h7v11h-16v2h18v-14.414l-7.5859-7.5859h-10.414zm11 3.4141 3.5859 3.5859h-3.5859v-3.5859zm-10.961 8.7637c-0.3619 0-0.68861 0.067709-0.98047 0.20312-0.28952 0.13542-0.51349 0.32422-0.66992 0.56641-0.1541 0.23958-0.23047 0.51302-0.23047 0.82031 0 0.59115 0.28815 1.0612 0.86719 1.4102 0.21247 0.1276 0.501 0.25781 0.86523 0.39062 0.36424 0.13021 0.61772 0.25521 0.75781 0.375 0.14009 0.11719 0.20898 0.28646 0.20898 0.50781 0 0.20312-0.068894 0.36198-0.20898 0.47656-0.14009 0.11198-0.33611 0.16797-0.58594 0.16797-0.67243 0-1.0078-0.3138-1.0078-0.94141h-1.0547c0 0.36719 0.083844 0.6901 0.25195 0.96875 0.17044 0.27865 0.41607 0.4987 0.73828 0.66016 0.32221 0.15885 0.68001 0.23828 1.0723 0.23828 0.56503 0 1.0157-0.13932 1.3496-0.41797 0.33388-0.28125 0.5-0.66797 0.5-1.1602 0-0.44271-0.13698-0.8125-0.41016-1.1094-0.27318-0.29687-0.70892-0.54557-1.3066-0.74609-0.32454-0.10938-0.57017-0.22656-0.73828-0.35156-0.16577-0.125-0.24805-0.27995-0.24805-0.46484 0-0.19792 0.070465-0.35677 0.21289-0.47656 0.14243-0.1224 0.34278-0.18359 0.59961-0.18359 0.26617 0 0.47205 0.072917 0.61914 0.21875 0.1471 0.14323 0.2207 0.34505 0.2207 0.60547h1.0508c0-0.34115-0.079512-0.64583-0.23828-0.91406-0.15643-0.26823-0.37726-0.47526-0.66211-0.62109-0.28485-0.14844-0.60842-0.22266-0.97266-0.22266zm2.2695 0.078125v0.94922h1.541v4.7383h1.0508v-4.7383h1.5605v-0.94922h-4.1523zm4.752 0v5.6875h3.418v-0.94141h-2.3672v-1.5234h2.0176v-0.91797h-2.0176v-1.3555h2.3594v-0.94922h-3.4102zm4.0352 0v5.6875h1.0508v-2.0039h0.91992c0.60472 0 1.0771-0.16016 1.418-0.48047 0.34322-0.32292 0.51562-0.76302 0.51562-1.3203 0-0.36719-0.077941-0.69401-0.23438-0.98047-0.15643-0.28906-0.38002-0.51172-0.67188-0.66797-0.28952-0.15625-0.62685-0.23438-1.0098-0.23438h-1.9883zm1.0508 0.94922h0.96289c0.25917 0.005208 0.46228 0.09375 0.60938 0.26562s0.2207 0.39714 0.2207 0.67578c0 0.27083-0.073608 0.47917-0.2207 0.625-0.14476 0.14583-0.35692 0.21875-0.63477 0.21875h-0.9375v-1.7852z"/></svg>
