<?xml version="1.0" encoding="UTF-8"?>
<svg width="24" height="24" version="1.1" viewBox="0 0 24 24" xmlns="http://www.w3.org/2000/svg"><path d="m3 1v9h2v-7h7v7h7v11h-16v2h18v-14.414l-7.5859-7.5859h-10.414zm11 3.4141 3.5859 3.5859h-3.5859v-3.5859zm-8.7266 8.7949c-0.40365 0-0.76823 0.067709-1.0938 0.20312-0.32292 0.13542-0.57161 0.32422-0.74609 0.56641-0.17188 0.23958-0.25781 0.51302-0.25781 0.82031 1e-7 0.59115 0.32292 1.0612 0.96875 1.4102 0.23698 0.1276 0.55859 0.25781 0.96484 0.39062 0.40625 0.13021 0.6875 0.25521 0.84375 0.375 0.15625 0.11719 0.23438 0.28646 0.23438 0.50781 0 0.20312-0.078125 0.36198-0.23438 0.47656-0.15625 0.11198-0.3737 0.16797-0.65234 0.16797-0.75 0-1.125-0.3138-1.125-0.94141h-1.1758c0 0.36719 0.09375 0.6901 0.28125 0.96875 0.1901 0.27865 0.46484 0.4987 0.82422 0.66016 0.35938 0.15885 0.75781 0.23828 1.1953 0.23828 0.63021 0 1.1315-0.13932 1.5039-0.41797 0.3724-0.28125 0.55859-0.66797 0.55859-1.1602 0-0.44271-0.15234-0.8125-0.45703-1.1094s-0.79036-0.54557-1.457-0.74609c-0.36198-0.10938-0.63672-0.22656-0.82422-0.35156-0.1849-0.125-0.27734-0.27995-0.27734-0.46484 0-0.19792 0.079427-0.35677 0.23828-0.47656 0.15885-0.1224 0.38151-0.18359 0.66797-0.18359 0.29688 0 0.52734 0.072917 0.69141 0.21875 0.16406 0.14323 0.24609 0.34505 0.24609 0.60547h1.1719c1e-7 -0.34115-0.088542-0.64583-0.26562-0.91406-0.17448-0.26823-0.42057-0.47526-0.73828-0.62109-0.31771-0.14844-0.67969-0.22266-1.0859-0.22266zm2.5312 0.078125v0.94922h1.7188v4.7383h1.1719v-4.7383h1.7422v-0.94922h-4.6328zm5.3008 0v5.6875h1.1719v-2.0039h1.0273c0.67448 0 1.2018-0.16016 1.582-0.48047 0.38281-0.32292 0.57422-0.76302 0.57422-1.3203 0-0.36719-0.08724-0.69401-0.26172-0.98047-0.17448-0.28906-0.42448-0.51172-0.75-0.66797-0.32292-0.15625-0.69792-0.23438-1.125-0.23438h-2.2188zm1.1719 0.94922h1.0742c0.28906 0.005208 0.51563 0.09375 0.67969 0.26562s0.24609 0.39714 0.24609 0.67578c0 0.27083-0.082032 0.47917-0.24609 0.625-0.16146 0.14583-0.39714 0.21875-0.70703 0.21875h-1.0469v-1.7852z"/></svg>
