<?xml version="1.0" encoding="UTF-8"?>
<svg width="40" height="40" version="1.1" viewBox="0 0 40 40" xmlns="http://www.w3.org/2000/svg"><path d="m4 1v15h2v-13h15v13h13v21h-30v2h32v-24l-14-14h-18zm19 3.8281 9.1719 9.1719h-9.1719v-9.1719zm-14.832 17.684c-1.1267 0-2.0506 0.26801-2.7715 0.80273-0.72092 0.53472-1.0801 1.2376-1.0801 2.1113 0 0.90712 0.35091 1.6079 1.0527 2.0996 0.6684 0.47266 1.4603 0.85937 2.377 1.1602 0.92144 0.29601 1.5015 0.56098 1.7402 0.79492 0.23872 0.22917 0.35742 0.51671 0.35742 0.86523 0 0.3342-0.13303 0.6135-0.40039 0.83789-0.26259 0.22439-0.67079 0.33789-1.2246 0.33789-0.61589 0-1.1141-0.12891-1.4961-0.38672-0.37717-0.25781-0.56641-0.70486-0.56641-1.3398h-2.1562c0 0.78776 0.20768 1.4353 0.62305 1.9414 0.41536 0.50608 0.94531 0.87956 1.5898 1.123 0.64453 0.24349 1.3136 0.36523 2.0059 0.36523 1.1458 0 2.0625-0.25174 2.75-0.75781 0.6875-0.51085 1.0312-1.2229 1.0312-2.1348 1e-6 -0.85938-0.29362-1.551-0.88086-2.0762-0.58247-0.52517-1.4449-0.96202-2.5859-1.3105-0.67318-0.20529-1.1858-0.42318-1.5391-0.65234-0.3533-0.22917-0.5293-0.51563-0.5293-0.85938 0-0.3342 0.13607-0.61762 0.4082-0.85156 0.27691-0.23872 0.6964-0.35938 1.2598-0.35938 0.57769 0 1.0074 0.14214 1.2891 0.42383 0.28168 0.28168 0.42188 0.64084 0.42188 1.0801h2.1484c0-0.93576-0.34787-1.7031-1.0449-2.3047-0.69705-0.60634-1.6239-0.91016-2.7793-0.91016zm4.6406 0.14258v1.7402h3.1523v8.6875h2.1484v-8.6875h3.1855v-1.7402h-8.4863zm9.7109 0v10.428h2.1562v-3.6816h1.9199c1.2318 0 2.1914-0.29774 2.8789-0.89453 0.69228-0.59679 1.0371-1.3989 1.0371-2.4062 0-0.99783-0.34484-1.8214-1.0371-2.4707-0.6875-0.6493-1.6471-0.97461-2.8789-0.97461h-4.0762zm2.1562 1.7402h1.9199c0.61589 0 1.0599 0.17491 1.332 0.52344 0.27214 0.34375 0.4082 0.74175 0.4082 1.1953 0 0.45356-0.13607 0.82596-0.4082 1.1172-0.27214 0.29123-0.71614 0.4375-1.332 0.4375h-1.9199v-3.2734z"/></svg>
