<svg width="40" height="40" viewBox="0 0 40 40" fill="none" xmlns="http://www.w3.org/2000/svg">
<g clip-path="url(#clip0_5059_26925)">
<path fill-rule="evenodd" clip-rule="evenodd" d="M4.77051 1.77032H3.77051V2.77032V15.5948V16.5948H5.77051V15.5948V3.77032H20.2591V15.5948V16.5948H21.2591H33.0835V38.4115H4.77051H3.77051V40.4115H4.77051H34.0835H35.0835V39.4115V15.5948V15.1805L34.7906 14.8876L21.9662 2.06322L21.6733 1.77032H21.2591H4.77051ZM31.6693 14.5948L22.2591 5.18454V14.5948H31.6693ZM9.71446 26.0474V35H7.13967V26.0474H4.00003V24H7.13967H9.71446H12.9275V26.0474H9.71446ZM16.2578 24L18.0037 27.6566L19.7496 24H22.6838L19.7056 29.4547L22.7645 35H19.8009L18.0037 31.2754L16.2065 35H13.2356L16.3018 29.4547L13.3162 24H16.2578ZM28.787 35V26.0474H32V24H28.787H26.2122H23.0726V26.0474H26.2122V35H28.787Z" fill="#DA1F24"/>
</g>
<defs>
<clipPath id="clip0_5059_26925">
<rect width="40" height="40" fill="white"/>
</clipPath>
</defs>
</svg>
