<?xml version="1.0" encoding="UTF-8"?>
<svg width="40" height="40" version="1.1" viewBox="0 0 40 40" xmlns="http://www.w3.org/2000/svg"><path d="m4 1v15h2v-13h15v13h13v21h-30v2h32v-24l-14-14h-18zm19 3.8281 9.1719 9.1719h-9.1719v-9.1719zm-19 17.826v6.875c0 1.2127 0.37543 2.1324 1.125 2.7578 0.74957 0.62544 1.7092 0.9375 2.8789 0.9375 1.1554 0 2.1089-0.31206 2.8633-0.9375 0.75434-0.62543 1.1328-1.5451 1.1328-2.7578v-6.875h-2.1562v6.9688c-0.028646 1.2461-0.64149 1.8691-1.8398 1.8691-0.57769-1e-6 -1.0319-0.15452-1.3613-0.46484-0.32465-0.31033-0.48633-0.81055-0.48633-1.498v-6.875h-2.1562zm9.7539 0v10.428h2.1562v-3.8242h1.7109l1.9473 3.8242h2.3145v-0.099609l-2.2559-4.2695c0.57292-0.25781 1.0252-0.61697 1.3594-1.0801 0.3342-0.46311 0.50195-1.0718 0.50195-1.8262 0-1.0265-0.34375-1.8071-1.0312-2.3418-0.68273-0.5395-1.6239-0.81055-2.8223-0.81055h-3.8809zm9.3594 0v10.428h6.7109v-1.7324h-4.5547v-8.6953h-2.1562zm-7.2031 1.7402h1.7246c0.57769 0 1.0063 0.14323 1.2832 0.42969 0.27691 0.28168 0.41406 0.66428 0.41406 1.1465 0 0.46788-0.14323 0.8444-0.42969 1.1309-0.28168 0.28168-0.70421 0.42383-1.2676 0.42383h-1.7246v-3.1309z"/></svg>
