<?xml version="1.0" encoding="UTF-8"?>
<svg width="40" height="40" version="1.1" viewBox="0 0 40 40" xmlns="http://www.w3.org/2000/svg"><path d="m4 1v15h2v-13h15v13h13v21h-30v2h32v-24l-14-14h-18zm19 3.8281 9.1719 9.1719h-9.1719v-9.1719zm2.7715 17.684c-1.1267 0-2.0506 0.26801-2.7715 0.80273-0.72092 0.53472-1.082 1.2376-1.082 2.1113 0 0.90712 0.35091 1.6079 1.0527 2.0996 0.6684 0.47266 1.4603 0.85937 2.377 1.1602 0.92144 0.29601 1.5015 0.56098 1.7402 0.79492 0.23871 0.22917 0.35938 0.51671 0.35938 0.86523 0 0.3342-0.13498 0.6135-0.40234 0.83789-0.26259 0.22439-0.67079 0.33789-1.2246 0.33789-0.61589 0-1.1141-0.12891-1.4961-0.38672-0.37717-0.25781-0.56641-0.70486-0.56641-1.3398h-2.1543c0 0.78776 0.20768 1.4353 0.62305 1.9414 0.41536 0.50608 0.94531 0.87956 1.5898 1.123 0.64453 0.24349 1.3116 0.36523 2.0039 0.36523 1.1458 0 2.0625-0.25174 2.75-0.75781 0.6875-0.51085 1.0313-1.2229 1.0312-2.1348 0-0.85938-0.29362-1.551-0.88086-2.0762-0.58246-0.52517-1.4429-0.96202-2.584-1.3105-0.67318-0.20529-1.1877-0.42318-1.541-0.65234s-0.5293-0.51563-0.5293-0.85938c0-0.3342 0.13607-0.61762 0.4082-0.85156 0.27691-0.23872 0.6964-0.35938 1.2598-0.35938 0.57769 0 1.0074 0.14214 1.2891 0.42383 0.28168 0.28168 0.42383 0.64084 0.42383 1.0801h2.1484c0-0.93576-0.34983-1.7031-1.0469-2.3047-0.69705-0.60634-1.622-0.91016-2.7773-0.91016zm-21.693 0.14258 3.0371 5.1719-3.1152 5.2559h2.5l2.0039-3.6523 1.998 3.6523h2.5l-3.1074-5.2559 3.0293-5.1719h-2.4707l-1.9492 3.5879-1.9551-3.5879h-2.4707zm10.012 0v10.428h6.7109v-1.7324h-4.5547v-8.6953h-2.1562z"/></svg>
