<?xml version="1.0" encoding="UTF-8"?>
<svg width="24" height="24" version="1.1" viewBox="0 0 24 24" xmlns="http://www.w3.org/2000/svg"><path d="m3 1v9h2v-7h7v7h7v11h-16v2h18v-14.414l-7.5859-7.5859h-10.414zm11 3.4141 3.5859 3.5859h-3.5859v-3.5859zm0.73438 8.8203c-0.4193 0-0.79691 0.067725-1.1328 0.20312-0.336 0.1328-0.59635 0.3203-0.78125 0.5625-0.1823 0.2396-0.27344 0.51693-0.27344 0.83203 0 0.6328 0.36857 1.1302 1.1055 1.4922 0.2266 0.112 0.5183 0.22786 0.875 0.34766 0.3568 0.1198 0.60549 0.23576 0.74609 0.34766 0.1433 0.112 0.21484 0.26825 0.21484 0.46875 0 0.1771-0.066418 0.31516-0.19922 0.41406-0.1302 0.0964-0.30856 0.14453-0.53516 0.14453-0.3542 0-0.61073-0.071544-0.76953-0.21484-0.1563-0.1458-0.23438-0.37108-0.23438-0.67578h-1.375c0 0.375 0.09385 0.70709 0.28125 0.99609 0.1902 0.2865 0.47135 0.51309 0.84375 0.67969 0.375 0.1641 0.79301 0.24609 1.2539 0.24609 0.6537 0 1.168-0.14188 1.543-0.42578 0.375-0.2838 0.5625-0.67448 0.5625-1.1719 0-0.6224-0.30728-1.1106-0.92188-1.4648-0.2526-0.1458-0.57555-0.28125-0.96875-0.40625-0.3933-0.1276-0.66792-0.24999-0.82422-0.36719-0.1562-0.1198-0.23438-0.25264-0.23438-0.39844 0-0.1667 0.070338-0.30336 0.21094-0.41016 0.1432-0.1094 0.33723-0.16406 0.58203-0.16406 0.2422 0 0.43362 0.063807 0.57422 0.19141 0.1433 0.1276 0.21484 0.30726 0.21484 0.53906h1.3672c0-0.3464-0.089831-0.65358-0.26953-0.92188-0.1796-0.2708-0.43221-0.4791-0.75781-0.625-0.3229-0.1458-0.68886-0.21875-1.0977-0.21875zm-11.996 0.078125 1.5859 2.8203-1.6289 2.8672h1.5781l0.95703-1.9258 0.95703 1.9258h1.582l-1.6328-2.8672 1.5898-2.8203h-1.5664l-0.92969 1.8906-0.92969-1.8906h-1.5625zm5.4805 0v5.6875h3.7578v-1.0547h-2.3867v-4.6328h-1.3711z"/></svg>
