<?xml version="1.0" encoding="UTF-8"?>
<svg width="40" height="40" version="1.1" viewBox="0 0 40 40" xmlns="http://www.w3.org/2000/svg"><path d="m4 1v15h2v-13h15v13h13v21h-30v2h32v-24l-14-14h-18zm19 3.8281 9.1719 9.1719h-9.1719v-9.1719zm-3.3379 17.684c-0.8836 0-1.6085 0.26801-2.1738 0.80273-0.56535 0.53472-0.84766 1.2376-0.84766 2.1113 0 0.90712 0.27384 1.6079 0.82422 2.0996 0.52417 0.47266 1.1464 0.85937 1.8652 1.1602 0.7226 0.29601 1.178 0.56098 1.3652 0.79492 0.1872 0.22917 0.2793 0.51671 0.2793 0.86523 0 0.3342-0.10479 0.6135-0.31445 0.83789-0.20592 0.22439-0.52468 0.33789-0.95898 0.33789-0.48298 0-0.8743-0.12891-1.1738-0.38672-0.29578-0.25781-0.44336-0.70486-0.44336-1.3398h-1.6914c0 0.78776 0.16255 1.4353 0.48828 1.9414 0.32573 0.50608 0.7426 0.87956 1.248 1.123 0.50545 0.24349 1.0294 0.36523 1.5723 0.36523 0.89857 0 1.6171-0.25174 2.1562-0.75781 0.53914-0.51085 0.80859-1.2229 0.80859-2.1348 0-0.85938-0.23089-1.551-0.69141-2.0762-0.45677-0.52517-1.1325-0.96202-2.0273-1.3105-0.52791-0.20529-0.92997-0.42318-1.207-0.65234-0.27706-0.22917-0.41602-0.51563-0.41602-0.85938 0-0.3342 0.1069-0.61762 0.32031-0.85156 0.21716-0.23872 0.54648-0.35938 0.98828-0.35938 0.45303 0 0.79082 0.14214 1.0117 0.42383 0.2209 0.28168 0.33008 0.64084 0.33008 1.0801h1.6855c0-0.93576-0.27368-1.7031-0.82031-2.3047-0.54663-0.60634-1.2717-0.91016-2.1777-0.91016zm-15.6 0.14258 2.3809 5.1719-2.4434 5.2559h1.9609l1.5723-3.6523 1.5664 3.6523h1.959l-2.4375-5.2559 2.377-5.1719h-1.9375l-1.5273 3.5879-1.5332-3.5879h-1.9375zm7.1445 0v10.428h5.2637v-1.7324h-3.5723v-8.6953h-1.6914zm11.887 0v10.428h1.6914v-2.8496l-0.16797-4.8984 2.2012 7.748h1.1562l2.2012-7.748-0.16797 4.8984v2.8496h1.6914v-10.428h-2.207l-2.0957 7.5625-2.0938-7.5625h-2.209z"/></svg>
