<?xml version="1.0" encoding="UTF-8"?>
<svg width="24" height="24" version="1.1" viewBox="0 0 24 24" xmlns="http://www.w3.org/2000/svg">
 <path d="m3 1v9h2v-7h7v7h7v11h-16v2h18v-14.414l-7.5859-7.5859h-10.414zm11 3.4141 3.5859 3.5859h-3.5859v-3.5859zm-3.4688 8.7852c-0.3301 0-0.62832 0.06752-0.89453 0.20312-0.26408 0.1356-0.46864 0.32388-0.61133 0.56641-0.14056 0.23992-0.21094 0.51455-0.21094 0.82227 0 0.59196 0.26481 1.0627 0.79297 1.4121 0.1938 0.12778 0.45683 0.25763 0.78906 0.39062 0.33223 0.13039 0.56167 0.25504 0.68945 0.375 0.12778 0.11735 0.19141 0.2881 0.19141 0.50977 0 0.20341-0.063625 0.36182-0.19141 0.47656-0.12778 0.11214-0.30533 0.16797-0.5332 0.16797-0.61335 0-0.91992-0.31488-0.91992-0.94336h-0.96094c0 0.3677 0.075178 0.69167 0.22852 0.9707 0.15547 0.27903 0.38188 0.50043 0.67578 0.66211 0.2939 0.15907 0.61878 0.23828 0.97656 0.23828 0.51538 0 0.92592-0.14089 1.2305-0.41992 0.30454-0.28164 0.45703-0.66729 0.45703-1.1602 0-0.44332-0.12583-0.81404-0.375-1.1113s-0.64621-0.54725-1.1914-0.74805c-0.29603-0.10953-0.52049-0.22639-0.67383-0.35156-0.15121-0.12517-0.22656-0.27969-0.22656-0.46484 0-0.19819 0.065402-0.35856 0.19531-0.47852 0.12991-0.12256 0.31066-0.18359 0.54492-0.18359 0.24278 0 0.43224 0.072715 0.56641 0.21875 0.13417 0.14343 0.20117 0.34664 0.20117 0.60742h0.95898c0-0.34162-0.073931-0.64741-0.21875-0.91602-0.14269-0.2686-0.34369-0.47506-0.60352-0.62109-0.25982-0.14864-0.55449-0.22266-0.88672-0.22266zm-9.6738 0.078125 1.3555 2.8242-1.3906 2.8711h1.1152l0.89453-1.9961 0.89453 1.9961h1.1152l-1.3906-2.8711 1.3555-2.8242h-1.1035l-0.87109 1.9629-0.87305-1.9629h-1.1016zm4.4668 0v5.6953h2.9922v-0.94336h-2.0352v-4.752h-0.95703zm7.5645 0v5.6953h0.95703v-1.5566l-0.095703-2.6836 1.252 4.2402h0.6582l1.2559-4.2441-0.095704 2.6875v1.5566h0.96094v-5.6953h-1.2578l-1.1875 4.1309-1.1953-4.1309h-1.252z"/>
</svg>
