<svg width="40" height="40" viewBox="0 0 40 40" fill="none" xmlns="http://www.w3.org/2000/svg">
<g clip-path="url(#clip0_15584_94835)">
<path fill-rule="evenodd" clip-rule="evenodd" d="M3.77051 1.77029H4.77051H21.2591H21.6733L21.9662 2.06319L34.7906 14.8876L35.0835 15.1805V15.5947V39.4115V40.4115H34.0835H4.77051H3.77051V38.4115H4.77051H33.0835V16.5947H21.2591H20.2591V15.5947V3.77029H5.77051V15.5947V16.5947H3.77051V15.5947V2.77029V1.77029ZM22.2591 5.18451L31.6693 14.5947H22.2591V5.18451Z" fill="#DB0812"/>
<path d="M6.30766 27.1109L7.64073 29.795L8.97379 27.1109H11.2142L8.94019 31.1149L11.2759 35.1854H9.013L7.64073 32.4514L6.26845 35.1854H4L6.34127 31.1149L4.06161 27.1109H6.30766Z" fill="#DB0812"/>
<path d="M17.3139 33.6881V35.1854H13.1914V33.6881H17.3139ZM13.8916 27.1109V35.1854H11.9256V27.1109H13.8916Z" fill="#DB0812"/>
<path d="M22.3437 33.0392C22.3437 32.9135 22.325 32.8008 22.2877 32.7009C22.2503 32.5974 22.1812 32.5013 22.0804 32.4126C21.9796 32.3238 21.834 32.2351 21.6435 32.1464C21.4568 32.0539 21.2104 31.9578 20.9042 31.858C20.5457 31.7397 20.2003 31.6066 19.868 31.4587C19.5356 31.3071 19.2388 31.1315 18.9774 30.9319C18.716 30.7285 18.5088 30.4919 18.3557 30.222C18.2026 29.9484 18.126 29.6305 18.126 29.2682C18.126 28.9206 18.2044 28.6082 18.3613 28.331C18.5181 28.05 18.7365 27.8115 19.0166 27.6156C19.3004 27.4159 19.6327 27.2643 20.0136 27.1608C20.3945 27.0536 20.8108 27 21.2627 27C21.8601 27 22.3866 27.1035 22.8422 27.3106C23.3015 27.5139 23.6599 27.8041 23.9176 28.1812C24.179 28.5546 24.3097 28.9964 24.3097 29.5066H22.3549C22.3549 29.3033 22.3119 29.124 22.226 28.9687C22.1439 28.8134 22.0188 28.6914 21.8508 28.6027C21.6827 28.514 21.4718 28.4696 21.2178 28.4696C20.9714 28.4696 20.7642 28.5066 20.5961 28.5805C20.4281 28.6545 20.3011 28.7543 20.2152 28.88C20.1294 29.002 20.0864 29.1369 20.0864 29.2848C20.0864 29.4068 20.12 29.5177 20.1872 29.6175C20.2582 29.7137 20.3571 29.8043 20.4841 29.8893C20.6148 29.9743 20.7716 30.0557 20.9546 30.1333C21.1413 30.2109 21.3504 30.2867 21.5819 30.3607C22.0151 30.4975 22.3997 30.6509 22.7357 30.821C23.0755 30.9873 23.3612 31.1777 23.5927 31.3922C23.828 31.6029 24.0053 31.8432 24.1248 32.1131C24.2481 32.383 24.3097 32.688 24.3097 33.0281C24.3097 33.3904 24.2387 33.7121 24.0968 33.9931C23.9549 34.274 23.7514 34.5125 23.4863 34.7085C23.2212 34.9007 22.9038 35.0467 22.5341 35.1466C22.1644 35.2464 21.7518 35.2963 21.2963 35.2963C20.878 35.2963 20.4654 35.2445 20.0584 35.141C19.6551 35.0338 19.2892 34.8711 18.9606 34.653C18.632 34.4312 18.3687 34.1483 18.1708 33.8045C17.9767 33.457 17.8796 33.0448 17.8796 32.5678H19.8512C19.8512 32.8044 19.8829 33.0041 19.9464 33.1668C20.0099 33.3294 20.1032 33.4607 20.2264 33.5605C20.3497 33.6566 20.5009 33.7269 20.6801 33.7712C20.8594 33.8119 21.0647 33.8322 21.2963 33.8322C21.5464 33.8322 21.7481 33.7971 21.9012 33.7269C22.0543 33.6529 22.1663 33.5568 22.2372 33.4385C22.3082 33.3165 22.3437 33.1834 22.3437 33.0392Z" fill="#DB0812"/>
<path d="M27.0318 27.1109L28.3649 29.795L29.6979 27.1109H31.9384L29.6643 31.1149L32 35.1854H29.7371L28.3649 32.4514L26.9926 35.1854H24.7241L27.0654 31.1149L24.7858 27.1109H27.0318Z" fill="#DB0812"/>
</g>
<defs>
<clipPath id="clip0_15584_94835">
<rect width="40" height="40" fill="white"/>
</clipPath>
</defs>
</svg>
