<?xml version="1.0" encoding="UTF-8"?>
<svg width="24" height="24" version="1.1" viewBox="0 0 24 24" xmlns="http://www.w3.org/2000/svg"><path d="m3 1v9h2v-7h7v7h7v11h-16v2h18v-14.414l-7.5859-7.5859h-10.414zm11 3.4141 3.5859 3.5859h-3.5859v-3.5859zm-2.6445 8.7637c-0.35654 0-0.67927 0.067709-0.9668 0.20312-0.28523 0.13542-0.50409 0.32422-0.6582 0.56641-0.15182 0.23958-0.22852 0.51302-0.22852 0.82031 0 0.59115 0.28501 1.0612 0.85547 1.4102 0.20932 0.1276 0.49468 0.25781 0.85352 0.39062 0.35884 0.13021 0.60612 0.25521 0.74414 0.375 0.13802 0.11719 0.20703 0.28646 0.20703 0.50781 0 0.20312-0.069016 0.36198-0.20703 0.47656-0.13802 0.11198-0.33004 0.16797-0.57617 0.16797-0.66247 0-0.99219-0.3138-0.99219-0.94141h-1.0391c0 0.36719 0.082429 0.6901 0.24805 0.96875 0.16792 0.27865 0.41108 0.4987 0.72852 0.66016 0.31743 0.15885 0.66824 0.23828 1.0547 0.23828 0.55666 0 1.0011-0.13932 1.3301-0.41797 0.32894-0.28125 0.49219-0.66797 0.49219-1.1602 0-0.44271-0.13517-0.8125-0.4043-1.1094-0.26913-0.29688-0.69629-0.54557-1.2852-0.74609-0.31974-0.10938-0.5629-0.22656-0.72852-0.35156-0.16332-0.125-0.24609-0.27995-0.24609-0.46484 0-0.19792 0.070623-0.35677 0.21094-0.47656 0.14032-0.1224 0.33682-0.18359 0.58984-0.18359 0.26223 0 0.46641 0.072917 0.61133 0.21875 0.14492 0.14323 0.2168 0.34505 0.2168 0.60547h1.0352c0-0.34115-0.077958-0.64583-0.23438-0.91406-0.15412-0.26823-0.37171-0.47526-0.65234-0.62109-0.28063-0.14844-0.60014-0.22266-0.95898-0.22266zm-10.447 0.078125 1.4629 2.8203-1.502 2.8672h1.2051l0.9668-1.9922 0.96484 1.9922h1.2051l-1.502-2.8672 1.4629-2.8203h-1.1895l-0.94141 1.9609-0.94336-1.9609h-1.1895zm4.8223 0v5.6875h3.2344v-0.94141h-2.1992v-4.7461h-1.0352zm7.8359 0 1.4629 2.8203-1.5 2.8672h1.2051l0.96484-1.9922 0.9668 1.9922h1.2031l-1.5-2.8672 1.4629-2.8203h-1.1914l-0.94141 1.9609-0.94141-1.9609h-1.1914z"/></svg>
