<?xml version="1.0" encoding="UTF-8"?>
<svg width="24" height="24" version="1.1" viewBox="0 0 24 24" xmlns="http://www.w3.org/2000/svg"><path d="m3 1v9h2v-7h7v7h7v11h-16v2h18v-14.414c-2.6275-2.6275-5.3312-5.3312-7.5859-7.5859h-10.414zm11 3.4141 3.5859 3.5859h-3.5859v-3.5859zm-10.758 8.8984v1.0586h2.7266l-2.7109 3.9062v0.72266h4.4297v-1.0547h-2.7188l2.6914-3.9297v-0.70312h-4.418zm5.1641 0v5.6875h1.3672v-5.6875h-1.3672zm2.3203 0v5.6875h1.3711v-1.9297h0.875c0.6927 0 1.2369-0.16539 1.6328-0.49609 0.3984-0.3333 0.59766-0.77733 0.59766-1.332 0-0.375-0.092444-0.70961-0.27734-1.0039-0.1823-0.2969-0.44134-0.52479-0.77734-0.68359-0.3333-0.1615-0.71744-0.24219-1.1523-0.24219h-2.2695zm1.3711 1.0586h0.91406c0.2474 0.0026 0.44264 0.083287 0.58594 0.24219 0.1432 0.1588 0.21484 0.37112 0.21484 0.63672 0 0.2422-0.070337 0.4297-0.21094 0.5625-0.1381 0.1328-0.33987 0.19922-0.60547 0.19922h-0.89844v-1.6406z"/></svg>
