<?xml version="1.0" encoding="UTF-8"?>
<svg width="40" height="40" version="1.1" viewBox="0 0 40 40" xmlns="http://www.w3.org/2000/svg"><path d="m4 1v15h2v-13h15v13h13v21h-30v2h32v-24l-14-14h-18zm19 3.8281 9.1719 9.1719h-9.1719v-9.1719zm-18.906 17.771v1.7539h5.1895l-5.1973 7.4844v1.2695h8.0039v-1.7383h-5.2969l5.1816-7.5273v-1.2422h-7.8809zm9.498 0v10.508h2.1641v-10.508h-2.1641zm4.1719 0v10.508h2.1641v-3.7012h1.8984c1.2462 0 2.2214-0.29687 2.9238-0.88867 0.70728-0.59662 1.0605-1.4098 1.0605-2.4395 0-0.67841-0.16201-1.2813-0.48438-1.8105-0.32236-0.53407-0.78334-0.94569-1.3848-1.2344-0.59662-0.28868-1.2891-0.43359-2.0781-0.43359h-4.0996zm2.1641 1.7539h1.9844c0.53407 0.009622 0.95274 0.17268 1.2559 0.49023 0.30312 0.31755 0.45508 0.73518 0.45508 1.25 0 0.50039-0.15196 0.88486-0.45508 1.1543-0.29831 0.26944-0.73213 0.4043-1.3047 0.4043h-1.9355v-3.2988z"/></svg>
