<?xml version="1.0" encoding="UTF-8"?>
<svg width="60" height="60" version="1.1" viewBox="0 0 60 60" xmlns="http://www.w3.org/2000/svg"><path d="m29.841 6c-0.78004 11.17-2.6769 12.216-5.193 16.439-0.93704 1.5727-1.7576 4.1142-1.7576 4.1142-0.496-5.3207-2.1449-8.0357-4.3362-9.5248-0.75753 5.8088-3.2509 10.021-5.0356 13.617l14.374 3.985c1.0055-1.1111 2.0899-2.0547 3.3518-2.9393 0 0 0.01795 1.8827 0.12554 3.9047l17.253 4.7839c0.29267-4.0621-0.76576-9.0555-4.4976-14.955-1.1954 2.8368-1.8526 5.7177-4.9738 8.3969 2.3009-12.341 0.43554-22.318-9.31-27.822zm-22.008 24.631-0.83296 2.8962 45.169 12.525 0.83096-2.8962zm3.7603 5.7317c-1.483 10.83 2.2535 14.312 6.4504 17.638-2.3502-5.5294-2.7502-11.11-0.4384-15.971zm7.118 1.9719c0.5384 4.5346 3.0947 7.7702 3.0947 7.7702 0.91998-2.4935 1.7704-4.4857 2.6164-6.186zm13.953 3.8695c1.3819 3.7374 2.8262 6.3532 2.3414 10.104 2.0472-1.1317 3.5429-3.1923 4.3999-6.329 1.8357 3.1419 1.6184 5.0733 1.8492 7.2689 0.82199-0.44845 3.9396-2.8375 5.8606-7.0359z" fill="#6d6d6d"/></svg>