<?xml version="1.0" encoding="UTF-8"?>
<svg width="60" height="60" version="1.1" viewBox="0 0 60 60" xmlns="http://www.w3.org/2000/svg"><path d="m46.572 6.0039c-1.3516 0.046403-2.5447 0.50963-3.4219 1.3223-0.8772 0.81263-1.4162 1.9358-1.4297 3.1348-0.013515 1.1976 0.56905 2.4498 1.5898 3.2539 0.001151 9.07e-4 8.01e-4 3e-3 0.001953 0.003906l5.9023 4.8203c0.49821 0.40937 0.78516 1.0113 0.78516 1.6602v28.674c0 0.66503-0.4834 1.1445-1.1309 1.1445h-37.738c-0.64749 0-1.1309-0.47949-1.1309-1.1445v-11.227h-4v11.227c0 2.8119 2.317 5.1445 5.1309 5.1445h37.738c2.8138 0 5.1309-2.3326 5.1309-5.1445v-28.674c0-1.8423-0.82776-3.5889-2.248-4.7539l-0.001953-0.001953-5.9492-4.8574-0.015625-0.011719c-0.1232-0.096828-0.064661-0.04989-0.064453-0.06836 2.09e-4 -0.018469 0.015205-0.12267 0.14844-0.24609 0.26646-0.24685 1.0964-0.73284 3.1055 0.40234l1.9688-3.4824c-1.5098-0.85307-3.0195-1.2222-4.3711-1.1758zm-16.559 9.1836-1.082 3.8516c2.2191 0.62365 2.4734 1.5637 2.4883 1.9336 0.007448 0.18496-0.058103 0.26682-0.06836 0.27734-0.010255 0.010529 0.071671 0.016841-0.082031-0.001953l-0.019531-0.001953-7.6289-0.78516c-1.8275-0.1873-3.652 0.4585-4.9531 1.7656l-10.959 11.012 2.8359 2.8223 10.959-11.012c0.45029-0.45154 1.0732-0.67453 1.709-0.60938l7.5703 0.7793c1.292 0.15798 2.5961-0.31783 3.4336-1.1777 0.83753-0.85991 1.2473-2.0363 1.1992-3.2305-0.096169-2.3883-2.0648-4.685-5.4023-5.623z" fill="#6d6d6d"/></svg>