<?xml version="1.0" encoding="UTF-8"?>
<svg width="60" height="60" version="1.1" viewBox="0 0 60 60" xmlns="http://www.w3.org/2000/svg"><circle cx="30" cy="30" r="24" fill="#6d6d6d"/><path d="m28 15c-8.2842 0-15 6.7158-15 15 0 8.2842 6.7158 15 15 15 4.9806 0 9.3812-2.4374 12.109-6.1738-2.1367 1.9643-4.9781 3.1738-8.1094 3.1738-6.6274 0-12-5.3726-12-12 0-6.6274 5.3726-12 12-12 3.1312 0 5.9727 1.2095 8.1094 3.1738-2.7281-3.7364-7.1287-6.1738-12.109-6.1738zm15.348 8.0664v5.7031l-5.3477 1.7637 5.3477 1.7637v5.7031l3.3047-4.6152 5.3477 1.7637-3.3047-4.6152 3.3047-4.6152-5.3477 1.7637-3.3047-4.6152z" fill="#fff"/></svg>