<?xml version="1.0" encoding="UTF-8"?>
<svg width="60" height="60" version="1.1" viewBox="0 0 60 60" xmlns="http://www.w3.org/2000/svg"><path d="m30.893 0c-7.7211 0-15.126 3.0952-20.584 8.6035-5.4581 5.5084-8.5234 12.98-8.5234 20.768 0 6.2914 2.002 12.373 5.6484 17.383h-4.373l-3.0605 12.955h4.4062l1.0605-4.5488h1.5508c1.8565 0 2.1016 0.5453 2.1016 2.0918 0 0.52763-0.060547 1.0564-0.060547 1.584 0 0.36388 0.039492 0.60014 0.12109 0.87305h4.3457c-0.20401-0.49124-0.18359-1.0374-0.18359-1.5469 0-0.43666 0.001074-0.1079 0.021484-1.709 0.02041-1.2372-0.18481-2.2015-1.5312-2.7109 0.73797-0.081486 1.3634-0.32202 1.8711-0.67383 0.68135 0.50315 1.3825 0.97425 2.1016 1.4141-0.087546 0.41266-0.13672 0.84433-0.13672 1.2969 0 2.9838 2.2648 4.2207 5.2637 4.2207 2.0126 0 3.6412-0.64955 4.7441-1.7441 0.83727 0.15397 1.683 0.27589 2.5352 0.35547l-0.26172 1.0977h4.4258l0.25-1.0254c1.4677-0.088314 2.9177-0.29084 4.3418-0.59766l-0.38867 1.623h4.4473l0.73633-3.0996c0.63177-0.25667 1.2546-0.53509 1.8672-0.83594 0.11902 3.0509 2.9535 4.1895 6.1484 4.1895 3.2029 0 6.5898-1.255 6.5898-4.5117 0-2.8747-2.7134-3.4387-5.2227-4.0391-0.31629-0.075783-0.56557-0.14406-0.7793-0.21289 0.37871-0.34396 0.74928-0.69711 1.1113-1.0625 0.1967-0.19851 0.38377-0.40585 0.57422-0.60938 0.50414 0.17765 0.78027 0.54186 0.88867 1.1582h4.1406v-0.10938c0-1.8387-0.96869-3.0847-2.8359-3.6777 3.7136-5.0371 5.7559-11.175 5.7559-17.527 0-7.7878-3.0654-15.259-8.5234-20.768-5.4581-5.5084-12.863-8.6035-20.584-8.6035zm0 1.2305c7.3924 1e-7 14.482 2.9632 19.711 8.2402 5.2288 5.277 8.166 12.435 8.166 19.9 0 6.2474-2.0645 12.275-5.8008 17.17-0.30232-0.09186-0.60583-0.18115-0.90625-0.27734 3.7509-4.7868 5.8262-10.729 5.8262-16.893 0-7.2252-2.8435-14.156-7.9062-19.266-5.0627-5.1094-11.929-7.9785-19.09-7.9785-6.8798 0-13.484 2.6549-18.482 7.3945-0.12134-0.29579-0.2344-0.59642-0.35156-0.89453 5.1308-4.7472 11.846-7.3965 18.834-7.3965zm0 1.2031c5.9575 0 11.705 2.0175 16.361 5.666-0.2488 0.040358-0.48703 0.08509-0.73242 0.12695-3.5096-1.6167-7.322-2.4663-11.189-2.4688-7.1604 0-14.029 2.8711-19.092 7.9805-0.42855 0.43249-0.8341 0.88219-1.2305 1.3398-0.89712-1.7058-1.7231-3.4574-2.4707-5.2539 4.951-4.7353 11.515-7.3906 18.354-7.3906zm4.4375 3.6328h0.001953c3.6759 0.00231 7.3041 0.77181 10.662 2.252-13.95 2.4653-22.328 7.3696-27.244 12.967-1.2911-1.901-2.4949-3.8708-3.584-5.916 0.41542-0.48393 0.84139-0.95832 1.293-1.4141 5.0054-5.0515 11.793-7.8886 18.871-7.8887zm11.975 2.0723c0.85758 0.67527 1.6818 1.3992 2.459 2.1836 5.0054 5.0516 7.8184 11.904 7.8184 19.049 0 6.1316-2.0768 12.044-5.8281 16.791-2.1213-0.69131-4.1929-1.4933-6.2109-2.3945 4.7588-5.0564 7.4277-11.765 7.4277-18.756-1.23e-4 -5.8392-1.8604-11.525-5.3047-16.217a0.15375 0.15375 0 0 0-0.052735-0.044922c-0.0879-0.045397-0.17924-0.084513-0.26758-0.12891-0.01481-0.15365-0.039337-0.46797-0.041015-0.48242zm-35.486 0.7207c0.11756 0.29742 0.23376 0.5955 0.35547 0.89062-0.12308 0.11959-0.25005 0.23331-0.37109 0.35547-5.0627 5.1094-7.9082 12.04-7.9082 19.266 0 6.3766 2.2182 12.521 6.2187 17.389-0.12788-0.001366-0.25518-0.00586-0.38281-0.00586h-0.75c-3.8401-4.9323-5.9668-11.044-5.9668-17.383 0-7.465 2.9392-14.623 8.168-19.9 0.20743-0.20934 0.42353-0.40931 0.63672-0.61133zm35.559 0.11719c0.02081 0.010644 0.043663 0.020549 0.064453 0.03125 3.3914 4.6336 5.2206 10.242 5.2207 16.004 1e-6 6.9496-2.666 13.617-7.418 18.625-2.1669-0.98109-4.2643-2.0895-6.2949-3.2988 9.5062-10.916 8.7229-27.718 8.4277-31.361zm-35.074 1.0762c0.75491 1.8047 1.587 3.5641 2.4922 5.2773-4.1507 4.9121-6.4609 11.17-6.4609 17.672a0.15375 0.15375 0 0 0 0 0.001953c0.020774 4.9219 1.366 9.7261 3.8613 13.916-0.53199-0.08902-1.0929-0.13854-1.6699-0.1543-4.0627-4.8449-6.3223-10.999-6.3223-17.395 0-7.1445 2.811-13.997 7.8164-19.049 0.09179-0.09263 0.19022-0.17839 0.2832-0.26953zm31.887 1.8867s-4.187 4.2482-10.477 12.223c0.52609 0.19503 4.2841 1.4843 8.9961 0.044922-4.5009 2.3834-8.8376 1.3489-9.8516 1.0527-1.5664 2.0096-3.2483 4.2403-5.0215 6.6777 1.1001 0.49666 4.5328 1.7822 9.9512 1.1582-2.8446 0.96011-5.8897 0.85146-8.0859 0.55469-0.96941-0.84387-1.9068-1.7238-2.8242-2.625 0.1719-0.22648 0.35095-0.47465 0.52148-0.69727-0.57219-0.76804-2.732-4.2252-0.7168-10.434 0.08726 1.4063 0.042591 2.1873 0.019531 3.0547-0.1177 4.4275 1.2641 6.0583 1.5098 6.3164 2.1353-2.744 4.1794-5.1852 6.2285-7.4766-0.43533-0.5906-2.2482-3.4356-0.93359-8.3633 0.14787 1.3758 0.066994 2.9407 0.38281 4.1875 0.4175 1.6482 1.3837 2.6994 1.6445 2.9629 2.759-3.0073 5.562-5.7772 8.6562-8.6367zm-29.24 3.6816c1.092 2.0415 2.2993 4.0082 3.5918 5.9062-8.1921 9.5522-6.4965 20.898-5.2734 25.66-0.211-0.078882-0.43175-0.14828-0.66406-0.20117-2.556-4.1951-3.9419-9.0283-3.9629-13.984 1.845e-4 -6.388 2.2545-12.539 6.3086-17.381zm4.3262 13.906c0.7054 4.3731 2.4628 6.9216 3.0625 7.6953 1.5192-2.151 2.9546-4.1026 4.3516-5.9492 0.79849 0.7835 1.6134 1.5486 2.4512 2.2891-0.97041-0.15472-1.7479-0.33049-2.166-0.43945-1.3546 1.8842-2.7505 3.8706-4.1875 5.9883 0.461 0.17293 4.0238 1.4098 10.568 0.5293-4.2982 1.6593-10.652 1.0246-11.547 0.92578-1.9293 2.8823-3.9144 5.9607-5.9277 9.2402 5.1542-0.01116 13.72-2.1742 17.805-4.8574 1.9416-1.2753 3.6065-2.7599 5.0488-4.377 2.0275 1.2104 4.1201 2.3209 6.2832 3.3047-0.05858 0.06025-0.11268 0.1219-0.17188 0.18164-0.97555 0.98454-2.0212 1.8836-3.1211 2.6953h-2.0449l-0.38477 1.5898c-1.5034 0.87427-3.0845 1.5988-4.7246 2.1621l0.90625-3.752h-4.4473l-1.166 4.9043c-1.0883 0.16184-2.1903 0.25063-3.3008 0.27539-0.898-1.2564-2.5857-1.8496-4.5703-1.8496-1.3111 0-2.4565 0.27769-3.4043 0.76758-1.1655-0.34653-2.3074-0.78024-3.4199-1.2852-0.056089-0.47271-0.19277-0.86156-0.38672-1.1895 2.4025-3.6576 4.6256-6.9612 6.6855-9.9102-0.65042-1.2658-2.4684-5.153-2.1914-8.9395zm22.426 1.1426c0.02377 1.23e-4 0.047905 0.006568 0.072266 0.017578 0.062319 0.02821 0.095086 0.073159 0.097656 0.13477 0.0031 0.06045-0.017424 0.13784-0.058594 0.23047l-0.039062 0.085938 0.85352 0.38672c0.07252 0.03282 0.13018 0.056932 0.17188 0.070312 0.04106 0.01172 0.078693 0.012413 0.11328 0.001953 0.03395-0.0121 0.061635-0.04344 0.083985-0.09375 0.0122-0.02744 0.025339-0.068149 0.037109-0.11914 0.01064-0.0515 0.021513-0.088935 0.033203-0.11524 0.01677-0.03774 0.046034-0.064188 0.089844-0.080078 0.04319-0.01754 0.088621-0.018057 0.13281 0.001953 0.074791 0.03385 0.11217 0.10089 0.11524 0.20117 3e-3 0.10029-0.029056 0.22843-0.097656 0.38281-0.06506 0.14638-0.13844 0.24541-0.2207 0.29883-0.082271 0.05342-0.17274 0.073564-0.26953 0.058593-0.09628-0.016109-0.21547-0.055958-0.35938-0.12109l-0.89062-0.4043-0.027344 0.0625c-0.029989 0.06747-0.069697 0.11172-0.11719 0.13281-0.04748 0.02109-0.095807 0.020027-0.14453-0.001953-0.04872-0.02205-0.07942-0.058922-0.09375-0.10938-0.01495-0.0521-0.00605-0.11269 0.02539-0.18359l0.021485-0.050781-0.27734-0.12695c-0.07479-0.03385-0.13343-0.061574-0.17383-0.083984-0.04102-0.02407-0.073253-0.051835-0.095703-0.083985-0.02359-0.03265-0.036996-0.072216-0.041016-0.11523-0.0051-0.04354 0.002665-0.084643 0.021484-0.12695 0.02643-0.05947 0.07119-0.10479 0.13672-0.13281 0.04369-0.01868 0.090102-0.021245 0.13672-0.009765 0.04599 0.0099 0.10736 0.032959 0.18555 0.068359l0.31641 0.14258 0.076172-0.17188c0.02948-0.06633 0.068256-0.10896 0.11523-0.12891 0.02317-0.0108 0.046543-0.017688 0.070313-0.017578zm-0.34766 1.3887c0.07958-0.0036 0.14485 0.008399 0.19726 0.037109 0.05351 0.02924 0.088257 0.075652 0.10352 0.13672 0.01584 0.05997 0.009256 0.11847-0.021485 0.17578-0.02011 0.03748-0.045954 0.062925-0.078124 0.078125-0.03266 0.0135-0.079524 0.02366-0.13867 0.03125-0.11256 0.0098-0.20528 0.034326-0.2793 0.072266-0.07344 0.03684-0.13587 0.10078-0.18555 0.19336-0.07155 0.13336-0.077568 0.26995-0.017578 0.4082 0.0589 0.13765 0.17832 0.25564 0.35742 0.35352 0.08409 0.04595 0.16778 0.077843 0.25 0.095703 0.08113 0.01725 0.15699 0.020012 0.22852 0.007813 0.07043-0.01282 0.13504-0.040152 0.19141-0.082032 0.05528-0.04249 0.10065-0.098793 0.13672-0.16602 0.04849-0.09038 0.067747-0.17902 0.060547-0.26562-0.0067-0.08771-0.039096-0.17925-0.097656-0.27539-0.03545-0.055-0.057119-0.10487-0.068359-0.15234-0.01125-0.04748-0.005369-0.094333 0.019531-0.14062 0.02956-0.05511 0.073758-0.089827 0.13476-0.10352 0.06101-0.01369 0.11515-0.008122 0.16211 0.017578 0.05569 0.03044 0.10734 0.079659 0.15234 0.14844 0.0456 0.06768 0.078979 0.15284 0.099609 0.25391 0.02013 0.09936 0.019327 0.21019-0.001953 0.33398-0.02123 0.1238-0.068304 0.25166-0.13867 0.38281-0.14961 0.27884-0.34534 0.45271-0.58984 0.52148-0.24559 0.06817-0.50456 0.028862-0.77539-0.11914-0.18346-0.10026-0.3253-0.22638-0.42774-0.375-0.10244-0.14862-0.15645-0.31095-0.16016-0.48828-0.0048-0.17793 0.043417-0.36037 0.14453-0.54883 0.06268-0.11682 0.13676-0.21448 0.22266-0.29297 0.08649-0.07959 0.17409-0.13975 0.26367-0.17773 0.09017-0.03908 0.17578-0.058697 0.25586-0.060547zm-1.2871 1.7207c0.06044-0.0018 0.12723 0.022076 0.20117 0.072265l1.2227 0.83008c0.08038 0.05456 0.12734 0.11302 0.14258 0.17773 0.01593 0.06368 0.005627 0.12536-0.033203 0.18359-0.03881 0.05824-0.091347 0.093006-0.1582 0.10352-0.0672 0.0087-0.13962-0.013393-0.21484-0.064453l-0.054687-0.037109c0.02993 0.09433 0.048828 0.18595 0.054687 0.27148 0.005801 0.08553-0.003643 0.1675-0.027343 0.24805-0.02272 0.08125-0.062308 0.16472-0.11914 0.25-0.06861 0.10296-0.15105 0.18089-0.24805 0.23438-0.09631 0.05245-0.19678 0.075953-0.30078 0.070313-0.125-0.0078-0.27148-0.067634-0.43945-0.18164l-0.83594-0.56836c-0.0845-0.05735-0.13481-0.11909-0.15039-0.18555-0.01661-0.06716-0.003188-0.13187 0.039062-0.19531 0.04297-0.06448 0.099376-0.10244 0.16797-0.11328 0.06859-0.01084 0.14309 0.011699 0.22656 0.068359l0.67578 0.45898c0.0979 0.06644 0.1856 0.11376 0.26367 0.14258 0.07704 0.02813 0.15025 0.032385 0.2168 0.015625 0.066201-0.0185 0.12267-0.06288 0.17188-0.13672 0.04782-0.07176 0.072235-0.15398 0.072265-0.24609 2.5e-5 -0.09212-0.023657-0.17667-0.072265-0.25195-0.04383-0.06449-0.16716-0.16565-0.36914-0.30273l-0.51367-0.34766c-0.08347-0.05665-0.13252-0.1193-0.14844-0.1875-0.01591-0.0682-0.003248-0.13382 0.039062-0.19727 0.04228-0.06344 0.098114-0.099573 0.16602-0.10938 0.0083-0.0013 0.01677-0.001653 0.02539-0.001953zm-1.8066 1.2715c0.06423-0.0018 0.13329 0.028404 0.20703 0.089844l1.7305 1.4414c0.07469 0.06224 0.11612 0.12745 0.125 0.19336 0.0088 0.06592-0.009598 0.12655-0.054688 0.18164-0.04428 0.05412-0.10041 0.082088-0.16797 0.085938-0.06772 0.0021-0.13716-0.026098-0.20898-0.085938l-0.039063-0.033203c0.01685 0.10342 0.023922 0.19714 0.019532 0.28125-0.0046 0.08235-0.022075 0.16144-0.052735 0.23828-0.02891 0.07668-0.072346 0.15114-0.13086 0.22266-0.07748 0.09471-0.16971 0.16638-0.27539 0.21484-0.10585 0.0467-0.21982 0.068887-0.3418 0.066407-0.12197-0.0025-0.2462-0.029972-0.37109-0.082032-0.12411-0.05303-0.2435-0.12806-0.35938-0.22461-0.24516-0.20428-0.38572-0.42329-0.42383-0.6582-0.03811-0.23492 0.022304-0.45128 0.18359-0.64844 0.0933-0.11404 0.19162-0.19271 0.29492-0.23828 0.10235-0.04637 0.22391-0.074641 0.36524-0.082031l-0.57812-0.48242c-0.08044-0.06703-0.12749-0.13301-0.14258-0.19922-0.014299-0.06717 0.001772-0.12953 0.050782-0.18945 0.04902-0.05992 0.10552-0.091817 0.16992-0.091797zm0.57617 1.252c-0.0477-7.44e-4 -0.092971 0.006432-0.13672 0.019532-0.08766 0.02447-0.15987 0.071044-0.2168 0.14062-0.0593 0.07248-0.092196 0.15476-0.097656 0.24609-0.0065 0.09053 0.015886 0.18357 0.066406 0.2793 0.05035 0.09397 0.12601 0.18379 0.22656 0.26758 0.1063 0.08858 0.21092 0.1464 0.3125 0.17578 0.10237 0.02842 0.1955 0.029936 0.28125 0.003906 0.08479-0.02687 0.15675-0.073964 0.21289-0.14258 0.05693-0.06958 0.090355-0.14783 0.10156-0.23438 0.011048-0.08831-0.006645-0.18012-0.052735-0.27539-0.04623-0.09704-0.12524-0.19259-0.23633-0.28516-0.10438-0.08698-0.20739-0.14443-0.31055-0.17188-0.05167-0.0146-0.10269-0.022688-0.15039-0.023438zm-1.334 1.1543c0.12821 0.0017 0.25486 0.032294 0.37695 0.089844 0.12297 0.05666 0.23764 0.1391 0.3457 0.24805 0.10719 0.10807 0.18895 0.22468 0.24609 0.34961 0.05714 0.12493 0.086061 0.25147 0.087891 0.38086 0.0018 0.12939-0.023552 0.25676-0.076172 0.38086-0.05351 0.12321-0.13443 0.24073-0.24414 0.35156-0.10884 0.10995-0.22367 0.18984-0.3457 0.24219-0.07003 0.03004-0.1425 0.05-0.21484 0.0625-0.38828-0.24373-0.7736-0.49032-1.1562-0.74219-0.03856-0.10264-0.064916-0.20608-0.066406-0.31055-0.0018-0.12762 0.025698-0.25481 0.080078-0.37891 0.05351-0.12498 0.13316-0.24144 0.24024-0.34961 0.10883-0.10995 0.22582-0.19197 0.34961-0.24609 0.12379-0.05412 0.24874-0.079825 0.37695-0.078125zm-0.13281 0.45117c-0.12352-0.0015-0.2329 0.046376-0.32812 0.14258-0.07022 0.07094-0.11227 0.1509-0.12891 0.24219-0.01752 0.09041-0.00508 0.1861 0.03711 0.28711 0.0422 0.10101 0.11019 0.19926 0.20508 0.29492 0.09401 0.09478 0.19069 0.16454 0.28906 0.20703 0.09925 0.04161 0.19276 0.054183 0.2832 0.039063 0.090441-0.01688 0.17217-0.062061 0.24414-0.13477 0.10883-0.10995 0.15436-0.23766 0.13672-0.38477-0.01764-0.14888-0.099181-0.2972-0.24414-0.44336-0.14672-0.14793-0.2928-0.22933-0.43945-0.24609-0.01822-0.0022-0.037037-0.003706-0.054687-0.003906zm-1.1914 0.64062v0.001953c0.07327-0.0016 0.13074 0.021646 0.17383 0.072266 0.03015 0.03542 0.042665 0.076849 0.046876 0.11914-0.09424-0.06234-0.19126-0.12076-0.28516-0.18359 0.02211-0.0043 0.044563-0.009366 0.064453-0.009766zm-0.38086 0.16992c0.13574 0.09138 0.27369 0.17722 0.41016 0.26758-0.0667 0.02796-0.11973 0.060663-0.16016 0.095703-0.05653 0.049-0.089699 0.10456-0.099609 0.16602-0.01071 0.06051-0.001089 0.12703 0.029296 0.20312 0.030381 0.0761 0.076613 0.15975 0.13867 0.24805 0.06124 0.08735 0.1407 0.1897 0.24024 0.30664l0.27734 0.32422c0.067161 0.07891 0.098464 0.15478 0.095704 0.22656-0.0035 0.07083-0.033314 0.13069-0.089844 0.17969-0.05558 0.04818-0.11772 0.067494-0.1875 0.058594-0.06978-0.0089-0.13872-0.052906-0.20508-0.13086l-0.92188-1.084c-0.14889-0.17494-0.16045-0.31522-0.035157-0.42383 0.06406-0.05554 0.12835-0.074974 0.19141-0.058594 0.06306 0.01638 0.12842 0.063214 0.19922 0.14062-0.021811-0.11988-0.024969-0.22216-0.011719-0.30469 0.01316-0.07727 0.058315-0.14884 0.12891-0.21484zm-1.4707 0.51367c0.02697-5.54e-4 0.055121 0.001298 0.082031 0.003906 0.10867 0.01 0.21104 0.043597 0.30664 0.10352 0.0956 0.05992 0.18094 0.1437 0.25781 0.25 0.164 0.22677 0.21952 0.45052 0.16602 0.66992-0.05424 0.21839-0.21834 0.42719-0.49219 0.62891l-0.41016 0.30273 0.45703 0.62891c0.06516 0.0901 0.092435 0.17435 0.083985 0.25195-0.0084 0.0776-0.045172 0.14021-0.10938 0.1875-0.06721 0.0495-0.13686 0.066051-0.21094 0.050781-0.07481-0.01627-0.14456-0.067164-0.20898-0.15625l-1.2402-1.7168c-0.07175-0.09921-0.10033-0.18595-0.085937-0.26172 0.01439-0.07577 0.069664-0.15025 0.16797-0.22266l0.57422-0.42188c0.16953-0.12487 0.3096-0.20908 0.41992-0.25 0.08144-0.03089 0.16127-0.047118 0.24219-0.048828zm-0.10352 0.52148c-0.10742 0.0019-0.24721 0.066654-0.42188 0.19531l-0.30273 0.2207 0.49219 0.68164 0.30078-0.22266c0.10533-0.07758 0.18612-0.15257 0.24023-0.22656 0.05511-0.07473 0.083474-0.15056 0.083984-0.22852 4.92e-4 -0.07796-0.030533-0.15823-0.089843-0.24023-0.07101-0.0982-0.15598-0.1581-0.25781-0.17774-0.01398-0.0023-0.029572-0.002253-0.044922-0.001953zm-2.2871 1.8926c0.12062-3.69e-4 0.22864 0.032995 0.32617 0.10156 0.0595 0.03828 0.11057 0.087858 0.1543 0.14648 0.04373 0.05862 0.094061 0.13778 0.14844 0.23633l0.45898 0.83398c0.04954 0.08979 0.066631 0.16912 0.050781 0.23828-0.01477 0.06855-0.054048 0.12162-0.11914 0.1582-0.06618 0.03719-0.13201 0.043441-0.19922 0.019531s-0.12549-0.080364-0.17383-0.16797l-0.41211-0.74805c-0.08157-0.14782-0.16587-0.24816-0.25-0.30274-0.08364-0.05628-0.18512-0.050722-0.30664 0.017579-0.0792 0.044519-0.13727 0.11055-0.17578 0.19531-0.03912 0.08367-0.052659 0.1751-0.037109 0.27539 0.01516 0.07899 0.07488 0.20972 0.17578 0.39258l0.30859 0.5625c0.05015 0.09088 0.067711 0.17046 0.050781 0.24023-0.01645 0.06807-0.058823 0.12101-0.125 0.1582-0.06402 0.03597-0.1281 0.041488-0.19531 0.017578s-0.12549-0.080364-0.17383-0.16797l-0.71484-1.2949c-0.047129-0.08541-0.064711-0.16032-0.050781-0.22266 0.01333-0.06344 0.053178-0.11246 0.11719-0.14844 0.03905-0.02196 0.079359-0.03217 0.12109-0.03125 0.041741 9.34e-4 0.08211 0.014146 0.12109 0.041016 0.04007 0.02625 0.073916 0.06744 0.10352 0.12109l0.029297 0.052735c0.02072-0.14793 0.065218-0.27108 0.13086-0.37109 0.06612-0.10171 0.15887-0.18622 0.2793-0.25391 0.11718-0.06585 0.2368-0.09924 0.35742-0.09961zm-1.9766 1.0625c0.02075 6.65e-4 0.04201 0.00356 0.0625 0.00586 0.16449 0.01634 0.3061 0.069928 0.42578 0.16211 0.11969 0.09218 0.20823 0.20164 0.26562 0.32812 0.05326 0.11737 0.054516 0.20928 0.003906 0.27539-0.0511 0.06497-0.137 0.1258-0.25781 0.18164l-0.9043 0.41797c0.049219 0.10545 0.11405 0.18788 0.19141 0.25 0.07849 0.0616 0.15973 0.097719 0.24609 0.10742 0.087489 0.0091 0.17343-0.004789 0.25586-0.042969 0.05533-0.02557 0.10115-0.05447 0.14062-0.08789 0.04008-0.03507 0.076921-0.077824 0.10742-0.125 0.02998-0.04832 0.054512-0.095927 0.076172-0.14453 0.02165-0.0486 0.049271-0.114 0.082031-0.19531 0.0144-0.03147 0.04387-0.057775 0.087891-0.078125 0.047419-0.02192 0.091568-0.026312 0.13281-0.013672 0.04125 0.01264 0.07203 0.043937 0.09375 0.091797 0.01914 0.04216 0.026411 0.097815 0.019531 0.16992-0.0074 0.07097-0.033332 0.14922-0.076172 0.23242-0.04222 0.08155-0.10448 0.16156-0.18945 0.24219-0.08385 0.08011-0.19242 0.15092-0.32226 0.21094-0.29695 0.13725-0.56618 0.15919-0.80859 0.064453-0.24241-0.09474-0.42961-0.28918-0.5625-0.58203-0.06257-0.13788-0.10067-0.27596-0.11328-0.41211-0.01313-0.1373 0.001391-0.26443 0.041015-0.38477 0.03965-0.12033 0.10535-0.22902 0.19922-0.32617 0.09335-0.09829 0.20878-0.17995 0.34766-0.24414 0.15808-0.07306 0.30985-0.10816 0.45508-0.10352zm-0.14453 0.38867c-0.0576 0.0025-0.11733 0.018955-0.17773 0.046875-0.11517 0.05324-0.19071 0.1366-0.22852 0.25195-0.03719 0.11368-0.028206 0.25341 0.027344 0.41797l0.83789-0.38672c-0.083691-0.15431-0.18082-0.25464-0.29102-0.29883-0.0548-0.02293-0.11037-0.03375-0.16797-0.03125zm-1.8633 0.45703c0.04204 0.001398 0.08253 0.006121 0.12305 0.013671 0.1628 0.02882 0.29966 0.094285 0.41211 0.19531 0.11245 0.10104 0.19441 0.21716 0.24219 0.34766 0.04433 0.12109 0.037812 0.21332-0.017578 0.27539-0.055821 0.0609-0.14684 0.11368-0.27148 0.16016l-0.93164 0.34766c0.041191 0.1089 0.097425 0.19779 0.16992 0.26562 0.07366 0.0674 0.15289 0.10874 0.23828 0.125 0.08656 0.01582 0.17277 0.008343 0.25781-0.023437 0.05708-0.02128 0.10658-0.047825 0.14844-0.078125 0.0426-0.03192 0.081295-0.070506 0.11523-0.11524 0.03351-0.04589 0.062671-0.091851 0.087891-0.13867 0.02523-0.04682 0.056953-0.10892 0.095703-0.1875 0.01671-0.03028 0.04832-0.053373 0.09375-0.070313 0.04893-0.01824 0.092627-0.019696 0.13281-0.003906 0.04019 0.01575 0.069811 0.048286 0.087891 0.097656 0.01592 0.0435 0.018139 0.1005 0.005859 0.17188-0.0127 0.0702-0.04482 0.1449-0.09375 0.22461-0.0482 0.07809-0.11627 0.15459-0.20703 0.22852-0.0896 0.07349-0.20197 0.1356-0.33594 0.18555-0.30637 0.11424-0.57787 0.11492-0.8125 0.001953-0.23464-0.11293-0.40697-0.32091-0.51758-0.62305-0.05208-0.14225-0.079641-0.28124-0.082031-0.41797-0.0028-0.1379 0.021793-0.26584 0.070313-0.38281 0.04853-0.11697 0.12178-0.22083 0.22266-0.31055 0.10044-0.09089 0.2239-0.16337 0.36719-0.2168 0.13979-0.05212 0.27233-0.076356 0.39844-0.072265zm-3.8652 0.37891c0.03913 0.0015 0.078056 0.004765 0.11523 0.009765 0.14844 0.01898 0.27358 0.055673 0.375 0.11133 0.10142 0.055649 0.18158 0.12024 0.24219 0.19336 0.0606 0.07311 0.098274 0.14125 0.11133 0.20508 0.01406 0.06873 1.4e-5 0.13362-0.041016 0.19336-0.04007 0.05826-0.095474 0.094671-0.16602 0.10938-0.03892 0.0081-0.078888 0.006894-0.11914-0.003906-0.03903-0.01106-0.072405-0.030524-0.10352-0.058594-0.08848-0.09163-0.16148-0.1607-0.21875-0.20508-0.05726-0.04438-0.13021-0.077306-0.2168-0.097656-0.08537-0.0206-0.18892-0.017578-0.31055 0.007813-0.12527 0.026099-0.23279 0.072001-0.32226 0.13672-0.08972 0.06349-0.16138 0.14402-0.21484 0.24219-0.0525 0.09668-0.084566 0.20974-0.097656 0.33789-0.01188 0.12789-0.002557 0.26409 0.027343 0.41016 0.06478 0.31668 0.18682 0.54483 0.36524 0.68555 0.17963 0.14046 0.39841 0.18458 0.65625 0.13086 0.12527-0.0261 0.23912-0.067101 0.3418-0.12305 0.10389-0.0562 0.20608-0.12795 0.30664-0.21289l-0.089844-0.4375-0.41992 0.087891c-0.10095 0.02103-0.18166 0.021743-0.24024 0.001953-0.05736-0.02005-0.092358-0.066974-0.10742-0.14062-0.0123-0.06015-0.001267-0.11396 0.033204-0.16211 0.03574-0.0484 0.08987-0.080243 0.16406-0.095703l0.61523-0.12891c0.0754-0.01571 0.14025-0.022131 0.19531-0.019531 0.05506 0.0026 0.10337 0.024383 0.14453 0.064453 0.04237 0.0398 0.072727 0.10593 0.091797 0.19922l0.10547 0.51758c0.01406 0.06873 0.020465 0.1254 0.015625 0.16992-0.0051 0.0433-0.023025 0.084252-0.052735 0.125-0.02849 0.04049-0.067517 0.082663-0.11719 0.125-0.14368 0.12208-0.28642 0.21934-0.42774 0.29102-0.14131 0.07167-0.30021 0.12537-0.47656 0.16211-0.20554 0.04282-0.39992 0.050084-0.58203 0.021484-0.18211-0.02861-0.34423-0.090818-0.48828-0.1875-0.14405-0.09668-0.26732-0.22513-0.36719-0.38476-0.09865-0.15989-0.1692-0.34697-0.21289-0.56055-0.04293-0.20989-0.05176-0.40848-0.02539-0.5957 0.02638-0.18722 0.088046-0.3534 0.18359-0.5 0.09555-0.1466 0.22316-0.26933 0.38281-0.36914 0.1594-0.10104 0.34944-0.17509 0.56836-0.2207 0.135-0.02813 0.25956-0.039486 0.37695-0.035156zm3.752 0.001953c-0.05762-0.0019-0.11736 0.009933-0.17969 0.033203-0.11882 0.04431-0.20172 0.12224-0.24805 0.23438-0.04559 0.11053-0.045073 0.24965-0.001953 0.41797l0.86328-0.32227c-0.07191-0.16025-0.161-0.26591-0.26758-0.31836-0.05293-0.02703-0.10839-0.043032-0.16602-0.044922zm17.479 0.072265c2.026 0.90891 4.1083 1.7139 6.2383 2.4121-0.023517 0.029027-0.048626 0.056999-0.072266 0.085937-0.086047-0.001491-0.1679-0.005859-0.25586-0.005859-2.9581 0-6.0195 1.2546-6.0195 4.293 0 0.43871 0.080006 0.82212 0.2168 1.1641-0.95061 0.62293-1.9376 1.1852-2.9551 1.6797l1.6367-6.8828h-1.8711c0.99235-0.75586 1.9409-1.5811 2.8301-2.4785 0.08683-0.08763 0.16643-0.17888 0.25195-0.26758zm-18.943 0.060547c0.05351-2e-3 0.10825 0.002302 0.16406 0.013672 0.11163 0.02277 0.17998 0.076811 0.20508 0.16211 0.017679 0.06008 0.010478 0.11583-0.019532 0.16797-0.02917 0.05058-0.067615 0.083397-0.11523 0.097657-0.01786 0.0054-0.063262 0.008812-0.13867 0.007812-0.07458-0.0025-0.13902 0.003931-0.19141 0.019531-0.07143 0.0214-0.12428 0.05737-0.1582 0.10938-0.03428 0.0508-0.053561 0.11724-0.056641 0.19922-0.0031 0.08198 0.006464 0.17702 0.027344 0.2832 0.02052 0.10498 0.052233 0.23112 0.095703 0.37891l0.12109 0.41016c0.02934 0.09973 0.027743 0.18172-0.003907 0.24609-0.03194 0.06317-0.082863 0.10555-0.1543 0.12695-0.07024 0.02104-0.13523 0.013472-0.19531-0.023438-0.06009-0.03691-0.10382-0.1046-0.13281-0.20312l-0.4043-1.3691c-0.06505-0.22107-0.017715-0.35685 0.14062-0.4043 0.08096-0.02426 0.14635-0.01557 0.19726 0.02539 0.05092 0.04096 0.093684 0.11109 0.12695 0.21094 0.02864-0.1184 0.065812-0.21139 0.11133-0.28125 0.0467-0.07021 0.12027-0.12166 0.22266-0.15234 0.05119-0.01534 0.1047-0.023421 0.1582-0.025391zm12.822 4.6875-0.59766 2.4746h-4.2031l0.089844-0.37305c1.6326-0.54753 3.2095-1.2502 4.7109-2.1016zm11.197 0.71875c-0.30716 0.30357-0.62013 0.59901-0.93945 0.88672 0.007759-0.42167 0.36049-0.74404 0.93945-0.88672zm-43.619 0.28125h2.0605c0.58054 0 1.0115 0.073874 1.3203 0.21875 0.052129 0.053421 0.10172 0.10905 0.1543 0.16211 0.11089 0.11191 0.22736 0.21626 0.33984 0.32617 0.050626 0.12443 0.082031 0.26165 0.082031 0.42188 0 1.1098-0.95783 1.5293-2.0391 1.5293h-2.5508l0.63281-2.6582zm8.416 0.16016c0.98795 0.44119 1.9981 0.82229 3.0273 1.1406-0.53753 0.32953-0.99797 0.73581-1.375 1.207-0.60061-0.37546-1.1904-0.77119-1.7617-1.1953 0.077894-0.30881 0.11914-0.63209 0.11914-0.9668 0-0.06549-0.007315-0.12258-0.009766-0.18555zm-0.20312 1.4629c0.54105 0.3982 1.0973 0.77362 1.6641 1.1289-0.17039 0.24173-0.31366 0.50276-0.44141 0.77344-0.55328-0.34619-1.0973-0.70989-1.627-1.0957 0.1686-0.24866 0.30406-0.51916 0.4043-0.80664zm14.801 0.59961-1.0078 4.2363c-0.59312-0.047533-1.1836-0.10837-1.7695-0.19531 0.16084-0.54366 0.24609-1.1298 0.24609-1.75 0-0.79766-0.18223-1.4709-0.50195-2.0332 1.0193-0.029763 2.0325-0.11372 3.0332-0.25781zm15.768 0.25976c0.14316 0.26557 0.32377 0.5027 0.54102 0.71289-1.2682 0.83312-2.5991 1.5573-3.9785 2.1699l0.25976-1.0957c1.0966-0.52022 2.1566-1.1204 3.1777-1.7871zm-23.727 0.33789c1.0404 0 1.4277 0.70995 1.4277 1.5469 0 0.28745-0.034408 0.64731-0.11133 1.0234-1.0541-0.32278-2.0843-0.71689-3.0898-1.168 0.32958-0.76403 0.8826-1.4023 1.7734-1.4023zm25.371 1.1172c0.50343 0.24984 1.0638 0.45233 1.6602 0.61133 2.1421 0.58221 3.2227 0.74644 3.2227 1.6016 0 0.69138-0.73365 1.1289-1.8965 1.1289-1.428 0-2.2031-0.58352-2.2031-1.6934h-3.5039c0.93491-0.49786 1.8418-1.0485 2.7207-1.6484zm-27.256 0.57031c1.0169 0.45548 2.059 0.85583 3.125 1.1816-0.076214 0.28847-0.17607 0.57295-0.31055 0.83984-1.0347-0.31864-2.047-0.7034-3.0371-1.1406 0.046529-0.28798 0.11962-0.58502 0.22266-0.88086zm13.678 0.33203h4.1816l-0.20117 0.8418c-1.4267 0.37406-2.8893 0.6282-4.3711 0.75977l0.39062-1.6016zm3.8984 1.1836-0.23438 0.97461c-1.4247 0.33894-2.88 0.56469-4.3535 0.67383l0.22266-0.91602c1.4793-0.12555 2.9393-0.36791 4.3652-0.73242zm-10.613 0.53711c0.59683 0.08993 1.1985 0.15168 1.8027 0.20117l-0.21094 0.88281c-0.66251-0.057625-1.321-0.1375-1.9746-0.24219 0.15172-0.26534 0.2771-0.5475 0.38281-0.8418zm-7.1973 0.16797c0.70895 0.29772 1.4315 0.56036 2.1621 0.80078-0.23052 0.12691-0.49387 0.20312-0.79688 0.20312-0.753 0-1.2113-0.34368-1.3652-1.0039z" fill="#6d6d6d"/></svg>
