<?xml version="1.0" encoding="UTF-8"?>
<svg width="24" height="24" version="1.1" viewBox="0 0 24 24" xmlns="http://www.w3.org/2000/svg"><path d="m14.656 2c-1.3262 0-2.5992 0.52703-3.5371 1.4648l-7.0684 7.0684c-1.3131 1.3131-2.0508 3.0961-2.0508 4.9531 0 1.857 0.73764 3.6381 2.0508 4.9512 1.3131 1.3131 3.0961 2.0508 4.9531 2.0508 1.857 0 3.6381-0.7377 4.9512-2.0508l7.7754-7.7754-1.4141-1.4141-7.7754 7.7754c-0.93852 0.93852-2.2098 1.4648-3.5371 1.4648-1.3274 0-2.6005-0.5263-3.5391-1.4648-0.93856-0.93852-1.4648-2.2097-1.4648-3.5371 0-1.3274 0.52628-2.6005 1.4648-3.5391l7.0684-7.0684c0.56334-0.56331 1.3265-0.87891 2.123-0.87891 0.79668 0 1.5598 0.31565 2.123 0.87891 0.56331 0.56329 0.88086 1.3264 0.88086 2.123 0 0.79667-0.31756 1.5598-0.88086 2.123l-7.0781 7.0684c-0.18783 0.18788-0.44111 0.29297-0.70703 0.29297-0.26594 0-0.52099-0.10496-0.70898-0.29297-0.18804-0.18805-0.29297-0.44119-0.29297-0.70703 0-0.26522 0.10576-0.51912 0.29297-0.70703v-0.001953l6.3691-6.3574 0.70703-0.70703-1.4141-1.4141-0.70703 0.70508-6.3691 6.3594c-0.56252 0.56255-0.87891 1.3275-0.87891 2.123s0.31638 1.5585 0.87891 2.1211c0.56257 0.5626 1.3275 0.87891 2.123 0.87891 0.79552 0 1.5585-0.31619 2.1211-0.87891l7.0781-7.0684c0.9379-0.93785 1.4668-2.2109 1.4668-3.5371 0-1.3262-0.52891-2.5993-1.4668-3.5371-0.93779-0.93786-2.2108-1.4648-3.5371-1.4648z"/></svg>
