<?xml version="1.0" encoding="UTF-8"?>
<svg width="171" height="133" version="1.1" viewBox="0 0 171 133" xmlns="http://www.w3.org/2000/svg"><g fill="#c5c5c5" fill-opacity=".1"><circle cx="6.5" cy="6.5" r="6.5"/><circle cx="39.5" cy="6.5" r="6.5"/><circle cx="70.5" cy="6.5" r="6.5"/><circle cx="100.5" cy="6.5" r="6.5"/><circle cx="133.5" cy="6.5" r="6.5"/><circle cx="164.5" cy="6.5" r="6.5"/><circle cx="6.5" cy="30.5" r="6.5"/><circle cx="39.5" cy="30.5" r="6.5"/><circle cx="70.5" cy="30.5" r="6.5"/><circle cx="100.5" cy="30.5" r="6.5"/><circle cx="133.5" cy="30.5" r="6.5"/><circle cx="164.5" cy="30.5" r="6.5"/><circle cx="6.5" cy="54.5" r="6.5"/><circle cx="39.5" cy="54.5" r="6.5"/><circle cx="70.5" cy="54.5" r="6.5"/><circle cx="100.5" cy="54.5" r="6.5"/><circle cx="133.5" cy="54.5" r="6.5"/><circle cx="164.5" cy="54.5" r="6.5"/><circle cx="6.5" cy="78.5" r="6.5"/><circle cx="39.5" cy="78.5" r="6.5"/><circle cx="70.5" cy="78.5" r="6.5"/><circle cx="100.5" cy="78.5" r="6.5"/><circle cx="133.5" cy="78.5" r="6.5"/><circle cx="164.5" cy="78.5" r="6.5"/><circle cx="6.5" cy="102.5" r="6.5"/><circle cx="39.5" cy="102.5" r="6.5"/><circle cx="70.5" cy="102.5" r="6.5"/><circle cx="100.5" cy="102.5" r="6.5"/><circle cx="133.5" cy="102.5" r="6.5"/><circle cx="164.5" cy="102.5" r="6.5"/><circle cx="6.5" cy="126.5" r="6.5"/><circle cx="39.5" cy="126.5" r="6.5"/><circle cx="70.5" cy="126.5" r="6.5"/><circle cx="100.5" cy="126.5" r="6.5"/><circle cx="133.5" cy="126.5" r="6.5"/><circle cx="164.5" cy="126.5" r="6.5"/></g></svg>
