<?xml version="1.0" encoding="UTF-8"?>
<svg width="40" height="40" version="1.1" viewBox="0 0 40 40" xmlns="http://www.w3.org/2000/svg"><path fill="#fff" d="m5.5234 1c-0.6854 0-1.3544 0.25386-1.8203 0.73242s-0.70312 1.1461-0.70312 1.832v32.871c0 0.6859 0.23723 1.3535 0.70312 1.832s1.1349 0.73242 1.8203 0.73242h28.953c0.68542 0 1.3544-0.25387 1.8203-0.73242 0.46591-0.47855 0.70312-1.1461 0.70312-1.832v-32.871c0-0.68591-0.23721-1.3535-0.70312-1.832s-1.1349-0.73242-1.8203-0.73242h-28.953zm0 2h28.953c0.22892 0 0.32124 0.059641 0.38867 0.12891 0.067435 0.069265 0.13477 0.18232 0.13477 0.43555v3.4355h-0.1582-29.842v-3.4355c0-0.25323 0.067334-0.36628 0.13477-0.43555 0.067432-0.069264 0.15978-0.12891 0.38867-0.12891zm-0.52344 6h29.842 0.1582v27.436c0 0.25319-0.06733 0.36628-0.13477 0.43555-0.067437 0.069267-0.15975 0.12891-0.38867 0.12891h-28.953c-0.22888 0-0.32124-0.05964-0.38867-0.12891-0.067434-0.069266-0.13477-0.18235-0.13477-0.43555v-27.436zm9.0664 3a1.0001 1.0001 0 1 0 0 2h11.867a1.0001 1.0001 0 1 0 0-2h-11.867z"/></svg>
