<?xml version="1.0" encoding="UTF-8"?>
<svg width="40" height="40" version="1.1" viewBox="0 0 40 40" xmlns="http://www.w3.org/2000/svg"><path fill="#fff" d="m10.691 1c-0.71323 0-1.399 0.22994-1.9043 0.69727s-0.78711 1.1574-0.78711 1.8672v32.871c0 0.70982 0.28184 1.3999 0.78711 1.8672 0.50527 0.46732 1.1911 0.69727 1.9043 0.69727h18.617c0.71324 0 1.399-0.228 1.9043-0.69531 0.50528-0.46732 0.78711-1.1593 0.78711-1.8691v-32.871c0-0.70984-0.28182-1.4018-0.78711-1.8691-0.50528-0.46732-1.1911-0.69531-1.9043-0.69531h-18.617zm0 2h18.617c0.3022 0 0.45983 0.083561 0.54688 0.16406 0.087041 0.080502 0.14453 0.17109 0.14453 0.40039v19.436h-20v-19.436c0-0.22931 0.057495-0.31989 0.14453-0.40039s0.24471-0.16406 0.54688-0.16406zm2.293 8a0.99998 0.9917 0 0 0-0.98438 1.0078v7.9863a0.99998 0.9917 0 1 0 2 0v-7.9863a0.99998 0.9917 0 0 0-1.0156-1.0078zm-2.9844 14h20v11.436c0 0.22927-0.05749 0.31989-0.14453 0.40039-0.087044 0.080503-0.24468 0.16406-0.54688 0.16406h-18.617c-0.30216 0-0.45984-0.083562-0.54688-0.16406-0.087039-0.080502-0.14453-0.17112-0.14453-0.40039v-11.436zm2.9844 2a1 1.0202 0 0 0-0.98438 1.0332v4.9316a1 1.0202 0 1 0 2 0v-4.9316a1 1.0202 0 0 0-1.0156-1.0332z"/></svg>
