<?xml version="1.0" encoding="UTF-8"?>
<svg width="40" height="40" version="1.1" viewBox="0 0 40 40" xmlns="http://www.w3.org/2000/svg"><path fill="#fff" d="m24.5 1c-0.69588 0-1.377 0.28377-1.8301 0.78516-0.45305 0.50138-0.66992 1.1762-0.66992 1.875v1.6191c-11.867 1.7586-21 11.676-21 23.721a1.0001 1.0001 0 0 0 1 1h32.869 0.4707a1.0001 1.0001 0 0 0 0.16016-0.013672c2.5543-0.41422 3.8004-3.2919 2.793-5.6445a1.0001 1.0001 0 0 0-0.025391-0.056641l-3.5996-7.1582a1.0001 1.0001 0 0 0-0.06836-0.11523c-0.40085-0.58513-1.1217-1.3496-2.2344-1.3496h-5.8867v-2.5703h8.3906c2.2525-1e-6 4.1309-1.8089 4.1309-4.0449 0-2.236-1.8784-4.0469-4.1309-4.0469h-7.8691v-1.3398c0-0.69877-0.21685-1.3736-0.66992-1.875-0.45307-0.50138-1.1342-0.78516-1.8301-0.78516zm0 2c0.20408 0 0.2738 0.047381 0.3457 0.12695s0.1543 0.23604 0.1543 0.5332v1.3574c-0.33498 0.0099784-0.66844 0.022166-1 0.044922v-1.4023c0-0.29716 0.082392-0.45363 0.1543-0.5332 0.071904-0.079575 0.14169-0.12695 0.3457-0.12695zm0.99023 4h9.3789c1.1909 0 2.1309 0.93188 2.1309 2.0469 0 1.115-0.94001 2.0449-2.1309 2.0449h-9.3906a1.0001 1.0001 0 0 0-1 1v4.5703a1.0001 1.0001 0 0 0 1 1h6.8867c0.13538 0 0.34831 0.15607 0.56641 0.46484l3.5234 7.0059c0.55111 1.2929-0.072548 2.6579-1.2578 2.8672h-0.32812-31.766c0.1708-3.634 1.24-7.0361 3-10h3.4023c0.89912 0 1.7291-0.30566 2.3711-0.82031 0.64203-0.51465 1.123-1.2825 1.123-2.1797 0-0.89716-0.48102-1.6651-1.123-2.1797-0.26372-0.21139-0.56586-0.37754-0.88476-0.51172 3.8961-3.2468 8.9374-5.2434 14.498-5.3086zm-16.309 7h0.32422c0.43151 0 0.8483 0.1622 1.1211 0.38086 0.27279 0.21866 0.37305 0.44976 0.37305 0.61914 0 0.16945-0.10026 0.40047-0.37305 0.61914-0.27279 0.21867-0.68958 0.38086-1.1211 0.38086h-2.043c0.52977-0.70228 1.1085-1.3648 1.7188-2zm-7.1641 17a1.0001 1.0001 0 1 0 0 2h33.965a1.0001 1.0001 0 1 0 0-2h-33.965zm0.9668 3a1.0001 1.0001 0 0 0-0.98438 1.0137v2.9727a1.0001 1.0001 0 1 0 2 0v-2.9727a1.0001 1.0001 0 0 0-1.0156-1.0137zm3.2227 0a1.0001 1.0001 0 0 0-0.98438 1.0137v1.9727a1.0001 1.0001 0 1 0 2 0v-1.9727a1.0001 1.0001 0 0 0-1.0156-1.0137zm3.2227 0a1.0001 1.0001 0 0 0-0.98438 1.0137v2.9727a1.0001 1.0001 0 1 0 2 0v-2.9727a1.0001 1.0001 0 0 0-1.0156-1.0137zm3.2227 0a1.0001 1.0001 0 0 0-0.98438 1.0137v1.9727a1.0001 1.0001 0 1 0 2 0v-1.9727a1.0001 1.0001 0 0 0-1.0156-1.0137zm3.2227 0a1.0001 1.0001 0 0 0-0.98438 1.0137v2.9727a1.0001 1.0001 0 1 0 2 0v-2.9727a1.0001 1.0001 0 0 0-1.0156-1.0137zm3.2227 0a1.0001 1.0001 0 0 0-0.98438 1.0137v1.9727a1.0001 1.0001 0 1 0 2 0v-1.9727a1.0001 1.0001 0 0 0-1.0156-1.0137zm3.2227 0a1.0001 1.0001 0 0 0-0.98633 1.0137v2.9727a1.0001 1.0001 0 1 0 2 0v-2.9727a1.0001 1.0001 0 0 0-1.0137-1.0137z"/></svg>
