<?xml version="1.0" encoding="UTF-8"?>
<svg width="40" height="40" version="1.1" viewBox="0 0 40 40" xmlns="http://www.w3.org/2000/svg"><path fill="#fff" d="m6.5938 1.0039c-0.69348 2e-7 -1.3692 0.24545-1.8477 0.7207-0.47849 0.47525-0.72852 1.1504-0.72852 1.8438v6.0957a1.0001 1.0001 0 0 0 0 0.32422v23.152a1.0001 1.0001 0 0 0 0 0.32617v2.9707c0 0.69329 0.25002 1.3705 0.72852 1.8457 0.47849 0.47524 1.1542 0.7207 1.8477 0.7207h26.789c0.69348 0 1.3692-0.24546 1.8477-0.7207 0.47848-0.47524 0.72852-1.1524 0.72852-1.8457v-2.9609a1.0001 1.0001 0 0 0 0-0.32617v-23.154a1.0001 1.0001 0 0 0 0-0.32422v-6.1035c0-0.69331-0.25003-1.3685-0.72852-1.8438-0.47848-0.47525-1.1542-0.7207-1.8477-0.7207h-26.789zm0 2h26.789c0.25202 0 0.36638 0.066098 0.43945 0.13867 0.07307 0.072574 0.13672 0.17995 0.13672 0.42578v5.2617h-27.941v-5.2617c0-0.24583 0.065605-0.35321 0.13867-0.42578 0.073067-0.072572 0.18544-0.13867 0.4375-0.13867zm3.9395 1.1309c-0.97194 0-1.7871 0.8049-1.7871 1.7812 0 0.97635 0.81517 1.7832 1.7871 1.7832 0.97194-2e-7 1.7891-0.80685 1.7891-1.7832 0-0.97635-0.81713-1.7812-1.7891-1.7812zm9.4551 0c-0.97194 0-1.7871 0.80488-1.7871 1.7812 0 0.97636 0.81517 1.7832 1.7871 1.7832 0.97194-2e-7 1.7891-0.80684 1.7891-1.7832 0-0.97637-0.81712-1.7812-1.7891-1.7812zm4.7285 0c-0.97192 0-1.7891 0.80503-1.7891 1.7812 0 0.97621 0.81714 1.7832 1.7891 1.7832 0.97194-2e-7 1.7871-0.80684 1.7871-1.7832 0-0.97637-0.81517-1.7812-1.7871-1.7812zm4.7285 0c-0.97192 0-1.7891 0.80488-1.7891 1.7812 0 0.97637 0.81714 1.7832 1.7891 1.7832 0.97194-2e-7 1.7871-0.80684 1.7871-1.7832 0-0.97637-0.81517-1.7812-1.7871-1.7812zm-18.912 1.5645c0.1016 0 0.21289 0.10491 0.21289 0.2168 0 0.11191-0.11129 0.21875-0.21289 0.21875-0.1016 0-0.21094-0.10684-0.21094-0.21875 0-0.11189 0.10934-0.2168 0.21094-0.2168zm9.4551 0c0.10166 0 0.21289 0.10489 0.21289 0.2168 0 0.11193-0.11123 0.21875-0.21289 0.21875s-0.21094-0.10682-0.21094-0.21875c0-0.11191 0.10927-0.2168 0.21094-0.2168zm4.7285 0c0.10144 0 0.21094 0.10504 0.21094 0.2168 0 0.11178-0.10949 0.21875-0.21094 0.21875-0.10166 0-0.21289-0.10682-0.21289-0.21875 0-0.11191 0.11123-0.2168 0.21289-0.2168zm4.7285 0c0.10145 0 0.21094 0.10489 0.21094 0.2168 0 0.11193-0.10949 0.21875-0.21094 0.21875-0.10166 0-0.21289-0.10682-0.21289-0.21875 0-0.11191 0.11123-0.2168 0.21289-0.2168zm-23.428 5.1309h27.941v21.479h-27.941v-21.479zm3.7285 2.6953a1.0001 1.0001 0 0 0-1 1v14.086a1.0001 1.0001 0 0 0 1 1h20.486a1.0001 1.0001 0 0 0 1-1v-14.086a1.0001 1.0001 0 0 0-1-1h-20.486zm1 2h18.486v12.086h-18.486v-12.086zm-4.7285 18.783h27.941v2.1289c0 0.24579-0.06365 0.3532-0.13672 0.42578-0.07307 0.07258-0.18744 0.14062-0.43945 0.14062h-26.789c-0.25205 0-0.36443-0.06805-0.4375-0.14062-0.07307-0.072573-0.13867-0.17998-0.13867-0.42578v-2.1289z"/></svg>
