<?xml version="1.0" encoding="UTF-8"?>
<svg width="40" height="40" version="1.1" viewBox="0 0 40 40" xmlns="http://www.w3.org/2000/svg"><path fill="#fff" d="m8.2109 1.002c-1.3167 0-2.5703 0.95687-2.5703 2.4082l0.0058594-0.097656-2.6152 26.68c-0.33969 0.78071-0.5293 1.6363-0.5293 2.5312 0 3.5371 2.9514 6.4785 6.4941 6.4785h21.98c3.6718 0 6.4961-2.9766 6.4961-6.4785 0-0.50692-0.067275-0.99906-0.18164-1.4746a1.0001 1.0001 0 0 0 0.019531-0.34375l-2.6699-27.393a1.0001 1.0001 0 0 0-0.013672-0.099609c-0.23802-1.1859-1.2341-2.2109-2.5508-2.2109h-23.865zm0 2h23.865c0.25098 0 0.50504 0.22694 0.58398 0.59961l2.3242 23.857c-1.1105-0.88032-2.5042-1.4141-4.0078-1.4141h-21.98c-1.3606 0-2.6311 0.43709-3.6836 1.1719l2.3242-23.709a1.0001 1.0001 0 0 0 0.0039062-0.097656c0-0.11389 0.31699-0.4082 0.57031-0.4082zm0.78516 25.043h21.98c2.4234 0 4.4961 2.0678 4.4961 4.4785 0 2.446-1.8877 4.4785-4.4961 4.4785h-21.98c-2.4234 0-4.4941-2.0677-4.4941-4.4785 0-0.40037 0.07528-0.78465 0.18164-1.1582a1.0001 1.0001 0 0 0 0.2832-0.62305l0.013672-0.14844c0.7441-1.4839 2.2828-2.5488 4.0156-2.5488zm0.78516 1.1309a1.0001 1.0001 0 1 0 0 2h20.41a1.0001 1.0001 0 1 0 0-2h-20.41zm14.916 3.1309c-0.97236 0-1.7852 0.8069-1.7852 1.7812 0 0.97433 0.81294 1.7832 1.7852 1.7832 0.97221 0 1.7852-0.80888 1.7852-1.7832 0-0.97435-0.81279-1.7812-1.7852-1.7812zm4.709 0c-0.97236 0-1.7832 0.8069-1.7832 1.7812 0 0.97433 0.81099 1.7832 1.7832 1.7832s1.7852-0.80888 1.7852-1.7832c0-0.97435-0.81279-1.7812-1.7852-1.7812zm-4.709 1.5645c0.10516 0 0.21484 0.10705 0.21484 0.2168 0 0.10997-0.10953 0.21875-0.21484 0.21875-0.10532 0-0.21484-0.10878-0.21484-0.21875 0-0.10975 0.10968-0.2168 0.21484-0.2168zm4.709 0c0.10516 0 0.2168 0.10705 0.2168 0.2168 0 0.10997-0.11148 0.21875-0.2168 0.21875s-0.21484-0.10878-0.21484-0.21875c0-0.10975 0.10968-0.2168 0.21484-0.2168z"/></svg>
