<?xml version="1.0" encoding="UTF-8"?>
<svg width="40" height="40" version="1.1" viewBox="0 0 40 40" xmlns="http://www.w3.org/2000/svg"><path fill="#fff" d="m18.545 2.9922a1.0001 1.0001 0 0 0-1 1v2.1055c-8.2364 1.1879-14.545 8.2326-14.545 16.805a1.0001 1.0001 0 0 0 1 1h32a1.0001 1.0001 0 0 0 1-1c0-8.5721-6.3085-15.617-14.545-16.805v-2.1055a1.0001 1.0001 0 0 0-1-1h-2.9102zm1 2h0.91016v0.93359c-0.15261-0.0040221-0.30147-0.023438-0.45508-0.023437-0.1536-1e-7 -0.30247 0.019415-0.45508 0.023437v-0.93359zm0.45508 2.9102c6.4356 0 11.824 3.986 13.953 9.6367h-27.906c2.1291-5.6508 7.5175-9.6367 13.953-9.6367zm-14.543 11.637h29.086c0.17334 0.7682 0.3041 1.554 0.35742 2.3633h-29.801c0.053322-0.80933 0.18408-1.5951 0.35742-2.3633zm5.8008 5.2578a1.0001 1.0001 0 0 0-0.98437 1.0137v2.9102a1.0001 1.0001 0 1 0 2 0v-2.9102a1.0001 1.0001 0 0 0-1.0156-1.0137zm4.3633 0a1.0001 1.0001 0 0 0-0.98438 1.0137v2.9102a1.0001 1.0001 0 1 0 2 0v-2.9102a1.0001 1.0001 0 0 0-1.0156-1.0137zm8.7285 0a1.0001 1.0001 0 0 0-0.98633 1.0137v2.9102a1.0001 1.0001 0 1 0 2 0v-2.9102a1.0001 1.0001 0 0 0-1.0137-1.0137zm8.7266 0a1.0001 1.0001 0 0 0-0.98633 1.0137v2.9102a1.0001 1.0001 0 1 0 2 0v-2.9102a1.0001 1.0001 0 0 0-1.0137-1.0137zm-26.182 1.4551a1.0001 1.0001 0 0 0-0.98438 1.0137v2.9102a1.0001 1.0001 0 1 0 2 0v-2.9102a1.0001 1.0001 0 0 0-1.0156-1.0137zm13.09 0a1.0001 1.0001 0 0 0-0.98438 1.0137v2.9102a1.0001 1.0001 0 1 0 2 0v-2.9102a1.0001 1.0001 0 0 0-1.0156-1.0137zm8.7285 0a1.0001 1.0001 0 0 0-0.98633 1.0137v2.9102a1.0001 1.0001 0 1 0 2 0v-2.9102a1.0001 1.0001 0 0 0-1.0137-1.0137zm-17.455 4.3633a1.0001 1.0001 0 0 0-0.98437 1.0137v2.9102a1.0001 1.0001 0 1 0 2 0v-2.9102a1.0001 1.0001 0 0 0-1.0156-1.0137zm4.3633 0a1.0001 1.0001 0 0 0-0.98438 1.0137v2.9102a1.0001 1.0001 0 1 0 2 0v-2.9102a1.0001 1.0001 0 0 0-1.0156-1.0137zm8.7285 0a1.0001 1.0001 0 0 0-0.98633 1.0137v2.9102a1.0001 1.0001 0 1 0 2 0v-2.9102a1.0001 1.0001 0 0 0-1.0137-1.0137zm8.7266 0a1.0001 1.0001 0 0 0-0.98633 1.0137v2.9102a1.0001 1.0001 0 1 0 2 0v-2.9102a1.0001 1.0001 0 0 0-1.0137-1.0137zm-26.182 1.4551a1.0001 1.0001 0 0 0-0.98438 1.0137v2.9082a1.0001 1.0001 0 1 0 2 0v-2.9082a1.0001 1.0001 0 0 0-1.0156-1.0137zm13.09 0a1.0001 1.0001 0 0 0-0.98438 1.0137v2.9082a1.0001 1.0001 0 1 0 2 0v-2.9082a1.0001 1.0001 0 0 0-1.0156-1.0137zm8.7285 0a1.0001 1.0001 0 0 0-0.98633 1.0137v2.9082a1.0001 1.0001 0 1 0 2 0v-2.9082a1.0001 1.0001 0 0 0-1.0137-1.0137z"/></svg>
