<?xml version="1.0" encoding="UTF-8"?>
<svg width="40" height="40" version="1.1" viewBox="0 0 40 40" xmlns="http://www.w3.org/2000/svg"><path fill="#fff" d="m2 10a1.0001 1.0015 0 0 0-1 1.0014v18.997a1.0001 1.0015 0 0 0 1 1.0014h36a1.0001 1.0015 0 0 0 1-1.0014v-18.997a1.0001 1.0015 0 0 0-1-1.0014h-12.521a1.0001 1.0015 0 0 0-1 1.0014v3.7474h-8.957v-3.7474a1.0001 1.0015 0 0 0-1-1.0014zm1 2.0028h10.521v3.5812a1.0001 1.0015 0 0 0 0 0.32467v13.089h-10.521zm23.479 0h10.521v16.994h-10.521v-13.081a1.0001 1.0015 0 0 0 0-0.32467zm-18.217 1.1637c-1.4103 0-2.5664 1.1735-2.5664 2.5837s1.1561 2.5837 2.5664 2.5837 2.5645-1.1735 2.5645-2.5837-1.1542-2.5837-2.5645-2.5837zm23.477 0c-1.4103 0-2.5645 1.1736-2.5645 2.5837 0 1.4101 1.1541 2.5837 2.5645 2.5837 1.4103 0 2.5645-1.1736 2.5645-2.5837 0-1.4101-1.1541-2.5837-2.5645-2.5837zm-23.477 2.0028c0.31858 0 0.56445 0.24241 0.56445 0.58089 0 0.33848-0.24587 0.58089-0.56445 0.58089-0.31858 0-0.56641-0.24241-0.56641-0.58089 0-0.33848 0.24783-0.58089 0.56641-0.58089zm23.477 0c0.31864 0 0.56445 0.24235 0.56445 0.58089 0 0.33854-0.24581 0.58089-0.56445 0.58089-0.31864 0-0.56445-0.24235-0.56445-0.58089 0-0.33854 0.24581-0.58089 0.56445-0.58089zm-16.217 1.5823h8.957v12.246h-8.957zm-7.2598 2.746c-2.2747 0-4.1309 1.8834-4.1309 4.1679 0 2.2844 1.8562 4.1679 4.1309 4.1679 2.2747 0 4.1289-1.8835 4.1289-4.1679 0-2.2845-1.8542-4.1679-4.1289-4.1679zm9.3906 0a1.0001 1.0015 0 1 0 0 2.0028h4.6953a1.0001 1.0015 0 1 0 0-2.0028zm14.086 0c-2.2747 0-4.1309 1.8834-4.1309 4.1679 0 2.2845 1.8562 4.1679 4.1309 4.1679s4.1309-1.8835 4.1309-4.1679c0-2.2845-1.8562-4.1679-4.1309-4.1679zm-23.477 2.0028c1.183 0 2.1289 0.95223 2.1289 2.1651 0 1.2128-0.94587 2.1651-2.1289 2.1651-1.183 0-2.1309-0.95236-2.1309-2.1651 0-1.2129 0.94782-2.1651 2.1309-2.1651zm23.477 0c1.183 0 2.1309 0.95225 2.1309 2.1651 0 1.2128-0.94785 2.1651-2.1309 2.1651s-2.1309-0.95238-2.1309-2.1651c0-1.2129 0.94785-2.1651 2.1309-2.1651zm-13.305 1.1637c-0.9781 0-1.7812 0.82051-1.7812 1.7935s0.80315 1.7916 1.7812 1.7916c0.67753 0 1.265-0.39746 1.5664-0.96228 0.30083 0.56482 0.88692 0.96228 1.5645 0.96228 0.9781 0 1.7832-0.81855 1.7832-1.7916s-0.8051-1.7935-1.7832-1.7935c-0.6772 0-1.2635 0.39732-1.5645 0.96228-0.30155-0.56496-0.8892-0.96228-1.5664-0.96228zm0 1.5823c0.11372 0 0.21875 0.11248 0.21875 0.21123 0 0.09876-0.10503 0.20928-0.21875 0.20928-0.1135 0-0.2168-0.11067-0.2168-0.20928 0-0.09861 0.1033-0.21123 0.2168-0.21123zm3.1309 0c0.1135 0 0.21875 0.11262 0.21875 0.21123 0 0.09861-0.10525 0.20928-0.21875 0.20928-0.11372 0-0.2168-0.11052-0.2168-0.20928 0-0.09876 0.10308-0.21123 0.2168-0.21123z"/></svg>
