<?xml version="1.0" encoding="UTF-8"?>
<svg width="24" height="24" fill="none" version="1.1" viewBox="0 0 24 24" xmlns="http://www.w3.org/2000/svg"><path d="m3 21h-1v1h1v-1zm0-17v-1h-1v1h1zm7 0 0.7071-0.70711-0.2929-0.29289h-0.4142v1zm3 3-0.7071 0.70711 0.2929 0.29289h0.4142v-1zm5 0h1v-1h-1v1zm4 4 0.9578 0.2873 0.3862-1.2873h-1.344v1zm-3 10v1h0.744l0.2138-0.7127-0.9578-0.2873zm-13-10v-1h-0.74403l-0.2138 0.7127 0.95783 0.2873zm-2 10v-17h-2v17h2zm-1-16h7v-2h-7v2zm6.2929-0.29289 3 3 1.4142-1.4142-3-3-1.4142 1.4142zm3.7071 3.2929h5v-2h-5v2zm4-1v4h2v-4h-2zm1 5h4v-2h-4v2zm3.0422-1.2873-3 10 1.9156 0.5746 3-10-1.9156-0.5746zm-2.0422 9.2873h-16v2h16v-2zm-13.958-9.2873-3 10 1.9157 0.5746 3-10-1.9157-0.5746zm0.95783 1.2873h12v-2h-12v2z" fill="#da1f24"/></svg>
