<?xml version="1.0" encoding="UTF-8"?>
<svg width="24" height="24" fill="none" version="1.1" viewBox="0 0 24 24" xmlns="http://www.w3.org/2000/svg"><path d="m7.5316 1c-1.8439 2.2126-3.6877 4.4253-5.5316 6.638v3.362 3c0 1.6569 1.3432 3 3 3s3-1.3431 3-3v-3c0-1.6568-1.3432-3-3-3-0.27149 0-0.53456 0.03606-0.78468 0.10366l4.2531-5.1037h7.0632l4.2531 5.1037c-0.2501-0.0676-0.5132-0.10366-0.7847-0.10366-1.6569 0-3 1.3432-3 3v3c0 1.2397 0.752 2.3038 1.8247 2.761l-1.4307 1.4308c-0.5477-0.724-1.4162-1.1918-2.394-1.1918h-2c-1.6569 0-3 1.3431-3 3s1.3431 3 3 3h2c1.5048 0 2.7509-1.108 2.9669-2.5527l5.0331-5.0331v-7.7762c-1.9151-2.2981-3.8879-4.6654-5.5316-6.638h-8.9368zm11.468 9c0.5523 0 1 0.4477 1 1v3c0 0.5523-0.4477 1-1 1s-1-0.4477-1-1v-3c0-0.5523 0.4477-1 1-1zm-15 1v3c0 0.5523 0.44772 1 1 1s1-0.4477 1-1v-3c0-0.5523-0.44772-1-1-1s-1 0.4477-1 1zm8 10c-0.5523 0-1-0.4477-1-1s0.4477-1 1-1h2c0.5523 0 1 0.4477 1 1s-0.4477 1-1 1z" clip-rule="evenodd" fill="#da1f24" fill-rule="evenodd"/></svg>
