<?xml version="1.0" encoding="UTF-8"?>
<svg width="100" height="100" version="1.1" viewBox="0 0 100 100" xmlns="http://www.w3.org/2000/svg"><path d="m51.562 12.5v7.8125h28.125v-7.8125h-28.125zm29.688 48.438c-2.5844 0-4.6875 2.1031-4.6875 4.6875s2.1031 4.6875 4.6875 4.6875 4.6875-2.1031 4.6875-4.6875-2.1031-4.6875-4.6875-4.6875zm0 12.5c-2.5844 0-4.6875 2.1031-4.6875 4.6875s2.1031 4.6875 4.6875 4.6875 4.6875-2.1031 4.6875-4.6875-2.1031-4.6875-4.6875-4.6875zm-35.938 1.5625v6.25h21.875v-6.25h-21.875z" fill="#fa5b5a"/><path d="m15.146 1.5625c-4.0453 0-7.334 3.2902-7.334 7.334v30.166h-1.5625c-2.5844 0-4.6875 2.1031-4.6875 4.6875v12.5c0 2.5844 2.1031 4.6875 4.6875 4.6875h1.5625v30.166c0 4.0438 3.2887 7.334 7.334 7.334 0.4047 0 0.80818-0.032409 1.2051-0.099609l18.152-3.0254h56.121c4.3078 0 7.8125-3.5047 7.8125-7.8125v-75c0-4.3078-3.5047-7.8125-7.8125-7.8125h-56.121l-18.148-3.0254c-0.4-0.06719-0.80428-0.099609-1.209-0.099609zm-1.084 3.2852v90.305c-1.7641-0.4922-3.125-2.1144-3.125-4.0488v-82.207c0-1.9438 1.3313-3.566 3.125-4.0488zm3.125 0.12109 15.625 2.6055v84.852l-15.625 2.6055v-90.062zm18.75 2.8438h54.688c2.5844 0 4.6875 2.1031 4.6875 4.6875v75c0 2.5844-2.1031 4.6875-4.6875 4.6875h-54.688v-84.375zm6.25 3.125c-1.7234 0-3.125 1.4016-3.125 3.125v51.562 18.75 1.5625c0 1.7234 1.4016 3.125 3.125 3.125h1.5625 25 20.312c1.7234 0 3.125-1.4016 3.125-3.125v-71.875c0-1.7234-1.4016-3.125-3.125-3.125h-46.875zm0 3.125h3.125v17.188c0 2.5844 2.1031 4.6875 4.6875 4.6875h20.312v1.5625c0 2.5844 2.1031 4.6875 4.6875 4.6875v1.5625c0 0.8609-0.7 1.5625-1.5625 1.5625h-18.75c-2.5844 0-4.6875 2.1031-4.6875 4.6875v4.6875c-2.5844 0-4.6875 2.1031-4.6875 4.6875v1.5625h-1.5625c-0.55 0-1.0719 0.11211-1.5625 0.28711v-47.162zm6.25 0h34.375v17.188c0 0.8609-0.7 1.5625-1.5625 1.5625h-31.25c-0.8625 0-1.5625-0.7016-1.5625-1.5625v-17.188zm37.5 0h3.125l0.001953 71.875h-15.914c0.175-0.4906 0.28711-1.0125 0.28711-1.5625v-18.75c0-2.5844-2.1031-4.6875-4.6875-4.6875h-10.938v-1.5625c0-2.5844-2.1031-4.6875-4.6875-4.6875v-4.6875c0-0.8609 0.7-1.5625 1.5625-1.5625h18.75c2.5844 0 4.6875-2.1031 4.6875-4.6875v-1.5625c2.5844 0 4.6875-2.1031 4.6875-4.6875v-1.8496c1.8141-0.6469 3.125-2.366 3.125-4.4004v-17.188zm-34.375 12.5v3.125h6.25v-3.125h-6.25zm21.875 0v3.125h6.25v-3.125h-6.25zm0 9.375h6.25v1.5625c0 0.8609-0.7 1.5625-1.5625 1.5625h-3.125c-0.8625 0-1.5625-0.7016-1.5625-1.5625v-1.5625zm-67.188 6.25h1.5625v15.625h-1.5625c-0.8625 0-1.5625-0.7016-1.5625-1.5625v-12.5c0-0.8609 0.7-1.5625 1.5625-1.5625zm43.75 15.625h3.125c0.8625 0 1.5625 0.7016 1.5625 1.5625v1.5625h-6.25v-1.5625c0-0.8609 0.7-1.5625 1.5625-1.5625zm-6.25 6.25h25c0.8625 0 1.5625 0.7016 1.5625 1.5625v1.5625h-28.125v-1.5625c0-0.8609 0.7-1.5625 1.5625-1.5625zm-1.5625 6.25h28.125v14.062c0 0.8609-0.7 1.5625-1.5625 1.5625h-25c-0.8625 0-1.5625-0.7016-1.5625-1.5625v-14.062zm3.125 9.375v3.125h21.875v-3.125h-21.875z" fill="#333"/></svg>
