<?xml version="1.0" encoding="UTF-8"?>
<svg width="100" height="100" version="1.1" viewBox="0 0 100 100" xmlns="http://www.w3.org/2000/svg"><path d="m100 16.129v-3.2258h-30.645v-3.2258h-6.4516v-9.6774h-25.806v9.6774h-6.4516v3.2258h-30.645v3.2258h30.645v3.2258h-30.645v3.2258h30.645v3.2259h-22.581v3.2258h-8.0645v3.2258h8.0645v8.0645h3.5226c-0.1806 0.5064-0.2968 1.0451-0.2968 1.6129 0 2.6677 2.171 4.8387 4.8387 4.8387 2.6678 0 4.8387-2.171 4.8387-4.8387 0-0.5678-0.1161-1.1065-0.2967-1.6129h3.8209c-0.1822 0.5064-0.2983 1.0451-0.2983 1.6129 0 2.6677 2.1709 4.8387 4.8387 4.8387 2.6677 0 4.8387-2.171 4.8387-4.8387 0-0.5678-0.1162-1.1065-0.2968-1.6129h3.5226v59.677h3.2258v-59.677h19.355v59.677h3.2258v-59.677h3.5226c-0.1806 0.5064-0.2968 1.0451-0.2968 1.6129 0 2.6677 2.171 4.8387 4.8387 4.8387 2.6678 0 4.8388-2.171 4.8388-4.8387 0-0.5678-0.1162-1.1065-0.2968-1.6129h3.821c-0.1823 0.5064-0.2984 1.0451-0.2984 1.6129 0 2.6677 2.1709 4.8387 4.8387 4.8387 2.6677 0 4.8387-2.171 4.8387-4.8387 0-0.5678-0.1161-1.1065-0.2968-1.6129h3.5226v-8.0645h8.0645v-3.2258h-8.0645v-3.2258h-22.581v-3.2259h30.645v-3.2258h-30.645v-3.2258h30.645zm-66.129-3.2258h3.2258v12.903h-3.2258v-12.903zm-16.129 29.032c0 0.8903-0.7242 1.6129-1.6129 1.6129s-1.6129-0.7226-1.6129-1.6129 0.7242-1.6129 1.6129-1.6129 1.6129 0.7226 1.6129 1.6129zm12.903 0c0 0.8903-0.7242 1.6129-1.6129 1.6129-0.8888 0-1.6129-0.7226-1.6129-1.6129s0.7241-1.6129 1.6129-1.6129c0.8887 0 1.6129 0.7226 1.6129 1.6129zm41.936 0c0 0.8903-0.7242 1.6129-1.613 1.6129-0.8887 0-1.6129-0.7226-1.6129-1.6129s0.7242-1.6129 1.6129-1.6129c0.8888 0 1.613 0.7226 1.613 1.6129zm12.903 0c0 0.8903-0.7242 1.6129-1.6129 1.6129s-1.6129-0.7226-1.6129-1.6129 0.7242-1.6129 1.6129-1.6129 1.6129 0.7226 1.6129 1.6129zm3.2258-4.8387h-77.419v-8.0645h77.419v8.0645zm-25.806-11.29v-3.2259h-3.2258v3.2259h-19.355v-22.581h19.355v16.129h3.2258v-6.4516h3.2258v12.903h-3.2258z" fill="#333"/><path d="m88.71 33.871h-77.419v3.2259h77.419v-3.2259z" fill="#FA5B5A"/></svg>
