<?xml version="1.0" encoding="UTF-8"?>
<svg width="100" height="100" version="1.1" viewBox="0 0 100 100" xmlns="http://www.w3.org/2000/svg"><path d="m55.328 66.023c12.303 0 22.277-10.075 22.277-22.502 0-12.428-9.9739-22.502-22.277-22.502-12.303 0-22.277 10.074-22.277 22.502 0 12.428 9.9738 22.502 22.277 22.502z" fill="#fa5b5a"/><path d="m88.379 6.553c-11.17 0-22.091-2.1249-32.459-6.3133l-0.592-0.23968-0.5903 0.23934c-10.37 4.1888-21.291 6.3133-32.461 6.3133h-3.547v33.753h-7.956c-2.6318 0-4.7735 2.1633-4.7735 4.8218v27.324c0 2.6584 2.1417 4.822 4.7735 4.822h14.321 0.0078c3.7585 6.0322 8.9666 11.015 15.176 14.434l15.05 8.2921 15.05-8.2921c13.293-7.3228 21.548-21.372 21.548-36.666v-48.489zm-79.197 65.899v-27.324c0-0.8857 0.71287-1.6072 1.5911-1.6072h14.321c0.8781 0 1.591 0.7218 1.591 1.6072v27.324c0 0.8856-0.7129 1.6074-1.591 1.6074h-14.321c-0.8785 0-1.5914-0.7218-1.5914-1.6074zm20.686-24.124c5.3132-0.2908 9.5473-4.7497 9.5473-10.187v-8.2826c0-2.2147 1.7839-4.0183 3.9782-4.0183s3.9781 1.8033 3.9781 4.0183v10.116c0 2.8416 2.2883 5.153 5.1015 5.153h11.665c3.0375 0 5.5105 2.4963 5.5105 5.5662v17.799c0 3.0699-2.4726 5.5661-5.5105 5.5661h-23.445c-1.2635 0-2.4347-0.635-3.1363-1.6956-1.292-1.9575-3.4547-3.1261-5.7841-3.1261h-1.9047zm58.875 6.7135c0 14.115-7.6202 27.085-19.889 33.843l-13.527 7.4531-13.527-7.4531c-5.5359-3.0507-10.214-7.4435-13.654-12.757 0.9658-0.8198 1.6009-2.009 1.6899-3.3593 3.2109 5.595 7.8351 10.179 13.489 13.294l12.003 6.614 12.003-6.614c11.245-6.1946 18.231-18.081 18.231-31.019v-24.381h-3.1824v24.381c0 11.76-6.349 22.567-16.571 28.197l-10.48 5.7736-10.48-5.7736c-4.484-2.4705-8.2507-5.9615-11.081-10.186 0.444 0.2811 0.8418 0.6381 1.1426 1.0931 1.292 1.9576 3.4547 3.1261 5.7841 3.1261h23.445c4.7942 0 8.6929-3.9394 8.6929-8.7807v-17.799c0-4.8413-3.8984-8.7808-8.6929-8.7808h-11.665c-1.0581 0-1.919-0.8696-1.919-1.9384v-10.116c0-3.9878-3.2126-7.2329-7.1606-7.2329-3.9479 0-7.1606 3.2451-7.1606 7.2329v8.2809c0 3.6648-2.8148 6.6445-6.3714 6.9322-0.0159-1.3966-0.6286-2.641-1.5849-3.5119v-25.548c9.2418-0.5737 18.333-2.4815 27.051-5.6804 8.7184 3.1985 17.808 5.1064 27.051 5.6804l7e-4 14.65h3.1824l-7e-4 -17.709-1.518-0.0706c-9.6333-0.4451-19.109-2.3869-28.163-5.7702l-0.5523-0.20745-0.5523 0.20573c-9.0559 3.3833-18.532 5.3251-28.163 5.7701l-1.518 0.0724v27.353h-3.1825v-30.539h0.3642c11.366 0 22.481-2.1218 33.051-6.3071 10.57 4.1853 21.685 6.3071 33.051 6.3071h0.3642z" fill="#fff"/></svg>
