<svg width="103" height="103" viewBox="0 0 103 103" fill="none" xmlns="http://www.w3.org/2000/svg">
<path d="M43.4531 24.4802V46.6719H46.6719V24.4802C46.6719 22.8853 46.2052 21.3419 45.32 20.0174L37.9716 8.98997C37.9668 8.98192 37.9587 8.97548 37.9523 8.96744L37.2828 7.96319C37.109 7.69764 37.0156 7.39347 37.0156 7.07803V6.41658C37.0156 5.54108 37.7286 4.82812 38.6041 4.82812C39.111 4.82812 39.5922 5.07275 39.8916 5.48153L50.5778 20.1751C51.1813 21.0072 51.5 21.9873 51.5 23.0157V42.9236H54.7188V23.0157C54.7188 21.3049 54.1877 19.6666 53.1802 18.2841L42.4939 3.58891C41.5927 2.34969 40.1378 1.60938 38.6041 1.60938C36.1514 1.60938 34.1445 3.46177 33.8548 5.83881C33.8419 5.83398 33.8323 5.82755 33.8194 5.82433L22.0291 1.89263C21.4675 1.70433 20.8816 1.60938 20.2878 1.60938H19.9949C16.9564 1.60938 14.4844 4.08138 14.4844 7.12148C14.4844 9.29736 15.7687 11.2737 17.7562 12.1572L28.2188 16.8083C29.0573 17.1785 29.767 17.7788 30.274 18.54L34.5951 25.021C35.1262 25.816 35.4062 26.7414 35.4062 27.699V31.6999L33.3511 28.6163C32.1537 26.8218 30.1516 25.75 27.9951 25.75H12.0703C7.63327 25.75 4.02344 29.3598 4.02344 33.7969C4.02344 33.8307 4.02344 33.8645 4.02505 33.8983C2.63777 34.2555 1.60938 35.5173 1.60938 37.0156V53.3041C1.60938 54.4596 1.86527 55.6248 2.34969 56.6774L10.477 74.2855C11.1546 75.7517 12.0075 77.1341 13.0134 78.3894L14.0354 79.6673C16.3995 82.6237 17.7031 86.3365 17.7031 90.125H20.9219C20.9219 85.6075 19.3672 81.1785 16.5476 77.6572L15.5256 76.3793C14.6823 75.3252 13.9662 74.1664 13.3997 72.9369L5.27231 55.3287C4.98263 54.6978 4.82812 53.9977 4.82812 53.3041V37.0156C8.37841 37.0156 11.2656 39.9028 11.2656 43.4531V49.8906C11.2656 51.4018 11.9866 52.847 13.1969 53.7515L16.414 56.1656C17.9381 57.3082 19.8227 57.9375 21.7266 57.9375C26.6062 57.9375 30.5781 53.9656 30.5781 49.0859V42.6484C30.5781 37.7688 26.6062 33.7969 21.7266 33.7969H7.24219C7.24219 31.135 9.40841 28.9688 12.0703 28.9688H27.9951C29.0734 28.9688 30.0744 29.5047 30.6731 30.4027L34.8639 36.6905C35.2196 37.2232 35.4062 37.8412 35.4062 38.4769V46.6719H38.625V38.4769V27.699C38.625 26.1041 38.1583 24.5607 37.2731 23.2362L32.952 16.7552C32.1054 15.4854 30.9193 14.486 29.524 13.8664L19.063 9.21528C18.2374 8.84834 17.7031 8.02595 17.7031 7.12148C17.7031 5.85652 18.7315 4.82812 19.9965 4.82812H20.2894C20.5356 4.82812 20.7819 4.86675 21.0136 4.944L32.8023 8.87409C33.813 9.21045 34.6949 9.88317 35.2872 10.7683L40.5047 18.5947L42.642 21.8006C43.1731 22.5972 43.4531 23.5226 43.4531 24.4802ZM21.7266 37.0156C24.8327 37.0156 27.3594 39.5423 27.3594 42.6484V49.0859C27.3594 52.192 24.8327 54.7188 21.7266 54.7188C20.5147 54.7188 19.3157 54.318 18.3453 53.5922L15.1265 51.1781C14.7242 50.8756 14.4844 50.3944 14.4844 49.8906V43.4531C14.4844 40.9827 13.5509 38.7248 12.0204 37.0156H21.7266Z" fill="white"/>
<path d="M44.9885 79.6798C43.9697 82.1229 43.4531 84.7075 43.4531 87.3566V90.1247H46.6719V87.3566C46.6719 85.134 47.1064 82.9662 47.9594 80.9175L52.4801 70.0703L49.5092 68.8311L44.9885 79.6798Z" fill="white"/>
<path d="M49.8906 101.391H14.4844V88.5156H49.8906V101.391Z" fill="#FA5B5A"/>
<path d="M74.0312 85.2969C58.945 85.2969 46.6719 73.0238 46.6719 57.9375C46.6719 42.8512 58.945 30.5781 74.0312 30.5781C89.1175 30.5781 101.391 42.8512 101.391 57.9375C101.391 73.0238 89.1175 85.2969 74.0312 85.2969ZM74.0312 38.625C63.382 38.625 54.7188 47.2883 54.7188 57.9375C54.7188 68.5867 63.382 77.25 74.0312 77.25C84.6805 77.25 93.3438 68.5867 93.3438 57.9375C93.3438 47.2883 84.6805 38.625 74.0312 38.625Z" fill="#FA5B5A"/>
<path d="M84.1582 47.1436L67.5929 63.7089L63.9026 60.0186L61.627 62.2942L67.5929 68.2602L86.4339 49.4192L84.1582 47.1436Z" fill="white"/>
<path d="M74.0312 75.6405C64.2704 75.6405 56.3281 67.6982 56.3281 57.9374C56.3281 53.761 57.8168 49.7054 60.5189 46.514L58.0646 44.4331C54.87 48.2055 53.1094 53.0014 53.1094 57.9374C53.1094 69.4734 62.4952 78.8593 74.0312 78.8593C78.9672 78.8593 83.7631 77.0986 87.5355 73.904L85.4546 71.4497C82.2632 74.1518 78.2076 75.6405 74.0312 75.6405Z" fill="white"/>
<path d="M74.0311 37.0156C69 37.0156 61 40.5 58 44.5L60.5 46.5C63.5 43.5 69.8548 40.2344 74.0311 40.2344C83.792 40.2344 91.7342 48.1766 91.7342 57.9375C91.7342 62.1138 88.5 68.5 85.5 71.5L87.5 74C91 70.5 94.953 62.8735 94.953 57.9375C94.953 46.4015 85 37.5 74.0311 37.0156Z" fill="white"/>
</svg>
