<?xml version="1.0" encoding="UTF-8"?>
<svg width="100" height="100" version="1.1" viewBox="0 0 100 100" xmlns="http://www.w3.org/2000/svg"><path d="m27.213 34.375-1.3906 2.4629c-2.5047 0.6422-4.9036 1.6285-7.1504 2.9395l-3.8457-1.9219-8.2227 8.2207 1.9238 3.8457c-1.2797 2.1922-2.2508 4.5293-2.8945 6.9668l-4.0703 1.3594v11.627l4.0723 1.3574c0.64218 2.4391 1.6113 4.7766 2.8926 6.9688l-1.9219 3.8457 8.2227 8.2227 3.8477-1.9219c1.7515 1.0343 5.3675 3.1043 5.5488 3.209l0.66992 0.38281 0.10547-0.044922v-9.0996l-0.011719 0.017578c-7.3344-3.0641-12.488-10.305-12.488-18.75 0-11.219 9.0938-20.312 20.312-20.312 6.0578 0 11.495 2.6531 15.217 6.8594l0.91016-11.824-1.9883 0.99219c-2.2469-1.3125-4.6473-2.2969-7.1504-2.9375l-1.3887-2.4648h-11.199zm2.4746 29.688v28.125h9.375v-25h23.438v-3.125h-23.438-9.375z" fill="#fa5b5a"/><path d="m14.062 1.5625c-2.5844 0-4.6875 2.1031-4.6875 4.6875 0 2.5844 2.1031 4.6875 4.6875 4.6875h10.938c0.8625 0 1.5625 0.7016 1.5625 1.5625 0 2.5844 2.1031 4.6875 4.6875 4.6875h18.75c0.8625 0 1.5625 0.7016 1.5625 1.5625v1.5625h3.125v-1.5625c0-2.5844-2.1031-4.6875-4.6875-4.6875h-18.75c-0.8625 0-1.5625-0.7016-1.5625-1.5625 0-2.5844-2.1031-4.6875-4.6875-4.6875h-10.938c-0.8625 0-1.5625-0.70156-1.5625-1.5625s0.7-1.5625 1.5625-1.5625h17.188v-3.125h-17.188zm31.25 0c-2.5844 0-4.6875 2.1031-4.6875 4.6875 0 2.5844 2.1031 4.6875 4.6875 4.6875h4.6875c4.3078 0 7.8125 3.5047 7.8125 7.8125v1.5625h3.125v-1.5625c0-6.0312-4.9078-10.938-10.938-10.938h-4.6875c-0.8625 0-1.5625-0.70156-1.5625-1.5625s0.7-1.5625 1.5625-1.5625h17.188v-3.125h-17.188zm29.688 3.125c-4.3078 0-7.8125 3.5047-7.8125 7.8125 0 4.3078 3.5047 7.8125 7.8125 7.8125h3.125c0.8625 0 1.5625 0.7016 1.5625 1.5625v1.5625h3.125v-1.5625c0-2.5844-2.1031-4.6875-4.6875-4.6875h-3.125c-2.5844 0-4.6875-2.1031-4.6875-4.6875 0-2.5844 2.1031-4.6875 4.6875-4.6875h10.938v-3.125h-10.938zm4.6875 6.25v3.125h14.062c0.8625 0 1.5625 0.7016 1.5625 1.5625s-0.7 1.5625-1.5625 1.5625h-3.125c-2.5844 0-4.6875 2.1031-4.6875 4.6875v1.5625h3.125v-1.5625c0-0.8609 0.7-1.5625 1.5625-1.5625h3.125c2.5844 0 4.6875-2.1031 4.6875-4.6875s-2.1031-4.6875-4.6875-4.6875h-14.062zm-31.137 12.5-1.8281 23.785c-3.8922-3.2156-8.7946-5.0352-13.91-5.0352-12.062 0-21.875 9.8125-21.875 21.875 0 8.5031 4.8766 16.137 12.5 19.754v14.621h75v-28.125h-3.2324l-3.125-43.75h-15.408l-3.125 43.75h-3.2344v-12.5h-3.7227l-2.6445-34.375h-15.395zm2.8965 3.125h9.6055l0.48242 6.25h-10.57l0.48242-6.25zm28.133 3.125h9.5898l0.44727 6.25h-10.484l0.44727-6.25zm-28.855 6.25h11.049l1.6836 21.875h-14.414l1.6816-21.875zm28.186 3.125h10.93l2.2344 31.25h-15.396l2.2324-31.25zm-46.098 6.25c5.1594 0 10.071 2.1469 13.605 5.8828l-0.50781 6.6172h-22.473v22.48c-5.7609-3.3188-9.375-9.4524-9.375-16.23 0-10.339 8.4109-18.75 18.75-18.75zm-6.25 15.625h40.625v9.375h-17.834l-7.166 7.166v17.834h-15.625v-34.375zm24.084 12.5h44.666v3.125h-47.791l3.125-3.125zm-5.334 6.25h50v15.625h-3.125v-12.5h-12.5v12.5h-3.125v-12.5h-12.5v12.5h-3.125v-12.5h-12.5v12.5h-3.125v-15.625zm6.25 6.25h6.25v9.375h-6.25v-9.375zm15.625 0h6.25v9.375h-6.25v-9.375zm15.625 0h6.25v9.375h-6.25v-9.375z" fill="#333"/></svg>
