<svg width="99" height="99" viewBox="0 0 99 99" fill="none" xmlns="http://www.w3.org/2000/svg">
<path d="M91.4513 52.6455H63.6529H60.5077H7.54837L0 71.5164H7.04044V98.2504H60.508H63.6532H91.9596V71.5164H99L91.4513 52.6455ZM4.64543 68.3713L9.67768 55.7907H59.7596L54.7273 68.3713H4.64543ZM60.508 95.1052H10.1856V71.5164H56.855L60.508 62.3829V95.1052ZM88.8141 95.1052H63.6529V62.3832L67.3059 71.5167H88.8141V95.1052ZM69.4356 68.3713L64.4033 55.7907H89.324L94.3563 68.3713H69.4356Z" fill="white"/>
<path d="M49.4993 49.4997L32.2012 35.3463H40.0639V0.75H58.9348V35.3467H66.7975L49.4993 49.4997Z" fill="#FA5B5A"/>
</svg>
