<?xml version="1.0" encoding="UTF-8"?>
<svg width="24" height="24" version="1.1" viewBox="0 0 24 24" xmlns="http://www.w3.org/2000/svg"><path d="m2.5527 1.6582-0.89453 1.7891 2.3965 1.1973 1.043 10.355h14.561l3.2598-7.6055-0.91797-1.3945h-15.814l-0.24023-2.6465-3.3926-1.6953zm3.8281 6.3418h14.102l-2.1426 5h-11.439l-0.51953-5zm0.61914 8c-1.6569 0-3 1.3431-3 3 0 1.6568 1.3431 3 3 3 1.6568 0 3-1.3432 3-3 0-1.6569-1.3432-3-3-3zm10 0c-1.6569 0-3 1.3431-3 3 0 1.6568 1.3431 3 3 3 1.6568 0 3-1.3432 3-3 0-1.6569-1.3432-3-3-3zm-10 2c0.55228 0 1 0.4477 1 1s-0.44772 1-1 1c-0.55229 0-1-0.4477-1-1s0.44771-1 1-1zm10 0c0.5522 0 1 0.4477 1 1s-0.4478 1-1 1c-0.5523 0-1-0.4477-1-1s0.4477-1 1-1z"/></svg>
