<?xml version="1.0" encoding="UTF-8"?>
<svg width="24" height="24" version="1.1" viewBox="0 0 24 24" xmlns="http://www.w3.org/2000/svg"><path d="m2.5527 1.6582-0.89453 1.7891 2.3965 1.1973 1.043 10.355h14.562l3.6523-8.5254-1.8379-0.78711-3.1348 7.3125h-11.438l-0.95703-9.6445zm9.4473 2.3418v2h-2v2h2v2h2v-2h2v-2h-2v-2zm-5 12c-1.6569 0-3 1.3431-3 3 0 1.6568 1.3431 3 3 3 1.6568 0 3-1.3432 3-3 0-1.6569-1.3432-3-3-3zm10 0c-1.6568 0-3 1.3431-3 3 0 1.6568 1.3432 3 3 3 1.6569 0 3-1.3432 3-3 0-1.6569-1.3431-3-3-3zm-10 2c0.55228 0 1 0.4477 1 1s-0.44772 1-1 1c-0.55229 0-1-0.4477-1-1s0.44771-1 1-1zm10 0c0.5523 0 1 0.4477 1 1s-0.4477 1-1 1-1-0.4477-1-1 0.4477-1 1-1z"/></svg>
