<?xml version="1.0" encoding="UTF-8"?>
<svg width="16" height="16" version="1.1" viewBox="0 0 16 16" xmlns="http://www.w3.org/2000/svg"><path d="m2.0002 0.58569-1.4142 1.4142 1.4805 1.4805 1.0866 6.5195h10.667l1.3568-6.7845-1.9611-0.39223-1.0354 5.1767h-7.333l-0.91342-5.4805zm3 10.414c-1.1046 0-2 0.8954-2 2 0 1.1045 0.89543 2 2 2s2-0.8955 2-2c0-1.1046-0.89543-2-2-2zm5 2c0-1.1046 0.8955-2 2-2 1.1046 0 2 0.8954 2 2s-0.8954 2-2 2c-1.1045 0-2-0.8954-2-2zm-2.5-12v2h-2v2h2v2h2v-2h2v-2h-2v-2z"/></svg>
