<?xml version="1.0" encoding="UTF-8"?>
<svg width="16" height="16" version="1.1" viewBox="0 0 16 16" xmlns="http://www.w3.org/2000/svg"><path d="m8.001 0c-4.4066 0-8.001 3.5944-8.001 8.001 1.2669e-7 4.4066 3.5944 7.999 8.001 7.999 4.4066 0 7.999-3.5924 7.999-7.999 0-4.4066-3.5924-8.001-7.999-8.001zm0 2.011c3.3198 1e-7 5.988 2.6702 5.988 5.9899 0 3.3198-2.6682 5.988-5.988 5.988-3.3198 0-5.9899-2.6682-5.9899-5.988 0-3.3198 2.6702-5.9899 5.9899-5.9899zm-0.96232 1.5083v4.9412l3.0166 3.0166 1.4219-1.4219-2.4274-2.4274v-4.1085z"/></svg>
