<?xml version="1.0" encoding="UTF-8"?>
<svg width="24" height="24" version="1.1" viewBox="0 0 24 24" xmlns="http://www.w3.org/2000/svg"><path d="m0 4v14h3.1699c0.41183 1.1652 1.5239 2 2.8301 2s2.4183-0.8348 2.8301-2h6.3398c0.4118 1.1652 1.5239 2 2.8301 2s2.4183-0.8348 2.8301-2h3.1699v-6.4141l-4.5859-4.5859h-5.4141v-0.41406l-2.5859-2.5859h-11.414zm2 2h8.5859l1.4141 1.4141v8.5859h-3.1699c-0.41183-1.1652-1.5239-2-2.8301-2s-2.4183 0.8348-2.8301 2h-1.1699v-10zm12 3h4.5859l3.4141 3.4141v3.5859h-1.1719c-0.4118-1.1652-1.5219-2-2.8281-2s-2.4183 0.8348-2.8301 2h-1.1699v-7zm-8 7c0.55228 0 1 0.4477 1 1s-0.44772 1-1 1-1-0.4477-1-1 0.44772-1 1-1zm12 0c0.5523 0 1 0.4477 1 1s-0.4477 1-1 1-1-0.4477-1-1 0.4477-1 1-1z"/></svg>
