<?xml version="1.0" encoding="UTF-8"?>
<svg width="48" height="48" viewBox="0 0 48 48" xmlns="http://www.w3.org/2000/svg">
<g clip-path="url(#clip0_16764_117504)">
<path d="M24 48C19.2533 48 14.6131 46.5924 10.6663 43.9553C6.71955 41.3181 3.64341 37.5698 1.8269 33.1844C0.0103989 28.799 -0.464881 23.9734 0.461164 19.3178C1.38721 14.6623 3.67299 10.3859 7.02945 7.02945C10.3859 3.67299 14.6623 1.38721 19.3178 0.461164C23.9734 -0.464881 28.799 0.0103989 33.1844 1.8269C37.5698 3.64341 41.3181 6.71955 43.9553 10.6663C46.5924 14.6131 48 19.2533 48 24C47.9931 30.3631 45.4624 36.4636 40.963 40.963C36.4636 45.4624 30.3631 47.9931 24 48ZM24 4.00001C20.0444 4.00001 16.1776 5.17299 12.8886 7.37062C9.59962 9.56825 7.03617 12.6918 5.52242 16.3463C4.00867 20.0009 3.6126 24.0222 4.38431 27.9018C5.15601 31.7814 7.06083 35.3451 9.85788 38.1422C12.6549 40.9392 16.2186 42.844 20.0982 43.6157C23.9778 44.3874 27.9992 43.9914 31.6537 42.4776C35.3082 40.9639 38.4318 38.4004 40.6294 35.1114C42.827 31.8224 44 27.9556 44 24C43.9942 18.6975 41.8852 13.6138 38.1357 9.86431C34.3863 6.11484 29.3026 4.00583 24 4.00001Z" />
<path d="M26 10H22V30H26V10Z"/>
<path d="M26 34H22V38H26V34Z" />
</g>
<defs>
<clipPath id="clip0_16764_117504">
<rect width="48" height="48" fill="white"/>
</clipPath>
</defs>
</svg>
