<?xml version="1.0" encoding="UTF-8"?>
<svg width="16" height="16" version="1.1" viewBox="0 0 16 16" xmlns="http://www.w3.org/2000/svg"><path d="m8.002 2.666c-4.0603 0-6.4054 3.3561-7.2148 4.8594l-0.027344 0.89258c0.72026 1.5606 2.9114 4.9141 7.2422 4.9141 4.3308 0 6.5199-3.3535 7.2402-4.9141l-0.027344-0.89258c-0.8095-1.5033-3.1526-4.8594-7.2129-4.8594zm0 2c2.5873 0 4.3271 1.9626 5.1934 3.3652-0.75212 1.3601-2.3857 3.3008-5.1934 3.3008-2.808 0-4.4433-1.9406-5.1953-3.3008 0.86629-1.4026 2.608-3.3652 5.1953-3.3652zm-0.0019531 1.334a2 2 0 0 0-2 2 2 2 0 0 0 2 2 2 2 0 0 0 2-2 2 2 0 0 0-2-2z"/></svg>
