<?xml version="1.0" encoding="UTF-8"?>
<svg width="24" height="24" version="1.1" viewBox="0 0 24 24" xmlns="http://www.w3.org/2000/svg"><path d="m8 3c-1.8638 0-3.4289 1.2748-3.873 3h-2.127v2h2.127c0.44404 1.7252 2.0091 3 3.873 3s3.4289-1.2748 3.873-3h10.127v-2h-10.127c-0.4441-1.7252-2.0092-3-3.873-3zm0 2c1.1046 0 2 0.89543 2 2s-0.89543 2-2 2-2-0.89543-2-2 0.8954-2 2-2zm8 8c-1.8638 0-3.4289 1.2748-3.873 3h-10.127v2h10.127c0.4441 1.7252 2.0092 3 3.873 3s3.4289-1.2748 3.873-3h2.127v-2h-2.127c-0.4441-1.7252-2.0092-3-3.873-3zm0 2c1.1046 0 2 0.8954 2 2s-0.8954 2-2 2-2-0.8954-2-2 0.8954-2 2-2z"/></svg>
