<?xml version="1.0" encoding="UTF-8"?>
<svg width="24" height="24" version="1.1" viewBox="0 0 24 24" xmlns="http://www.w3.org/2000/svg"><path d="m7.5312 1-5.5312 6.6387v6.3613c0 1.6569 1.3432 3 3 3s3-1.3431 3-3v-3c0-1.6568-1.3432-3-3-3-0.27149 0-0.53504 0.035916-0.78516 0.10352l4.2539-5.1035h7.0625l4.2539 5.1035c-0.2501-0.0676-0.51366-0.10352-0.78516-0.10352-1.6569 0-3 1.3432-3 3v3c0 1.2397 0.75152 2.3045 1.8242 2.7617l-1.4297 1.4297c-0.5477-0.724-1.4167-1.1914-2.3945-1.1914h-2c-1.6569 0-3 1.3431-3 3s1.3431 3 3 3h2c1.5048 0 2.7508-1.108 2.9668-2.5527l5.0332-5.0332v-7.7754l-5.5312-6.6387h-8.9375zm-2.5312 9c0.55228 0 1 0.4477 1 1v3c0 0.5523-0.44772 1-1 1s-1-0.4477-1-1v-3c0-0.5523 0.44772-1 1-1zm14 0c0.5523 0 1 0.4477 1 1v3c0 0.5523-0.4477 1-1 1s-1-0.4477-1-1v-3c0-0.5523 0.4477-1 1-1zm-7 9h2c0.5523 0 1 0.4477 1 1s-0.4477 1-1 1h-2c-0.5523 0-1-0.4477-1-1s0.4477-1 1-1z"/></svg>
