<?xml version="1.0" encoding="UTF-8"?>
<svg width="24" height="24" version="1.1" viewBox="0 0 24 24" xmlns="http://www.w3.org/2000/svg"><path d="m7.7461 3.041c-0.66833-0.075861-1.3404-0.040531-1.9922 0.10938-2.6072 0.59962-4.7539 3.107-4.7539 6.9316 0 1.5914 0.41515 2.8291 1.8535 4.4004s3.9117 3.7732 8.4453 8.2305h1.4023c4.5336-4.4573 7.0069-6.6592 8.4453-8.2305 1.4384-1.5713 1.8535-2.8091 1.8535-4.4004 0-3.8246-2.1467-6.332-4.7539-6.9316-2.2-0.50597-4.5985 0.36545-6.2461 2.332-1.1594-1.3839-2.6664-2.2612-4.2539-2.4414zm-1.5449 2.0586c1.7109-0.39349 3.7523 0.35502 4.9219 2.4844h1.7539c1.1695-2.1294 3.2109-2.8779 4.9219-2.4844 1.7109 0.39349 3.2012 1.8553 3.2012 4.9824 0 1.3879-0.03922 1.6408-1.3281 3.0488-1.1809 1.2901-3.803 3.6986-7.6719 7.4727-3.8689-3.7741-6.491-6.1826-7.6719-7.4727-1.2889-1.408-1.3281-1.6609-1.3281-3.0488 0-3.1272 1.4902-4.5889 3.2012-4.9824z"/></svg>
