<?xml version="1.0" encoding="UTF-8"?>
<svg width="20" height="20" version="1.1" viewBox="0 0 20 20" xmlns="http://www.w3.org/2000/svg"><path d="m10 17.5c-1.9167 0-3.5867-0.6356-5.01-1.9067-1.4239-1.2705-2.24-2.8572-2.4483-4.76h1.7083c0.19444 1.4445 0.83667 2.6389 1.9267 3.5834 1.0906 0.9444 2.365 1.4166 3.8233 1.4166 1.625 0 3.0033-0.5661 4.135-1.6983 1.1322-1.1317 1.6983-2.51 1.6983-4.135s-0.5661-3.0036-1.6983-4.1358c-1.1317-1.1317-2.51-1.6975-4.135-1.6975-0.95833 0-1.8542 0.22222-2.6875 0.66666-0.83333 0.44445-1.5347 1.0556-2.1042 1.8333h2.2917v1.6667h-5v-5h1.6667v1.9583c0.70833-0.88889 1.573-1.5764 2.5942-2.0625 1.0206-0.48611 2.1003-0.72917 3.2392-0.72917 1.0417 0 2.0175 0.19778 2.9275 0.59333 0.9094 0.39611 1.7011 0.93084 2.375 1.6042 0.6733 0.67389 1.2081 1.4656 1.6042 2.375 0.3955 0.91 0.5933 1.8858 0.5933 2.9275 0 1.0417-0.1978 2.0172-0.5933 2.9267-0.3961 0.91-0.9309 1.7016-1.6042 2.375-0.6739 0.6739-1.4656 1.2089-2.375 1.605-0.91 0.3955-1.8858 0.5933-2.9275 0.5933zm2.3333-4-3.1666-3.1667v-4.5h1.6666v3.8333l2.6667 2.6666z"/></svg>
