<?xml version="1.0" encoding="UTF-8"?>
<svg width="16" height="16" viewBox="0 0 16 16" xmlns="http://www.w3.org/2000/svg"><path d="M1.97674 8C1.97674 4.67345 4.67345 1.97674 8 1.97674C11.3266 1.97674 14.0233 4.67345 14.0233 8C14.0233 11.3266 11.3266 14.0233 8 14.0233C4.67345 14.0233 1.97674 11.3266 1.97674 8ZM8 1C4.13401 1 1 4.13401 1 8C1 11.866 4.13401 15 8 15C11.866 15 15 11.866 15 8C15 4.13401 11.866 1 8 1ZM7.51163 4.74419V5.72093H8.48837V4.74419H7.51163ZM7.51163 7.34884V11.2558H8.48837V7.34884H7.51163Z" /></svg>
