<?xml version="1.0" encoding="UTF-8"?>
<svg width="64" height="64" version="1.1" viewBox="0 0 64 64" xmlns="http://www.w3.org/2000/svg"><path d="m22 3.1719-10.828 10.828 2.8457 2.8457c-1.2105 1.4031-2.0176 3.1704-2.0176 5.1543 0 0.62911 0.22182 1.1888 0.36133 1.7773-1.4725 3.1114-2.3613 6.5601-2.3613 10.223 0 5.2213 1.6893 10.055 4.5293 14h-2.5293v12h40v-12h-13.172l14.586-14.586-2.8281-2.8281-13.879 13.879c-1.0994-1.4558-2.7607-2.4648-4.707-2.4648-1.7529 0-3.3028 0.79918-4.4043 2.0156-3.3233-2.1301-5.5957-5.7566-5.5957-10.016 0-1.6455 0.37191-3.1837 0.9668-4.6055 0.81932-0.33195 1.5272-0.84246 2.1875-1.4121l6.8457 6.8457 10.828-10.828-20.828-20.828zm0 5.6562 15.172 15.172-5.1719 5.1719-4.5371-4.5371c0.29789-0.83468 0.53711-1.7021 0.53711-2.6348 0-4.3946-3.6054-8-8-8-0.9327 0-1.8001 0.23922-2.6348 0.53711l-0.53711-0.53711 5.1719-5.1719zm-2 9.1719c2.2328 0 4 1.7672 4 4s-1.7672 4-4 4-4-1.7672-4-4 1.7672-4 4-4zm24.586 8.5859-10 10 2.8281 2.8281 10-10-2.8281-2.8281zm-29.588 1.5c1.0377 0.85483 2.2768 1.3922 3.6484 1.6387-0.38195 1.3712-0.64648 2.788-0.64648 4.2754 0 5.8981 3.2794 10.968 8.0527 13.74-0.004176 0.090882-0.052734 0.16793-0.052734 0.25977h-6.2012c-3.5613-3.6117-5.7988-8.5174-5.7988-14 0-2.0796 0.41177-4.0338 0.99805-5.9141zm17.002 17.914c1.1282 0 2 0.87182 2 2s-0.87182 2-2 2-2-0.87182-2-2 0.87182-2 2-2zm-16 6h11.607c1.1009 1.2081 2.6466 2 4.3926 2s3.2917-0.79193 4.3926-2h11.607v4h-32v-4z"/></svg>
