<?xml version="1.0" encoding="UTF-8"?>
<svg width="16" height="16" viewBox="0 0 16 16" xmlns="http://www.w3.org/2000/svg">
<g clip-path="url(#clip0_1031_15432)">
<path fill-rule="evenodd" clip-rule="evenodd" d="M6.52668 7.00003H9.47332C9.39597 5.56549 9.15599 4.31048 8.82603 3.38659C8.62215 2.81573 8.4027 2.42458 8.20906 2.19525C8.10366 2.07042 8.03319 2.02321 8 2.00633C7.96681 2.02321 7.89634 2.07042 7.79094 2.19525C7.5973 2.42458 7.37785 2.81573 7.17397 3.38659C6.84401 4.31048 6.60403 5.56549 6.52668 7.00003ZM9.47331 9.00003C9.39596 10.4345 9.15598 11.6895 8.82603 12.6134C8.62215 13.1843 8.4027 13.5754 8.20906 13.8048C8.10366 13.9296 8.03319 13.9768 8 13.9937C7.96681 13.9768 7.89634 13.9296 7.79094 13.8048C7.5973 13.5754 7.37785 13.1843 7.17397 12.6134C6.84402 11.6895 6.60404 10.4345 6.52669 9.00003H9.47331ZM11.4759 9.00003H13.917C13.5951 10.9188 12.3626 12.5287 10.679 13.3702C10.6893 13.3423 10.6995 13.3142 10.7095 13.2861C11.1259 12.1203 11.3968 10.6299 11.4759 9.00003ZM13.917 7.00003H11.4759C11.3968 5.37009 11.1259 3.87969 10.7095 2.71392C10.6995 2.6858 10.6893 2.65779 10.679 2.62988C12.3626 3.4714 13.5951 5.08132 13.917 7.00003ZM4.52408 7.00003H2.08296C2.40486 5.08132 3.6374 3.4714 5.32096 2.62988C5.31069 2.65778 5.30053 2.6858 5.29049 2.71392C4.87414 3.87969 4.60321 5.37009 4.52408 7.00003ZM4.52409 9.00003H2.08296C2.40486 10.9188 3.63741 12.5287 5.32099 13.3702C5.31071 13.3423 5.30054 13.3142 5.29049 13.2861C4.87415 12.1203 4.60321 10.6299 4.52409 9.00003ZM7.98738 4.02571e-05L8 0L8.01262 4.02571e-05C12.4251 0.00685217 16 3.58596 16 8.00003C16 12.4183 12.4183 16 8 16C3.58172 16 0 12.4183 0 8.00003C0 3.58596 3.5749 0.00685217 7.98738 4.02571e-05Z"/>
</g>
<defs>
<clipPath id="clip0_1031_15432">
<rect width="16" height="16" fill="white"/>
</clipPath>
</defs>
</svg>
