<?xml version="1.0" encoding="UTF-8"?>
<svg width="24" height="24" version="1.1" viewBox="0 0 24 24" xmlns="http://www.w3.org/2000/svg"><path d="m12 1c-4.9834 0-9 4.2018-9 9 0 1.6545 0.79649 3.5031 2.1621 5.5391 1.3811 2.0591 3.4305 4.4341 6.127 7.1641h1.4219c2.6964-2.7299 4.7459-5.105 6.127-7.1641 1.3657-2.036 2.1621-3.8845 2.1621-5.5391 0-4.7982-4.0166-9-9-9zm0 2c3.8532 0 7 3.2805 7 7 0 1.0534-0.52667 2.4942-1.8223 4.4258-1.1631 1.7341-2.8797 3.7685-5.1777 6.1445-2.298-2.3761-4.0146-4.4105-5.1777-6.1445-1.2956-1.9317-1.8223-3.3724-1.8223-4.4258 0-3.7195 3.1468-7 7-7zm0 5c-1.1046 0-2 0.89543-2 2 0 1.1046 0.8954 2 2 2s2-0.8954 2-2c0-1.1046-0.8954-2-2-2z"/></svg>
