<?xml version="1.0" encoding="UTF-8"?>
<svg width="16" height="17" version="1.1" viewBox="0 0 16 17" xmlns="http://www.w3.org/2000/svg"><path d="m8 1.5c-3.2879 0-6 2.6677-6 5.8008 0 1.0994 0.53718 2.4082 1.4004 3.7734 0.88391 1.3979 2.1881 2.9765 3.9023 4.6426h1.3945c1.7142-1.6661 3.0183-3.2446 3.9023-4.6426 0.8632-1.3652 1.4004-2.6741 1.4004-3.7734 0-3.133-2.7121-5.8008-6-5.8008zm0 2c2.2349 0 4 1.8232 4 3.8008 0 0.52541-0.28974 1.4397-1.0898 2.7051-0.6639 1.05-1.6296 2.2627-2.9102 3.5801-1.2806-1.3174-2.2463-2.5301-2.9102-3.5801-0.8001-1.2653-1.0898-2.1797-1.0898-2.7051 0-1.9776 1.7651-3.8008 4-3.8008zm0 2c-1.1046 0-2 0.89543-2 2s0.89543 2 2 2 2-0.89543 2-2-0.89543-2-2-2z"/></svg>
