<?xml version="1.0" encoding="UTF-8"?>
<svg width="32" height="32" version="1.1" viewBox="0 0 32 32" xmlns="http://www.w3.org/2000/svg"><path d="m10.639 1.666a1.0001 1.0001 0 0 0-0.064453 0.017578 1 1 0 0 0-0.35547 0.10156 1.0001 1.0001 0 0 0-0.048828 0.013672l-9.332 5.332a1.0001 1.0001 0 0 0-0.50391 0.86914v21.334a1.0001 1.0001 0 0 0 1.4961 0.86719l8.8672-5.0684 10.189 5.0957a1.0001 1.0001 0 0 0 0.03125 0.007812 1 1 0 0 0 0.41602 0.097656 1 1 0 0 0 0.013672-0.001953 1.0001 1.0001 0 0 0 0.078125-0.015625 1 1 0 0 0 0.35547-0.10156 1.0001 1.0001 0 0 0 0.048828-0.013672l9.332-5.332a1.0001 1.0001 0 0 0 0.50391-0.86914v-21.334a1.0001 1.0001 0 0 0-1.4961-0.86719l-8.8672 5.0684-10.189-5.0957a1.0001 1.0001 0 0 0-0.003906-0.0019532 1 1 0 0 0-0.44336-0.10352 1 1 0 0 0-0.013672 0.0019532 1.0001 1.0001 0 0 0-0.013672-0.0019532zm1.0273 2.6191 8.668 4.334v19.096l-8.668-4.334v-19.096zm-2 0.10547v19.027l-7.332 4.1914v-19.027l7.332-4.1914zm20 0v19.029l-7.332 4.1895v-19.027l7.332-4.1914z"/></svg>
