<?xml version="1.0" encoding="UTF-8"?>
<svg width="30" height="30" version="1.1" viewBox="0 0 30 30" xmlns="http://www.w3.org/2000/svg"><path d="m24 1.7715-14 5.3848v14.904c-0.63639-0.65207-1.521-1.0605-2.5-1.0605-1.9271 0-3.5 1.5729-3.5 3.5s1.5729 3.5 3.5 3.5c1.8883 0 3.4267-1.5129 3.4883-3.3867 0.025717-3.9105 0.011719-7.8494 0.011719-11.77l12-4.6152v10.832c-0.63639-0.65207-1.521-1.0605-2.5-1.0605-1.9271 0-3.5 1.5729-3.5 3.5s1.5729 3.5 3.5 3.5c1.8883 0 3.4267-1.5129 3.4883-3.3867 0.021398-6.8948 0.011719-13.932 0.011719-19.842zm-1 1.457v3.9277l-12 4.6152v-3.9277zm-2.5 15.771c1.3866 0 2.5 1.1134 2.5 2.5s-1.1134 2.5-2.5 2.5-2.5-1.1134-2.5-2.5 1.1134-2.5 2.5-2.5zm-13 3c1.3866 0 2.5 1.1134 2.5 2.5s-1.1134 2.5-2.5 2.5-2.5-1.1134-2.5-2.5 1.1134-2.5 2.5-2.5z"></path></svg>