<?xml version="1.0" encoding="UTF-8"?>
<svg width="16" height="17" version="1.1" viewBox="0 0 16 17" xmlns="http://www.w3.org/2000/svg"><path d="m2 1.5-1 1c0 3.6847 1.0542 6.9547 3.2715 9.3105 2.2269 2.3661 5.5135 3.6895 9.7285 3.6895l1-1v-5l-1-1h-3l-0.70703 0.29297-0.45898 0.45898c-0.60043-0.34597-1.1097-0.69174-1.502-1.084-0.39225-0.39224-0.73802-0.90152-1.084-1.502l0.45898-0.45898 0.29297-0.70703v-3l-1-1zm1.0371 2h2.9629v1.5859l-1.2168 1.2168 0.32227 0.64453c0.53016 1.0603 1.0876 1.9098 1.8125 2.6348 0.72492 0.72493 1.5744 1.2823 2.6348 1.8125l0.64453 0.32227 1.2168-1.2168h1.5859v2.9609c-3.2627-0.19165-5.6603-1.3096-7.2715-3.0215-1.5993-1.6992-2.5179-4.0757-2.6914-6.9395z"/></svg>
