<?xml version="1.0" encoding="UTF-8"?>
<svg width="24" height="24" version="1.1" viewBox="0 0 24 24" xmlns="http://www.w3.org/2000/svg"><path d="m2 1-1 1c0 10.486 8.3838 21 21 21l1-1v-6l-0.68359-0.94922-6-2-1.0234 0.24219-1.4043 1.4043c-1.0685-0.73942-1.8957-1.3683-2.5566-2.0293-0.66096-0.66096-1.2898-1.4881-2.0293-2.5566l1.4043-1.4043 0.24219-1.0234-2-6-0.94922-0.68359h-6zm1.0488 2h4.2305l1.5762 4.7305-2.1426 2.1426 0.45508 0.68164c1.0112 1.5168 1.8046 2.5819 2.75 3.5273 0.94541 0.9454 2.0105 1.7387 3.5273 2.75l0.68164 0.45508 2.1426-2.1426 4.7305 1.5762v4.2539c-10.436-0.51708-17.456-9.0887-17.951-17.975z"/></svg>
