<?xml version="1.0" encoding="UTF-8"?>
<svg width="24" height="24" version="1.1" viewBox="0 0 24 24" xmlns="http://www.w3.org/2000/svg"><path d="m12 1c-6.0751 0-11 4.9249-11 11 0 1.5679 0.32906 3.062 0.92188 4.4141l-1.8633 5.252 1.2285 1.291 5.0645-1.5156c1.6515 0.9899 3.5851 1.5586 5.6484 1.5586 6.0752 0 11-4.9249 11-11 0-6.0751-4.9248-11-11-11zm0 2c4.9706 0 9 4.0294 9 9 0 4.9706-4.0294 9-9 9-1.83 0-3.5297-0.54592-4.9492-1.4824l-0.39062-0.25586-4.0586 1.2148 1.4805-4.1719-0.18164-0.37695c-0.57594-1.1856-0.90039-2.5177-0.90039-3.9277 0-4.9706 4.0295-9 9-9zm-0.015625 3.2344c-1.3083 0.0218-2.6304 0.72154-3.7656 2.1406l-0.625 0.78125 1.5625 1.25 0.625-0.78125c0.86469-1.0809 1.6695-1.3812 2.2363-1.3906 0.5806-0.00968 1.0963 0.27825 1.4238 0.72852 0.328 0.45098 0.43004 1.0124 0.24414 1.5234-0.181 0.4979-0.70685 1.1328-2.002 1.5645l-0.94922 0.31641 0.63281 1.8984 0.94922-0.31641c1.7049-0.5683 2.8041-1.5586 3.248-2.7793 0.4392-1.2078 0.16614-2.4588-0.50586-3.3828-0.6726-0.92474-1.7798-1.5743-3.0742-1.5527zm-0.98438 9.7656v2h2v-2h-2z"/></svg>
