<?xml version="1.0" encoding="UTF-8"?>
<svg width="24" height="24" version="1.1" viewBox="0 0 24 24" xmlns="http://www.w3.org/2000/svg"><path d="m3.9453 11.778c0-4.3263 3.5071-7.8334 7.8333-7.8334 1.6031 0 3.0908 0.48043 4.3309 1.305 0.6172 0.4104 1.7868 1.4521 2.8609 2.4552 0.4366 0.40784 0.8436 0.79606 1.1698 1.1102h-4.4541v2h6.8888l1-0.99999v-6.8889h-2v4.494c-0.3392-0.32704-0.7721-0.74052-1.2393-1.1769-1.0414-0.97259-2.3369-2.1393-3.1187-2.6591-1.5581-1.0359-3.4292-1.6395-5.4383-1.6395-5.4308 0-9.8333 4.4025-9.8333 9.8334 0 5.4308 4.4025 9.8333 9.8333 9.8333 4.2831 0 7.9242-2.7377 9.2736-6.5556l0.3332-0.9429-1.8856-0.6665-0.3333 0.9429c-1.0758 3.0438-3.9787 5.2221-7.3879 5.2221-4.3262 0-7.8333-3.5071-7.8333-7.8333z"/></svg>
