<?xml version="1.0" encoding="UTF-8"?>
<svg width="16" height="16" version="1.1" viewBox="0 0 16 16" xmlns="http://www.w3.org/2000/svg"><path d="m1.4546 7.5c0-3.3137 2.6049-6 5.8182-6 1.1906 0 2.2956 0.36799 3.2168 0.99955 0.4585 0.31438 1.326 1.1112 2.1216 1.8776 0.3347 0.32233 0.6458 0.62862 0.8915 0.87283h-3.3208v1.5h5.0909l0.7273-0.75v-5.25h-1.4545v3.4532c-0.2547-0.25336-0.5846-0.57854-0.9415-0.9223-0.7718-0.74342-1.731-1.634-2.3092-2.0305-1.1523-0.7901-2.5362-1.2504-4.0221-1.2504-4.0166 0-7.2727 3.3579-7.2727 7.5 0 4.1421 3.2561 7.5 7.2727 7.5 3.1678 0 5.8607-2.0881 6.8587-5.0001l0.2424-0.70714-1.3714-0.49986-0.2424 0.70712c-0.799 2.3314-2.9551 3.9999-5.4873 3.9999-3.2133 0-5.8182-2.6863-5.8182-6z"/></svg>
