<?xml version="1.0" encoding="UTF-8"?>
<svg width="24" height="24" version="1.1" viewBox="0 0 24 24" xmlns="http://www.w3.org/2000/svg"><path d="m11 1a1.0001 1.0001 0 0 0-0.91406 0.59375l-3.7363 8.4062h-2.3496c-0.79525 0-1.5587 0.31651-2.1211 0.87891-0.56232 0.56235-0.87891 1.3259-0.87891 2.1211v7c0 0.79524 0.31659 1.5587 0.87891 2.1211 0.56235 0.56239 1.3258 0.87891 2.1211 0.87891h14.27c0.72337 0.0082 1.4255-0.24638 1.9766-0.71484 0.55032-0.46781 0.91255-1.1198 1.0215-1.834l1.3809-9a1.0001 1.0001 0 0 0 0-2e-3c0.06524-0.42986 0.03743-0.86732-0.08398-1.2852-0.12122-0.41775-0.33195-0.80466-0.61719-1.1328-0.28531-0.32801-0.64034-0.58951-1.0371-0.76758-0.3968-0.1781-0.8269-0.26859-1.2617-0.26367h-4.6484v-3c0-1.0605-0.42203-2.0783-1.1719-2.8281-0.74988-0.7499-1.7677-1.1719-2.8281-1.1719zm0.54883 2.2266c0.30397 0.095741 0.63551 0.12964 0.86524 0.35938 0.37535 0.37536 0.58594 0.88327 0.58594 1.4141v4a1.0001 1.0001 0 0 0 1 1h5.6602a1.0001 1.0001 0 0 0 0.01172 0c0.14498-0.00164 0.28773 0.02856 0.41992 0.08789 0.13223 0.05935 0.25042 0.14631 0.3457 0.25586 0.09516 0.10945 0.16469 0.23775 0.20508 0.37695 0.04038 0.13897 0.05105 0.28634 0.0293 0.42969l-1.3809 8.998a1.0001 1.0001 0 0 0 0 2e-3c-0.03617 0.23857-0.15587 0.45493-0.33984 0.61133-0.18391 0.15629-0.41893 0.24099-0.66016 0.23824a1.0001 1.0001 0 0 0-0.01172 0h-10.279v-9.7871zm-7.5488 8.7734h2v9h-2c-0.26561 0-0.51924-0.10516-0.70703-0.29297-0.18784-0.18785-0.29297-0.44148-0.29297-0.70703v-7c0-0.26556 0.10513-0.51918 0.29297-0.70703 0.18779-0.18781 0.44142-0.29297 0.70703-0.29297z"/></svg>
