<?xml version="1.0" encoding="UTF-8"?>
<svg width="20" height="20" version="1.1" viewBox="0 0 20 20" xmlns="http://www.w3.org/2000/svg">
 <path d="m10 1a9 9 0 0 0-9 9 9 9 0 0 0 9 9 9 9 0 0 0 9-9 9 9 0 0 0-9-9zm0 2a7 7 0 0 1 7 7 7 7 0 0 1-7 7 7 7 0 0 1-7-7 7 7 0 0 1 7-7zm-0.017578 2.0293c-1.152 0.0192-2.2951 0.63496-3.2637 1.8457l-0.625 0.78125 1.5625 1.25 0.625-0.78125c0.69808-0.8726 1.3258-1.0889 1.7363-1.0957 0.4243-0.00707 0.80473 0.20143 1.0488 0.53711 0.2447 0.3364 0.31534 0.74741 0.18164 1.1152-0.129 0.35476-0.51937 0.85473-1.5645 1.2031l-0.94922 0.31641 0.63281 1.8965 0.94922-0.31641c1.4549-0.485 2.4187-1.3384 2.8105-2.416 0.3871-1.0644 0.14534-2.1652-0.44336-2.9746-0.5892-0.81016-1.563-1.3803-2.7012-1.3613zm-0.98242 8.3047v1.666h2v-1.666h-2z"/>
</svg>
