<?xml version="1.0" encoding="UTF-8"?>
<svg width="24" height="24" version="1.1" viewBox="0 0 24 24" xmlns="http://www.w3.org/2000/svg"><path d="m18.773 2 0.7072 1.7071-2.1214 2.1213 0.7071 0.7071 2.1214-2.1213 1.7071 0.70711v4.6568c-0.9169 0.91697-1.879 1.879-2.6703 2.6702-1.1399 0.10369-2.2798 0.20728-3.4197 0.3109l5.4435 5.4435-4.2426 4.2426c-1.8856-1.8856-3.7713-3.7712-5.6569-5.6568-1.6499 1.6499-3.2998 3.2998-4.9497 4.9497-1.4485-1.4485-2.9864-2.9864-4.2426-4.2426 2.1213-2.1213 4.2427-4.2427 6.364-6.364l-1.8856-1.8856c-0.88786-0.12683-1.7757-0.25367-2.6636-0.38051-0.67611-1.3522-1.387-2.7739-1.9709-3.9417l1.7264-1.7264c1.4453 0.72263 2.6309 1.3155 3.9417 1.9709 0.12682 0.88786 0.25367 1.7757 0.38051 2.6636l1.8856 1.8856 1.1581-1.1581c0.11786-1.2964 0.23571-2.5927 0.3536-3.8891 0.9766-0.97664 1.7882-1.7882 2.6702-2.6702zm-6.0103 13.374 4.2426 4.2427 1.4142-1.4142-4.2426-4.2427zm2.1819-11.374-1.5724 1.5724c-0.11786 1.2964-0.23571 2.5927-0.3536 3.8891-2.678 2.6781-5.3561 5.3561-8.0341 8.0342l1.4142 1.4142 8.0342-8.0342c1.2963-0.1179 2.5927-0.23568 3.889-0.3535l1.5725-1.5724v-1.4142c-0.60952 0.60945-1.219 1.2189-1.8285 1.8284-1.203-1.2031-2.4887-2.4887-3.5355-3.5355 0.60947-0.60948 1.2189-1.219 1.8284-1.8284zm-9.0173 3.1247-0.0909-0.63625-1.0907-0.54536 0.54536 1.0907z"/></svg>
