<?xml version="1.0" encoding="UTF-8"?>
<svg width="16" height="16" version="1.1" viewBox="0 0 16 16" xmlns="http://www.w3.org/2000/svg"><path d="m7.9883 0c-4.4125 0.0068119-7.9883 3.5859-7.9883 8 0 4.4183 3.5817 8 8 8 4.4183 0 8-3.5817 8-8 0-4.4141-3.5758-7.9932-7.9883-8h-0.011719-0.011719zm0.011719 2.0059c0.03319 0.01688 0.10358 0.064623 0.20898 0.18945 0.19364 0.22933 0.41331 0.62055 0.61719 1.1914 0.32996 0.92389 0.56913 2.1787 0.64648 3.6133h-2.9453c0.07735-1.4345 0.31652-2.6894 0.64648-3.6133 0.20388-0.57086 0.42355-0.96208 0.61719-1.1914 0.1054-0.12483 0.17579-0.17257 0.20898-0.18945zm-2.6797 0.62305c-0.01027 0.0279-0.019257 0.057818-0.029297 0.085938-0.41635 1.1658-0.68845 2.6552-0.76758 4.2852h-2.4414c0.3219-1.9187 1.5547-3.5296 3.2383-4.3711zm5.3594 0c1.6836 0.84152 2.9164 2.4524 3.2383 4.3711h-2.4414c-0.079098-1.6299-0.35118-3.1194-0.76758-4.2852-0.01-0.02812-0.018997-0.058028-0.029296-0.085938zm-8.5977 6.3711h2.4414c0.07912 1.6299 0.35124 3.1194 0.76758 4.2852 0.01005 0.0281 0.019017 0.058038 0.029297 0.085938-1.6836-0.8415-2.9164-2.4523-3.2383-4.3711zm4.4453 0h2.9453c-0.07735 1.4345-0.31653 2.6894-0.64648 3.6133-0.20388 0.5709-0.42355 0.96201-0.61719 1.1914-0.1054 0.1248-0.17579 0.17255-0.20898 0.18945-0.03319-0.0169-0.10358-0.064655-0.20898-0.18945-0.19364-0.2294-0.41331-0.62051-0.61719-1.1914-0.32995-0.9239-0.56913-2.1788-0.64648-3.6133zm4.9492 0h2.4414c-0.3219 1.9188-1.5547 3.5296-3.2383 4.3711 0.010299-0.0279 0.019296-0.057838 0.029296-0.085938 0.4164-1.1658 0.68848-2.6553 0.76758-4.2852z"/></svg>
