<?xml version="1.0" encoding="UTF-8"?>
<svg width="24" height="24" version="1.1" viewBox="0 0 24 24" xmlns="http://www.w3.org/2000/svg"><path d="m8.5 0c-1.3728 0-2.5 1.127-2.5 2.5v13.396c-1.4369 1.0093-2.3428 2.7657-1.8652 4.7285a0.50005 0.50005 0 0 0 0 0.001953c0.396 1.5958 1.6789 2.8809 3.291 3.2461 2.9257 0.68986 5.5742-1.5383 5.5742-4.3672 0-1.5368-0.82985-2.8251-2-3.6387v-13.367c0-1.373-1.1272-2.5-2.5-2.5zm8.0137 0a0.50005 0.50005 0 0 0-0.41406 0.19922l-3 4.002a0.50005 0.50005 0 0 0 0.40039 0.80078h2.5v10.502a0.50005 0.50005 0 1 0 1 0v-10.502h2.5a0.50005 0.50005 0 0 0 0.40039-0.80078l-3-4.002a0.50005 0.50005 0 0 0-0.38672-0.19922zm-8.0137 1c0.82719 0 1.5 0.67231 1.5 1.5v13.555a0.50005 0.50005 0 0 0 0.24609 0.43164c1.0477 0.61645 1.7539 1.7215 1.7539 3.0195 0 2.2127-2.0114 3.945-4.3457 3.3945a0.50005 0.50005 0 0 0-0.0039063-0.001953c-1.2258-0.27628-2.2413-1.29-2.5449-2.5137-0.40625-1.6775 0.37296-3.1517 1.6465-3.8984a0.50005 0.50005 0 0 0 0.24805-0.43164v-13.555c0-0.82769 0.67281-1.5 1.5-1.5zm8 0.33398 2 2.668h-1.9082a0.50005 0.50005 0 0 0-0.099609-0.0078125 0.50005 0.50005 0 0 0-0.074219 0.0078125h-1.918l2-2.668zm-8.0078 1.6602a0.50005 0.50005 0 0 0-0.49219 0.50586v14.6c-0.57904 0.20846-1 0.75934-1 1.4062 0 0.8226 0.67743 1.5 1.5 1.5s1.5-0.6774 1.5-1.5c0-0.64692-0.42096-1.1978-1-1.4062v-14.6a0.50005 0.50005 0 0 0-0.50781-0.50586zm-0.023438 16.018a0.50005 0.50005 0 0 0 0.0625 0c0.26575 0.016296 0.46875 0.22297 0.46875 0.49414 0 0.28233-0.21801 0.5-0.5 0.5s-0.5-0.21767-0.5-0.5c0-0.27117 0.203-0.47784 0.46875-0.49414z"></path></svg>