<?xml version="1.0" encoding="UTF-8"?>
<svg width="24" height="24" version="1.1" viewBox="0 0 24 24" xmlns="http://www.w3.org/2000/svg"><path d="m4.5 0c-0.82253 0-1.5 0.67747-1.5 1.5v20.994c0 0.82253 0.67747 1.498 1.5 1.498h10.914a0.50005 0.50005 0 0 0 0.48047-0.19336l4.9082-4.9082a0.50005 0.50005 0 0 0 0.18945-0.47852v-16.912c0-0.82253-0.67552-1.5-1.498-1.5h-14.994zm0 1h14.994c0.27701 0 0.49805 0.22287 0.49805 0.5v16.494h-3.498c-0.82253 0-1.5 0.67747-1.5 1.5v3.498h-10.494c-0.27701 0-0.5-0.22092-0.5-0.49805v-20.994c0-0.27713 0.22299-0.5 0.5-0.5zm1.998 2.998a0.50005 0.50005 0 1 0 0 1h10.996a0.50005 0.50005 0 1 0 0-1h-10.996zm0 3a0.50005 0.50005 0 1 0 0 1h10.996a0.50005 0.50005 0 1 0 0-1h-10.996zm0 2.998a0.50005 0.50005 0 1 0 0 1h10.996a0.50005 0.50005 0 1 0 0-1h-10.996zm0 3a0.50005 0.50005 0 1 0 0 1h10.996a0.50005 0.50005 0 1 0 0-1h-10.996zm0 2.998a0.50005 0.50005 0 1 0 0 1h10.996a0.50005 0.50005 0 1 0 0-1h-10.996zm0 3a0.50005 0.50005 0 1 0 0 1h5.998a0.50005 0.50005 0 1 0 0-1h-5.998zm9.9961 0h2.791l-3.291 3.291v-2.791c0-0.27713 0.22299-0.5 0.5-0.5z"></path></svg>