<?xml version="1.0" encoding="UTF-8"?>
<svg width="24" height="24" version="1.1" viewBox="0 0 24 24" xmlns="http://www.w3.org/2000/svg"><path d="m11.996 0a0.50005 0.50005 0 0 0-0.43945 0.26953l-1.168 2.2539-2.084-1.4453a0.50005 0.50005 0 0 0-0.78516 0.41406l0.0078126 2.5508-2.5156-0.31055a0.50005 0.50005 0 0 0-0.50391 0.73047l1.1875 2.25-2.373 0.9082a0.50005 0.50005 0 0 0-0.10547 0.87891l2.0859 1.4375-1.6875 1.9082a0.50005 0.50005 0 0 0 0.31445 0.82617l2.5176 0.31055-0.61328 2.4727a0.50005 0.50005 0 0 0 0.66602 0.58789l2.3594-0.9082 0.60547 2.4785a0.50005 0.50005 0 0 0 0.86133 0.21094l1.6738-1.9102 1.6738 1.9102a0.50005 0.50005 0 0 0 0.86133-0.21094l0.60547-2.4785 2.3594 0.9082a0.50005 0.50005 0 0 0 0.66602-0.58789l-0.61328-2.4727 2.5176-0.31055a0.50005 0.50005 0 0 0 0.31445-0.82617l-1.6875-1.9082 2.0859-1.4375a0.50005 0.50005 0 0 0-0.10547-0.87891l-2.373-0.9082 1.1875-2.25a0.50005 0.50005 0 0 0-0.50391-0.73047l-2.5156 0.31055 0.007813-2.5508a0.50005 0.50005 0 0 0-0.78516-0.41406l-2.084 1.4453-1.168-2.2539a0.50005 0.50005 0 0 0-0.44726-0.26953zm0.003906 1.5859 0.98633 1.9023a0.50005 0.50005 0 0 0 0.72852 0.18164l1.7617-1.2227-0.005859 2.1602a0.50005 0.50005 0 0 0 0.56055 0.49805l2.1309-0.26367-1.0039 1.9023a0.50005 0.50005 0 0 0 0.26367 0.70117l2.0137 0.76953-1.7695 1.2207a0.50005 0.50005 0 0 0-0.089844 0.74219l1.4297 1.6191-2.1367 0.26367a0.50005 0.50005 0 0 0-0.42383 0.61719l0.51953 2.0879-1.9961-0.76758a0.50005 0.50005 0 0 0-0.66406 0.34961l-0.51172 2.0957-1.416-1.6172a0.50005 0.50005 0 0 0-0.75391 0l-1.416 1.6172-0.51172-2.0957a0.50005 0.50005 0 0 0-0.66406-0.34961l-1.9961 0.76758 0.51953-2.0879a0.50005 0.50005 0 0 0-0.42383-0.61719l-2.1367-0.26367 1.4297-1.6191a0.50005 0.50005 0 0 0-0.089844-0.74219l-1.7695-1.2207 2.0137-0.76953a0.50005 0.50005 0 0 0 0.26367-0.70117l-1.0039-1.9023 2.1309 0.26367a0.50005 0.50005 0 0 0 0.56055-0.49805l-0.0058594-2.1602 1.7617 1.2227a0.50005 0.50005 0 0 0 0.72852-0.18164l0.98633-1.9023zm0 3.4121c-2.2317 0-4.0586 1.7927-4.0586 4 0 2.2073 1.8269 3.998 4.0586 3.998 2.2317 0 4.0605-1.7907 4.0605-3.998 0-2.2073-1.8288-4-4.0605-4zm0 1c1.7006 0 3.0605 1.3425 3.0605 3 0 1.6575-1.36 2.998-3.0605 2.998-1.7005 0-3.0586-1.3406-3.0586-2.998 0-1.6575 1.3581-3 3.0586-3zm-5.5078 10.99a0.50005 0.50005 0 0 0-0.49219 0.50586v5.9219a0.50005 0.50005 0 0 0 0.31641 0.54883 0.50005 0.50005 0 0 0 0.042969 0.013672 0.50005 0.50005 0 0 0 0.0058594 0.001953 0.50005 0.50005 0 0 0 0.042969 0.009765 0.50005 0.50005 0 0 0 0.0058594 0 0.50005 0.50005 0 0 0 0.38672-0.091796l5.1992-2.8359 5.2031 2.8379a0.50005 0.50005 0 0 0 0.3457 0.095703 0.50005 0.50005 0 0 0 0.080078-0.013672 0.50005 0.50005 0 0 0 0.025391-0.007813 0.50005 0.50005 0 0 0 0.039062-0.013671 0.50005 0.50005 0 0 0 0.007813-0.003907 0.50005 0.50005 0 0 0 0.29883-0.53906v-5.9238a0.50005 0.50005 0 0 0-0.50781-0.50586 0.50005 0.50005 0 0 0-0.49219 0.50586v5.1562l-4.7598-2.5957a0.50005 0.50005 0 0 0-0.24023-0.060547 0.50005 0.50005 0 0 0-0.24023 0.060547l-4.7598 2.5957v-5.1562a0.50005 0.50005 0 0 0-0.50781-0.50586z"></path></svg>