<?xml version="1.0" encoding="UTF-8"?>
<svg width="24" height="24" version="1.1" viewBox="0 0 24 24" xmlns="http://www.w3.org/2000/svg"><path d="m8.9023 0a0.50005 0.50005 0 0 0-0.19336 0.039062l-2.8418 1.1797a0.50005 0.50005 0 0 0-0.29492 0.57031l0.68164 3.0586c-0.51763 0.41364-0.98979 0.88377-1.4082 1.4062l-3.0566-0.68164a0.50005 0.50005 0 0 0-0.57031 0.29688l-1.1797 2.8398a0.50005 0.50005 0 0 0 0.19336 0.61328l2.6426 1.6758c-0.073505 0.6724-0.070949 1.3376 0 1.9941l-2.6445 1.6855a0.50005 0.50005 0 0 0-0.19336 0.61328l1.1816 2.8496a0.50005 0.50005 0 0 0 0.57227 0.29688l3.0566-0.69141c0.41364 0.51763 0.88377 0.98979 1.4062 1.4082l-0.68164 3.0566a0.50005 0.50005 0 0 0 0.29492 0.57031l2.8418 1.1797a0.50005 0.50005 0 0 0 0.61328-0.19336l1.6758-2.6426c0.6724 0.07351 1.3376 0.07095 1.9941 0l1.6758 2.6426a0.50005 0.50005 0 0 0 0.61328 0.19531l2.8496-1.1816a0.50005 0.50005 0 0 0 0.29688-0.57031l-0.68164-3.0586c0.51763-0.41364 0.98979-0.88377 1.4082-1.4062l3.0566 0.68164a0.50005 0.50005 0 0 0 0.57031-0.29688l1.1816-2.8496a0.50005 0.50005 0 0 0-0.19531-0.61328l-2.6426-1.6758c0.07347-0.67192 0.07079-1.3381 0-1.9941l2.6426-1.6758a0.50005 0.50005 0 0 0 0.19531-0.61328l-1.1816-2.8496a0.50005 0.50005 0 0 0-0.57227-0.29688l-3.0566 0.69141c-0.41364-0.51763-0.88377-0.98979-1.4062-1.4082l0.68164-3.0566a0.50005 0.50005 0 0 0-0.29688-0.57031l-2.8398-1.1797a0.50005 0.50005 0 0 0-0.61328 0.19336l-1.6758 2.6426c-0.6724-0.073505-1.3376-0.070949-1.9941 0l-1.6855-2.6445a0.50005 0.50005 0 0 0-0.41992-0.23047zm-0.19727 1.123 1.6035 2.5156a0.50005 0.50005 0 0 0 0.49219 0.22656c0.7971-0.11387 1.5962-0.12216 2.4043 0a0.50005 0.50005 0 0 0 0.49805-0.22656l1.5938-2.5156 2.0645 0.85742-0.64844 2.9102a0.50005 0.50005 0 0 0 0.18945 0.51172c0.65002 0.48045 1.2257 1.0548 1.6953 1.6934a0.50005 0.50005 0 0 0 0.51172 0.19141l2.9102-0.65625 0.85742 2.0723-2.5156 1.5938a0.50005 0.50005 0 0 0-0.22656 0.49414c0.11387 0.7971 0.12216 1.5962 0 2.4043a0.50005 0.50005 0 0 0 0.22656 0.49609l2.5156 1.5957-0.85938 2.0723-2.9082-0.64648a0.50005 0.50005 0 0 0-0.51172 0.18945c-0.48045 0.65002-1.0548 1.2257-1.6934 1.6953a0.50005 0.50005 0 0 0-0.19141 0.51172l0.64844 2.9102-2.0742 0.85742-1.5957-2.5156a0.50005 0.50005 0 0 0-0.49219-0.22656c-0.7971 0.11387-1.5962 0.12216-2.4043 0a0.50005 0.50005 0 0 0-0.49805 0.22656l-1.5938 2.5156-2.0645-0.85742 0.64844-2.9102a0.50005 0.50005 0 0 0-0.18945-0.51172c-0.65002-0.48045-1.2257-1.0548-1.6953-1.6934a0.50005 0.50005 0 0 0-0.51172-0.19141l-2.9102 0.65625-0.85742-2.0723 2.5156-1.6055a0.50005 0.50005 0 0 0 0.22656-0.49219c-0.11387-0.7971-0.12216-1.5962 0-2.4043a0.50005 0.50005 0 0 0-0.22656-0.49805l-2.5156-1.5938 0.85742-2.0645 2.9102 0.64844a0.50005 0.50005 0 0 0 0.51172-0.18945c0.48045-0.65002 1.0548-1.2257 1.6934-1.6953a0.50005 0.50005 0 0 0 0.19141-0.51172l-0.64844-2.9102 2.0664-0.85742zm3.2949 4.877c-3.3078 0-6 2.6922-6 6 0 3.3078 2.6922 6 6 6 3.3078 0 6-2.6922 6-6 0-3.3078-2.6922-6-6-6zm0 1c2.7674 0 5 2.2326 5 5 0 2.7674-2.2326 5-5 5-2.7674 0-5-2.2326-5-5 0-2.7674 2.2326-5 5-5z"></path></svg>