<?xml version="1.0" encoding="UTF-8"?>
<svg width="75" height="75" version="1.1" viewBox="0 0 75 75" xmlns="http://www.w3.org/2000/svg"><path d="m37.5 1e-7c-20.705 0-37.5 16.795-37.5 37.5s16.795 37.5 37.5 37.5 37.5-16.795 37.5-37.5-16.795-37.5-37.5-37.5zm0 1c20.164 0 36.5 16.336 36.5 36.5s-16.336 36.5-36.5 36.5-36.5-16.336-36.5-36.5 16.336-36.5 36.5-36.5zm-7.5 13.645v9.5312h2.3535v-6.6016h3.8086v5.625h2.2949v-5.625h3.3887v6.582h2.373v-9.5117zm5.0391 13.762-9.5273 25.594h5.6074l1.7578-5.2734h9.2461l1.7754 5.2734h5.6074l-9.5801-25.594zm2.4434 6.4688 3.2168 9.5801h-6.3984z"></path></svg>