<?xml version="1.0" encoding="UTF-8"?>
<svg width="75" height="75" version="1.1" viewBox="0 0 75 75" xmlns="http://www.w3.org/2000/svg"><path d="m37.5 0c-20.705 0-37.5 16.795-37.5 37.5s16.795 37.5 37.5 37.5 37.5-16.795 37.5-37.5-16.795-37.5-37.5-37.5zm0 1c20.164 0 36.5 16.336 36.5 36.5s-16.336 36.5-36.5 36.5-36.5-16.336-36.5-36.5 16.336-36.5 36.5-36.5zm-7.5 20.645v9.5312h2.3535v-6.6016h3.8086v5.625h2.2969v-5.625h3.3867v6.582h2.375v-9.5117zm-1.375 18.336 6.416 19.02h4.8516l6.416-19.02h-5.3086l-3.5332 12.814-3.5332-12.814z"></path></svg>