<?xml version="1.0" encoding="UTF-8"?>
<svg width="75" height="75" version="1.1" viewBox="0 0 75 75" xmlns="http://www.w3.org/2000/svg"><path d="m37.5 0c-20.705 0-37.5 16.795-37.5 37.5s16.795 37.5 37.5 37.5 37.5-16.795 37.5-37.5-16.795-37.5-37.5-37.5zm0 1c20.164 0 36.5 16.336 36.5 36.5s-16.336 36.5-36.5 36.5-36.5-16.336-36.5-36.5 16.336-36.5 36.5-36.5zm-2.1582 21.309c-1.1719 0-2.1133 0.44142-2.8242 1.3242-0.7032 0.8828-1.0547 2.0508-1.0547 3.5039l2.5195 0.02344c0-0.6094 0.14058-1.1094 0.42188-1.5 0.2812-0.3907 0.64651-0.58594 1.0996-0.58594 0.5469 0 1.1446 0.3125 1.793 0.9375 0.6484 0.6172 1.2188 1.0391 1.7109 1.2656 0.5 0.2188 1.0391 0.32812 1.6172 0.32812 1.1485 0 2.086-0.45318 2.8125-1.3594 0.7266-0.9063 1.0918-2.0859 1.0918-3.5391l-2.5078-0.01172c-1e-6 0.5938-0.15037 1.0977-0.44727 1.5117-0.289 0.4141-0.664 0.62109-1.125 0.62109-0.5234 0-1.1035-0.30084-1.7441-0.90234-0.6329-0.6094-1.2012-1.0313-1.7012-1.2656-0.5-0.2344-1.0528-0.35156-1.6621-0.35156zm-6.7168 11.672 6.416 19.02h4.8516l6.416-19.02h-5.3086l-3.5332 12.814-3.5332-12.814z"></path></svg>