<?xml version="1.0" encoding="UTF-8"?>
<svg width="75" height="75" version="1.1" viewBox="0 0 75 75" xmlns="http://www.w3.org/2000/svg"><path d="m37.5 4e-7c-20.705 0-37.5 16.795-37.5 37.5 0 20.705 16.795 37.5 37.5 37.5 20.705 0 37.5-16.795 37.5-37.5-1e-6 -20.705-16.795-37.5-37.5-37.5zm0 1c20.164 0 36.5 16.336 36.5 36.5 0 20.164-16.336 36.5-36.5 36.5-20.164 0-36.5-16.336-36.5-36.5-2e-6 -20.164 16.336-36.5 36.5-36.5zm-2.3789 16.309c-1.1719 0-2.1133 0.44142-2.8242 1.3242-0.7031 0.8828-1.0547 2.0508-1.0547 3.5039l2.5195 0.02344c0-0.6094 0.14068-1.1094 0.42188-1.5 0.2813-0.3907 0.64846-0.58594 1.1016-0.58594 0.5469 0 1.1445 0.3125 1.793 0.9375 0.6484 0.6172 1.2187 1.0391 1.7109 1.2656 0.5 0.2188 1.0391 0.32812 1.6172 0.32812 1.1484 0 2.0859-0.45318 2.8125-1.3594 0.7265-0.9063 1.0898-2.0859 1.0898-3.5391l-2.5078-0.01172c0 0.5938-0.14841 1.0977-0.44531 1.5117-0.2891 0.4141-0.6641 0.62109-1.125 0.62109-0.5234 0-1.1055-0.30084-1.7461-0.90234-0.6328-0.6094-1.1992-1.0313-1.6992-1.2656-0.5-0.2344-1.0547-0.35156-1.6641-0.35156zm0.5293 12.098-9.5273 25.594h5.6074l1.7578-5.2734h9.2461l1.7754 5.2734h5.6074l-9.5801-25.594zm2.4434 6.4688 3.2168 9.5801h-6.3984z"></path></svg>