<?xml version="1.0" encoding="UTF-8"?>
<svg width="40" height="40" version="1.1" viewBox="0 0 40 40" xmlns="http://www.w3.org/2000/svg"><path d="m20.01 1a0.50005 0.50005 0 0 0-0.49414 0.375l-2.5898 10.119a0.50005 0.50005 0 0 0-0.039062 0.1543 0.50005 0.50005 0 0 0 0 0.003906l-0.15234 0.60547h-8.5215a0.50005 0.50005 0 0 0-0.22656 0.94531l7.5332 3.8555-0.41992 1.6582a0.50005 0.50005 0 0 0-0.033203 0.12891l-0.86523 3.3984a0.50005 0.50005 0 0 0-0.025391 0.10156l-0.30078 1.1719h-10.375a0.50005 0.50005 0 0 0-0.22852 0.94531l9.168 4.6914-0.76758 3a0.50005 0.50005 0 0 0-0.029297 0.11328 0.50005 0.50005 0 0 0 0 0.003906l-1.4609 5.7207h-1.9688a0.50005 0.50005 0 1 0 0 1h2.3223a0.50095 0.50095 0 0 0 0.076172 0h2.3164a0.50005 0.50005 0 1 0 0-1h-1.7109l1.3672-5.3652 7.416-5.5703 7.416 5.5703 1.3672 5.3652h-1.7109a0.50005 0.50005 0 1 0 0 1h2.2715a0.50005 0.50005 0 0 0 0.17578 0h2.2656a0.50005 0.50005 0 1 0 0-1h-1.9688l-1.459-5.7207a0.50005 0.50005 0 0 0-0.03125-0.12305l-0.76562-2.9941 9.168-4.6914a0.50005 0.50005 0 0 0-0.22852-0.94531h-10.375l-0.29883-1.1582a0.50005 0.50005 0 0 0-0.029297-0.11523 0.50005 0.50005 0 0 0-0.001953-0.003907l-0.86133-3.3887a0.50005 0.50005 0 0 0-0.001953-0.007812 0.50005 0.50005 0 0 0-0.027344-0.11133l-0.42578-1.6738 7.5352-3.8555a0.50005 0.50005 0 0 0-0.22852-0.94531h-8.5195l-0.16211-0.64258a0.50005 0.50005 0 0 0-0.023438-0.097656l-2.5957-10.143a0.50005 0.50005 0 0 0-0.47461-0.375zm-0.009766 2.5176 2.0527 8.0312-2.0527 2.1035-2.0547-2.1035 2.0547-8.0312zm-2.3418 9.168 1.6426 1.6816-2.791 2.8555 0.035156-0.13867a0.50005 0.50005 0 0 0 0.082031-0.32031 0.50005 0.50005 0 0 0 0-0.003906l0.96484-3.8105 0.001953-0.003907a0.50005 0.50005 0 0 0 0.035156-0.13867 0.50005 0.50005 0 0 0 0-0.00586l0.029297-0.11523zm4.6836 0 0.027344 0.11328a0.50005 0.50005 0 0 0 0.041015 0.16016l0.96484 3.8086a0.50005 0.50005 0 0 0 0.080078 0.31641l0.035156 0.13867-2.791-2.8555 1.6426-1.6816zm-12.057 0.57226h6.1973l-0.71094 2.8086-5.4863-2.8086zm13.232 0h6.1973l-5.4883 2.8086-0.70898-2.8086zm-3.5176 1.8242 3.9805 4.0742 0.7793 3.0703-4.7598 3.5781-4.7598-3.5781 0.7793-3.0703 3.9805-4.0742zm-5.0293 8.1914 4.1973 3.1562-6.1875 4.6484 0.52734-2.0625a0.50005 0.50005 0 0 0 0-0.001953v-0.001953l1.2207-4.7949a0.50005 0.50005 0 0 0 0.041015-0.15625 0.50005 0.50005 0 0 0 0-0.003906l0.20117-0.7832zm10.059 0 0.20117 0.78711a0.50005 0.50005 0 0 0 0.041015 0.1582 0.50005 0.50005 0 0 0 0 0.001953l1.2207 4.793a0.50005 0.50005 0 0 0 0 0.001953l0.52734 2.0625-6.1875-4.6484 4.1973-3.1562zm-19.453 1.2441h8.0449l-0.92774 3.6426-7.1172-3.6426zm20.803 0h8.0449l-7.1172 3.6426-0.92774-3.6426z"></path></svg>