<?xml version="1.0" encoding="UTF-8"?>
<svg width="40" height="40" version="1.1" viewBox="0 0 40 40" xmlns="http://www.w3.org/2000/svg"><path d="m29.326 3a0.50005 0.50005 0 0 0-0.49805 0.45703l-0.36914 4.2363a0.50005 0.50005 0 0 0-0.011718 0.14453l-1.1973 13.76-10.559-7.0352a0.50005 0.50005 0 0 0-0.28516-0.083984 0.50005 0.50005 0 0 0-0.49219 0.5v7.6758l-12.137-8.0918a0.50005 0.50005 0 0 0-0.2832-0.083984 0.50005 0.50005 0 0 0-0.49414 0.5v21.521a0.50005 0.50005 0 0 0 0.5 0.5h12.914 10.016 0.027343 2.8691 7.1738a0.50005 0.50005 0 0 0 0.49805-0.54297l-2.4883-28.609a0.50005 0.50005 0 0 0-0.013672-0.16211l-0.36719-4.2285a0.50005 0.50005 0 0 0-0.49805-0.45703h-4.3047zm0.45898 1h3.3867l0.28711 3.3047h-3.9609l0.28711-3.3047zm-0.375 4.3047h4.1367l2.4082 27.695h-6.6289-2.3242l1.1719-13.475 1.2363-14.221zm-25.41 7.6074 11.914 7.9434v12.145h-11.914v-20.088zm12.914 0 10.238 6.8223-1.1543 13.266h-9.084v-12.332a0.50005 0.50005 0 0 0 0-0.15039v-7.6055zm-6.957 7.1738c-1.4588-2e-6 -2.6523 1.1935-2.6523 2.6523 0 1.4589 1.1935 2.6523 2.6523 2.6523 1.4588 0 2.6523-1.1935 2.6523-2.6523 0-1.4589-1.1935-2.6523-2.6523-2.6523zm11.479 0c-1.4589-2e-6 -2.6523 1.1935-2.6523 2.6523 0 1.4588 1.1935 2.6523 2.6523 2.6523s2.6523-1.1935 2.6523-2.6523c0-1.4588-1.1935-2.6523-2.6523-2.6523zm-11.479 1c0.91842 0 1.6523 0.73392 1.6523 1.6523 0 0.91842-0.73392 1.6523-1.6523 1.6523-0.91842 0-1.6523-0.73392-1.6523-1.6523 0-0.91842 0.73392-1.6523 1.6523-1.6523zm11.479 0c0.91846 0 1.6523 0.73391 1.6523 1.6523 0 0.91843-0.73388 1.6523-1.6523 1.6523s-1.6523-0.73391-1.6523-1.6523c0-0.91843 0.73388-1.6523 1.6523-1.6523z"></path></svg>