<?xml version="1.0" encoding="UTF-8"?>
<svg width="40" height="40" version="1.1" viewBox="0 0 40 40" xmlns="http://www.w3.org/2000/svg"><path d="m10.678 3c-1.8544 0-3.3672 1.5145-3.3672 3.3691 0 0.069449 0.01535 0.13469 0.019531 0.20312l-2.7422 2.7422a0.50005 0.50005 0 0 0 0 0.70703l0.86523 0.86524-2.2988 2.3008a0.50005 0.50005 0 1 0 0.70703 0.70703l2.2988-2.3008 0.86523 0.86719a0.50005 0.50005 0 0 0 0.70703 0l2.7422-2.7422c0.068422 0.0041857 0.13368 0.019531 0.20312 0.019531 0.49596 0 0.96379-0.1144 1.3887-0.30859l13.945 7.8438c-0.022941 0.18984-0.058594 0.3764-0.058594 0.57226 0 1.2043 0.46138 2.2945 1.1973 3.1387l-5.3516 15.008h-18.291a0.50005 0.50005 0 1 0 0 1h18.637 12.754a0.50005 0.50005 0 0 0 0.32422 0h1.2695a0.50005 0.50005 0 1 0 0-1h-0.96875l-1.0703-15.119c0.68011-0.82889 1.1055-1.8748 1.1055-3.0273 0-2.6469-2.1563-4.8047-4.8027-4.8047-1.0495 0-2.0133 0.34916-2.8047 0.92383l-13.928-7.8301c-0.12318-1.7442-1.5714-3.1348-3.3457-3.1348zm0 1c1.3105 0 2.3618 1.0498 2.3672 2.3594a0.50005 0.50005 0 0 0-0.00586 0.083984c-0.025967 0.83331-0.47715 1.55-1.1445 1.9512a0.50005 0.50005 0 0 0-0.099609 0.054688c-0.33385 0.17903-0.70991 0.28906-1.1172 0.28906-1.3139 0-2.3672-1.0548-2.3672-2.3691 0-1.3143 1.0533-2.3691 2.3672-2.3691zm3.2441 3.2266 13.254 7.4492c-0.40694 0.45932-0.72313 0.99229-0.93164 1.582l-13.25-7.4531c0.44491-0.42338 0.76544-0.96812 0.92773-1.5781zm-6.3242 0.49219c0.33986 0.77147 0.95938 1.3922 1.7305 1.7324l-1.9492 1.9492-0.81445-0.81641a0.50005 0.50005 0 0 0-0.10352-0.10352l-0.8125-0.8125 1.9492-1.9492zm23.158 6.3223c2.1059 0 3.8027 1.6981 3.8027 3.8047 0 0.972-0.37272 1.8466-0.96875 2.5176a0.50005 0.50005 0 0 0-0.06836 0.083985c-0.69277 0.73649-1.6706 1.2012-2.7656 1.2012-1.0239 0-1.9464-0.40645-2.6289-1.0605a0.50005 0.50005 0 0 0-0.11523-0.11328c-0.65367-0.68232-1.0586-1.6052-1.0586-2.6289 0-0.22444 0.027487-0.44069 0.064453-0.6543a0.50005 0.50005 0 0 0 0.03711-0.19336c0.38478-1.6944 1.888-2.957 3.7012-2.957zm0 1.8691c-1.0623 0-1.9336 0.87118-1.9336 1.9336s0.87123 1.9355 1.9336 1.9355 1.9336-0.87318 1.9336-1.9355-0.87128-1.9336-1.9336-1.9336zm0 1c0.52181 0 0.93359 0.4115 0.93359 0.93359s-0.41182 0.93555-0.93359 0.93555c-0.52177 0-0.93359-0.41349-0.93359-0.93555s0.41178-0.93359 0.93359-0.93359zm-2.8066 4.8125c0.79186 0.57536 1.756 0.92578 2.8066 0.92578 1.0272 0 1.9738-0.33254 2.7559-0.88477l1.0117 14.229h-11.662l5.0879-14.27z"></path></svg>