<?xml version="1.0" encoding="UTF-8"?>
<svg width="40" height="40" version="1.1" viewBox="0 0 40 40" xmlns="http://www.w3.org/2000/svg"><path d="m13.543 3c-1.0619 0-1.9336 0.87369-1.9336 1.9355v5.2383h-0.84375a0.50005 0.50005 0 0 0-0.09961-0.0078 0.50005 0.50005 0 0 0-0.07617 0.0078h-5.6543c-1.0619 0-1.9355 0.87369-1.9355 1.9355v15.781c0 1.0619 0.87369 1.9355 1.9355 1.9355h6.6738v5.2383c0 1.0618 0.87172 1.9355 1.9336 1.9355h12.914c1.0618 0 1.9336-0.87373 1.9336-1.9355v-5.2383h6.6738c1.0618 0 1.9355-0.87367 1.9355-1.9355v-15.781c0-1.0619-0.87373-1.9355-1.9355-1.9355h-5.6582a0.50005 0.50005 0 0 0-0.16211 0h-0.85352v-5.2383c0-1.0619-0.87178-1.9355-1.9336-1.9355zm0 1h12.914c0.51632 0 0.93359 0.41914 0.93359 0.93555v5.2383h-14.781v-5.2383c0-0.51641 0.41716-0.93555 0.93359-0.93555zm-8.6074 7.1738h5.2383v5.2383c0 1.0618 0.87174 1.9355 1.9336 1.9355h15.783c1.0619 0 1.9355-0.87373 1.9355-1.9355v-5.2383h5.2383c0.51631 0 0.93555 0.41914 0.93555 0.93555v15.781c0 0.51645-0.41923 0.93555-0.93555 0.93555h-6.6738v-5.2383a0.50005 0.50005 0 0 0-0.5-0.5h-15.781a0.50005 0.50005 0 0 0-0.5 0.5v5.2383h-6.6738c-0.5164 0-0.93555-0.4191-0.93555-0.93555v-15.781c0-0.51641 0.41915-0.93555 0.93555-0.93555zm6.2383 0h0.85547a0.50005 0.50005 0 0 0 0.16211 0h15.619a0.50005 0.50005 0 0 0 0.16211 0h0.85352v5.2383c0 0.51631-0.4191 0.93555-0.93555 0.93555h-15.783c-0.5164 0-0.93359-0.41924-0.93359-0.93555zm21.738 3.3047c-0.6664 0-1.2168 0.5504-1.2168 1.2168 0 0.6664 0.55032 1.2168 1.2168 1.2168s1.2188-0.55031 1.2188-1.2168c0-0.66648-0.55235-1.2168-1.2188-1.2168zm0 1c0.12601 0 0.21875 0.09087 0.21875 0.2168 0 0.12592-0.09283 0.2168-0.21875 0.2168-0.12592 0-0.2168-0.09079-0.2168-0.2168 0-0.12601 0.09079-0.2168 0.2168-0.2168zm-20.303 8.6094h14.781v5.1582a0.50005 0.50005 0 0 0 0 0.16211v5.6562c0 0.51631-0.41728 0.93555-0.93359 0.93555h-12.914c-0.51644 0-0.93359-0.41924-0.93359-0.93555v-5.6582a0.50005 0.50005 0 0 0 0-0.16211zm2.3691 1.8691a0.50005 0.50005 0 1 0 0 1h10.043a0.50005 0.50005 0 1 0 0-1zm0 2.8691a0.50005 0.50005 0 1 0 0 1h10.043a0.50005 0.50005 0 1 0 0-1zm0 2.8691a0.50005 0.50005 0 1 0 0 1h10.043a0.50005 0.50005 0 1 0 0-1z"></path></svg>