<?xml version="1.0" encoding="UTF-8"?>
<svg width="38" height="32" version="1.1" viewBox="0 0 38 32" xmlns="http://www.w3.org/2000/svg"><path d="m1 1v30h30v-30h-30z" fill="#fff"/><path d="m0 0v32h32v-20l6-6.0078h-6v-5.9922zm11.496 8.4961 0.003906 0.0039062h13v13l0.0039 0.0039-4 4-0.0039-0.0039h-13v-13l-0.00391-0.0039zm1.0039 1.0039v3h7.293l3-3zm-1 0.40625-2.5938 2.5938h2.5938zm12 0.30078-3 3v7.293h3zm-15 3.293v10.293l3-3v-7.293zm4 0v7h7v-7zm-0.29297 8-3 3h10.293v-3zm8.293 0v2.5938l2.5938-2.5938z"/></svg>
