<?xml version="1.0" encoding="UTF-8"?>
<svg width="38" height="32" version="1.1" viewBox="0 0 38 32" xmlns="http://www.w3.org/2000/svg"><rect x="1" y="1" width="30" height="30" fill="#fff"/><path d="m0 0v32h32v-20l6-6.0078h-6v-5.9922h-32zm16 4c0.6814 0 1.3496 0.056896 2 0.16602v5.334c0 1.6569 1.3431 3 3 3h0.5625c0.222 0.8626 1.0056 1.5 1.9375 1.5 1.1046 0 2-0.8954 2-2s-0.8954-2-2-2c-0.9319 0-1.7155 0.6374-1.9375 1.5h-0.5625c-1.1046 0-2-0.8954-2-2v-5.1211c5.1757 1.3321 9 6.0296 9 11.621s-3.8243 10.289-9 11.621v-7.1211c0-1.1046 0.8954-2 2-2h0.5625c0.222 0.8626 1.0056 1.5 1.9375 1.5 1.1046 0 2-0.8954 2-2s-0.8954-2-2-2c-0.9319 0-1.7155 0.6374-1.9375 1.5h-0.5625c-1.6569 0-3 1.3431-3 3v7.334c-0.329 0.0552-0.6625 0.0972-1 0.125v-14.959c0-1.6569-1.3431-3-3-3h-1.0625c-0.222-0.86261-1.0056-1.5-1.9375-1.5-1.1046 0-2 0.89543-2 2 0 1.1046 0.89543 2 2 2 0.9319 0 1.7155-0.6374 1.9375-1.5h1.0625c1.1046 0 2 0.8954 2 2v15c-0.3368 0-0.6703-0.013816-1-0.041016v-11.959c0-1.6569-1.3431-3-3-3h-7.6211c1.3321-5.1757 6.0296-9 11.621-9zm-5 5.5c0.5523 0 1 0.44772 1 1 0 0.5523-0.4477 1-1 1s-1-0.4477-1-1c0-0.55228 0.4477-1 1-1zm-0.011719 0.5a0.5 0.5 0 0 0-0.48828 0.5 0.5 0.5 0 0 0 0.5 0.5 0.5 0.5 0 0 0 0.5-0.5 0.5 0.5 0 0 0-0.5-0.5 0.5 0.5 0 0 0-0.011719 0zm12.512 1c0.5523 0 1 0.4477 1 1s-0.4477 1-1 1-1-0.4477-1-1 0.4477-1 1-1zm-0.011719 0.5a0.5 0.5 0 0 0-0.48828 0.5 0.5 0.5 0 0 0 0.5 0.5 0.5 0.5 0 0 0 0.5-0.5 0.5 0.5 0 0 0-0.5-0.5 0.5 0.5 0 0 0-0.011719 0zm-19.322 2.5h7.834c1.1046 0 2 0.8954 2 2v11.834c-0.3383-0.0568-0.6719-0.12839-1-0.21289v-8.6211c0-1.6569-1.3431-3-3-3h-0.5625c-0.22202-0.8626-1.0056-1.5-1.9375-1.5-1.1046 0-2 0.8954-2 2s0.89543 2 2 2c0.93192 0 1.7155-0.6374 1.9375-1.5h0.5625c1.1046 0 2 0.8954 2 2v8.3164c-4.6608-1.6474-8-6.0915-8-11.316 0-0.6814 0.056896-1.3496 0.16602-2zm3.334 1.5c0.55228 0 1 0.4477 1 1s-0.44772 1-1 1-1-0.4477-1-1 0.44772-1 1-1zm-0.011719 0.5a0.5 0.5 0 0 0-0.48828 0.5 0.5 0.5 0 0 0 0.5 0.5 0.5 0.5 0 0 0 0.5-0.5 0.5 0.5 0 0 0-0.5-0.5 0.5 0.5 0 0 0-0.011719 0zm16.012 1c0.5523 0 1 0.4477 1 1s-0.4477 1-1 1-1-0.4477-1-1 0.4477-1 1-1zm-0.011719 0.5a0.5 0.5 0 0 0-0.48828 0.5 0.5 0.5 0 0 0 0.5 0.5 0.5 0.5 0 0 0 0.5-0.5 0.5 0.5 0 0 0-0.5-0.5 0.5 0.5 0 0 0-0.011719 0z"/></svg>
