<svg width="64" height="64" viewBox="0 0 64 64" fill="none" xmlns="http://www.w3.org/2000/svg">
<path d="M14 36H18C18.5523 36 19 35.5523 19 35V20C19 16.6863 21.6863 14 25 14H54C57.3137 14 60 16.6863 60 20V31" stroke="#DA1F24" stroke-width="4"/>
<mask id="path-2-inside-1_6461_100154" fill="white">
<path d="M64 31L64 35L42 35L42 31L64 31Z"/>
</mask>
<path d="M64 31L68 31L68 27L64 27L64 31ZM64 35L64 39L68 39L68 35L64 35ZM42 35L38 35L38 39L42 39L42 35ZM42 31L42 27L38 27L38 31L42 31ZM60 31L60 35L68 35L68 31L60 31ZM64 31L42 31L42 39L64 39L64 31ZM46 35L46 31L38 31L38 35L46 35ZM42 35L64 35L64 27L42 27L42 35Z" fill="#E11B22" mask="url(#path-2-inside-1_6461_100154)"/>
<mask id="path-4-inside-2_6461_100154" fill="white">
<path d="M50 2L50 6L30 6L30 2L50 2Z"/>
</mask>
<path d="M50 2L54 2L54 -2L50 -2L50 2ZM50 6L50 10L54 10L54 6L50 6ZM30 6L26 6L26 10L30 10L30 6ZM30 2L30 -2L26 -2L26 2L30 2ZM46 2L46 6L54 6L54 2L46 2ZM50 2L30 2L30 10L50 10L50 2ZM34 6L34 2L26 2L26 6L34 6ZM30 6L50 6L50 -2L30 -2L30 6Z" fill="#E11B22" mask="url(#path-4-inside-2_6461_100154)"/>
<mask id="path-6-inside-3_6461_100154" fill="white">
<path d="M38 6L42 6V14H38V6Z"/>
</mask>
<path d="M38 6V2L34 2V6L38 6ZM42 6H46V2H42V6ZM42 14V18H46V14H42ZM38 14H34V18H38V14ZM38 10H42V2L38 2V10ZM38 6V14H46V6L38 6ZM42 10H38V18H42V10ZM42 14V6L34 6V14H42Z" fill="#E11B22" mask="url(#path-6-inside-3_6461_100154)"/>
<path d="M14 48H25C28.3137 48 31 45.3137 31 42V26C31 25.4477 31.4477 25 32 25H47C47.5523 25 48 25.4477 48 26V31.1923" stroke="#DA1F24" stroke-width="4"/>
<path d="M2 25H8C10.2091 25 12 26.7909 12 29V56C12 58.2091 10.2091 60 8 60H2V25Z" stroke="#E11B22" stroke-width="4"/>
<path d="M52.9962 39L57.2412 43.6877C58.0808 44.6141 58.6526 45.7947 58.8844 47.0801C59.1163 48.3655 58.9977 49.6979 58.5437 50.9088C58.0896 52.1198 57.3206 53.1548 56.3338 53.8831C55.347 54.6113 54.1869 55 53 55C51.8131 55 50.653 54.6113 49.6662 53.8831C48.6794 53.1548 47.9104 52.1198 47.4563 50.9088C47.0023 49.6979 46.8837 48.3655 47.1156 47.0801C47.3474 45.7947 47.9192 44.6141 48.7588 43.6877L52.9962 39Z" stroke="#DA1F24" stroke-width="4" stroke-linecap="round" stroke-linejoin="round"/>
</svg>
