<svg width="64" height="64" viewBox="0 0 64 64" fill="none" xmlns="http://www.w3.org/2000/svg">
<path d="M11.5 7.5L10.1679 9.62307C8.53656 12.223 8.53656 15.527 10.1679 18.1269L11.5 20.25L12.7434 22.0115C14.6958 24.7774 14.6958 28.4726 12.7434 31.2385L11.5 33" stroke="#DA1F24" stroke-width="4"/>
<path d="M27 7.5L25.6679 9.62307C24.0366 12.223 24.0366 15.527 25.6679 18.1269L27 20.25L28.2434 22.0115C30.1958 24.7774 30.1958 28.4726 28.2434 31.2385L27 33" stroke="#DA1F24" stroke-width="4"/>
<path d="M42.5 7.5L41.1679 9.62307C39.5366 12.223 39.5366 15.527 41.1679 18.1269L42.5 20.25L43.7434 22.0115C45.6958 24.7774 45.6958 28.4726 43.7434 31.2385L42.5 33" stroke="#DA1F24" stroke-width="4"/>
<path d="M62 41H5.5C3.567 41 2 42.567 2 44.5V44.5C2 46.433 3.567 48 5.5 48H49.5C51.433 48 53 49.567 53 51.5V51.5C53 53.433 51.433 55 49.5 55H5.5C3.567 55 2 56.567 2 58.5V58.5C2 60.433 3.567 62 5.5 62H62" stroke="#DA1F24" stroke-width="4"/>
</svg>
