<?xml version="1.0" encoding="UTF-8"?>
<svg width="64" height="64" fill="none" version="1.1" viewBox="0 0 64 64" xmlns="http://www.w3.org/2000/svg"><path d="m32 2c-2.6273-0.0065578-5.2296 0.50578-7.6582 1.5078-2.4305 1.0028-4.6389 2.4768-6.498 4.3359-1.859 1.8591-3.3332 4.0675-4.3359 6.498-1.0019 2.4287-1.5144 5.031-1.5078 7.6582v0.003906 0.001953c0.0015 5.7317 2.1566 11.201 6.127 14.949 1.3019 1.2291 2.8541 2.6358 4.0215 4.0801 1.1674 1.4442 1.8516 2.8537 1.8516 3.9648v3a2.0002 2.0002 0 0 0 2 2h6 6a2.0002 2.0002 0 0 0 2-2v-3c0-1.0874 0.67998-2.4899 1.8477-3.9355 1.1677-1.4457 2.7227-2.8638 4.0352-4.1191 3.9987-3.8226 6.1172-9.0557 6.1172-14.945 0-11.06-8.9002-19.997-19.994-20h-0.005859zm-0.005859 4a2.0002 2.0002 0 0 0 0.005859 0c8.9706 0 16 7.0622 16 16 0 4.9579-1.6715 8.9849-4.8828 12.055-1.2451 1.1909-2.9399 2.7096-4.3828 4.4961-1.4429 1.7865-2.7344 3.9117-2.7344 6.4492v1h-2v-12.312c0.79508-0.24612 1.4919-0.60108 2.0957-0.92578 1.0656-0.57298 1.8477-1.1562 1.8477-1.1562a2 2 0 0 0 0.41211-2.7988 2 2 0 0 0-2.7988-0.41211s-0.56135 0.41673-1.3555 0.84375c-0.79412 0.42702-1.8174 0.76172-2.2012 0.76172s-1.407-0.3347-2.2012-0.76172c-0.79412-0.42702-1.3555-0.84375-1.3555-0.84375a2 2 0 0 0-1.4844-0.37305 2 2 0 0 0-1.3145 0.78516 2 2 0 0 0 0.41211 2.7988s0.78208 0.58327 1.8477 1.1562c0.60384 0.3247 1.3006 0.67966 2.0957 0.92578v12.312h-2v-1c0-2.5514-1.2936-4.6907-2.7402-6.4805-1.4467-1.7898-3.145-3.3024-4.3867-4.4746-3.0759-2.9034-4.873-7.3187-4.873-12.045a2.0002 2.0002 0 0 0 0-0.001953 2.0002 2.0002 0 0 0 0-0.001953 2.0002 2.0002 0 0 0 0-0.001953c-0.0059-2.102 0.40337-4.1836 1.2051-6.127 0.80166-1.9431 1.9804-3.7088 3.4668-5.1953 1.4864-1.4864 3.2521-2.6651 5.1953-3.4668 1.9432-0.80172 4.0248-1.2109 6.127-1.2051zm-5.9941 46a2.0002 2.0002 0 0 0-1.9727 2 2.0002 2.0002 0 0 0 1.9727 2h12a2.0002 2.0002 0 0 0 1.709-1.0078 2.0002 2.0002 0 0 0 0-1.9844 2.0002 2.0002 0 0 0-1.709-1.0078h-12zm2 6a2.0002 2.0002 0 0 0-1.9727 2 2.0002 2.0002 0 0 0 1.9727 2h8a2.0002 2.0002 0 0 0 1.709-1.0078 2.0002 2.0002 0 0 0 0-1.9844 2.0002 2.0002 0 0 0-1.709-1.0078h-8z" color="#000000" fill="#da1f24" stroke-linecap="round" stroke-linejoin="round" style="-inkscape-stroke:none"/></svg>
