<svg width="64" height="64" viewBox="0 0 64 64" fill="none" xmlns="http://www.w3.org/2000/svg">
<path d="M38.4118 4C38.4118 4 37 5.54281 37 6.75C37 7.95719 38.4118 9.5 38.4118 9.5C38.4118 9.5 40 11.0098 40 12.25C40 13.4902 38.4118 15 38.4118 15" stroke="#DA1F24" stroke-width="4"/>
<path d="M31.4118 4C31.4118 4 30 5.54281 30 6.75C30 7.95719 31.4118 9.5 31.4118 9.5C31.4118 9.5 33 11.0098 33 12.25C33 13.4902 31.4118 15 31.4118 15" stroke="#DA1F24" stroke-width="4"/>
<path d="M24.4118 4C24.4118 4 23 5.54281 23 6.75C23 7.95719 24.4118 9.5 24.4118 9.5C24.4118 9.5 26 11.0098 26 12.25C26 13.4902 24.4118 15 24.4118 15" stroke="#DA1F24" stroke-width="4"/>
<path fill-rule="evenodd" clip-rule="evenodd" d="M10 30C10 26.6863 12.6863 24 16 24C17.5367 24 18.9385 24.5777 20 25.5278C21.0615 24.5777 22.4633 24 24 24C25.5367 24 26.9385 24.5777 28 25.5278C29.0615 24.5777 30.4633 24 32 24C33.5367 24 34.9385 24.5777 36 25.5278C37.0615 24.5777 38.4633 24 40 24C41.5367 24 42.9385 24.5777 44 25.5278C45.0615 24.5777 46.4633 24 48 24C51.3137 24 54 26.6863 54 30V54H62V58H54C54 61.3137 51.3137 64 48 64C46.4633 64 45.0615 63.4223 44 62.4722C42.9385 63.4223 41.5367 64 40 64C38.4633 64 37.0615 63.4223 36 62.4722C34.9385 63.4223 33.5367 64 32 64C30.4633 64 29.0615 63.4223 28 62.4722C26.9385 63.4223 25.5367 64 24 64C22.4633 64 21.0615 63.4223 20 62.4722C18.9385 63.4223 17.5367 64 16 64C12.6863 64 10 61.3137 10 58V34H2V30H10ZM34 58V30C34 28.8954 33.1046 28 32 28C30.8954 28 30 28.8954 30 30V58C30 59.1046 30.8954 60 32 60C33.1046 60 34 59.1046 34 58ZM46 30V58C46 59.1046 46.8954 60 48 60C49.1046 60 50 59.1046 50 58V56V30C50 28.8954 49.1046 28 48 28C46.8954 28 46 28.8954 46 30ZM38 30V58C38 59.1046 38.8954 60 40 60C41.1046 60 42 59.1046 42 58V30C42 28.8954 41.1046 28 40 28C38.8954 28 38 28.8954 38 30ZM16 28C17.1046 28 18 28.8954 18 30V58C18 59.1046 17.1046 60 16 60C14.8954 60 14 59.1046 14 58V32V30C14 28.8954 14.8954 28 16 28ZM24 60C22.8954 60 22 59.1046 22 58V30C22 28.8954 22.8954 28 24 28C25.1046 28 26 28.8954 26 30V58C26 59.1046 25.1046 60 24 60Z" fill="#E11B22"/>
</svg>
