<svg width="64" height="64" viewBox="0 0 64 64" fill="none" xmlns="http://www.w3.org/2000/svg">
<mask id="path-1-inside-1_6725_103608" fill="white">
<path fill-rule="evenodd" clip-rule="evenodd" d="M6.99998 10.219H18V0H22V10.219H33H35V12.219V24.2178C38.1118 27.7434 40 32.3747 40 37.4469C40 42.5192 38.1118 47.1504 35 50.6761V62V64H33H6.99998H4.99998V62V50.676C1.88817 47.1504 0 42.5191 0 37.4469C0 32.3747 1.88817 27.7435 4.99998 24.2178V12.219V10.219H6.99998ZM8.99998 54.1529V60H31V54.1529C27.8442 56.235 24.0636 57.4469 20 57.4469C15.9364 57.4469 12.1558 56.235 8.99998 54.1529ZM31 20.7409C27.8442 18.6588 24.0636 17.4469 20 17.4469C15.9364 17.4469 12.1558 18.6588 8.99998 20.741V14.219H20H31V20.7409Z"/>
</mask>
<path fill-rule="evenodd" clip-rule="evenodd" d="M6.99998 10.219H18V0H22V10.219H33H35V12.219V24.2178C38.1118 27.7434 40 32.3747 40 37.4469C40 42.5192 38.1118 47.1504 35 50.6761V62V64H33H6.99998H4.99998V62V50.676C1.88817 47.1504 0 42.5191 0 37.4469C0 32.3747 1.88817 27.7435 4.99998 24.2178V12.219V10.219H6.99998ZM8.99998 54.1529V60H31V54.1529C27.8442 56.235 24.0636 57.4469 20 57.4469C15.9364 57.4469 12.1558 56.235 8.99998 54.1529ZM31 20.7409C27.8442 18.6588 24.0636 17.4469 20 17.4469C15.9364 17.4469 12.1558 18.6588 8.99998 20.741V14.219H20H31V20.7409Z" fill="white"/>
<path d="M18 10.219V14.219H22V10.219H18ZM18 0V-4H14V0H18ZM22 0H26V-4H22V0ZM22 10.219H18V14.219H22V10.219ZM35 10.219H39V6.21898H35V10.219ZM35 24.2178H31V25.7305L32.001 26.8647L35 24.2178ZM35 50.6761L32.001 48.0291L31 49.1633V50.6761H35ZM35 64V68H39V64H35ZM4.99998 64H0.999976V68H4.99998V64ZM4.99998 50.676H8.99998V49.1633L7.99894 48.0291L4.99998 50.676ZM4.99998 24.2178L7.99894 26.8648L8.99998 25.7306V24.2178H4.99998ZM4.99998 10.219V6.21898H0.999976V10.219H4.99998ZM8.99998 54.1529L11.2028 50.8141L4.99998 46.7216V54.1529H8.99998ZM8.99998 60H4.99998V64H8.99998V60ZM31 60V64H35V60H31ZM31 54.1529H35V46.7216L28.7971 50.8141L31 54.1529ZM31 20.7409L28.7971 24.0797L35 28.1722V20.7409H31ZM8.99998 20.741H4.99998V28.1723L11.2028 24.0798L8.99998 20.741ZM8.99998 14.219V10.219H4.99998V14.219H8.99998ZM31 14.219H35V10.219H31V14.219ZM18 6.21898H6.99998V14.219H18V6.21898ZM14 0V10.219H22V0H14ZM22 -4H18V4H22V-4ZM26 10.219V0H18V10.219H26ZM33 6.21898H22V14.219H33V6.21898ZM35 6.21898H33V14.219H35V6.21898ZM39 12.219V10.219H31V12.219H39ZM39 24.2178V12.219H31V24.2178H39ZM32.001 26.8647C34.4926 29.6877 36 33.3864 36 37.4469H44C44 31.363 41.731 25.7992 37.9989 21.5708L32.001 26.8647ZM36 37.4469C36 41.5075 34.4926 45.2062 32.001 48.0291L37.9989 53.323C41.731 49.0946 44 43.5309 44 37.4469H36ZM39 62V50.6761H31V62H39ZM39 64V62H31V64H39ZM33 68H35V60H33V68ZM6.99998 68H33V60H6.99998V68ZM4.99998 68H6.99998V60H4.99998V68ZM0.999976 62V64H8.99998V62H0.999976ZM0.999976 50.676V62H8.99998V50.676H0.999976ZM7.99894 48.0291C5.50736 45.2061 4 41.5074 4 37.4469H-4C-4 43.5308 -1.73101 49.0946 2.00101 53.3229L7.99894 48.0291ZM4 37.4469C4 33.3864 5.50736 29.6877 7.99894 26.8648L2.00101 21.5709C-1.73101 25.7993 -4 31.363 -4 37.4469H4ZM0.999976 12.219V24.2178H8.99998V12.219H0.999976ZM0.999976 10.219V12.219H8.99998V10.219H0.999976ZM6.99998 6.21898H4.99998V14.219H6.99998V6.21898ZM4.99998 54.1529V60H13V54.1529H4.99998ZM8.99998 64H31V56H8.99998V64ZM35 60V54.1529H27V60H35ZM28.7971 50.8141C26.2749 52.4782 23.2567 53.4469 20 53.4469V61.4469C24.8706 61.4469 29.4134 59.9918 33.2028 57.4917L28.7971 50.8141ZM20 53.4469C16.7433 53.4469 13.725 52.4782 11.2028 50.8141L6.79712 57.4916C10.5865 59.9918 15.1294 61.4469 20 61.4469V53.4469ZM20 21.4469C23.2567 21.4469 26.2749 22.4157 28.7971 24.0797L33.2028 17.4022C29.4134 14.902 24.8706 13.4469 20 13.4469V21.4469ZM11.2028 24.0798C13.725 22.4157 16.7433 21.4469 20 21.4469V13.4469C15.1294 13.4469 10.5865 14.902 6.79712 17.4022L11.2028 24.0798ZM4.99998 14.219V20.741H13V14.219H4.99998ZM20 10.219H8.99998V18.219H20V10.219ZM31 10.219H20V18.219H31V10.219ZM35 20.7409V14.219H27V20.7409H35Z" fill="#E11B22" mask="url(#path-1-inside-1_6725_103608)"/>
<path fill-rule="evenodd" clip-rule="evenodd" d="M14.4702 35.2117L22.4702 25.7117L25.5299 28.2882L20.299 34.4999H24.0001H28.299L25.5299 37.7882L17.5299 47.2882L14.4702 44.7117L19.7012 38.4999H16.0001H11.7012L14.4702 35.2117Z" fill="#E11B22"/>
</svg>
