<?xml version="1.0" encoding="UTF-8"?>
<svg width="40" height="40" version="1.1" viewBox="0 0 40 40" xmlns="http://www.w3.org/2000/svg"><path fill="#000" d="m6.5781 0c-0.70825 0-1.3966 0.2727-1.8691 0.77148-0.47253 0.49878-0.70898 1.184-0.70898 1.8945v6.668c0 0.71052 0.23646 1.3958 0.70898 1.8945s1.1609 0.77148 1.8691 0.77148h0.42188a1.0001 1.0001 0 0 0 0 0.007812v21.984a1.0001 1.0001 0 0 0 0 0.007812h-1.3164c-0.76915 0-1.5102 0.34088-1.9863 0.90625-0.47609 0.56537-0.69727 1.3066-0.69727 2.0938 0 0.78711 0.22313 1.5284 0.69922 2.0938 0.47609 0.56535 1.2152 0.90625 1.9844 0.90625h28.633c0.76914 0 1.5083-0.34091 1.9844-0.90625s0.69922-1.3066 0.69922-2.0938c0-0.78716-0.22118-1.5284-0.69727-2.0938s-1.2172-0.90625-1.9863-0.90625h-1.3164a1.0001 1.0001 0 0 0 0-0.007812v-21.984a1.0001 1.0001 0 0 0 0-0.007812h0.42188c0.70824 0 1.3966-0.27271 1.8691-0.77148 0.47252-0.49878 0.70898-1.184 0.70898-1.8945v-6.668c0-0.71053-0.23646-1.3958-0.70898-1.8945-0.47252-0.49878-1.1609-0.77148-1.8691-0.77148h-26.844zm0 2h26.844c0.23909 0 0.33786 0.061929 0.41797 0.14648 0.080104 0.084556 0.16016 0.23005 0.16016 0.51953v6.668c0 0.28946-0.08005 0.43497-0.16016 0.51953-0.080107 0.084558-0.17889 0.14648-0.41797 0.14648h-26.844c-0.23912 0-0.33786-0.06193-0.41797-0.14648-0.080105-0.084555-0.16016-0.23007-0.16016-0.51953v-6.668c0-0.28948 0.080054-0.43498 0.16016-0.51953 0.080103-0.084553 0.17885-0.14648 0.41797-0.14648zm9.4219 1a1.0001 1.0001 0 0 0-1 1v4a1.0001 1.0001 0 0 0 1 1h8a1.0001 1.0001 0 0 0 1-1v-4a1.0001 1.0001 0 0 0-1-1h-8zm-5 1c-1.0957 0-2 0.90431-2 2 0 1.0957 0.90431 2 2 2 1.0957 0 2-0.90431 2-2 0-1.0957-0.90431-2-2-2zm18 0c-1.0957 0-2 0.90431-2 2 0 1.0957 0.90431 2 2 2 1.0957 0 2-0.90431 2-2 0-1.0957-0.90431-2-2-2zm-12 1h6v2h-6v-2zm-6 0.5c0.28502 0 0.5 0.21498 0.5 0.5 0 0.28502-0.21498 0.5-0.5 0.5-0.28502 0-0.5-0.21498-0.5-0.5 0-0.28502 0.21498-0.5 0.5-0.5zm18 0c0.28502 0 0.5 0.21498 0.5 0.5 0 0.28502-0.21498 0.5-0.5 0.5-0.28502 0-0.5-0.21498-0.5-0.5 0-0.28502 0.21498-0.5 0.5-0.5zm-20 6.5h7.5v5.5996c0 0.68456 0.30729 1.3552 0.81445 1.7812 0.50716 0.42603 1.1649 0.61914 1.8516 0.61914h1.668c0.68668 0 1.3444-0.19312 1.8516-0.61914 0.40719-0.34204 0.67561-0.84284 0.76953-1.3809h5.5449a1.0001 1.0001 0 0 0 1-1v-3a1.0001 1.0001 0 0 0-1-1h-5.5v-1h7.5a1.0001 1.0001 0 0 0 0 0.007812v21.984a1.0001 1.0001 0 0 0 0 0.007812h-7.3477c0.87418-0.51284 1.625-1.1993 2.1934-2.0117a1.0001 1.0001 0 0 0 0.16797 0.011719h2.2559a1.0001 1.0001 0 0 0 0.89453-0.55273l1.6113-3.2227a1.0001 1.0001 0 0 0-0.89453-1.4473h-2.8809v-0.77734a1.0001 1.0001 0 0 0-1-1h-12a1.0001 1.0001 0 0 0-1 1v2.4004c0 2.3644 1.3609 4.4341 3.3477 5.5996h-7.3477a1.0001 1.0001 0 0 0 0-0.007812v-21.984a1.0001 1.0001 0 0 0 0-0.007812zm9.5 1h3v4.5996c0 0.15549-0.025391 0.18601-0.10156 0.25-0.076177 0.063989-0.25109 0.15039-0.56445 0.15039h-1.668c-0.31336 0-0.48828-0.0864-0.56445-0.15039-0.076175-0.063988-0.10156-0.094507-0.10156-0.25v-4.5996zm5.5 2h4v1h-4v-1zm-9 12h10v1.4004c0 2.4386-2.2667 4.5996-5 4.5996-2.7331 0-5-2.161-5-4.5996v-1.4004zm11.979 1.7773h1.2852l-0.61133 1.2227h-0.87305c0.10683-0.39471 0.17332-0.80354 0.19922-1.2227zm-21.295 7.2227h28.633c0.24134 0 0.3417 0.05871 0.45508 0.19336 0.11338 0.13465 0.22852 0.39374 0.22852 0.80664 0 0.41282-0.11513 0.672-0.22852 0.80664-0.11338 0.13464-0.21374 0.19336-0.45508 0.19336h-28.633c-0.24138 0-0.3417-0.058722-0.45508-0.19336-0.11338-0.13464-0.22852-0.39382-0.22852-0.80664 0-0.41291 0.11513-0.672 0.22852-0.80664 0.11338-0.13464 0.2137-0.19336 0.45508-0.19336z"/></svg>
