<?xml version="1.0" encoding="UTF-8"?>
<svg width="40" height="40" version="1.1" viewBox="0 0 40 40" xmlns="http://www.w3.org/2000/svg"><path fill="#000" d="m5.1309 1c-2.2672 0-4.1309 1.8637-4.1309 4.1309v29.738c0 2.2672 1.8637 4.1309 4.1309 4.1309h29.738c2.2672 0 4.1309-1.8637 4.1309-4.1309v-29.738c0-2.2672-1.8637-4.1309-4.1309-4.1309h-29.738zm0 2h29.738c1.1762 0 2.1309 0.95457 2.1309 2.1309v29.738c0 1.1762-0.95465 2.1309-2.1309 2.1309h-29.738c-1.1763 0-2.1309-0.95465-2.1309-2.1309v-29.738c0-1.1763 0.95457-2.1309 2.1309-2.1309zm5.8691 2c-3.3019 0-6 2.6981-6 6 0 3.3019 2.6981 6 6 6 3.3019 0 6-2.6981 6-6 0-3.3019-2.6981-6-6-6zm18 0c-3.3019 0-6 2.6981-6 6 0 3.3019 2.6981 6 6 6 3.3019 0 6-2.6981 6-6 0-3.3019-2.6981-6-6-6zm-18 2c2.221 0 4 1.779 4 4 0 2.221-1.779 4-4 4-2.221 0-4-1.779-4-4 0-2.221 1.779-4 4-4zm18 0c2.221 0 4 1.779 4 4 0 2.221-1.779 4-4 4-2.221 0-4-1.779-4-4 0-2.221 1.779-4 4-4zm-18 12c-3.3019 0-6 2.6981-6 6 0 3.3019 2.6981 6 6 6 3.3019 0 6-2.6981 6-6 0-3.3019-2.6981-6-6-6zm18 0c-3.3019 0-6 2.6981-6 6 0 3.3019 2.6981 6 6 6 3.3019 0 6-2.6981 6-6 0-3.3019-2.6981-6-6-6zm-18 2c2.221 0 4 1.779 4 4 0 2.221-1.779 4-4 4-2.221 0-4-1.779-4-4 0-2.221 1.779-4 4-4zm18 0c2.221 0 4 1.779 4 4 0 2.221-1.779 4-4 4-2.221 0-4-1.779-4-4 0-2.221 1.779-4 4-4zm-18 1.5c-1.3689 0-2.5 1.1311-2.5 2.5 0 1.3689 1.1311 2.5 2.5 2.5 1.3689 0 2.5-1.1311 2.5-2.5 0-1.3689-1.1311-2.5-2.5-2.5zm0 2c0.28798 0 0.5 0.21201 0.5 0.5 0 0.28799-0.21201 0.5-0.5 0.5-0.28799 0-0.5-0.21201-0.5-0.5 0-0.28798 0.21202-0.5 0.5-0.5zm4 7.5c-1.0957 0-2 0.90433-2 2 0 1.0957 0.90437 2 2 2 1.0956 0 2-0.90426 2-2 0-1.0957-0.90432-2-2-2zm5 0c-1.0957 0-2 0.90433-2 2 0 1.0957 0.90437 2 2 2 1.0956 0 2-0.90426 2-2 0-1.0957-0.90432-2-2-2zm5 0c-1.0957 0-2 0.90433-2 2 0 1.0957 0.90437 2 2 2 1.0956 0 2-0.90426 2-2 0-1.0957-0.90432-2-2-2zm-10 1.5c0.28488 0 0.5 0.21502 0.5 0.5 0 0.28522-0.215 0.5-0.5 0.5-0.28524 0-0.5-0.21478-0.5-0.5 0-0.28498 0.21487-0.5 0.5-0.5zm5 0c0.28488 0 0.5 0.21502 0.5 0.5 0 0.28522-0.215 0.5-0.5 0.5-0.28524 0-0.5-0.21478-0.5-0.5 0-0.28498 0.21487-0.5 0.5-0.5zm5 0c0.28488 0 0.5 0.21502 0.5 0.5 0 0.28522-0.215 0.5-0.5 0.5-0.28524 0-0.5-0.21478-0.5-0.5 0-0.28498 0.21487-0.5 0.5-0.5z"/></svg>
