<?xml version="1.0" encoding="UTF-8"?>
<svg width="40" height="40" version="1.1" viewBox="0 0 40 40" xmlns="http://www.w3.org/2000/svg"><path fill="#000" d="m19.92 1c-4.4856 0-8.4633 3.0757-9.1992 7.3027a1.0001 1.0001 0 0 0-0.01367 0.17188v0.23438l-0.34766 2.3281-4.4199 0.26758a1.0001 1.0001 0 0 0-0.68555 1.6641l4.1074 4.6016-2.2715 14.619c-0.33297 0.13057-0.63634 0.32393-0.88086 0.58203-0.47252 0.49876-0.70898 1.184-0.70898 1.8945v3.334a1.0001 1.0001 0 0 0 1 1h27a1.0001 1.0001 0 0 0 1-1v-3.334c0-0.71051-0.23645-1.3958-0.70898-1.8945-0.25012-0.264-0.5623-0.45942-0.9043-0.58984l-3.1621-20.518c0.10293 0.0474 0.20561 0.09524 0.30859 0.14258 0.69477 0.38508 1.225 0.87322 1.6328 1.498a1.0001 1.0001 0 0 0 0.0625 0.08398c0.37847 0.46389 0.64706 1.057 0.78906 1.8398a1.0001 1.0001 0 0 0 0.0039 0.01953l1.9961 9.9355a1.0001 1.0001 0 1 0 1.9609-0.39453l-1.9922-9.918v-2e-3c-0.18758-1.0326-0.58482-1.9458-1.1855-2.6973-0.58475-0.8787-1.3644-1.6032-2.3105-2.125a1.0001 1.0001 0 0 0-0.06445-0.0332c-0.52194-0.23982-1.0443-0.4791-1.5664-0.7187l-0.07813-0.50977a1.0001 1.0001 0 0 0 0-0.00586c-0.35667-2.2192-1.4672-4.1686-3.2656-5.5527-1.6241-1.3725-3.768-2.2266-6.0957-2.2266zm0 2c1.8481 0 3.5543 0.68339 4.8262 1.7656a1.0001 1.0001 0 0 0 0.04102 0.033203c0.40951 0.31359 0.7628 0.66057 1.0742 1.0332h-11.879c1.3433-1.705 3.5335-2.832 5.9375-2.832zm-7.0117 4.832h14.084c0.13799 0.39962 0.2433 0.82096 0.31445 1.2637l3.5273 22.904h-21.691l2.7461-17.668a1.0001 1.0001 0 0 0 2e-3 -0.0059l0.80469-5.3965a1.0001 1.0001 0 0 0 0.01172-0.14648v-0.17769c0.04796-0.26372 0.11918-0.52052 0.20117-0.77344zm-2.8516 5.2266-0.14453 0.96875-0.15234 0.98633-1.6406-1.8379zm11.443 13.941c-1.0955 0-2 0.90426-2 2s0.90433 2 2 2c1.0957 0 2-0.90426 2-2s-0.90438-2-2-2zm5 0c-1.0955 0-2 0.90426-2 2s0.90433 2 2 2c1.0957 0 2-0.90426 2-2s-0.90438-2-2-2zm-5 1.5c0.28514 0 0.5 0.21498 0.5 0.5s-0.21499 0.5-0.5 0.5c-0.28474 0-0.5-0.21499-0.5-0.5s0.21514-0.5 0.5-0.5zm5 0c0.28514 0 0.5 0.21498 0.5 0.5s-0.21499 0.5-0.5 0.5c-0.28474 0-0.5-0.21499-0.5-0.5s0.21514-0.5 0.5-0.5zm-18.422 5.5h23.844c0.23913 0 0.33786 0.06193 0.41797 0.14648 0.08011 0.08456 0.16016 0.23013 0.16016 0.51953v2.334h-25v-2.334c0-0.28941 0.08005-0.43498 0.16016-0.51953 0.080106-0.084554 0.17886-0.14648 0.41797-0.14648z"/></svg>
