<?xml version="1.0" encoding="UTF-8"?>
<svg width="40" height="40" version="1.1" viewBox="0 0 40 40" xmlns="http://www.w3.org/2000/svg"><path fill="#000" d="m15.5 1a1.0001 1.0001 0 0 0-0.95117 0.69336l-4.5 14a1.0001 1.0001 0 0 0 0.95117 1.3066h8v17h-4a1.0001 1.0001 0 0 0-1 1v3a1.0001 1.0001 0 0 0 1 1h10a1.0001 1.0001 0 0 0 1-1v-3a1.0001 1.0001 0 0 0-1-1h-4v-17h8a1.0001 1.0001 0 0 0 0.95117-1.3066l-4.5-14a1.0001 1.0001 0 0 0-0.95117-0.69336h-9zm0.72852 2h7.543l3.8574 12h-15.258l3.8574-12zm-0.22852 33h8v1h-8v-1z"/></svg>
