<?xml version="1.0" encoding="UTF-8"?>
<svg width="40" height="40" version="1.1" viewBox="0 0 40 40" xmlns="http://www.w3.org/2000/svg"><path fill="#000" d="m3.5645 3.9999c-0.69673 0-1.3759 0.25604-1.8496 0.74023-0.47366 0.48419-0.71484 1.162-0.71484 1.8594v20.801c0 0.69741 0.24116 1.3752 0.71484 1.8594 0.47368 0.48419 1.1529 0.74023 1.8496 0.74023h12.936v5h-2.4785a1.0079 1.0001 0 1 0 0 2h11.957a1.0079 1.0001 0 1 0 0-2h-2.4785v-5h12.936c0.69669 0 1.3759-0.25605 1.8496-0.74023 0.47368-0.48419 0.71484-1.162 0.71484-1.8594v-20.801c0-0.6974-0.24118-1.3752-0.71484-1.8594s-1.1529-0.74023-1.8496-0.74023zm0 2h32.871c0.24239 0 0.34575 0.062856 0.41992 0.13867 0.074168 0.075816 0.14453 0.19833 0.14453 0.46094v16.4h-34v-16.4c0-0.26261 0.070368-0.38513 0.14453-0.46094 0.074164-0.075812 0.17752-0.13867 0.41992-0.13867zm-0.56445 19h34v2.4004c0 0.26266-0.07038 0.38514-0.14453 0.46094-0.07415 0.0758-0.1775 0.13867-0.41992 0.13867h-32.871c-0.24243 0-0.34577-0.06288-0.41992-0.13867-0.074148-0.075793-0.14453-0.19827-0.14453-0.46094zm15.5 5h3v5h-3z"/></svg>
