<?xml version="1.0" encoding="UTF-8"?>
<svg width="40" height="40" version="1.1" viewBox="0 0 40 40" xmlns="http://www.w3.org/2000/svg"><path fill="#000" d="m4.4785 2c-0.6657 0-1.3186 0.23849-1.7793 0.69922-0.46073 0.46073-0.69922 1.1136-0.69922 1.7793v31.043c0 0.66571 0.23849 1.3186 0.69922 1.7793 0.46073 0.46074 1.1136 0.69922 1.7793 0.69922h31.043c0.66571 0 1.3186-0.23848 1.7793-0.69922s0.69922-1.1136 0.69922-1.7793v-31.043c0-0.6657-0.23848-1.3186-0.69922-1.7793-0.46074-0.46073-1.1136-0.69922-1.7793-0.69922h-31.043zm0 2h31.043c0.22129 0 0.30857 0.056619 0.36524 0.11328 0.056663 0.056663 0.11328 0.14397 0.11328 0.36523v31.043c0 0.22129-0.05662 0.30857-0.11328 0.36524-0.056663 0.056663-0.14394 0.11328-0.36524 0.11328h-31.043c-0.22126 0-0.30857-0.056618-0.36523-0.11328-0.056662-0.056664-0.11328-0.14394-0.11328-0.36524v-31.043c0-0.22126 0.056618-0.30857 0.11328-0.36523 0.056663-0.056663 0.14397-0.11328 0.36523-0.11328zm15.521 0.95703c-8.2964 1e-7 -15.043 6.7465-15.043 15.043 1e-7 8.2964 6.7465 15.043 15.043 15.043s15.043-6.7465 15.043-15.043-6.7465-15.043-15.043-15.043zm0 2c7.2156 1e-7 13.043 5.8274 13.043 13.043s-5.8274 13.043-13.043 13.043-13.043-5.8274-13.043-13.043c1e-7 -7.2156 5.8274-13.043 13.043-13.043zm-6.6523 11.303c-1.3569 0-2.4785 1.1216-2.4785 2.4785 0 1.3569 1.1216 2.4785 2.4785 2.4785s2.4785-1.1216 2.4785-2.4785-1.1216-2.4785-2.4785-2.4785zm13.305 0c-1.3569 0-2.4785 1.1216-2.4785 2.4785s1.1216 2.4785 2.4785 2.4785 2.4785-1.1217 2.4785-2.4785c0-1.3568-1.1216-2.4785-2.4785-2.4785zm-13.305 2c0.2759 0 0.47852 0.20262 0.47852 0.47852s-0.20262 0.47852-0.47852 0.47852-0.47852-0.20259-0.47852-0.47852c0-0.27592 0.20262-0.47852 0.47852-0.47852zm13.305 0c0.2759 0 0.47852 0.20254 0.47852 0.47852 0 0.27598-0.20262 0.47852-0.47852 0.47852s-0.47852-0.20262-0.47852-0.47852 0.20262-0.47852 0.47852-0.47852z"/></svg>
