<?xml version="1.0" encoding="UTF-8"?>
<svg width="40" height="40" version="1.1" viewBox="0 0 40 40" xmlns="http://www.w3.org/2000/svg"><path fill="#000" d="m11.527 0.99023c-0.68728 0-1.3592 0.25268-1.8281 0.73047-0.46894 0.47779-0.70898 1.1463-0.70898 1.834v32.871c0 0.68766 0.24005 1.3562 0.70898 1.834 0.46893 0.47778 1.1408 0.73047 1.8281 0.73047h16.898c0.6873 0 1.3572-0.25269 1.8262-0.73047 0.46895-0.47778 0.70898-1.1463 0.70898-1.834v-32.871c0-0.68768-0.24004-1.3562-0.70898-1.834-0.46895-0.47779-1.1389-0.73047-1.8262-0.73047h-16.898zm0 2h16.898c0.23449 0 0.33165 0.060821 0.40039 0.13086 0.06874 0.070038 0.13477 0.18212 0.13477 0.43359v32.871c0 0.25144-0.06602 0.36356-0.13477 0.43359-0.06874 0.07004-0.16591 0.13086-0.40039 0.13086h-16.898c-0.23445 0-0.33165-0.06082-0.40039-0.13086-0.06874-0.07004-0.13672-0.18216-0.13672-0.43359v-32.871c0-0.25147 0.06798-0.36356 0.13672-0.43359 0.06874-0.070037 0.16594-0.13086 0.40039-0.13086zm8.4492 2.6953c-1.8233 0-3.3047 1.5206-3.3047 3.3477 0 1.8271 1.4814 3.3477 3.3047 3.3477 1.8233 0 3.3047-1.5205 3.3047-3.3477 0-1.8271-1.4814-3.3477-3.3047-3.3477zm0 2c0.72201 0 1.3047 0.58142 1.3047 1.3477 0 0.76623-0.58268 1.3477-1.3047 1.3477-0.72201 0-1.3047-0.5814-1.3047-1.3477 0-0.76626 0.58268-1.3477 1.3047-1.3477zm0 8.957c-1.8233 0-3.3047 1.5206-3.3047 3.3477s1.4814 3.3477 3.3047 3.3477c1.8233 0 3.3047-1.5205 3.3047-3.3477 0-1.8271-1.4814-3.3477-3.3047-3.3477zm0 2c0.72199 0 1.3047 0.58141 1.3047 1.3477 0 0.76625-0.58265 1.3477-1.3047 1.3477-0.72204 0-1.3047-0.58138-1.3047-1.3477s0.5827-1.3477 1.3047-1.3477zm0 8.957c-1.8233 0-3.3047 1.5206-3.3047 3.3477s1.4814 3.3477 3.3047 3.3477c1.8233 0 3.3047-1.5205 3.3047-3.3477 0-1.8271-1.4814-3.3477-3.3047-3.3477zm0 2c0.72199 0 1.3047 0.58141 1.3047 1.3477 0 0.76625-0.58265 1.3477-1.3047 1.3477-0.72204 0-1.3047-0.58138-1.3047-1.3477s0.5827-1.3477 1.3047-1.3477z"/></svg>
