<?xml version="1.0" encoding="UTF-8"?>
<svg width="40" height="40" version="1.1" viewBox="0 0 40 40" xmlns="http://www.w3.org/2000/svg"><path fill="#000" d="m6.584 1.0039c-0.69398 0-1.3704 0.24565-1.8496 0.7207s-0.73047 1.152-0.73047 1.8457v32.869c0 0.69373 0.25125 1.3687 0.73047 1.8438s1.1556 0.7207 1.8496 0.7207h26.842c0.69397 0 1.3704-0.24566 1.8496-0.7207 0.47921-0.47504 0.72852-1.15 0.72852-1.8438v-32.869c0-0.69374-0.2493-1.3707-0.72852-1.8457-0.47922-0.47505-1.1556-0.7207-1.8496-0.7207h-26.842zm0 2h26.842c0.25337 0 0.36799 0.067849 0.44141 0.14062 0.07341 0.072776 0.13672 0.18039 0.13672 0.42578v32.869c0 0.24536-0.0633 0.35105-0.13672 0.42383-0.07342 0.07278-0.18804 0.14062-0.44141 0.14062h-26.842c-0.25341 0-0.36799-0.06785-0.44141-0.14062-0.073415-0.07278-0.13867-0.17846-0.13867-0.42383v-32.869c0-0.2454 0.065259-0.35301 0.13867-0.42578 0.073413-0.072774 0.188-0.14062 0.44141-0.14062zm3.9473 2.6953c-0.97174-2e-7 -1.7891 0.80579-1.7891 1.7832 0 0.97741 0.81732 1.7832 1.7891 1.7832 0.97174 0 1.7891-0.80579 1.7891-1.7832 0-0.97741-0.81732-1.7832-1.7891-1.7832zm9.4727 0c-0.97175-2e-7 -1.7891 0.80578-1.7891 1.7832 0 0.97743 0.81731 1.7832 1.7891 1.7832s1.7891-0.80578 1.7891-1.7832c0-0.97743-0.81731-1.7832-1.7891-1.7832zm4.7383 0c-0.97173-2e-7 -1.791 0.80592-1.791 1.7832 0 0.97728 0.81929 1.7832 1.791 1.7832 0.97175 0 1.7891-0.80578 1.7891-1.7832 0-0.97743-0.81731-1.7832-1.7891-1.7832zm4.7363 0c-0.97173-2e-7 -1.7891 0.80578-1.7891 1.7832 0 0.97743 0.81734 1.7832 1.7891 1.7832 0.97175 0 1.7891-0.80578 1.7891-1.7832 0-0.97743-0.81731-1.7832-1.7891-1.7832zm-18.947 1.5664c0.09971 0 0.21094 0.10385 0.21094 0.2168 0 0.11297-0.11123 0.2168-0.21094 0.2168-0.09971 0-0.21094-0.10383-0.21094-0.2168 0-0.11294 0.11123-0.2168 0.21094-0.2168zm9.4727 0c0.09978 0 0.21094 0.10384 0.21094 0.2168 0 0.11298-0.11116 0.2168-0.21094 0.2168-0.09977 0-0.21094-0.10381-0.21094-0.2168 0-0.11296 0.11116-0.2168 0.21094-0.2168zm4.7383 0c0.09956 0 0.20898 0.10399 0.20898 0.2168 0 0.11283-0.10943 0.2168-0.20898 0.2168-0.09977 0-0.21094-0.10381-0.21094-0.2168 0-0.11296 0.11116-0.2168 0.21094-0.2168zm4.7363 0c0.09955 0 0.21094 0.10384 0.21094 0.2168 0 0.11298-0.11138 0.2168-0.21094 0.2168-0.09977 0-0.21094-0.10381-0.21094-0.2168 0-0.11296 0.11117-0.2168 0.21094-0.2168zm-9.4746 4.6953c-6.204 0-11.262 5.0097-11.262 11.174s5.0577 11.174 11.262 11.174c6.204 0 11.264-5.0097 11.264-11.174s-5.0597-11.174-11.264-11.174zm0 2c5.1325 0 9.2637 4.1001 9.2637 9.1738 0 5.0737-4.1312 9.1738-9.2637 9.1738-5.1325 0-9.2617-4.1001-9.2617-9.1738 0-5.0737 4.1292-9.1738 9.2617-9.1738zm0 1.1309c-1.1996 0-2.146 0.18576-3.1562 0.51953a1.0001 1.0001 0 0 0-0.054687 0.019531c-1.0018 0.39729-1.8542 1.1004-2.5449 1.7852-0.15812 0.15664-0.44584 0.45393-0.66406 0.88672a1.0001 1.0001 0 0 0-0.10547 0.44922v1.5625c-0.94187 0.59534-1.5781 1.6353-1.5781 2.8203 0 1.185 0.63626 2.225 1.5781 2.8203v1.5625a1.0001 1.0001 0 0 0 0.29492 0.70898c0.15773 0.15636 0.18748 0.17367 0.28516 0.36719a1.0001 1.0001 0 0 0 0.18945 0.25977c0.74993 0.7434 1.6128 1.2453 2.4023 1.7148a1.0001 1.0001 0 0 0 0.14258 0.070313c0.93818 0.37207 2.0113 0.53906 3.2109 0.53906 1.1997 0 2.146-0.18565 3.1562-0.51953a1.0001 1.0001 0 0 0 0.054688-0.019531c1.002-0.3972 1.8561-1.1004 2.5469-1.7852 0.74997-0.74344 1.2568-1.6003 1.7305-2.3828a1.0001 1.0001 0 0 0 0.070312-0.14453c0.37644-0.93286 0.54688-1.9997 0.54688-3.1914 0-1.1917-0.18814-2.1339-0.52539-3.1367a1.0001 1.0001 0 0 0-0.021484-0.054688c-0.40232-0.99718-1.11-1.8426-1.8008-2.5273-0.74993-0.7434-1.6147-1.2452-2.4043-1.7148a1.0001 1.0001 0 0 0-0.14258-0.070313c-0.93809-0.37192-2.0112-0.53906-3.2109-0.53906zm0 2c0.98852 0 1.7854 0.14497 2.4199 0.38867 0.74894 0.44678 1.4387 0.86872 1.9297 1.3555 0.5658 0.56088 1.1059 1.2691 1.3398 1.834 0.28613 0.85738 0.41602 1.4786 0.41602 2.4648 0 0.97642-0.14629 1.7608-0.39062 2.3867-0.45036 0.74176-0.87455 1.4257-1.3652 1.9121-0.56651 0.56158-1.2813 1.0991-1.8555 1.332-0.86536 0.28371-1.4973 0.41211-2.4941 0.41211-0.98839 0-1.7836-0.14494-2.418-0.38867-0.72956-0.43519-1.4004-0.84733-1.8887-1.3184-0.071206-0.092482-0.14221-0.17338-0.21875-0.26562v-0.74219c0.38954-0.043203 0.77769-0.19815 1.0664-0.48438 0.34104-0.3381 0.51172-0.81842 0.51172-1.2773v-3.1309c0-0.45892-0.17064-0.93923-0.51172-1.2773-0.28875-0.28623-0.6769-0.4427-1.0664-0.48633v-0.74219c0.04603-0.06511 0.07766-0.13131 0.17578-0.22852a1.0001 1.0001 0 0 0 0.001953 0c0.56651-0.56158 1.2813-1.099 1.8555-1.332 0.86538-0.28363 1.4954-0.41211 2.4922-0.41211zm-4.9473 4.791v2.5039c-0.60018-0.1284-1.1562-0.66267-1.1562-1.252 0-0.58934 0.55597-1.1236 1.1562-1.252z"/></svg>
