<?xml version="1.0" encoding="UTF-8"?>
<svg width="169" height="44" fill="none" version="1.1" viewBox="0 0 169 44" xmlns="http://www.w3.org/2000/svg"><g stroke-width="1.1706"><path d="m44-0.47586h-44.476v44.476h44.476z" clip-path="url(#clipPath2176)" fill="#db0812"/><path d="m54.012 6.2285v31.111h33.004v-7.2188h-23.42v-5.1152h22.473v-7.1328h-22.473v-4.5977h22.988v-7.0469h-32.572zm40.352 0v31.111h9.7109v-14.697l16.33 14.697h12.633l-18.65-16.889 17.791-14.223h-12.291l-15.812 12.977v-12.977h-9.7109zm42.715 0v31.111h9.668v-12.334h21.742v-7.1328h-21.742v-4.5977h22.301v-7.0469h-31.969z" clip-path="url(#clipPath2170)" fill="#000"/><path d="m8.7207 6.2285c4.555 7.0904 4.5117 18.262 4.5117 18.262 2.1486-6.5748 1.9335-12.847 1.5469-18.262h-6.0586zm10.227 0c-0.51567 5.6293-1.2457 12.89-6.4453 21.699l0.38672 0.38672c7.5201-9.6257 10.355-15.941 12.934-22.086h-6.875zm11.689 0c-5.9731 11.645-18.22 23.978-26.385 32.572-0.17188 0.17197-0.25781 0.42961-0.25781 0.6875 0.25783 0 0.51562-0.08584 0.6875-0.25781 8.6374-8.1217 20.97-20.326 32.658-26.342v-6.6602h-6.7031zm6.7031 11.473c-6.1449 2.5783-12.462 5.4155-22.131 12.893l0.38672 0.38672c8.8092-5.1567 16.115-5.9316 21.744-6.4043v-6.875zm-5.332 10.699c-4.0584-0.030928-8.425 0.32948-12.975 1.8066h-0.042969s13.193 0.2575 18.35 4.4688v-6.0605c-1.7054-0.10744-3.4873-0.20078-5.332-0.21484z" clip-path="url(#clipPath2152)" fill="#fff"/></g><defs><clipPath id="clipPath2152"><rect width="168.57" height="44.304" fill="#fff" stroke-width="1.1706"/></clipPath><clipPath id="clipPath2170"><rect width="168.57" height="44.304" fill="#fff" stroke-width="1.1706"/></clipPath><clipPath id="clipPath2176"><rect width="168.57" height="44.304" fill="#fff" stroke-width="1.1706"/></clipPath></defs></svg>
