<svg width="142" height="44" viewBox="0 0 142 44" fill="none" xmlns="http://www.w3.org/2000/svg">
<g clip-path="url(#clip0)">
<path d="M64.2518 18.3093C64.2518 22.9666 61.0528 25.8837 56.2116 25.8837H51.3364V33.0453H46.7168V10.8633H56.2173C61.0585 10.8633 64.2518 13.6521 64.2518 18.3093ZM59.5754 18.3763C59.5754 16.413 58.4106 15.1747 56.0241 15.1747H51.342V21.5778H56.0241C58.4106 21.5778 59.5754 20.3061 59.5754 18.3763Z" fill="#212529"/>
<path d="M78.6231 15.2996V19.9569C78.2708 19.9234 78.0094 19.8955 77.4924 19.8955C74.5547 19.8955 72.0375 21.1617 72.0375 25.2835V33.0474H67.418V15.6176H72.0375V18.6629C73.1342 16.3817 75.0718 15.2383 77.589 15.2383C78.0094 15.2383 78.3333 15.2717 78.6231 15.2996Z" fill="#212529"/>
<path d="M98.9004 24.3353C98.9004 29.5949 94.832 33.4323 89.6329 33.4323C84.4678 33.4323 80.3994 29.5671 80.3994 24.3353C80.3994 19.0756 84.5303 15.2383 89.6329 15.2383C94.7638 15.2383 98.9004 19.0756 98.9004 24.3353ZM85.0474 24.3353C85.0474 27.2189 87.0475 29.1208 89.6329 29.1208C92.2182 29.1208 94.2183 27.2189 94.2183 24.3353C94.2183 21.4852 92.2182 19.5497 89.6329 19.5497C87.0475 19.5497 85.0474 21.4852 85.0474 24.3353Z" fill="#212529"/>
<path d="M124.333 29.6049V33.0518H110.479V30.4694L115.741 25.9627C119.429 22.7724 120.207 22.064 120.207 20.77C120.207 19.582 119.355 18.4665 117.446 18.4665C115.616 18.4665 114.662 19.4816 114.377 21.2776H110.661C110.917 17.429 113.73 15.0195 117.599 15.0195C121.571 15.0195 123.946 17.5796 123.946 20.5915C123.946 23.3245 122.037 24.8974 118.787 27.6862L116.565 29.5881L116.514 29.6105H124.333V29.6049Z" fill="#DA1F24"/>
<path d="M141.18 29.1471L138.651 29.175V33.0514H134.964V29.175H126.009V25.7783L133.208 15.3203H138.651V25.7559L141.18 25.7783V29.1471ZM134.964 25.7559V18.6892H134.731L129.958 25.7559H134.964Z" fill="#DA1F24"/>
<path d="M0.306834 8.12891C0.119324 8.38547 0 8.69224 0 8.98227V34.2319C0 34.7785 0.409113 35.4032 0.920503 35.6319L19.6999 43.9815C19.9556 44.0931 20.2852 44.1488 20.6204 44.1488V37.4613L7.04014 31.4599V28.236L19.6999 33.8303C19.9556 33.9419 20.2852 33.9977 20.6204 33.9977V27.3102L7.04014 21.3087V18.0849L19.6999 23.6792C19.9556 23.7907 20.2852 23.8465 20.6204 23.8465V17.159L0.306834 8.12891Z" fill="#C21F24"/>
<path d="M40.3085 18.5554L20.6143 27.3122V33.9997C20.9495 33.9997 21.2791 33.9439 21.5348 33.8323L40.3142 25.4827C40.8199 25.2596 41.2347 24.6294 41.2347 24.0828V19.1355C41.229 18.5889 40.8142 18.3267 40.3085 18.5554Z" fill="#DA1F24"/>
<path d="M40.3085 28.7077L20.6143 37.4645V44.152C20.9495 44.152 21.2791 44.0962 21.5348 43.9847L40.3142 35.6351C40.8199 35.412 41.2347 34.7817 41.2347 34.2351V29.2878C41.229 28.7412 40.8142 28.479 40.3085 28.7077Z" fill="#DA1F24"/>
<path d="M40.9222 8.1307C40.7575 7.90202 40.5359 7.71796 40.2915 7.62314L21.5462 0.154778C21.0292 -0.0515925 20.1939 -0.0515925 19.6768 0.154778L0.931497 7.62314C0.687165 7.71796 0.471245 7.9076 0.300781 8.1307L20.6087 17.1608V23.8483C20.9439 23.8483 21.2735 23.7925 21.5292 23.681L40.3086 15.3313C40.8143 15.1082 41.2291 14.478 41.2291 13.9314V8.98407C41.2291 8.69404 41.1098 8.38727 40.9222 8.1307Z" fill="#DA1F24"/>
</g>
<defs>
<clipPath id="clip0">
<rect width="141.177" height="44" fill="white"/>
</clipPath>
</defs>
</svg>
