<svg width="44" height="44" viewBox="0 0 44 44" fill="none" xmlns="http://www.w3.org/2000/svg">
<rect width="44" height="44" fill="#312A74"/>
<path fill-rule="evenodd" clip-rule="evenodd" d="M11.7119 21.1637C11.7119 20.8599 11.9562 20.6157 12.2599 20.6157C12.5637 20.6157 12.808 20.8599 12.808 21.1637V34.05H27.6139V21.3046C27.6139 21.0008 27.8581 20.7566 28.1619 20.7566C28.4657 20.7566 28.7099 21.0008 28.7099 21.3046V34.598C28.7099 34.9018 28.4657 35.146 28.1619 35.146H12.2599C11.9562 35.146 11.7119 34.9018 11.7119 34.598V21.1637Z" fill="white"/>
<path fill-rule="evenodd" clip-rule="evenodd" d="M9.91796 24.1042C9.69562 24.3078 9.35116 24.2952 9.14447 24.0729C8.94092 23.8506 8.95345 23.5061 9.17579 23.2994L19.8387 13.4507C20.0485 13.2566 20.371 13.2597 20.5809 13.4507L31.2438 23.2994C31.4661 23.503 31.4818 23.8506 31.2751 24.0729C31.0715 24.2952 30.7239 24.3109 30.5016 24.1042L20.2082 14.5969L9.91483 24.1042H9.91796Z" fill="white"/>
<path fill-rule="evenodd" clip-rule="evenodd" d="M23.7748 25.6888V27.8371C23.7748 28.8172 23.374 29.7097 22.7289 30.3548C22.0838 30.9999 21.1913 31.4008 20.2112 31.4008C19.231 31.4008 18.3385 30.9999 17.6934 30.3548C17.0483 29.7097 16.6475 28.8172 16.6475 27.8371V25.6888C16.6475 25.4947 16.8072 25.335 17.0013 25.335H23.4241C23.6183 25.335 23.778 25.4947 23.778 25.6888H23.7748ZM22.8354 27.8402V26.2744H17.5838V27.8402C17.5838 28.1972 17.6527 28.5354 17.7811 28.8423C17.9126 29.1617 18.1099 29.4498 18.3542 29.6972C18.5984 29.9415 18.8865 30.1387 19.2091 30.2703C19.516 30.3987 19.8542 30.4676 20.2112 30.4676C20.5681 30.4676 20.9064 30.3987 21.2132 30.2703C21.5327 30.1387 21.8208 29.9415 22.0682 29.6972C22.3124 29.4529 22.5097 29.1617 22.6412 28.8423C22.7696 28.5354 22.8385 28.1972 22.8385 27.8402H22.8354Z" fill="white"/>
<path fill-rule="evenodd" clip-rule="evenodd" d="M17.6899 22.4445C17.6899 22.2285 17.8653 22.0531 18.0814 22.0531C18.2975 22.0531 18.4728 22.2285 18.4728 22.4445V25.7107C18.4728 25.9268 18.2975 26.1022 18.0814 26.1022C17.8653 26.1022 17.6899 25.9268 17.6899 25.7107V22.4445Z" fill="white"/>
<path fill-rule="evenodd" clip-rule="evenodd" d="M22.0029 22.4445C22.0029 22.2285 22.1783 22.0531 22.3944 22.0531C22.6104 22.0531 22.7858 22.2285 22.7858 22.4445V25.7107C22.7858 25.9268 22.6104 26.1022 22.3944 26.1022C22.1783 26.1022 22.0029 25.9268 22.0029 25.7107V22.4445Z" fill="white"/>
<path fill-rule="evenodd" clip-rule="evenodd" d="M32.3492 11.1052C30.796 9.71789 28.8263 8.97259 26.8064 9.00077C26.5935 9.0039 26.4212 9.17927 26.4244 9.39534C26.4244 9.60829 26.5997 9.78052 26.8158 9.77739C28.6446 9.74921 30.4233 10.4256 31.8325 11.6845C33.248 12.9496 34.1186 14.6438 34.2877 16.4538C34.3064 16.6543 34.4755 16.8046 34.6728 16.8046C34.6854 16.8046 34.6979 16.8046 34.7073 16.8046C34.9234 16.7858 35.0768 16.5948 35.058 16.3818C34.8701 14.3745 33.9087 12.5018 32.3492 11.1083V11.1052Z" fill="white"/>
<path fill-rule="evenodd" clip-rule="evenodd" d="M27.0349 11.3869C26.822 11.3932 26.6497 11.5686 26.6529 11.7815C26.656 11.9945 26.8345 12.1667 27.0506 12.1604C28.2312 12.1385 29.3867 12.5769 30.3011 13.3974C31.2187 14.2147 31.7855 15.3139 31.8919 16.4913C31.9107 16.6918 32.0798 16.8421 32.2771 16.8421C32.2896 16.8421 32.299 16.8421 32.3147 16.8421C32.5276 16.8233 32.6842 16.6323 32.6654 16.4193C32.537 15.0508 31.8825 13.77 30.8178 12.8212C29.7531 11.8692 28.4097 11.3619 27.0349 11.3869Z" fill="white"/>
<path fill-rule="evenodd" clip-rule="evenodd" d="M27.2821 14.5373C27.827 14.5373 28.3531 14.7408 28.7665 15.1104C29.1923 15.4893 29.4523 15.9966 29.5024 16.5321C29.5212 16.7325 29.6903 16.8859 29.8875 16.8859C29.9001 16.8859 29.9126 16.8859 29.9251 16.8859C30.1381 16.8672 30.2946 16.6761 30.2759 16.4632C30.207 15.7304 29.8562 15.0446 29.2863 14.5342C28.7289 14.0362 28.0211 13.7638 27.2821 13.7638H27.2602C27.0441 13.7638 26.875 13.9392 26.875 14.1552C26.875 14.3682 27.0504 14.5404 27.2633 14.5404H27.2821V14.5373Z" fill="white"/>
<path fill-rule="evenodd" clip-rule="evenodd" d="M26.314 16.7827C26.314 17.265 26.7305 17.6564 27.244 17.6564C27.7576 17.6564 28.1741 17.265 28.1741 16.7827C28.1741 16.3004 27.7576 15.909 27.244 15.909C26.7305 15.909 26.314 16.3004 26.314 16.7827Z" fill="white"/>
</svg>
