<svg width="53" height="44" viewBox="0 0 53 44" fill="none" xmlns="http://www.w3.org/2000/svg">
<path d="M44 0V8.23821H52.25L44 16.5L44 20.625H35.6821C34.9922 13.6767 29.1299 8.25 22 8.25C14.8701 8.25 9.00776 13.6767 8.31789 20.625H0V0H44Z" fill="#DA1F24"/>
<path d="M0 23.375H8.31789C9.00776 30.3233 14.8701 35.75 22 35.75C29.1299 35.75 34.9922 30.3233 35.6821 23.375H44L44 44H0V23.375Z" fill="#DA1F24"/>
<path d="M29.917 23.5026C29.8857 24.1829 29.7021 24.7849 29.3665 25.3086C29.0308 25.8278 28.5586 26.2306 27.9498 26.5171C27.3456 26.8035 26.6541 26.9468 25.8752 26.9468C24.5907 26.9468 23.5791 26.5283 22.8406 25.6913C22.1021 24.8543 21.7328 23.6726 21.7328 22.1464V21.663C21.7328 20.7051 21.8984 19.8681 22.2296 19.152C22.5653 18.4314 23.0465 17.8763 23.6731 17.4869C24.2997 17.0931 25.0248 16.8961 25.8484 16.8961C27.0345 16.8961 27.9879 17.2094 28.7085 17.8361C29.4291 18.4582 29.8387 19.3176 29.9371 20.4142H27.5873C27.5694 19.8189 27.4194 19.3914 27.1375 19.1318C26.8555 18.8722 26.4258 18.7424 25.8484 18.7424C25.262 18.7424 24.8324 18.9618 24.5593 19.4004C24.2863 19.839 24.1431 20.5395 24.1296 21.5018V22.1934C24.1296 23.2362 24.2594 23.9815 24.519 24.4291C24.7831 24.8767 25.2352 25.1005 25.8752 25.1005C26.4168 25.1005 26.8309 24.9729 27.1173 24.7178C27.4038 24.4626 27.556 24.0576 27.5739 23.5026H29.917Z" fill="#DA1F24"/>
<path d="M20.6451 22.9185H16.8451V26.8125H14.4885V17.0371H21.0278V18.8566H16.8451V21.1057H20.6451V22.9185Z" fill="#DA1F24"/>
</svg>
