<svg width="53" height="44" viewBox="0 0 53 44" fill="none" xmlns="http://www.w3.org/2000/svg">
<path fill-rule="evenodd" clip-rule="evenodd" d="M44 0V8.23821H52.25L44 16.5V44H0V0H44ZM11 15.125C13.2782 15.125 15.125 13.2782 15.125 11C15.125 8.72183 13.2782 6.875 11 6.875C8.72183 6.875 6.875 8.72183 6.875 11C6.875 13.2782 8.72183 15.125 11 15.125ZM11 13.75C12.5188 13.75 13.75 12.5188 13.75 11C13.75 9.48122 12.5188 8.25 11 8.25C9.48122 8.25 8.25 9.48122 8.25 11C8.25 12.5188 9.48122 13.75 11 13.75ZM11 37.125C13.2782 37.125 15.125 35.2782 15.125 33C15.125 30.7218 13.2782 28.875 11 28.875C8.72183 28.875 6.875 30.7218 6.875 33C6.875 35.2782 8.72183 37.125 11 37.125ZM11 35.75C12.5188 35.75 13.75 34.5188 13.75 33C13.75 31.4812 12.5188 30.25 11 30.25C9.48122 30.25 8.25 31.4812 8.25 33C8.25 34.5188 9.48122 35.75 11 35.75ZM22 15.125C24.2782 15.125 26.125 13.2782 26.125 11C26.125 8.72183 24.2782 6.875 22 6.875C19.7218 6.875 17.875 8.72183 17.875 11C17.875 13.2782 19.7218 15.125 22 15.125ZM22 13.75C23.5188 13.75 24.75 12.5188 24.75 11C24.75 9.48122 23.5188 8.25 22 8.25C20.4812 8.25 19.25 9.48122 19.25 11C19.25 12.5188 20.4812 13.75 22 13.75ZM22 26.125C24.2782 26.125 26.125 24.2782 26.125 22C26.125 19.7218 24.2782 17.875 22 17.875C19.7218 17.875 17.875 19.7218 17.875 22C17.875 24.2782 19.7218 26.125 22 26.125ZM22 24.75C23.5188 24.75 24.75 23.5188 24.75 22C24.75 20.4812 23.5188 19.25 22 19.25C20.4812 19.25 19.25 20.4812 19.25 22C19.25 23.5188 20.4812 24.75 22 24.75ZM22 37.125C24.2782 37.125 26.125 35.2782 26.125 33C26.125 30.7218 24.2782 28.875 22 28.875C19.7218 28.875 17.875 30.7218 17.875 33C17.875 35.2782 19.7218 37.125 22 37.125ZM22 35.75C23.5188 35.75 24.75 34.5188 24.75 33C24.75 31.4812 23.5188 30.25 22 30.25C20.4812 30.25 19.25 31.4812 19.25 33C19.25 34.5188 20.4812 35.75 22 35.75ZM33 15.125C35.2782 15.125 37.125 13.2782 37.125 11C37.125 8.72183 35.2782 6.875 33 6.875C30.7218 6.875 28.875 8.72183 28.875 11C28.875 13.2782 30.7218 15.125 33 15.125ZM33 13.75C34.5188 13.75 35.75 12.5188 35.75 11C35.75 9.48122 34.5188 8.25 33 8.25C31.4812 8.25 30.25 9.48122 30.25 11C30.25 12.5188 31.4812 13.75 33 13.75ZM33 26.125C35.2782 26.125 37.125 24.2782 37.125 22C37.125 19.7218 35.2782 17.875 33 17.875C30.7218 17.875 28.875 19.7218 28.875 22C28.875 24.2782 30.7218 26.125 33 26.125ZM33 24.75C34.5188 24.75 35.75 23.5188 35.75 22C35.75 20.4812 34.5188 19.25 33 19.25C31.4812 19.25 30.25 20.4812 30.25 22C30.25 23.5188 31.4812 24.75 33 24.75ZM37.125 33C37.125 35.2782 35.2782 37.125 33 37.125C30.7218 37.125 28.875 35.2782 28.875 33C28.875 30.7218 30.7218 28.875 33 28.875C35.2782 28.875 37.125 30.7218 37.125 33ZM15.125 22C15.125 24.2782 13.2782 26.125 11 26.125C8.72183 26.125 6.875 24.2782 6.875 22C6.875 19.7218 8.72183 17.875 11 17.875C13.2782 17.875 15.125 19.7218 15.125 22Z" fill="#DA1F24"/>
</svg>
