<svg width="118" height="118" viewBox="0 0 118 118" fill="none" xmlns="http://www.w3.org/2000/svg">
<path d="M75.9986 7.00252L79.846 6.91709L25.2545 108.868L21.4072 108.953L75.9986 7.00252Z" fill="black"/>
<path d="M47.9982 6.99832L51.8036 6.92981L15.3314 108.859L11.5259 108.927L47.9982 6.99832Z" fill="black"/>
<path d="M102.998 7.00304L107 6.99998L35.8874 108.799L32.7102 108.801L102.998 7.00304Z" fill="black"/>
<rect x="34.7896" y="36.5225" width="49.4238" height="5.79454" rx="2.5" transform="rotate(2.64213 34.7896 36.5225)" fill="black" stroke="black"/>
<path d="M56.4501 38.7471C56.5836 36.6404 58.3312 35 60.4421 35L62.0537 35C64.2418 35 66.0238 36.7581 66.0533 38.946L67 109H59.25H52L56.4501 38.7471Z" fill="black"/>
</svg>
