<svg width="44" height="44" viewBox="0 0 44 44" fill="none" xmlns="http://www.w3.org/2000/svg">
<path fill-rule="evenodd" clip-rule="evenodd" d="M30.25 22C30.25 26.5564 26.5564 30.25 22 30.25C17.4437 30.25 13.75 26.5564 13.75 22C13.75 17.4437 17.4437 13.75 22 13.75C26.5564 13.75 30.25 17.4437 30.25 22ZM22 22V17.875H20.625V23.375H24.75V22H22Z" fill="#DA1F24"/>
<path fill-rule="evenodd" clip-rule="evenodd" d="M44 0H0V44H44V0ZM14.4375 11V8.25H13.0625V11H11V13.0625H8.25V14.4375H11V17.1875H8.25V18.5625H11V21.3125H8.25V22.6875H11V25.4375H8.25V26.8125H11V29.5625H8.25V30.9375H11V33H13.0625V35.75H14.4375V33H17.1875V35.75H18.5625V33H21.3125V35.75H22.6875V33H25.4375V35.75H26.8125V33H29.5625V35.75H30.9375V33H33V30.9375H35.75V29.5625H33V26.8125H35.75V25.4375H33V22.6875H35.75V21.3125H33V18.5625H35.75V17.1875H33V14.4375H35.75V13.0625H33V11H30.9375V8.25H29.5625V11H26.8125V8.25H25.4375V11H22.6875V8.25H21.3125V11H18.5625V8.25H17.1875V11H14.4375Z" fill="#DA1F24"/>
</svg>
