<?xml version="1.0" encoding="UTF-8"?>
<svg width="558" height="226" fill="none" version="1.1" viewBox="0 0 558 226" xmlns="http://www.w3.org/2000/svg"><rect x="24.5" y=".5" width="480" height="194" stroke="#000"/><circle cx="264" cy="97" r="4" stroke="#212529" stroke-width="2"/><path d="m31.646 96.646c-0.1952 0.1953-0.1952 0.5119 0 0.7072l3.182 3.1824c0.1953 0.195 0.5119 0.195 0.7071 0 0.1953-0.196 0.1953-0.512 0-0.7076l-2.8284-2.8284 2.8284-2.8284c0.1953-0.1953 0.1953-0.5119 0-0.7071-0.1952-0.1953-0.5118-0.1953-0.7071 0zm219.71 0.7072c0.195-0.1953 0.195-0.5119 0-0.7071l-3.182-3.182c-0.196-0.1953-0.512-0.1953-0.708 0-0.195 0.1952-0.195 0.5118 0 0.7071l2.829 2.8284-2.829 2.8284c-0.195 0.1956-0.195 0.5116 0 0.7076 0.196 0.195 0.512 0.195 0.708 0zm-219.35 0.1464h219v-1h-219z" fill="#da1f24"/><path d="m264.35 7.6464c-0.196-0.19527-0.512-0.19527-0.708 0l-3.182 3.182c-0.195 0.1953-0.195 0.5119 0 0.7071 0.196 0.1953 0.512 0.1953 0.708 0l2.828-2.8284 2.828 2.8284c0.196 0.1953 0.512 0.1953 0.708 0 0.195-0.1952 0.195-0.5118 0-0.7071zm-0.708 76.707c0.196 0.1952 0.512 0.1952 0.708 0l3.182-3.182c0.195-0.1953 0.195-0.5119 0-0.7071-0.196-0.1953-0.512-0.1953-0.708 0l-2.828 2.8284-2.828-2.8284c-0.196-0.1953-0.512-0.1953-0.708 0-0.195 0.1952-0.195 0.5118 0 0.7071zm-0.146-76.354v76h1v-76z" fill="#da1f24"/><g fill="#212529"><path d="m137.47 124c-0.132 0-0.234-0.036-0.306-0.108-0.072-0.084-0.108-0.186-0.108-0.306v-11.754c0-0.132 0.036-0.234 0.108-0.306 0.072-0.084 0.174-0.126 0.306-0.126h4.932c0.9 0 1.632 0.15 2.196 0.45 0.576 0.288 0.996 0.684 1.26 1.188 0.276 0.504 0.414 1.068 0.414 1.692 0 0.492-0.084 0.918-0.252 1.278-0.156 0.348-0.354 0.636-0.594 0.864-0.24 0.216-0.474 0.384-0.702 0.504 0.468 0.228 0.882 0.6 1.242 1.116 0.372 0.516 0.558 1.14 0.558 1.872 0 0.66-0.15 1.266-0.45 1.818s-0.75 0.996-1.35 1.332c-0.588 0.324-1.32 0.486-2.196 0.486zm1.35-1.458h3.474c0.78 0 1.38-0.21 1.8-0.63s0.63-0.936 0.63-1.548c0-0.636-0.21-1.158-0.63-1.566-0.42-0.42-1.02-0.63-1.8-0.63h-3.474zm0-5.814h3.312c0.768 0 1.35-0.174 1.746-0.522 0.396-0.36 0.594-0.846 0.594-1.458s-0.198-1.08-0.594-1.404-0.978-0.486-1.746-0.486h-3.312z"/><path d="m277.19 52c-0.096 0-0.18-0.036-0.252-0.108s-0.108-0.156-0.108-0.252c0-0.06 6e-3 -0.126 0.018-0.198l4.464-11.646c0.048-0.12 0.114-0.216 0.198-0.288s0.21-0.108 0.378-0.108h1.224c0.156 0 0.276 0.036 0.36 0.108 0.096 0.072 0.168 0.168 0.216 0.288l4.446 11.646c0.024 0.072 0.036 0.138 0.036 0.198 0 0.096-0.036 0.18-0.108 0.252s-0.156 0.108-0.252 0.108h-0.918c-0.144 0-0.252-0.036-0.324-0.108-0.06-0.072-0.102-0.138-0.126-0.198l-0.99-2.556h-5.904l-0.99 2.556c-0.012 0.06-0.054 0.126-0.126 0.198s-0.18 0.108-0.324 0.108zm2.88-4.41h4.86l-2.43-6.39z"/><path d="m216.65 220c-0.102 0-0.182-0.028-0.238-0.084-0.056-0.065-0.084-0.145-0.084-0.238v-9.142c0-0.103 0.028-0.182 0.084-0.238 0.056-0.065 0.136-0.098 0.238-0.098h3.836c0.7 0 1.27 0.117 1.708 0.35 0.448 0.224 0.775 0.532 0.98 0.924 0.215 0.392 0.322 0.831 0.322 1.316 0 0.383-0.065 0.714-0.196 0.994-0.121 0.271-0.275 0.495-0.462 0.672-0.186 0.168-0.368 0.299-0.546 0.392 0.364 0.177 0.686 0.467 0.966 0.868 0.29 0.401 0.434 0.887 0.434 1.456 0 0.513-0.116 0.985-0.35 1.414-0.233 0.429-0.583 0.775-1.05 1.036-0.457 0.252-1.026 0.378-1.708 0.378zm1.05-1.134h2.702c0.607 0 1.074-0.163 1.4-0.49 0.327-0.327 0.49-0.728 0.49-1.204 0-0.495-0.163-0.901-0.49-1.218-0.326-0.327-0.793-0.49-1.4-0.49h-2.702zm0-4.522h2.576c0.598 0 1.05-0.135 1.358-0.406 0.308-0.28 0.462-0.658 0.462-1.134s-0.154-0.84-0.462-1.092-0.76-0.378-1.358-0.378h-2.576zm10.514 5.796c-0.597 0-1.106-0.131-1.526-0.392-0.411-0.271-0.723-0.644-0.938-1.12s-0.322-1.022-0.322-1.638v-3.948c0-0.093 0.028-0.168 0.084-0.224 0.065-0.065 0.145-0.098 0.238-0.098h0.7c0.093 0 0.168 0.033 0.224 0.098 0.065 0.056 0.098 0.131 0.098 0.224v3.878c0 1.391 0.607 2.086 1.82 2.086 0.579 0 1.041-0.182 1.386-0.546 0.355-0.373 0.532-0.887 0.532-1.54v-3.878c0-0.093 0.028-0.168 0.084-0.224 0.065-0.065 0.145-0.098 0.238-0.098h0.686c0.103 0 0.182 0.033 0.238 0.098 0.056 0.056 0.084 0.131 0.084 0.224v6.636c0 0.093-0.028 0.173-0.084 0.238-0.056 0.056-0.135 0.084-0.238 0.084h-0.644c-0.093 0-0.173-0.028-0.238-0.084-0.056-0.065-0.084-0.145-0.084-0.238v-0.616c-0.252 0.327-0.56 0.588-0.924 0.784-0.355 0.196-0.826 0.294-1.414 0.294zm6.028-0.14c-0.094 0-0.173-0.028-0.238-0.084-0.056-0.065-0.084-0.145-0.084-0.238v-6.636c0-0.093 0.028-0.168 0.084-0.224 0.065-0.065 0.144-0.098 0.238-0.098h0.672c0.093 0 0.168 0.033 0.224 0.098 0.056 0.056 0.084 0.131 0.084 0.224v6.636c0 0.093-0.028 0.173-0.084 0.238-0.056 0.056-0.131 0.084-0.224 0.084zm-0.112-8.638c-0.094 0-0.173-0.028-0.238-0.084-0.056-0.065-0.084-0.145-0.084-0.238v-0.756c0-0.093 0.028-0.168 0.084-0.224 0.065-0.065 0.144-0.098 0.238-0.098h0.882c0.093 0 0.168 0.033 0.224 0.098 0.065 0.056 0.098 0.131 0.098 0.224v0.756c0 0.093-0.033 0.173-0.098 0.238-0.056 0.056-0.131 0.084-0.224 0.084zm3.516 8.638c-0.093 0-0.172-0.028-0.238-0.084-0.056-0.065-0.084-0.145-0.084-0.238v-9.296c0-0.093 0.028-0.168 0.084-0.224 0.066-0.065 0.145-0.098 0.238-0.098h0.658c0.103 0 0.182 0.033 0.238 0.098 0.056 0.056 0.084 0.131 0.084 0.224v9.296c0 0.093-0.028 0.173-0.084 0.238-0.056 0.056-0.135 0.084-0.238 0.084zm5.729 0.14c-0.514 0-0.957-0.089-1.33-0.266-0.374-0.187-0.682-0.434-0.924-0.742-0.234-0.317-0.411-0.677-0.532-1.078-0.112-0.401-0.178-0.826-0.196-1.274-0.01-0.149-0.014-0.289-0.014-0.42s4e-3 -0.271 0.014-0.42c0.018-0.439 0.084-0.859 0.196-1.26 0.121-0.401 0.298-0.761 0.532-1.078 0.242-0.317 0.55-0.565 0.924-0.742 0.373-0.187 0.816-0.28 1.33-0.28 0.55 0 1.008 0.098 1.372 0.294s0.662 0.439 0.896 0.728v-3.22c0-0.093 0.028-0.168 0.084-0.224 0.065-0.065 0.144-0.098 0.238-0.098h0.672c0.093 0 0.168 0.033 0.224 0.098 0.065 0.056 0.098 0.131 0.098 0.224v9.296c0 0.093-0.033 0.173-0.098 0.238-0.056 0.056-0.131 0.084-0.224 0.084h-0.63c-0.103 0-0.182-0.028-0.238-0.084-0.056-0.065-0.084-0.145-0.084-0.238v-0.588c-0.234 0.299-0.537 0.551-0.91 0.756-0.374 0.196-0.84 0.294-1.4 0.294zm0.294-1.134c0.466 0 0.84-0.107 1.12-0.322s0.49-0.485 0.63-0.812c0.14-0.336 0.214-0.677 0.224-1.022 9e-3 -0.149 0.014-0.327 0.014-0.532 0-0.215-5e-3 -0.397-0.014-0.546-0.01-0.327-0.089-0.649-0.238-0.966-0.14-0.317-0.355-0.579-0.644-0.784-0.28-0.205-0.644-0.308-1.092-0.308-0.476 0-0.854 0.107-1.134 0.322-0.28 0.205-0.481 0.481-0.602 0.826-0.122 0.336-0.192 0.7-0.21 1.092-0.01 0.271-0.01 0.541 0 0.812 0.018 0.392 0.088 0.761 0.21 1.106 0.121 0.336 0.322 0.611 0.602 0.826 0.28 0.205 0.658 0.308 1.134 0.308zm5.694 0.994c-0.093 0-0.173-0.028-0.238-0.084-0.056-0.065-0.084-0.145-0.084-0.238v-6.636c0-0.093 0.028-0.168 0.084-0.224 0.065-0.065 0.145-0.098 0.238-0.098h0.672c0.093 0 0.168 0.033 0.224 0.098 0.056 0.056 0.084 0.131 0.084 0.224v6.636c0 0.093-0.028 0.173-0.084 0.238-0.056 0.056-0.131 0.084-0.224 0.084zm-0.112-8.638c-0.093 0-0.173-0.028-0.238-0.084-0.056-0.065-0.084-0.145-0.084-0.238v-0.756c0-0.093 0.028-0.168 0.084-0.224 0.065-0.065 0.145-0.098 0.238-0.098h0.882c0.093 0 0.168 0.033 0.224 0.098 0.065 0.056 0.098 0.131 0.098 0.224v0.756c0 0.093-0.033 0.173-0.098 0.238-0.056 0.056-0.131 0.084-0.224 0.084zm3.639 8.638c-0.093 0-0.172-0.028-0.238-0.084-0.056-0.065-0.084-0.145-0.084-0.238v-6.636c0-0.093 0.028-0.168 0.084-0.224 0.066-0.065 0.145-0.098 0.238-0.098h0.658c0.094 0 0.168 0.033 0.224 0.098 0.066 0.056 0.098 0.131 0.098 0.224v0.616c0.243-0.317 0.546-0.574 0.91-0.77 0.374-0.205 0.85-0.308 1.428-0.308 0.607 0 1.12 0.135 1.54 0.406 0.43 0.261 0.752 0.63 0.966 1.106 0.215 0.467 0.322 1.013 0.322 1.638v3.948c0 0.093-0.028 0.173-0.084 0.238-0.056 0.056-0.13 0.084-0.224 0.084h-0.7c-0.093 0-0.172-0.028-0.238-0.084-0.056-0.065-0.084-0.145-0.084-0.238v-3.878c0-0.653-0.158-1.162-0.476-1.526-0.317-0.373-0.784-0.56-1.4-0.56-0.578 0-1.045 0.187-1.4 0.56-0.345 0.364-0.518 0.873-0.518 1.526v3.878c0 0.093-0.032 0.173-0.098 0.238-0.056 0.056-0.13 0.084-0.224 0.084zm11.15 3.08c-0.634 0-1.157-0.084-1.568-0.252-0.401-0.168-0.718-0.373-0.952-0.616-0.224-0.233-0.387-0.471-0.49-0.714-0.093-0.233-0.144-0.42-0.154-0.56-9e-3 -0.093 0.019-0.173 0.084-0.238 0.075-0.065 0.154-0.098 0.238-0.098h0.672c0.084 0 0.154 0.019 0.21 0.056s0.103 0.117 0.14 0.238c0.056 0.14 0.14 0.294 0.252 0.462 0.112 0.177 0.285 0.327 0.518 0.448 0.234 0.131 0.56 0.196 0.98 0.196 0.439 0 0.808-0.061 1.106-0.182 0.299-0.112 0.523-0.317 0.672-0.616 0.159-0.289 0.238-0.691 0.238-1.204v-0.952c-0.224 0.289-0.518 0.532-0.882 0.728-0.364 0.187-0.821 0.28-1.372 0.28-0.522 0-0.97-0.089-1.344-0.266-0.373-0.187-0.681-0.434-0.924-0.742-0.233-0.317-0.41-0.677-0.532-1.078-0.112-0.401-0.177-0.821-0.196-1.26-9e-3 -0.261-9e-3 -0.518 0-0.77 0.019-0.439 0.084-0.859 0.196-1.26 0.122-0.401 0.299-0.761 0.532-1.078 0.243-0.317 0.551-0.565 0.924-0.742 0.374-0.187 0.822-0.28 1.344-0.28 0.56 0 1.022 0.107 1.386 0.322 0.374 0.205 0.677 0.457 0.91 0.756v-0.602c0-0.093 0.028-0.173 0.084-0.238 0.066-0.065 0.145-0.098 0.238-0.098h0.644c0.094 0 0.173 0.033 0.238 0.098 0.066 0.065 0.098 0.145 0.098 0.238v6.79c0 0.625-0.107 1.181-0.322 1.666-0.205 0.485-0.55 0.868-1.036 1.148-0.476 0.28-1.12 0.42-1.932 0.42zm-0.028-4.144c0.467 0 0.84-0.107 1.12-0.322 0.29-0.215 0.5-0.485 0.63-0.812 0.14-0.327 0.215-0.658 0.224-0.994 0.01-0.131 0.014-0.289 0.014-0.476 0-0.196-4e-3 -0.359-0.014-0.49-9e-3 -0.336-0.084-0.667-0.224-0.994-0.13-0.327-0.34-0.597-0.63-0.812-0.28-0.215-0.653-0.322-1.12-0.322-0.466 0-0.84 0.107-1.12 0.322-0.28 0.205-0.48 0.481-0.602 0.826-0.121 0.336-0.191 0.7-0.21 1.092-9e-3 0.243-9e-3 0.49 0 0.742 0.019 0.392 0.089 0.761 0.21 1.106 0.122 0.336 0.322 0.611 0.602 0.826 0.28 0.205 0.654 0.308 1.12 0.308zm9.168 1.064c-0.094 0-0.173-0.028-0.238-0.084-0.056-0.065-0.084-0.145-0.084-0.238v-9.296c0-0.093 0.028-0.168 0.084-0.224 0.065-0.065 0.144-0.098 0.238-0.098h0.658c0.102 0 0.182 0.033 0.238 0.098 0.056 0.056 0.084 0.131 0.084 0.224v9.296c0 0.093-0.028 0.173-0.084 0.238-0.056 0.056-0.136 0.084-0.238 0.084zm5.966 0.14c-0.961 0-1.727-0.294-2.296-0.882-0.569-0.597-0.882-1.409-0.938-2.436-9e-3 -0.121-0.014-0.275-0.014-0.462 0-0.196 5e-3 -0.355 0.014-0.476 0.037-0.663 0.191-1.241 0.462-1.736 0.271-0.504 0.639-0.891 1.106-1.162 0.476-0.271 1.031-0.406 1.666-0.406 0.709 0 1.302 0.149 1.778 0.448 0.485 0.299 0.854 0.723 1.106 1.274s0.378 1.195 0.378 1.932v0.238c0 0.103-0.033 0.182-0.098 0.238-0.056 0.056-0.131 0.084-0.224 0.084h-4.844v0.056 0.07c0.019 0.383 0.103 0.742 0.252 1.078 0.149 0.327 0.364 0.593 0.644 0.798s0.616 0.308 1.008 0.308c0.336 0 0.616-0.051 0.84-0.154s0.406-0.215 0.546-0.336c0.14-0.131 0.233-0.229 0.28-0.294 0.084-0.121 0.149-0.191 0.196-0.21 0.047-0.028 0.121-0.042 0.224-0.042h0.672c0.093 0 0.168 0.028 0.224 0.084 0.065 0.047 0.093 0.117 0.084 0.21-9e-3 0.14-0.084 0.313-0.224 0.518-0.14 0.196-0.341 0.392-0.602 0.588s-0.579 0.359-0.952 0.49c-0.373 0.121-0.803 0.182-1.288 0.182zm-1.904-4.312h3.836v-0.042c0-0.42-0.079-0.793-0.238-1.12-0.149-0.327-0.369-0.583-0.658-0.77-0.289-0.196-0.635-0.294-1.036-0.294s-0.747 0.098-1.036 0.294c-0.28 0.187-0.495 0.443-0.644 0.77s-0.224 0.7-0.224 1.12zm7.162 4.172c-0.093 0-0.173-0.028-0.238-0.084-0.056-0.065-0.084-0.145-0.084-0.238v-6.636c0-0.093 0.028-0.168 0.084-0.224 0.065-0.065 0.145-0.098 0.238-0.098h0.658c0.093 0 0.168 0.033 0.224 0.098 0.065 0.056 0.098 0.131 0.098 0.224v0.616c0.243-0.317 0.546-0.574 0.91-0.77 0.373-0.205 0.849-0.308 1.428-0.308 0.607 0 1.12 0.135 1.54 0.406 0.429 0.261 0.751 0.63 0.966 1.106 0.215 0.467 0.322 1.013 0.322 1.638v3.948c0 0.093-0.028 0.173-0.084 0.238-0.056 0.056-0.131 0.084-0.224 0.084h-0.7c-0.093 0-0.173-0.028-0.238-0.084-0.056-0.065-0.084-0.145-0.084-0.238v-3.878c0-0.653-0.159-1.162-0.476-1.526-0.317-0.373-0.784-0.56-1.4-0.56-0.579 0-1.045 0.187-1.4 0.56-0.345 0.364-0.518 0.873-0.518 1.526v3.878c0 0.093-0.033 0.173-0.098 0.238-0.056 0.056-0.131 0.084-0.224 0.084zm11.15 3.08c-0.635 0-1.157-0.084-1.568-0.252-0.401-0.168-0.719-0.373-0.952-0.616-0.224-0.233-0.387-0.471-0.49-0.714-0.093-0.233-0.145-0.42-0.154-0.56-9e-3 -0.093 0.019-0.173 0.084-0.238 0.075-0.065 0.154-0.098 0.238-0.098h0.672c0.084 0 0.154 0.019 0.21 0.056s0.103 0.117 0.14 0.238c0.056 0.14 0.14 0.294 0.252 0.462 0.112 0.177 0.285 0.327 0.518 0.448 0.233 0.131 0.56 0.196 0.98 0.196 0.439 0 0.807-0.061 1.106-0.182 0.299-0.112 0.523-0.317 0.672-0.616 0.159-0.289 0.238-0.691 0.238-1.204v-0.952c-0.224 0.289-0.518 0.532-0.882 0.728-0.364 0.187-0.821 0.28-1.372 0.28-0.523 0-0.971-0.089-1.344-0.266-0.373-0.187-0.681-0.434-0.924-0.742-0.233-0.317-0.411-0.677-0.532-1.078-0.112-0.401-0.177-0.821-0.196-1.26-9e-3 -0.261-9e-3 -0.518 0-0.77 0.019-0.439 0.084-0.859 0.196-1.26 0.121-0.401 0.299-0.761 0.532-1.078 0.243-0.317 0.551-0.565 0.924-0.742 0.373-0.187 0.821-0.28 1.344-0.28 0.56 0 1.022 0.107 1.386 0.322 0.373 0.205 0.677 0.457 0.91 0.756v-0.602c0-0.093 0.028-0.173 0.084-0.238 0.065-0.065 0.145-0.098 0.238-0.098h0.644c0.093 0 0.173 0.033 0.238 0.098s0.098 0.145 0.098 0.238v6.79c0 0.625-0.107 1.181-0.322 1.666-0.205 0.485-0.551 0.868-1.036 1.148-0.476 0.28-1.12 0.42-1.932 0.42zm-0.028-4.144c0.467 0 0.84-0.107 1.12-0.322 0.289-0.215 0.499-0.485 0.63-0.812 0.14-0.327 0.215-0.658 0.224-0.994 9e-3 -0.131 0.014-0.289 0.014-0.476 0-0.196-5e-3 -0.359-0.014-0.49-9e-3 -0.336-0.084-0.667-0.224-0.994-0.131-0.327-0.341-0.597-0.63-0.812-0.28-0.215-0.653-0.322-1.12-0.322s-0.84 0.107-1.12 0.322c-0.28 0.205-0.481 0.481-0.602 0.826-0.121 0.336-0.191 0.7-0.21 1.092-9e-3 0.243-9e-3 0.49 0 0.742 0.019 0.392 0.089 0.761 0.21 1.106 0.121 0.336 0.322 0.611 0.602 0.826 0.28 0.205 0.653 0.308 1.12 0.308zm8.242 1.064c-0.523 0-0.948-0.098-1.274-0.294-0.327-0.205-0.565-0.49-0.714-0.854-0.15-0.373-0.224-0.812-0.224-1.316v-3.696h-1.092c-0.094 0-0.173-0.028-0.238-0.084-0.056-0.065-0.084-0.145-0.084-0.238v-0.476c0-0.093 0.028-0.168 0.084-0.224 0.065-0.065 0.144-0.098 0.238-0.098h1.092v-2.338c0-0.093 0.028-0.168 0.084-0.224 0.065-0.065 0.144-0.098 0.238-0.098h0.658c0.093 0 0.168 0.033 0.224 0.098 0.065 0.056 0.098 0.131 0.098 0.224v2.338h1.736c0.093 0 0.168 0.033 0.224 0.098 0.065 0.056 0.098 0.131 0.098 0.224v0.476c0 0.093-0.033 0.173-0.098 0.238-0.056 0.056-0.131 0.084-0.224 0.084h-1.736v3.598c0 0.439 0.074 0.784 0.224 1.036 0.149 0.252 0.415 0.378 0.798 0.378h0.854c0.093 0 0.168 0.033 0.224 0.098 0.065 0.056 0.098 0.131 0.098 0.224v0.504c0 0.093-0.033 0.173-0.098 0.238-0.056 0.056-0.131 0.084-0.224 0.084zm2.962 0c-0.093 0-0.172-0.028-0.238-0.084-0.056-0.065-0.084-0.145-0.084-0.238v-9.296c0-0.093 0.028-0.168 0.084-0.224 0.066-0.065 0.145-0.098 0.238-0.098h0.7c0.103 0 0.182 0.033 0.238 0.098 0.056 0.056 0.084 0.131 0.084 0.224v3.262c0.252-0.317 0.56-0.574 0.924-0.77s0.826-0.294 1.386-0.294c0.607 0 1.12 0.135 1.54 0.406 0.43 0.261 0.752 0.63 0.966 1.106 0.224 0.467 0.336 1.013 0.336 1.638v3.948c0 0.093-0.028 0.173-0.084 0.238-0.056 0.056-0.135 0.084-0.238 0.084h-0.7c-0.093 0-0.172-0.028-0.238-0.084-0.056-0.065-0.084-0.145-0.084-0.238v-3.878c0-0.653-0.158-1.162-0.476-1.526-0.317-0.373-0.784-0.56-1.4-0.56-0.578 0-1.045 0.187-1.4 0.56-0.354 0.364-0.532 0.873-0.532 1.526v3.878c0 0.093-0.028 0.173-0.084 0.238-0.056 0.056-0.135 0.084-0.238 0.084z"/><path d="m278.54 105c-0.103 0-0.182-0.028-0.238-0.084-0.056-0.065-0.084-0.145-0.084-0.238v-9.142c0-0.1027 0.028-0.182 0.084-0.238 0.056-0.0653 0.135-0.098 0.238-0.098h3.556c0.691 0 1.288 0.112 1.792 0.336 0.513 0.224 0.91 0.56 1.19 1.008 0.28 0.4387 0.42 0.9893 0.42 1.652s-0.14 1.2133-0.42 1.652c-0.28 0.439-0.677 0.77-1.19 0.994-0.504 0.224-1.101 0.336-1.792 0.336h-2.478v3.5c0 0.093-0.033 0.173-0.098 0.238-0.056 0.056-0.135 0.084-0.238 0.084zm1.064-4.998h2.422c0.691 0 1.209-0.154 1.554-0.462s0.518-0.756 0.518-1.344c0-0.5787-0.168-1.0267-0.504-1.344s-0.859-0.476-1.568-0.476h-2.422zm7.75 4.998c-0.093 0-0.172-0.028-0.238-0.084-0.056-0.065-0.084-0.145-0.084-0.238v-9.296c0-0.0933 0.028-0.168 0.084-0.224 0.066-0.0653 0.145-0.098 0.238-0.098h0.658c0.103 0 0.182 0.0327 0.238 0.098 0.056 0.056 0.084 0.1307 0.084 0.224v9.296c0 0.093-0.028 0.173-0.084 0.238-0.056 0.056-0.135 0.084-0.238 0.084zm5.099 0.14c-0.467 0-0.892-0.093-1.274-0.28-0.383-0.187-0.691-0.439-0.924-0.756-0.234-0.317-0.35-0.677-0.35-1.078 0-0.644 0.261-1.157 0.784-1.54 0.522-0.383 1.204-0.635 2.044-0.756l2.086-0.294v-0.406c0-0.448-0.131-0.798-0.392-1.05-0.252-0.252-0.668-0.378-1.246-0.378-0.42 0-0.761 0.084-1.022 0.252-0.252 0.168-0.43 0.3827-0.532 0.644-0.056 0.14-0.154 0.21-0.294 0.21h-0.63c-0.103 0-0.182-0.028-0.238-0.084-0.047-0.0653-0.07-0.14-0.07-0.224 0-0.14 0.051-0.3127 0.154-0.518 0.112-0.2053 0.28-0.406 0.504-0.602s0.508-0.3593 0.854-0.49c0.354-0.14 0.784-0.21 1.288-0.21 0.56 0 1.031 0.0747 1.414 0.224 0.382 0.14 0.681 0.3313 0.896 0.574 0.224 0.2427 0.382 0.518 0.476 0.826 0.102 0.308 0.154 0.6207 0.154 0.938v4.536c0 0.093-0.033 0.173-0.098 0.238-0.056 0.056-0.131 0.084-0.224 0.084h-0.644c-0.103 0-0.182-0.028-0.238-0.084-0.056-0.065-0.084-0.145-0.084-0.238v-0.602c-0.122 0.168-0.285 0.336-0.49 0.504-0.206 0.159-0.462 0.294-0.77 0.406-0.308 0.103-0.686 0.154-1.134 0.154zm0.294-1.05c0.382 0 0.732-0.079 1.05-0.238 0.317-0.168 0.564-0.425 0.742-0.77 0.186-0.345 0.28-0.779 0.28-1.302v-0.392l-1.624 0.238c-0.663 0.093-1.162 0.252-1.498 0.476-0.336 0.215-0.504 0.49-0.504 0.826 0 0.261 0.074 0.481 0.224 0.658 0.158 0.168 0.354 0.294 0.588 0.378 0.242 0.084 0.49 0.126 0.742 0.126zm8.34 1.05c-0.662 0-1.236-0.126-1.722-0.378-0.476-0.261-0.844-0.63-1.106-1.106-0.261-0.485-0.401-1.064-0.42-1.736-9e-3 -0.14-0.014-0.327-0.014-0.56s5e-3 -0.42 0.014-0.56c0.019-0.672 0.159-1.246 0.42-1.722 0.262-0.4853 0.63-0.854 1.106-1.106 0.486-0.2613 1.06-0.392 1.722-0.392 0.542 0 1.004 0.0747 1.386 0.224 0.392 0.1493 0.714 0.3407 0.966 0.574s0.439 0.4853 0.56 0.756c0.131 0.2707 0.201 0.5273 0.21 0.77 0.01 0.0933-0.018 0.168-0.084 0.224-0.065 0.056-0.144 0.084-0.238 0.084h-0.672c-0.093 0-0.163-0.019-0.21-0.056-0.046-0.047-0.093-0.121-0.14-0.224-0.168-0.4573-0.396-0.7793-0.686-0.966-0.289-0.1867-0.648-0.28-1.078-0.28-0.56 0-1.017 0.1727-1.372 0.518-0.345 0.3453-0.532 0.901-0.56 1.666-9e-3 0.336-9e-3 0.663 0 0.98 0.028 0.775 0.215 1.335 0.56 1.68 0.355 0.336 0.812 0.504 1.372 0.504 0.43 0 0.789-0.093 1.078-0.28 0.29-0.187 0.518-0.509 0.686-0.966 0.047-0.103 0.094-0.173 0.14-0.21 0.047-0.047 0.117-0.07 0.21-0.07h0.672c0.094 0 0.173 0.028 0.238 0.084 0.066 0.056 0.094 0.131 0.084 0.224-9e-3 0.196-0.051 0.397-0.126 0.602-0.074 0.205-0.196 0.415-0.364 0.63-0.158 0.205-0.359 0.392-0.602 0.56-0.242 0.159-0.536 0.289-0.882 0.392-0.336 0.093-0.718 0.14-1.148 0.14zm7.683 0c-0.961 0-1.727-0.294-2.296-0.882-0.569-0.597-0.882-1.409-0.938-2.436-9e-3 -0.121-0.014-0.275-0.014-0.462 0-0.196 5e-3 -0.355 0.014-0.476 0.037-0.663 0.191-1.2413 0.462-1.736 0.271-0.504 0.639-0.8913 1.106-1.162 0.476-0.2707 1.031-0.406 1.666-0.406 0.709 0 1.302 0.1493 1.778 0.448 0.485 0.2987 0.854 0.7233 1.106 1.274s0.378 1.195 0.378 1.932v0.238c0 0.103-0.033 0.182-0.098 0.238-0.056 0.056-0.131 0.084-0.224 0.084h-4.844v0.056 0.07c0.019 0.383 0.103 0.742 0.252 1.078 0.149 0.327 0.364 0.593 0.644 0.798s0.616 0.308 1.008 0.308c0.336 0 0.616-0.051 0.84-0.154s0.406-0.215 0.546-0.336c0.14-0.131 0.233-0.229 0.28-0.294 0.084-0.121 0.149-0.191 0.196-0.21 0.047-0.028 0.121-0.042 0.224-0.042h0.672c0.093 0 0.168 0.028 0.224 0.084 0.065 0.047 0.093 0.117 0.084 0.21-9e-3 0.14-0.084 0.313-0.224 0.518-0.14 0.196-0.341 0.392-0.602 0.588s-0.579 0.359-0.952 0.49c-0.373 0.121-0.803 0.182-1.288 0.182zm-1.904-4.312h3.836v-0.042c0-0.42-0.079-0.7933-0.238-1.12-0.149-0.3267-0.369-0.5833-0.658-0.77-0.289-0.196-0.635-0.294-1.036-0.294s-0.747 0.098-1.036 0.294c-0.28 0.1867-0.495 0.4433-0.644 0.77s-0.224 0.7-0.224 1.12zm13.254 4.312c-0.71 0-1.302-0.135-1.778-0.406s-0.84-0.644-1.092-1.12c-0.252-0.485-0.392-1.036-0.42-1.652-0.01-0.159-0.014-0.359-0.014-0.602 0-0.252 4e-3 -0.453 0.014-0.602 0.028-0.625 0.168-1.176 0.42-1.652 0.261-0.476 0.63-0.8493 1.106-1.12s1.064-0.406 1.764-0.406 1.288 0.1353 1.764 0.406 0.84 0.644 1.092 1.12c0.261 0.476 0.406 1.027 0.434 1.652 9e-3 0.149 0.014 0.35 0.014 0.602 0 0.243-5e-3 0.443-0.014 0.602-0.028 0.616-0.168 1.167-0.42 1.652-0.252 0.476-0.616 0.849-1.092 1.12s-1.069 0.406-1.778 0.406zm0-1.078c0.578 0 1.04-0.182 1.386-0.546 0.345-0.373 0.532-0.915 0.56-1.624 9e-3 -0.14 0.014-0.317 0.014-0.532s-5e-3 -0.392-0.014-0.532c-0.028-0.709-0.215-1.246-0.56-1.61-0.346-0.3733-0.808-0.56-1.386-0.56-0.579 0-1.046 0.1867-1.4 0.56-0.346 0.364-0.528 0.901-0.546 1.61-0.01 0.14-0.014 0.317-0.014 0.532s4e-3 0.392 0.014 0.532c0.018 0.709 0.2 1.251 0.546 1.624 0.354 0.364 0.821 0.546 1.4 0.546zm6.025 0.938c-0.094 0-0.173-0.028-0.238-0.084-0.056-0.065-0.084-0.145-0.084-0.238v-5.838h-1.19c-0.094 0-0.173-0.028-0.238-0.084-0.056-0.0653-0.084-0.1447-0.084-0.238v-0.476c0-0.0933 0.028-0.168 0.084-0.224 0.065-0.0653 0.144-0.098 0.238-0.098h1.19v-0.7c0-0.476 0.079-0.8913 0.238-1.246 0.158-0.364 0.41-0.644 0.756-0.84 0.354-0.196 0.826-0.294 1.414-0.294h0.84c0.093 0 0.168 0.0327 0.224 0.098 0.056 0.056 0.084 0.1307 0.084 0.224v0.476c0 0.0933-0.028 0.1727-0.084 0.238-0.056 0.056-0.131 0.084-0.224 0.084h-0.812c-0.439 0-0.738 0.1167-0.896 0.35-0.159 0.224-0.238 0.5507-0.238 0.98v0.63h1.806c0.093 0 0.168 0.0327 0.224 0.098 0.056 0.056 0.084 0.1307 0.084 0.224v0.476c0 0.0933-0.028 0.1727-0.084 0.238-0.056 0.056-0.131 0.084-0.224 0.084h-1.806v5.838c0 0.093-0.033 0.173-0.098 0.238-0.056 0.056-0.131 0.084-0.224 0.084zm7.776 0c-0.094 0-0.173-0.028-0.238-0.084-0.056-0.065-0.084-0.145-0.084-0.238v-6.636c0-0.0933 0.028-0.168 0.084-0.224 0.065-0.0653 0.144-0.098 0.238-0.098h0.672c0.093 0 0.168 0.0327 0.224 0.098 0.056 0.056 0.084 0.1307 0.084 0.224v6.636c0 0.093-0.028 0.173-0.084 0.238-0.056 0.056-0.131 0.084-0.224 0.084zm-0.112-8.638c-0.094 0-0.173-0.028-0.238-0.084-0.056-0.0653-0.085-0.1447-0.085-0.238v-0.756c0-0.0933 0.029-0.168 0.085-0.224 0.065-0.0653 0.144-0.098 0.238-0.098h0.882c0.093 0 0.168 0.0327 0.224 0.098 0.065 0.056 0.098 0.1307 0.098 0.224v0.756c0 0.0933-0.033 0.1727-0.098 0.238-0.056 0.056-0.131 0.084-0.224 0.084zm3.639 8.638c-0.093 0-0.173-0.028-0.238-0.084-0.056-0.065-0.084-0.145-0.084-0.238v-6.636c0-0.0933 0.028-0.168 0.084-0.224 0.065-0.0653 0.145-0.098 0.238-0.098h0.658c0.093 0 0.168 0.0327 0.224 0.098 0.065 0.056 0.098 0.1307 0.098 0.224v0.616c0.243-0.3173 0.546-0.574 0.91-0.77 0.373-0.2053 0.849-0.308 1.428-0.308 0.607 0 1.12 0.1353 1.54 0.406 0.429 0.2613 0.751 0.63 0.966 1.106 0.215 0.4667 0.322 1.013 0.322 1.638v3.948c0 0.093-0.028 0.173-0.084 0.238-0.056 0.056-0.131 0.084-0.224 0.084h-0.7c-0.093 0-0.173-0.028-0.238-0.084-0.056-0.065-0.084-0.145-0.084-0.238v-3.878c0-0.653-0.159-1.162-0.476-1.526-0.317-0.3733-0.784-0.56-1.4-0.56-0.579 0-1.045 0.1867-1.4 0.56-0.345 0.364-0.518 0.873-0.518 1.526v3.878c0 0.093-0.033 0.173-0.098 0.238-0.056 0.056-0.131 0.084-0.224 0.084zm10.688 0.14c-0.523 0-0.971-0.065-1.344-0.196s-0.677-0.289-0.91-0.476-0.411-0.373-0.532-0.56c-0.112-0.187-0.173-0.336-0.182-0.448-9e-3 -0.103 0.023-0.182 0.098-0.238s0.149-0.084 0.224-0.084h0.616c0.056 0 0.098 9e-3 0.126 0.028 0.037 9e-3 0.084 0.047 0.14 0.112 0.121 0.131 0.257 0.261 0.406 0.392s0.331 0.238 0.546 0.322c0.224 0.084 0.499 0.126 0.826 0.126 0.476 0 0.868-0.089 1.176-0.266 0.308-0.187 0.462-0.457 0.462-0.812 0-0.233-0.065-0.42-0.196-0.56-0.121-0.14-0.345-0.266-0.672-0.378-0.317-0.112-0.756-0.229-1.316-0.35-0.56-0.131-1.003-0.289-1.33-0.476-0.327-0.196-0.56-0.425-0.7-0.686-0.14-0.271-0.21-0.574-0.21-0.91 0-0.3453 0.103-0.6767 0.308-0.994 0.205-0.3267 0.504-0.5927 0.896-0.798 0.401-0.2053 0.901-0.308 1.498-0.308 0.485 0 0.901 0.0607 1.246 0.182s0.63 0.2753 0.854 0.462c0.224 0.1773 0.392 0.3547 0.504 0.532s0.173 0.3267 0.182 0.448c9e-3 0.0933-0.019 0.1727-0.084 0.238-0.065 0.056-0.14 0.084-0.224 0.084h-0.588c-0.065 0-0.121-0.014-0.168-0.042-0.037-0.028-0.075-0.0607-0.112-0.098-0.093-0.1213-0.205-0.2427-0.336-0.364-0.121-0.1213-0.285-0.2193-0.49-0.294-0.196-0.084-0.457-0.126-0.784-0.126-0.467 0-0.817 0.098-1.05 0.294s-0.35 0.4433-0.35 0.742c0 0.1773 0.051 0.336 0.154 0.476s0.299 0.266 0.588 0.378 0.719 0.233 1.288 0.364c0.616 0.121 1.101 0.285 1.456 0.49s0.607 0.443 0.756 0.714 0.224 0.583 0.224 0.938c0 0.392-0.117 0.751-0.35 1.078-0.224 0.327-0.56 0.588-1.008 0.784-0.439 0.187-0.985 0.28-1.638 0.28zm7.445-0.14c-0.523 0-0.947-0.098-1.274-0.294-0.327-0.205-0.565-0.49-0.714-0.854-0.149-0.373-0.224-0.812-0.224-1.316v-3.696h-1.092c-0.093 0-0.173-0.028-0.238-0.084-0.056-0.0653-0.084-0.1447-0.084-0.238v-0.476c0-0.0933 0.028-0.168 0.084-0.224 0.065-0.0653 0.145-0.098 0.238-0.098h1.092v-2.338c0-0.0933 0.028-0.168 0.084-0.224 0.065-0.0653 0.145-0.098 0.238-0.098h0.658c0.093 0 0.168 0.0327 0.224 0.098 0.065 0.056 0.098 0.1307 0.098 0.224v2.338h1.736c0.093 0 0.168 0.0327 0.224 0.098 0.065 0.056 0.098 0.1307 0.098 0.224v0.476c0 0.0933-0.033 0.1727-0.098 0.238-0.056 0.056-0.131 0.084-0.224 0.084h-1.736v3.598c0 0.439 0.075 0.784 0.224 1.036s0.415 0.378 0.798 0.378h0.854c0.093 0 0.168 0.033 0.224 0.098 0.065 0.056 0.098 0.131 0.098 0.224v0.504c0 0.093-0.033 0.173-0.098 0.238-0.056 0.056-0.131 0.084-0.224 0.084zm4.657 0.14c-0.467 0-0.891-0.093-1.274-0.28s-0.691-0.439-0.924-0.756-0.35-0.677-0.35-1.078c0-0.644 0.261-1.157 0.784-1.54s1.204-0.635 2.044-0.756l2.086-0.294v-0.406c0-0.448-0.131-0.798-0.392-1.05-0.252-0.252-0.667-0.378-1.246-0.378-0.42 0-0.761 0.084-1.022 0.252-0.252 0.168-0.429 0.3827-0.532 0.644-0.056 0.14-0.154 0.21-0.294 0.21h-0.63c-0.103 0-0.182-0.028-0.238-0.084-0.047-0.0653-0.07-0.14-0.07-0.224 0-0.14 0.051-0.3127 0.154-0.518 0.112-0.2053 0.28-0.406 0.504-0.602s0.509-0.3593 0.854-0.49c0.355-0.14 0.784-0.21 1.288-0.21 0.56 0 1.031 0.0747 1.414 0.224 0.383 0.14 0.681 0.3313 0.896 0.574 0.224 0.2427 0.383 0.518 0.476 0.826 0.103 0.308 0.154 0.6207 0.154 0.938v4.536c0 0.093-0.033 0.173-0.098 0.238-0.056 0.056-0.131 0.084-0.224 0.084h-0.644c-0.103 0-0.182-0.028-0.238-0.084-0.056-0.065-0.084-0.145-0.084-0.238v-0.602c-0.121 0.168-0.285 0.336-0.49 0.504-0.205 0.159-0.462 0.294-0.77 0.406-0.308 0.103-0.686 0.154-1.134 0.154zm0.294-1.05c0.383 0 0.733-0.079 1.05-0.238 0.317-0.168 0.565-0.425 0.742-0.77 0.187-0.345 0.28-0.779 0.28-1.302v-0.392l-1.624 0.238c-0.663 0.093-1.162 0.252-1.498 0.476-0.336 0.215-0.504 0.49-0.504 0.826 0 0.261 0.075 0.481 0.224 0.658 0.159 0.168 0.355 0.294 0.588 0.378 0.243 0.084 0.49 0.126 0.742 0.126zm5.736 0.91c-0.093 0-0.172-0.028-0.238-0.084-0.056-0.065-0.084-0.145-0.084-0.238v-9.296c0-0.0933 0.028-0.168 0.084-0.224 0.066-0.0653 0.145-0.098 0.238-0.098h0.658c0.103 0 0.182 0.0327 0.238 0.098 0.056 0.056 0.084 0.1307 0.084 0.224v9.296c0 0.093-0.028 0.173-0.084 0.238-0.056 0.056-0.135 0.084-0.238 0.084zm3.405 0c-0.094 0-0.173-0.028-0.238-0.084-0.056-0.065-0.084-0.145-0.084-0.238v-9.296c0-0.0933 0.028-0.168 0.084-0.224 0.065-0.0653 0.144-0.098 0.238-0.098h0.658c0.102 0 0.182 0.0327 0.238 0.098 0.056 0.056 0.084 0.1307 0.084 0.224v9.296c0 0.093-0.028 0.173-0.084 0.238-0.056 0.056-0.136 0.084-0.238 0.084zm5.098 0.14c-0.467 0-0.891-0.093-1.274-0.28s-0.691-0.439-0.924-0.756-0.35-0.677-0.35-1.078c0-0.644 0.261-1.157 0.784-1.54s1.204-0.635 2.044-0.756l2.086-0.294v-0.406c0-0.448-0.131-0.798-0.392-1.05-0.252-0.252-0.667-0.378-1.246-0.378-0.42 0-0.761 0.084-1.022 0.252-0.252 0.168-0.429 0.3827-0.532 0.644-0.056 0.14-0.154 0.21-0.294 0.21h-0.63c-0.103 0-0.182-0.028-0.238-0.084-0.047-0.0653-0.07-0.14-0.07-0.224 0-0.14 0.051-0.3127 0.154-0.518 0.112-0.2053 0.28-0.406 0.504-0.602s0.509-0.3593 0.854-0.49c0.355-0.14 0.784-0.21 1.288-0.21 0.56 0 1.031 0.0747 1.414 0.224 0.383 0.14 0.681 0.3313 0.896 0.574 0.224 0.2427 0.383 0.518 0.476 0.826 0.103 0.308 0.154 0.6207 0.154 0.938v4.536c0 0.093-0.033 0.173-0.098 0.238-0.056 0.056-0.131 0.084-0.224 0.084h-0.644c-0.103 0-0.182-0.028-0.238-0.084-0.056-0.065-0.084-0.145-0.084-0.238v-0.602c-0.121 0.168-0.285 0.336-0.49 0.504-0.205 0.159-0.462 0.294-0.77 0.406-0.308 0.103-0.686 0.154-1.134 0.154zm0.294-1.05c0.383 0 0.733-0.079 1.05-0.238 0.317-0.168 0.565-0.425 0.742-0.77 0.187-0.345 0.28-0.779 0.28-1.302v-0.392l-1.624 0.238c-0.663 0.093-1.162 0.252-1.498 0.476-0.336 0.215-0.504 0.49-0.504 0.826 0 0.261 0.075 0.481 0.224 0.658 0.159 0.168 0.355 0.294 0.588 0.378 0.243 0.084 0.49 0.126 0.742 0.126zm8.174 0.91c-0.522 0-0.947-0.098-1.274-0.294-0.326-0.205-0.564-0.49-0.714-0.854-0.149-0.373-0.224-0.812-0.224-1.316v-3.696h-1.092c-0.093 0-0.172-0.028-0.238-0.084-0.056-0.0653-0.084-0.1447-0.084-0.238v-0.476c0-0.0933 0.028-0.168 0.084-0.224 0.066-0.0653 0.145-0.098 0.238-0.098h1.092v-2.338c0-0.0933 0.028-0.168 0.084-0.224 0.066-0.0653 0.145-0.098 0.238-0.098h0.658c0.094 0 0.168 0.0327 0.224 0.098 0.066 0.056 0.098 0.1307 0.098 0.224v2.338h1.736c0.094 0 0.168 0.0327 0.224 0.098 0.066 0.056 0.098 0.1307 0.098 0.224v0.476c0 0.0933-0.032 0.1727-0.098 0.238-0.056 0.056-0.13 0.084-0.224 0.084h-1.736v3.598c0 0.439 0.075 0.784 0.224 1.036 0.15 0.252 0.416 0.378 0.798 0.378h0.854c0.094 0 0.168 0.033 0.224 0.098 0.066 0.056 0.098 0.131 0.098 0.224v0.504c0 0.093-0.032 0.173-0.098 0.238-0.056 0.056-0.13 0.084-0.224 0.084zm2.949 0c-0.093 0-0.173-0.028-0.238-0.084-0.056-0.065-0.084-0.145-0.084-0.238v-6.636c0-0.0933 0.028-0.168 0.084-0.224 0.065-0.0653 0.145-0.098 0.238-0.098h0.672c0.093 0 0.168 0.0327 0.224 0.098 0.056 0.056 0.084 0.1307 0.084 0.224v6.636c0 0.093-0.028 0.173-0.084 0.238-0.056 0.056-0.131 0.084-0.224 0.084zm-0.112-8.638c-0.093 0-0.173-0.028-0.238-0.084-0.056-0.0653-0.084-0.1447-0.084-0.238v-0.756c0-0.0933 0.028-0.168 0.084-0.224 0.065-0.0653 0.145-0.098 0.238-0.098h0.882c0.093 0 0.168 0.0327 0.224 0.098 0.065 0.056 0.098 0.1307 0.098 0.224v0.756c0 0.0933-0.033 0.1727-0.098 0.238-0.056 0.056-0.131 0.084-0.224 0.084zm6.19 8.778c-0.709 0-1.302-0.135-1.778-0.406s-0.84-0.644-1.092-1.12c-0.252-0.485-0.392-1.036-0.42-1.652-9e-3 -0.159-0.014-0.359-0.014-0.602 0-0.252 5e-3 -0.453 0.014-0.602 0.028-0.625 0.168-1.176 0.42-1.652 0.261-0.476 0.63-0.8493 1.106-1.12s1.064-0.406 1.764-0.406 1.288 0.1353 1.764 0.406 0.84 0.644 1.092 1.12c0.261 0.476 0.406 1.027 0.434 1.652 9e-3 0.149 0.014 0.35 0.014 0.602 0 0.243-5e-3 0.443-0.014 0.602-0.028 0.616-0.168 1.167-0.42 1.652-0.252 0.476-0.616 0.849-1.092 1.12s-1.069 0.406-1.778 0.406zm0-1.078c0.579 0 1.041-0.182 1.386-0.546 0.345-0.373 0.532-0.915 0.56-1.624 9e-3 -0.14 0.014-0.317 0.014-0.532s-5e-3 -0.392-0.014-0.532c-0.028-0.709-0.215-1.246-0.56-1.61-0.345-0.3733-0.807-0.56-1.386-0.56s-1.045 0.1867-1.4 0.56c-0.345 0.364-0.527 0.901-0.546 1.61-9e-3 0.14-0.014 0.317-0.014 0.532s5e-3 0.392 0.014 0.532c0.019 0.709 0.201 1.251 0.546 1.624 0.355 0.364 0.821 0.546 1.4 0.546zm5.379 0.938c-0.093 0-0.173-0.028-0.238-0.084-0.056-0.065-0.084-0.145-0.084-0.238v-6.636c0-0.0933 0.028-0.168 0.084-0.224 0.065-0.0653 0.145-0.098 0.238-0.098h0.658c0.093 0 0.168 0.0327 0.224 0.098 0.065 0.056 0.098 0.1307 0.098 0.224v0.616c0.243-0.3173 0.546-0.574 0.91-0.77 0.373-0.2053 0.849-0.308 1.428-0.308 0.607 0 1.12 0.1353 1.54 0.406 0.429 0.2613 0.751 0.63 0.966 1.106 0.215 0.4667 0.322 1.013 0.322 1.638v3.948c0 0.093-0.028 0.173-0.084 0.238-0.056 0.056-0.131 0.084-0.224 0.084h-0.7c-0.093 0-0.173-0.028-0.238-0.084-0.056-0.065-0.084-0.145-0.084-0.238v-3.878c0-0.653-0.159-1.162-0.476-1.526-0.317-0.3733-0.784-0.56-1.4-0.56-0.579 0-1.045 0.1867-1.4 0.56-0.345 0.364-0.518 0.873-0.518 1.526v3.878c0 0.093-0.033 0.173-0.098 0.238-0.056 0.056-0.131 0.084-0.224 0.084zm-116.63 17.14c-0.709 0-1.302-0.135-1.778-0.406s-0.84-0.644-1.092-1.12c-0.252-0.485-0.392-1.036-0.42-1.652-9e-3 -0.159-0.014-0.359-0.014-0.602 0-0.252 5e-3 -0.453 0.014-0.602 0.028-0.625 0.168-1.176 0.42-1.652 0.261-0.476 0.63-0.849 1.106-1.12s1.064-0.406 1.764-0.406 1.288 0.135 1.764 0.406 0.84 0.644 1.092 1.12c0.261 0.476 0.406 1.027 0.434 1.652 9e-3 0.149 0.014 0.35 0.014 0.602 0 0.243-5e-3 0.443-0.014 0.602-0.028 0.616-0.168 1.167-0.42 1.652-0.252 0.476-0.616 0.849-1.092 1.12s-1.069 0.406-1.778 0.406zm0-1.078c0.579 0 1.041-0.182 1.386-0.546 0.345-0.373 0.532-0.915 0.56-1.624 9e-3 -0.14 0.014-0.317 0.014-0.532s-5e-3 -0.392-0.014-0.532c-0.028-0.709-0.215-1.246-0.56-1.61-0.345-0.373-0.807-0.56-1.386-0.56s-1.045 0.187-1.4 0.56c-0.345 0.364-0.527 0.901-0.546 1.61-9e-3 0.14-0.014 0.317-0.014 0.532s5e-3 0.392 0.014 0.532c0.019 0.709 0.201 1.251 0.546 1.624 0.355 0.364 0.821 0.546 1.4 0.546zm6.025 0.938c-0.093 0-0.173-0.028-0.238-0.084-0.056-0.065-0.084-0.145-0.084-0.238v-5.838h-1.19c-0.093 0-0.173-0.028-0.238-0.084-0.056-0.065-0.084-0.145-0.084-0.238v-0.476c0-0.093 0.028-0.168 0.084-0.224 0.065-0.065 0.145-0.098 0.238-0.098h1.19v-0.7c0-0.476 0.079-0.891 0.238-1.246 0.159-0.364 0.411-0.644 0.756-0.84 0.355-0.196 0.826-0.294 1.414-0.294h0.84c0.093 0 0.168 0.033 0.224 0.098 0.056 0.056 0.084 0.131 0.084 0.224v0.476c0 0.093-0.028 0.173-0.084 0.238-0.056 0.056-0.131 0.084-0.224 0.084h-0.812c-0.439 0-0.737 0.117-0.896 0.35-0.159 0.224-0.238 0.551-0.238 0.98v0.63h1.806c0.093 0 0.168 0.033 0.224 0.098 0.056 0.056 0.084 0.131 0.084 0.224v0.476c0 0.093-0.028 0.173-0.084 0.238-0.056 0.056-0.131 0.084-0.224 0.084h-1.806v5.838c0 0.093-0.033 0.173-0.098 0.238-0.056 0.056-0.131 0.084-0.224 0.084zm9.995 0c-0.523 0-0.947-0.098-1.274-0.294-0.327-0.205-0.565-0.49-0.714-0.854-0.149-0.373-0.224-0.812-0.224-1.316v-3.696h-1.092c-0.093 0-0.173-0.028-0.238-0.084-0.056-0.065-0.084-0.145-0.084-0.238v-0.476c0-0.093 0.028-0.168 0.084-0.224 0.065-0.065 0.145-0.098 0.238-0.098h1.092v-2.338c0-0.093 0.028-0.168 0.084-0.224 0.065-0.065 0.145-0.098 0.238-0.098h0.658c0.093 0 0.168 0.033 0.224 0.098 0.065 0.056 0.098 0.131 0.098 0.224v2.338h1.736c0.093 0 0.168 0.033 0.224 0.098 0.065 0.056 0.098 0.131 0.098 0.224v0.476c0 0.093-0.033 0.173-0.098 0.238-0.056 0.056-0.131 0.084-0.224 0.084h-1.736v3.598c0 0.439 0.075 0.784 0.224 1.036s0.415 0.378 0.798 0.378h0.854c0.093 0 0.168 0.033 0.224 0.098 0.065 0.056 0.098 0.131 0.098 0.224v0.504c0 0.093-0.033 0.173-0.098 0.238-0.056 0.056-0.131 0.084-0.224 0.084zm2.963 0c-0.093 0-0.173-0.028-0.238-0.084-0.056-0.065-0.084-0.145-0.084-0.238v-9.296c0-0.093 0.028-0.168 0.084-0.224 0.065-0.065 0.145-0.098 0.238-0.098h0.7c0.103 0 0.182 0.033 0.238 0.098 0.056 0.056 0.084 0.131 0.084 0.224v3.262c0.252-0.317 0.56-0.574 0.924-0.77s0.826-0.294 1.386-0.294c0.607 0 1.12 0.135 1.54 0.406 0.429 0.261 0.751 0.63 0.966 1.106 0.224 0.467 0.336 1.013 0.336 1.638v3.948c0 0.093-0.028 0.173-0.084 0.238-0.056 0.056-0.135 0.084-0.238 0.084h-0.7c-0.093 0-0.173-0.028-0.238-0.084-0.056-0.065-0.084-0.145-0.084-0.238v-3.878c0-0.653-0.159-1.162-0.476-1.526-0.317-0.373-0.784-0.56-1.4-0.56-0.579 0-1.045 0.187-1.4 0.56-0.355 0.364-0.532 0.873-0.532 1.526v3.878c0 0.093-0.028 0.173-0.084 0.238-0.056 0.056-0.135 0.084-0.238 0.084zm11.093 0.14c-0.961 0-1.727-0.294-2.296-0.882-0.569-0.597-0.882-1.409-0.938-2.436-9e-3 -0.121-0.014-0.275-0.014-0.462 0-0.196 5e-3 -0.355 0.014-0.476 0.037-0.663 0.191-1.241 0.462-1.736 0.271-0.504 0.639-0.891 1.106-1.162 0.476-0.271 1.031-0.406 1.666-0.406 0.709 0 1.302 0.149 1.778 0.448 0.485 0.299 0.854 0.723 1.106 1.274s0.378 1.195 0.378 1.932v0.238c0 0.103-0.033 0.182-0.098 0.238-0.056 0.056-0.131 0.084-0.224 0.084h-4.844v0.056 0.07c0.019 0.383 0.103 0.742 0.252 1.078 0.149 0.327 0.364 0.593 0.644 0.798s0.616 0.308 1.008 0.308c0.336 0 0.616-0.051 0.84-0.154s0.406-0.215 0.546-0.336c0.14-0.131 0.233-0.229 0.28-0.294 0.084-0.121 0.149-0.191 0.196-0.21 0.047-0.028 0.121-0.042 0.224-0.042h0.672c0.093 0 0.168 0.028 0.224 0.084 0.065 0.047 0.093 0.117 0.084 0.21-9e-3 0.14-0.084 0.313-0.224 0.518-0.14 0.196-0.341 0.392-0.602 0.588s-0.579 0.359-0.952 0.49c-0.373 0.121-0.803 0.182-1.288 0.182zm-1.904-4.312h3.836v-0.042c0-0.42-0.079-0.793-0.238-1.12-0.149-0.327-0.369-0.583-0.658-0.77-0.289-0.196-0.635-0.294-1.036-0.294s-0.747 0.098-1.036 0.294c-0.28 0.187-0.495 0.443-0.644 0.77s-0.224 0.7-0.224 1.12zm10.608 4.172c-0.094 0-0.173-0.028-0.238-0.084-0.056-0.065-0.084-0.145-0.084-0.238v-9.296c0-0.093 0.028-0.168 0.084-0.224 0.065-0.065 0.144-0.098 0.238-0.098h0.658c0.102 0 0.182 0.033 0.238 0.098 0.056 0.056 0.084 0.131 0.084 0.224v9.296c0 0.093-0.028 0.173-0.084 0.238-0.056 0.056-0.136 0.084-0.238 0.084zm3.527 0c-0.094 0-0.173-0.028-0.238-0.084-0.056-0.065-0.084-0.145-0.084-0.238v-6.636c0-0.093 0.028-0.168 0.084-0.224 0.065-0.065 0.144-0.098 0.238-0.098h0.672c0.093 0 0.168 0.033 0.224 0.098 0.056 0.056 0.084 0.131 0.084 0.224v6.636c0 0.093-0.028 0.173-0.084 0.238-0.056 0.056-0.131 0.084-0.224 0.084zm-0.112-8.638c-0.094 0-0.173-0.028-0.238-0.084-0.056-0.065-0.084-0.145-0.084-0.238v-0.756c0-0.093 0.028-0.168 0.084-0.224 0.065-0.065 0.144-0.098 0.238-0.098h0.882c0.093 0 0.168 0.033 0.224 0.098 0.065 0.056 0.098 0.131 0.098 0.224v0.756c0 0.093-0.033 0.173-0.098 0.238-0.056 0.056-0.131 0.084-0.224 0.084zm6.162 11.718c-0.634 0-1.157-0.084-1.568-0.252-0.401-0.168-0.718-0.373-0.952-0.616-0.224-0.233-0.387-0.471-0.49-0.714-0.093-0.233-0.144-0.42-0.154-0.56-9e-3 -0.093 0.019-0.173 0.084-0.238 0.075-0.065 0.154-0.098 0.238-0.098h0.672c0.084 0 0.154 0.019 0.21 0.056s0.103 0.117 0.14 0.238c0.056 0.14 0.14 0.294 0.252 0.462 0.112 0.177 0.285 0.327 0.518 0.448 0.234 0.131 0.56 0.196 0.98 0.196 0.439 0 0.808-0.061 1.106-0.182 0.299-0.112 0.523-0.317 0.672-0.616 0.159-0.289 0.238-0.691 0.238-1.204v-0.952c-0.224 0.289-0.518 0.532-0.882 0.728-0.364 0.187-0.821 0.28-1.372 0.28-0.522 0-0.97-0.089-1.344-0.266-0.373-0.187-0.681-0.434-0.924-0.742-0.233-0.317-0.41-0.677-0.532-1.078-0.112-0.401-0.177-0.821-0.196-1.26-9e-3 -0.261-9e-3 -0.518 0-0.77 0.019-0.439 0.084-0.859 0.196-1.26 0.122-0.401 0.299-0.761 0.532-1.078 0.243-0.317 0.551-0.565 0.924-0.742 0.374-0.187 0.822-0.28 1.344-0.28 0.56 0 1.022 0.107 1.386 0.322 0.374 0.205 0.677 0.457 0.91 0.756v-0.602c0-0.093 0.028-0.173 0.084-0.238 0.066-0.065 0.145-0.098 0.238-0.098h0.644c0.094 0 0.173 0.033 0.238 0.098 0.066 0.065 0.098 0.145 0.098 0.238v6.79c0 0.625-0.107 1.181-0.322 1.666-0.205 0.485-0.55 0.868-1.036 1.148-0.476 0.28-1.12 0.42-1.932 0.42zm-0.028-4.144c0.467 0 0.84-0.107 1.12-0.322 0.29-0.215 0.5-0.485 0.63-0.812 0.14-0.327 0.215-0.658 0.224-0.994 0.01-0.131 0.014-0.289 0.014-0.476 0-0.196-4e-3 -0.359-0.014-0.49-9e-3 -0.336-0.084-0.667-0.224-0.994-0.13-0.327-0.34-0.597-0.63-0.812-0.28-0.215-0.653-0.322-1.12-0.322-0.466 0-0.84 0.107-1.12 0.322-0.28 0.205-0.48 0.481-0.602 0.826-0.121 0.336-0.191 0.7-0.21 1.092-9e-3 0.243-9e-3 0.49 0 0.742 0.019 0.392 0.089 0.761 0.21 1.106 0.122 0.336 0.322 0.611 0.602 0.826 0.28 0.205 0.654 0.308 1.12 0.308zm5.736 1.064c-0.093 0-0.173-0.028-0.238-0.084-0.056-0.065-0.084-0.145-0.084-0.238v-9.296c0-0.093 0.028-0.168 0.084-0.224 0.065-0.065 0.145-0.098 0.238-0.098h0.7c0.103 0 0.182 0.033 0.238 0.098 0.056 0.056 0.084 0.131 0.084 0.224v3.262c0.252-0.317 0.56-0.574 0.924-0.77s0.826-0.294 1.386-0.294c0.607 0 1.12 0.135 1.54 0.406 0.429 0.261 0.751 0.63 0.966 1.106 0.224 0.467 0.336 1.013 0.336 1.638v3.948c0 0.093-0.028 0.173-0.084 0.238-0.056 0.056-0.135 0.084-0.238 0.084h-0.7c-0.093 0-0.173-0.028-0.238-0.084-0.056-0.065-0.084-0.145-0.084-0.238v-3.878c0-0.653-0.159-1.162-0.476-1.526-0.317-0.373-0.784-0.56-1.4-0.56-0.579 0-1.045 0.187-1.4 0.56-0.355 0.364-0.532 0.873-0.532 1.526v3.878c0 0.093-0.028 0.173-0.084 0.238-0.056 0.056-0.135 0.084-0.238 0.084zm10.941 0c-0.522 0-0.947-0.098-1.274-0.294-0.326-0.205-0.564-0.49-0.714-0.854-0.149-0.373-0.224-0.812-0.224-1.316v-3.696h-1.092c-0.093 0-0.172-0.028-0.238-0.084-0.056-0.065-0.084-0.145-0.084-0.238v-0.476c0-0.093 0.028-0.168 0.084-0.224 0.066-0.065 0.145-0.098 0.238-0.098h1.092v-2.338c0-0.093 0.028-0.168 0.084-0.224 0.066-0.065 0.145-0.098 0.238-0.098h0.658c0.094 0 0.168 0.033 0.224 0.098 0.066 0.056 0.098 0.131 0.098 0.224v2.338h1.736c0.094 0 0.168 0.033 0.224 0.098 0.066 0.056 0.098 0.131 0.098 0.224v0.476c0 0.093-0.032 0.173-0.098 0.238-0.056 0.056-0.13 0.084-0.224 0.084h-1.736v3.598c0 0.439 0.075 0.784 0.224 1.036 0.15 0.252 0.416 0.378 0.798 0.378h0.854c0.094 0 0.168 0.033 0.224 0.098 0.066 0.056 0.098 0.131 0.098 0.224v0.504c0 0.093-0.032 0.173-0.098 0.238-0.056 0.056-0.13 0.084-0.224 0.084zm2.949 0c-0.093 0-0.172-0.028-0.238-0.084-0.056-0.065-0.084-0.145-0.084-0.238v-6.636c0-0.093 0.028-0.168 0.084-0.224 0.066-0.065 0.145-0.098 0.238-0.098h0.658c0.094 0 0.168 0.033 0.224 0.098 0.066 0.056 0.098 0.131 0.098 0.224v0.616c0.243-0.317 0.546-0.574 0.91-0.77 0.374-0.205 0.85-0.308 1.428-0.308 0.607 0 1.12 0.135 1.54 0.406 0.43 0.261 0.752 0.63 0.966 1.106 0.215 0.467 0.322 1.013 0.322 1.638v3.948c0 0.093-0.028 0.173-0.084 0.238-0.056 0.056-0.13 0.084-0.224 0.084h-0.7c-0.093 0-0.172-0.028-0.238-0.084-0.056-0.065-0.084-0.145-0.084-0.238v-3.878c0-0.653-0.158-1.162-0.476-1.526-0.317-0.373-0.784-0.56-1.4-0.56-0.578 0-1.045 0.187-1.4 0.56-0.345 0.364-0.518 0.873-0.518 1.526v3.878c0 0.093-0.032 0.173-0.098 0.238-0.056 0.056-0.13 0.084-0.224 0.084zm8.49 0c-0.093 0-0.172-0.028-0.238-0.084-0.056-0.065-0.084-0.145-0.084-0.238v-6.636c0-0.093 0.028-0.168 0.084-0.224 0.066-0.065 0.145-0.098 0.238-0.098h0.672c0.094 0 0.168 0.033 0.224 0.098 0.056 0.056 0.084 0.131 0.084 0.224v6.636c0 0.093-0.028 0.173-0.084 0.238-0.056 0.056-0.13 0.084-0.224 0.084zm-0.112-8.638c-0.093 0-0.172-0.028-0.238-0.084-0.056-0.065-0.084-0.145-0.084-0.238v-0.756c0-0.093 0.028-0.168 0.084-0.224 0.066-0.065 0.145-0.098 0.238-0.098h0.882c0.094 0 0.168 0.033 0.224 0.098 0.066 0.056 0.098 0.131 0.098 0.224v0.756c0 0.093-0.032 0.173-0.098 0.238-0.056 0.056-0.13 0.084-0.224 0.084zm3.64 8.638c-0.094 0-0.173-0.028-0.238-0.084-0.056-0.065-0.084-0.145-0.084-0.238v-6.636c0-0.093 0.028-0.168 0.084-0.224 0.065-0.065 0.144-0.098 0.238-0.098h0.658c0.093 0 0.168 0.033 0.224 0.098 0.065 0.056 0.098 0.131 0.098 0.224v0.616c0.242-0.317 0.546-0.574 0.91-0.77 0.373-0.205 0.849-0.308 1.428-0.308 0.606 0 1.12 0.135 1.54 0.406 0.429 0.261 0.751 0.63 0.966 1.106 0.214 0.467 0.322 1.013 0.322 1.638v3.948c0 0.093-0.028 0.173-0.084 0.238-0.056 0.056-0.131 0.084-0.224 0.084h-0.7c-0.094 0-0.173-0.028-0.238-0.084-0.056-0.065-0.084-0.145-0.084-0.238v-3.878c0-0.653-0.159-1.162-0.476-1.526-0.318-0.373-0.784-0.56-1.4-0.56-0.579 0-1.046 0.187-1.4 0.56-0.346 0.364-0.518 0.873-0.518 1.526v3.878c0 0.093-0.033 0.173-0.098 0.238-0.056 0.056-0.131 0.084-0.224 0.084zm11.15 3.08c-0.635 0-1.157-0.084-1.568-0.252-0.401-0.168-0.719-0.373-0.952-0.616-0.224-0.233-0.387-0.471-0.49-0.714-0.093-0.233-0.145-0.42-0.154-0.56-9e-3 -0.093 0.019-0.173 0.084-0.238 0.075-0.065 0.154-0.098 0.238-0.098h0.672c0.084 0 0.154 0.019 0.21 0.056s0.103 0.117 0.14 0.238c0.056 0.14 0.14 0.294 0.252 0.462 0.112 0.177 0.285 0.327 0.518 0.448 0.233 0.131 0.56 0.196 0.98 0.196 0.439 0 0.807-0.061 1.106-0.182 0.299-0.112 0.523-0.317 0.672-0.616 0.159-0.289 0.238-0.691 0.238-1.204v-0.952c-0.224 0.289-0.518 0.532-0.882 0.728-0.364 0.187-0.821 0.28-1.372 0.28-0.523 0-0.971-0.089-1.344-0.266-0.373-0.187-0.681-0.434-0.924-0.742-0.233-0.317-0.411-0.677-0.532-1.078-0.112-0.401-0.177-0.821-0.196-1.26-9e-3 -0.261-9e-3 -0.518 0-0.77 0.019-0.439 0.084-0.859 0.196-1.26 0.121-0.401 0.299-0.761 0.532-1.078 0.243-0.317 0.551-0.565 0.924-0.742 0.373-0.187 0.821-0.28 1.344-0.28 0.56 0 1.022 0.107 1.386 0.322 0.373 0.205 0.677 0.457 0.91 0.756v-0.602c0-0.093 0.028-0.173 0.084-0.238 0.065-0.065 0.145-0.098 0.238-0.098h0.644c0.093 0 0.173 0.033 0.238 0.098s0.098 0.145 0.098 0.238v6.79c0 0.625-0.107 1.181-0.322 1.666-0.205 0.485-0.551 0.868-1.036 1.148-0.476 0.28-1.12 0.42-1.932 0.42zm-0.028-4.144c0.467 0 0.84-0.107 1.12-0.322 0.289-0.215 0.499-0.485 0.63-0.812 0.14-0.327 0.215-0.658 0.224-0.994 9e-3 -0.131 0.014-0.289 0.014-0.476 0-0.196-5e-3 -0.359-0.014-0.49-9e-3 -0.336-0.084-0.667-0.224-0.994-0.131-0.327-0.341-0.597-0.63-0.812-0.28-0.215-0.653-0.322-1.12-0.322s-0.84 0.107-1.12 0.322c-0.28 0.205-0.481 0.481-0.602 0.826-0.121 0.336-0.191 0.7-0.21 1.092-9e-3 0.243-9e-3 0.49 0 0.742 0.019 0.392 0.089 0.761 0.21 1.106 0.121 0.336 0.322 0.611 0.602 0.826 0.28 0.205 0.653 0.308 1.12 0.308zm9.153 1.064c-0.093 0-0.172-0.028-0.238-0.084-0.056-0.065-0.084-0.145-0.084-0.238v-6.622c0-0.093 0.028-0.173 0.084-0.238 0.066-0.065 0.145-0.098 0.238-0.098h0.644c0.094 0 0.173 0.033 0.238 0.098 0.066 0.065 0.098 0.145 0.098 0.238v0.616c0.187-0.317 0.444-0.555 0.77-0.714 0.327-0.159 0.719-0.238 1.176-0.238h0.56c0.094 0 0.168 0.033 0.224 0.098 0.056 0.056 0.084 0.131 0.084 0.224v0.574c0 0.093-0.028 0.168-0.084 0.224s-0.13 0.084-0.224 0.084h-0.84c-0.504 0-0.9 0.149-1.19 0.448-0.289 0.289-0.434 0.686-0.434 1.19v4.116c0 0.093-0.032 0.173-0.098 0.238-0.065 0.056-0.144 0.084-0.238 0.084zm7.842 0.14c-0.709 0-1.302-0.135-1.778-0.406s-0.84-0.644-1.092-1.12c-0.252-0.485-0.392-1.036-0.42-1.652-9e-3 -0.159-0.014-0.359-0.014-0.602 0-0.252 5e-3 -0.453 0.014-0.602 0.028-0.625 0.168-1.176 0.42-1.652 0.261-0.476 0.63-0.849 1.106-1.12s1.064-0.406 1.764-0.406 1.288 0.135 1.764 0.406 0.84 0.644 1.092 1.12c0.261 0.476 0.406 1.027 0.434 1.652 9e-3 0.149 0.014 0.35 0.014 0.602 0 0.243-5e-3 0.443-0.014 0.602-0.028 0.616-0.168 1.167-0.42 1.652-0.252 0.476-0.616 0.849-1.092 1.12s-1.069 0.406-1.778 0.406zm0-1.078c0.579 0 1.041-0.182 1.386-0.546 0.345-0.373 0.532-0.915 0.56-1.624 9e-3 -0.14 0.014-0.317 0.014-0.532s-5e-3 -0.392-0.014-0.532c-0.028-0.709-0.215-1.246-0.56-1.61-0.345-0.373-0.807-0.56-1.386-0.56s-1.045 0.187-1.4 0.56c-0.345 0.364-0.527 0.901-0.546 1.61-9e-3 0.14-0.014 0.317-0.014 0.532s5e-3 0.392 0.014 0.532c0.019 0.709 0.201 1.251 0.546 1.624 0.355 0.364 0.821 0.546 1.4 0.546zm7.717 1.078c-0.513 0-0.957-0.089-1.33-0.266-0.373-0.187-0.681-0.434-0.924-0.742-0.233-0.317-0.411-0.677-0.532-1.078-0.112-0.401-0.177-0.826-0.196-1.274-9e-3 -0.149-0.014-0.289-0.014-0.42s5e-3 -0.271 0.014-0.42c0.019-0.439 0.084-0.859 0.196-1.26 0.121-0.401 0.299-0.761 0.532-1.078 0.243-0.317 0.551-0.565 0.924-0.742 0.373-0.187 0.817-0.28 1.33-0.28 0.551 0 1.008 0.098 1.372 0.294s0.663 0.439 0.896 0.728v-3.22c0-0.093 0.028-0.168 0.084-0.224 0.065-0.065 0.145-0.098 0.238-0.098h0.672c0.093 0 0.168 0.033 0.224 0.098 0.065 0.056 0.098 0.131 0.098 0.224v9.296c0 0.093-0.033 0.173-0.098 0.238-0.056 0.056-0.131 0.084-0.224 0.084h-0.63c-0.103 0-0.182-0.028-0.238-0.084-0.056-0.065-0.084-0.145-0.084-0.238v-0.588c-0.233 0.299-0.537 0.551-0.91 0.756-0.373 0.196-0.84 0.294-1.4 0.294zm0.294-1.134c0.467 0 0.84-0.107 1.12-0.322s0.49-0.485 0.63-0.812c0.14-0.336 0.215-0.677 0.224-1.022 9e-3 -0.149 0.014-0.327 0.014-0.532 0-0.215-5e-3 -0.397-0.014-0.546-9e-3 -0.327-0.089-0.649-0.238-0.966-0.14-0.317-0.355-0.579-0.644-0.784-0.28-0.205-0.644-0.308-1.092-0.308-0.476 0-0.854 0.107-1.134 0.322-0.28 0.205-0.481 0.481-0.602 0.826-0.121 0.336-0.191 0.7-0.21 1.092-9e-3 0.271-9e-3 0.541 0 0.812 0.019 0.392 0.089 0.761 0.21 1.106 0.121 0.336 0.322 0.611 0.602 0.826 0.28 0.205 0.658 0.308 1.134 0.308z"/><path d="m530 143.12c0 0.103-0.028 0.182-0.084 0.238-0.065 0.056-0.145 0.084-0.238 0.084h-9.142c-0.103 0-0.182-0.028-0.238-0.084-0.065-0.056-0.098-0.135-0.098-0.238v-3.836c0-0.7 0.117-1.269 0.35-1.708 0.224-0.448 0.532-0.774 0.924-0.98 0.392-0.214 0.831-0.322 1.316-0.322 0.383 0 0.714 0.066 0.994 0.196 0.271 0.122 0.495 0.276 0.672 0.462 0.168 0.187 0.299 0.369 0.392 0.546 0.177-0.364 0.467-0.686 0.868-0.966 0.401-0.289 0.887-0.434 1.456-0.434 0.513 0 0.985 0.117 1.414 0.35 0.429 0.234 0.775 0.584 1.036 1.05 0.252 0.458 0.378 1.027 0.378 1.708zm-1.134-1.05v-2.702c0-0.606-0.163-1.073-0.49-1.4-0.327-0.326-0.728-0.49-1.204-0.49-0.495 0-0.901 0.164-1.218 0.49-0.327 0.327-0.49 0.794-0.49 1.4v2.702zm-4.522 0v-2.576c0-0.597-0.135-1.05-0.406-1.358-0.28-0.308-0.658-0.462-1.134-0.462s-0.84 0.154-1.092 0.462-0.378 0.761-0.378 1.358v2.576zm5.796-10.513c0 0.597-0.131 1.106-0.392 1.526-0.271 0.41-0.644 0.723-1.12 0.938-0.476 0.214-1.022 0.322-1.638 0.322h-3.948c-0.093 0-0.168-0.028-0.224-0.084-0.065-0.066-0.098-0.145-0.098-0.238v-0.7c0-0.094 0.033-0.168 0.098-0.224 0.056-0.066 0.131-0.098 0.224-0.098h3.878c1.391 0 2.086-0.607 2.086-1.82 0-0.579-0.182-1.041-0.546-1.386-0.373-0.355-0.887-0.532-1.54-0.532h-3.878c-0.093 0-0.168-0.028-0.224-0.084-0.065-0.066-0.098-0.145-0.098-0.238v-0.686c0-0.103 0.033-0.182 0.098-0.238 0.056-0.056 0.131-0.084 0.224-0.084h6.636c0.093 0 0.173 0.028 0.238 0.084 0.056 0.056 0.084 0.135 0.084 0.238v0.644c0 0.093-0.028 0.172-0.084 0.238-0.065 0.056-0.145 0.084-0.238 0.084h-0.616c0.327 0.252 0.588 0.56 0.784 0.924 0.196 0.354 0.294 0.826 0.294 1.414zm-0.14-6.028c0 0.093-0.028 0.173-0.084 0.238-0.065 0.056-0.145 0.084-0.238 0.084h-6.636c-0.093 0-0.168-0.028-0.224-0.084-0.065-0.065-0.098-0.145-0.098-0.238v-0.672c0-0.093 0.033-0.168 0.098-0.224 0.056-0.056 0.131-0.084 0.224-0.084h6.636c0.093 0 0.173 0.028 0.238 0.084 0.056 0.056 0.084 0.131 0.084 0.224zm-8.638 0.112c0 0.093-0.028 0.173-0.084 0.238-0.065 0.056-0.145 0.084-0.238 0.084h-0.756c-0.093 0-0.168-0.028-0.224-0.084-0.065-0.065-0.098-0.145-0.098-0.238v-0.882c0-0.093 0.033-0.168 0.098-0.224 0.056-0.065 0.131-0.098 0.224-0.098h0.756c0.093 0 0.173 0.033 0.238 0.098 0.056 0.056 0.084 0.131 0.084 0.224zm8.638-3.517c0 0.094-0.028 0.173-0.084 0.238-0.065 0.056-0.145 0.084-0.238 0.084h-9.296c-0.093 0-0.168-0.028-0.224-0.084-0.065-0.065-0.098-0.144-0.098-0.238v-0.658c0-0.102 0.033-0.182 0.098-0.238 0.056-0.056 0.131-0.084 0.224-0.084h9.296c0.093 0 0.173 0.028 0.238 0.084 0.056 0.056 0.084 0.136 0.084 0.238zm0.14-5.728c0 0.513-0.089 0.957-0.266 1.33-0.187 0.373-0.434 0.681-0.742 0.924-0.317 0.233-0.677 0.411-1.078 0.532-0.401 0.112-0.826 0.177-1.274 0.196-0.149 9e-3 -0.289 0.014-0.42 0.014s-0.271-5e-3 -0.42-0.014c-0.439-0.019-0.859-0.084-1.26-0.196-0.401-0.121-0.761-0.299-1.078-0.532-0.317-0.243-0.565-0.551-0.742-0.924-0.187-0.373-0.28-0.817-0.28-1.33 0-0.551 0.098-1.008 0.294-1.372s0.439-0.663 0.728-0.896h-3.22c-0.093 0-0.168-0.028-0.224-0.084-0.065-0.065-0.098-0.145-0.098-0.238v-0.672c0-0.093 0.033-0.168 0.098-0.224 0.056-0.065 0.131-0.098 0.224-0.098h9.296c0.093 0 0.173 0.033 0.238 0.098 0.056 0.056 0.084 0.131 0.084 0.224v0.63c0 0.103-0.028 0.182-0.084 0.238-0.065 0.056-0.145 0.084-0.238 0.084h-0.588c0.299 0.233 0.551 0.537 0.756 0.91 0.196 0.373 0.294 0.84 0.294 1.4zm-1.134-0.294c0-0.467-0.107-0.84-0.322-1.12s-0.485-0.49-0.812-0.63c-0.336-0.14-0.677-0.215-1.022-0.224-0.149-9e-3 -0.327-0.014-0.532-0.014-0.215 0-0.397 5e-3 -0.546 0.014-0.327 9e-3 -0.649 0.089-0.966 0.238-0.317 0.14-0.579 0.355-0.784 0.644-0.205 0.28-0.308 0.644-0.308 1.092 0 0.476 0.107 0.854 0.322 1.134 0.205 0.28 0.481 0.481 0.826 0.602 0.336 0.121 0.7 0.191 1.092 0.21 0.271 9e-3 0.541 9e-3 0.812 0 0.392-0.019 0.761-0.089 1.106-0.21 0.336-0.121 0.611-0.322 0.826-0.602 0.205-0.28 0.308-0.658 0.308-1.134zm0.994-5.694c0 0.093-0.028 0.172-0.084 0.238-0.065 0.056-0.145 0.084-0.238 0.084h-6.636c-0.093 0-0.168-0.028-0.224-0.084-0.065-0.066-0.098-0.145-0.098-0.238v-0.672c0-0.094 0.033-0.168 0.098-0.224 0.056-0.056 0.131-0.084 0.224-0.084h6.636c0.093 0 0.173 0.028 0.238 0.084 0.056 0.056 0.084 0.13 0.084 0.224zm-8.638 0.112c0 0.093-0.028 0.172-0.084 0.238-0.065 0.056-0.145 0.084-0.238 0.084h-0.756c-0.093 0-0.168-0.028-0.224-0.084-0.065-0.066-0.098-0.145-0.098-0.238v-0.882c0-0.094 0.033-0.168 0.098-0.224 0.056-0.066 0.131-0.098 0.224-0.098h0.756c0.093 0 0.173 0.032 0.238 0.098 0.056 0.056 0.084 0.13 0.084 0.224zm8.638-3.64c0 0.094-0.028 0.173-0.084 0.238-0.065 0.056-0.145 0.084-0.238 0.084h-6.636c-0.093 0-0.168-0.028-0.224-0.084-0.065-0.065-0.098-0.144-0.098-0.238v-0.658c0-0.093 0.033-0.168 0.098-0.224 0.056-0.065 0.131-0.098 0.224-0.098h0.616c-0.317-0.242-0.574-0.546-0.77-0.91-0.205-0.373-0.308-0.849-0.308-1.428 0-0.606 0.135-1.12 0.406-1.54 0.261-0.429 0.63-0.751 1.106-0.966 0.467-0.214 1.013-0.322 1.638-0.322h3.948c0.093 0 0.173 0.028 0.238 0.084 0.056 0.056 0.084 0.131 0.084 0.224v0.7c0 0.094-0.028 0.173-0.084 0.238-0.065 0.056-0.145 0.084-0.238 0.084h-3.878c-0.653 0-1.162 0.159-1.526 0.476-0.373 0.318-0.56 0.784-0.56 1.4 0 0.579 0.187 1.046 0.56 1.4 0.364 0.346 0.873 0.518 1.526 0.518h3.878c0.093 0 0.173 0.033 0.238 0.098 0.056 0.056 0.084 0.131 0.084 0.224zm3.08-11.15c0 0.6346-0.084 1.1573-0.252 1.568-0.168 0.4013-0.373 0.7186-0.616 0.952-0.233 0.224-0.471 0.3873-0.714 0.49-0.233 0.0933-0.42 0.1446-0.56 0.154-0.093 0.0093-0.173-0.0187-0.238-0.084-0.065-0.0747-0.098-0.154-0.098-0.238v-0.672c0-0.084 0.019-0.154 0.056-0.21s0.117-0.1027 0.238-0.14c0.14-0.056 0.294-0.14 0.462-0.252 0.177-0.112 0.327-0.2847 0.448-0.518 0.131-0.2334 0.196-0.56 0.196-0.98 0-0.4387-0.061-0.8074-0.182-1.106-0.112-0.2987-0.317-0.5227-0.616-0.672-0.289-0.1587-0.691-0.238-1.204-0.238h-0.952c0.289 0.224 0.532 0.518 0.728 0.882 0.187 0.364 0.28 0.8213 0.28 1.372 0 0.5226-0.089 0.9706-0.266 1.344-0.187 0.3733-0.434 0.6813-0.742 0.924-0.317 0.2333-0.677 0.4106-1.078 0.532-0.401 0.112-0.821 0.1773-1.26 0.196-0.261 0.0093-0.518 0.0093-0.77 0-0.439-0.0187-0.859-0.084-1.26-0.196-0.401-0.1214-0.761-0.2987-1.078-0.532-0.317-0.2427-0.565-0.5507-0.742-0.924-0.187-0.3734-0.28-0.8214-0.28-1.344 0-0.56 0.107-1.022 0.322-1.386 0.205-0.3734 0.457-0.6767 0.756-0.91h-0.602c-0.093 0-0.173-0.028-0.238-0.084-0.065-0.0654-0.098-0.1447-0.098-0.238v-0.644c0-0.0934 0.033-0.1727 0.098-0.238 0.065-0.0654 0.145-0.098 0.238-0.098h6.79c0.625 0 1.181 0.1073 1.666 0.322 0.485 0.2053 0.868 0.5506 1.148 1.036 0.28 0.476 0.42 1.12 0.42 1.932zm-4.144 0.028c0-0.4667-0.107-0.84-0.322-1.12-0.215-0.2894-0.485-0.4994-0.812-0.63-0.327-0.14-0.658-0.2147-0.994-0.224-0.131-0.0094-0.289-0.014-0.476-0.014-0.196 0-0.359 0.0046-0.49 0.014-0.336 0.0093-0.667 0.084-0.994 0.224-0.327 0.1306-0.597 0.3406-0.812 0.63-0.215 0.28-0.322 0.6533-0.322 1.12 0 0.4666 0.107 0.84 0.322 1.12 0.205 0.28 0.481 0.4806 0.826 0.602 0.336 0.1213 0.7 0.1913 1.092 0.21 0.243 0.0093 0.49 0.0093 0.742 0 0.392-0.0187 0.761-0.0887 1.106-0.21 0.336-0.1214 0.611-0.322 0.826-0.602 0.205-0.28 0.308-0.6534 0.308-1.12zm1.064-10.435c0 0.1214-0.028 0.2147-0.084 0.28-0.065 0.0654-0.154 0.1214-0.266 0.168l-6.496 1.988c-0.047 0.0187-0.093 0.028-0.14 0.028-0.084 0-0.154-0.028-0.21-0.084-0.056-0.0653-0.084-0.1353-0.084-0.21v-0.616c0-0.1026 0.028-0.182 0.084-0.238s0.107-0.0933 0.154-0.112l5.278-1.554-5.222-1.666c-0.065-0.0186-0.131-0.056-0.196-0.112-0.065-0.0653-0.098-0.1586-0.098-0.28v-0.476c0-0.1213 0.033-0.2146 0.098-0.28 0.065-0.0653 0.131-0.1026 0.196-0.112l5.222-1.666-5.278-1.554c-0.047-0.0093-0.098-0.042-0.154-0.098s-0.084-0.1353-0.084-0.238v-0.616c0-0.084 0.028-0.154 0.084-0.21s0.126-0.084 0.21-0.084c0.047 0 0.093 0.0094 0.14 0.028l6.496 1.988c0.112 0.028 0.201 0.0794 0.266 0.154 0.056 0.0654 0.084 0.1634 0.084 0.294v0.546c0 0.1214-0.028 0.224-0.084 0.308-0.065 0.0747-0.154 0.126-0.266 0.154l-5.012 1.624 5.012 1.624c0.112 0.0374 0.201 0.0934 0.266 0.168 0.056 0.0747 0.084 0.1774 0.084 0.308zm0-9.6146c0 0.0934-0.028 0.1727-0.084 0.238-0.065 0.056-0.145 0.084-0.238 0.084h-6.636c-0.093 0-0.168-0.028-0.224-0.084-0.065-0.0653-0.098-0.1446-0.098-0.238v-0.672c0-0.0933 0.033-0.168 0.098-0.224 0.056-0.056 0.131-0.084 0.224-0.084h6.636c0.093 0 0.173 0.028 0.238 0.084 0.056 0.056 0.084 0.1307 0.084 0.224zm-8.638 0.112c0 0.0934-0.028 0.1727-0.084 0.238-0.065 0.056-0.145 0.084-0.238 0.084h-0.756c-0.093 0-0.168-0.028-0.224-0.084-0.065-0.0653-0.098-0.1446-0.098-0.238v-0.882c0-0.0933 0.033-0.168 0.098-0.224 0.056-0.0653 0.131-0.098 0.224-0.098h0.756c0.093 0 0.173 0.0327 0.238 0.098 0.056 0.056 0.084 0.1307 0.084 0.224zm8.778-5.8406c0 0.5133-0.089 0.9567-0.266 1.33-0.187 0.3733-0.434 0.6813-0.742 0.924-0.317 0.2333-0.677 0.4107-1.078 0.532-0.401 0.112-0.826 0.1773-1.274 0.196-0.149 0.0093-0.289 0.014-0.42 0.014s-0.271-0.0047-0.42-0.014c-0.439-0.0187-0.859-0.084-1.26-0.196-0.401-0.1213-0.761-0.2987-1.078-0.532-0.317-0.2427-0.565-0.5507-0.742-0.924-0.187-0.3733-0.28-0.8167-0.28-1.33 0-0.5507 0.098-1.008 0.294-1.372s0.439-0.6627 0.728-0.896h-3.22c-0.093 0-0.168-0.028-0.224-0.084-0.065-0.0653-0.098-0.1447-0.098-0.238v-0.672c0-0.0933 0.033-0.168 0.098-0.224 0.056-0.0653 0.131-0.098 0.224-0.098h9.296c0.093 0 0.173 0.0327 0.238 0.098 0.056 0.056 0.084 0.1307 0.084 0.224v0.63c0 0.1027-0.028 0.182-0.084 0.238-0.065 0.056-0.145 0.084-0.238 0.084h-0.588c0.299 0.2333 0.551 0.5367 0.756 0.91 0.196 0.3733 0.294 0.84 0.294 1.4zm-1.134-0.294c0-0.4667-0.107-0.84-0.322-1.12s-0.485-0.49-0.812-0.63c-0.336-0.14-0.677-0.2147-1.022-0.224-0.149-0.0093-0.327-0.014-0.532-0.014-0.215 0-0.397 0.0047-0.546 0.014-0.327 0.0093-0.649 0.0887-0.966 0.238-0.317 0.14-0.579 0.3547-0.784 0.644-0.205 0.28-0.308 0.644-0.308 1.092 0 0.476 0.107 0.854 0.322 1.134 0.205 0.28 0.481 0.4807 0.826 0.602 0.336 0.1213 0.7 0.1913 1.092 0.21 0.271 0.0093 0.541 0.0093 0.812 0 0.392-0.0187 0.761-0.0887 1.106-0.21 0.336-0.1213 0.611-0.322 0.826-0.602 0.205-0.28 0.308-0.658 0.308-1.134zm0.994-8.2142c0 0.5227-0.098 0.9474-0.294 1.274-0.205 0.3267-0.49 0.5647-0.854 0.714-0.373 0.1494-0.812 0.224-1.316 0.224h-3.696v1.092c0 0.0934-0.028 0.1727-0.084 0.238-0.065 0.056-0.145 0.084-0.238 0.084h-0.476c-0.093 0-0.168-0.028-0.224-0.084-0.065-0.0653-0.098-0.1446-0.098-0.238v-1.092h-2.338c-0.093 0-0.168-0.028-0.224-0.084-0.065-0.0653-0.098-0.1446-0.098-0.238v-0.658c0-0.0933 0.033-0.168 0.098-0.224 0.056-0.0653 0.131-0.098 0.224-0.098h2.338v-1.736c0-0.0933 0.033-0.168 0.098-0.224 0.056-0.0653 0.131-0.098 0.224-0.098h0.476c0.093 0 0.173 0.0327 0.238 0.098 0.056 0.056 0.084 0.1307 0.084 0.224v1.736h3.598c0.439 0 0.784-0.0746 1.036-0.224 0.252-0.1493 0.378-0.4153 0.378-0.798v-0.854c0-0.0933 0.033-0.168 0.098-0.224 0.056-0.0653 0.131-0.098 0.224-0.098h0.504c0.093 0 0.173 0.0327 0.238 0.098 0.056 0.056 0.084 0.1307 0.084 0.224zm0-2.9627c0 0.0933-0.028 0.1726-0.084 0.238-0.065 0.056-0.145 0.084-0.238 0.084h-9.296c-0.093 0-0.168-0.028-0.224-0.084-0.065-0.0654-0.098-0.1447-0.098-0.238v-0.7c0-0.1027 0.033-0.182 0.098-0.238 0.056-0.056 0.131-0.084 0.224-0.084h3.262c-0.317-0.252-0.574-0.56-0.77-0.924s-0.294-0.826-0.294-1.386c0-0.6067 0.135-1.12 0.406-1.54 0.261-0.4294 0.63-0.7514 1.106-0.966 0.467-0.224 1.013-0.336 1.638-0.336h3.948c0.093 0 0.173 0.028 0.238 0.084 0.056 0.056 0.084 0.1353 0.084 0.238v0.7c0 0.0933-0.028 0.1726-0.084 0.238-0.065 0.056-0.145 0.084-0.238 0.084h-3.878c-0.653 0-1.162 0.1586-1.526 0.476-0.373 0.3173-0.56 0.784-0.56 1.4 0 0.5786 0.187 1.0453 0.56 1.4 0.364 0.3546 0.873 0.532 1.526 0.532h3.878c0.093 0 0.173 0.028 0.238 0.084 0.056 0.056 0.084 0.1353 0.084 0.238z"/></g></svg>
