<?xml version="1.0" encoding="UTF-8"?>
<svg width="558" height="226" fill="none" version="1.1" viewBox="0 0 558 226" xmlns="http://www.w3.org/2000/svg"><rect x="24.5" y=".5" width="480" height="194" stroke="#000"/><circle cx="264" cy="97" r="4" stroke="#212529" stroke-width="2"/><path d="m31.646 96.646c-0.1952 0.1953-0.1952 0.5119 0 0.7072l3.182 3.1824c0.1953 0.195 0.5119 0.195 0.7071 0 0.1953-0.196 0.1953-0.512 0-0.7076l-2.8284-2.8284 2.8284-2.8284c0.1953-0.1953 0.1953-0.5119 0-0.7071-0.1952-0.1953-0.5118-0.1953-0.7071 0zm219.71 0.7072c0.195-0.1953 0.195-0.5119 0-0.7071l-3.182-3.182c-0.196-0.1953-0.512-0.1953-0.708 0-0.195 0.1952-0.195 0.5118 0 0.7071l2.829 2.8284-2.829 2.8284c-0.195 0.1956-0.195 0.5116 0 0.7076 0.196 0.195 0.512 0.195 0.708 0zm-219.35 0.1464h219v-1h-219z" fill="#da1f24"/><path d="m264.35 7.6464c-0.196-0.19527-0.512-0.19527-0.708 0l-3.182 3.182c-0.195 0.1953-0.195 0.5119 0 0.7071 0.196 0.1953 0.512 0.1953 0.708 0l2.828-2.8284 2.828 2.8284c0.196 0.1953 0.512 0.1953 0.708 0 0.195-0.1952 0.195-0.5118 0-0.7071zm-0.708 76.707c0.196 0.1952 0.512 0.1952 0.708 0l3.182-3.182c0.195-0.1953 0.195-0.5119 0-0.7071-0.196-0.1953-0.512-0.1953-0.708 0l-2.828 2.8284-2.828-2.8284c-0.196-0.1953-0.512-0.1953-0.708 0-0.195 0.1952-0.195 0.5118 0 0.7071zm-0.146-76.354v76h1v-76z" fill="#da1f24"/><g fill="#212529"><path d="m137.47 124c-0.132 0-0.234-0.036-0.306-0.108-0.072-0.084-0.108-0.186-0.108-0.306v-11.754c0-0.132 0.036-0.234 0.108-0.306 0.072-0.084 0.174-0.126 0.306-0.126h4.932c0.9 0 1.632 0.15 2.196 0.45 0.576 0.288 0.996 0.684 1.26 1.188 0.276 0.504 0.414 1.068 0.414 1.692 0 0.492-0.084 0.918-0.252 1.278-0.156 0.348-0.354 0.636-0.594 0.864-0.24 0.216-0.474 0.384-0.702 0.504 0.468 0.228 0.882 0.6 1.242 1.116 0.372 0.516 0.558 1.14 0.558 1.872 0 0.66-0.15 1.266-0.45 1.818s-0.75 0.996-1.35 1.332c-0.588 0.324-1.32 0.486-2.196 0.486zm1.35-1.458h3.474c0.78 0 1.38-0.21 1.8-0.63s0.63-0.936 0.63-1.548c0-0.636-0.21-1.158-0.63-1.566-0.42-0.42-1.02-0.63-1.8-0.63h-3.474zm0-5.814h3.312c0.768 0 1.35-0.174 1.746-0.522 0.396-0.36 0.594-0.846 0.594-1.458s-0.198-1.08-0.594-1.404-0.978-0.486-1.746-0.486h-3.312z"/><path d="m277.19 52c-0.096 0-0.18-0.036-0.252-0.108s-0.108-0.156-0.108-0.252c0-0.06 6e-3 -0.126 0.018-0.198l4.464-11.646c0.048-0.12 0.114-0.216 0.198-0.288s0.21-0.108 0.378-0.108h1.224c0.156 0 0.276 0.036 0.36 0.108 0.096 0.072 0.168 0.168 0.216 0.288l4.446 11.646c0.024 0.072 0.036 0.138 0.036 0.198 0 0.096-0.036 0.18-0.108 0.252s-0.156 0.108-0.252 0.108h-0.918c-0.144 0-0.252-0.036-0.324-0.108-0.06-0.072-0.102-0.138-0.126-0.198l-0.99-2.556h-5.904l-0.99 2.556c-0.012 0.06-0.054 0.126-0.126 0.198s-0.18 0.108-0.324 0.108zm2.88-4.41h4.86l-2.43-6.39z"/><path d="m218.04 221.95c-0.094 0-0.173-0.028-0.238-0.084-0.056-0.056-0.084-0.135-0.084-0.238v-2.562c0-0.093 0.028-0.168 0.084-0.224 0.065-0.065 0.144-0.098 0.238-0.098h0.294c0.224 0 0.42-0.103 0.588-0.308s0.308-0.518 0.42-0.938c0.121-0.429 0.21-0.971 0.266-1.624s0.084-1.428 0.084-2.324v-3.024c0-0.093 0.028-0.168 0.084-0.224 0.065-0.065 0.144-0.098 0.238-0.098h5.46c0.102 0 0.182 0.033 0.238 0.098 0.065 0.056 0.098 0.135 0.098 0.238v8.204h0.686c0.102 0 0.182 0.033 0.238 0.098 0.065 0.056 0.098 0.131 0.098 0.224v2.562c0 0.093-0.033 0.168-0.098 0.224-0.056 0.065-0.136 0.098-0.238 0.098h-0.714c-0.103 0-0.182-0.033-0.238-0.098-0.056-0.056-0.084-0.131-0.084-0.224v-1.624h-6.37v1.624c0 0.093-0.033 0.168-0.098 0.224-0.056 0.065-0.136 0.098-0.238 0.098zm2.086-3.206h4.312v-7.28h-3.402v2.254c0 1.325-0.08 2.394-0.238 3.206-0.15 0.812-0.374 1.419-0.672 1.82zm7.868 1.26c-0.094 0-0.173-0.033-0.238-0.098-0.066-0.065-0.098-0.145-0.098-0.238v-0.518c0-0.196 0.098-0.299 0.294-0.308 0.289-9e-3 0.532-0.145 0.728-0.406 0.196-0.271 0.345-0.695 0.448-1.274 0.102-0.588 0.154-1.363 0.154-2.324v-1.792c0-0.093 0.028-0.168 0.084-0.224 0.065-0.065 0.144-0.098 0.238-0.098h4.452c0.093 0 0.168 0.033 0.224 0.098 0.065 0.056 0.098 0.131 0.098 0.224v6.636c0 0.093-0.033 0.173-0.098 0.238-0.056 0.056-0.131 0.084-0.224 0.084h-0.672c-0.094 0-0.168-0.028-0.224-0.084-0.056-0.065-0.084-0.145-0.084-0.238v-5.838h-2.52v1.148c0 0.896-0.052 1.666-0.154 2.31-0.103 0.635-0.262 1.153-0.476 1.554-0.206 0.392-0.472 0.681-0.798 0.868-0.318 0.187-0.696 0.28-1.134 0.28zm8.779 0c-0.084 0-0.159-0.028-0.224-0.084-0.056-0.065-0.084-0.135-0.084-0.21v-6.664c0-0.093 0.028-0.168 0.084-0.224 0.065-0.065 0.144-0.098 0.238-0.098h0.672c0.093 0 0.168 0.033 0.224 0.098 0.056 0.056 0.084 0.131 0.084 0.224v5.936l-0.364-0.378 4.242-5.67c0.046-0.056 0.098-0.103 0.154-0.14 0.056-0.047 0.126-0.07 0.21-0.07h0.644c0.074 0 0.14 0.028 0.196 0.084 0.065 0.056 0.098 0.121 0.098 0.196v6.678c0 0.093-0.033 0.173-0.098 0.238-0.056 0.056-0.131 0.084-0.224 0.084h-0.658c-0.103 0-0.182-0.028-0.238-0.084-0.056-0.065-0.084-0.145-0.084-0.238v-5.586l0.392-0.014-4.27 5.712c-0.038 0.047-0.084 0.093-0.14 0.14s-0.131 0.07-0.224 0.07zm8.545 0c-0.093 0-0.173-0.028-0.238-0.084-0.056-0.065-0.084-0.145-0.084-0.238v-6.636c0-0.093 0.028-0.168 0.084-0.224 0.065-0.065 0.145-0.098 0.238-0.098h0.672c0.093 0 0.168 0.033 0.224 0.098 0.056 0.056 0.084 0.131 0.084 0.224v2.688h3.822v-2.688c0-0.093 0.028-0.168 0.084-0.224 0.065-0.065 0.145-0.098 0.238-0.098h0.658c0.093 0 0.168 0.033 0.224 0.098 0.065 0.056 0.098 0.131 0.098 0.224v6.636c0 0.093-0.033 0.173-0.098 0.238-0.056 0.056-0.131 0.084-0.224 0.084h-0.658c-0.093 0-0.173-0.028-0.238-0.084-0.056-0.065-0.084-0.145-0.084-0.238v-2.828h-3.822v2.828c0 0.093-0.028 0.173-0.084 0.238-0.056 0.056-0.131 0.084-0.224 0.084zm10.239 0.14c-0.466 0-0.891-0.093-1.274-0.28-0.382-0.187-0.69-0.439-0.924-0.756-0.233-0.317-0.35-0.677-0.35-1.078 0-0.644 0.262-1.157 0.784-1.54 0.523-0.383 1.204-0.635 2.044-0.756l2.086-0.294v-0.406c0-0.448-0.13-0.798-0.392-1.05-0.252-0.252-0.667-0.378-1.246-0.378-0.42 0-0.76 0.084-1.022 0.252-0.252 0.168-0.429 0.383-0.532 0.644-0.056 0.14-0.154 0.21-0.294 0.21h-0.63c-0.102 0-0.182-0.028-0.238-0.084-0.046-0.065-0.07-0.14-0.07-0.224 0-0.14 0.052-0.313 0.154-0.518 0.112-0.205 0.28-0.406 0.504-0.602s0.509-0.359 0.854-0.49c0.355-0.14 0.784-0.21 1.288-0.21 0.56 0 1.032 0.075 1.414 0.224 0.383 0.14 0.682 0.331 0.896 0.574 0.224 0.243 0.383 0.518 0.476 0.826 0.103 0.308 0.154 0.621 0.154 0.938v4.536c0 0.093-0.032 0.173-0.098 0.238-0.056 0.056-0.13 0.084-0.224 0.084h-0.644c-0.102 0-0.182-0.028-0.238-0.084-0.056-0.065-0.084-0.145-0.084-0.238v-0.602c-0.121 0.168-0.284 0.336-0.49 0.504-0.205 0.159-0.462 0.294-0.77 0.406-0.308 0.103-0.686 0.154-1.134 0.154zm0.294-1.05c0.383 0 0.733-0.079 1.05-0.238 0.318-0.168 0.565-0.425 0.742-0.77 0.187-0.345 0.28-0.779 0.28-1.302v-0.392l-1.624 0.238c-0.662 0.093-1.162 0.252-1.498 0.476-0.336 0.215-0.504 0.49-0.504 0.826 0 0.261 0.075 0.481 0.224 0.658 0.159 0.168 0.355 0.294 0.588 0.378 0.243 0.084 0.49 0.126 0.742 0.126zm11.367 1.05c-0.551 0-1.018-0.065-1.4-0.196-0.374-0.14-0.677-0.313-0.91-0.518-0.224-0.215-0.388-0.434-0.49-0.658-0.103-0.233-0.159-0.448-0.168-0.644 0-0.084 0.028-0.149 0.084-0.196 0.056-0.056 0.121-0.084 0.196-0.084h0.658c0.084 0 0.154 0.023 0.21 0.07 0.056 0.037 0.098 0.107 0.126 0.21 0.112 0.355 0.326 0.602 0.644 0.742 0.317 0.14 0.704 0.21 1.162 0.21 0.298 0 0.574-0.037 0.826-0.112 0.252-0.084 0.448-0.215 0.588-0.392 0.149-0.177 0.224-0.397 0.224-0.658 0-0.383-0.112-0.672-0.336-0.868-0.215-0.196-0.551-0.294-1.008-0.294h-0.77c-0.094 0-0.168-0.028-0.224-0.084s-0.084-0.131-0.084-0.224v-0.378c0-0.084 0.028-0.154 0.084-0.21 0.056-0.065 0.13-0.098 0.224-0.098h0.686c0.382 0 0.676-0.075 0.882-0.224 0.205-0.149 0.308-0.387 0.308-0.714 0-0.196-0.047-0.383-0.14-0.56-0.094-0.177-0.252-0.322-0.476-0.434-0.215-0.121-0.514-0.182-0.896-0.182-0.542 0-0.924 0.093-1.148 0.28-0.215 0.177-0.369 0.443-0.462 0.798-0.038 0.103-0.084 0.173-0.14 0.21-0.047 0.037-0.117 0.056-0.21 0.056h-0.63c-0.084 0-0.154-0.023-0.21-0.07s-0.084-0.112-0.084-0.196c9e-3 -0.28 0.07-0.546 0.182-0.798 0.121-0.252 0.298-0.481 0.532-0.686 0.242-0.205 0.541-0.364 0.896-0.476 0.364-0.121 0.788-0.182 1.274-0.182 0.7 0 1.25 0.107 1.652 0.322 0.41 0.215 0.7 0.481 0.868 0.798 0.177 0.308 0.266 0.616 0.266 0.924 0 0.364-0.061 0.667-0.182 0.91-0.112 0.243-0.336 0.448-0.672 0.616 0.42 0.159 0.709 0.397 0.868 0.714 0.158 0.317 0.242 0.686 0.252 1.106 9e-3 0.485-0.122 0.887-0.392 1.204-0.262 0.317-0.621 0.56-1.078 0.728-0.458 0.159-0.985 0.238-1.582 0.238zm4.21 1.4c-0.094 0-0.173-0.033-0.238-0.098-0.056-0.056-0.084-0.131-0.084-0.224v-2.016c0-0.093 0.028-0.168 0.084-0.224 0.065-0.065 0.144-0.098 0.238-0.098h0.07c0.252-9e-3 0.466-0.149 0.644-0.42 0.177-0.28 0.312-0.714 0.406-1.302 0.093-0.597 0.14-1.372 0.14-2.324v-1.792c0-0.093 0.028-0.168 0.084-0.224 0.065-0.065 0.144-0.098 0.238-0.098h4.466c0.093 0 0.168 0.033 0.224 0.098 0.065 0.056 0.098 0.131 0.098 0.224v5.81h0.658c0.102 0 0.182 0.033 0.238 0.098 0.056 0.056 0.084 0.131 0.084 0.224v2.044c0 0.093-0.028 0.168-0.084 0.224-0.056 0.065-0.136 0.098-0.238 0.098h-0.658c-0.094 0-0.173-0.033-0.238-0.098-0.056-0.056-0.084-0.131-0.084-0.224v-1.218h-5.068v1.218c0 0.093-0.033 0.168-0.098 0.224-0.056 0.065-0.131 0.098-0.224 0.098zm1.736-2.66 3.332-0.028v-5.012h-2.534v1.148c0 0.989-0.07 1.801-0.21 2.436-0.14 0.625-0.336 1.111-0.588 1.456zm9.108 1.26c-0.467 0-0.891-0.093-1.274-0.28s-0.691-0.439-0.924-0.756-0.35-0.677-0.35-1.078c0-0.644 0.261-1.157 0.784-1.54s1.204-0.635 2.044-0.756l2.086-0.294v-0.406c0-0.448-0.131-0.798-0.392-1.05-0.252-0.252-0.667-0.378-1.246-0.378-0.42 0-0.761 0.084-1.022 0.252-0.252 0.168-0.429 0.383-0.532 0.644-0.056 0.14-0.154 0.21-0.294 0.21h-0.63c-0.103 0-0.182-0.028-0.238-0.084-0.047-0.065-0.07-0.14-0.07-0.224 0-0.14 0.051-0.313 0.154-0.518 0.112-0.205 0.28-0.406 0.504-0.602s0.509-0.359 0.854-0.49c0.355-0.14 0.784-0.21 1.288-0.21 0.56 0 1.031 0.075 1.414 0.224 0.383 0.14 0.681 0.331 0.896 0.574 0.224 0.243 0.383 0.518 0.476 0.826 0.103 0.308 0.154 0.621 0.154 0.938v4.536c0 0.093-0.033 0.173-0.098 0.238-0.056 0.056-0.131 0.084-0.224 0.084h-0.644c-0.103 0-0.182-0.028-0.238-0.084-0.056-0.065-0.084-0.145-0.084-0.238v-0.602c-0.121 0.168-0.285 0.336-0.49 0.504-0.205 0.159-0.462 0.294-0.77 0.406-0.308 0.103-0.686 0.154-1.134 0.154zm0.294-1.05c0.383 0 0.733-0.079 1.05-0.238 0.317-0.168 0.565-0.425 0.742-0.77 0.187-0.345 0.28-0.779 0.28-1.302v-0.392l-1.624 0.238c-0.663 0.093-1.162 0.252-1.498 0.476-0.336 0.215-0.504 0.49-0.504 0.826 0 0.261 0.075 0.481 0.224 0.658 0.159 0.168 0.355 0.294 0.588 0.378 0.243 0.084 0.49 0.126 0.742 0.126zm5.723 0.91c-0.094 0-0.173-0.028-0.238-0.084-0.056-0.065-0.084-0.145-0.084-0.238v-6.636c0-0.093 0.028-0.168 0.084-0.224 0.065-0.065 0.144-0.098 0.238-0.098h0.672c0.093 0 0.168 0.033 0.224 0.098 0.056 0.056 0.084 0.131 0.084 0.224v2.688h3.822v-2.688c0-0.093 0.028-0.168 0.084-0.224 0.065-0.065 0.144-0.098 0.238-0.098h0.658c0.093 0 0.168 0.033 0.224 0.098 0.065 0.056 0.098 0.131 0.098 0.224v6.636c0 0.093-0.033 0.173-0.098 0.238-0.056 0.056-0.131 0.084-0.224 0.084h-0.658c-0.094 0-0.173-0.028-0.238-0.084-0.056-0.065-0.084-0.145-0.084-0.238v-2.828h-3.822v2.828c0 0.093-0.028 0.173-0.084 0.238-0.056 0.056-0.131 0.084-0.224 0.084zm8.517 0c-0.084 0-0.159-0.028-0.224-0.084-0.056-0.065-0.084-0.135-0.084-0.21v-6.664c0-0.093 0.028-0.168 0.084-0.224 0.065-0.065 0.145-0.098 0.238-0.098h0.672c0.093 0 0.168 0.033 0.224 0.098 0.056 0.056 0.084 0.131 0.084 0.224v5.936l-0.364-0.378 4.242-5.67c0.047-0.056 0.098-0.103 0.154-0.14 0.056-0.047 0.126-0.07 0.21-0.07h0.644c0.075 0 0.14 0.028 0.196 0.084 0.065 0.056 0.098 0.121 0.098 0.196v6.678c0 0.093-0.033 0.173-0.098 0.238-0.056 0.056-0.131 0.084-0.224 0.084h-0.658c-0.103 0-0.182-0.028-0.238-0.084-0.056-0.065-0.084-0.145-0.084-0.238v-5.586l0.392-0.014-4.27 5.712c-0.037 0.047-0.084 0.093-0.14 0.14s-0.131 0.07-0.224 0.07zm12.759 0c-0.102 0-0.182-0.028-0.238-0.084-0.056-0.065-0.084-0.145-0.084-0.238v-2.282h-1.61v-0.07c-0.877 0-1.53-0.215-1.96-0.644-0.42-0.439-0.63-0.994-0.63-1.666 0-0.784 0.229-1.363 0.686-1.736 0.467-0.373 1.167-0.56 2.1-0.56h2.408c0.094 0 0.168 0.033 0.224 0.098 0.066 0.056 0.098 0.131 0.098 0.224v6.636c0 0.093-0.032 0.173-0.098 0.238-0.056 0.056-0.13 0.084-0.224 0.084zm-4.438 0c-0.084 0-0.154-0.028-0.21-0.084s-0.084-0.121-0.084-0.196c0-0.037 5e-3 -0.075 0.014-0.112 0.019-0.047 0.047-0.093 0.084-0.14l1.666-2.464 1.344 0.098-1.778 2.688c-0.037 0.047-0.088 0.093-0.154 0.14-0.065 0.047-0.135 0.07-0.21 0.07zm2.548-3.654h1.582v-2.576h-1.47c-0.522 0-0.91 0.093-1.162 0.28-0.242 0.177-0.364 0.499-0.364 0.966 0 0.383 0.112 0.7 0.336 0.952 0.234 0.252 0.593 0.378 1.078 0.378z"/><path d="m278.54 105c-0.093 0-0.173-0.028-0.238-0.084-0.056-0.065-0.084-0.145-0.084-0.238v-9.142c0-0.1027 0.028-0.182 0.084-0.238 0.065-0.0653 0.145-0.098 0.238-0.098h0.7c0.112 0 0.196 0.028 0.252 0.084s0.089 0.1027 0.098 0.14l2.968 5.656 2.982-5.656c0.019-0.0373 0.051-0.084 0.098-0.14 0.056-0.056 0.14-0.084 0.252-0.084h0.686c0.103 0 0.182 0.0327 0.238 0.098 0.065 0.056 0.098 0.1353 0.098 0.238v9.142c0 0.093-0.033 0.173-0.098 0.238-0.056 0.056-0.135 0.084-0.238 0.084h-0.686c-0.093 0-0.173-0.028-0.238-0.084-0.056-0.065-0.084-0.145-0.084-0.238v-6.888l-2.338 4.564c-0.037 0.093-0.093 0.168-0.168 0.224-0.075 0.047-0.168 0.07-0.28 0.07h-0.434c-0.121 0-0.219-0.023-0.294-0.07-0.065-0.056-0.121-0.131-0.168-0.224l-2.338-4.564v6.888c0 0.093-0.033 0.173-0.098 0.238-0.056 0.056-0.131 0.084-0.224 0.084zm13.509 0.14c-0.961 0-1.726-0.294-2.296-0.882-0.569-0.597-0.882-1.409-0.938-2.436-9e-3 -0.121-0.014-0.275-0.014-0.462 0-0.196 5e-3 -0.355 0.014-0.476 0.038-0.663 0.192-1.2413 0.462-1.736 0.271-0.504 0.64-0.8913 1.106-1.162 0.476-0.2707 1.032-0.406 1.666-0.406 0.71 0 1.302 0.1493 1.778 0.448 0.486 0.2987 0.854 0.7233 1.106 1.274s0.378 1.195 0.378 1.932v0.238c0 0.103-0.032 0.182-0.098 0.238-0.056 0.056-0.13 0.084-0.224 0.084h-4.844v0.056 0.07c0.019 0.383 0.103 0.742 0.252 1.078 0.15 0.327 0.364 0.593 0.644 0.798s0.616 0.308 1.008 0.308c0.336 0 0.616-0.051 0.84-0.154s0.406-0.215 0.546-0.336c0.14-0.131 0.234-0.229 0.28-0.294 0.084-0.121 0.15-0.191 0.196-0.21 0.047-0.028 0.122-0.042 0.224-0.042h0.672c0.094 0 0.168 0.028 0.224 0.084 0.066 0.047 0.094 0.117 0.084 0.21-9e-3 0.14-0.084 0.313-0.224 0.518-0.14 0.196-0.34 0.392-0.602 0.588-0.261 0.196-0.578 0.359-0.952 0.49-0.373 0.121-0.802 0.182-1.288 0.182zm-1.904-4.312h3.836v-0.042c0-0.42-0.079-0.7933-0.238-1.12-0.149-0.3267-0.368-0.5833-0.658-0.77-0.289-0.196-0.634-0.294-1.036-0.294-0.401 0-0.746 0.098-1.036 0.294-0.28 0.1867-0.494 0.4433-0.644 0.77-0.149 0.3267-0.224 0.7-0.224 1.12zm9.78 4.312c-0.662 0-1.236-0.126-1.722-0.378-0.476-0.261-0.844-0.63-1.106-1.106-0.261-0.485-0.401-1.064-0.42-1.736-9e-3 -0.14-0.014-0.327-0.014-0.56s5e-3 -0.42 0.014-0.56c0.019-0.672 0.159-1.246 0.42-1.722 0.262-0.4853 0.63-0.854 1.106-1.106 0.486-0.2613 1.06-0.392 1.722-0.392 0.542 0 1.004 0.0747 1.386 0.224 0.392 0.1493 0.714 0.3407 0.966 0.574s0.439 0.4853 0.56 0.756c0.131 0.2707 0.201 0.5273 0.21 0.77 0.01 0.0933-0.018 0.168-0.084 0.224-0.065 0.056-0.144 0.084-0.238 0.084h-0.672c-0.093 0-0.163-0.019-0.21-0.056-0.046-0.047-0.093-0.121-0.14-0.224-0.168-0.4573-0.396-0.7793-0.686-0.966-0.289-0.1867-0.648-0.28-1.078-0.28-0.56 0-1.017 0.1727-1.372 0.518-0.345 0.3453-0.532 0.901-0.56 1.666-9e-3 0.336-9e-3 0.663 0 0.98 0.028 0.775 0.215 1.335 0.56 1.68 0.355 0.336 0.812 0.504 1.372 0.504 0.43 0 0.789-0.093 1.078-0.28 0.29-0.187 0.518-0.509 0.686-0.966 0.047-0.103 0.094-0.173 0.14-0.21 0.047-0.047 0.117-0.07 0.21-0.07h0.672c0.094 0 0.173 0.028 0.238 0.084 0.066 0.056 0.094 0.131 0.084 0.224-9e-3 0.196-0.051 0.397-0.126 0.602-0.074 0.205-0.196 0.415-0.364 0.63-0.158 0.205-0.359 0.392-0.602 0.56-0.242 0.159-0.536 0.289-0.882 0.392-0.336 0.093-0.718 0.14-1.148 0.14zm7.011-0.14c-0.094 0-0.173-0.028-0.238-0.084-0.056-0.065-0.084-0.145-0.084-0.238v-5.838h-2.436c-0.094 0-0.173-0.028-0.238-0.084-0.056-0.0653-0.084-0.1447-0.084-0.238v-0.476c0-0.0933 0.028-0.168 0.084-0.224 0.065-0.0653 0.144-0.098 0.238-0.098h6.16c0.093 0 0.168 0.0327 0.224 0.098 0.065 0.056 0.098 0.1307 0.098 0.224v0.476c0 0.0933-0.033 0.1727-0.098 0.238-0.056 0.056-0.131 0.084-0.224 0.084h-2.436v5.838c0 0.093-0.028 0.173-0.084 0.238-0.056 0.056-0.136 0.084-0.238 0.084zm7.92 0.14c-0.709 0-1.302-0.135-1.778-0.406s-0.84-0.644-1.092-1.12c-0.252-0.485-0.392-1.036-0.42-1.652-9e-3 -0.159-0.014-0.359-0.014-0.602 0-0.252 5e-3 -0.453 0.014-0.602 0.028-0.625 0.168-1.176 0.42-1.652 0.261-0.476 0.63-0.8493 1.106-1.12s1.064-0.406 1.764-0.406 1.288 0.1353 1.764 0.406 0.84 0.644 1.092 1.12c0.261 0.476 0.406 1.027 0.434 1.652 9e-3 0.149 0.014 0.35 0.014 0.602 0 0.243-5e-3 0.443-0.014 0.602-0.028 0.616-0.168 1.167-0.42 1.652-0.252 0.476-0.616 0.849-1.092 1.12s-1.069 0.406-1.778 0.406zm0-1.078c0.579 0 1.041-0.182 1.386-0.546 0.345-0.373 0.532-0.915 0.56-1.624 9e-3 -0.14 0.014-0.317 0.014-0.532s-5e-3 -0.392-0.014-0.532c-0.028-0.709-0.215-1.246-0.56-1.61-0.345-0.3733-0.807-0.56-1.386-0.56s-1.045 0.1867-1.4 0.56c-0.345 0.364-0.527 0.901-0.546 1.61-9e-3 0.14-0.014 0.317-0.014 0.532s5e-3 0.392 0.014 0.532c0.019 0.709 0.201 1.251 0.546 1.624 0.355 0.364 0.821 0.546 1.4 0.546zm8.825 3.598c-0.103 0-0.182-0.033-0.238-0.098-0.056-0.056-0.084-0.131-0.084-0.224v-0.476c0-0.093 0.028-0.173 0.084-0.238 0.056-0.056 0.135-0.084 0.238-0.084h0.364c0.214 0 0.387-0.042 0.518-0.126 0.13-0.084 0.247-0.229 0.35-0.434 0.112-0.196 0.242-0.467 0.392-0.812l3.038-7.21c0.028-0.0747 0.065-0.1307 0.112-0.168 0.056-0.0467 0.135-0.07 0.238-0.07h0.616c0.084 0 0.154 0.028 0.21 0.084s0.084 0.1213 0.084 0.196c0 0.0373-5e-3 0.0747-0.014 0.112-0.01 0.028-0.028 0.0747-0.056 0.14l-2.66 6.3c-0.14 0.336-0.294 0.686-0.462 1.05-0.159 0.364-0.341 0.7-0.546 1.008-0.196 0.317-0.43 0.569-0.7 0.756-0.271 0.196-0.588 0.294-0.952 0.294zm1.946-2.87-2.828-6.538c-0.047-0.112-0.07-0.1913-0.07-0.238 9e-3 -0.084 0.042-0.154 0.098-0.21s0.121-0.084 0.196-0.084h0.658c0.102 0 0.177 0.0233 0.224 0.07 0.056 0.0467 0.098 0.1027 0.126 0.168l2.324 5.558zm8.328 0.35c-0.663 0-1.237-0.126-1.722-0.378-0.476-0.261-0.845-0.63-1.106-1.106-0.262-0.485-0.402-1.064-0.42-1.736-0.01-0.14-0.014-0.327-0.014-0.56s4e-3 -0.42 0.014-0.56c0.018-0.672 0.158-1.246 0.42-1.722 0.261-0.4853 0.63-0.854 1.106-1.106 0.485-0.2613 1.059-0.392 1.722-0.392 0.541 0 1.003 0.0747 1.386 0.224 0.392 0.1493 0.714 0.3407 0.966 0.574s0.438 0.4853 0.56 0.756c0.13 0.2707 0.2 0.5273 0.21 0.77 9e-3 0.0933-0.019 0.168-0.084 0.224-0.066 0.056-0.145 0.084-0.238 0.084h-0.672c-0.094 0-0.164-0.019-0.21-0.056-0.047-0.047-0.094-0.121-0.14-0.224-0.168-0.4573-0.397-0.7793-0.686-0.966-0.29-0.1867-0.649-0.28-1.078-0.28-0.56 0-1.018 0.1727-1.372 0.518-0.346 0.3453-0.532 0.901-0.56 1.666-0.01 0.336-0.01 0.663 0 0.98 0.028 0.775 0.214 1.335 0.56 1.68 0.354 0.336 0.812 0.504 1.372 0.504 0.429 0 0.788-0.093 1.078-0.28 0.289-0.187 0.518-0.509 0.686-0.966 0.046-0.103 0.093-0.173 0.14-0.21 0.046-0.047 0.116-0.07 0.21-0.07h0.672c0.093 0 0.172 0.028 0.238 0.084 0.065 0.056 0.093 0.131 0.084 0.224-0.01 0.196-0.052 0.397-0.126 0.602-0.075 0.205-0.196 0.415-0.364 0.63-0.159 0.205-0.36 0.392-0.602 0.56-0.243 0.159-0.537 0.289-0.882 0.392-0.336 0.093-0.719 0.14-1.148 0.14zm7.01-0.14c-0.093 0-0.173-0.028-0.238-0.084-0.056-0.065-0.084-0.145-0.084-0.238v-5.838h-2.436c-0.093 0-0.173-0.028-0.238-0.084-0.056-0.0653-0.084-0.1447-0.084-0.238v-0.476c0-0.0933 0.028-0.168 0.084-0.224 0.065-0.0653 0.145-0.098 0.238-0.098h6.16c0.093 0 0.168 0.0327 0.224 0.098 0.065 0.056 0.098 0.1307 0.098 0.224v0.476c0 0.0933-0.033 0.1727-0.098 0.238-0.056 0.056-0.131 0.084-0.224 0.084h-2.436v5.838c0 0.093-0.028 0.173-0.084 0.238-0.056 0.056-0.135 0.084-0.238 0.084zm6.968 0.14c-0.466 0-0.891-0.093-1.274-0.28-0.382-0.187-0.69-0.439-0.924-0.756-0.233-0.317-0.35-0.677-0.35-1.078 0-0.644 0.262-1.157 0.784-1.54 0.523-0.383 1.204-0.635 2.044-0.756l2.086-0.294v-0.406c0-0.448-0.13-0.798-0.392-1.05-0.252-0.252-0.667-0.378-1.246-0.378-0.42 0-0.76 0.084-1.022 0.252-0.252 0.168-0.429 0.3827-0.532 0.644-0.056 0.14-0.154 0.21-0.294 0.21h-0.63c-0.102 0-0.182-0.028-0.238-0.084-0.046-0.0653-0.07-0.14-0.07-0.224 0-0.14 0.052-0.3127 0.154-0.518 0.112-0.2053 0.28-0.406 0.504-0.602s0.509-0.3593 0.854-0.49c0.355-0.14 0.784-0.21 1.288-0.21 0.56 0 1.032 0.0747 1.414 0.224 0.383 0.14 0.682 0.3313 0.896 0.574 0.224 0.2427 0.383 0.518 0.476 0.826 0.103 0.308 0.154 0.6207 0.154 0.938v4.536c0 0.093-0.032 0.173-0.098 0.238-0.056 0.056-0.13 0.084-0.224 0.084h-0.644c-0.102 0-0.182-0.028-0.238-0.084-0.056-0.065-0.084-0.145-0.084-0.238v-0.602c-0.121 0.168-0.284 0.336-0.49 0.504-0.205 0.159-0.462 0.294-0.77 0.406-0.308 0.103-0.686 0.154-1.134 0.154zm0.294-1.05c0.383 0 0.733-0.079 1.05-0.238 0.318-0.168 0.565-0.425 0.742-0.77 0.187-0.345 0.28-0.779 0.28-1.302v-0.392l-1.624 0.238c-0.662 0.093-1.162 0.252-1.498 0.476-0.336 0.215-0.504 0.49-0.504 0.826 0 0.261 0.075 0.481 0.224 0.658 0.159 0.168 0.355 0.294 0.588 0.378 0.243 0.084 0.49 0.126 0.742 0.126zm5.723 0.91c-0.094 0-0.173-0.028-0.238-0.084-0.056-0.065-0.084-0.145-0.084-0.238v-6.636c0-0.0933 0.028-0.168 0.084-0.224 0.065-0.0653 0.144-0.098 0.238-0.098h0.672c0.093 0 0.168 0.0327 0.224 0.098 0.056 0.056 0.084 0.1307 0.084 0.224v2.688h3.822v-2.688c0-0.0933 0.028-0.168 0.084-0.224 0.065-0.0653 0.144-0.098 0.238-0.098h0.658c0.093 0 0.168 0.0327 0.224 0.098 0.065 0.056 0.098 0.1307 0.098 0.224v6.636c0 0.093-0.033 0.173-0.098 0.238-0.056 0.056-0.131 0.084-0.224 0.084h-0.658c-0.094 0-0.173-0.028-0.238-0.084-0.056-0.065-0.084-0.145-0.084-0.238v-2.828h-3.822v2.828c0 0.093-0.028 0.173-0.084 0.238-0.056 0.056-0.131 0.084-0.224 0.084zm11.191 0.14c-0.709 0-1.302-0.135-1.778-0.406s-0.84-0.644-1.092-1.12c-0.252-0.485-0.392-1.036-0.42-1.652-9e-3 -0.159-0.014-0.359-0.014-0.602 0-0.252 5e-3 -0.453 0.014-0.602 0.028-0.625 0.168-1.176 0.42-1.652 0.261-0.476 0.63-0.8493 1.106-1.12s1.064-0.406 1.764-0.406 1.288 0.1353 1.764 0.406 0.84 0.644 1.092 1.12c0.261 0.476 0.406 1.027 0.434 1.652 9e-3 0.149 0.014 0.35 0.014 0.602 0 0.243-5e-3 0.443-0.014 0.602-0.028 0.616-0.168 1.167-0.42 1.652-0.252 0.476-0.616 0.849-1.092 1.12s-1.069 0.406-1.778 0.406zm0-1.078c0.579 0 1.041-0.182 1.386-0.546 0.345-0.373 0.532-0.915 0.56-1.624 9e-3 -0.14 0.014-0.317 0.014-0.532s-5e-3 -0.392-0.014-0.532c-0.028-0.709-0.215-1.246-0.56-1.61-0.345-0.3733-0.807-0.56-1.386-0.56s-1.045 0.1867-1.4 0.56c-0.345 0.364-0.527 0.901-0.546 1.61-9e-3 0.14-0.014 0.317-0.014 0.532s5e-3 0.392 0.014 0.532c0.019 0.709 0.201 1.251 0.546 1.624 0.355 0.364 0.821 0.546 1.4 0.546zm5.379 0.938c-0.093 0-0.173-0.028-0.238-0.084-0.056-0.065-0.084-0.145-0.084-0.238v-6.636c0-0.0933 0.028-0.168 0.084-0.224 0.065-0.0653 0.145-0.098 0.238-0.098h2.912c0.877 0 1.535 0.1773 1.974 0.532 0.448 0.3547 0.672 0.8307 0.672 1.428 0 0.42-0.079 0.737-0.238 0.952s-0.383 0.397-0.672 0.546c0.355 0.149 0.621 0.392 0.798 0.728 0.187 0.327 0.28 0.667 0.28 1.022 0 0.672-0.238 1.185-0.714 1.54s-1.139 0.532-1.988 0.532zm0.966-1.022h1.946c0.448 0 0.807-0.084 1.078-0.252 0.28-0.177 0.42-0.443 0.42-0.798 0-0.373-0.126-0.644-0.378-0.812-0.252-0.177-0.625-0.266-1.12-0.266h-1.946zm0-3.164h1.862c0.448 0 0.803-0.098 1.064-0.294 0.271-0.196 0.406-0.471 0.406-0.826 0-0.364-0.135-0.6113-0.406-0.742-0.261-0.14-0.616-0.21-1.064-0.21h-1.862zm6.882 4.186c-0.094 0-0.173-0.028-0.238-0.084-0.056-0.065-0.084-0.145-0.084-0.238v-6.636c0-0.0933 0.028-0.168 0.084-0.224 0.065-0.0653 0.144-0.098 0.238-0.098h0.658c0.093 0 0.168 0.0327 0.224 0.098 0.065 0.056 0.098 0.1307 0.098 0.224v2.688h1.274l1.89-2.8c0.046-0.0653 0.098-0.1167 0.154-0.154s0.13-0.056 0.224-0.056h0.728c0.084 0 0.154 0.0187 0.21 0.056s0.084 0.0933 0.084 0.168c0 0.0187-0.01 0.0467-0.028 0.084-0.01 0.028-0.024 0.056-0.042 0.084l-2.1 3.094 2.38 3.388c0.046 0.056 0.07 0.117 0.07 0.182 0 0.075-0.028 0.131-0.084 0.168-0.047 0.037-0.112 0.056-0.196 0.056h-0.854c-0.084 0-0.154-0.019-0.21-0.056s-0.108-0.089-0.154-0.154l-2.058-2.926h-1.288v2.814c0 0.093-0.033 0.173-0.098 0.238-0.056 0.056-0.131 0.084-0.224 0.084zm7.492 0c-0.084 0-0.159-0.028-0.224-0.084-0.056-0.065-0.084-0.135-0.084-0.21v-6.664c0-0.0933 0.028-0.168 0.084-0.224 0.065-0.0653 0.144-0.098 0.238-0.098h0.672c0.093 0 0.168 0.0327 0.224 0.098 0.056 0.056 0.084 0.1307 0.084 0.224v5.936l-0.364-0.378 4.242-5.67c0.046-0.056 0.098-0.1027 0.154-0.14 0.056-0.0467 0.126-0.07 0.21-0.07h0.644c0.074 0 0.14 0.028 0.196 0.084 0.065 0.056 0.098 0.1213 0.098 0.196v6.678c0 0.093-0.033 0.173-0.098 0.238-0.056 0.056-0.131 0.084-0.224 0.084h-0.658c-0.103 0-0.182-0.028-0.238-0.084-0.056-0.065-0.084-0.145-0.084-0.238v-5.586l0.392-0.014-4.27 5.712c-0.038 0.047-0.084 0.093-0.14 0.14s-0.131 0.07-0.224 0.07zm-107.52 17c-0.093 0-0.168-0.028-0.224-0.084s-0.084-0.131-0.084-0.224v-6.706c0-0.075 0.028-0.135 0.084-0.182 0.065-0.056 0.131-0.084 0.196-0.084h0.714c0.149 0 0.266 0.075 0.35 0.224l2.38 4.452 2.394-4.452c0.084-0.149 0.201-0.224 0.35-0.224h0.7c0.075 0 0.14 0.028 0.196 0.084 0.056 0.047 0.084 0.107 0.084 0.182v6.706c0 0.093-0.028 0.168-0.084 0.224s-0.126 0.084-0.21 0.084h-0.686c-0.093 0-0.168-0.028-0.224-0.084s-0.084-0.131-0.084-0.224v-5.586l0.49 0.056-2.282 4.312c-0.047 0.093-0.103 0.177-0.168 0.252s-0.163 0.112-0.294 0.112h-0.364c-0.121 0-0.215-0.037-0.28-0.112s-0.126-0.159-0.182-0.252l-2.212-4.102 0.434-0.042v5.362c0 0.093-0.028 0.168-0.084 0.224s-0.131 0.084-0.224 0.084zm12.217 0.14c-0.709 0-1.302-0.135-1.778-0.406s-0.84-0.644-1.092-1.12c-0.252-0.485-0.392-1.036-0.42-1.652-9e-3 -0.159-0.014-0.359-0.014-0.602 0-0.252 5e-3 -0.453 0.014-0.602 0.028-0.625 0.168-1.176 0.42-1.652 0.261-0.476 0.63-0.849 1.106-1.12s1.064-0.406 1.764-0.406 1.288 0.135 1.764 0.406 0.84 0.644 1.092 1.12c0.261 0.476 0.406 1.027 0.434 1.652 9e-3 0.149 0.014 0.35 0.014 0.602 0 0.243-5e-3 0.443-0.014 0.602-0.028 0.616-0.168 1.167-0.42 1.652-0.252 0.476-0.616 0.849-1.092 1.12s-1.069 0.406-1.778 0.406zm0-1.078c0.579 0 1.041-0.182 1.386-0.546 0.345-0.373 0.532-0.915 0.56-1.624 9e-3 -0.14 0.014-0.317 0.014-0.532s-5e-3 -0.392-0.014-0.532c-0.028-0.709-0.215-1.246-0.56-1.61-0.345-0.373-0.807-0.56-1.386-0.56s-1.045 0.187-1.4 0.56c-0.345 0.364-0.527 0.901-0.546 1.61-9e-3 0.14-0.014 0.317-0.014 0.532s5e-3 0.392 0.014 0.532c0.019 0.709 0.201 1.251 0.546 1.624 0.355 0.364 0.821 0.546 1.4 0.546zm4.707 0.938c-0.093 0-0.173-0.033-0.238-0.098s-0.098-0.145-0.098-0.238v-0.518c0-0.196 0.098-0.299 0.294-0.308 0.289-9e-3 0.532-0.145 0.728-0.406 0.196-0.271 0.345-0.695 0.448-1.274 0.103-0.588 0.154-1.363 0.154-2.324v-1.792c0-0.093 0.028-0.168 0.084-0.224 0.065-0.065 0.145-0.098 0.238-0.098h4.452c0.093 0 0.168 0.033 0.224 0.098 0.065 0.056 0.098 0.131 0.098 0.224v6.636c0 0.093-0.033 0.173-0.098 0.238-0.056 0.056-0.131 0.084-0.224 0.084h-0.672c-0.093 0-0.168-0.028-0.224-0.084-0.056-0.065-0.084-0.145-0.084-0.238v-5.838h-2.52v1.148c0 0.896-0.051 1.666-0.154 2.31-0.103 0.635-0.261 1.153-0.476 1.554-0.205 0.392-0.471 0.681-0.798 0.868-0.317 0.187-0.695 0.28-1.134 0.28zm8.793 0c-0.093 0-0.173-0.028-0.238-0.084-0.056-0.065-0.084-0.145-0.084-0.238v-6.636c0-0.093 0.028-0.168 0.084-0.224 0.065-0.065 0.145-0.098 0.238-0.098h0.672c0.093 0 0.168 0.033 0.224 0.098 0.056 0.056 0.084 0.131 0.084 0.224v2.688h3.822v-2.688c0-0.093 0.028-0.168 0.084-0.224 0.065-0.065 0.145-0.098 0.238-0.098h0.658c0.093 0 0.168 0.033 0.224 0.098 0.065 0.056 0.098 0.131 0.098 0.224v6.636c0 0.093-0.033 0.173-0.098 0.238-0.056 0.056-0.131 0.084-0.224 0.084h-0.658c-0.093 0-0.173-0.028-0.238-0.084-0.056-0.065-0.084-0.145-0.084-0.238v-2.828h-3.822v2.828c0 0.093-0.028 0.173-0.084 0.238-0.056 0.056-0.131 0.084-0.224 0.084zm8.517 0c-0.084 0-0.158-0.028-0.224-0.084-0.056-0.065-0.084-0.135-0.084-0.21v-6.664c0-0.093 0.028-0.168 0.084-0.224 0.066-0.065 0.145-0.098 0.238-0.098h0.672c0.094 0 0.168 0.033 0.224 0.098 0.056 0.056 0.084 0.131 0.084 0.224v5.936l-0.364-0.378 4.242-5.67c0.047-0.056 0.098-0.103 0.154-0.14 0.056-0.047 0.126-0.07 0.21-0.07h0.644c0.075 0 0.14 0.028 0.196 0.084 0.066 0.056 0.098 0.121 0.098 0.196v6.678c0 0.093-0.032 0.173-0.098 0.238-0.056 0.056-0.13 0.084-0.224 0.084h-0.658c-0.102 0-0.182-0.028-0.238-0.084-0.056-0.065-0.084-0.145-0.084-0.238v-5.586l0.392-0.014-4.27 5.712c-0.037 0.047-0.084 0.093-0.14 0.14s-0.13 0.07-0.224 0.07zm11.122 0.14c-0.962 0-1.727-0.294-2.296-0.882-0.57-0.597-0.882-1.409-0.938-2.436-0.01-0.121-0.014-0.275-0.014-0.462 0-0.196 4e-3 -0.355 0.014-0.476 0.037-0.663 0.191-1.241 0.462-1.736 0.27-0.504 0.639-0.891 1.106-1.162 0.476-0.271 1.031-0.406 1.666-0.406 0.709 0 1.302 0.149 1.778 0.448 0.485 0.299 0.854 0.723 1.106 1.274s0.378 1.195 0.378 1.932v0.238c0 0.103-0.033 0.182-0.098 0.238-0.056 0.056-0.131 0.084-0.224 0.084h-4.844v0.056 0.07c0.018 0.383 0.102 0.742 0.252 1.078 0.149 0.327 0.364 0.593 0.644 0.798s0.616 0.308 1.008 0.308c0.336 0 0.616-0.051 0.84-0.154s0.406-0.215 0.546-0.336c0.14-0.131 0.233-0.229 0.28-0.294 0.084-0.121 0.149-0.191 0.196-0.21 0.046-0.028 0.121-0.042 0.224-0.042h0.672c0.093 0 0.168 0.028 0.224 0.084 0.065 0.047 0.093 0.117 0.084 0.21-0.01 0.14-0.084 0.313-0.224 0.518-0.14 0.196-0.341 0.392-0.602 0.588-0.262 0.196-0.579 0.359-0.952 0.49-0.374 0.121-0.803 0.182-1.288 0.182zm-1.904-4.312h3.836v-0.042c0-0.42-0.08-0.793-0.238-1.12-0.15-0.327-0.369-0.583-0.658-0.77-0.29-0.196-0.635-0.294-1.036-0.294-0.402 0-0.747 0.098-1.036 0.294-0.28 0.187-0.495 0.443-0.644 0.77-0.15 0.327-0.224 0.7-0.224 1.12zm7.162 4.172c-0.094 0-0.173-0.028-0.238-0.084-0.056-0.065-0.084-0.145-0.084-0.238v-6.636c0-0.093 0.028-0.168 0.084-0.224 0.065-0.065 0.144-0.098 0.238-0.098h5.558c0.093 0 0.168 0.033 0.224 0.098 0.065 0.056 0.098 0.131 0.098 0.224v6.636c0 0.093-0.033 0.173-0.098 0.238-0.056 0.056-0.131 0.084-0.224 0.084h-0.672c-0.094 0-0.168-0.028-0.224-0.084-0.056-0.065-0.084-0.145-0.084-0.238v-5.838h-3.598v5.838c0 0.093-0.028 0.173-0.084 0.238-0.056 0.056-0.131 0.084-0.224 0.084zm8.299 2.66c-0.094 0-0.173-0.033-0.238-0.098-0.056-0.056-0.084-0.131-0.084-0.224v-9.296c0-0.093 0.028-0.168 0.084-0.224 0.065-0.065 0.144-0.098 0.238-0.098h0.644c0.093 0 0.168 0.033 0.224 0.098 0.065 0.056 0.098 0.131 0.098 0.224v0.616c0.224-0.308 0.522-0.565 0.896-0.77 0.373-0.205 0.84-0.308 1.4-0.308 0.522 0 0.966 0.089 1.33 0.266 0.373 0.177 0.676 0.42 0.91 0.728 0.242 0.308 0.424 0.658 0.546 1.05 0.121 0.392 0.186 0.812 0.196 1.26 9e-3 0.149 0.014 0.308 0.014 0.476s-5e-3 0.327-0.014 0.476c-0.01 0.439-0.075 0.859-0.196 1.26-0.122 0.392-0.304 0.742-0.546 1.05-0.234 0.299-0.537 0.541-0.91 0.728-0.364 0.177-0.808 0.266-1.33 0.266-0.542 0-0.999-0.098-1.372-0.294-0.364-0.205-0.663-0.457-0.896-0.756v3.248c0 0.093-0.028 0.168-0.084 0.224-0.056 0.065-0.136 0.098-0.238 0.098zm2.968-3.654c0.485 0 0.863-0.103 1.134-0.308 0.28-0.215 0.48-0.49 0.602-0.826 0.121-0.345 0.191-0.714 0.21-1.106 9e-3 -0.271 9e-3 -0.541 0-0.812-0.019-0.392-0.089-0.756-0.21-1.092-0.122-0.345-0.322-0.621-0.602-0.826-0.271-0.215-0.649-0.322-1.134-0.322-0.458 0-0.831 0.107-1.12 0.322-0.28 0.215-0.49 0.49-0.63 0.826-0.131 0.327-0.206 0.663-0.224 1.008-0.01 0.149-0.014 0.327-0.014 0.532s4e-3 0.387 0.014 0.546c9e-3 0.327 0.084 0.649 0.224 0.966 0.149 0.317 0.368 0.579 0.658 0.784 0.289 0.205 0.653 0.308 1.092 0.308zm5.344 0.994c-0.084 0-0.159-0.028-0.224-0.084-0.056-0.065-0.084-0.135-0.084-0.21v-6.664c0-0.093 0.028-0.168 0.084-0.224 0.065-0.065 0.144-0.098 0.238-0.098h0.672c0.093 0 0.168 0.033 0.224 0.098 0.056 0.056 0.084 0.131 0.084 0.224v5.936l-0.364-0.378 4.242-5.67c0.046-0.056 0.098-0.103 0.154-0.14 0.056-0.047 0.126-0.07 0.21-0.07h0.644c0.074 0 0.14 0.028 0.196 0.084 0.065 0.056 0.098 0.121 0.098 0.196v6.678c0 0.093-0.033 0.173-0.098 0.238-0.056 0.056-0.131 0.084-0.224 0.084h-0.658c-0.103 0-0.182-0.028-0.238-0.084-0.056-0.065-0.084-0.145-0.084-0.238v-5.586l0.392-0.014-4.27 5.712c-0.038 0.047-0.084 0.093-0.14 0.14s-0.131 0.07-0.224 0.07zm11.121 0.14c-0.961 0-1.727-0.294-2.296-0.882-0.569-0.597-0.882-1.409-0.938-2.436-9e-3 -0.121-0.014-0.275-0.014-0.462 0-0.196 5e-3 -0.355 0.014-0.476 0.037-0.663 0.191-1.241 0.462-1.736 0.271-0.504 0.639-0.891 1.106-1.162 0.476-0.271 1.031-0.406 1.666-0.406 0.709 0 1.302 0.149 1.778 0.448 0.485 0.299 0.854 0.723 1.106 1.274s0.378 1.195 0.378 1.932v0.238c0 0.103-0.033 0.182-0.098 0.238-0.056 0.056-0.131 0.084-0.224 0.084h-4.844v0.056 0.07c0.019 0.383 0.103 0.742 0.252 1.078 0.149 0.327 0.364 0.593 0.644 0.798s0.616 0.308 1.008 0.308c0.336 0 0.616-0.051 0.84-0.154s0.406-0.215 0.546-0.336c0.14-0.131 0.233-0.229 0.28-0.294 0.084-0.121 0.149-0.191 0.196-0.21 0.047-0.028 0.121-0.042 0.224-0.042h0.672c0.093 0 0.168 0.028 0.224 0.084 0.065 0.047 0.093 0.117 0.084 0.21-9e-3 0.14-0.084 0.313-0.224 0.518-0.14 0.196-0.341 0.392-0.602 0.588s-0.579 0.359-0.952 0.49c-0.373 0.121-0.803 0.182-1.288 0.182zm-1.904-4.312h3.836v-0.042c0-0.42-0.079-0.793-0.238-1.12-0.149-0.327-0.369-0.583-0.658-0.77-0.289-0.196-0.635-0.294-1.036-0.294s-0.747 0.098-1.036 0.294c-0.28 0.187-0.495 0.443-0.644 0.77s-0.224 0.7-0.224 1.12zm7.148 4.172c-0.093 0-0.168-0.028-0.224-0.084s-0.084-0.131-0.084-0.224v-6.706c0-0.075 0.028-0.135 0.084-0.182 0.065-0.056 0.131-0.084 0.196-0.084h0.714c0.149 0 0.266 0.075 0.35 0.224l2.38 4.452 2.394-4.452c0.084-0.149 0.201-0.224 0.35-0.224h0.7c0.075 0 0.14 0.028 0.196 0.084 0.056 0.047 0.084 0.107 0.084 0.182v6.706c0 0.093-0.028 0.168-0.084 0.224s-0.126 0.084-0.21 0.084h-0.686c-0.093 0-0.168-0.028-0.224-0.084s-0.084-0.131-0.084-0.224v-5.586l0.49 0.056-2.282 4.312c-0.047 0.093-0.103 0.177-0.168 0.252s-0.163 0.112-0.294 0.112h-0.364c-0.121 0-0.215-0.037-0.28-0.112s-0.126-0.159-0.182-0.252l-2.212-4.102 0.434-0.042v5.362c0 0.093-0.028 0.168-0.084 0.224s-0.131 0.084-0.224 0.084zm9.557 0c-0.094 0-0.173-0.028-0.238-0.084-0.056-0.065-0.084-0.145-0.084-0.238v-6.636c0-0.093 0.028-0.168 0.084-0.224 0.065-0.065 0.144-0.098 0.238-0.098h0.672c0.093 0 0.168 0.033 0.224 0.098 0.056 0.056 0.084 0.131 0.084 0.224v2.688h3.822v-2.688c0-0.093 0.028-0.168 0.084-0.224 0.065-0.065 0.144-0.098 0.238-0.098h0.658c0.093 0 0.168 0.033 0.224 0.098 0.065 0.056 0.098 0.131 0.098 0.224v6.636c0 0.093-0.033 0.173-0.098 0.238-0.056 0.056-0.131 0.084-0.224 0.084h-0.658c-0.094 0-0.173-0.028-0.238-0.084-0.056-0.065-0.084-0.145-0.084-0.238v-2.828h-3.822v2.828c0 0.093-0.028 0.173-0.084 0.238-0.056 0.056-0.131 0.084-0.224 0.084zm8.517 0c-0.084 0-0.159-0.028-0.224-0.084-0.056-0.065-0.084-0.135-0.084-0.21v-6.664c0-0.093 0.028-0.168 0.084-0.224 0.065-0.065 0.145-0.098 0.238-0.098h0.672c0.093 0 0.168 0.033 0.224 0.098 0.056 0.056 0.084 0.131 0.084 0.224v5.936l-0.364-0.378 4.242-5.67c0.047-0.056 0.098-0.103 0.154-0.14 0.056-0.047 0.126-0.07 0.21-0.07h0.644c0.075 0 0.14 0.028 0.196 0.084 0.065 0.056 0.098 0.121 0.098 0.196v6.678c0 0.093-0.033 0.173-0.098 0.238-0.056 0.056-0.131 0.084-0.224 0.084h-0.658c-0.103 0-0.182-0.028-0.238-0.084-0.056-0.065-0.084-0.145-0.084-0.238v-5.586l0.392-0.014-4.27 5.712c-0.037 0.047-0.084 0.093-0.14 0.14s-0.131 0.07-0.224 0.07zm8.545 0c-0.093 0-0.172-0.028-0.238-0.084-0.056-0.065-0.084-0.145-0.084-0.238v-6.636c0-0.093 0.028-0.168 0.084-0.224 0.066-0.065 0.145-0.098 0.238-0.098h0.658c0.094 0 0.168 0.033 0.224 0.098 0.066 0.056 0.098 0.131 0.098 0.224v2.688h1.274l1.89-2.8c0.047-0.065 0.098-0.117 0.154-0.154s0.131-0.056 0.224-0.056h0.728c0.084 0 0.154 0.019 0.21 0.056s0.084 0.093 0.084 0.168c0 0.019-9e-3 0.047-0.028 0.084-9e-3 0.028-0.023 0.056-0.042 0.084l-2.1 3.094 2.38 3.388c0.047 0.056 0.07 0.117 0.07 0.182 0 0.075-0.028 0.131-0.084 0.168-0.046 0.037-0.112 0.056-0.196 0.056h-0.854c-0.084 0-0.154-0.019-0.21-0.056s-0.107-0.089-0.154-0.154l-2.058-2.926h-1.288v2.814c0 0.093-0.032 0.173-0.098 0.238-0.056 0.056-0.13 0.084-0.224 0.084zm9.214 0.14c-0.466 0-0.891-0.093-1.274-0.28-0.382-0.187-0.69-0.439-0.924-0.756-0.233-0.317-0.35-0.677-0.35-1.078 0-0.644 0.262-1.157 0.784-1.54 0.523-0.383 1.204-0.635 2.044-0.756l2.086-0.294v-0.406c0-0.448-0.13-0.798-0.392-1.05-0.252-0.252-0.667-0.378-1.246-0.378-0.42 0-0.76 0.084-1.022 0.252-0.252 0.168-0.429 0.383-0.532 0.644-0.056 0.14-0.154 0.21-0.294 0.21h-0.63c-0.102 0-0.182-0.028-0.238-0.084-0.046-0.065-0.07-0.14-0.07-0.224 0-0.14 0.052-0.313 0.154-0.518 0.112-0.205 0.28-0.406 0.504-0.602s0.509-0.359 0.854-0.49c0.355-0.14 0.784-0.21 1.288-0.21 0.56 0 1.032 0.075 1.414 0.224 0.383 0.14 0.682 0.331 0.896 0.574 0.224 0.243 0.383 0.518 0.476 0.826 0.103 0.308 0.154 0.621 0.154 0.938v4.536c0 0.093-0.032 0.173-0.098 0.238-0.056 0.056-0.13 0.084-0.224 0.084h-0.644c-0.102 0-0.182-0.028-0.238-0.084-0.056-0.065-0.084-0.145-0.084-0.238v-0.602c-0.121 0.168-0.284 0.336-0.49 0.504-0.205 0.159-0.462 0.294-0.77 0.406-0.308 0.103-0.686 0.154-1.134 0.154zm0.294-1.05c0.383 0 0.733-0.079 1.05-0.238 0.318-0.168 0.565-0.425 0.742-0.77 0.187-0.345 0.28-0.779 0.28-1.302v-0.392l-1.624 0.238c-0.662 0.093-1.162 0.252-1.498 0.476-0.336 0.215-0.504 0.49-0.504 0.826 0 0.261 0.075 0.481 0.224 0.658 0.159 0.168 0.355 0.294 0.588 0.378 0.243 0.084 0.49 0.126 0.742 0.126z"/><path d="m530 149.19c0 0.103-0.028 0.182-0.084 0.238-0.065 0.056-0.145 0.084-0.238 0.084h-9.156c-0.093 0-0.168-0.028-0.224-0.084-0.065-0.056-0.098-0.135-0.098-0.238v-0.714c0-0.102 0.033-0.182 0.098-0.238 0.056-0.065 0.131-0.098 0.224-0.098h8.218v-3.43h-8.218c-0.093 0-0.168-0.028-0.224-0.084-0.065-0.065-0.098-0.144-0.098-0.238v-0.714c0-0.102 0.033-0.182 0.098-0.238 0.056-0.065 0.131-0.098 0.224-0.098h8.218v-3.43h-8.218c-0.093 0-0.168-0.028-0.224-0.084-0.065-0.065-0.098-0.144-0.098-0.238v-0.714c0-0.102 0.033-0.182 0.098-0.238 0.056-0.065 0.131-0.098 0.224-0.098h9.156c0.093 0 0.173 0.033 0.238 0.098 0.056 0.056 0.084 0.136 0.084 0.238zm0-13.216c0 0.084-0.028 0.159-0.084 0.224-0.065 0.056-0.135 0.084-0.21 0.084h-6.664c-0.093 0-0.168-0.028-0.224-0.084-0.065-0.065-0.098-0.144-0.098-0.238v-0.672c0-0.093 0.033-0.168 0.098-0.224 0.056-0.056 0.131-0.084 0.224-0.084h5.936l-0.378 0.364-5.67-4.242c-0.056-0.046-0.103-0.098-0.14-0.154-0.047-0.056-0.07-0.126-0.07-0.21v-0.644c0-0.074 0.028-0.14 0.084-0.196 0.056-0.065 0.121-0.098 0.196-0.098h6.678c0.093 0 0.173 0.033 0.238 0.098 0.056 0.056 0.084 0.131 0.084 0.224v0.658c0 0.103-0.028 0.182-0.084 0.238-0.065 0.056-0.145 0.084-0.238 0.084h-5.586l-0.014-0.392 5.712 4.27c0.047 0.038 0.093 0.084 0.14 0.14s0.07 0.131 0.07 0.224zm2.66-8.559c0 0.093-0.033 0.173-0.098 0.238-0.056 0.056-0.131 0.084-0.224 0.084h-9.296c-0.093 0-0.168-0.028-0.224-0.084-0.065-0.065-0.098-0.145-0.098-0.238v-0.644c0-0.093 0.033-0.168 0.098-0.224 0.056-0.065 0.131-0.098 0.224-0.098h0.616c-0.308-0.224-0.565-0.523-0.77-0.896s-0.308-0.84-0.308-1.4c0-0.523 0.089-0.966 0.266-1.33 0.177-0.373 0.42-0.677 0.728-0.91 0.308-0.243 0.658-0.425 1.05-0.546s0.812-0.187 1.26-0.196c0.149-9e-3 0.308-0.014 0.476-0.014s0.327 5e-3 0.476 0.014c0.439 9e-3 0.859 0.075 1.26 0.196 0.392 0.121 0.742 0.303 1.05 0.546 0.299 0.233 0.541 0.537 0.728 0.91 0.177 0.364 0.266 0.807 0.266 1.33 0 0.541-0.098 0.999-0.294 1.372-0.205 0.364-0.457 0.663-0.756 0.896h3.248c0.093 0 0.168 0.028 0.224 0.084 0.065 0.056 0.098 0.135 0.098 0.238zm-3.654-2.968c0-0.485-0.103-0.863-0.308-1.134-0.215-0.28-0.49-0.481-0.826-0.602-0.345-0.121-0.714-0.191-1.106-0.21-0.271-9e-3 -0.541-9e-3 -0.812 0-0.392 0.019-0.756 0.089-1.092 0.21-0.345 0.121-0.621 0.322-0.826 0.602-0.215 0.271-0.322 0.649-0.322 1.134 0 0.457 0.107 0.831 0.322 1.12 0.215 0.28 0.49 0.49 0.826 0.63 0.327 0.131 0.663 0.205 1.008 0.224 0.149 9e-3 0.327 0.014 0.532 0.014s0.387-5e-3 0.546-0.014c0.327-9e-3 0.649-0.084 0.966-0.224 0.317-0.149 0.579-0.369 0.784-0.658s0.308-0.653 0.308-1.092zm0.994-5.344c0 0.084-0.028 0.159-0.084 0.224-0.065 0.056-0.135 0.084-0.21 0.084h-6.664c-0.093 0-0.168-0.028-0.224-0.084-0.065-0.065-0.098-0.144-0.098-0.238v-0.672c0-0.093 0.033-0.168 0.098-0.224 0.056-0.056 0.131-0.084 0.224-0.084h5.936l-0.378 0.364-5.67-4.242c-0.056-0.046-0.103-0.098-0.14-0.154-0.047-0.056-0.07-0.126-0.07-0.21v-0.644c0-0.074 0.028-0.14 0.084-0.196 0.056-0.065 0.121-0.098 0.196-0.098h6.678c0.093 0 0.173 0.033 0.238 0.098 0.056 0.056 0.084 0.131 0.084 0.224v0.658c0 0.103-0.028 0.182-0.084 0.238-0.065 0.056-0.145 0.084-0.238 0.084h-5.586l-0.014-0.392 5.712 4.27c0.047 0.038 0.093 0.084 0.14 0.14s0.07 0.131 0.07 0.224zm0-8.545c0 0.093-0.028 0.173-0.084 0.238-0.065 0.056-0.145 0.084-0.238 0.084h-6.636c-0.093 0-0.168-0.028-0.224-0.084-0.065-0.065-0.098-0.145-0.098-0.238v-0.672c0-0.093 0.033-0.168 0.098-0.224 0.056-0.056 0.131-0.084 0.224-0.084h2.688v-3.822h-2.688c-0.093 0-0.168-0.028-0.224-0.084-0.065-0.065-0.098-0.145-0.098-0.238v-0.658c0-0.093 0.033-0.168 0.098-0.224 0.056-0.065 0.131-0.098 0.224-0.098h6.636c0.093 0 0.173 0.033 0.238 0.098 0.056 0.056 0.084 0.131 0.084 0.224v0.658c0 0.093-0.028 0.173-0.084 0.238-0.065 0.056-0.145 0.084-0.238 0.084h-2.828v3.822h2.828c0.093 0 0.173 0.028 0.238 0.084 0.056 0.056 0.084 0.131 0.084 0.224zm0.14-10.239c0 0.466-0.093 0.891-0.28 1.274-0.187 0.382-0.439 0.69-0.756 0.924-0.317 0.233-0.677 0.35-1.078 0.35-0.644 0-1.157-0.262-1.54-0.784-0.383-0.523-0.635-1.204-0.756-2.044l-0.294-2.0863h-0.406c-0.448 0-0.798 0.1307-1.05 0.392-0.252 0.252-0.378 0.6674-0.378 1.246 0 0.4203 0.084 0.7603 0.252 1.0223 0.168 0.252 0.383 0.429 0.644 0.532 0.14 0.056 0.21 0.154 0.21 0.294v0.63c0 0.102-0.028 0.182-0.084 0.238-0.065 0.046-0.14 0.07-0.224 0.07-0.14 0-0.313-0.052-0.518-0.154-0.205-0.112-0.406-0.28-0.602-0.504s-0.359-0.509-0.49-0.854c-0.14-0.355-0.21-0.784-0.21-1.2883 0-0.56 0.075-1.0313 0.224-1.414 0.14-0.3826 0.331-0.6813 0.574-0.896 0.243-0.224 0.518-0.3826 0.826-0.476 0.308-0.1026 0.621-0.154 0.938-0.154h4.536c0.093 0 0.173 0.0327 0.238 0.098 0.056 0.056 0.084 0.1307 0.084 0.224v0.644c0 0.1027-0.028 0.182-0.084 0.238-0.065 0.056-0.145 0.084-0.238 0.084h-0.602c0.168 0.1214 0.336 0.2847 0.504 0.49 0.159 0.2054 0.294 0.462 0.406 0.77 0.103 0.308 0.154 0.686 0.154 1.1343zm-1.05-0.294c0-0.3829-0.079-0.7329-0.238-1.0503-0.168-0.3173-0.425-0.5646-0.77-0.742-0.345-0.1866-0.779-0.28-1.302-0.28h-0.392l0.238 1.624c0.093 0.6623 0.252 1.1623 0.476 1.4983 0.215 0.336 0.49 0.504 0.826 0.504 0.261 0 0.481-0.075 0.658-0.224 0.168-0.159 0.294-0.355 0.378-0.588 0.084-0.243 0.126-0.49 0.126-0.742zm1.05-11.366c0 0.5507-0.065 1.0173-0.196 1.4-0.14 0.3733-0.313 0.6767-0.518 0.91-0.215 0.224-0.434 0.3873-0.658 0.49-0.233 0.1027-0.448 0.1587-0.644 0.168-0.084 0-0.149-0.028-0.196-0.084-0.056-0.056-0.084-0.1213-0.084-0.196v-0.658c0-0.084 0.023-0.154 0.07-0.21 0.037-0.056 0.107-0.098 0.21-0.126 0.355-0.112 0.602-0.3267 0.742-0.644s0.21-0.7047 0.21-1.162c0-0.2987-0.037-0.574-0.112-0.826-0.084-0.252-0.215-0.448-0.392-0.588-0.177-0.1493-0.397-0.224-0.658-0.224-0.383 0-0.672 0.112-0.868 0.336-0.196 0.2147-0.294 0.5507-0.294 1.008v0.77c0 0.0933-0.028 0.168-0.084 0.224s-0.131 0.084-0.224 0.084h-0.378c-0.084 0-0.154-0.028-0.21-0.084-0.065-0.056-0.098-0.1307-0.098-0.224v-0.686c0-0.3827-0.075-0.6767-0.224-0.882s-0.387-0.308-0.714-0.308c-0.196 0-0.383 0.0467-0.56 0.14s-0.322 0.252-0.434 0.476c-0.121 0.2147-0.182 0.5133-0.182 0.896 0 0.5413 0.093 0.924 0.28 1.148 0.177 0.2147 0.443 0.3687 0.798 0.462 0.103 0.0373 0.173 0.084 0.21 0.14 0.037 0.0467 0.056 0.1167 0.056 0.21v0.63c0 0.084-0.023 0.154-0.07 0.21s-0.112 0.084-0.196 0.084c-0.28-0.0093-0.546-0.07-0.798-0.182-0.252-0.1213-0.481-0.2987-0.686-0.532-0.205-0.2427-0.364-0.5413-0.476-0.896-0.121-0.364-0.182-0.7887-0.182-1.274 0-0.7 0.107-1.2507 0.322-1.652 0.215-0.4107 0.481-0.7 0.798-0.868 0.308-0.1773 0.616-0.266 0.924-0.266 0.364 0 0.667 0.0607 0.91 0.182 0.243 0.112 0.448 0.336 0.616 0.672 0.159-0.42 0.397-0.7093 0.714-0.868s0.686-0.2427 1.106-0.252c0.485-0.0093 0.887 0.1213 1.204 0.392 0.317 0.2613 0.56 0.6207 0.728 1.078 0.159 0.4573 0.238 0.9847 0.238 1.582zm1.4-4.2101c0 0.0934-0.033 0.1727-0.098 0.238-0.056 0.056-0.131 0.084-0.224 0.084h-2.016c-0.093 0-0.168-0.028-0.224-0.084-0.065-0.0653-0.098-0.1446-0.098-0.238v-0.07c-9e-3 -0.252-0.149-0.4666-0.42-0.644-0.28-0.1773-0.714-0.3126-1.302-0.406-0.597-0.0933-1.372-0.14-2.324-0.14h-1.792c-0.093 0-0.168-0.028-0.224-0.084-0.065-0.0653-0.098-0.1446-0.098-0.238v-4.466c0-0.0933 0.033-0.168 0.098-0.224 0.056-0.0653 0.131-0.098 0.224-0.098h5.81v-0.658c0-0.1026 0.033-0.182 0.098-0.238 0.056-0.056 0.131-0.084 0.224-0.084h2.044c0.093 0 0.168 0.028 0.224 0.084 0.065 0.056 0.098 0.1354 0.098 0.238v0.658c0 0.0934-0.033 0.1727-0.098 0.238-0.056 0.056-0.131 0.084-0.224 0.084h-1.218v5.068h1.218c0.093 0 0.168 0.0327 0.224 0.098 0.065 0.056 0.098 0.1307 0.098 0.224zm-2.66-1.736-0.028-3.332h-5.012v2.534h1.148c0.989 0 1.801 0.07 2.436 0.21 0.625 0.14 1.111 0.336 1.456 0.588zm1.26-9.1085c0 0.4667-0.093 0.8913-0.28 1.274s-0.439 0.6907-0.756 0.924-0.677 0.35-1.078 0.35c-0.644 0-1.157-0.2613-1.54-0.784s-0.635-1.204-0.756-2.044l-0.294-2.086h-0.406c-0.448 0-0.798 0.1307-1.05 0.392-0.252 0.252-0.378 0.6673-0.378 1.246 0 0.42 0.084 0.7607 0.252 1.022 0.168 0.252 0.383 0.4293 0.644 0.532 0.14 0.056 0.21 0.154 0.21 0.294v0.63c0 0.1027-0.028 0.182-0.084 0.238-0.065 0.0467-0.14 0.07-0.224 0.07-0.14 0-0.313-0.0513-0.518-0.154-0.205-0.112-0.406-0.28-0.602-0.504s-0.359-0.5087-0.49-0.854c-0.14-0.3547-0.21-0.784-0.21-1.288 0-0.56 0.075-1.0313 0.224-1.414 0.14-0.3827 0.331-0.6813 0.574-0.896 0.243-0.224 0.518-0.3827 0.826-0.476 0.308-0.1027 0.621-0.154 0.938-0.154h4.536c0.093 0 0.173 0.0327 0.238 0.098 0.056 0.056 0.084 0.1307 0.084 0.224v0.644c0 0.1027-0.028 0.182-0.084 0.238-0.065 0.056-0.145 0.084-0.238 0.084h-0.602c0.168 0.1213 0.336 0.2847 0.504 0.49 0.159 0.2053 0.294 0.462 0.406 0.77 0.103 0.308 0.154 0.686 0.154 1.134zm-1.05-0.294c0-0.3827-0.079-0.7327-0.238-1.05-0.168-0.3173-0.425-0.5647-0.77-0.742-0.345-0.1867-0.779-0.28-1.302-0.28h-0.392l0.238 1.624c0.093 0.6627 0.252 1.162 0.476 1.498 0.215 0.336 0.49 0.504 0.826 0.504 0.261 0 0.481-0.0747 0.658-0.224 0.168-0.1587 0.294-0.3547 0.378-0.588 0.084-0.2427 0.126-0.49 0.126-0.742zm0.91-5.7226c0 0.0933-0.028 0.1727-0.084 0.238-0.065 0.056-0.145 0.084-0.238 0.084h-6.636c-0.093 0-0.168-0.028-0.224-0.084-0.065-0.0653-0.098-0.1447-0.098-0.238v-0.672c0-0.0933 0.033-0.168 0.098-0.224 0.056-0.056 0.131-0.084 0.224-0.084h2.688v-3.822h-2.688c-0.093 0-0.168-0.028-0.224-0.084-0.065-0.0653-0.098-0.1447-0.098-0.238v-0.658c0-0.0933 0.033-0.168 0.098-0.224 0.056-0.0653 0.131-0.098 0.224-0.098h6.636c0.093 0 0.173 0.0327 0.238 0.098 0.056 0.056 0.084 0.1307 0.084 0.224v0.658c0 0.0933-0.028 0.1727-0.084 0.238-0.065 0.056-0.145 0.084-0.238 0.084h-2.828v3.822h2.828c0.093 0 0.173 0.028 0.238 0.084 0.056 0.056 0.084 0.1307 0.084 0.224zm0-8.5173c0 0.084-0.028 0.1587-0.084 0.224-0.065 0.056-0.135 0.084-0.21 0.084h-6.664c-0.093 0-0.168-0.028-0.224-0.084-0.065-0.0653-0.098-0.1446-0.098-0.238v-0.672c0-0.0933 0.033-0.168 0.098-0.224 0.056-0.056 0.131-0.084 0.224-0.084h5.936l-0.378 0.364-5.67-4.242c-0.056-0.0466-0.103-0.098-0.14-0.154-0.047-0.056-0.07-0.126-0.07-0.21v-0.644c0-0.0746 0.028-0.14 0.084-0.196 0.056-0.0653 0.121-0.098 0.196-0.098h6.678c0.093 0 0.173 0.0327 0.238 0.098 0.056 0.056 0.084 0.1307 0.084 0.224v0.658c0 0.1027-0.028 0.182-0.084 0.238-0.065 0.056-0.145 0.084-0.238 0.084h-5.586l-0.014-0.392 5.712 4.27c0.047 0.0374 0.093 0.084 0.14 0.14s0.07 0.1307 0.07 0.224zm0-12.759c0 0.1027-0.028 0.182-0.084 0.238-0.065 0.056-0.145 0.084-0.238 0.084h-2.282v1.61h-0.07c0 0.8773-0.215 1.5307-0.644 1.96-0.439 0.42-0.994 0.63-1.666 0.63-0.784 0-1.363-0.2287-1.736-0.686-0.373-0.4667-0.56-1.1667-0.56-2.1v-2.408c0-0.0933 0.033-0.168 0.098-0.224 0.056-0.0653 0.131-0.098 0.224-0.098h6.636c0.093 0 0.173 0.0327 0.238 0.098 0.056 0.056 0.084 0.1307 0.084 0.224zm0 4.438c0 0.084-0.028 0.154-0.084 0.21s-0.121 0.084-0.196 0.084c-0.037 0-0.075-0.0047-0.112-0.014-0.047-0.0187-0.093-0.0467-0.14-0.084l-2.464-1.666 0.098-1.344 2.688 1.778c0.047 0.0373 0.093 0.0887 0.14 0.154s0.07 0.1353 0.07 0.21zm-3.654-2.548v-1.582h-2.576v1.47c0 0.5227 0.093 0.91 0.28 1.162 0.177 0.2427 0.499 0.364 0.966 0.364 0.383 0 0.7-0.112 0.952-0.336 0.252-0.2333 0.378-0.5927 0.378-1.078z"/></g></svg>
