<?xml version="1.0" encoding="UTF-8"?>
<svg width="108" height="52" fill="none" version="1.1" viewBox="0 0 108 52" xmlns="http://www.w3.org/2000/svg"><path d="m24.525 0.12109c-0.5998 0.89589-2.7944 4.3474-3.9102 8.166-1.2186 4.2739-1.3971 8.0636-0.97656 11.779 0.4175 3.7305 1.9941 7.5645 1.9941 7.5645 0.838 1.9974 2.0928 4.1555 2.9102 5.2129 1.1981-1.5568 3.952-6.1972 4.8105-12.248 0.4777-3.378 0.49894-6.3302-0.59766-11.133-1.0982-4.8026-3.8513-8.7103-4.2305-9.3418zm-0.019532 2.5703c0.2587 0.39655 1.9929 3.4964 2.8926 6.7422 0.8952 3.2458 1.0754 6.3586 1.0371 8.1797-0.0411 1.8359-0.25976 3.7752-0.53906 4.9355 0.1-1.9974-0.13896-4.8029-0.59766-7.0059-0.4587-2.1883-1.7566-5.8599-2.793-7.5488-0.957 1.6155-2.1364 4.7868-2.7539 7.5332-0.6203 2.7464-0.63867 6.0814-0.63867 7.0801-0.1646-0.8371-0.57518-3.8486-0.45898-6.8594 0.097-2.4821 0.67895-5.0516 0.99805-6.2266 1.2172-3.9214 2.5947-6.4335 2.8535-6.8301zm-6.4648 13.381c-9.8965 0-17.92 8.0045-17.92 17.889 0 9.8842 8.0234 17.902 17.92 17.902 5.16 0 9.8086-2.1891 13.078-5.6699v-12.232h-4.7305-8.3477v5.5957c0.0073 0 0.012131-0.015625 0.019531-0.015625 1.9669-1.968 5.1586-1.968 7.127 0 1.967 1.9534 1.967 5.1414 0 7.1094-0.0088 0.0147-0.018544 0.014597-0.027344 0.029297-0.0103 0-0.020497 0.014596-0.029297 0.029296-1.9626 1.9386-4.526 2.9082-7.0898 2.9082-2.5756 0-5.1511-0.9695-7.1152-2.9375-3.4634-3.4514-3.8746-8.8122-1.2344-12.719 0.35575-0.5288 0.76698-1.028 1.2344-1.498 1.9641-1.968 4.5396-2.9375 7.1152-2.9375v-13.453zm6.502 3.7598c0.3014 0.5141 1.299 2.6729 1.418 5.625 0.080899 2.8786-0.87845 5.1555-1.4355 6.1836-0.5396-1.0134-1.3776-2.9375-1.457-5.9336-0.0206-2.8787 1.1365-5.3609 1.4746-5.875zm8.8633 14.129v17.918h3.584v-15.686h3.2539v-2.2324h-6.8379zm8.791 0-1.8711 17.918h3.5117l0.33203-4.7598h1.6914l0.33203 4.7598h3.5098l-1.8691-17.918h-5.6367zm11.715 0c-2.5138 0-2.6602 1.9529-2.6602 3.2012v2.541h3.5859v-2.9238c0-0.47 0.35279-0.58594 0.55859-0.58594 0.3381 0 0.57422 0.27754 0.57422 0.58594v3.5547c0 1.1015-0.36841 1.3359-1.3828 1.3359h-1.5137v1.9688h1.4551c1.3378 0 1.4414 0.61768 1.4414 1.1758v4.1699c0 0.3084-0.23612 0.58789-0.57422 0.58789-0.2058 0-0.55859-0.13259-0.55859-0.58789v-3.377h-3.5859v3.0684c0 1.263 0.14636 3.2031 2.6602 3.2031h2.9688c2.5138 0 2.6758-1.9401 2.6758-3.2031v-3.6133c0-0.6315-0.028556-2.4806-2.4395-2.4219v-0.17578c1.0731 0.044 2.4395-0.48606 2.4395-2.4395v-2.8633c0-1.2483-0.16198-3.2012-2.6758-3.2012h-2.9688zm7.998 0v17.918h3.5859v-15.686h1.1328v15.686h3.5859v-17.918h-8.3047zm10.656 0v17.918h3.5879v-6.0957h2.0566c2.4991 0 2.6621-1.9382 2.6621-3.2012v-5.4199c0-1.2483-0.16301-3.2012-2.6621-3.2012h-5.6445zm13.318 0c-2.4991 0-2.6602 1.9529-2.6602 3.2012v11.514c0 1.263 0.16106 3.2031 2.6602 3.2031h2.9844c2.4991 0 2.6621-1.9401 2.6621-3.2031v-11.514c0-1.2483-0.16301-3.2012-2.6621-3.2012h-2.9844zm7.998 0v17.918h3.5879v-11.236h0.13086l1.8379 11.236h2.8672l1.8516-11.236h0.13282v11.236h3.5879v-17.918h-4.6758l-2.3223 12.6-2.3379-12.6h-4.6602zm-48.971 2.2324h0.20508l0.61523 8.959h-1.4355l0.61523-8.959zm31.242 0h0.46875c0.3822 0 0.66211 0.32173 0.66211 0.89453v5.832c0 0.5728-0.27991 0.89453-0.66211 0.89453h-0.46875v-7.6211zm11.217 0c0.3381 0 0.57226 0.27754 0.57226 0.58594v12.205c0 0.3084-0.23417 0.58789-0.57226 0.58789-0.2058 0-0.55859-0.13259-0.55859-0.58789v-12.205c0-0.47 0.35279-0.58594 0.55859-0.58594z" fill="#9ea1a4"/></svg>
