<svg width="135" height="36" viewBox="0 0 135 36" fill="none" xmlns="http://www.w3.org/2000/svg">
<path d="M35.6242 0.395264H0V36H35.6242V0.395264Z" fill="#CED4DA"/>
<path d="M29.8709 3.94221C29.0523 3.94221 28.4323 4.48505 28.1234 5.1374L23.6379 12.518C23.3268 13.2006 23.0998 13.9675 23.0998 14.4751C23.0998 14.9287 23.162 15.3295 23.3284 15.6988L28.1805 27.2841H9.33849C8.66022 27.2841 8.10044 26.6032 8.10045 25.9746V6.01831C7.95788 3.29012 4.03465 3.29159 3.94824 6.10402L4.03395 27.2841C4.03395 29.5867 5.81507 31.4315 8.10045 31.4315H33.7898L27.5282 15.4179C27.3554 14.8217 27.2784 14.281 27.6996 13.5704L31.8423 6.83732C31.9006 6.69692 31.9851 6.10324 31.9851 5.9326C31.9031 4.70999 30.9445 3.88821 29.8709 3.94221ZM19.6999 3.95173C18.6923 3.95848 17.6857 4.65422 17.6857 6.01831V20.2987C17.6857 22.3723 14.8954 22.2017 14.8954 20.2987V6.01831C14.8954 3.29012 10.8575 3.29012 10.8575 6.01831V20.4129C10.8575 23.7049 13.3169 25.8936 16.2525 25.8937C19.268 25.8937 21.7189 23.7049 21.7189 20.4129V6.01831C21.7189 4.62721 20.7076 3.94498 19.6999 3.95173Z" fill="white"/>
<path d="M42.6041 4.57941V13.9995C42.6041 16.354 42.3643 17.6631 40.4462 17.6631C40.0876 17.6631 39.8478 17.6631 39.4893 17.5334V21.5879C40.2064 21.8515 40.6859 21.8515 41.2865 21.8515C46.678 21.8515 46.9178 17.7948 46.9178 15.4382V8.63605H50.0327V21.5879H54.3442V4.57941H42.6041Z" fill="#9EA1A4"/>
<path d="M55.7822 4.57941L61.6533 16.8789L59.4976 21.5879H64.1699L71.1189 4.57941H66.4466L63.9301 11.7747L60.934 4.57941H55.7822Z" fill="#9EA1A4"/>
<path d="M72.4365 21.5879H76.7502V14.2609L81.1827 21.5879H86.6931L80.5844 12.8223L86.5743 4.57941H81.4225L76.7502 11.7747V4.57941H72.4365V21.5879Z" fill="#9EA1A4"/>
<path d="M93.7637 22.1128C99.5139 22.1128 102.149 17.663 102.149 13.0837C102.149 8.63605 99.5139 4.18628 93.7637 4.18628C88.1324 4.18628 85.4971 8.63605 85.4971 13.0837C85.4971 17.663 88.1324 22.1128 93.7637 22.1128ZM93.7637 18.0562C91.8456 18.0562 89.9296 16.354 89.9296 13.0837C89.9296 9.8133 91.8456 8.24292 93.7637 8.24292C95.8007 8.24292 97.7167 9.8133 97.7167 13.0837C97.7167 16.354 95.8007 18.0562 93.7637 18.0562Z" fill="#9EA1A4"/>
<path d="M104.307 4.57938V21.5879H108.499L114.489 11.3837V21.5879H118.684V4.57938H114.489L108.499 14.7858V4.57938H104.307ZM111.614 3.66351C113.411 3.66351 115.209 3.009 116.049 1.04548L113.532 0C113.172 1.30901 112.094 1.43862 111.614 1.43862C111.256 1.43862 110.057 1.30901 109.817 0L107.303 1.04548C108.02 3.009 109.938 3.66351 111.614 3.66351Z" fill="#9EA1A4"/>
<path d="M123.237 4.57941V13.9995C123.237 16.354 122.995 17.6631 121.079 17.6631C120.721 17.6631 120.481 17.6631 120.12 17.5334V21.5879C120.839 21.8515 121.319 21.8515 121.917 21.8515C127.309 21.8515 127.549 17.7948 127.549 15.4382V8.63605H130.664V21.5879H134.977V4.57941H123.237Z" fill="#9EA1A4"/>
<path d="M39.5234 31.1333H40.1304V27.9774H43.6751V31.1333H44.2821V24.9468H43.6751V27.4806H40.1304V24.9468H39.5234V31.1333Z" fill="#9EA1A4"/>
<path d="M45.8271 31.1333H49.1515V30.6365H46.4341V27.917H49.0435V27.4201H46.4341V25.4458H49.1515V24.9468H45.8271V31.1333Z" fill="#9EA1A4"/>
<path d="M53.1516 31.1333H53.7521V30.2823H54.0048C56.005 30.2823 56.8323 29.0985 56.8323 27.8586C56.8323 26.4071 55.7588 25.4458 54.0048 25.4458H53.7521V24.7028H53.1516V25.4458H52.9075C51.1427 25.4458 50.0713 26.4071 50.0713 27.8586C50.0713 29.0985 50.8986 30.2823 52.9075 30.2823H53.1516V31.1333ZM53.7521 25.9426C55.7588 25.9686 56.1994 26.906 56.1994 27.8586C56.1994 29.3448 55.2123 29.7314 53.7521 29.7833V25.9426ZM53.1516 29.7833C51.6914 29.7314 50.7042 29.3448 50.7042 27.8586C50.7042 26.906 51.1427 25.9686 53.1516 25.9426V29.7833Z" fill="#9EA1A4"/>
<path d="M59.0237 31.1333H59.6069V25.4458H61.2529V24.9468H57.3799V25.4458H59.0237V31.1333Z" fill="#9EA1A4"/>
<path d="M61.9705 31.1333H62.6531L64.2991 28.4159H64.8218V31.1333H65.431V24.9468H64.0032C62.1304 24.9468 61.8604 26.1889 61.8604 26.7376C61.8604 27.783 62.679 28.4159 63.6424 28.3814L61.9705 31.1333ZM64.8218 27.917H63.9448C63.448 27.917 62.4609 27.8586 62.4609 26.6771C62.4609 25.5301 63.5063 25.4458 64.0032 25.4458H64.8218V27.917Z" fill="#9EA1A4"/>
<path d="M66.9844 31.1333H67.5914V27.9774H71.136V31.1333H71.743V24.9468H71.136V27.4806H67.5914V24.9468H66.9844V31.1333Z" fill="#9EA1A4"/>
<path d="M72.6289 31.1333H73.238L74.0891 29.1245H76.6963L77.5496 31.1333H78.1566L75.3809 24.787L72.6289 31.1333ZM74.3095 28.6363L75.3809 26.1046L76.4782 28.6363H74.3095Z" fill="#9EA1A4"/>
<path d="M78.8582 31.1333H79.5408L81.1868 28.4159H81.7095V31.1333H82.3165V24.9468H80.8909C79.0181 24.9468 78.748 26.1889 78.748 26.7376C78.748 27.783 79.5667 28.4159 80.528 28.3814L78.8582 31.1333ZM81.7095 27.917H80.8325C80.3336 27.917 79.3464 27.8586 79.3464 26.6771C79.3464 25.5301 80.394 25.4458 80.8909 25.4458H81.7095V27.917Z" fill="#9EA1A4"/>
<path d="M85.9219 31.1333H86.5289V28.1373L89.3046 31.1333H90.0973L87.1013 27.9429L90.0476 24.9468H89.3046L86.5289 27.8327V24.9468H85.9219V31.1333Z" fill="#9EA1A4"/>
<path d="M94.0138 31.3277C95.8542 31.3277 97.3641 30.0036 97.3641 28.053C97.3641 26.1046 95.8542 24.787 94.0138 24.787C92.1994 24.787 90.6895 26.1046 90.6895 28.053C90.6895 30.0036 92.1994 31.3277 94.0138 31.3277ZM94.0138 30.805C92.5039 30.805 91.3224 29.6731 91.3224 28.053C91.3224 26.433 92.5039 25.2773 94.0138 25.2773C95.5259 25.2773 96.7312 26.433 96.7312 28.053C96.7312 29.6731 95.5259 30.805 94.0138 30.805Z" fill="#9EA1A4"/>
<path d="M98.2002 31.1333H98.7834L99.3558 26.5669L101.635 31.412L103.888 26.5669L104.497 31.1333H105.043L104.192 24.7028L101.635 30.2304L99.0513 24.7028L98.2002 31.1333Z" fill="#9EA1A4"/>
<path d="M106.184 24.9468V31.1333H106.791V25.4458H110.335V31.1333H110.942V24.9468H106.184Z" fill="#9EA1A4"/>
<path d="M111.83 31.1333H112.437L113.288 29.1245H115.898L116.749 31.1333H117.356L114.58 24.787L111.83 31.1333ZM113.508 28.6363L114.58 26.1046L115.677 28.6363H113.508Z" fill="#9EA1A4"/>
<path d="M118.218 31.1333H118.825V27.9774H122.369V31.1333H122.979V24.9468H122.369V27.4806H118.825V24.9468H118.218V31.1333Z" fill="#9EA1A4"/>
<path d="M124.521 24.9468V31.412L128.76 26.2386V31.1333H129.358V24.7028L125.131 29.8416V24.9468H124.521Z" fill="#9EA1A4"/>
<path d="M130.723 31.1333H131.406L133.052 28.4159H133.575V31.1333H134.184V24.9468H132.758C130.883 24.9468 130.613 26.1889 130.613 26.7376C130.613 27.783 131.432 28.4159 132.395 28.3814L130.723 31.1333ZM133.575 27.917H132.698C132.201 27.917 131.214 27.8586 131.214 26.6771C131.214 25.5301 132.259 25.4458 132.758 25.4458H133.575V27.917Z" fill="#9EA1A4"/>
</svg>
