<?xml version="1.0" encoding="UTF-8"?>
<svg width="91" height="40" fill="none" version="1.1" viewBox="0 0 91 40" xmlns="http://www.w3.org/2000/svg"><path d="m67.359 0.021484c-0.8286 0-1.878-9.3599e-4 -2.7129 0.83398-0.8286 0.83492-0.82812 1.876-0.82812 2.7109l-0.009765-0.011719v1.457h12.508c0.8318 0 2.087 2.82e-4 2.9219 0.83203 0.8349 0.83492 0.83398 2.087 0.83398 2.9219v12.508c0 0.8349 9.14e-4 2.0862-0.83398 2.918-0.8349 0.8349-2.0901 0.83398-2.9219 0.83398h-6.0312c-1.0413 0-2.3993-4.86e-4 -2.9199-1.1465-0.5175-1.1492 0.20739-2.1897 0.83789-3.0215l8.127-10.826h-12.508l-5.0156 6.668c-0.8381 1.1175-1.5625 2.0844-1.5625 3.332 0 1.2508 0.6737 2.153 1.5625 3.334l1.25 1.666c1.2508 1.6667 2.501 3.3348 4.1582 4.1602 1.6698 0.8285 3.6512 0.82812 6.3496 0.82812h5.4297c3.1302 0 7.8084-0.001203 10.951-3.125 3.1238-3.1269 3.125-7.7144 3.125-9.3652v-5.0156c0-1.6699-0.001203-6.2541-3.125-9.3652-3.1301-3.1302-7.8083-3.1199-10.951-3.123l-8.6348-0.0039062zm-18.471 9.9785-15.236 20h12.697l14.92-20h-12.381zm-45.342 0.013672c-0.83175 0-1.8792-0.001621-2.7109 0.83008-0.83492 0.835-0.83594 1.8791-0.83594 2.7109l-0.041016-0.001954v1.4609h5.0156v25.016h10v-25.016h9.8105c1.0412 0 2.3966-3.21e-4 2.9141 1.1426 0.5238 1.1492-0.21054 2.1866-0.83594 3.0215l-8.127 10.826h12.508l5.0156-6.668c0.8381-1.1143 1.5684-2.0812 1.5684-3.332 0-1.2476-0.67636-2.1498-1.5684-3.334l-1.2539-1.666c-1.2444-1.654-2.4947-3.3221-4.1582-4.1602-1.6508-0.8317-3.6417-0.83008-6.3496-0.83008h-20.951z" fill="#9ea1a4"/></svg>
