<?xml version="1.0" encoding="UTF-8"?>
<svg width="98" height="58" version="1.1" viewBox="0 0 98 58" xmlns="http://www.w3.org/2000/svg"><g fill="#9EA1A4"><path d="m19.72 52.412c0-0.5287-0.0759-0.9063-0.3034-1.1328-0.2276-0.2266-0.6827-0.3776-1.3653-0.3776h-1.5171c-0.6826 0-1.1377 0.151-1.3653 0.3776-0.2275 0.2265-0.3034 0.6041-0.3034 1.0573v2.1145c0 0.4532 0.0759 0.8308 0.3034 1.0573 0.2276 0.2266 0.6827 0.3776 1.3653 0.3776h1.5171c0.7585 0 1.2136-0.151 1.3653-0.3776 0.2275-0.2265 0.3034-0.6041 0.3034-1.0573v-2.039zm2.0479 4.9088c-0.4551 0.4532-1.2894 0.6797-2.503 0.6797h-4.0201c-1.2136 0-2.048-0.2265-2.5031-0.6797-0.4551-0.4531-0.6826-1.0573-0.6826-1.9635v-3.8516c0-0.9062 0.2275-1.5104 0.6826-1.9635s1.2895-0.6797 2.5031-0.6797h4.0201c1.2136 0 2.0479 0.2266 2.503 0.6797s0.6827 1.1328 0.6827 1.9635v3.8516c0 0.8307-0.2276 1.5104-0.6827 1.9635z"/><path d="m33.83 57.32c-0.4551 0.4532-1.2895 0.6797-2.5031 0.6797h-4.0201c-1.2136 0-2.0479-0.2265-2.5031-0.6797-0.4551-0.4531-0.6826-1.0573-0.6826-1.9635v-3.8516c0-0.9062 0.2275-1.5104 0.6826-1.9635 0.4552-0.4531 1.2895-0.6797 2.5031-0.6797h4.0201c1.2136 0 2.048 0.2266 2.5031 0.6797s0.6826 1.1328 0.6826 1.9635v0.9063h-2.7306c0-0.5287-0.0759-0.9063-0.3034-1.1328-0.2276-0.2266-0.6827-0.3776-1.3653-0.3776h-1.517c-0.6827 0-1.1378 0.151-1.3653 0.3776-0.2276 0.2265-0.3034 0.6041-0.3034 1.0573v2.1145c0 0.4532 0.1517 0.8308 0.3034 1.0573 0.2275 0.2266 0.6826 0.3776 1.3653 0.3776h1.517c0.7585 0 1.2136-0.151 1.3653-0.3776 0.2275-0.2265 0.3034-0.6041 0.3034-1.1328h2.7306v0.9063c0 0.9062-0.2275 1.5859-0.6826 2.039z"/><path d="m38.836 58h-2.7306v-9.138h2.7306v3.474h4.9303v-3.474h2.8064v9.138h-2.8064v-3.5495h-4.9303v3.5495z"/><path d="m51.654 54.45h-0.7585c0 0.4532 0.1517 0.8308 0.3792 1.1329 0.2276 0.2265 0.6827 0.3776 1.3653 0.3776h5.9922v2.039h-7.2058c-1.2136 0-2.0479-0.2265-2.503-0.6797-0.4551-0.4531-0.6827-1.0573-0.6827-1.9635v-3.8516c0-0.9062 0.2276-1.5104 0.6827-1.9635s1.2894-0.6797 2.503-0.6797h7.2058v2.1146h-5.9922c-0.6826 0-1.1377 0.151-1.3653 0.3776-0.2275 0.2266-0.3792 0.6042-0.3792 1.0573h7.6609v2.1146h-6.9024v-0.0756z"/><path d="m79.72 50.901h-3.7925v-2.0391h10.467v2.0391h-3.9443v7.0989h-2.7306v-7.0989z"/><path d="m62.803 53.469c0-1.1328 0.9861-0.9818 0.9861-0.9818h2.8065v1.9635h-2.8065c0-0.0755-0.9861-0.0755-0.9861-0.9817zm9.2538 0.9062h-2.8064v-1.9635h2.8064s0.9861-0.1511 0.9861 0.9817c0 0.9818-0.9861 0.9818-0.9861 0.9818zm1.4412-3.8515h-4.2476v-1.6615h-2.7307v1.6615h-4.3235s-2.503 0.0755-2.503 2.8697c0 2.7943 2.503 2.7943 2.503 2.7943h4.2477v1.8125h2.7306v-1.8125h4.1718s2.5031 0 2.5031-2.7943c0.1517-2.7942-2.3514-2.8697-2.3514-2.8697z"/><path d="m6.7507 52.789h-4.0201v-1.8125h4.0201c0.53096 0 0.91021 0.3776 0.91021 0.9062 0.07585 0.4532-0.37925 0.9063-0.91021 0.9063zm3.034-3.2474c-0.4551-0.4531-1.2895-0.6797-2.5031-0.6797h-7.2816v9.138h2.7306v-3.1719h4.4752c1.2136 0 2.048-0.2265 2.5031-0.6796 0.45514-0.4532 0.68264-1.1329 0.68264-1.9636v-0.7552c0.0759-0.7552-0.1517-1.4349-0.60679-1.888z"/><path d="m95.269 54.979c0 0.5287-0.3792 0.9063-0.9102 0.9063h-4.0201v-1.8125h4.0201c0.531 0 0.9102 0.4531 0.9102 0.9062zm2.7306 0.3776v-0.7552c0-0.8307-0.2275-1.5104-0.6826-1.9635-0.4551-0.4532-1.2895-0.6797-2.5031-0.6797h-4.4752v-3.1719h-2.7306v9.138h7.2058c1.2136 0 2.048-0.2265 2.5031-0.6796 0.4551-0.3777 0.6826-1.0573 0.6826-1.8881z"/></g><g fill="#DEE2E6"><path d="m46.572 23.714h-3.6409v17.898h3.6409v-17.898z"/><path d="m50.818 20.013h-3.6408v21.599h3.6408v-21.599z"/><path d="m55.144 23.714h-3.6409v17.898h3.6409v-17.898z"/></g><g fill="#9EA1A4"><path d="m38 24.469-3.6408-3.2474v-9.138h3.6408v12.385z"/><path d="m42.249 28.396-3.565-3.4739v-16.917h3.565v20.391z"/><path d="m46.572 4.0026h-3.6409v19.182h3.6409v-19.182z"/><path d="M50.8176 0H47.1768V19.2578H50.8176V0Z"/><path d="m59.999 24.469 3.6408-3.2474v-9.138h-3.6408v12.385z"/><path d="m55.144 4.0026h-3.6409v19.182h3.6409v-19.182z"/><path d="m55.751 28.396 3.6408-3.4739v-16.917h-3.6408v20.391z"/></g></svg>
