<?xml version="1.0" encoding="UTF-8"?>
<svg width="102" height="28" fill="none" version="1.1" viewBox="0 0 102 28" xmlns="http://www.w3.org/2000/svg"><path d="m0 0 11.072 12.627 2.0117 2.4707 1.0977 1.7383 0.45703 1.1895 0.45898 1.2812 0.18359 1.1895 0.18359 0.73242v6.7715h11.803v-7.5039l-0.27344-2.0117-0.45898-1.6484-0.82422-2.1953-0.82227-1.5566-0.73438-1.0977-1.0059-1.1895-9.2422-10.797h-13.906zm28.641 0-6.1309 7.1387 1.2793 1.4629 1.4668 1.7383 1.3691 2.1035 1.0977 2.1055 0.55078 1.6465 0.18359 1.1914 0.36719-0.82422 0.73047-1.2812 13.541-15.281h-14.455zm19.213 0v28h12.537v-28h-12.537zm19.215 0v12.078h9.334s0.18188-7.03e-4 0.45898 0.091797c0.0907 0.0908 0.27344 0.27539 0.27344 0.27539l0.27539-1.2812 0.27539-1.8301 0.45508-1.9219 0.82422-1.6465 0.82422-1.4648 1.0977-1.373 1.0977-1.0059 0.91406-0.82227-1.4629-0.45898-1.0078-0.36523-1.1875-0.18359-0.73242-0.091797h-11.439zm23.336 0-2.1055 0.36719-1.373 0.45703-1.373 0.73242-1.5547 1.0059-1.4648 1.373-1.2793 1.6465-0.91602 1.7383-0.64062 1.4648-0.45703 1.3711-0.27539 1.5566-0.091797 1.0059v15.281h11.072v-12.902l0.091797-0.82226 0.27344-0.91602 0.36719-0.82227 0.54883-0.64258 0.73242-0.45703 0.73242-0.27344 0.82422-0.091796h8.416v-11.072h-10.979-0.54883z" clip-path="url(#clipPath179)" fill="#9ea1a4"/><defs><clipPath id="clipPath179"><rect width="101.93" height="28" fill="#fff"/></clipPath></defs></svg>
