<svg width="145" height="128" viewBox="0 0 145 128" fill="none" xmlns="http://www.w3.org/2000/svg">
<path d="M66 104V110M96 104V110" stroke="#DA1F24" stroke-width="3" stroke-miterlimit="10"/>
<path d="M102.4 109.895H60.2354V115.918H102.4V109.895Z" stroke="#DA1F24" stroke-width="3" stroke-miterlimit="10"/>
<path d="M74.5416 37.6133H124.989V103.872H37.6475V75.2603" stroke="#DA1F24" stroke-width="3" stroke-miterlimit="10"/>
<path d="M45.1768 76.0112V91.823H117.459V45.1406H68.5179M45.1768 68.4818V60.1994" stroke="#DA1F24" stroke-width="3" stroke-miterlimit="10"/>
<path d="M82.0762 97.8487C82.0762 98.2678 81.7365 98.6075 81.3174 98.6075C80.8983 98.6075 80.5586 98.2678 80.5586 97.8487C80.5586 97.4296 80.8983 97.0898 81.3174 97.0898C81.7365 97.0898 82.0762 97.4296 82.0762 97.8487Z" stroke="#DA1F24" stroke-width="3"/>
<path d="M38.597 33.6055L27.5693 46.6024L32.8863 55.6608" stroke="#DA1F24" stroke-width="3" stroke-miterlimit="10"/>
<path d="M42.9143 33.5009C44.922 32.4121 45.9613 30.4445 45.2355 29.1059C44.5096 27.7674 42.2936 27.5649 40.2858 28.6537C38.278 29.7424 37.2388 31.7101 37.9646 33.0486C38.6904 34.3871 40.9065 34.5896 42.9143 33.5009Z" stroke="#DA1F24" stroke-width="3" stroke-miterlimit="10"/>
<path d="M45.0948 75.7443L49.2302 73.5782L38.9902 60.7782C39.1871 59.5967 39.1871 58.4151 38.5964 57.4305C37.4148 55.2644 34.8548 54.4767 32.8856 55.6582C30.7194 56.8397 29.9317 59.3997 31.1133 61.369C31.1133 61.5659 31.1133 61.5659 31.3102 61.7628C31.901 62.5505 32.6887 63.1413 33.6733 63.3382L38.7933 79.092L45.0948 75.7443Z" stroke="#DA1F24" stroke-width="3" stroke-miterlimit="10"/>
<path d="M39.1873 60.9774C41.3534 60.7805 43.3226 60.3866 45.2919 59.9928C48.8365 59.402 52.1842 58.6143 55.138 57.6297C55.5319 57.4328 56.1226 57.2359 56.5165 56.842C60.6519 53.2974 64.7873 49.162 68.9226 44.4359C70.498 42.4666 72.2703 40.4974 73.8457 38.3312C74.2396 37.7405 74.4365 37.1497 74.6334 36.5589C75.0273 35.1805 74.8303 33.802 74.0426 33.0143C71.6796 29.8636 68.9226 27.5005 65.7719 25.5312M31.3103 61.7651C30.9165 61.7651 30.5226 61.7651 30.1288 61.962C27.9626 62.1589 25.9934 60.9774 25.2057 59.0082C23.8273 55.4636 23.2365 51.722 23.4334 48.1774" stroke="#DA1F24" stroke-width="3" stroke-miterlimit="10"/>
<path d="M82.0706 9L83.1132 10.0784L81.7674 7.53095L82.0706 9ZM47.4583 42.4653L47.7835 43.9297L48.1967 43.8379L48.5009 43.5437L47.4583 42.4653ZM1.50586 52.6706L0.433349 51.6219L1.83106 54.1349L1.50586 52.6706ZM34.6353 18.7882L34.3321 17.3192L33.8832 17.4118L33.5628 17.7396L34.6353 18.7882ZM81.0279 7.92162L46.4157 41.387L48.5009 43.5437L83.1132 10.0784L81.0279 7.92162ZM47.1331 41.001L1.18066 51.2063L1.83106 54.1349L47.7835 43.9297L47.1331 41.001ZM2.57837 53.7193L35.7078 19.8369L33.5628 17.7396L0.433349 51.6219L2.57837 53.7193ZM34.9384 20.2573L82.3737 10.469L81.7674 7.53095L34.3321 17.3192L34.9384 20.2573Z" fill="#DA1F24"/>
</svg>
