<svg width="171" height="440" viewBox="0 0 171 440" fill="none" xmlns="http://www.w3.org/2000/svg">
<g opacity="0.7">
<path d="M168.166 440L2.83426 440L2.83426 325.684H32.1216L32.1216 404.862L68.9669 404.862L68.9669 332.711H97.3094L97.3094 404.862H138.878L138.878 325.684H168.166L168.166 440Z" fill="#F8F9FA"/>
<path d="M171 236.405C171 250.929 168.953 263.032 164.859 272.715C160.765 282.397 155.097 289.815 147.854 294.969C140.453 299.966 131.872 302.699 122.109 303.168V268.03C128.25 266.78 132.974 263.969 136.28 259.596C139.587 255.067 141.24 247.337 141.24 236.405C141.24 225.161 139.744 217.118 136.753 212.277C133.604 207.279 129.195 204.781 123.526 204.781C118.802 204.781 114.945 206.264 111.953 209.232C108.961 212.043 106.442 216.415 104.395 222.35C102.191 228.284 100.144 236.015 98.2542 245.541C96.0497 256.629 92.9793 266.155 89.0428 274.12C85.1064 282.085 79.7528 288.175 72.982 292.392C66.2113 296.452 57.6298 298.483 47.2376 298.483C37.6326 298.483 29.366 295.984 22.4378 290.987C15.3522 285.833 9.84116 278.649 5.9047 269.435C1.96824 260.065 7.7759e-06 249.055 7.2184e-06 236.405C6.61272e-06 222.662 1.96824 211.418 5.9047 202.672C9.6837 193.771 15.0373 187.055 21.9655 182.527C28.8936 177.841 37.0815 175.108 46.529 174.328L46.529 209.232C40.8605 210.481 36.6879 213.058 34.0111 216.962C31.1768 220.866 29.7597 227.347 29.7597 236.405C29.7597 245.619 31.2555 252.413 34.2472 256.785C37.239 261.158 41.2541 263.344 46.2928 263.344C52.4337 263.344 57.2362 260.377 60.7003 254.443C64.1644 248.352 67.1561 238.826 69.6754 225.864C71.4075 216.962 73.5331 209.075 76.0525 202.204C78.5718 195.176 81.8784 189.242 85.9724 184.401C89.9088 179.559 94.7113 175.889 100.38 173.391C106.048 170.892 112.898 169.643 120.928 169.643C131.006 169.643 139.823 172.297 147.381 177.607C154.939 182.761 160.765 190.335 164.859 200.33C168.953 210.169 171 222.194 171 236.405Z" fill="#F8F9FA"/>
<path d="M171 71.4477C171 85.9715 168.166 99.0117 162.497 110.568C156.671 121.969 147.617 131.026 135.336 137.742C122.896 144.301 106.678 147.58 86.6809 147.58H81.9572C67.6284 147.58 55.268 145.628 44.8757 141.724C34.4834 137.664 25.9807 132.12 19.3674 125.092C12.7541 118.064 7.87292 110.1 4.72375 101.198C1.57458 92.1402 4.40495e-07 82.6138 0 72.619C-4.12964e-07 63.2488 1.18094 54.7375 3.54281 47.0852C5.74723 39.2767 9.13259 32.4052 13.6989 26.4708C18.1077 20.5363 23.7762 15.617 30.7044 11.7127C37.4751 7.80849 45.4268 5.07552 54.5594 3.51382L54.5594 40.0576C47.9461 42.2439 42.9075 45.055 39.4434 48.4907C35.8218 51.9265 33.3812 55.7526 32.1215 59.9692C30.7044 64.0296 29.9958 68.2462 29.9958 72.619C29.9958 79.4904 31.6492 85.8934 34.9558 91.8279C38.2624 97.6061 43.6947 102.291 51.2528 105.883C58.8108 109.319 69.0456 111.037 81.9572 111.037H86.6809C96.9157 111.037 105.497 109.944 112.425 107.757C119.354 105.571 124.943 102.604 129.195 98.8555C133.289 94.9513 136.28 90.6566 138.17 85.9715C140.059 81.2864 141.004 76.4451 141.004 71.4477C141.004 64.7324 139.823 58.6418 137.461 53.1758C135.099 47.7099 131.399 43.259 126.36 39.8233C121.164 36.2314 114.551 34.1231 106.521 33.4984L106.521 66.7626H81.9572L81.9572 4.09584e-07L91.4047 0C105.104 -5.93897e-07 116.992 1.71786 127.069 5.15359C136.989 8.43316 145.256 13.2744 151.869 19.6774C158.325 25.9242 163.127 33.4203 166.276 42.1659C169.425 50.9114 171 60.672 171 71.4477Z" fill="#F8F9FA"/>
</g>
</svg>
