<svg width="128" height="128" viewBox="0 0 128 128" fill="none" xmlns="http://www.w3.org/2000/svg">
<path d="M48.5705 100.623C48.5705 96.0418 52.7912 93.7889 56.9214 94.9869C57.4071 95.1263 57.4561 95.2205 57.3958 95.5558C57.3243 95.9665 57.2113 96.3507 57.0908 96.7463C56.9101 97.334 56.6993 97.2135 56.1759 97.0741C54.1955 96.5542 52.0796 97.2474 51.4282 99.3082C51.0028 100.653 51.2588 102.273 52.1662 103.305C53.1488 104.289 54.7226 104.481 56.0329 104.202C56.8536 104.029 56.9478 103.833 57.1925 104.805L57.2904 105.197C57.4975 106.029 57.3845 106.048 56.5713 106.267C54.5796 106.805 52.4975 106.613 51.0028 105.604C49.4892 104.583 48.5705 102.736 48.5705 100.623ZM26.971 120.884C27.3098 120.884 27.5847 121.159 27.5847 121.498V122.738C27.5847 123.077 27.3098 123.352 26.971 123.352H26.8656H22.6068C22.1813 123.352 21.835 123.005 21.835 122.579V91.2685C21.835 90.8428 22.1813 90.4962 22.6068 90.4962C24.1128 90.4962 25.465 90.4962 26.971 90.4962C27.3098 90.4962 27.5847 90.7712 27.5847 91.1103V92.3424C27.5847 92.6815 27.3098 92.9565 26.971 92.9565C26.1201 92.9565 25.6056 92.9565 24.7547 92.9565C24.5024 92.9565 24.2991 93.16 24.2991 93.4124V120.435C24.2991 120.684 24.5024 120.891 24.7547 120.891C25.6056 120.884 26.1163 120.884 26.971 120.884ZM101.302 120.884C100.963 120.884 100.688 121.159 100.688 121.498V122.738C100.688 123.077 100.963 123.352 101.302 123.352H101.408H105.666C106.092 123.352 106.438 123.005 106.438 122.579V91.2685C106.438 90.8428 106.092 90.4962 105.666 90.4962C104.16 90.4962 102.808 90.4961 101.302 90.4961C100.963 90.4961 100.688 90.7711 100.688 91.1102V92.3424C100.688 92.6814 100.963 92.9565 101.302 92.9565C102.153 92.9565 102.668 92.9565 103.518 92.9565C103.767 92.9565 103.974 93.16 103.974 93.4124V120.435C103.974 120.684 103.771 120.891 103.518 120.891C102.668 120.884 102.153 120.884 101.302 120.884ZM82.8287 119.057H81.1118C80.7805 119.057 80.6412 118.861 80.6412 118.548V108.949C80.6412 108.648 80.7993 108.44 81.1118 108.44H82.343C82.6743 108.44 82.8136 108.636 82.8136 108.949L82.8174 116.002L86.6201 108.919C86.8535 108.486 86.9891 108.406 87.4484 108.406H88.8603C89.1916 108.406 89.3309 108.602 89.3309 108.915V118.514C89.3309 118.816 89.1728 119.023 88.8603 119.023H87.6291C87.2978 119.023 87.1585 118.827 87.1585 118.514L87.1547 111.921L83.6118 118.526C83.3897 118.944 83.3182 119.057 82.8287 119.057ZM91.6163 115.659C91.8874 114.924 92.471 114.431 93.2278 114.125V114.054C92.8512 113.865 92.5049 113.677 92.2074 113.455C91.6464 113.033 91.2586 112.49 91.1532 111.597C91.0327 110.569 91.4055 109.548 92.2865 108.972C93.111 108.433 94.2481 108.309 95.2044 108.293C96.1494 108.278 97.1133 108.403 97.9868 108.602C98.3407 108.689 98.4913 108.938 98.4913 109.288V118.458C98.4913 118.756 98.3332 118.963 98.0207 118.963H96.5787C96.2473 118.963 96.108 118.767 96.108 118.458V114.883H95.3512C94.4363 114.883 94.0222 115.173 93.7624 116.073L93.0056 118.529C92.9379 118.801 92.7119 119 92.4296 119H91.2662C90.5508 119 90.3776 119.008 90.6374 118.3L91.6163 115.659ZM96.1871 110.181C94.9484 109.872 93.5177 110.079 93.5177 111.597C93.5177 113.191 95.0425 113.112 96.1871 113.112V110.181ZM70.2572 119.057C69.9259 119.057 69.7866 118.861 69.7866 118.548V108.949C69.7866 108.648 69.9447 108.44 70.2572 108.44H71.7068C72.0381 108.44 72.1774 108.636 72.1774 108.949V117.064H75.8709V108.949C75.8709 108.648 76.029 108.44 76.3415 108.44H77.7911C78.1224 108.44 78.2617 108.636 78.2617 108.949V117.064H78.9131C79.2444 117.064 79.3837 117.26 79.3837 117.573V120.564C79.3837 120.865 79.2256 121.072 78.9131 121.072H77.6819C77.3506 121.072 77.2113 120.877 77.2113 120.564V119.057H70.2572ZM61.3265 119.057H59.6097C59.2783 119.057 59.139 118.861 59.139 118.548V108.949C59.139 108.648 59.2972 108.44 59.6097 108.44H60.8408C61.1722 108.44 61.3115 108.636 61.3115 108.949L61.3152 116.002L65.1179 108.919C65.3514 108.486 65.4869 108.406 65.9462 108.406H67.3581C67.6895 108.406 67.8288 108.602 67.8288 108.915V118.514C67.8288 118.816 67.6706 119.023 67.3581 119.023H66.127C65.7956 119.023 65.6563 118.827 65.6563 118.514L65.6526 111.921L62.1097 118.526C61.8875 118.944 61.8197 119.057 61.3265 119.057ZM52.9606 112.78C53.7061 112.78 54.5946 112.411 54.6021 111.552C54.6059 111.213 54.4666 110.863 54.2068 110.607C53.4764 109.977 52.1022 110.381 51.2964 110.678C50.8484 110.844 50.7166 110.897 50.5585 110.418L50.3439 109.77C50.1933 109.318 50.2196 109.145 50.7016 108.949C52.1473 108.354 53.9621 108.011 55.4568 108.64C56.4282 109.047 57.0984 109.966 57.0984 111.032C57.0984 112.294 56.4169 113.202 55.1744 113.492V113.598C56.575 113.756 57.4184 114.645 57.4184 116.058C57.4184 117.569 56.4244 118.447 55.1933 118.872C53.7889 119.358 51.9892 119.283 50.5999 118.748C50.2159 118.601 49.9486 118.439 50.1142 117.949L50.3138 117.147C50.3853 116.857 50.4907 116.604 50.8974 116.808C51.5261 117.079 52.2791 117.271 52.9644 117.271C53.5705 117.271 54.0336 117.166 54.3913 116.913C54.9824 116.499 55.0765 115.58 54.5796 115.075C54.0562 114.544 52.9982 114.562 52.2904 114.562C52.072 114.562 51.8461 114.468 51.816 114.227L51.7106 113.357L51.688 113.161C51.6541 112.867 51.7972 112.777 52.3017 112.777H52.9606V112.78ZM44.4441 117.313C47.9004 117.26 47.9004 110.249 44.4441 110.192C40.9877 110.249 40.9877 117.26 44.4441 117.313ZM44.4441 119.2C37.6557 119.245 37.6557 108.26 44.4441 108.305C51.2324 108.26 51.2324 119.245 44.4441 119.2ZM37.4599 108.444C37.7912 108.444 37.9305 108.64 37.9305 108.953V118.552C37.9305 118.853 37.7724 119.061 37.4599 119.061H36.0104C35.679 119.061 35.5397 118.865 35.5397 118.552V110.437H31.9178V118.552C31.9178 118.853 31.7596 119.061 31.4471 119.061H29.9976C29.6663 119.061 29.5269 118.865 29.5269 118.552V108.949C29.5269 108.648 29.6851 108.44 29.9976 108.44H37.4599V108.444ZM38.1113 105.668C38.1113 105.984 37.8703 106.203 37.539 106.203H36.0066C35.6564 106.203 35.5096 105.995 35.5096 105.668V101.685C34.8959 101.987 33.3598 102.228 32.667 102.213C30.9162 102.171 29.5382 101.241 29.5382 98.7355V95.5181C29.5382 95.2017 29.7039 94.9832 30.0352 94.9832H31.4885C31.8387 94.9832 31.9855 95.1904 31.9855 95.5181V98.2759C31.9855 100.412 34.301 100.687 35.5849 99.7678V95.5181C35.5849 95.2017 35.7506 94.9832 36.0819 94.9832H37.6143C37.9644 94.9832 38.1113 95.1904 38.1113 95.5181V105.668ZM64.267 105.788C64.267 106.018 64.0788 106.203 63.8529 106.203C63.3032 106.203 62.7497 106.203 62.2 106.203C61.8499 106.203 61.703 105.995 61.703 105.668V97.1645H59.139C58.7889 97.1645 58.642 96.9573 58.642 96.6295V95.5558C58.642 95.2393 58.8077 95.0208 59.139 95.0208H66.7896C67.2979 95.0208 67.3619 95.2469 67.3657 95.5935C67.3694 95.8459 67.2941 96.6747 67.2226 96.8819C67.1511 97.0891 66.9477 97.2059 66.7143 97.2059H64.2633L64.267 105.788ZM47.5314 104.68C47.5389 105.008 47.5502 105.43 47.5239 105.709C47.4975 105.976 47.3996 106.206 47.0306 106.206H40.9049C40.7505 106.206 40.6376 106.169 40.5209 106.052C40.4042 105.935 40.4042 105.822 40.4042 105.668V95.4428C40.4042 95.1263 40.5698 94.9078 40.9012 94.9078H46.8424H47.1022C47.4109 94.9078 47.5126 95.0849 47.5465 95.3034C47.5879 95.5859 47.5314 96.2603 47.4712 96.5278C47.3996 96.8405 47.2227 97.0138 46.6127 97.0138H43.0472V99.3119H46.5675C46.9139 99.3119 47.0457 99.602 47.0306 99.8883C47.0231 100.058 46.8838 100.955 46.8386 101.071C46.7596 101.267 46.5638 101.376 46.3379 101.376H43.0849V104.017H46.5487H46.8989C47.4636 104.021 47.5239 104.198 47.5314 104.68ZM91.1833 102.657C91.4695 101.878 92.0907 101.354 92.8927 101.034V100.958C92.4936 100.759 92.1246 100.559 91.8121 100.322C91.2172 99.877 90.8068 99.3006 90.6939 98.3512C90.5659 97.2624 90.9612 96.1737 91.8987 95.5633C92.776 94.9907 93.977 94.8588 94.9973 94.8438C95.9988 94.8287 97.0229 94.9606 97.9491 95.1715C98.3219 95.2657 98.4838 95.5257 98.4838 95.8986V105.626C98.4838 105.943 98.3181 106.161 97.9868 106.161H96.4544C96.1042 106.161 95.9574 105.954 95.9574 105.626V101.836H95.1555C94.1841 101.836 93.7436 102.145 93.4725 103.098L92.6705 105.701C92.599 105.992 92.3618 106.199 92.0568 106.199H90.8219C90.0651 106.199 89.8806 106.206 90.1555 105.457L91.1833 102.657ZM96.0327 96.848C94.7187 96.5203 93.2014 96.7388 93.2014 98.3512C93.2014 100.043 94.8166 99.9599 96.0327 99.9599V96.848ZM88.4047 106.203H87.0606C86.4582 106.203 86.3038 106.097 86.1344 105.487L85.5056 103.253H82.2903L81.718 105.404C81.6126 105.799 81.4921 106.203 80.9876 106.203H79.5832C78.8905 106.203 78.9808 105.89 79.1277 105.419L82.0719 95.8873C82.3317 95.051 82.5576 95.0208 83.4386 95.0208H84.5531C85.4567 95.0208 85.6977 95.1 85.965 95.9815L88.8302 105.453C88.9883 105.961 89.0937 106.203 88.4047 106.203ZM83.9469 97.4584H83.849L82.6743 101.418H85.163L83.9469 97.4584ZM70.9952 101.531V105.668C70.9952 105.984 70.8295 106.203 70.4982 106.203H68.9696C68.6194 106.203 68.4726 105.995 68.4726 105.668V95.4805C68.4726 95.164 68.6382 94.9455 68.9696 94.9455H70.5019C70.8521 94.9455 70.9989 95.1527 70.9989 95.4805V99.2705H75.0162V95.4805C75.0162 95.164 75.1819 94.9455 75.5132 94.9455H77.0456C77.3957 94.9455 77.5426 95.1527 77.5426 95.4805V105.63C77.5426 105.946 77.3769 106.165 77.0456 106.165H75.5132C75.1631 106.165 75.0162 105.958 75.0162 105.63V101.531H70.9952Z" fill="#DA1F24"/>
<path fill-rule="evenodd" clip-rule="evenodd" d="M109.675 92.5125H110.265C110.419 92.5125 110.537 92.4719 110.622 92.3945C110.707 92.3134 110.748 92.2028 110.748 92.0516C110.748 91.9816 110.736 91.9152 110.714 91.8599C110.692 91.8046 110.659 91.7567 110.615 91.7162C110.571 91.6756 110.519 91.6461 110.46 91.6277C110.401 91.6056 110.331 91.5945 110.253 91.5945H109.678V92.5125H109.675ZM110.136 90.4922C111.271 90.4922 112.189 91.4102 112.189 92.5457C112.189 93.6775 111.271 94.5991 110.136 94.5991C109.004 94.5991 108.082 93.6812 108.082 92.5457C108.082 91.4102 109.004 90.4922 110.136 90.4922ZM110.136 90.7171C111.146 90.7171 111.964 91.5355 111.964 92.5457C111.964 93.5558 111.146 94.3742 110.136 94.3742C109.125 94.3742 108.307 93.5558 108.307 92.5457C108.311 91.5355 109.125 90.7171 110.136 90.7171ZM109.675 93.7254H109.376V91.3291H110.29C110.405 91.3291 110.512 91.3475 110.604 91.3807C110.7 91.4139 110.777 91.4618 110.843 91.5245C110.91 91.5871 110.961 91.6645 110.998 91.7493C111.035 91.8378 111.053 91.9337 111.053 92.0406C111.053 92.1254 111.042 92.2028 111.02 92.2765C110.998 92.3503 110.965 92.4166 110.924 92.4756C110.884 92.5346 110.832 92.5862 110.773 92.6305C110.714 92.6747 110.648 92.7079 110.571 92.73L111.124 93.7254H110.773L110.261 92.7779H109.671V93.7254H109.675Z" fill="#DA1F24"/>
<path d="M63.7938 10H90.7874C92.3237 10 93.5869 11.264 93.5869 12.8013V58.7157C93.5869 64.5005 89.5241 69.1125 84.642 71.5494L67.947 80.4089L65.3068 81.8095C64.954 81.9917 63.7938 82 63.7938 82V10Z" fill="#DA1F24"/>
<path d="M80.913 46.7354L76.2068 54.9265V25.03V24.9263C76.1629 23.5323 75.0676 22.4147 73.7313 22.4147C72.3621 22.4147 71.2558 23.5783 71.2558 25.0069V44.6902L68.7439 44.7596V20.0529C68.7439 18.6128 67.6376 17.4492 66.2684 17.4492C64.8993 17.4492 63.793 18.6128 63.793 20.0529C63.793 20.0645 63.793 20.076 63.793 20.0875V72.0699C65.7974 72.0699 67.6157 71.7012 69.3573 70.8833C76.0607 68.0837 81.406 56.7932 85.6339 49.823C85.6778 49.7539 85.7216 49.6848 85.7654 49.6156L85.7873 49.5695V49.558C86.0064 49.1318 86.1378 48.6479 86.1378 48.141C86.1378 46.528 84.8891 45.2146 83.3556 45.2146C82.3041 45.2262 81.395 45.8368 80.913 46.7354Z" fill="white"/>
<path d="M63.7931 10H36.7996C35.2632 10 34 11.264 34 12.8013V58.7157C34 64.5005 38.0628 69.1125 42.9449 71.5494L59.6399 80.4089L62.2801 81.8095C62.6329 81.9917 63.7931 82 63.7931 82V10Z" fill="#C21F24"/>
<path d="M48.8958 34.9162V32.3881C48.9179 30.9837 50.0222 29.8623 51.3915 29.8623C52.7607 29.8623 53.876 30.995 53.8871 32.3881V32.4221V32.4334V32.4448L53.8984 44.7589H55.2787H56.3499V24.9285C56.372 23.5354 57.4873 22.4141 58.8455 22.4141C60.2148 22.4141 61.3191 23.5354 61.3412 24.9285V24.9399C61.3412 24.9512 61.3412 24.9625 61.3412 24.9738C61.3412 24.9852 61.3412 24.9965 61.3412 25.0078V42.2761H63.7926V72.0692C55.9965 72.0692 48.8961 65.5905 48.8961 57.5034L48.8848 37.399L48.8958 34.9162Z" fill="#ADB5BD"/>
</svg>
