<svg width="128" height="128" viewBox="0 0 128 128" fill="none" xmlns="http://www.w3.org/2000/svg">
<path d="M43.2288 82.1688L43.1646 83.6872L36.6947 83.7288C36.5795 79.6971 36.6141 75.2382 36.7081 71.1478L42.8912 71.1047C42.9389 71.1814 42.9891 71.2639 43.0432 71.3532L43.0664 71.3914C43.257 71.7059 43.5044 72.1142 43.8156 72.4982L43.855 72.5469L43.8984 72.5921C48.5889 77.4822 55.5598 78.7585 61.8541 77.0445L62.02 76.9993L62.1714 76.9178L62.1922 76.9066C62.3956 76.7971 62.7887 76.5857 63.1265 76.2812C63.4772 75.965 63.9107 75.4194 63.9534 74.6348C64.0678 73.6982 63.5923 72.9788 63.2063 72.5724C62.7933 72.1376 62.2864 71.8356 61.8847 71.6559L61.8196 71.6268L61.7519 71.6039C59.113 70.7136 56.4384 69.9281 53.8017 69.1537C53.5931 69.0924 53.3847 69.0312 53.1766 68.9701C50.3318 68.1338 47.5335 67.3006 44.8036 66.3377C40.9457 64.8806 37.3207 61.9215 36.6543 58.285L36.6486 58.2534L36.6414 58.2222C35.6767 53.9864 36.8512 49.3917 40.2985 46.894C45.9544 42.8369 54.9303 43.0071 61.4975 45.7387L64.3031 47.2394L65.7527 48.0148L66.3924 46.5003C66.6396 45.9149 66.6765 45.2982 66.6778 44.8551C68.6403 44.797 70.7967 44.7908 72.7738 44.818C72.7896 45.6916 72.8072 46.5453 72.8246 47.3867C72.8878 50.4391 72.9477 53.3295 72.9018 56.4221C71.0802 56.4636 69.2251 56.4556 67.4539 56.4479C67.0451 56.4461 66.6407 56.4444 66.2422 56.4433C63.2641 52.4129 58.494 50.9801 54.2415 50.3817L54.1573 50.3699L54.0722 50.3676C53.7558 50.3592 53.4418 50.3377 53.0875 50.3134C52.8993 50.3005 52.6998 50.2868 52.4826 50.2739C51.8995 50.2393 51.2384 50.2149 50.5812 50.2704C49.257 50.3821 47.6894 50.8489 46.7439 52.4585L46.6081 52.6898L46.5608 52.9539C46.3134 54.3356 47.0083 55.378 47.7565 56.0151L47.8969 56.1347L48.0622 56.2167L49.1794 56.7712L49.3006 56.8313L49.4305 56.8687L64.5388 61.2272L64.5618 61.2339L64.5851 61.2398C66.8176 61.8072 69.0946 63.1563 70.89 64.9763C72.6876 66.7986 73.9086 68.9951 74.1976 71.1971C74.8065 75.9335 72.6103 80.2899 68.4867 82.5599C62.5823 85.5953 54.7499 85.088 48.5492 82.5238C48.2626 82.3742 47.9598 82.2113 47.6473 82.0433C46.9087 81.6461 46.1161 81.2198 45.3543 80.8694L43.3233 79.9354L43.2288 82.1688ZM86.92 46.8246L86.9446 46.8121L86.9687 46.7987C94.8381 42.4145 106.6 42.7578 114.25 47.604C116.851 49.3672 118.92 51.7669 119.911 54.3628C122.587 61.6102 122.233 71.1644 117.979 77.4205C116.157 79.7503 113.709 81.4898 111.125 82.5635L111.117 82.5667L111.11 82.57L110.845 82.6834L110.788 82.7079L110.733 82.7371C109.986 83.1336 108.791 83.442 108.421 83.5131L108.361 83.5247L108.302 83.5411C99.6357 85.9525 90.0351 84.6177 83.5104 78.9194C78.1032 73.6313 77.5666 65.0611 79.2172 57.4668L79.2203 57.4524L79.2231 57.438C80.0808 53.0812 82.8326 48.9085 86.92 46.8246ZM108.051 71.6273L108.057 71.5981L108.062 71.5687C108.396 69.6614 108.474 67.6284 108.481 65.6808C108.485 64.7966 108.475 63.9616 108.465 63.1549C108.453 62.11 108.441 61.1127 108.46 60.1181L108.462 60.0205L108.451 59.9236C108.417 59.617 108.392 59.307 108.364 58.9684C108.357 58.8806 108.35 58.7908 108.342 58.6987C108.307 58.2663 108.264 57.7953 108.194 57.3218C108.053 56.3797 107.789 55.3196 107.147 54.3536L107.119 54.3117L107.088 54.2718C105.124 51.7078 102.092 51.3514 99.5956 51.3514H99.5372L99.4789 51.3559C97.1687 51.5361 93.6785 52.1824 92.3922 55.4999L92.3726 55.5507L92.3566 55.6027C91.1711 59.4717 91.3771 63.8668 91.5603 67.7769C91.5746 68.0812 91.5887 68.3826 91.602 68.6805L91.6044 68.7338L91.6106 68.7867C91.6192 68.8611 91.6279 68.9371 91.6367 69.0143C91.8643 71.0037 92.1924 73.8721 94.6758 75.6084L94.7392 75.6528L94.8069 75.6904C97.4663 77.1677 101.303 77.5428 104.262 76.2636C106.429 75.4701 107.662 73.4262 108.051 71.6273ZM24.7575 74.9237L24.7537 76.2545L26.0747 76.4168C27.1716 76.5515 28.3288 76.5666 29.4136 76.5678C29.5976 76.568 29.7792 76.5678 29.9586 76.5676C30.357 76.5672 30.7443 76.5669 31.1221 76.5707L31.1211 83.7396H6.54836C6.48362 81.357 6.48388 78.9731 6.54916 76.5905L11.3072 76.4934L12.6769 76.4655L12.7729 75.0989L12.8331 74.242L12.8368 74.1895V74.1369V53.2854V51.9185L11.4758 51.7918C10.049 51.659 8.59956 51.6436 7.1957 51.6287C7.00807 51.6267 6.82125 51.6247 6.6354 51.6224C6.60433 49.1957 6.60421 46.5999 6.63504 44.2061L9.04316 44.1644L31.1275 44.2261C31.2128 46.5639 31.1904 49.1377 31.1484 51.6723L26.4305 51.7183L25.6608 51.7258L25.2181 52.3554L25.0921 52.5346L24.8205 52.9209L24.8192 53.3931L24.7575 74.9237Z" stroke="#DA1F24" stroke-width="3"/>
<mask id="mask0" mask-type="alpha" maskUnits="userSpaceOnUse" x="12" y="91" width="104" height="28">
<rect width="104" height="28" transform="matrix(1 0 0 -1 12 119)" fill="#C4C4C4"/>
</mask>
<g mask="url(#mask0)">
<path d="M116 66.8333C116 94.9538 92.7188 117.75 64 117.75C45.8107 117.75 29.8026 108.605 20.5093 94.7554C15.1296 86.7378 12 77.1434 12 66.8333" stroke="#DA1F24" stroke-width="3"/>
<path d="M92 68C92 89.0585 83.835 106.899 72.5556 113M36 68C36 89.0585 44.165 106.899 55.4444 113" stroke="#DA1F24" stroke-width="3"/>
<path d="M64 91L64 111" stroke="#DA1F24" stroke-width="3"/>
<path d="M77.9583 115.895C73.8819 112.947 69.1056 111.251 63.9993 111.251C58.908 111.251 54.1448 112.937 50.0762 115.869" stroke="#DA1F24" stroke-width="3"/>
<path d="M95.9587 107.105C87.6174 101.616 76.3721 98.2512 64.0003 98.2512C51.6286 98.2512 40.3833 101.616 32.042 107.105" stroke="#DA1F24" stroke-width="3"/>
</g>
<mask id="mask1" mask-type="alpha" maskUnits="userSpaceOnUse" x="12" y="9" width="104" height="28">
<rect x="12" y="9" width="104" height="28" fill="#C4C4C4"/>
</mask>
<g mask="url(#mask1)">
<path d="M116 61.1667C116 33.0462 92.7188 10.25 64 10.25C45.8107 10.25 29.8026 19.3946 20.5093 33.2446C15.1296 41.2622 12 50.8566 12 61.1667" stroke="#DA1F24" stroke-width="3"/>
<path d="M92 60C92 38.9415 83.835 21.1009 72.5556 15M36 60C36 38.9415 44.165 21.1009 55.4444 15" stroke="#DA1F24" stroke-width="3"/>
<path d="M64 37L64 17" stroke="#DA1F24" stroke-width="3"/>
<path d="M77.9583 12.1055C73.8819 15.0533 69.1056 16.7491 63.9993 16.7491C58.908 16.7491 54.1448 15.0632 50.0762 12.1313" stroke="#DA1F24" stroke-width="3"/>
<path d="M95.9587 20.8945C87.6174 26.384 76.3721 29.7488 64.0003 29.7488C51.6286 29.7488 40.3833 26.384 32.042 20.8945" stroke="#DA1F24" stroke-width="3"/>
</g>
</svg>
