<svg width="128" height="128" viewBox="0 0 128 128" fill="none" xmlns="http://www.w3.org/2000/svg">
<path d="M38.3998 21.5293C23.0961 30.3821 12.7998 46.9285 12.7998 65.8797C12.7998 94.1567 35.7228 117.08 63.9998 117.08C66.5578 117.08 69.0719 116.892 71.5292 116.53M56.4704 15.2294C58.9277 14.8673 61.4419 14.6797 63.9998 14.6797C92.2768 14.6797 115.2 37.6027 115.2 65.8797C115.2 84.8309 104.904 101.377 89.5998 110.23" stroke="#DA1F24" stroke-width="3"/>
<path d="M42.1827 26.4526L40.8837 27.2026L43.4942 27.1806L42.1827 26.4526ZM47.8652 16.2165L49.1766 16.9445L50.39 14.7587L47.8904 14.7167L47.8652 16.2165ZM36.1592 16.0195L36.1844 14.5197L34.8601 16.7695L36.1592 16.0195ZM43.4942 27.1806L49.1766 16.9445L46.5537 15.4884L40.8712 25.7245L43.4942 27.1806ZM47.8904 14.7167L36.1844 14.5197L36.1339 17.5193L47.8399 17.7162L47.8904 14.7167ZM34.8601 16.7695L40.8837 27.2026L43.4817 25.7026L37.4582 15.2695L34.8601 16.7695Z" fill="#DA1F24"/>
<path d="M85.8173 105.395L87.1163 104.645L84.5058 104.667L85.8173 105.395ZM80.1348 115.631L78.8234 114.903L77.61 117.089L80.1096 117.131L80.1348 115.631ZM91.8408 115.828L91.8156 117.328L93.1399 115.078L91.8408 115.828ZM84.5058 104.667L78.8234 114.903L81.4463 116.359L87.1288 106.123L84.5058 104.667ZM80.1096 117.131L91.8156 117.328L91.8661 114.328L80.1601 114.131L80.1096 117.131ZM93.1399 115.078L87.1163 104.645L84.5183 106.145L90.5418 116.578L93.1399 115.078Z" fill="#DA1F24"/>
<path d="M54.964 79.8966L56.4413 79.6365L56.3198 78.9466L55.7129 78.5969L54.964 79.8966ZM73.0346 79.8966L72.2857 78.5969L71.6788 78.9466L71.5573 79.6365L73.0346 79.8966ZM70.0228 96.9988V98.4988L71.5001 97.259L70.0228 96.9988ZM57.9758 96.9988L56.4985 97.259L57.9758 98.4988V96.9988ZM47.4287 64.3047C47.4287 55.1975 54.8421 47.8047 63.9993 47.8047V44.8047C53.1963 44.8047 44.4287 53.5296 44.4287 64.3047H47.4287ZM63.9993 47.8047C73.1565 47.8047 80.5699 55.1975 80.5699 64.3047H83.5699C83.5699 53.5296 74.8023 44.8047 63.9993 44.8047V47.8047ZM55.7129 78.5969C50.7555 75.7404 47.4287 70.4072 47.4287 64.3047H44.4287C44.4287 71.5272 48.3699 77.8282 54.2151 81.1963L55.7129 78.5969ZM80.5699 64.3047C80.5699 70.4072 77.2431 75.7404 72.2857 78.5969L73.7835 81.1963C79.6287 77.8282 83.5699 71.5272 83.5699 64.3047H80.5699ZM71.5573 79.6365L68.5456 96.7387L71.5001 97.259L74.5119 80.1568L71.5573 79.6365ZM70.0228 95.4988H57.9758V98.4988H70.0228V95.4988ZM59.453 96.7387L56.4413 79.6365L53.4867 80.1568L56.4985 97.259L59.453 96.7387Z" fill="#DA1F24"/>
<line x1="56" y1="84.5" x2="72.5647" y2="84.5" stroke="#DA1F24" stroke-width="3"/>
<line x1="57" y1="90.5" x2="71" y2="90.5" stroke="#DA1F24" stroke-width="3"/>
<path d="M54.964 79.8966L56.4413 79.6365L56.3198 78.9466L55.7129 78.5969L54.964 79.8966ZM73.0346 79.8966L72.2857 78.5969L71.6788 78.9466L71.5573 79.6365L73.0346 79.8966ZM70.0228 96.9988V98.4988L71.5001 97.259L70.0228 96.9988ZM57.9758 96.9988L56.4985 97.259L57.9758 98.4988V96.9988ZM47.4287 64.3047C47.4287 55.1975 54.8421 47.8047 63.9993 47.8047V44.8047C53.1963 44.8047 44.4287 53.5296 44.4287 64.3047H47.4287ZM63.9993 47.8047C73.1565 47.8047 80.5699 55.1975 80.5699 64.3047H83.5699C83.5699 53.5296 74.8023 44.8047 63.9993 44.8047V47.8047ZM55.7129 78.5969C50.7555 75.7404 47.4287 70.4072 47.4287 64.3047H44.4287C44.4287 71.5272 48.3699 77.8282 54.2151 81.1963L55.7129 78.5969ZM80.5699 64.3047C80.5699 70.4072 77.2431 75.7404 72.2857 78.5969L73.7835 81.1963C79.6287 77.8282 83.5699 71.5272 83.5699 64.3047H80.5699ZM71.5573 79.6365L68.5456 96.7387L71.5001 97.259L74.5119 80.1568L71.5573 79.6365ZM70.0228 95.4988H57.9758V98.4988H70.0228V95.4988ZM59.453 96.7387L56.4413 79.6365L53.4867 80.1568L56.4985 97.259L59.453 96.7387Z" fill="#DA1F24"/>
<line x1="64.0059" y1="38.7734" x2="64.0059" y2="29.7381" stroke="#DA1F24" stroke-width="3"/>
<path d="M54.9648 64.3756C54.9648 60.1656 57.8443 56.628 61.7413 55.625" stroke="#DA1F24" stroke-width="3"/>
<line x1="82.1063" y1="46.2792" x2="88.4952" y2="39.8903" stroke="#DA1F24" stroke-width="3"/>
<line x1="45.9022" y1="46.2677" x2="39.5133" y2="39.8788" stroke="#DA1F24" stroke-width="3"/>
<line x1="38.4004" y1="64.3711" x2="29.3651" y2="64.3711" stroke="#DA1F24" stroke-width="3"/>
<line x1="98.6357" y1="64.3711" x2="89.6004" y2="64.3711" stroke="#DA1F24" stroke-width="3"/>
<line x1="88.495" y1="88.8614" x2="82.1061" y2="82.4725" stroke="#DA1F24" stroke-width="3"/>
<line x1="45.8937" y1="82.4747" x2="39.5048" y2="88.8636" stroke="#DA1F24" stroke-width="3"/>
</svg>
