<svg width="48" height="48" viewBox="0 0 48 48" fill="none" xmlns="http://www.w3.org/2000/svg">
<path fill-rule="evenodd" clip-rule="evenodd" d="M23.0586 40.0242C14.2089 40.0242 7.03477 32.8501 7.03477 24.0004C7.03477 15.1507 14.2089 7.97656 23.0586 7.97656C29.1347 7.97656 34.4209 11.3585 37.1376 16.3427L31.4294 14.8132L30.9118 16.745L38.6909 18.8294L39.6568 19.0882L39.9156 18.1223L42 10.3432L40.0681 9.82558L38.6804 15.0046C35.5663 9.60838 29.7366 5.97656 23.0586 5.97656C13.1043 5.97656 5.03477 14.0461 5.03477 24.0004C5.03477 33.9546 13.1043 42.0242 23.0586 42.0242C32.3369 42.0242 39.9778 35.0132 40.9727 26H38.9588C37.9746 33.906 31.2311 40.0242 23.0586 40.0242Z" fill="#DB0812"/>
<path d="M12 29V27.4691L15.4556 24.5056C15.8882 24.1217 16.2314 23.8081 16.4853 23.5646C16.7486 23.3118 16.9366 23.073 17.0495 22.8483C17.1623 22.6236 17.2187 22.3801 17.2187 22.118C17.2187 21.7154 17.1059 21.3923 16.8802 21.1489C16.6639 20.8961 16.3301 20.7697 15.8788 20.7697C15.3616 20.7697 14.962 20.9101 14.6799 21.191C14.3978 21.4625 14.2567 21.9307 14.2567 22.5955H12.141C12.141 21.8558 12.2821 21.2191 12.5642 20.6854C12.8463 20.1423 13.2647 19.7257 13.8195 19.4354C14.3837 19.1451 15.0701 19 15.8788 19C16.631 19 17.2657 19.1358 17.7829 19.4073C18.3001 19.6695 18.6856 20.0346 18.9395 20.5028C19.2028 20.971 19.3344 21.5094 19.3344 22.118C19.3344 22.5674 19.2263 22.9888 19.01 23.382C18.8032 23.7753 18.5258 24.1498 18.1779 24.5056C17.8299 24.8614 17.4397 25.2172 17.0072 25.573L14.9761 27.2584H19.4755V29H12Z" fill="#DB0812"/>
<path d="M24.957 29V26.9213H20.3025V25.4607L24.957 19.1685H27.0727V25.1798H28.187V26.9213H27.0727V29H24.957ZM22.2771 25.1798H24.957V21.514L22.2771 25.1798Z" fill="#DB0812"/>
<path d="M33.5652 29V26.7925C33.3986 26.8981 33.1993 26.9925 32.9674 27.0755C32.7355 27.1585 32.4529 27.2 32.1196 27.2C31.4167 27.2 30.8877 27.0264 30.5326 26.6792C30.1775 26.3245 30 25.7774 30 25.0377V23H31.4348V24.8679C31.4348 25.2604 31.5109 25.5358 31.663 25.6943C31.8225 25.8528 32.1014 25.9321 32.5 25.9321C32.7754 25.9321 33 25.8981 33.1739 25.8302C33.3551 25.7623 33.4855 25.6981 33.5652 25.6377V23H35V29H33.5652Z" fill="#DB0812"/>
</svg>
