<svg width="48" height="48" viewBox="0 0 48 48" fill="none" xmlns="http://www.w3.org/2000/svg">
<path fill-rule="evenodd" clip-rule="evenodd" d="M23.9756 40.0242C32.8253 40.0242 39.9994 32.8501 39.9994 24.0004C39.9994 15.1507 32.8253 7.97656 23.9756 7.97656C17.8995 7.97656 12.6133 11.3585 9.89659 16.3427L15.6048 14.8132L16.1224 16.745L8.34332 18.8294L7.3774 19.0882L7.11858 18.1223L5.03418 10.3432L6.96603 9.82558L8.35375 15.0046C11.4678 9.60838 17.2976 5.97656 23.9756 5.97656C33.9299 5.97656 41.9994 14.0461 41.9994 24.0004C41.9994 33.9546 33.9299 42.0242 23.9756 42.0242C14.6972 42.0242 7.05633 35.0132 6.06149 26H8.07538C9.05956 33.906 15.8031 40.0242 23.9756 40.0242Z" fill="#DB0812"/>
<path d="M23 15V25.0465L29 31" stroke="#DB0812" stroke-width="2"/>
</svg>
