<svg width="40" height="40" viewBox="0 0 40 40" fill="none" xmlns="http://www.w3.org/2000/svg">
<path fill-rule="evenodd" clip-rule="evenodd" d="M16.332 8.66797H10.332V14.668H16.332V8.66797ZM10.332 6.66797H8.33203V8.66797V10.5L1.66602 10.5V12.5L8.33203 12.5V14.668V16.668H10.332H16.332H18.332V14.668V12.5L38.332 12.5V10.5L18.332 10.5V8.66797V6.66797H16.332H10.332ZM33.666 30.0039H36.3327H38.3327V28.0039H36.3327H33.666H31.666V26.0039V25.3359V23.3359H29.666H23.666H21.666V25.3359V26.0039V28.0039H19.666H3.66602H1.66602V30.0039H3.66602H19.666H21.666V31.3359V32.0039V33.3359H23.666H29.666H31.666V32.0039V31.3359V30.0039H33.666ZM23.666 25.3359H25.666H27.666H29.666V27.3359V28.0039V29.3359V30.0039V31.3359H27.666H25.666H23.666V30.0039V29.3359V28.0039V27.3359V25.3359Z" fill="#DB0812"/>
</svg>
