<?xml version="1.0" encoding="UTF-8"?>
<svg width="40" height="40" version="1.1" viewBox="0 0 40 40" xmlns="http://www.w3.org/2000/svg"><path d="m2.6523 6.4064c-0.73477 0-1.4466 0.28875-1.9297 0.80859-0.48311 0.51984-0.72266 1.2289-0.72266 1.9688v12.445c0 0.73988 0.23953 1.4489 0.72266 1.9688 0.48312 0.51984 1.1949 0.80859 1.9297 0.80859h34.695c0.73476 0 1.4466-0.28875 1.9297-0.80859 0.48312-0.51984 0.72266-1.2289 0.72266-1.9688v-12.445c0-0.73984-0.23955-1.4489-0.72266-1.9688-0.48311-0.51985-1.1949-0.80859-1.9297-0.80859zm0 2h34.695c0.25656 0 0.3697 0.067545 0.46484 0.16992 0.095142 0.10238 0.1875 0.2806 0.1875 0.60742v12.445c0 0.32687-0.09237 0.50506-0.1875 0.60742-0.09513 0.10236-0.20826 0.16992-0.46484 0.16992h-34.695c-0.25656 0-0.36971-0.06755-0.46484-0.16992-0.095138-0.10237-0.1875-0.28056-0.1875-0.60742v-12.445c0-0.32681 0.092351-0.50504 0.1875-0.60742 0.095149-0.10238 0.2083-0.16992 0.46484-0.16992zm31.348 2c-1.0957 0-2 0.9043-2 2 0 1.0957 0.9043 2 2 2 1.0956 0 2-0.9043 2-2s-0.90435-2-2-2zm0 1.5c0.28489 0 0.5 0.21499 0.5 0.5 0 0.28501-0.21511 0.5-0.5 0.5-0.2851 0-0.5-0.21499-0.5-0.5 0-0.28501 0.2149-0.5 0.5-0.5zm-28.988 4.5c-1.3501-0.01913-1.3501 2.0191 0 2h29.977c1.3501 0.01912 1.3501-2.0191 0-2zm0 3c-1.3501-0.01913-1.3501 2.0191 0 2h29.977c1.3501 0.01912 1.3501-2.0191 0-2zm9.3672 5.8633a1.0001 1.0001 0 0 0-0.45117 0.11524c-0.86585 0.4435-1.5273 1.2137-1.5273 2.1484s0.6615 1.7069 1.5273 2.1504c0.44457 0.22766 0.43945 0.37912 0.43945 0.36719 0-0.01193 0.0051 0.14148-0.43945 0.36914a1.0001 1.0001 0 1 0 0.91211 1.7793c0.86593-0.44344 1.5273-1.2137 1.5273-2.1484 0-0.93478-0.66142-1.705-1.5273-2.1484-0.44455-0.2277-0.43945-0.38103-0.43945-0.36914 0 0.01189-0.0051-0.13948 0.43945-0.36719a1.0001 1.0001 0 0 0-0.46094-1.8965zm11.232 0a1.0001 1.0001 0 0 0-0.45117 0.11524c-0.86589 0.44348-1.5273 1.2137-1.5273 2.1484 0 0.93478 0.66145 1.7069 1.5273 2.1504 0.44452 0.22765 0.43945 0.37908 0.43945 0.36719 0-0.01189 0.0051 0.14149-0.43945 0.36914a1.0001 1.0001 0 1 0 0.91211 1.7793c0.86588-0.44345 1.5273-1.2137 1.5273-2.1484 0-0.93474-0.66146-1.705-1.5273-2.1484-0.44461-0.22772-0.43945-0.38107-0.43945-0.36914 0 0.01193-0.0052-0.13947 0.43945-0.36719a1.0001 1.0001 0 0 0-0.46094-1.8965zm-5.6172 1.6777a1.0001 1.0001 0 0 0-0.44922 0.11523c-0.86593 0.44344-1.5273 1.2156-1.5273 2.1504 0 0.93428 0.66015 1.7049 1.5254 2.1484 0.44455 0.2277 0.43945 0.37908 0.43945 0.36719 0-0.01189 0.0051 0.14144-0.43945 0.36914a1.0001 1.0001 0 1 0 0.91211 1.7793c0.86585-0.4435 1.5273-1.2137 1.5273-2.1484 0-0.93474-0.6615-1.7049-1.5273-2.1484-0.44457-0.22766-0.4375-0.37912-0.4375-0.36719 0 0.01193-0.0071-0.14148 0.4375-0.36914a1.0001 1.0001 0 0 0-0.46094-1.8965z"/></svg>
