<?xml version="1.0" encoding="UTF-8"?>
<svg width="40" height="40" version="1.1" viewBox="0 0 40 40" xmlns="http://www.w3.org/2000/svg"><path d="m13 1a1.0001 1.0001 0 0 0-1 1v8.5664l-10.721 11.742a1.0001 1.0001 0 0 0-0.0078125 0.005859l-0.0097656 0.011719a1.0001 1.0001 0 0 0-0.0625 0.076172 1.0001 1.0001 0 0 0-0.0019532 0.001953 1.0001 1.0001 0 0 0-0.0097656 0.013672 1.0001 1.0001 0 0 0-0.042969 0.066406 1.0001 1.0001 0 0 0-0.0019531 0.001953 1.0001 1.0001 0 0 0-0.0058593 0.009766 1.0001 1.0001 0 0 0-0.041016 0.078125 1.0001 1.0001 0 0 0 0 0.001953 1.0001 1.0001 0 0 0-0.064453 0.18164 1.0001 1.0001 0 0 0-0.0058594 0.029297 1.0001 1.0001 0 0 0-0.015625 0.070313 1.0001 1.0001 0 0 0-0.0019531 0.02539 1.0001 1.0001 0 0 0-0.0078125 0.13086v5.9863a1.0001 1.0001 0 0 0 1 1h36a1.0001 1.0001 0 0 0 1-1v-5.9863a1.0001 1.0001 0 0 0-0.027344-0.24219 1.0001 1.0001 0 0 0-0.003906-0.011718 1.0001 1.0001 0 0 0-0.023438-0.083985 1.0001 1.0001 0 0 0-0.019531-0.052734 1.0001 1.0001 0 0 0-0.017578-0.041016 1.0001 1.0001 0 0 0-0.007812-0.015625 1.0001 1.0001 0 0 0-0.15625-0.23438 1.0001 1.0001 0 0 0-0.00586-0.005859l-10.738-11.76v-8.5664a1.0001 1.0001 0 0 0-1-1h-14zm1 2h12v7h-12v-7zm-0.60156 9h13.203l9.1309 10h-31.465l9.1309-10zm-10.398 12h34v4h-34v-4zm12.285 7.002a1.0001 1.0001 0 0 0-0.44726 0.12891c-0.76171 0.4174-1.3379 1.1461-1.3379 2 0 0.8539 0.57618 1.5807 1.3379 1.998 0.33054 0.18113 0.30078 0.27699 0.30078 0.24609 0-0.0309 0.02976 0.06301-0.30078 0.24414a1.0001 1.0001 0 1 0 0.96094 1.7539c0.76173-0.4174 1.3398-1.1442 1.3398-1.998s-0.57812-1.5826-1.3398-2c-0.33056-0.18114-0.29883-0.27509-0.29883-0.24414 0 0.03095-0.03173-0.06495 0.29883-0.24609a1.0001 1.0001 0 0 0-0.51367-1.8828zm9.3633 0a1.0001 1.0001 0 0 0-0.44727 0.12891c-0.76173 0.41741-1.3398 1.1461-1.3398 2 0 0.85389 0.57812 1.5806 1.3398 1.998 0.33056 0.18114 0.29883 0.27704 0.29883 0.24609 0-0.03095 0.03173 0.063-0.29883 0.24414a1.0001 1.0001 0 1 0 0.96094 1.7539c0.76171-0.4174 1.3379-1.1442 1.3379-1.998s-0.57618-1.5826-1.3379-2c-0.33054-0.18113-0.30078-0.27504-0.30078-0.24414 0 0.0309-0.02976-0.06497 0.30078-0.24609a1.0001 1.0001 0 0 0-0.51367-1.8828zm-4.6816 1.4961a1.0001 1.0001 0 0 0-0.44727 0.12891c-0.76175 0.41735-1.3379 1.1461-1.3379 2 0 0.85389 0.57616 1.5806 1.3379 1.998 0.33054 0.18113 0.30078 0.27699 0.30078 0.24609 0-0.0309 0.02976 0.06301-0.30078 0.24414a1.0001 1.0001 0 1 0 0.96094 1.7539c0.76173-0.41741 1.3398-1.1442 1.3398-1.998 0-0.85389-0.57812-1.5826-1.3398-2-0.33054-0.18113-0.29883-0.27506-0.29883-0.24414 0 0.03092-0.03169-0.06501 0.29883-0.24609a1.0001 1.0001 0 0 0-0.51367-1.8828z"/></svg>
