<?xml version="1.0" encoding="UTF-8"?>
<svg width="40" height="40" version="1.1" viewBox="0 0 40 40" xmlns="http://www.w3.org/2000/svg"><path d="m20 1c-8.8247 0-16 7.1753-16 16 0 7.7983 5.6068 14.298 13 15.707v2.293h-2.4453a1.0001 1.0001 0 0 0-0.88672 0.53906l-1.5566 3a1.0001 1.0001 0 0 0 0.88867 1.4609h14a1.0001 1.0001 0 0 0 0.88867-1.4609l-1.5566-3a1.0001 1.0001 0 0 0-0.88672-0.53906h-2.4453v-2.293c7.3932-1.4089 13-7.9087 13-15.707 0-8.8247-7.1753-16-16-16zm0 2c7.7438 0 14 6.2562 14 14 0 7.7438-6.2562 14-14 14-7.7438 0-14-6.2562-14-14 0-7.7438 6.2562-14 14-14zm-5.7656 5.0078c-0.85996-0.059312-1.7299 0.21623-2.3691 0.85547a1.0001 1.0001 0 0 0-0.060546 0.066406c-1.1641 1.3969-0.96737 3.5394 0.53516 4.541l4.2344 2.8223c-0.04774 0.22893-0.074219 0.46473-0.074219 0.70703 0 0.24165 0.026719 0.47672 0.074219 0.70508l-4.2344 2.8242 0.058594-0.037109c-0.87678 0.50101-1.3308 1.4125-1.3906 2.2734-0.05982 0.86089 0.21584 1.7315 0.85547 2.3711a1.0001 1.0001 0 0 0 0.066407 0.060547c1.3975 1.1645 3.5397 0.96491 4.541-0.53711l2.8242-4.2344c0.22835 0.0475 0.46343 0.074219 0.70508 0.074219s0.47672-0.026719 0.70508-0.074219l2.8242 4.2344-0.037109-0.058594c0.50101 0.87677 1.4126 1.3308 2.2734 1.3906 0.86088 0.059809 1.7315-0.21589 2.3711-0.85547a1.0001 1.0001 0 0 0 0.060547-0.066407c1.1646-1.3975 0.965-3.5397-0.53711-4.541l-4.2344-2.8242c0.0475-0.22836 0.074219-0.46343 0.074219-0.70508s-0.026719-0.47672-0.074219-0.70508l4.2344-2.8223-0.058594 0.03711c0.87718-0.50122 1.3308-1.4142 1.3906-2.2754 0.059779-0.86115-0.21558-1.7312-0.85547-2.3711a1.0001 1.0001 0 0 0-0.066407-0.060547c-0.52433-0.43694-1.1514-0.68005-1.7773-0.73633-1.045-0.09394-2.1381 0.33508-2.7637 1.2734l-2.8223 4.2344c-0.22893-0.04775-0.46473-0.074219-0.70703-0.074219-0.24165 0-0.47672 0.026719-0.70508 0.074219l-2.8223-4.2344 0.03711 0.058594c-0.50139-0.8774-1.4141-1.3312-2.2754-1.3906zm-0.13672 1.9961c0.30962 0.02135 0.52919 0.13361 0.67383 0.38672a1.0001 1.0001 0 0 0 0.03711 0.058594l2.7148 4.0742-4.0742-2.7168c-0.42317-0.28211-0.53156-1.0074-0.125-1.5449 0.17616-0.15439 0.47959-0.27808 0.77344-0.25781zm12.016 0.054688c0.21862 0.01965 0.43169 0.1135 0.62305 0.25781 0.15576 0.17497 0.2803 0.48549 0.25977 0.78125-0.02156 0.31062-0.13331 0.52903-0.38672 0.67383a1.0001 1.0001 0 0 0-0.058594 0.03711l-4.0742 2.7148 2.7168-4.0742c0.18194-0.2729 0.52643-0.426 0.91992-0.39062zm-6.1133 5.4414c0.84023 0 1.5 0.65972 1.5 1.5s-0.65972 1.5-1.5 1.5c-0.84028 0-1.5-0.65972-1.5-1.5s0.65977-1.5 1.5-1.5zm-2.4766 3.9766-2.7168 4.0742c-0.28246 0.4237-1.0079 0.53294-1.5449 0.12695-0.15415-0.17603-0.27816-0.4806-0.25781-0.77344 0.02154-0.30991 0.13296-0.52882 0.38672-0.67383a1.0001 1.0001 0 0 0 0.058594-0.03711l4.0742-2.7168zm4.9531 0 4.0742 2.7168c0.42367 0.28242 0.53289 1.008 0.12695 1.5449-0.17605 0.15416-0.48061 0.27816-0.77344 0.25781-0.30991-0.02153-0.52881-0.13294-0.67383-0.38672a1.0001 1.0001 0 0 0-0.03711-0.058594l-2.7168-4.0742zm-3.4766 13.473c0.33226 0.020668 0.66261 0.050781 1 0.050781 0.3374 0 0.66774-0.030113 1-0.050781v2.0508h-2v-2.0508zm-3.8359 4.0508h9.6719l0.51953 1h-10.711l0.51953-1z"/></svg>
