<?xml version="1.0" encoding="UTF-8"?>
<svg width="40" height="40" version="1.1" viewBox="0 0 40 40" xmlns="http://www.w3.org/2000/svg"><path d="m20.623 1a1.0001 1.0001 0 0 0-0.69336 0.29297l-4.791 4.791a1.0001 1.0001 0 0 0 0 1.4141l1.332 1.332-8.1309 7.1953a1.0001 1.0001 0 0 0-0.00586 0.0059c-0.11143-0.01236-0.22242-0.031291-0.33398-0.031291-0.82219 0-1.5895 0.37461-2.1074 0.89258-0.63579 0.63569-0.89258 1.3741-0.89258 2.1074 0 0.73336 0.25678 1.4717 0.89258 2.1074 0.56841 0.56851 1.2195 0.82126 1.875 0.87109l8.5117 11.021h-6.2793a1.0001 1.0001 0 0 0-1 1v4a1.0001 1.0001 0 0 0 1 1h19a1.0001 1.0001 0 0 0 1-1v-4a1.0001 1.0001 0 0 0-1-1h-10.258a1.0005 1.0005 0 0 0-0.15039-0.2793l-8.7813-11.367c0.10286-0.079439 0.20779-0.157 0.29688-0.24609 0.63578-0.63569 0.89258-1.3741 0.89258-2.1074 0-0.68212-0.23661-1.3646-0.7793-1.9688l7.666-6.7852 0.55273 0.55273c-1.3585 3.7049-0.5611 8.0209 2.4141 10.996a1.0001 1.0001 0 0 0 1.4141 0l3.8574-3.8574 1.9238 1.9219c1.5228 1.5229 4.0083 1.3024 5.4824-0.17188a1.0001 1.0001 0 0 0 0.08203-0.0918c0.53929-0.68937 1.0085-1.4988 1.0859-2.4902 0.09392-1.2028-0.38471-2.2929-1.1289-3.0371l-1.7891-1.7871 3.8594-3.8594a1.0001 1.0001 0 0 0 0-1.4141c-2.0425-2.0425-4.7189-3.0645-7.3945-3.0645-1.2218 2e-7 -2.4403 0.2243-3.6016 0.65039l-3.3008-3.3008a1.0001 1.0001 0 0 0-0.7207-0.29297zm0.01367 2.4141 2.1074 2.1074c-0.67015 0.41629-1.3085 0.90423-1.8906 1.4863-0.58211 0.5821-1.0701 1.2203-1.4863 1.8906l-2.1074-2.1074zm7.6094 2.5117c1.8318 5e-7 3.6035 0.73129 5.1328 1.9297l-11.678 11.678c-2.6103-3.3309-2.5088-8.0361 0.56641-11.111 1.6633-1.6633 3.8204-2.4961 5.9785-2.4961zm2.1211 7.7695 1.7891 1.7871c0.33073 0.33074 0.59148 0.92066 0.54883 1.4668-0.03463 0.44342-0.24955 0.83997-0.63477 1.3457-0.73223 0.69079-1.9913 0.76657-2.6074 0.15039l-1.9238-1.9219zm-22.367 4.3047c0.066702 0 0.52907 0.14233 0.69336 0.30664 0.16421 0.16418 0.30664 0.62682 0.30664 0.69336 0 0.066767-0.14243 0.52917-0.30664 0.69336-0.28213 0.28217-0.31555 0.30664-0.69336 0.30664-0.066725 0-0.52909-0.14235-0.69336-0.30664-0.16421-0.16418-0.30664-0.62659-0.30664-0.69336 0-0.066539 0.14243-0.52917 0.30664-0.69336 0.28211-0.28216 0.31555-0.30664 0.69336-0.30664zm3 17h17v2h-17v-1z"/></svg>
