<?xml version="1.0" encoding="UTF-8"?>
<svg width="40" height="40" version="1.1" viewBox="0 0 40 40" xmlns="http://www.w3.org/2000/svg"><path d="m3.5645 8c-0.69673 0-1.3759 0.25605-1.8496 0.74023-0.47366 0.48419-0.71484 1.162-0.71484 1.8594v20.801c0 0.69739 0.24118 1.3752 0.71484 1.8594 0.47366 0.48419 1.1529 0.74023 1.8496 0.74023h32.871c0.69673 0 1.3759-0.25605 1.8496-0.74023 0.47366-0.48419 0.71484-1.162 0.71484-1.8594v-20.801c0-0.6974-0.24118-1.3752-0.71484-1.8594-0.47366-0.48418-1.1529-0.74023-1.8496-0.74023zm0 2h25.436v22h-25.436c-0.2424 0-0.34575-0.062856-0.41992-0.13867-0.074167-0.075816-0.14453-0.19834-0.14453-0.46094v-20.801c0-0.2626 0.070368-0.38513 0.14453-0.46094 0.074164-0.075811 0.17752-0.13867 0.41992-0.13867zm27.436 0h5.4355c0.24239 0 0.34575 0.06286 0.41992 0.13867 0.074168 0.075815 0.14453 0.19834 0.14453 0.46094v20.801c0 0.26259-0.07036 0.38512-0.14453 0.46094-0.074172 0.07582-0.17754 0.13867-0.41992 0.13867h-5.4355zm3 1c-1.0957 0-2 0.90434-2 2 0 1.0957 0.90427 2 2 2 1.0957 0 2-0.90434 2-2s-0.90433-2-2-2zm0 1.5c0.28495 0 0.5 0.21495 0.5 0.5 0 0.28505-0.21505 0.5-0.5 0.5-0.2852 0-0.5-0.21495-0.5-0.5 0-0.28505 0.2148-0.5 0.5-0.5zm-28 0.5a1.0001 1.0001 0 0 0-1 1v14a1.0001 1.0001 0 0 0 1 1h20a1.0001 1.0001 0 0 0 1-1v-14a1.0001 1.0001 0 0 0-1-1zm1 2h18v12h-18zm27 1c-1.0957 0-2 0.90434-2 2 0 1.0957 0.90427 2 2 2 1.0957 0 2-0.90434 2-2s-0.90433-2-2-2zm0 1.5c0.28495 0 0.5 0.21495 0.5 0.5 0 0.28505-0.21505 0.5-0.5 0.5-0.2852 0-0.5-0.21495-0.5-0.5 0-0.28505 0.2148-0.5 0.5-0.5zm0 3.5c-1.0957 0-2 0.90434-2 2 0 1.0957 0.90427 2 2 2 1.0957 0 2-0.90434 2-2s-0.90433-2-2-2zm0 1.5c0.28495 0 0.5 0.21495 0.5 0.5 0 0.28505-0.21505 0.5-0.5 0.5-0.2852 0-0.5-0.21495-0.5-0.5 0-0.28505 0.2148-0.5 0.5-0.5z"/></svg>
