<?xml version="1.0" encoding="UTF-8"?>
<svg width="40" height="40" version="1.1" viewBox="0 0 40 40" xmlns="http://www.w3.org/2000/svg"><path d="m6.6953 1c-0.69179 0-1.3659 0.24671-1.8418 0.72266-0.47595 0.47594-0.72266 1.15-0.72266 1.8418v4.6973c0 0.69179 0.24671 1.3659 0.72266 1.8418 0.47595 0.47594 1.15 0.72266 1.8418 0.72266h6.666v0.92383h-2.2227a1.0001 1.0001 0 0 0-0.94922 1.3164l1.6113 4.834a1.0001 1.0001 0 0 0 0.16016 0.29492h-7.2676a1.0001 1.0001 0 0 0-0.9707 1.2422l0.49609 1.9805h-0.6543c-1.6993 0-3.0937 1.3944-3.0937 3.0938 0 1.0723 0.51732 2.1648 1.5195 2.666l-0.035156-0.017578 4.291 2.3672 0.69336 2.7773h-3.375c-0.69179 0-1.3659 0.2467-1.8418 0.72266-0.47594 0.47596-0.72266 1.15-0.72266 1.8418v1.5664c0 0.69178 0.24671 1.3659 0.72266 1.8418 0.47594 0.47594 1.15 0.72266 1.8418 0.72266h34.436a1.0001 1.0001 0 0 0 1-1v-3.1309-1.5645-23.479-1.5645-6.2617a1.0001 1.0001 0 0 0-1-1h-31.305zm0 2h30.305v5.2617 1.5645 23.479 1.5645 2.1309h-33.436c-0.24735 0-0.35585-0.064836-0.42773-0.13672-0.071884-0.071882-0.13672-0.18042-0.13672-0.42773v-1.5664c0-0.24739 0.064837-0.35585 0.13672-0.42774 0.071882-0.07188 0.18039-0.13672 0.42773-0.13672h23.479a1.0001 1.0001 0 0 0 1-1v-23.479a1.0001 1.0001 0 0 0-1-1h-20.348c-0.24734 0-0.35585-0.064836-0.42773-0.13672-0.071883-0.071883-0.13672-0.18039-0.13672-0.42773v-4.6973c0-0.24735 0.064836-0.35585 0.13672-0.42773 0.071883-0.071883 0.18039-0.13672 0.42773-0.13672zm8.666 7.8262h10.682v21.479h-4.2617l3.2168-12.867a1.0001 1.0001 0 0 0-0.9707-1.2422h-7.2656a1.0001 1.0001 0 0 0 0.1582-0.29492l1.6113-4.834a1.0001 1.0001 0 0 0-0.94922-1.3164h-2.2207v-0.92383zm-2.8359 2.9238h3.6699l-0.94336 2.834h-1.7812l-0.94531-2.834zm19.891 4.4453c-0.9854 0-1.8047 0.81931-1.8047 1.8047 0 0.9854 0.81929 1.8066 1.8047 1.8066s1.8066-0.82124 1.8066-1.8066c0-0.98538-0.82124-1.8047-1.8066-1.8047zm0 1.6113c0.0956 0 0.19531 0.09776 0.19531 0.19336 0 0.09538-0.09972 0.19531-0.19531 0.19531-0.0956 0-0.19336-0.09994-0.19336-0.19531 0-0.0956 0.09776-0.19336 0.19336-0.19336zm-26.441 0.38867h16.773l-2.7227 10.889h-11.328l-0.60742-2.4258a1.0005 1.0005 0 0 0-0.013672-0.0625l-1.5684-6.2695a1.0001 1.0001 0 0 0-0.074219-0.29492l-0.45898-1.8359zm26.441 2.832c-0.9854 0-1.8047 0.82124-1.8047 1.8066 0 0.98538 0.81929 1.8047 1.8047 1.8047s1.8066-0.81931 1.8066-1.8047c0-0.9854-0.82124-1.8066-1.8066-1.8066zm-28.852 0.39062h1.1543l0.86328 3.459-2.6621-1.4688a1.0001 1.0001 0 0 0-0.035156-0.017578c-0.28677-0.14341-0.41406-0.33998-0.41406-0.87891 0-0.55649 0.53728-1.0938 1.0938-1.0938zm28.852 1.2207c0.0956 0 0.19531 0.09994 0.19531 0.19531 0 0.0956-0.09972 0.19336-0.19531 0.19336-0.0956 0-0.19336-0.09776-0.19336-0.19336 0-0.09537 0.09776-0.19531 0.19336-0.19531zm0 3.2227c-1.8753 0-3.416 1.5428-3.416 3.418 0 1.8752 1.5408 3.416 3.416 3.416 1.8752 0 3.418-1.5408 3.418-3.416 0-1.8753-1.5427-3.418-3.418-3.418zm0 2c0.79434 0 1.418 0.62362 1.418 1.418 0 0.79434-0.62357 1.416-1.418 1.416-0.7944 0-1.416-0.62162-1.416-1.416 0-0.7944 0.62167-1.418 1.416-1.418z"/></svg>
