<?xml version="1.0" encoding="UTF-8"?>
<svg width="40" height="40" version="1.1" viewBox="0 0 40 40" xmlns="http://www.w3.org/2000/svg"><path d="m3.6367 3c-0.7031 0-1.3842 0.23649-1.877 0.70703-0.49278 0.47054-0.75977 1.154-0.75977 1.8555v21.875c0 0.70148 0.26698 1.3849 0.75977 1.8555s1.1739 0.70703 1.877 0.70703h12.363v2.0039c-2.5494 0.024355-4.7733 1.4234-5.8848 3.5293a1.0001 1.0001 0 0 0 0.88477 1.4668h19a1.0001 1.0001 0 0 0 0.85156-1.5234c-1.2941-2.1018-3.6292-3.4766-6.0762-3.4766h-0.77539v-2h12.363c0.70312 0 1.3842-0.23648 1.877-0.70703 0.49279-0.47055 0.75977-1.154 0.75977-1.8555v-21.875c0-0.70146-0.26697-1.3849-0.75977-1.8555-0.49279-0.47055-1.1738-0.70703-1.877-0.70703h-32.727zm0 2h32.727c0.27878 0 0.41616 0.076018 0.49609 0.15234s0.14062 0.17412 0.14062 0.41016v21.875c0 0.23604-0.06069 0.33383-0.14062 0.41016-0.079934 0.076326-0.21732 0.15234-0.49609 0.15234h-13.363-6-13.363c-0.27871 0-0.41615-0.076008-0.49609-0.15234s-0.14062-0.17414-0.14062-0.41016v-21.875c0-0.23602 0.060681-0.33382 0.14062-0.41016 0.079944-0.076336 0.21738-0.15234 0.49609-0.15234zm10.018 5.6035a1.0001 1.0001 0 0 0-0.14453 0.013672h-4.6738a1.0001 1.0001 0 1 0 0 2h3.834v8.668a1.0001 1.0001 0 1 0 2 0v-8.668h3.834a1.0001 1.0001 0 1 0 0-2h-4.6797a1.0001 1.0001 0 0 0-0.16992-0.013672zm8.3613 0.38476a1.0001 1.0001 0 0 0-0.91016 1.459l4.5 9a1.0001 1.0001 0 0 0 1.7891 0l4.5-9a1.0001 1.0001 0 1 0-1.7891-0.89453l-3.6055 7.2109-3.6055-7.2109a1.0001 1.0001 0 0 0-0.87891-0.56445zm-4.0156 19.012h4v2h-4v-2zm-1.9336 4h8.709c0.97169 0 1.9232 0.41412 2.7793 1h-14.285c0.78557-0.58536 1.7026-1 2.7969-1z"/></svg>
