<?xml version="1.0" encoding="UTF-8"?>
<svg width="40" height="40" version="1.1" viewBox="0 0 40 40" xmlns="http://www.w3.org/2000/svg"><path d="m20.031 1.0384a0.99909 0.99909 0 0 0-0.88777 0.48584l-4.6867 7.8183a0.99909 0.99909 0 0 0 0.85655 1.5121h3.6877v17.781l-6.5266-2.9462c-0.40291-0.20338-0.64962-0.53938-0.7668-0.9268 1.7427-0.4819 3.0418-2.0712 3.0418-3.9608 0-2.2667-1.8584-4.1267-4.1247-4.1267-2.2663 0-4.1247 1.86-4.1247 4.1267 0 1.9382 1.3638 3.5674 3.1745 4.0018 0.16611 1.0828 0.80574 2.1245 1.9102 2.677a0.99909 0.99909 0 0 0 0.03512 0.01756l7.3812 3.3306v0.05658c-1.7852 0.45284-3.1238 2.0678-3.1238 3.9881 0 2.2667 1.8565 4.1267 4.1228 4.1267 2.2662 0 4.1247-1.86 4.1247-4.1267 0-1.9203-1.3401-3.5353-3.1257-3.9881v-0.65949a0.99947 0.99947 0 0 0 0-0.08195v-0.85655l7.3519-3.0282-0.06439 0.02342c1.4115-0.4709 2.0877-1.8645 2.0877-3.1355v-2.9111h2.1268a0.99909 0.99909 0 0 0 0.99899-0.99899v-6.2534a0.99909 0.99909 0 0 0-0.99899-0.99899h-6.2495a0.99909 0.99909 0 0 0-0.99899 0.99899v6.2534a0.99909 0.99909 0 0 0 0.99899 0.99899h2.1248v2.9111c0 0.60547-0.25836 1.0863-0.72192 1.2409a0.99909 0.99909 0 0 0-0.06439 0.02342l-6.591 2.716v-16.273h3.6896a0.99909 0.99909 0 0 0 0.85656-1.5121l-4.6886-7.8183a0.99909 0.99909 0 0 0-0.82534-0.48584zm-0.03122 2.9404 2.9248 4.8779h-2.7706a0.99909 0.99909 0 0 0-0.16975-0.013658 0.99909 0.99909 0 0 0-0.14438 0.013658h-2.7628zm7.2505 10.004h4.2516v4.2555h-1.9726a0.99909 0.99909 0 0 0-0.1678-0.01366 0.99909 0.99909 0 0 0-0.14439 0.01366h-1.9668zm-16.626 4.6906c1.1858 0 2.1268 0.94111 2.1268 2.1287 0 1.1567-0.89499 2.0698-2.037 2.117a0.99909 0.99909 0 0 0-0.10536-0.0039 0.99909 0.99909 0 0 0-0.07609 0.0039c-1.1411-0.04816-2.0351-0.961-2.0351-2.117 0-1.1876 0.941-2.1287 2.1268-2.1287zm9.2855 14.081a0.99909 0.99909 0 0 0 0.18146 0c1.1411 0.04825 2.035 0.9628 2.035 2.1189 0 1.1876-0.94099 2.1287-2.1268 2.1287-1.1859 0-2.1248-0.9411-2.1248-2.1287 0-1.1568 0.89303-2.0717 2.035-2.1189z"/></svg>
