<?xml version="1.0" encoding="UTF-8"?>
<svg width="64" height="64" version="1.1" viewBox="0 0 64 64" xmlns="http://www.w3.org/2000/svg"><rect width="64" height="64" fill="#fff"/><path d="m18 39.004c0-0.0129 0.0248-0.2788 0.7125-0.7128 0.6378-0.4025 1.6272-0.802 2.9388-1.1521 2.6086-0.6963 6.2678-1.1389 10.349-1.1389s7.7401 0.4426 10.349 1.1389c1.3116 0.3501 2.301 0.7496 2.9388 1.1521 0.6877 0.434 0.7125 0.6999 0.7125 0.7128 0 0.0131-0.0149 0.2387-0.567 0.623-0.5216 0.3631-1.3446 0.735-2.4617 1.0738-2.2211 0.6736-5.3792 1.1496-9.0057 1.2746l0.0688 1.9988c3.7375-0.1288 7.0794-0.6201 9.5173-1.3595 1.2123-0.3676 2.2587-0.8136 3.0239-1.3462 0.7348-0.5115 1.4244-1.2595 1.4244-2.2645 0-1.0927-0.8146-1.88-1.6451-2.4041-0.8802-0.5555-2.0875-1.0187-3.4904-1.3932-2.8204-0.7528-6.6612-1.2065-10.864-1.2065s-8.0441 0.4537-10.864 1.2065c-1.4029 0.3745-2.6102 0.8377-3.4904 1.3932-0.8305 0.5241-1.6451 1.3114-1.6451 2.4041 0 1.005 0.6896 1.753 1.4244 2.2645 0.7652 0.5326 1.8116 0.9786 3.0239 1.3462 2.1529 0.653 5.0107 1.1124 8.2233 1.2996l-1.3787 1.3788-0.7071 0.7071 1.4142 1.4142 3.7071-3.7071v-1.4142l-3.7071-3.7071-1.4142 1.4142 0.7071 0.7071 1.1918 1.1919c-2.9748-0.1913-5.5576-0.6227-7.456-1.1984-1.1171-0.3388-1.9401-0.7107-2.4617-1.0738-0.5521-0.3843-0.567-0.6099-0.567-0.623z" clip-rule="evenodd" fill="#455B71" fill-rule="evenodd"/><path d="m20.468 30.16c-0.9387 0-1.7387-0.1493-2.4-0.448-0.6507-0.2987-1.1413-0.672-1.472-1.12-0.32-0.4587-0.4907-0.928-0.512-1.408 0-0.096 0.032-0.1707 0.096-0.224 0.0747-0.064 0.16-0.096 0.256-0.096h1.44c0.2347 0 0.3893 0.1067 0.464 0.32 0.2347 0.768 0.9493 1.152 2.144 1.152 0.6507 0 1.1627-0.1493 1.536-0.448 0.3733-0.3093 0.56-0.7467 0.56-1.312 0-1.0667-0.6667-1.6-2-1.6h-1.648c-0.1173 0-0.2133-0.0373-0.288-0.112s-0.112-0.1653-0.112-0.272v-0.672c0-0.1707 0.0747-0.3307 0.224-0.48l2.864-2.8h-4.576c-0.1067 0-0.1973-0.0373-0.272-0.112s-0.112-0.1653-0.112-0.272v-1.056c0-0.1173 0.032-0.2133 0.096-0.288 0.0747-0.0747 0.1707-0.112 0.288-0.112h6.864c0.1173 0 0.2133 0.0373 0.288 0.112s0.112 0.1707 0.112 0.288v0.96c0 0.16-0.0693 0.3093-0.208 0.448l-2.768 2.848 0.192 0.016c1.024 0.0853 1.8347 0.3947 2.432 0.928 0.608 0.5333 0.912 1.296 0.912 2.288 0 0.704-0.192 1.3173-0.576 1.84-0.3733 0.5227-0.896 0.928-1.568 1.216-0.6613 0.2773-1.4133 0.416-2.256 0.416zm10.206 0c-0.896 0-1.68-0.1707-2.352-0.512s-1.1893-0.8053-1.552-1.392c-0.3627-0.5973-0.544-1.2693-0.544-2.016 0-0.9493 0.4107-1.984 1.232-3.104l2.928-4.016c0.064-0.096 0.1333-0.1707 0.208-0.224 0.0853-0.064 0.1973-0.096 0.336-0.096h1.488c0.096 0 0.176 0.0373 0.24 0.112 0.064 0.064 0.096 0.144 0.096 0.24 0 0.0533-0.0267 0.1227-0.08 0.208l-2.24 3.104c0.2133-0.0533 0.4427-0.08 0.688-0.08 0.7147 0.0213 1.3707 0.2027 1.968 0.544 0.608 0.3307 1.088 0.784 1.44 1.36 0.3627 0.576 0.544 1.216 0.544 1.92 0 0.7147-0.1813 1.376-0.544 1.984-0.352 0.5973-0.864 1.0773-1.536 1.44-0.6613 0.352-1.4347 0.528-2.32 0.528zm-0.016-1.84c0.608 0 1.12-0.1813 1.536-0.544 0.416-0.3733 0.624-0.8907 0.624-1.552 0-0.6507-0.208-1.1573-0.624-1.52-0.416-0.3733-0.928-0.56-1.536-0.56s-1.12 0.1867-1.536 0.56c-0.416 0.3627-0.624 0.8693-0.624 1.52 0 0.6613 0.208 1.1787 0.624 1.552 0.416 0.3627 0.928 0.544 1.536 0.544zm10.191 1.84c-1.4187 0-2.48-0.3947-3.184-1.184-0.6934-0.7893-1.072-1.824-1.136-3.104-0.0107-0.288-0.016-0.7787-0.016-1.472 0-0.704 0.0053-1.2053 0.016-1.504 0.0533-1.2587 0.4373-2.2827 1.152-3.072 0.7146-0.7893 1.7706-1.184 3.168-1.184 1.408 0 2.4693 0.3947 3.184 1.184 0.7146 0.7893 1.0933 1.8133 1.136 3.072 0.0213 0.2987 0.032 0.8 0.032 1.504 0 0.6933-0.0107 1.184-0.032 1.472-0.0534 1.28-0.432 2.3147-1.136 3.104-0.6934 0.7893-1.7547 1.184-3.184 1.184zm0-1.84c0.672 0 1.1733-0.2187 1.504-0.656 0.3306-0.448 0.5066-1.072 0.528-1.872 0.0213-0.6187 0.032-1.088 0.032-1.408 0-0.352-0.0107-0.816-0.032-1.392-0.0214-0.7893-0.1974-1.408-0.528-1.856-0.3307-0.448-0.832-0.672-1.504-0.672-0.6614 0-1.1627 0.224-1.504 0.672-0.3307 0.448-0.5067 1.0667-0.528 1.856-0.0107 0.288-0.016 0.752-0.016 1.392 0 0.6293 0.0053 1.0987 0.016 1.408 0.0213 0.8 0.1973 1.424 0.528 1.872 0.3413 0.4373 0.8426 0.656 1.504 0.656zm8.4676-4.704c-0.4693 0-0.9013-0.1067-1.296-0.32-0.3947-0.224-0.7093-0.5227-0.944-0.896-0.224-0.384-0.336-0.8107-0.336-1.28 0-0.4587 0.112-0.8747 0.336-1.248 0.2347-0.384 0.5493-0.6827 0.944-0.896 0.3947-0.224 0.8267-0.336 1.296-0.336s0.896 0.112 1.28 0.336c0.3947 0.2133 0.704 0.512 0.928 0.896 0.2347 0.3733 0.352 0.7893 0.352 1.248 0 0.4693-0.1173 0.896-0.352 1.28-0.224 0.3733-0.5333 0.672-0.928 0.896-0.384 0.2133-0.8107 0.32-1.28 0.32zm0-1.28c0.3627 0 0.656-0.112 0.88-0.336s0.336-0.5173 0.336-0.88-0.112-0.656-0.336-0.88-0.5173-0.336-0.88-0.336-0.656 0.112-0.88 0.336-0.336 0.5173-0.336 0.88 0.112 0.656 0.336 0.88 0.5173 0.336 0.88 0.336z" fill="#DA1F24"/></svg>
