<?xml version="1.0" encoding="UTF-8"?>
<svg width="180" height="180" version="1.1" viewBox="0 0 180 180" xmlns="http://www.w3.org/2000/svg"><path d="m0 0v180h180v-180h-180z" fill="#db0812"/><path d="m78.389 27c-2.0869 22.783-5.0446 52.174-26.088 87.826l1.5645 1.5645c30.435-38.956 41.915-64.521 52.35-89.391h-27.826zm47.305 0c-24.174 47.13-73.74 97.043-106.78 131.83-0.6956 0.69499-1.043 1.7383-1.043 2.7812 1.0434 0 2.0875-0.34796 2.7832-1.043 34.956-32.87 84.869-82.262 132.17-106.61v-26.955h-27.131zm-88.695 0.17383c18.435 28.696 18.262 73.912 18.262 73.912 8.6956-26.783 7.825-51.999 6.2598-73.912h-24.521zm116 46.607c-25.044 10.435-50.784 21.913-89.566 52.174l1.5645 1.5664c35.652-20.869 65.219-24.001 88.002-25.914v-27.826zm-21.646 43.203c-16.504-0.12004-34.267 1.254-52.441 7.2324h-0.17383s53.393 1.045 74.262 18.088v-24.523c-6.9022-0.38031-14.145-0.74231-21.646-0.79687z" fill="#fff"/></svg>
