<svg width="64" height="64" viewBox="0 0 64 64" fill="none" xmlns="http://www.w3.org/2000/svg">
<circle cx="32" cy="32" r="30" stroke="#E20000" stroke-width="4"/>
<path d="M44.7828 15.9512H19.0452C17.2715 15.9512 15.8281 17.3946 15.8281 19.1683V45.4112C15.8281 47.1845 17.2717 48.6285 19.0455 48.6285H44.7828C46.5561 48.6285 48.0002 47.1847 48.0002 45.4112V19.1683C48 17.3946 46.5561 15.9512 44.7828 15.9512ZM45.8551 45.4112C45.8551 46.0025 45.3741 46.4837 44.7826 46.4837H19.0452C18.454 46.4837 17.9729 46.0027 17.9729 45.4112V19.1683C17.9729 18.5771 18.454 18.096 19.0452 18.096H44.7826C45.3739 18.096 45.8551 18.5771 45.8551 19.1683V45.4112Z" fill="#E20000" stroke="#E20000"/>
<path d="M31.914 20.5981C25.4667 20.5981 20.222 25.843 20.222 32.2901C20.222 38.7376 25.4667 43.9814 31.914 43.9814C38.3611 43.9814 43.6057 38.7368 43.6057 32.2895C43.6057 25.8422 38.3611 20.5981 31.914 20.5981ZM31.914 41.8366C26.6502 41.8366 22.3669 37.5541 22.3669 32.2895C22.3669 27.0248 26.6502 22.743 31.914 22.743C37.1782 22.743 41.4609 27.0257 41.4609 32.2901C41.4609 37.5545 37.1782 41.8366 31.914 41.8366Z" fill="#E20000" stroke="#E20000"/>
<path d="M28.1607 30.771C27.5686 30.771 27.0884 31.2512 27.0884 31.8433V32.5272C27.0884 33.119 27.5686 33.5995 28.1607 33.5995C28.7527 33.5995 29.233 33.1192 29.233 32.5272V31.8433C29.233 31.2504 28.7527 30.771 28.1607 30.771Z" fill="#E20000" stroke="#E20000"/>
<path d="M36.0248 30.771C35.433 30.771 34.9525 31.2512 34.9525 31.8433V32.5272C34.9525 33.119 35.4328 33.5995 36.0248 33.5995C36.6169 33.5995 37.0973 33.1192 37.0973 32.5272V31.8433C37.0973 31.2504 36.6169 30.771 36.0248 30.771Z" fill="#E20000" stroke="#E20000"/>
</svg>
