<svg width="64" height="64" viewBox="0 0 64 64" fill="none" xmlns="http://www.w3.org/2000/svg">
<circle cx="32" cy="32" r="30" stroke="#E20000" stroke-width="4"/>
<line x1="10.4142" y1="9.58579" x2="54.2548" y2="53.4264" stroke="#E20000" stroke-width="4"/>
<path d="M45.0765 19.9148L39.7167 14.5548C38.9772 13.8152 37.7764 13.8149 37.0365 14.5548L28.9957 22.5957C25.7743 25.8173 24 30.1006 24 34.6564V48.8975C24 49.9441 24.8485 50.7926 25.8952 50.7926H33.4759C34.5226 50.7926 35.3711 49.9441 35.3711 48.8975V34.6553C35.3711 33.1367 35.9625 31.7088 37.0364 30.6349L45.0766 22.5948C45.8166 21.8547 45.8166 20.6549 45.0765 19.9148ZM34.3561 27.9548C32.5664 29.7446 31.5806 32.1241 31.5806 34.6554V47.0024H27.7902V34.6566C27.7902 31.1131 29.1701 27.7817 31.6759 25.2759L38.3766 18.5752L41.0563 21.2547L34.3561 27.9548Z" fill="#E20000"/>
</svg>
