<svg width="66" height="66" viewBox="0 0 66 66" fill="none" xmlns="http://www.w3.org/2000/svg">
<path d="M63.842 1H2.158C1.51837 1 1 1.5185 1 2.158V19.5549C1 20.1944 1.5185 20.7129 2.158 20.7129C2.7975 20.7129 3.316 20.1944 3.316 19.5549V13.5717L9.59625 19.852L3.316 26.1322V23.3379C3.316 22.6984 2.7975 22.1799 2.158 22.1799C1.5185 22.1799 1 22.6984 1 23.3379V63.8421C1 64.4816 1.5185 65.0001 2.158 65.0001H63.8419C64.4814 65.0001 64.9999 64.4816 64.9999 63.8421V2.158C65 1.5185 64.4815 1 63.842 1ZM60.825 3.316L54.7659 9.375L48.7061 3.316H60.825ZM43.368 3.316L37.3091 9.375L31.2487 3.316H43.368ZM39.1301 14.4721C39.5824 14.9244 40.3156 14.9244 40.7676 14.4721C41.2199 14.0199 41.2199 13.2868 40.7676 12.8345L38.9464 11.0133L46.0368 3.92287L61.9667 19.852L54.8759 26.9429L43.3923 15.4593C42.94 15.007 42.2067 15.007 41.7547 15.4593C41.3025 15.9115 41.3025 16.6446 41.7547 17.0969L44.51 19.8521L37.4194 26.943L21.4897 11.0133L28.5801 3.92287L39.1301 14.4721ZM35.7817 28.5805L19.852 44.5103L12.7614 37.4196L28.691 21.4899L35.7817 28.5805ZM25.9115 3.316L19.8525 9.375L13.7925 3.316H25.9115ZM3.316 3.316H8.45475L3.316 8.45475V3.316ZM4.0335 11.0126L11.1234 3.92275L27.0532 19.852L19.9624 26.9428L4.0335 11.0126ZM3.316 29.4065C3.31862 29.404 3.32137 29.4019 3.32387 29.3994L11.2339 21.4895L18.3242 28.5805L3.316 43.5895V29.4065ZM3.316 48.7065L9.59663 54.9871L3.316 61.2664V48.7065ZM5.17387 62.684L11.2345 56.6247L17.2937 62.684H5.17387ZM4.0335 46.1484L11.1239 39.0573L27.0532 54.9866L19.9624 62.0774L4.0335 46.1484ZM22.6314 62.684L28.691 56.6244L34.7506 62.684H22.6314ZM21.4896 46.1478L28.5805 39.0571L44.5101 54.9868L37.4195 62.0776L21.4896 46.1478ZM40.0881 62.684L46.1478 56.6244L52.2074 62.684H40.0881ZM38.9465 46.1478L41.299 43.7954C41.7513 43.3431 41.7513 42.61 41.299 42.1577C40.8467 41.7055 40.1135 41.7055 39.6614 42.1577L37.3089 44.5103L30.218 37.4194L46.1476 21.4897L53.2385 28.5806L41.9774 39.8418C41.5251 40.294 41.5251 41.0271 41.9774 41.4794C42.4296 41.9316 43.1629 41.9316 43.615 41.4794L46.0373 39.0571L61.9666 54.987L54.8761 62.0775L38.9465 46.1478ZM62.6838 62.684H57.5449L62.6838 57.5451V62.684ZM62.6838 52.4282L56.4036 46.1483L62.6838 39.8666V52.4282ZM62.6745 36.6005L54.7661 44.5107L47.6749 37.4196L62.6838 22.4106V36.5921H62.6839C62.6809 36.5949 62.6776 36.5975 62.6745 36.6005ZM62.684 17.2929L56.4037 11.0126L62.684 4.73237V17.2929Z" fill="#E20000" stroke="#E20000"/>
</svg>
