<svg width="64" height="64" viewBox="0 0 64 64" fill="none" xmlns="http://www.w3.org/2000/svg">
<path d="M63.3632 8.18793C63.1539 7.73205 62.7579 7.38886 62.277 7.24651C61.7961 7.14851 61.2994 7.31401 60.9735 7.68104L56.8458 11.8088L52.5009 7.39149L56.6286 3.26377C56.983 2.93084 57.1226 2.42825 56.9906 1.96031C56.9229 1.44234 56.5524 1.01473 56.0492 0.874048C51.6993 -0.650352 46.8608 0.446723 43.5939 3.69831C41.8316 5.49937 40.6683 7.8008 40.2628 10.288L33.6731 7.68104L30.7041 11.157C28.6059 10.9504 26.4904 10.999 24.404 11.3019L21.2177 8.04322L12.1657 11.9535L12.5277 16.5881C10.8647 17.8888 9.40088 19.4258 8.18281 21.1502L3.54834 21.0053L0 30.202L3.47599 33.171C3.27071 35.2692 3.31936 37.3845 3.62083 39.4711L0.289689 42.6576L4.27256 51.7094L8.83467 51.3474C10.1793 52.9956 11.7379 54.4568 13.4693 55.6923L13.3244 60.2544L22.5211 63.8028L25.4901 60.3993C27.5883 60.6045 29.7036 60.5559 31.7902 60.2544L34.9765 63.5131L43.956 59.6027L43.6663 54.9681C45.3294 53.6674 46.7932 52.1304 48.0113 50.406L52.5734 50.5508L56.1217 41.3541L52.7182 38.3851C52.9368 36.2851 52.8636 34.165 52.501 32.085L55.8322 28.8987L53.7321 24.0469C56.2939 23.6957 58.6646 22.4976 60.4668 20.6434C63.7122 17.3747 64.8336 12.5532 63.3632 8.18793ZM52.7182 42.223L50.6182 47.5817H46.4905L46.0559 48.2334C44.7519 50.1533 43.1366 51.8421 41.2765 53.2301L40.6248 53.737L40.9868 57.7922L35.6281 60.0371L32.804 57.0681L32.0074 57.213C29.7157 57.6485 27.3699 57.7218 25.0556 57.4302H24.3315L21.6521 60.4716L16.2934 58.3716V54.1715L15.6417 53.737C13.7064 52.4521 12.0146 50.8338 10.645 48.9575L10.1381 48.3058L6.01042 48.6678L3.76554 43.3091L6.7345 40.485L6.58966 39.7609C6.21556 37.4376 6.16677 35.0735 6.44481 32.7366V32.0125L3.47585 29.3331L5.50353 23.9744H9.63125L10.1381 23.3227C11.3755 21.3733 12.9731 19.6775 14.8451 18.3261L15.4968 17.8192L15.2071 13.6915L20.4935 11.3742L23.3901 14.3432L24.1142 14.1983C26.4132 13.8244 28.7533 13.7756 31.066 14.0535H31.8626L34.542 11.012L40.1904 13.1846C40.2159 13.8449 40.3129 14.5005 40.48 15.1398L35.411 20.2088C33.1289 19.1118 30.6292 18.5426 28.0972 18.5433C18.6587 18.5036 10.9752 26.1228 10.9355 35.5613C10.8959 44.9997 18.5151 52.6833 27.9536 52.7229C37.3635 52.7624 45.035 45.1877 45.1148 35.7781C45.1417 33.4374 44.6728 31.1175 43.7388 28.9711L48.8803 23.7572L50.6183 24.1193L52.3563 28.1745L49.3874 31.0711L49.5322 31.7952C49.967 34.1113 50.0403 36.4808 49.7494 38.8195L49.6045 39.5436L52.7182 42.223ZM38.5249 34.1126L41.4938 31.1436C41.9867 32.6385 42.2313 34.2042 42.2179 35.7782C42.257 43.6569 35.9017 50.0755 28.023 50.1145C20.1443 50.1536 13.7257 43.7983 13.6868 35.9196C13.6477 28.0409 20.0029 21.6223 27.8816 21.5833C29.716 21.5742 31.5348 21.919 33.2385 22.5986L30.0522 25.7124C26.6724 25.0662 23.1935 26.1535 20.7832 28.609C16.725 32.7254 16.725 39.3378 20.7832 43.4541C22.744 45.4082 25.4013 46.5024 28.1695 46.4956C33.9282 46.5578 38.6471 41.9398 38.7093 36.181C38.7168 35.4871 38.655 34.7941 38.5249 34.1126ZM49.025 20.7881C48.5047 20.583 47.9127 20.6957 47.5044 21.0778L35.9179 32.6643C35.5619 33.0273 35.4004 33.5385 35.4834 34.0402C36.2277 36.6392 35.5074 39.4376 33.6006 41.3541C30.641 44.3336 25.8265 44.3498 22.8469 41.3903C19.8674 38.4307 19.8512 33.6162 22.8107 30.6366C24.2321 29.2213 26.1637 28.4383 28.1694 28.4641L30.1971 28.6813C30.6873 28.8254 31.2172 28.686 31.573 28.3192L43.1595 16.7328C43.5376 16.324 43.6749 15.7474 43.5215 15.2121C42.3927 11.9061 43.2028 8.24642 45.6215 5.72571C47.4882 3.85465 50.0843 2.90104 52.7182 3.11879L49.3871 6.37744C48.8708 6.95474 48.8708 7.82783 49.3871 8.40512L55.7597 14.9224C56.0442 15.1691 56.3985 15.3211 56.7734 15.357C57.1736 15.3363 57.5556 15.1836 57.8597 14.9224L61.046 11.5913C61.2724 14.2049 60.3158 16.7824 58.4391 18.6156C55.9911 21.1101 52.3183 21.9577 49.025 20.7881Z" fill="#E20000"/>
<path d="M31.4283 32.7364C30.5909 31.8817 29.4383 31.4102 28.242 31.4329C27.0254 31.4154 25.8522 31.8848 24.9833 32.7364C23.1836 34.4997 23.1541 37.3882 24.9175 39.1878C24.9392 39.21 24.9611 39.2319 24.9833 39.2537C25.8301 40.0943 26.9765 40.5632 28.1696 40.5571C29.3819 40.5516 30.5467 40.0857 31.4283 39.2537C33.2279 37.4903 33.2575 34.6019 31.4941 32.8022C31.4723 32.78 31.4504 32.7581 31.4283 32.7364ZM29.4659 37.0885C29.4448 37.1108 29.423 37.1326 29.4007 37.1536C28.7599 37.8135 27.7054 37.8289 27.0455 37.1882C27.0339 37.1768 27.0224 37.1653 27.011 37.1536C26.371 36.5497 26.3419 35.5415 26.9459 34.9016C26.9669 34.8792 26.9887 34.8575 27.011 34.8364C27.3216 34.4873 27.7756 34.3003 28.2421 34.3295C28.6856 34.3121 29.1126 34.4989 29.4007 34.8364C30.0405 35.4403 30.0696 36.4485 29.4659 37.0885Z" fill="#E20000"/>
</svg>
