<svg width="64" height="64" viewBox="0 0 64 64" fill="none" xmlns="http://www.w3.org/2000/svg">
<path d="M53.875 21.0396V15.625C53.875 7.00928 46.8657 0 38.25 0H34.7915V4.7915H29.2085V0H25.75C17.1343 0 10.125 7.00928 10.125 15.625V21.0396H22.125V29.208H20V32.958H22.125V37H20V40.75H22.125V44.7915H20.125V47.458H10.125V61.333H20.125V64H43.875V61.3335H53.875V47.4585H43.875V44.792H41.875V40.75H44V37H41.875V32.9585H44V29.2085H41.875V21.0396H53.875ZM50.125 57.5835H43.875V51.2085H50.125V57.5835ZM23.875 60.25V48.5415H40.125V60.25H23.875ZM13.875 51.2085H20.125V57.5835H13.875V51.2085ZM25.875 44.7915V40.75H38.125V44.7915H25.875ZM25.875 37V32.9585H38.125V37H25.875ZM25.875 29.2085V21.0396H38.125V29.2085H25.875ZM13.875 15.625C13.875 9.1748 19.0444 3.90869 25.4585 3.75342V8.5415H38.5415V3.75342C44.9556 3.90869 50.125 9.1748 50.125 15.625V17.2896H13.875V15.625Z" fill="#E20000"/>
</svg>
