<svg width="64" height="64" viewBox="0 0 64 64" fill="none" xmlns="http://www.w3.org/2000/svg">
<circle cx="32" cy="32" r="30" stroke="#E20000" stroke-width="4"/>
<line x1="10.4142" y1="9.58579" x2="54.2548" y2="53.4264" stroke="#E20000" stroke-width="4"/>
<path d="M42.8107 35.383C42.3269 34.2621 41.6647 32.979 40.9638 31.6206C39.5965 28.9709 38.0468 25.9677 37.2312 23.0749C36.3483 19.9433 36.5054 17.5454 37.7117 15.7442C37.9854 15.3354 37.9804 14.8004 37.6989 14.3968C37.4173 13.9932 36.9171 13.8036 36.4387 13.9193C36.2128 13.974 30.8756 15.3073 28.2956 19.6246C27.4321 21.0694 26.9817 22.6641 26.946 24.3905C26.1764 23.8092 25.3167 23.3091 24.496 23.1489C24.1189 23.0755 23.7296 23.1877 23.4497 23.4509C23.1697 23.714 23.0335 24.0956 23.0835 24.4765C23.503 27.6705 22.0669 29.7894 20.4041 32.243C19.6237 33.3946 18.8166 34.5854 18.145 35.9642C16.3713 39.6054 16.6595 43.5182 19.0015 47.5939C21.5479 52.025 26.2296 54.6425 31.1311 54.6425C32.3129 54.6425 33.5081 54.4902 34.6885 54.1745C34.7794 54.1502 34.8706 54.1266 34.9605 54.0992C38.3998 53.0487 41.1431 50.6351 42.685 47.303C44.3929 43.6128 44.4398 39.1567 42.8107 35.383ZM26.8461 50.5492C25.8537 49.4361 25.3848 47.9249 25.5598 46.403C25.737 44.8608 27.0942 43.0804 28.4066 41.3586C29.7536 39.5913 31.2188 37.6691 31.6644 35.6384C32.9356 37.2716 34.0915 40.1744 32.5058 44.7995C32.3728 45.1874 32.4481 45.6164 32.7053 45.9356C32.9624 46.255 33.3654 46.4201 33.7728 46.3729C34.1977 46.3236 34.8156 46.1356 35.4022 45.7409C35.637 47.3504 35.3619 48.9862 34.5874 50.2117C34.0172 51.1141 32.9186 52.184 30.9009 52.2517C30.5134 52.2439 30.1279 52.2164 29.7456 52.1698C28.6224 51.9685 27.6151 51.4116 26.8461 50.5492ZM40.5179 46.3C39.7444 47.9713 38.6016 49.3568 37.1862 50.3726C38.1856 48.0099 38.1038 45.0649 36.9048 42.5421C36.6824 42.0741 36.1837 41.803 35.6695 41.871C35.6456 41.8742 35.6219 41.878 35.5984 41.8826C35.912 38.7475 35.0536 36.4804 34.1268 35.0042C32.7412 32.7976 30.897 31.8366 30.8192 31.7967C30.3705 31.5671 29.8258 31.6441 29.4582 31.989C29.0906 32.3339 28.9792 32.8726 29.1798 33.335C30.0286 35.2911 28.3181 37.5352 26.5073 39.911C24.9992 41.8896 23.4397 43.9356 23.1873 46.1303C23.0604 47.2338 23.1699 48.3355 23.4932 49.3641C22.5483 48.5344 21.7256 47.5413 21.0722 46.404C19.1215 43.0096 18.8664 39.9367 20.292 37.01C20.8891 35.7843 21.6475 34.6651 22.3811 33.5828C23.8264 31.4502 25.3118 29.2583 25.5216 26.3051C26.2967 26.8987 27.1021 27.6988 27.6278 28.3198C27.9877 28.7461 28.5949 28.8663 29.0901 28.6093C29.5854 28.3523 29.8367 27.7866 29.6952 27.2469C29.0552 24.8034 29.2715 22.6553 30.3382 20.8621C31.3898 19.0945 33.0985 17.9285 34.5222 17.2099C34.092 19.0764 34.2302 21.2315 34.9328 23.7232C35.8139 26.8484 37.4224 29.9656 38.8417 32.7158C39.5232 34.0367 40.167 35.2843 40.6183 36.3296C41.9822 39.4893 41.9447 43.2166 40.5179 46.3Z" fill="#E20000" stroke="#E20000"/>
</svg>
