<svg width="64" height="69" viewBox="0 0 64 69" fill="none" xmlns="http://www.w3.org/2000/svg">
<rect x="2" y="43" width="19.04" height="24" stroke="#E20000" stroke-width="4"/>
<rect x="21" y="29" width="22" height="38" stroke="#E20000" stroke-width="4"/>
<rect x="42.96" y="52.3335" width="19.04" height="14.6667" stroke="#E20000" stroke-width="4"/>
<path d="M31.0273 22H20.9727V19.6562L25.5898 13.7852C26.1758 12.9727 26.6055 12.2617 26.8789 11.6523C27.1602 11.0352 27.3008 10.4453 27.3008 9.88281C27.3008 9.125 27.168 8.53125 26.9023 8.10156C26.6445 7.67187 26.2695 7.45703 25.7773 7.45703C25.2383 7.45703 24.8086 7.70703 24.4883 8.20703C24.1758 8.70703 24.0195 9.41016 24.0195 10.3164H20.6914C20.6914 9.26953 20.9062 8.3125 21.3359 7.44531C21.7734 6.57812 22.3828 5.90625 23.1641 5.42969C23.9531 4.94531 24.8438 4.70312 25.8359 4.70312C27.3594 4.70312 28.5391 5.125 29.375 5.96875C30.2188 6.80469 30.6406 7.99609 30.6406 9.54297C30.6406 10.5039 30.4062 11.4805 29.9375 12.4727C29.4766 13.457 28.6367 14.6719 27.418 16.1172L25.2266 19.2461H31.0273V22ZM41.8555 15.5547H43.3086V18.3086H41.8555V22H38.5391V18.3086H32.8906L32.7383 16.1641L38.5273 4.9375H41.8555V15.5547ZM35.9609 15.5547H38.5391V9.84766L38.4688 9.97656L35.9609 15.5547Z" fill="#E20000"/>
</svg>
