<?xml version="1.0" encoding="UTF-8"?>
<svg width="60" height="60" version="1.1" viewBox="0 0 60 60" xmlns="http://www.w3.org/2000/svg"><path d="m16.131 10.625c-1.9263 0-3.5215 1.5711-3.5215 3.4941s1.5952 3.4941 3.5215 3.4941h4.6328l4.4531 4.4043v3.5684h-6.5645a1.0001 1.0001 0 0 0-1 1v4.9863a1.0001 1.0001 0 0 0 1 1h4.043v7.9746h-15.652v-3.9863a1.0001 1.0001 0 0 0-1-1h-5.043a1.0001 1.0001 0 0 0-1 1v22.439a1.0001 1.0001 0 0 0 1 1h5.043a1.0001 1.0001 0 0 0 1-1v-3.9863h16.02c0.9605 2.8904 3.713 4.9863 6.9375 4.9863s5.977-2.096 6.9375-4.9863h16.02v3.9863a1.0001 1.0001 0 0 0 1 1h5.043a1.0001 1.0001 0 0 0 1-1v-22.439a1.0001 1.0001 0 0 0-1-1h-5.043a1.0001 1.0001 0 0 0-1 1v3.9863h-15.652v-7.9746h4.043a1.0001 1.0001 0 0 0 1-1v-4.9863a1.0001 1.0001 0 0 0-1-1h-6.5645v-3.5684l4.4531-4.4043h4.6328c1.9262 0 3.5215-1.5711 3.5215-3.4941 0-1.9231-1.5952-3.4941-3.5215-3.4941h-27.738zm0 2h27.738c0.84755 0 1.5215 0.67446 1.5215 1.4941 0 0.81968-0.67388 1.4941-1.5215 1.4941h-27.738c-0.84774 0-1.5215-0.67441-1.5215-1.4941 0-0.81973 0.67379-1.4941 1.5215-1.4941zm7.4766 4.9883h12.785l-3.0215 2.9863h-6.7422l-3.0215-2.9863zm3.6094 4.9863h5.5664v2.9863h-5.5664v-2.9863zm-7.5645 4.9863h20.695v2.9863h-20.695v-2.9863zm5.043 4.9863h10.609v8.8066a1.0001 1.0001 0 0 0 0 0.32617v11.061c0 2.8936-2.3597 5.2344-5.3047 5.2344s-5.3047-2.3407-5.3047-5.2344v-11.051a1.0001 1.0001 0 0 0 0-0.32617v-8.8164zm-22.695 4.9883h3.043v3.9863 12.467 3.9863h-3.043v-20.439zm52.957 0h3.043v20.439h-3.043v-3.9863-12.467-3.9863zm-47.914 4.9863h15.652v10.219c0 0.083731 0.008843 0.16499 0.011719 0.24805h-15.664v-10.467zm30.262 0h15.652v10.467h-15.664c0.002876-0.083055 0.011718-0.16432 0.011719-0.24805v-10.219z"></path></svg>