<?xml version="1.0" encoding="UTF-8"?>
<svg width="60" height="60" version="1.1" viewBox="0 0 60 60" xmlns="http://www.w3.org/2000/svg"><path d="m41.049 11.545a1.0001 1.0001 0 0 0-0.1543 0.015625h-1.834a1.0001 1.0001 0 1 0 0 2h1.002v7.1055h-9.0176-2.0039a1.0001 1.0001 0 0 0 0 2h1.0039v7.1074h-9.0176-2.0039a1.0001 1.0001 0 0 0 0 2h1.0039v7.1055h-8.8633a1.0001 1.0001 0 0 0-0.16992-0.013672 1.0001 1.0001 0 0 0-0.14453 0.013672h-1.8437a1.0001 1.0001 0 1 0 0 2h1.0039v7.1074h-3.0078a1.0001 1.0001 0 1 0 0 2h3.8418a1.0001 1.0001 0 0 0 0.32422 0h41.918a1.0001 1.0001 0 1 0 0-2h-41.076v-7.1074h9.0176a1.0001 1.0001 0 0 0 1-1v-8.1055h9.0176a1.0001 1.0001 0 0 0 1-1v-8.1074h9.0176a1.0001 1.0001 0 0 0 1-1v-8.1055h9.0195a1.0001 1.0001 0 1 0 0-2h-9.8477a1.0001 1.0001 0 0 0-0.18555-0.015625z"></path></svg>