<?xml version="1.0" encoding="UTF-8"?>
<svg width="60" height="60" version="1.1" viewBox="0 0 60 60" xmlns="http://www.w3.org/2000/svg"><path d="m30 7.082c-3.3812 0-6.0852 2.89-5.8613 6.2734l0.77148 11.793c-3.137 1.7562-5.2418 5.1017-5.2969 8.9238l-11.348 5.6348c-3.0318 1.5063-4.1646 5.297-2.4922 8.248a1.0001 1.0001 0 0 0 0.0078125 0.011719c1.0965 1.8727 3.0577 2.9414 5.0781 2.9414 1.1322 0 2.2736-0.33159 3.2734-1.0078l10.266-6.9336c1.6219 1.0614 3.5509 1.668 5.6016 1.668 2.0507 0 3.9797-0.60656 5.6016-1.668l10.266 6.9336c0.99982 0.6762 2.1412 1.0078 3.2734 1.0078 2.0204 0 3.9816-1.0687 5.0781-2.9414a1.0001 1.0001 0 0 0 0.007812-0.011719c1.6725-2.9511 0.53962-6.7417-2.4922-8.248l-11.348-5.6348c-0.055078-3.8221-2.1598-7.1676-5.2969-8.9238l0.77148-11.793a1.0001 1.0001 0 0 0 0.001953-0.064453c0 0.02835 0.021485-0.09844 0.021485-0.33594 0-3.2175-2.6318-5.873-5.8848-5.873zm0 2c2.1739 0 3.8848 1.7368 3.8848 3.873 0-0.02835-0.021485 0.09844-0.021485 0.33594l0.001953-0.066407-0.72656 11.09c-0.99458-0.3166-2.0476-0.50195-3.1387-0.50195-1.091 0-2.1441 0.18535-3.1387 0.50195l-0.72656-11.09c-0.15048-2.2622 1.6115-4.1426 3.8652-4.1426zm-9.9258 9.3906a1.0001 1.0001 0 0 0-0.53516 0.16992c-0.52533 0.34324-1.0106 0.72068-1.4609 1.0859-0.48028 0.38948-0.92108 0.81082-1.3301 1.2207-0.40892 0.40969-0.83004 0.85076-1.2188 1.332-0.37124 0.4594-0.72402 0.94753-1.0566 1.4785-0.35074 0.50673-0.65985 1.0147-0.94336 1.5391-0.28707 0.53101-0.54854 1.0778-0.78711 1.6211-0.24115 0.54908-0.46529 1.1295-0.64648 1.7402-0.17596 0.57296-0.32993 1.1668-0.46094 1.7793-0.13554 0.61308-0.22219 1.2345-0.28711 1.8633a1.0001 1.0001 0 1 0 1.9883 0.20508c0.06005-0.58157 0.13997-1.1288 0.25391-1.6426a1.0001 1.0001 0 0 0 0.001953-0.007812c0.11946-0.55856 0.25802-1.0949 0.41602-1.6094a1.0001 1.0001 0 0 0 0.001954-0.009766c0.15221-0.51475 0.34584-1.0203 0.5625-1.5137 0.22063-0.50244 0.45925-1.0018 0.71484-1.4746 0.25561-0.47279 0.52809-0.92014 0.83984-1.3691a1.0001 1.0001 0 0 0 0.027344-0.041015c0.28923-0.46373 0.59861-0.88865 0.93164-1.3008 0.32078-0.39718 0.69393-0.79281 1.0781-1.1777 0.38412-0.38494 0.77737-0.75857 1.1738-1.0801 0.42623-0.34572 0.86009-0.67878 1.2949-0.96289a1.0001 1.0001 0 0 0-0.55859-1.8457zm19.82 0a1.0001 1.0001 0 0 0-0.52734 1.8457c0.42367 0.27682 0.83494 0.60729 1.2734 0.96289 0.39648 0.32159 0.79173 0.6952 1.1758 1.0801 0.38414 0.38486 0.75517 0.7804 1.0762 1.1777a1.0001 1.0001 0 0 0 0.001953 0c0.34057 0.42146 0.67372 0.85473 0.96094 1.2754 0.0038 0.0056 0.007899 0.012028 0.011719 0.017578 0.29696 0.45697 0.57572 0.91659 0.85742 1.4004 7.47e-4 0.0013 0.001153 0.002606 0.001953 0.003906 0.25027 0.46484 0.48478 0.95429 0.70117 1.4473 0.2064 0.4699 0.3842 0.98172 0.56836 1.5352 0.0012 0.0036 0.002706 0.006166 0.003906 0.009766 0.15647 0.53166 0.29248 1.0632 0.41016 1.5938 0.11482 0.53864 0.19401 1.0869 0.25391 1.6465a1.0001 1.0001 0 1 0 1.9883-0.21289c-0.06515-0.60876-0.15236-1.2293-0.28711-1.8594a1.0001 1.0001 0 0 0-0.001953-0.007812c-0.13035-0.58751-0.28353-1.1733-0.45703-1.7598a1.0001 1.0001 0 0 0-0.009766-0.033203c-0.19014-0.57181-0.38717-1.1442-0.63867-1.7168-0.23851-0.54338-0.4999-1.09-0.78711-1.6211a1.0001 1.0001 0 0 0-0.015625-0.027343c-0.29826-0.51236-0.5996-1.0078-0.92383-1.5059a1.0001 1.0001 0 0 0-0.009766-0.017578c-0.33633-0.49432-0.70764-0.97456-1.0723-1.4258-0.38869-0.48112-0.80977-0.92228-1.2188-1.332-0.40906-0.40994-0.85002-0.83131-1.3301-1.2207-0.43824-0.35538-0.90296-0.73541-1.4395-1.0859a1.0001 1.0001 0 0 0-0.56641-0.16992zm-9.8945 7.3398c1.2853 0 2.5154 0.29942 3.6191 0.82422a1.0002 1.0002 0 0 0 0.001953 0 1.0002 1.0002 0 0 0 0.009765 0.005859c2.8245 1.3453 4.7617 4.2293 4.7617 7.582 0 0.10688-0.003851 0.17098-0.007812 0.23242a1.0001 1.0001 0 0 0-0.023438 0.29492c-0.14435 2.5505-1.4356 4.7975-3.3535 6.1895a1.0008 1.0008 0 0 0-0.001953 0.001953 1.0008 1.0008 0 0 0-0.017578 0.013672h-0.001953c-1.3963 1.0628-3.1201 1.6777-4.9863 1.6777-1.8659 0-3.5922-0.61539-4.9883-1.6777a1.0001 1.0001 0 0 0-0.001953-0.001953 1.0008 1.0008 0 0 0-0.015625-0.011719c-1.9212-1.3933-3.2153-3.6444-3.3574-6.1992a1.0001 1.0001 0 0 0-0.019531-0.2793c-0.004163-0.060882-0.009766-0.12974-0.009766-0.24024 0-3.3569 1.9414-6.2447 4.7715-7.5879a1.0001 1.0001 0 0 0 0.001953 0c1.1037-0.52479 2.3339-0.82422 3.6191-0.82422zm0 2.1621c-0.93475 0-1.8324 0.22966-2.6699 0.61328a1.0001 1.0001 0 0 0-0.015625 0.007812c-2.1418 1.0231-3.5086 3.2046-3.5332 5.6387a1.0001 1.0001 0 0 0 0.003906 0.087891l0.019532 0.24219c0.07704 1.8322 1.0047 3.5514 2.5332 4.666 1.0489 0.79632 2.3301 1.2227 3.6621 1.2227 1.3317 0 2.6349-0.4418 3.7539-1.3145 1.4537-1.0835 2.3681-2.7892 2.4434-4.623l0.013672-0.19727v-0.001953a1.0001 1.0001 0 0 0 0.003906-0.0625 1.0001 1.0001 0 0 0 0.003906-0.050781v-0.021484a1.0001 1.0001 0 0 0-0.044922-0.28516 1.0001 1.0001 0 0 0-0.001953-0.009765c-0.11892-2.264-1.4374-4.3058-3.4805-5.2852-0.85411-0.42569-1.7787-0.62695-2.6914-0.62695zm0 2c0.62786 0 1.2444 0.13627 1.8066 0.41797a1.0001 1.0001 0 0 0 0.015625 0.007813c1.4408 0.6882 2.3868 2.1753 2.3926 3.7891l-0.015625 0.21484a1.0001 1.0001 0 0 0-0.001953 0.029297c-0.04992 1.2161-0.67965 2.3922-1.6426 3.1074a1.0001 1.0001 0 0 0-0.019532 0.015625c-0.79783 0.62572-1.6183 0.89648-2.5352 0.89648s-1.7589-0.28433-2.4609-0.82031a1.0001 1.0001 0 0 0-0.019531-0.013671c-1.0539-0.76634-1.667-1.9265-1.7168-3.1426a1.0001 1.0001 0 0 0-0.001953-0.037109l-0.015625-0.19726c0.02258-1.6982 0.94776-3.1472 2.3887-3.8379 0.61949-0.28211 1.2202-0.42969 1.8262-0.42969zm-10.184 6.2285c0.40192 2.1246 1.4505 4.0186 2.9414 5.4551l-9.7441 6.5859c-0.66996 0.45313-1.408 0.66406-2.1543 0.66406-1.3173 0-2.6069-0.68625-3.3477-1.9473-1.1185-1.9831-0.37421-4.4609 1.6426-5.4629l10.662-5.2949zm20.367 0 10.662 5.2949c2.0168 1.002 2.7612 3.4798 1.6426 5.4629-0.74071 1.261-2.0304 1.9473-3.3477 1.9473-0.74636 0-1.4843-0.21091-2.1543-0.66406l-9.7441-6.5859c1.4909-1.4364 2.5395-3.3305 2.9414-5.4551zm-1.7383 12.631a1.0001 1.0001 0 0 0-0.46875 0.13281c-0.47177 0.25603-0.96933 0.49576-1.4707 0.7168-0.46707 0.20592-0.97538 0.38256-1.5254 0.56641-0.53392 0.1581-1.0668 0.29712-1.5996 0.41602-0.53988 0.11588-1.0894 0.19559-1.6504 0.25586-0.55891 0.057764-1.1281 0.078125-1.709 0.078125-0.58223 0-1.1528-0.020125-1.7129-0.078125-0.58037-0.06019-1.1263-0.13984-1.6387-0.25391a1.0001 1.0001 0 0 0-0.007813-0.001953c-0.55746-0.1197-1.0941-0.25778-1.6074-0.41602a1.0001 1.0001 0 0 0-0.009766-0.003906c-0.51339-0.15239-1.0155-0.34545-1.5078-0.5625-0.50138-0.22104-0.99893-0.46077-1.4707-0.7168a1.0001 1.0001 0 0 0-0.47852-0.12695 1.0001 1.0001 0 0 0-0.47656 1.8848c0.5301 0.28769 1.0769 0.55002 1.6191 0.78906 0.54814 0.24166 1.1265 0.46489 1.7363 0.64648 0.57194 0.1763 1.1639 0.33154 1.7754 0.46289 0.6121 0.13584 1.2318 0.22202 1.8594 0.28711 0.65051 0.06735 1.2915 0.089844 1.9199 0.089844 0.6284 0 1.2674-0.022494 1.918-0.089844a1.0001 1.0001 0 0 0 0.003906 0c0.60773-0.06529 1.2284-0.15209 1.8574-0.28711a1.0001 1.0001 0 0 0 0.00586-0.001953c0.58642-0.13066 1.1725-0.2833 1.7578-0.45703a1.0001 1.0001 0 0 0 0.033203-0.009765c0.57067-0.19058 1.1431-0.38857 1.7148-0.64062 0.54221-0.23904 1.0871-0.50138 1.6172-0.78906a1.0001 1.0001 0 0 0-0.48438-1.8906z"></path></svg>