<?xml version="1.0" encoding="UTF-8"?>
<svg width="60" height="60" version="1.1" viewBox="0 0 60 60" xmlns="http://www.w3.org/2000/svg"><path d="m29.984 0.7793a1.0001 1.0001 0 0 0-0.98438 1.0156v5.1992a1.0001 1.0001 0 1 0 2 0v-5.1992a1.0001 1.0001 0 0 0-1.0156-1.0156zm-18.367 7.623a1.0001 1.0001 0 0 0-0.69727 1.7168l3.6641 3.668a1.0006 1.0006 0 1 0 1.416-1.4141l-3.6641-3.668a1.0001 1.0001 0 0 0-0.71875-0.30273zm36.734 0a1.0001 1.0001 0 0 0-0.6875 0.30273l-3.6641 3.668a1.0006 1.0006 0 1 0 1.416 1.4141l3.6641-3.668a1.0001 1.0001 0 0 0-0.72852-1.7168zm-18.352 2.793c-1.1304 0-2.2613 0.1094-3.3457 0.33203-1.0809 0.22192-2.1277 0.55336-3.1191 0.9668-0.98433 0.41038-1.9258 0.9084-2.8145 1.5176-0.0015 1e-3 -0.002406 0.002906-0.003906 0.003906-0.89443 0.58792-1.7247 1.2789-2.4688 2.0234-0.75403 0.75446-1.415 1.5837-2.0137 2.4551a1.0001 1.0001 0 0 0-0.011719 0.017578c-0.57212 0.87244-1.0966 1.81-1.5156 2.8164-0.41312 0.99198-0.74507 2.0394-0.9668 3.1211-0.22242 1.085-0.33203 2.2166-0.33203 3.3477 0 1.1311 0.10962 2.2626 0.33203 3.3477 0.22503 1.0977 0.58527 2.1437 0.99219 3.1211 0.41274 0.99108 0.91338 1.938 1.5273 2.832l0.001953 0.001953c0.5855 0.88972 1.2738 1.7146 2.0137 2.4551 0.75399 0.75442 1.5822 1.4165 2.4531 2.0156a1.0001 1.0001 0 1 0 1.1328-1.6484c-0.79221-0.54497-1.5226-1.1316-2.1719-1.7812-0.658-0.65857-1.2643-1.3869-1.7676-2.1543a1.0001 1.0001 0 0 0-0.011719-0.019531c-0.52858-0.76939-0.9654-1.5884-1.332-2.4688-0.37259-0.8949-0.68815-1.8254-0.87891-2.7559-0.19337-0.94335-0.29102-1.9442-0.29102-2.9453 0-1.0012 0.09765-2.0021 0.29102-2.9453 0.19405-0.94667 0.48692-1.8736 0.85352-2.7539a1.0001 1.0001 0 0 0 0-0.001953c0.35754-0.85866 0.81589-1.6826 1.3301-2.4688l0.003907-0.003906c0.54367-0.79089 1.1294-1.5216 1.7773-2.1699 0.658-0.65847 1.3874-1.2659 2.1543-1.7695a1.0001 1.0001 0 0 0 0.017579-0.011719c0.76892-0.52895 1.5892-0.96533 2.4688-1.332 0.87949-0.36677 1.806-0.65932 2.752-0.85352 0.94246-0.19349 1.9431-0.29102 2.9434-0.29102 1.0003 0 2.0009 0.09752 2.9434 0.29102 0.94591 0.1942 1.8725 0.48675 2.752 0.85352 0.86151 0.35917 1.6882 0.82088 2.4766 1.3379 0.789 0.54334 1.517 1.1279 2.1641 1.7754 0.65796 0.65833 1.2662 1.3888 1.7695 2.1562a1.0001 1.0001 0 0 0 0.011719 0.017578c0.52868 0.76949 0.96356 1.5885 1.3301 2.4688a1.0001 1.0001 0 0 0 0 0.001953c0.3666 0.88026 0.65946 1.8072 0.85352 2.7539 0.19336 0.94321 0.29102 1.9442 0.29102 2.9453 0 1.0012-0.09765 2.002-0.29102 2.9453-0.19405 0.94657-0.48692 1.8756-0.85352 2.7559-0.35899 0.86222-0.81923 1.6877-1.3359 2.4766-0.54294 0.78954-1.1283 1.5185-1.7754 2.166-0.65806 0.65843-1.3875 1.266-2.1543 1.7695a1.0001 1.0001 0 1 0 1.0977 1.6719c0.8963-0.58853 1.7274-1.2817 2.4727-2.0273 0.75395-0.75449 1.415-1.5835 2.0137-2.4551a1.0001 1.0001 0 0 0 0.011719-0.017578c0.57215-0.87236 1.0966-1.8099 1.5156-2.8164 0.41312-0.99198 0.74507-2.0395 0.9668-3.1211 0.22241-1.085 0.33203-2.2166 0.33203-3.3477 0-1.1311-0.10961-2.2627-0.33203-3.3477-0.22173-1.0817-0.55367-2.1291-0.9668-3.1211-0.41154-0.98832-0.90969-1.9322-1.5215-2.8242-0.58692-0.89353-1.2765-1.7214-2.0195-2.4648-0.75399-0.75453-1.5822-1.4165-2.4531-2.0156a1.0001 1.0001 0 0 0-0.019531-0.011719c-0.8719-0.57252-1.8085-1.0982-2.8145-1.5176-0.99142-0.41344-2.0382-0.74487-3.1191-0.9668-1.0844-0.22263-2.2153-0.33203-3.3457-0.33203zm-5.1777 10.387a1.0001 1.0001 0 0 0-0.98438 1.2734c0.45018 1.6741 0.8384 3.7014 1.1719 5.9141-0.34074 0.29931-0.67015 0.62129-0.97461 0.98633a1.0001 1.0001 0 0 0 1.3145 1.4863c0.65221 5.2483 1.0009 11.21 1.041 16.357h-4.1855a1.0001 1.0001 0 1 0 0 2h5.0293a1.0001 1.0001 0 0 0 0.32617 0h4.8691a1.0001 1.0001 0 0 0 0.32617 0h5.0391a1.0001 1.0001 0 1 0 0-2h-4.1855c0.040105-5.1474 0.38881-11.109 1.041-16.357a1.0001 1.0001 0 0 0 1.3145-1.4863c-0.30446-0.36504-0.63387-0.68702-0.97461-0.98633 0.33347-2.2127 0.72169-4.2399 1.1719-5.9141a1.0001 1.0001 0 0 0-1.0137-1.2715 1.0001 1.0001 0 0 0-0.91797 0.75195c-0.41022 1.5255-0.76444 3.3001-1.0762 5.2012-1.0047-0.48347-2.0771-0.73438-3.1543-0.73438-1.0778 0-2.151 0.25039-3.1562 0.73438-0.31189-1.9011-0.66596-3.6757-1.0762-5.2012a1.0001 1.0001 0 0 0-0.94531-0.75391zm-20.809 5.2148a1.0001 1.0001 0 1 0 0 2h5.1973a1.0001 1.0001 0 1 0 0-2h-5.1973zm46.775 0a1.0001 1.0001 0 1 0 0 2h5.1973a1.0001 1.0001 0 1 0 0-2h-5.1973zm-20.789 2.0059c0.96781 0 1.941 0.27044 2.8438 0.83398-0.78986 5.6867-1.193 12.278-1.2344 17.963h-3.2188c-0.041515-5.6852-0.44592-12.276-1.2363-17.963 0.90315-0.56417 1.8774-0.83398 2.8457-0.83398zm-14.729 12.701a1.0001 1.0001 0 0 0-0.6875 0.30274l-3.6641 3.668a1.0001 1.0001 0 1 0 1.416 1.4121l3.6641-3.666a1.0001 1.0001 0 0 0-0.72852-1.7168zm29.426 0a1.0001 1.0001 0 0 0-0.69727 1.7168l3.6641 3.666a1.0006 1.0006 0 1 0 1.416-1.4141l-3.6641-3.666a1.0001 1.0001 0 0 0-0.71875-0.30274zm-22.492 11.295a1.0001 1.0001 0 1 0 0 2h15.59a1.0001 1.0001 0 1 0 0-2h-15.59zm2.5977 5.2012a1.0001 1.0001 0 1 0 0 2h10.395a1.0001 1.0001 0 1 0 0-2h-10.395z"></path></svg>