<svg width="150" height="40" viewBox="0 0 150 40" fill="none" xmlns="http://www.w3.org/2000/svg">
<path d="M76.1832 6.0293V12.3675H56.0657V16.5027H75.732V22.9182H56.0657V27.5172H76.5593V34.01H47.6803V6.0293H76.1832Z" fill="white"/>
<path d="M82.9899 34.01V6.0293H91.4881V17.7008L105.326 6.0293H116.08L100.513 18.8216L116.832 34.01H105.777L91.4881 20.7926V34.01H82.9899Z" fill="white"/>
<path d="M148.343 6.0293V12.3675H128.827V16.5027H147.854V22.9182H128.827V34.01H120.367V6.0293H148.343Z" fill="white"/>
<path d="M0 0V40H38.9189V0H0ZM23.0129 6.02899C20.7568 11.5556 18.275 17.2367 11.6945 25.8937L11.3561 25.5459C15.906 17.6232 16.5452 11.0918 16.9965 6.02899H23.0129ZM13.349 6.02899C13.6874 10.9372 13.8754 16.5411 11.9953 22.4541C11.9953 22.4541 12.0329 12.4058 8.047 6.02899H13.349ZM3.91069 35.942C3.91069 35.7101 3.9859 35.4783 4.13631 35.3237C11.2808 27.5556 21.96 16.5024 27.2244 6.02899H33.0905V12.058C22.9001 17.43 12.0705 28.4058 4.51234 35.7488C4.36193 35.8647 4.13631 35.942 3.91069 35.942ZM33.0905 31.6135C28.5781 27.8261 17.0341 27.5942 17.0341 27.5942H17.0717C22.8625 25.6618 28.3149 25.8551 33.0905 26.2029V31.6135ZM33.0905 22.57C28.1645 22.9952 21.772 23.6908 14.0635 28.3285L13.725 27.9807C22.1857 21.256 27.7133 18.7053 33.0905 16.3865V22.57Z" fill="white"/>
</svg>
