<?xml version="1.0" encoding="UTF-8"?>
<svg width="360" height="175" fill="none" version="1.1" viewBox="0 0 360 175" xmlns="http://www.w3.org/2000/svg"><path d="m10.596 7.1543h-6.377v11.846h-2.9297v-14.219h9.3066v2.373zm7.8418 8.916h-5.1367l-0.9766 2.9297h-3.1152l5.293-14.219h2.7148l5.3223 14.219h-3.1153l-0.9863-2.9297zm-4.3457-2.373h3.5547l-1.7871-5.3223-1.7676 5.3223zm39.141 5.3027h-9.7461v-1.9336l4.5996-4.9023c0.6315-0.6901 1.097-1.2924 1.3965-1.8067 0.306-0.5143 0.459-1.0026 0.459-1.4648 0-0.63151-0.1595-1.1263-0.4785-1.4844-0.319-0.36458-0.7747-0.54687-1.3672-0.54687-0.638 0-1.1426 0.22135-1.5137 0.66406-0.3646 0.4362-0.5468 1.0124-0.5468 1.7285h-2.8321c0-0.86589 0.2051-1.6569 0.6153-2.373 0.4166-0.71615 1.0026-1.276 1.7578-1.6797 0.7552-0.41015 1.6113-0.61523 2.5683-0.61523 1.4649 0 2.6009 0.35156 3.4082 1.0547 0.8138 0.70313 1.2207 1.696 1.2207 2.9785 0 0.70313-0.1823 1.4193-0.5468 2.1485-0.3646 0.7291-0.9896 1.5788-1.875 2.5488l-3.2325 3.4082h6.1133v2.2754zm2.1582-6.9922 0.8203-7.2266h7.9688v2.3535h-5.6543l-0.3516 3.0566c0.6706-0.35807 1.3835-0.5371 2.1387-0.5371 1.3542 0 2.4154 0.4199 3.1836 1.2598 0.7682 0.8398 1.1523 2.0149 1.1523 3.5254 0 0.9179-0.1953 1.7415-0.5859 2.4707-0.3841 0.7226-0.9375 1.2858-1.6602 1.6894-0.7226 0.3971-1.5755 0.5957-2.5585 0.5957-0.8594 0-1.657-0.1725-2.3926-0.5176-0.7357-0.3515-1.3184-0.8431-1.7481-1.4746-0.4232-0.6315-0.6478-1.3509-0.6738-2.1582h2.793c0.0586 0.5925 0.2636 1.0547 0.6152 1.3867 0.3581 0.3256 0.8236 0.4883 1.3965 0.4883 0.638 0 1.1295-0.2278 1.4746-0.6836 0.345-0.4622 0.5176-1.1133 0.5176-1.9531 0-0.8073-0.1986-1.4258-0.5957-1.8555-0.3972-0.4297-0.9603-0.6445-1.6895-0.6445-0.6706 0-1.2142 0.1758-1.6308 0.5273l-0.2735 0.254-2.2461-0.5567zm45.634-5.6445-5.4977 12.637h-2.9785l5.5078-11.934h-7.0703v-2.2852h10.039v1.582z" fill="#fff"/><g stroke="#fff"><path d="m96 38v16h71"/><path d="m54 38v64h113"/><path d="m11 38v112h156"/></g><g fill="#fff"><circle cx="167" cy="54" r="4"/><circle cx="167" cy="102" r="4"/><circle cx="167" cy="150" r="4"/><circle cx="11" cy="38" r="4"/><circle cx="54" cy="38" r="4"/><circle cx="96" cy="38" r="4"/><g aria-label="Inner diameter, mm"><path d="m185.09 59.024h-1.125v-8.5312h1.125z"/><path d="m188 52.684 0.0352 0.79688q0.72656-0.91406 1.8984-0.91406 2.0098 0 2.0273 2.2676v4.1895h-1.084v-4.1953q-6e-3 -0.68555-0.31641-1.0137-0.30469-0.32812-0.95508-0.32812-0.52734 0-0.92578 0.28125t-0.62109 0.73828v4.5176h-1.084v-6.3398z"/><path d="m194.62 52.684 0.0351 0.79688q0.72656-0.91406 1.8984-0.91406 2.0098 0 2.0273 2.2676v4.1895h-1.084v-4.1953q-6e-3 -0.68555-0.31641-1.0137-0.30468-0.32812-0.95508-0.32812-0.52734 0-0.92578 0.28125-0.39843 0.28125-0.62109 0.73828v4.5176h-1.084v-6.3398z"/><path d="m202.85 59.141q-1.2891 0-2.0977-0.84375-0.80859-0.84961-0.80859-2.2676v-0.19922q0-0.94336 0.35742-1.6816 0.36328-0.74414 1.0078-1.1602 0.65039-0.42188 1.4062-0.42188 1.2363 0 1.9219 0.81445 0.68554 0.81445 0.68554 2.332v0.45117h-4.2949q0.0234 0.9375 0.54492 1.5176 0.52735 0.57422 1.3359 0.57422 0.57422 0 0.97266-0.23438t0.69726-0.62109l0.66211 0.51562q-0.79687 1.2246-2.3906 1.2246zm-0.13477-5.6836q-0.65625 0-1.1016 0.48047-0.44531 0.47461-0.55078 1.3359h3.1758v-0.08203q-0.0469-0.82617-0.44531-1.2773-0.39844-0.45703-1.0781-0.45703z"/><path d="m209.64 53.657q-0.24609-0.04102-0.5332-0.04102-1.0664 0-1.4473 0.9082v4.5h-1.084v-6.3398h1.0547l0.0176 0.73242q0.5332-0.84961 1.5117-0.84961 0.3164 0 0.48046 0.08203z"/><path d="m213.34 55.802q0-1.459 0.69141-2.3438 0.6914-0.89062 1.8105-0.89062 1.1133 0 1.7637 0.76172v-3.3047h1.084v9h-0.9961l-0.0527-0.67969q-0.65039 0.79688-1.8106 0.79688-1.1016 0-1.7988-0.90234-0.69141-0.90234-0.69141-2.3555zm1.084 0.12305q0 1.0781 0.44532 1.6875 0.44531 0.60938 1.2305 0.60938 1.0312 0 1.5059-0.92578v-2.9121q-0.48632-0.89648-1.4941-0.89648-0.79687 0-1.2422 0.61523-0.44532 0.61524-0.44532 1.8223z"/><path d="m221.55 59.024h-1.084v-6.3398h1.084zm-1.1719-8.0215q0-0.26367 0.1582-0.44531 0.16406-0.18164 0.48047-0.18164t0.48047 0.18164q0.16406 0.18164 0.16406 0.44531t-0.16406 0.43945-0.48047 0.17578-0.48047-0.17578q-0.1582-0.17578-0.1582-0.43945z"/><path d="m227.2 59.024q-0.0937-0.1875-0.15234-0.66797-0.75586 0.78516-1.8047 0.78516-0.9375 0-1.541-0.52734-0.59765-0.5332-0.59765-1.3477 0-0.99024 0.75-1.5352 0.75586-0.55078 2.1211-0.55078h1.0547v-0.49805q0-0.56836-0.33984-0.90234-0.33985-0.33984-1.002-0.33984-0.58008 0-0.97265 0.29297-0.39258 0.29297-0.39258 0.70898h-1.0898q0-0.47461 0.33399-0.91406 0.33984-0.44531 0.91406-0.70312 0.58008-0.25781 1.2715-0.25781 1.0957 0 1.7168 0.55078 0.6211 0.54492 0.64453 1.5059v2.918q0 0.87305 0.22266 1.3887v0.09375zm-1.7988-0.82617q0.50977 0 0.9668-0.26367 0.45703-0.26367 0.66211-0.68555v-1.3008h-0.84961q-1.9922 0-1.9922 1.166 0 0.50977 0.33985 0.79688 0.33984 0.28711 0.87304 0.28711z"/><path d="m230.83 52.684 0.0293 0.70312q0.69727-0.82031 1.8809-0.82031 1.3301 0 1.8106 1.0195 0.3164-0.45703 0.82031-0.73828 0.50976-0.28125 1.2012-0.28125 2.0859 0 2.1211 2.209v4.248h-1.084v-4.1836q0-0.67969-0.31055-1.0137-0.31054-0.33984-1.043-0.33984-0.60351 0-1.002 0.36328-0.39844 0.35742-0.46289 0.9668v4.207h-1.0898v-4.1543q0-1.3828-1.3535-1.3828-1.0664 0-1.459 0.9082v4.6289h-1.084v-6.3398z"/><path d="m242.96 59.141q-1.2891 0-2.0977-0.84375-0.80859-0.84961-0.80859-2.2676v-0.19922q0-0.94336 0.35742-1.6816 0.36328-0.74414 1.0078-1.1602 0.65039-0.42188 1.4062-0.42188 1.2363 0 1.9219 0.81445t0.68555 2.332v0.45117h-4.2949q0.0234 0.9375 0.54493 1.5176 0.52734 0.57422 1.3359 0.57422 0.57422 0 0.97266-0.23438t0.69727-0.62109l0.6621 0.51562q-0.79687 1.2246-2.3906 1.2246zm-0.13477-5.6836q-0.65625 0-1.1016 0.48047-0.44531 0.47461-0.55078 1.3359h3.1758v-0.08203q-0.0469-0.82617-0.44531-1.2773-0.39844-0.45703-1.0781-0.45703z"/><path d="m248.16 51.149v1.5352h1.1836v0.83789h-1.1836v3.9316q0 0.38086 0.1582 0.57422 0.1582 0.1875 0.53906 0.1875 0.1875 0 0.51563-0.07031v0.87891q-0.42774 0.11719-0.83204 0.11719-0.72656 0-1.0957-0.43945t-0.36914-1.248v-3.9316h-1.1543v-0.83789h1.1543v-1.5352z"/><path d="m253.24 59.141q-1.2891 0-2.0976-0.84375-0.8086-0.84961-0.8086-2.2676v-0.19922q0-0.94336 0.35743-1.6816 0.36328-0.74414 1.0078-1.1602 0.65039-0.42188 1.4062-0.42188 1.2363 0 1.9219 0.81445 0.68555 0.81445 0.68555 2.332v0.45117h-4.2949q0.0234 0.9375 0.54492 1.5176 0.52734 0.57422 1.3359 0.57422 0.57422 0 0.97265-0.23438 0.39844-0.23438 0.69727-0.62109l0.66211 0.51562q-0.79688 1.2246-2.3906 1.2246zm-0.13476-5.6836q-0.65625 0-1.1016 0.48047-0.44532 0.47461-0.55079 1.3359h3.1758v-0.08203q-0.0469-0.82617-0.44532-1.2773-0.39843-0.45703-1.0781-0.45703z"/><path d="m260.03 53.657q-0.24609-0.04102-0.5332-0.04102-1.0664 0-1.4473 0.9082v4.5h-1.084v-6.3398h1.0547l0.0176 0.73242q0.5332-0.84961 1.5117-0.84961 0.31641 0 0.48047 0.08203z"/><path d="m260.27 60.723-0.61523-0.42188q0.55078-0.76758 0.57422-1.582v-0.97852h1.0605v0.84961q0 0.5918-0.29296 1.1836-0.28711 0.5918-0.72657 0.94922z"/><path d="m266.65 52.684 0.0293 0.70312q0.69727-0.82031 1.8809-0.82031 1.3301 0 1.8106 1.0195 0.3164-0.45703 0.82031-0.73828 0.50976-0.28125 1.2012-0.28125 2.0859 0 2.1211 2.209v4.248h-1.084v-4.1836q0-0.67969-0.31055-1.0137-0.31054-0.33984-1.043-0.33984-0.60351 0-1.002 0.36328-0.39844 0.35742-0.46289 0.9668v4.207h-1.0898v-4.1543q0-1.3828-1.3535-1.3828-1.0664 0-1.459 0.9082v4.6289h-1.084v-6.3398z"/><path d="m277.17 52.684 0.0293 0.70312q0.69726-0.82031 1.8809-0.82031 1.3301 0 1.8105 1.0195 0.31641-0.45703 0.82032-0.73828 0.50976-0.28125 1.2012-0.28125 2.0859 0 2.1211 2.209v4.248h-1.084v-4.1836q0-0.67969-0.31055-1.0137-0.31055-0.33984-1.043-0.33984-0.60351 0-1.002 0.36328-0.39844 0.35742-0.46289 0.9668v4.207h-1.0898v-4.1543q0-1.3828-1.3535-1.3828-1.0664 0-1.459 0.9082v4.6289h-1.084v-6.3398z"/></g><g aria-label="Connected conductor cross-section, mm²"><path d="m190.28 104.26q-0.1582 1.3535-1.002 2.0918-0.83789 0.73242-2.2324 0.73242-1.5117 0-2.4258-1.084-0.90821-1.084-0.90821-2.9004v-0.82031q0-1.1895 0.42188-2.0918 0.42773-0.90234 1.207-1.3828 0.7793-0.48633 1.8047-0.48633 1.3594 0 2.1797 0.76172 0.82032 0.75586 0.95508 2.0977h-1.1309q-0.14648-1.0195-0.63867-1.4766-0.48633-0.45703-1.3652-0.45703-1.0781 0-1.6934 0.79688-0.60938 0.79687-0.60938 2.2676v0.82618q0 1.3887 0.58008 2.209t1.623 0.82031q0.9375 0 1.4355-0.42187 0.50391-0.42774 0.66797-1.4824z"/><path d="m191.36 103.74q0-0.93164 0.36328-1.6758 0.36914-0.74414 1.0195-1.1484 0.65625-0.40429 1.4941-0.40429 1.2949 0 2.0918 0.89648 0.80273 0.89648 0.80273 2.3848v0.0762q0 0.92578-0.35742 1.6641-0.35156 0.73242-1.0137 1.1426-0.65625 0.41015-1.5117 0.41015-1.2891 0-2.0918-0.89648-0.79687-0.89648-0.79687-2.373zm1.0898 0.12891q0 1.0547 0.48633 1.6934 0.49219 0.63867 1.3125 0.63867 0.82617 0 1.3125-0.64453 0.48633-0.65039 0.48633-1.8164 0-1.043-0.49805-1.6875-0.49219-0.65039-1.3125-0.65039-0.80273 0-1.2949 0.63867t-0.49219 1.8281z"/><path d="m199.52 100.63 0.0351 0.79688q0.72657-0.91406 1.8984-0.91406 2.0098 0 2.0273 2.2676v4.1895h-1.084v-4.1953q-6e-3 -0.68554-0.31641-1.0137-0.30468-0.32812-0.95507-0.32812-0.52735 0-0.92579 0.28125-0.39843 0.28125-0.62109 0.73828v4.5176h-1.084v-6.3398z"/><path d="m206.14 100.63 0.0352 0.79688q0.72656-0.91406 1.8984-0.91406 2.0098 0 2.0274 2.2676v4.1895h-1.084v-4.1953q-6e-3 -0.68554-0.3164-1.0137-0.30469-0.32812-0.95508-0.32812-0.52734 0-0.92578 0.28125t-0.6211 0.73828v4.5176h-1.084v-6.3398z"/><path d="m214.36 107.08q-1.2891 0-2.0976-0.84375-0.8086-0.8496-0.8086-2.2676v-0.19922q0-0.94336 0.35743-1.6816 0.36328-0.74414 1.0078-1.1602 0.65039-0.42187 1.4062-0.42187 1.2363 0 1.9219 0.81445 0.68555 0.81445 0.68555 2.332v0.45117h-4.2949q0.0234 0.9375 0.54492 1.5176 0.52734 0.57422 1.3359 0.57422 0.57422 0 0.97265-0.23438 0.39844-0.23437 0.69727-0.62109l0.66211 0.51563q-0.79688 1.2246-2.3906 1.2246zm-0.13476-5.6836q-0.65625 0-1.1016 0.48047-0.44532 0.47461-0.55079 1.3359h3.1758v-0.082q-0.0469-0.82618-0.44532-1.2774-0.39843-0.45703-1.0781-0.45703z"/><path d="m220.63 106.2q0.58008 0 1.0137-0.35156 0.43359-0.35157 0.48047-0.87891h1.0254q-0.0293 0.54492-0.375 1.0371-0.34571 0.49219-0.92579 0.78516-0.57421 0.29296-1.2188 0.29296-1.2949 0-2.0625-0.86132-0.76171-0.86719-0.76171-2.3672v-0.18164q0-0.92578 0.33984-1.6465 0.33984-0.7207 0.97266-1.1191 0.63867-0.39843 1.5059-0.39843 1.0664 0 1.7695 0.63867 0.70898 0.63867 0.75586 1.6582h-1.0254q-0.0469-0.61523-0.46875-1.0078-0.41602-0.39844-1.0312-0.39844-0.82618 0-1.2832 0.59766-0.45117 0.59179-0.45117 1.7168v0.20508q0 1.0957 0.45117 1.6875 0.45117 0.5918 1.2891 0.5918z"/><path d="m225.84 99.09v1.5352h1.1836v0.83789h-1.1836v3.9316q0 0.38086 0.1582 0.57422 0.15821 0.1875 0.53906 0.1875 0.1875 0 0.51563-0.0703v0.87891q-0.42773 0.11718-0.83203 0.11718-0.72656 0-1.0957-0.43945-0.36915-0.43945-0.36915-1.248v-3.9316h-1.1543v-0.83789h1.1543v-1.5352z"/><path d="m230.92 107.08q-1.2891 0-2.0977-0.84375-0.80859-0.8496-0.80859-2.2676v-0.19922q0-0.94336 0.35742-1.6816 0.36328-0.74414 1.0078-1.1602 0.65039-0.42187 1.4062-0.42187 1.2363 0 1.9219 0.81445 0.68554 0.81445 0.68554 2.332v0.45117h-4.2949q0.0234 0.9375 0.54492 1.5176 0.52735 0.57422 1.3359 0.57422 0.57422 0 0.97266-0.23438 0.39843-0.23437 0.69726-0.62109l0.66211 0.51563q-0.79687 1.2246-2.3906 1.2246zm-0.13477-5.6836q-0.65625 0-1.1016 0.48047-0.44531 0.47461-0.55078 1.3359h3.1758v-0.082q-0.0469-0.82618-0.44531-1.2774-0.39844-0.45703-1.0781-0.45703z"/><path d="m234.39 103.74q0-1.459 0.6914-2.3438 0.69141-0.89062 1.8106-0.89062 1.1133 0 1.7637 0.76171v-3.3047h1.084v9h-0.9961l-0.0527-0.67969q-0.65039 0.79687-1.8106 0.79687-1.1016 0-1.7988-0.90234-0.6914-0.90234-0.6914-2.3555zm1.084 0.12305q0 1.0781 0.44531 1.6875 0.44532 0.60937 1.2305 0.60937 1.0312 0 1.5059-0.92578v-2.9121q-0.48633-0.89648-1.4941-0.89648-0.79687 0-1.2422 0.61523-0.44531 0.61524-0.44531 1.8223z"/><path d="m246.93 106.2q0.58008 0 1.0137-0.35156 0.4336-0.35157 0.48047-0.87891h1.0254q-0.0293 0.54492-0.375 1.0371t-0.92578 0.78516q-0.57422 0.29296-1.2188 0.29296-1.2949 0-2.0625-0.86132-0.76172-0.86719-0.76172-2.3672v-0.18164q0-0.92578 0.33984-1.6465 0.33985-0.7207 0.97266-1.1191 0.63867-0.39843 1.5059-0.39843 1.0664 0 1.7695 0.63867 0.70899 0.63867 0.75586 1.6582h-1.0254q-0.0469-0.61523-0.46875-1.0078-0.41602-0.39844-1.0312-0.39844-0.82617 0-1.2832 0.59766-0.45117 0.59179-0.45117 1.7168v0.20508q0 1.0957 0.45117 1.6875 0.45117 0.5918 1.2891 0.5918z"/><path d="m250.38 103.74q0-0.93164 0.36328-1.6758 0.36914-0.74414 1.0195-1.1484 0.65625-0.40429 1.4941-0.40429 1.2949 0 2.0918 0.89648 0.80274 0.89648 0.80274 2.3848v0.0762q0 0.92578-0.35743 1.6641-0.35156 0.73242-1.0137 1.1426-0.65625 0.41015-1.5117 0.41015-1.2891 0-2.0918-0.89648-0.79688-0.89648-0.79688-2.373zm1.0898 0.12891q0 1.0547 0.48632 1.6934 0.49219 0.63867 1.3125 0.63867 0.82618 0 1.3125-0.64453 0.48633-0.65039 0.48633-1.8164 0-1.043-0.49805-1.6875-0.49218-0.65039-1.3125-0.65039-0.80273 0-1.2949 0.63867-0.49218 0.63867-0.49218 1.8281z"/><path d="m258.54 100.63 0.0352 0.79688q0.72656-0.91406 1.8984-0.91406 2.0098 0 2.0273 2.2676v4.1895h-1.084v-4.1953q-6e-3 -0.68554-0.3164-1.0137-0.30469-0.32812-0.95508-0.32812-0.52734 0-0.92578 0.28125t-0.62109 0.73828v4.5176h-1.084v-6.3398z"/><path d="m263.87 103.74q0-1.459 0.69141-2.3438 0.69141-0.89062 1.8106-0.89062 1.1133 0 1.7637 0.76171v-3.3047h1.084v9h-0.99609l-0.0527-0.67969q-0.65039 0.79687-1.8105 0.79687-1.1016 0-1.7988-0.90234-0.69141-0.90234-0.69141-2.3555zm1.084 0.12305q0 1.0781 0.44531 1.6875 0.44531 0.60937 1.2305 0.60937 1.0312 0 1.5059-0.92578v-2.9121q-0.48633-0.89648-1.4941-0.89648-0.79688 0-1.2422 0.61523-0.44531 0.61524-0.44531 1.8223z"/><path d="m274.82 106.34q-0.63282 0.74414-1.8574 0.74414-1.0137 0-1.5469-0.58593-0.52735-0.5918-0.5332-1.7461v-4.125h1.084v4.0957q0 1.4414 1.1719 1.4414 1.2422 0 1.6524-0.92578v-4.6113h1.084v6.3398h-1.0312z"/><path d="m280.06 106.2q0.58007 0 1.0137-0.35156 0.43359-0.35157 0.48047-0.87891h1.0254q-0.0293 0.54492-0.375 1.0371-0.34571 0.49219-0.92578 0.78516-0.57422 0.29296-1.2188 0.29296-1.2949 0-2.0625-0.86132-0.76172-0.86719-0.76172-2.3672v-0.18164q0-0.92578 0.33984-1.6465 0.33984-0.7207 0.97266-1.1191 0.63867-0.39843 1.5059-0.39843 1.0664 0 1.7695 0.63867 0.70898 0.63867 0.75586 1.6582h-1.0254q-0.0469-0.61523-0.46875-1.0078-0.41602-0.39844-1.0312-0.39844-0.82618 0-1.2832 0.59766-0.45117 0.59179-0.45117 1.7168v0.20508q0 1.0957 0.45117 1.6875 0.45118 0.5918 1.2891 0.5918z"/><path d="m285.27 99.09v1.5352h1.1836v0.83789h-1.1836v3.9316q0 0.38086 0.1582 0.57422 0.15821 0.1875 0.53907 0.1875 0.1875 0 0.51562-0.0703v0.87891q-0.42773 0.11718-0.83203 0.11718-0.72656 0-1.0957-0.43945t-0.36914-1.248v-3.9316h-1.1543v-0.83789h1.1543v-1.5352z"/><path d="m287.31 103.74q0-0.93164 0.36328-1.6758 0.36914-0.74414 1.0195-1.1484 0.65625-0.40429 1.4942-0.40429 1.2949 0 2.0918 0.89648 0.80274 0.89648 0.80274 2.3848v0.0762q0 0.92578-0.35743 1.6641-0.35156 0.73242-1.0137 1.1426-0.65625 0.41015-1.5117 0.41015-1.2891 0-2.0918-0.89648-0.79688-0.89648-0.79688-2.373zm1.0898 0.12891q0 1.0547 0.48632 1.6934 0.49219 0.63867 1.3125 0.63867 0.82618 0 1.3125-0.64453 0.48633-0.65039 0.48633-1.8164 0-1.043-0.49804-1.6875-0.49219-0.65039-1.3125-0.65039-0.80274 0-1.2949 0.63867-0.49218 0.63867-0.49218 1.8281z"/><path d="m297.51 101.6q-0.24609-0.041-0.5332-0.041-1.0664 0-1.4473 0.90821v4.5h-1.084v-6.3398h1.0547l0.0176 0.73243q0.5332-0.84961 1.5117-0.84961 0.3164 0 0.48046 0.082z"/><path d="m186.38 121.32q0.58008 0 1.0137-0.35157 0.43359-0.35156 0.48047-0.8789h1.0254q-0.0293 0.54492-0.375 1.0371-0.3457 0.49218-0.92578 0.78515-0.57422 0.29297-1.2188 0.29297-1.2949 0-2.0625-0.86133-0.76172-0.86718-0.76172-2.3672v-0.18164q0-0.92579 0.33984-1.6465 0.33985-0.7207 0.97266-1.1191 0.63867-0.39844 1.5059-0.39844 1.0664 0 1.7695 0.63868 0.70898 0.63867 0.75586 1.6582h-1.0254q-0.0469-0.61524-0.46875-1.0078-0.41602-0.39844-1.0312-0.39844-0.82617 0-1.2832 0.59765-0.45118 0.5918-0.45118 1.7168v0.20508q0 1.0957 0.45118 1.6875 0.45117 0.5918 1.2891 0.5918z"/><path d="m193.18 116.72q-0.24609-0.041-0.5332-0.041-1.0664 0-1.4473 0.9082v4.5h-1.084v-6.3398h1.0547l0.0176 0.73242q0.5332-0.84961 1.5117-0.84961 0.31641 0 0.48047 0.082z"/><path d="m193.77 118.85q0-0.93164 0.36328-1.6758 0.36914-0.74414 1.0195-1.1484 0.65625-0.4043 1.4941-0.4043 1.2949 0 2.0918 0.89649 0.80273 0.89648 0.80273 2.3848v0.0762q0 0.92578-0.35742 1.6641-0.35156 0.73242-1.0137 1.1426-0.65625 0.41015-1.5117 0.41015-1.2891 0-2.0918-0.89648-0.79687-0.89649-0.79687-2.373zm1.0898 0.12891q0 1.0547 0.48633 1.6934 0.49219 0.63868 1.3125 0.63868 0.82617 0 1.3125-0.64453 0.48633-0.6504 0.48633-1.8164 0-1.043-0.49805-1.6875-0.49218-0.65039-1.3125-0.65039-0.80273 0-1.2949 0.63867t-0.49219 1.8281z"/><path d="m204.6 120.4q0-0.43945-0.33399-0.67968-0.32812-0.2461-1.1543-0.42188-0.82031-0.17578-1.3066-0.42187-0.48047-0.2461-0.71484-0.58594-0.22852-0.33984-0.22852-0.80859 0-0.7793 0.65625-1.3184 0.66211-0.53907 1.6875-0.53907 1.0781 0 1.7461 0.55664 0.67383 0.55664 0.67383 1.4238h-1.0898q0-0.44531-0.38086-0.76758-0.375-0.32226-0.94922-0.32226-0.59179 0-0.92578 0.25781-0.33398 0.25781-0.33398 0.67383 0 0.39258 0.31055 0.5918 0.31054 0.19921 1.1191 0.38086 0.81445 0.18164 1.3184 0.43359 0.5039 0.25195 0.74414 0.60937 0.24609 0.35157 0.24609 0.86133 0 0.84961-0.67969 1.3652-0.67969 0.50976-1.7637 0.50976-0.76172 0-1.3477-0.26953-0.58593-0.26953-0.91992-0.75-0.32812-0.48633-0.32812-1.0488h1.084q0.0293 0.54492 0.4336 0.86719 0.41015 0.31641 1.0781 0.31641 0.61523 0 0.98438-0.2461 0.375-0.25195 0.375-0.66797z"/><path d="m210.78 120.4q0-0.43945-0.33399-0.67968-0.32812-0.2461-1.1543-0.42188-0.82031-0.17578-1.3066-0.42187-0.48047-0.2461-0.71484-0.58594-0.22852-0.33984-0.22852-0.80859 0-0.7793 0.65625-1.3184 0.66211-0.53907 1.6875-0.53907 1.0781 0 1.7461 0.55664 0.67383 0.55664 0.67383 1.4238h-1.0898q0-0.44531-0.38086-0.76758-0.375-0.32226-0.94922-0.32226-0.59179 0-0.92578 0.25781-0.33398 0.25781-0.33398 0.67383 0 0.39258 0.31055 0.5918 0.31054 0.19921 1.1191 0.38086 0.81445 0.18164 1.3184 0.43359 0.5039 0.25195 0.74414 0.60937 0.24609 0.35157 0.24609 0.86133 0 0.84961-0.67969 1.3652-0.67969 0.50976-1.7637 0.50976-0.76172 0-1.3477-0.26953-0.58593-0.26953-0.91992-0.75-0.32812-0.48633-0.32812-1.0488h1.084q0.0293 0.54492 0.4336 0.86719 0.41015 0.31641 1.0781 0.31641 0.61523 0 0.98438-0.2461 0.375-0.25195 0.375-0.66797z"/><path d="m215.54 118.9h-2.8594v-0.88476h2.8594z"/><path d="m220.28 120.4q0-0.43945-0.33398-0.67968-0.32813-0.2461-1.1543-0.42188-0.82031-0.17578-1.3066-0.42187-0.48047-0.2461-0.71484-0.58594-0.22852-0.33984-0.22852-0.80859 0-0.7793 0.65625-1.3184 0.66211-0.53907 1.6875-0.53907 1.0781 0 1.7461 0.55664 0.67383 0.55664 0.67383 1.4238h-1.0898q0-0.44531-0.38086-0.76758-0.375-0.32226-0.94922-0.32226-0.5918 0-0.92578 0.25781t-0.33398 0.67383q0 0.39258 0.31054 0.5918 0.31055 0.19921 1.1191 0.38086 0.81446 0.18164 1.3184 0.43359 0.50391 0.25195 0.74414 0.60937 0.2461 0.35157 0.2461 0.86133 0 0.84961-0.67969 1.3652-0.67969 0.50976-1.7637 0.50976-0.76172 0-1.3477-0.26953t-0.91992-0.75q-0.32813-0.48633-0.32813-1.0488h1.084q0.0293 0.54492 0.43359 0.86719 0.41016 0.31641 1.0781 0.31641 0.61523 0 0.98437-0.2461 0.375-0.25195 0.375-0.66797z"/><path d="m225.41 122.2q-1.2891 0-2.0977-0.84375-0.80859-0.84961-0.80859-2.2676v-0.19921q0-0.94336 0.35742-1.6816 0.36328-0.74414 1.0078-1.1602 0.65039-0.42188 1.4062-0.42188 1.2363 0 1.9219 0.81446 0.68555 0.81445 0.68555 2.332v0.45117h-4.2949q0.0234 0.9375 0.54492 1.5176 0.52735 0.57422 1.3359 0.57422 0.57422 0 0.97266-0.23438 0.39843-0.23437 0.69726-0.62109l0.66211 0.51562q-0.79687 1.2246-2.3906 1.2246zm-0.13477-5.6836q-0.65625 0-1.1016 0.48047-0.44532 0.47461-0.55078 1.3359h3.1758v-0.082q-0.0469-0.82617-0.44532-1.2773-0.39843-0.45703-1.0781-0.45703z"/><path d="m231.68 121.32q0.58007 0 1.0137-0.35157 0.43359-0.35156 0.48047-0.8789h1.0254q-0.0293 0.54492-0.375 1.0371-0.34571 0.49218-0.92578 0.78515-0.57422 0.29297-1.2188 0.29297-1.2949 0-2.0625-0.86133-0.76172-0.86718-0.76172-2.3672v-0.18164q0-0.92579 0.33984-1.6465 0.33985-0.7207 0.97266-1.1191 0.63867-0.39844 1.5059-0.39844 1.0664 0 1.7695 0.63868 0.70898 0.63867 0.75586 1.6582h-1.0254q-0.0469-0.61524-0.46875-1.0078-0.41602-0.39844-1.0312-0.39844-0.82617 0-1.2832 0.59765-0.45117 0.5918-0.45117 1.7168v0.20508q0 1.0957 0.45117 1.6875 0.45118 0.5918 1.2891 0.5918z"/><path d="m236.89 114.21v1.5352h1.1836v0.83789h-1.1836v3.9316q0 0.38086 0.1582 0.57422 0.15821 0.1875 0.53907 0.1875 0.1875 0 0.51562-0.0703v0.8789q-0.42773 0.11719-0.83203 0.11719-0.72656 0-1.0957-0.43945t-0.36914-1.248v-3.9316h-1.1543v-0.83789h1.1543v-1.5352z"/><path d="m240.51 122.08h-1.084v-6.3398h1.084zm-1.1719-8.0215q0-0.26367 0.1582-0.44531 0.16406-0.18164 0.48047-0.18164t0.48047 0.18164 0.16406 0.44531-0.16406 0.43945-0.48047 0.17578-0.48047-0.17578q-0.1582-0.17578-0.1582-0.43945z"/><path d="m241.96 118.85q0-0.93164 0.36328-1.6758 0.36914-0.74414 1.0195-1.1484 0.65625-0.4043 1.4941-0.4043 1.2949 0 2.0918 0.89649 0.80273 0.89648 0.80273 2.3848v0.0762q0 0.92578-0.35742 1.6641-0.35156 0.73242-1.0137 1.1426-0.65625 0.41015-1.5117 0.41015-1.2891 0-2.0918-0.89648-0.79687-0.89649-0.79687-2.373zm1.0898 0.12891q0 1.0547 0.48633 1.6934 0.49219 0.63868 1.3125 0.63868 0.82617 0 1.3125-0.64453 0.48633-0.6504 0.48633-1.8164 0-1.043-0.49805-1.6875-0.49218-0.65039-1.3125-0.65039-0.80273 0-1.2949 0.63867t-0.49219 1.8281z"/><path d="m250.12 115.74 0.0352 0.79688q0.72656-0.91407 1.8984-0.91407 2.0098 0 2.0274 2.2676v4.1894h-1.084v-4.1953q-6e-3 -0.68554-0.3164-1.0137-0.30469-0.32812-0.95508-0.32812-0.52735 0-0.92578 0.28125-0.39844 0.28125-0.6211 0.73828v4.5176h-1.084v-6.3398z"/><path d="m255.68 123.78-0.61524-0.42187q0.55078-0.76758 0.57422-1.582v-0.97852h1.0606v0.84961q0 0.5918-0.29297 1.1836-0.28711 0.5918-0.72656 0.94922z"/><path d="m262.06 115.74 0.0293 0.70313q0.69727-0.82032 1.8809-0.82032 1.3301 0 1.8106 1.0195 0.31641-0.45703 0.82031-0.73828 0.50977-0.28125 1.2012-0.28125 2.0859 0 2.1211 2.209v4.248h-1.084v-4.1836q0-0.67969-0.31054-1.0137-0.31055-0.33984-1.043-0.33984-0.60352 0-1.002 0.36328-0.39843 0.35742-0.46289 0.96679v4.207h-1.0898v-4.1543q0-1.3828-1.3535-1.3828-1.0664 0-1.459 0.9082v4.6289h-1.084v-6.3398z"/><path d="m272.58 115.74 0.0293 0.70313q0.69727-0.82032 1.8809-0.82032 1.3301 0 1.8106 1.0195 0.3164-0.45703 0.82031-0.73828 0.50977-0.28125 1.2012-0.28125 2.0859 0 2.1211 2.209v4.248h-1.084v-4.1836q0-0.67969-0.31055-1.0137-0.31054-0.33984-1.043-0.33984-0.60352 0-1.002 0.36328-0.39844 0.35742-0.46289 0.96679v4.207h-1.0898v-4.1543q0-1.3828-1.3535-1.3828-1.0664 0-1.459 0.9082v4.6289h-1.084v-6.3398z"/><path d="m285.26 118.17h-3.5098v-0.63281l1.7578-1.6523q0.63867-0.59766 0.63867-1.002 0-0.28711-0.1875-0.46289-0.1875-0.18164-0.53906-0.18164-0.43946 0-0.65039 0.22266-0.20508 0.22265-0.20508 0.55664h-0.91992q0-0.66797 0.48633-1.1016 0.49218-0.4336 1.2656-0.4336t1.2246 0.375q0.45117 0.36914 0.45117 1.0137 0 0.60938-0.62695 1.2363l-0.49219 0.46289-1.0312 0.84961h2.3379z"/></g><g aria-label="Sleeve type (in this case – aluminum sleeve)"><path d="m186.52 150.45q-1.4473-0.41602-2.1094-1.0195-0.65625-0.60938-0.65625-1.5 0-1.0078 0.80273-1.6641 0.8086-0.66211 2.0977-0.66211 0.87891 0 1.5644 0.33984 0.69141 0.33984 1.0664 0.9375 0.38086 0.59766 0.38086 1.3066h-1.1309q0-0.77344-0.49219-1.2129-0.49219-0.44531-1.3887-0.44531-0.83203 0-1.3008 0.36914-0.46289 0.36328-0.46289 1.0137 0 0.52149 0.43945 0.88477 0.44531 0.35742 1.5059 0.65625 1.0664 0.29882 1.6641 0.66211 0.60352 0.35742 0.89063 0.83789 0.29297 0.48047 0.29297 1.1309 0 1.0371-0.8086 1.6641-0.80859 0.62109-2.1621 0.62109-0.8789 0-1.6406-0.33398-0.76172-0.33985-1.1777-0.92578-0.41015-0.58594-0.41015-1.3301h1.1309q0 0.77344 0.56836 1.2246 0.57421 0.44531 1.5293 0.44531 0.89063 0 1.3652-0.36328t0.47461-0.99024q0-0.62695-0.43946-0.96679-0.43945-0.34571-1.5938-0.67969z"/><path d="m192.13 154.25h-1.084v-9h1.084z"/><path d="m196.5 154.37q-1.2891 0-2.0977-0.84375-0.80859-0.84961-0.80859-2.2676v-0.19921q0-0.94336 0.35742-1.6816 0.36328-0.74414 1.0078-1.1602 0.65039-0.42188 1.4062-0.42188 1.2363 0 1.9219 0.81446 0.68555 0.81445 0.68555 2.332v0.45117h-4.2949q0.0234 0.9375 0.54493 1.5176 0.52734 0.57422 1.3359 0.57422 0.57422 0 0.97266-0.23438 0.39844-0.23437 0.69726-0.62109l0.66211 0.51562q-0.79687 1.2246-2.3906 1.2246zm-0.13477-5.6836q-0.65625 0-1.1016 0.48047-0.44531 0.47461-0.55078 1.3359h3.1758v-0.082q-0.0469-0.82617-0.44531-1.2773-0.39844-0.45703-1.0781-0.45703z"/><path d="m202.86 154.37q-1.2891 0-2.0977-0.84375-0.80859-0.84961-0.80859-2.2676v-0.19921q0-0.94336 0.35742-1.6816 0.36328-0.74414 1.0078-1.1602 0.65039-0.42188 1.4062-0.42188 1.2363 0 1.9219 0.81446 0.68555 0.81445 0.68555 2.332v0.45117h-4.2949q0.0234 0.9375 0.54492 1.5176 0.52734 0.57422 1.3359 0.57422 0.57422 0 0.97266-0.23438 0.39844-0.23437 0.69727-0.62109l0.66211 0.51562q-0.79688 1.2246-2.3906 1.2246zm-0.13476-5.6836q-0.65625 0-1.1016 0.48047-0.44531 0.47461-0.55078 1.3359h3.1758v-0.082q-0.0469-0.82617-0.44531-1.2773-0.39844-0.45703-1.0781-0.45703z"/><path d="m208.6 152.78 1.5703-4.8691h1.1074l-2.2734 6.3398h-0.82618l-2.2969-6.3398h1.1074z"/><path d="m214.87 154.37q-1.2891 0-2.0977-0.84375-0.80859-0.84961-0.80859-2.2676v-0.19921q0-0.94336 0.35742-1.6816 0.36328-0.74414 1.0078-1.1602 0.65039-0.42188 1.4062-0.42188 1.2363 0 1.9219 0.81446 0.68555 0.81445 0.68555 2.332v0.45117h-4.2949q0.0234 0.9375 0.54493 1.5176 0.52734 0.57422 1.3359 0.57422 0.57422 0 0.97266-0.23438 0.39844-0.23437 0.69726-0.62109l0.66211 0.51562q-0.79687 1.2246-2.3906 1.2246zm-0.13477-5.6836q-0.65625 0-1.1016 0.48047-0.44531 0.47461-0.55078 1.3359h3.1758v-0.082q-0.0469-0.82617-0.44531-1.2773-0.39844-0.45703-1.0781-0.45703z"/><path d="m223.04 146.37v1.5352h1.1836v0.83789h-1.1836v3.9316q0 0.38086 0.1582 0.57422 0.1582 0.1875 0.53906 0.1875 0.1875 0 0.51563-0.0703v0.8789q-0.42774 0.11719-0.83203 0.11719-0.72657 0-1.0957-0.43945t-0.36914-1.248v-3.9316h-1.1543v-0.83789h1.1543v-1.5352z"/><path d="m227.57 152.66 1.4766-4.752h1.1602l-2.5488 7.3184q-0.5918 1.582-1.8809 1.582l-0.20508-0.0176-0.4043-0.0762v-0.8789l0.29297 0.0234q0.55078 0 0.85547-0.22265 0.31055-0.22266 0.50976-0.81446l0.24024-0.64453-2.2617-6.2695h1.1836z"/><path d="m236.52 151.15q0 1.4473-0.66211 2.332-0.66211 0.88476-1.793 0.88476-1.1543 0-1.8164-0.73242v3.0527h-1.084v-8.7773h0.99024l0.0527 0.70313q0.66211-0.82032 1.8398-0.82032 1.1426 0 1.8047 0.86133 0.66797 0.86133 0.66797 2.3965zm-1.084-0.12305q0-1.0723-0.45704-1.6934-0.45703-0.62109-1.2539-0.62109-0.98438 0-1.4766 0.87304v3.0293q0.48632 0.86719 1.4883 0.86719 0.77929 0 1.2363-0.61524 0.4629-0.62109 0.4629-1.8398z"/><path d="m240.53 154.37q-1.2891 0-2.0976-0.84375-0.8086-0.84961-0.8086-2.2676v-0.19921q0-0.94336 0.35742-1.6816 0.36329-0.74414 1.0078-1.1602 0.65039-0.42188 1.4062-0.42188 1.2363 0 1.9219 0.81446 0.68555 0.81445 0.68555 2.332v0.45117h-4.2949q0.0234 0.9375 0.54492 1.5176 0.52734 0.57422 1.3359 0.57422 0.57421 0 0.97265-0.23438 0.39844-0.23437 0.69727-0.62109l0.66211 0.51562q-0.79688 1.2246-2.3906 1.2246zm-0.13476-5.6836q-0.65625 0-1.1016 0.48047-0.44531 0.47461-0.55078 1.3359h3.1758v-0.082q-0.0469-0.82617-0.44531-1.2773-0.39844-0.45703-1.0781-0.45703z"/><path d="m247.19 150.79q0-1.3242 0.35156-2.543 0.35743-1.2188 1.0606-2.2148 0.70313-0.99609 1.459-1.4062l0.22265 0.71485q-0.85547 0.65625-1.4062 2.0039-0.54492 1.3477-0.59765 3.0176l-6e-3 0.49805q0 2.2617 0.82617 3.9258 0.49805 0.99609 1.1836 1.5586l-0.22265 0.66211q-0.7793-0.43359-1.4883-1.4531-1.3828-1.9922-1.3828-4.7637z"/><path d="m252.51 154.25h-1.084v-6.3398h1.084zm-1.1719-8.0215q0-0.26367 0.1582-0.44531 0.16407-0.18164 0.48047-0.18164 0.31641 0 0.48047 0.18164t0.16406 0.44531-0.16406 0.43945-0.48047 0.17578q-0.3164 0-0.48047-0.17578-0.1582-0.17578-0.1582-0.43945z"/><path d="m255.27 147.91 0.0352 0.79688q0.72656-0.91407 1.8984-0.91407 2.0098 0 2.0274 2.2676v4.1894h-1.084v-4.1953q-6e-3 -0.68554-0.3164-1.0137-0.30469-0.32812-0.95508-0.32812-0.52734 0-0.92578 0.28125t-0.6211 0.73828v4.5176h-1.084v-6.3398z"/><path d="m265.31 146.37v1.5352h1.1836v0.83789h-1.1836v3.9316q0 0.38086 0.1582 0.57422 0.15821 0.1875 0.53907 0.1875 0.1875 0 0.51562-0.0703v0.8789q-0.42773 0.11719-0.83203 0.11719-0.72656 0-1.0957-0.43945t-0.36914-1.248v-3.9316h-1.1543v-0.83789h1.1543v-1.5352z"/><path d="m268.84 148.68q0.72071-0.88477 1.875-0.88477 2.0098 0 2.0274 2.2676v4.1894h-1.084v-4.1953q-6e-3 -0.68554-0.3164-1.0137-0.30469-0.32812-0.95508-0.32812-0.52735 0-0.92578 0.28125-0.39844 0.28125-0.6211 0.73828v4.5176h-1.084v-9h1.084z"/><path d="m275.54 154.25h-1.084v-6.3398h1.084zm-1.1719-8.0215q0-0.26367 0.15821-0.44531 0.16406-0.18164 0.48046-0.18164 0.31641 0 0.48047 0.18164 0.16407 0.18164 0.16407 0.44531t-0.16407 0.43945q-0.16406 0.17578-0.48047 0.17578-0.3164 0-0.48046-0.17578-0.15821-0.17578-0.15821-0.43945z"/><path d="m280.97 152.57q0-0.43945-0.33399-0.67968-0.32812-0.2461-1.1543-0.42188-0.82031-0.17578-1.3066-0.42187-0.48047-0.2461-0.71485-0.58594-0.22851-0.33984-0.22851-0.80859 0-0.7793 0.65625-1.3184 0.66211-0.53907 1.6875-0.53907 1.0781 0 1.7461 0.55664 0.67383 0.55664 0.67383 1.4238h-1.0898q0-0.44531-0.38086-0.76758-0.375-0.32226-0.94922-0.32226-0.5918 0-0.92578 0.25781-0.33399 0.25781-0.33399 0.67383 0 0.39258 0.31055 0.5918 0.31055 0.19921 1.1191 0.38086 0.81445 0.18164 1.3184 0.43359t0.74414 0.60937q0.24609 0.35157 0.24609 0.86133 0 0.84961-0.67968 1.3652-0.67969 0.50976-1.7637 0.50976-0.76171 0-1.3476-0.26953t-0.91992-0.75q-0.32813-0.48633-0.32813-1.0488h1.084q0.0293 0.54492 0.43359 0.86719 0.41016 0.31641 1.0781 0.31641 0.61524 0 0.98438-0.2461 0.375-0.25195 0.375-0.66797z"/><path d="m288.98 153.48q0.58008 0 1.0137-0.35157 0.43359-0.35156 0.48047-0.8789h1.0254q-0.0293 0.54492-0.375 1.0371-0.34571 0.49218-0.92579 0.78515-0.57421 0.29297-1.2188 0.29297-1.2949 0-2.0625-0.86133-0.76171-0.86718-0.76171-2.3672v-0.18164q0-0.92579 0.33984-1.6465t0.97266-1.1191q0.63867-0.39844 1.5059-0.39844 1.0664 0 1.7695 0.63868 0.70898 0.63867 0.75586 1.6582h-1.0254q-0.0469-0.61524-0.46875-1.0078-0.41602-0.39844-1.0312-0.39844-0.82618 0-1.2832 0.59765-0.45117 0.5918-0.45117 1.7168v0.20508q0 1.0957 0.45117 1.6875t1.2891 0.5918z"/><path d="m296.63 154.25q-0.0937-0.1875-0.15235-0.66796-0.75585 0.78515-1.8047 0.78515-0.9375 0-1.541-0.52734-0.59765-0.5332-0.59765-1.3477 0-0.99023 0.75-1.5352 0.75585-0.55079 2.1211-0.55079h1.0547v-0.49804q0-0.56836-0.33985-0.90235-0.33984-0.33984-1.002-0.33984-0.58008 0-0.97266 0.29297-0.39257 0.29297-0.39257 0.70898h-1.0898q0-0.47461 0.33399-0.91406 0.33984-0.44531 0.91406-0.70312 0.58008-0.25782 1.2715-0.25782 1.0957 0 1.7168 0.55078 0.62109 0.54493 0.64453 1.5059v2.918q0 0.87305 0.22266 1.3887v0.0937zm-1.7988-0.82617q0.50977 0 0.9668-0.26367t0.66211-0.68555v-1.3008h-0.84961q-1.9922 0-1.9922 1.166 0 0.50976 0.33984 0.79687 0.33985 0.28711 0.87305 0.28711z"/><path d="m302.93 152.57q0-0.43945-0.33399-0.67968-0.32812-0.2461-1.1543-0.42188-0.82031-0.17578-1.3066-0.42187-0.48046-0.2461-0.71484-0.58594-0.22852-0.33984-0.22852-0.80859 0-0.7793 0.65625-1.3184 0.66211-0.53907 1.6875-0.53907 1.0781 0 1.7461 0.55664 0.67383 0.55664 0.67383 1.4238h-1.0898q0-0.44531-0.38086-0.76758-0.375-0.32226-0.94922-0.32226-0.59179 0-0.92578 0.25781-0.33398 0.25781-0.33398 0.67383 0 0.39258 0.31055 0.5918 0.31054 0.19921 1.1191 0.38086 0.81445 0.18164 1.3184 0.43359 0.5039 0.25195 0.74414 0.60937 0.24609 0.35157 0.24609 0.86133 0 0.84961-0.67969 1.3652-0.67968 0.50976-1.7637 0.50976-0.76172 0-1.3477-0.26953-0.58593-0.26953-0.91992-0.75-0.32812-0.48633-0.32812-1.0488h1.084q0.0293 0.54492 0.4336 0.86719 0.41015 0.31641 1.0781 0.31641 0.61524 0 0.98438-0.2461 0.375-0.25195 0.375-0.66797z"/><path d="m308.06 154.37q-1.2891 0-2.0977-0.84375-0.80859-0.84961-0.80859-2.2676v-0.19921q0-0.94336 0.35742-1.6816 0.36328-0.74414 1.0078-1.1602 0.65039-0.42188 1.4062-0.42188 1.2363 0 1.9219 0.81446 0.68555 0.81445 0.68555 2.332v0.45117h-4.2949q0.0234 0.9375 0.54493 1.5176 0.52734 0.57422 1.3359 0.57422 0.57422 0 0.97266-0.23438 0.39844-0.23437 0.69726-0.62109l0.66211 0.51562q-0.79687 1.2246-2.3906 1.2246zm-0.13477-5.6836q-0.65625 0-1.1016 0.48047-0.44531 0.47461-0.55078 1.3359h3.1758v-0.082q-0.0469-0.82617-0.44531-1.2773-0.39844-0.45703-1.0781-0.45703z"/><path d="m320.76 150.43h-5.8711v-0.88476h5.8711z"/><path d="m187.75 169.37q-0.0937-0.1875-0.15234-0.66797-0.75586 0.78516-1.8047 0.78516-0.9375 0-1.541-0.52734-0.59766-0.53321-0.59766-1.3477 0-0.99023 0.75-1.5352 0.75586-0.55078 2.1211-0.55078h1.0547v-0.49804q0-0.56836-0.33984-0.90235-0.33985-0.33984-1.002-0.33984-0.58007 0-0.97265 0.29297t-0.39258 0.70898h-1.0898q0-0.47461 0.33398-0.91406 0.33984-0.44531 0.91406-0.70313 0.58008-0.25781 1.2715-0.25781 1.0957 0 1.7168 0.55078 0.6211 0.54492 0.64453 1.5059v2.918q0 0.87305 0.22266 1.3887v0.0937zm-1.7988-0.82617q0.50977 0 0.9668-0.26367t0.66211-0.68555v-1.3008h-0.84961q-1.9922 0-1.9922 1.166 0 0.50976 0.33985 0.79687 0.33984 0.28711 0.87304 0.28711z"/><path d="m191.54 169.37h-1.084v-9h1.084z"/><path d="m197.19 168.74q-0.63282 0.74414-1.8574 0.74414-1.0137 0-1.5469-0.58594-0.52735-0.59179-0.5332-1.7461v-4.125h1.084v4.0957q0 1.4414 1.1719 1.4414 1.2422 0 1.6524-0.92578v-4.6113h1.084v6.3398h-1.0312z"/><path d="m200.91 163.03 0.0293 0.70312q0.69726-0.82031 1.8808-0.82031 1.3301 0 1.8106 1.0195 0.31641-0.45703 0.82031-0.73828 0.50977-0.28125 1.2012-0.28125 2.0859 0 2.1211 2.209v4.248h-1.084v-4.1836q0-0.67969-0.31055-1.0137-0.31055-0.33985-1.043-0.33985-0.60352 0-1.002 0.36328-0.39844 0.35743-0.46289 0.9668v4.207h-1.0898v-4.1543q0-1.3828-1.3535-1.3828-1.0664 0-1.459 0.90821v4.6289h-1.084v-6.3398z"/><path d="m211.59 169.37h-1.084v-6.3398h1.084zm-1.1719-8.0215q0-0.26367 0.15821-0.44531 0.16406-0.18165 0.48047-0.18165 0.3164 0 0.48047 0.18165 0.16406 0.18164 0.16406 0.44531t-0.16406 0.43945q-0.16407 0.17578-0.48047 0.17578-0.31641 0-0.48047-0.17578-0.15821-0.17578-0.15821-0.43945z"/><path d="m214.35 163.03 0.0352 0.79687q0.72656-0.91406 1.8984-0.91406 2.0098 0 2.0273 2.2676v4.1894h-1.084v-4.1953q-6e-3 -0.68555-0.31641-1.0137-0.30469-0.32813-0.95508-0.32813-0.52734 0-0.92578 0.28125-0.39843 0.28125-0.62109 0.73828v4.5176h-1.084v-6.3398z"/><path d="m223.86 168.74q-0.63281 0.74414-1.8574 0.74414-1.0137 0-1.5469-0.58594-0.52734-0.59179-0.5332-1.7461v-4.125h1.084v4.0957q0 1.4414 1.1719 1.4414 1.2422 0 1.6523-0.92578v-4.6113h1.084v6.3398h-1.0312z"/><path d="m227.58 163.03 0.0293 0.70312q0.69727-0.82031 1.8809-0.82031 1.3301 0 1.8106 1.0195 0.3164-0.45703 0.82031-0.73828 0.50977-0.28125 1.2012-0.28125 2.0859 0 2.1211 2.209v4.248h-1.084v-4.1836q0-0.67969-0.31055-1.0137-0.31054-0.33985-1.043-0.33985-0.60352 0-1.002 0.36328-0.39844 0.35743-0.46289 0.9668v4.207h-1.0898v-4.1543q0-1.3828-1.3535-1.3828-1.0664 0-1.459 0.90821v4.6289h-1.084v-6.3398z"/><path d="m243.74 167.68q0-0.43945-0.33398-0.67969-0.32813-0.24609-1.1543-0.42187-0.82031-0.17578-1.3066-0.42188-0.48047-0.24609-0.71485-0.58593-0.22851-0.33985-0.22851-0.8086 0-0.77929 0.65625-1.3184 0.66211-0.53906 1.6875-0.53906 1.0781 0 1.7461 0.55664 0.67383 0.55664 0.67383 1.4238h-1.0898q0-0.44531-0.38086-0.76758-0.375-0.32226-0.94922-0.32226-0.5918 0-0.92578 0.25781-0.33399 0.25781-0.33399 0.67383 0 0.39257 0.31055 0.59179t1.1191 0.38086q0.81445 0.18164 1.3184 0.4336 0.50391 0.25195 0.74414 0.60937 0.24609 0.35156 0.24609 0.86133 0 0.84961-0.67968 1.3652-0.67969 0.50977-1.7637 0.50977-0.76172 0-1.3477-0.26953t-0.91992-0.75q-0.32813-0.48633-0.32813-1.0488h1.084q0.0293 0.54492 0.43359 0.86719 0.41016 0.3164 1.0781 0.3164 0.61523 0 0.98437-0.24609 0.375-0.25195 0.375-0.66797z"/><path d="m247.41 169.37h-1.084v-9h1.084z"/><path d="m251.78 169.48q-1.2891 0-2.0976-0.84375-0.8086-0.84961-0.8086-2.2676v-0.19922q0-0.94336 0.35742-1.6816 0.36329-0.74414 1.0078-1.1602 0.65039-0.42188 1.4062-0.42188 1.2363 0 1.9219 0.81445 0.68555 0.81446 0.68555 2.332v0.45117h-4.2949q0.0234 0.9375 0.54492 1.5176 0.52734 0.57421 1.3359 0.57421 0.57422 0 0.97265-0.23437 0.39844-0.23438 0.69727-0.62109l0.66211 0.51562q-0.79688 1.2246-2.3906 1.2246zm-0.13476-5.6836q-0.65625 0-1.1016 0.48046-0.44531 0.47461-0.55078 1.3359h3.1758v-0.082q-0.0469-0.82617-0.44531-1.2773-0.39844-0.45703-1.0781-0.45703z"/><path d="m258.13 169.48q-1.2891 0-2.0976-0.84375-0.8086-0.84961-0.8086-2.2676v-0.19922q0-0.94336 0.35743-1.6816 0.36328-0.74414 1.0078-1.1602 0.65039-0.42188 1.4062-0.42188 1.2363 0 1.9219 0.81445 0.68555 0.81446 0.68555 2.332v0.45117h-4.2949q0.0234 0.9375 0.54492 1.5176 0.52734 0.57421 1.3359 0.57421 0.57422 0 0.97265-0.23437 0.39844-0.23438 0.69727-0.62109l0.66211 0.51562q-0.79688 1.2246-2.3906 1.2246zm-0.13476-5.6836q-0.65625 0-1.1016 0.48046-0.44532 0.47461-0.55078 1.3359h3.1758v-0.082q-0.0469-0.82617-0.44532-1.2773-0.39843-0.45703-1.0781-0.45703z"/><path d="m263.88 167.9 1.5703-4.8691h1.1074l-2.2734 6.3398h-0.82617l-2.2969-6.3398h1.1074z"/><path d="m270.15 169.48q-1.2891 0-2.0976-0.84375-0.8086-0.84961-0.8086-2.2676v-0.19922q0-0.94336 0.35742-1.6816 0.36329-0.74414 1.0078-1.1602 0.65039-0.42188 1.4062-0.42188 1.2363 0 1.9219 0.81445 0.68555 0.81446 0.68555 2.332v0.45117h-4.2949q0.0234 0.9375 0.54492 1.5176 0.52734 0.57421 1.3359 0.57421 0.57422 0 0.97265-0.23437 0.39844-0.23438 0.69727-0.62109l0.66211 0.51562q-0.79688 1.2246-2.3906 1.2246zm-0.13476-5.6836q-0.65625 0-1.1016 0.48046-0.44531 0.47461-0.55078 1.3359h3.1758v-0.082q-0.0469-0.82617-0.44531-1.2773-0.39844-0.45703-1.0781-0.45703z"/><path d="m276.38 165.96q0 1.3066-0.3457 2.5078-0.33985 1.1953-1.0488 2.209-0.70313 1.0137-1.4766 1.4414l-0.22851-0.66211q0.90234-0.69141 1.4473-2.1445 0.55079-1.459 0.5625-3.2344v-0.1875q0-1.2305-0.25781-2.2852-0.25781-1.0606-0.7207-1.8984-0.45703-0.83789-1.0312-1.3066l0.22851-0.66211q0.77344 0.42773 1.4707 1.4297 0.70312 1.002 1.0488 2.209 0.35156 1.207 0.35156 2.584z"/></g></g></svg>
