<svg width="360" height="201" viewBox="0 0 360 201" fill="none" xmlns="http://www.w3.org/2000/svg">
<path d="M192.885 51.3945H190.143V59H189.023V51.3945H186.287V50.4688H192.885V51.3945ZM198.691 55.9004C198.691 56.8652 198.471 57.6426 198.029 58.2324C197.588 58.8223 196.99 59.1172 196.236 59.1172C195.467 59.1172 194.861 58.873 194.42 58.3848V61.4375H193.336V52.6602H194.326L194.379 53.3633C194.82 52.8164 195.434 52.543 196.219 52.543C196.98 52.543 197.582 52.8301 198.023 53.4043C198.469 53.9785 198.691 54.7773 198.691 55.8008V55.9004ZM197.607 55.7773C197.607 55.0625 197.455 54.498 197.15 54.084C196.846 53.6699 196.428 53.4629 195.896 53.4629C195.24 53.4629 194.748 53.7539 194.42 54.3359V57.3652C194.744 57.9434 195.24 58.2324 195.908 58.2324C196.428 58.2324 196.84 58.0273 197.145 57.6172C197.453 57.2031 197.607 56.5898 197.607 55.7773ZM202.078 57.4121L203.555 52.6602H204.715L202.166 59.9785C201.771 61.0332 201.145 61.5605 200.285 61.5605L200.08 61.543L199.676 61.4668V60.5879L199.969 60.6113C200.336 60.6113 200.621 60.5371 200.824 60.3887C201.031 60.2402 201.201 59.9688 201.334 59.5742L201.574 58.9297L199.312 52.6602H200.496L202.078 57.4121ZM208.471 53.0234C209.268 53.0234 209.904 53.291 210.381 53.8262C210.861 54.3574 211.102 55.0586 211.102 55.9297V56.0293C211.102 56.627 210.986 57.1621 210.756 57.6348C210.525 58.1035 210.193 58.4688 209.76 58.7305C209.33 58.9883 208.834 59.1172 208.271 59.1172C207.42 59.1172 206.734 58.834 206.215 58.2676C205.695 57.6973 205.436 56.9336 205.436 55.9766V55.4492C205.436 54.1172 205.682 53.0586 206.174 52.2734C206.67 51.4883 207.4 51.0098 208.365 50.8379C208.912 50.7402 209.281 50.6211 209.473 50.4805C209.664 50.3398 209.76 50.1465 209.76 49.9004H210.65C210.65 50.3887 210.539 50.7695 210.316 51.043C210.098 51.3164 209.746 51.5098 209.262 51.623L208.453 51.8047C207.809 51.957 207.324 52.2148 207 52.5781C206.68 52.9375 206.471 53.418 206.373 54.0195C206.947 53.3555 207.646 53.0234 208.471 53.0234ZM208.26 53.9141C207.729 53.9141 207.307 54.0938 206.994 54.4531C206.682 54.8086 206.525 55.3027 206.525 55.9355V56.0293C206.525 56.709 206.682 57.248 206.994 57.6465C207.311 58.041 207.736 58.2383 208.271 58.2383C208.811 58.2383 209.236 58.0391 209.549 57.6406C209.861 57.2422 210.018 56.6602 210.018 55.8945C210.018 55.2969 209.859 54.8184 209.543 54.459C209.23 54.0957 208.803 53.9141 208.26 53.9141ZM216.234 59C216.172 58.875 216.121 58.6523 216.082 58.332C215.578 58.8555 214.977 59.1172 214.277 59.1172C213.652 59.1172 213.139 58.9414 212.736 58.5898C212.338 58.2344 212.139 57.7852 212.139 57.2422C212.139 56.582 212.389 56.0703 212.889 55.707C213.393 55.3398 214.1 55.1562 215.01 55.1562H216.064V54.6582C216.064 54.2793 215.951 53.9785 215.725 53.7559C215.498 53.5293 215.164 53.416 214.723 53.416C214.336 53.416 214.012 53.5137 213.75 53.709C213.488 53.9043 213.357 54.1406 213.357 54.418H212.268C212.268 54.1016 212.379 53.7969 212.602 53.5039C212.828 53.207 213.133 52.9727 213.516 52.8008C213.902 52.6289 214.326 52.543 214.787 52.543C215.518 52.543 216.09 52.7266 216.504 53.0938C216.918 53.457 217.133 53.959 217.148 54.5996V57.5176C217.148 58.0996 217.223 58.5625 217.371 58.9062V59H216.234ZM214.436 58.1738C214.775 58.1738 215.098 58.0859 215.402 57.9102C215.707 57.7344 215.928 57.5059 216.064 57.2246V55.9238H215.215C213.887 55.9238 213.223 56.3125 213.223 57.0898C213.223 57.4297 213.336 57.6953 213.562 57.8867C213.789 58.0781 214.08 58.1738 214.436 58.1738ZM225.475 57.5645L227.631 52.6602H228.984V59H227.9V54.3887L225.85 59H225.1L223.008 54.2891V59H221.924V52.6602H223.33L225.475 57.5645ZM233.361 59.1172C232.502 59.1172 231.803 58.8359 231.264 58.2734C230.725 57.707 230.455 56.9512 230.455 56.0059V55.8066C230.455 55.1777 230.574 54.6172 230.812 54.125C231.055 53.6289 231.391 53.2422 231.82 52.9648C232.254 52.6836 232.723 52.543 233.227 52.543C234.051 52.543 234.691 52.8145 235.148 53.3574C235.605 53.9004 235.834 54.6777 235.834 55.6895V56.1406H231.539C231.555 56.7656 231.736 57.2715 232.084 57.6582C232.436 58.041 232.881 58.2324 233.42 58.2324C233.803 58.2324 234.127 58.1543 234.393 57.998C234.658 57.8418 234.891 57.6348 235.09 57.377L235.752 57.8926C235.221 58.709 234.424 59.1172 233.361 59.1172ZM233.227 53.4336C232.789 53.4336 232.422 53.5938 232.125 53.9141C231.828 54.2305 231.645 54.6758 231.574 55.25H234.75V55.168C234.719 54.6172 234.57 54.1914 234.305 53.8906C234.039 53.5859 233.68 53.4336 233.227 53.4336ZM237.041 58.1152L237.416 57.6523C237.838 57.1055 238.078 56.2852 238.137 55.1914L238.236 52.6602H242.32V58.1152H243.135V60.8633H242.051V59H237.627V60.8633H236.543L236.549 58.1152H237.041ZM238.324 58.1152H241.236V53.6621H239.285L239.221 55.1738C239.154 56.4355 238.855 57.416 238.324 58.1152ZM249.516 59H248.432V56.293H245.52V59H244.43V52.6602H245.52V55.4082H248.432V52.6602H249.516V59ZM255.176 59C255.113 58.875 255.062 58.6523 255.023 58.332C254.52 58.8555 253.918 59.1172 253.219 59.1172C252.594 59.1172 252.08 58.9414 251.678 58.5898C251.279 58.2344 251.08 57.7852 251.08 57.2422C251.08 56.582 251.33 56.0703 251.83 55.707C252.334 55.3398 253.041 55.1562 253.951 55.1562H255.006V54.6582C255.006 54.2793 254.893 53.9785 254.666 53.7559C254.439 53.5293 254.105 53.416 253.664 53.416C253.277 53.416 252.953 53.5137 252.691 53.709C252.43 53.9043 252.299 54.1406 252.299 54.418H251.209C251.209 54.1016 251.32 53.7969 251.543 53.5039C251.77 53.207 252.074 52.9727 252.457 52.8008C252.844 52.6289 253.268 52.543 253.729 52.543C254.459 52.543 255.031 52.7266 255.445 53.0938C255.859 53.457 256.074 53.959 256.09 54.5996V57.5176C256.09 58.0996 256.164 58.5625 256.312 58.9062V59H255.176ZM253.377 58.1738C253.717 58.1738 254.039 58.0859 254.344 57.9102C254.648 57.7344 254.869 57.5059 255.006 57.2246V55.9238H254.156C252.828 55.9238 252.164 56.3125 252.164 57.0898C252.164 57.4297 252.277 57.6953 252.504 57.8867C252.73 58.0781 253.021 58.1738 253.377 58.1738ZM262.635 52.6602V59H261.545V56.5332H259.91L258.416 59H257.244L258.838 56.3691C258.432 56.2207 258.119 55.9922 257.9 55.6836C257.686 55.3711 257.578 55.0078 257.578 54.5938C257.578 54.0156 257.795 53.5508 258.229 53.1992C258.662 52.8438 259.242 52.6641 259.969 52.6602H262.635ZM258.668 54.6055C258.668 54.9141 258.773 55.1641 258.984 55.3555C259.195 55.543 259.475 55.6387 259.822 55.6426H261.545V53.5391H259.986C259.584 53.5391 259.264 53.6387 259.025 53.8379C258.787 54.0332 258.668 54.2891 258.668 54.6055Z" fill="white"/>
<path d="M192.885 99.3945H190.143V107H189.023V99.3945H186.287V98.4688H192.885V99.3945ZM198.691 103.9C198.691 104.865 198.471 105.643 198.029 106.232C197.588 106.822 196.99 107.117 196.236 107.117C195.467 107.117 194.861 106.873 194.42 106.385V109.438H193.336V100.66H194.326L194.379 101.363C194.82 100.816 195.434 100.543 196.219 100.543C196.98 100.543 197.582 100.83 198.023 101.404C198.469 101.979 198.691 102.777 198.691 103.801V103.9ZM197.607 103.777C197.607 103.062 197.455 102.498 197.15 102.084C196.846 101.67 196.428 101.463 195.896 101.463C195.24 101.463 194.748 101.754 194.42 102.336V105.365C194.744 105.943 195.24 106.232 195.908 106.232C196.428 106.232 196.84 106.027 197.145 105.617C197.453 105.203 197.607 104.59 197.607 103.777ZM202.078 105.412L203.555 100.66H204.715L202.166 107.979C201.771 109.033 201.145 109.561 200.285 109.561L200.08 109.543L199.676 109.467V108.588L199.969 108.611C200.336 108.611 200.621 108.537 200.824 108.389C201.031 108.24 201.201 107.969 201.334 107.574L201.574 106.93L199.312 100.66H200.496L202.078 105.412ZM208.471 101.023C209.268 101.023 209.904 101.291 210.381 101.826C210.861 102.357 211.102 103.059 211.102 103.93V104.029C211.102 104.627 210.986 105.162 210.756 105.635C210.525 106.104 210.193 106.469 209.76 106.73C209.33 106.988 208.834 107.117 208.271 107.117C207.42 107.117 206.734 106.834 206.215 106.268C205.695 105.697 205.436 104.934 205.436 103.977V103.449C205.436 102.117 205.682 101.059 206.174 100.273C206.67 99.4883 207.4 99.0098 208.365 98.8379C208.912 98.7402 209.281 98.6211 209.473 98.4805C209.664 98.3398 209.76 98.1465 209.76 97.9004H210.65C210.65 98.3887 210.539 98.7695 210.316 99.043C210.098 99.3164 209.746 99.5098 209.262 99.623L208.453 99.8047C207.809 99.957 207.324 100.215 207 100.578C206.68 100.938 206.471 101.418 206.373 102.02C206.947 101.355 207.646 101.023 208.471 101.023ZM208.26 101.914C207.729 101.914 207.307 102.094 206.994 102.453C206.682 102.809 206.525 103.303 206.525 103.936V104.029C206.525 104.709 206.682 105.248 206.994 105.646C207.311 106.041 207.736 106.238 208.271 106.238C208.811 106.238 209.236 106.039 209.549 105.641C209.861 105.242 210.018 104.66 210.018 103.895C210.018 103.297 209.859 102.818 209.543 102.459C209.23 102.096 208.803 101.914 208.26 101.914ZM216.234 107C216.172 106.875 216.121 106.652 216.082 106.332C215.578 106.855 214.977 107.117 214.277 107.117C213.652 107.117 213.139 106.941 212.736 106.59C212.338 106.234 212.139 105.785 212.139 105.242C212.139 104.582 212.389 104.07 212.889 103.707C213.393 103.34 214.1 103.156 215.01 103.156H216.064V102.658C216.064 102.279 215.951 101.979 215.725 101.756C215.498 101.529 215.164 101.416 214.723 101.416C214.336 101.416 214.012 101.514 213.75 101.709C213.488 101.904 213.357 102.141 213.357 102.418H212.268C212.268 102.102 212.379 101.797 212.602 101.504C212.828 101.207 213.133 100.973 213.516 100.801C213.902 100.629 214.326 100.543 214.787 100.543C215.518 100.543 216.09 100.727 216.504 101.094C216.918 101.457 217.133 101.959 217.148 102.6V105.518C217.148 106.1 217.223 106.562 217.371 106.906V107H216.234ZM214.436 106.174C214.775 106.174 215.098 106.086 215.402 105.91C215.707 105.734 215.928 105.506 216.064 105.225V103.924H215.215C213.887 103.924 213.223 104.312 213.223 105.09C213.223 105.43 213.336 105.695 213.562 105.887C213.789 106.078 214.08 106.174 214.436 106.174ZM225.738 107C225.676 106.875 225.625 106.652 225.586 106.332C225.082 106.855 224.48 107.117 223.781 107.117C223.156 107.117 222.643 106.941 222.24 106.59C221.842 106.234 221.643 105.785 221.643 105.242C221.643 104.582 221.893 104.07 222.393 103.707C222.896 103.34 223.604 103.156 224.514 103.156H225.568V102.658C225.568 102.279 225.455 101.979 225.229 101.756C225.002 101.529 224.668 101.416 224.227 101.416C223.84 101.416 223.516 101.514 223.254 101.709C222.992 101.904 222.861 102.141 222.861 102.418H221.771C221.771 102.102 221.883 101.797 222.105 101.504C222.332 101.207 222.637 100.973 223.02 100.801C223.406 100.629 223.83 100.543 224.291 100.543C225.021 100.543 225.594 100.727 226.008 101.094C226.422 101.457 226.637 101.959 226.652 102.6V105.518C226.652 106.1 226.727 106.562 226.875 106.906V107H225.738ZM223.939 106.174C224.279 106.174 224.602 106.086 224.906 105.91C225.211 105.734 225.432 105.506 225.568 105.225V103.924H224.719C223.391 103.924 222.727 104.312 222.727 105.09C222.727 105.43 222.84 105.695 223.066 105.887C223.293 106.078 223.584 106.174 223.939 106.174ZM233.549 100.66V107H232.459V101.557H230.303L230.174 103.93C230.104 105.02 229.92 105.799 229.623 106.268C229.33 106.736 228.863 106.98 228.223 107H227.789V106.045L228.1 106.021C228.451 105.982 228.703 105.779 228.855 105.412C229.008 105.045 229.105 104.365 229.148 103.373L229.266 100.66H233.549ZM236.473 103.35H237.996C238.078 102.506 238.377 101.828 238.893 101.316C239.412 100.801 240.066 100.543 240.855 100.543C241.684 100.543 242.361 100.822 242.889 101.381C243.416 101.939 243.701 102.666 243.744 103.561L243.75 103.9C243.75 104.518 243.629 105.074 243.387 105.57C243.145 106.066 242.805 106.449 242.367 106.719C241.93 106.984 241.43 107.117 240.867 107.117C240.051 107.117 239.383 106.852 238.863 106.32C238.344 105.785 238.053 105.092 237.99 104.24H236.473V107H235.389V100.66H236.473V103.35ZM239.062 103.9C239.062 104.604 239.225 105.168 239.549 105.594C239.877 106.02 240.316 106.232 240.867 106.232C241.418 106.232 241.854 106.016 242.174 105.582C242.498 105.148 242.66 104.545 242.66 103.771C242.66 103.08 242.496 102.518 242.168 102.084C241.84 101.65 241.402 101.434 240.855 101.434C240.316 101.434 239.883 101.646 239.555 102.072C239.227 102.498 239.062 103.107 239.062 103.9ZM248.736 105.564L250.893 100.66H252.246V107H251.162V102.389L249.111 107H248.361L246.27 102.289V107H245.186V100.66H246.592L248.736 105.564ZM258.094 100.66H259.178V107H258.094V102.377L255.17 107H254.086V100.66H255.17V105.289L258.094 100.66ZM266.098 107H265.014V104.293H262.102V107H261.012V100.66H262.102V103.408H265.014V100.66H266.098V107ZM271.945 100.66H273.029V107H271.945V102.377L269.021 107H267.938V100.66H269.021V105.289L271.945 100.66ZM277.4 107.117C276.541 107.117 275.842 106.836 275.303 106.273C274.764 105.707 274.494 104.951 274.494 104.006V103.807C274.494 103.178 274.613 102.617 274.852 102.125C275.094 101.629 275.43 101.242 275.859 100.965C276.293 100.684 276.762 100.543 277.266 100.543C278.09 100.543 278.73 100.814 279.188 101.357C279.645 101.9 279.873 102.678 279.873 103.689V104.141H275.578C275.594 104.766 275.775 105.271 276.123 105.658C276.475 106.041 276.92 106.232 277.459 106.232C277.842 106.232 278.166 106.154 278.432 105.998C278.697 105.842 278.93 105.635 279.129 105.377L279.791 105.893C279.26 106.709 278.463 107.117 277.4 107.117ZM277.266 101.434C276.828 101.434 276.461 101.594 276.164 101.914C275.867 102.23 275.684 102.676 275.613 103.25H278.789V103.168C278.758 102.617 278.609 102.191 278.344 101.891C278.078 101.586 277.719 101.434 277.266 101.434ZM281.232 107V100.66H283.705C284.549 100.66 285.195 100.809 285.645 101.105C286.098 101.398 286.324 101.83 286.324 102.4C286.324 102.693 286.236 102.959 286.061 103.197C285.885 103.432 285.625 103.611 285.281 103.736C285.664 103.826 285.971 104.002 286.201 104.264C286.436 104.525 286.553 104.838 286.553 105.201C286.553 105.783 286.338 106.229 285.908 106.537C285.482 106.846 284.879 107 284.098 107H281.232ZM282.316 104.217V106.127H284.109C284.562 106.127 284.9 106.043 285.123 105.875C285.35 105.707 285.463 105.471 285.463 105.166C285.463 104.533 284.998 104.217 284.068 104.217H282.316ZM282.316 103.35H283.717C284.732 103.35 285.24 103.053 285.24 102.459C285.24 101.865 284.76 101.559 283.799 101.539H282.316V103.35ZM291.902 107C291.84 106.875 291.789 106.652 291.75 106.332C291.246 106.855 290.645 107.117 289.945 107.117C289.32 107.117 288.807 106.941 288.404 106.59C288.006 106.234 287.807 105.785 287.807 105.242C287.807 104.582 288.057 104.07 288.557 103.707C289.061 103.34 289.768 103.156 290.678 103.156H291.732V102.658C291.732 102.279 291.619 101.979 291.393 101.756C291.166 101.529 290.832 101.416 290.391 101.416C290.004 101.416 289.68 101.514 289.418 101.709C289.156 101.904 289.025 102.141 289.025 102.418H287.936C287.936 102.102 288.047 101.797 288.27 101.504C288.496 101.207 288.801 100.973 289.184 100.801C289.57 100.629 289.994 100.543 290.455 100.543C291.186 100.543 291.758 100.727 292.172 101.094C292.586 101.457 292.801 101.959 292.816 102.6V105.518C292.816 106.1 292.891 106.562 293.039 106.906V107H291.902ZM290.104 106.174C290.443 106.174 290.766 106.086 291.07 105.91C291.375 105.734 291.596 105.506 291.732 105.225V103.924H290.883C289.555 103.924 288.891 104.312 288.891 105.09C288.891 105.43 289.004 105.695 289.23 105.887C289.457 106.078 289.748 106.174 290.104 106.174ZM299.361 100.66V107H298.271V104.533H296.637L295.143 107H293.971L295.564 104.369C295.158 104.221 294.846 103.992 294.627 103.684C294.412 103.371 294.305 103.008 294.305 102.594C294.305 102.016 294.521 101.551 294.955 101.199C295.389 100.844 295.969 100.664 296.695 100.66H299.361ZM295.395 102.605C295.395 102.914 295.5 103.164 295.711 103.355C295.922 103.543 296.201 103.639 296.549 103.643H298.271V101.539H296.713C296.311 101.539 295.99 101.639 295.752 101.838C295.514 102.033 295.395 102.289 295.395 102.605Z" fill="white"/>
<path d="M192.885 138.395H190.143V146H189.023V138.395H186.287V137.469H192.885V138.395ZM198.691 142.9C198.691 143.865 198.471 144.643 198.029 145.232C197.588 145.822 196.99 146.117 196.236 146.117C195.467 146.117 194.861 145.873 194.42 145.385V148.438H193.336V139.66H194.326L194.379 140.363C194.82 139.816 195.434 139.543 196.219 139.543C196.98 139.543 197.582 139.83 198.023 140.404C198.469 140.979 198.691 141.777 198.691 142.801V142.9ZM197.607 142.777C197.607 142.062 197.455 141.498 197.15 141.084C196.846 140.67 196.428 140.463 195.896 140.463C195.24 140.463 194.748 140.754 194.42 141.336V144.365C194.744 144.943 195.24 145.232 195.908 145.232C196.428 145.232 196.84 145.027 197.145 144.617C197.453 144.203 197.607 143.59 197.607 142.777ZM202.078 144.412L203.555 139.66H204.715L202.166 146.979C201.771 148.033 201.145 148.561 200.285 148.561L200.08 148.543L199.676 148.467V147.588L199.969 147.611C200.336 147.611 200.621 147.537 200.824 147.389C201.031 147.24 201.201 146.969 201.334 146.574L201.574 145.93L199.312 139.66H200.496L202.078 144.412ZM208.471 140.023C209.268 140.023 209.904 140.291 210.381 140.826C210.861 141.357 211.102 142.059 211.102 142.93V143.029C211.102 143.627 210.986 144.162 210.756 144.635C210.525 145.104 210.193 145.469 209.76 145.73C209.33 145.988 208.834 146.117 208.271 146.117C207.42 146.117 206.734 145.834 206.215 145.268C205.695 144.697 205.436 143.934 205.436 142.977V142.449C205.436 141.117 205.682 140.059 206.174 139.273C206.67 138.488 207.4 138.01 208.365 137.838C208.912 137.74 209.281 137.621 209.473 137.48C209.664 137.34 209.76 137.146 209.76 136.9H210.65C210.65 137.389 210.539 137.77 210.316 138.043C210.098 138.316 209.746 138.51 209.262 138.623L208.453 138.805C207.809 138.957 207.324 139.215 207 139.578C206.68 139.938 206.471 140.418 206.373 141.02C206.947 140.355 207.646 140.023 208.471 140.023ZM208.26 140.914C207.729 140.914 207.307 141.094 206.994 141.453C206.682 141.809 206.525 142.303 206.525 142.936V143.029C206.525 143.709 206.682 144.248 206.994 144.646C207.311 145.041 207.736 145.238 208.271 145.238C208.811 145.238 209.236 145.039 209.549 144.641C209.861 144.242 210.018 143.66 210.018 142.895C210.018 142.297 209.859 141.818 209.543 141.459C209.23 141.096 208.803 140.914 208.26 140.914ZM216.234 146C216.172 145.875 216.121 145.652 216.082 145.332C215.578 145.855 214.977 146.117 214.277 146.117C213.652 146.117 213.139 145.941 212.736 145.59C212.338 145.234 212.139 144.785 212.139 144.242C212.139 143.582 212.389 143.07 212.889 142.707C213.393 142.34 214.1 142.156 215.01 142.156H216.064V141.658C216.064 141.279 215.951 140.979 215.725 140.756C215.498 140.529 215.164 140.416 214.723 140.416C214.336 140.416 214.012 140.514 213.75 140.709C213.488 140.904 213.357 141.141 213.357 141.418H212.268C212.268 141.102 212.379 140.797 212.602 140.504C212.828 140.207 213.133 139.973 213.516 139.801C213.902 139.629 214.326 139.543 214.787 139.543C215.518 139.543 216.09 139.727 216.504 140.094C216.918 140.457 217.133 140.959 217.148 141.6V144.518C217.148 145.1 217.223 145.562 217.371 145.906V146H216.234ZM214.436 145.174C214.775 145.174 215.098 145.086 215.402 144.91C215.707 144.734 215.928 144.506 216.064 144.225V142.924H215.215C213.887 142.924 213.223 143.312 213.223 144.09C213.223 144.43 213.336 144.695 213.562 144.887C213.789 145.078 214.08 145.174 214.436 145.174ZM225.738 146C225.676 145.875 225.625 145.652 225.586 145.332C225.082 145.855 224.48 146.117 223.781 146.117C223.156 146.117 222.643 145.941 222.24 145.59C221.842 145.234 221.643 144.785 221.643 144.242C221.643 143.582 221.893 143.07 222.393 142.707C222.896 142.34 223.604 142.156 224.514 142.156H225.568V141.658C225.568 141.279 225.455 140.979 225.229 140.756C225.002 140.529 224.668 140.416 224.227 140.416C223.84 140.416 223.516 140.514 223.254 140.709C222.992 140.904 222.861 141.141 222.861 141.418H221.771C221.771 141.102 221.883 140.797 222.105 140.504C222.332 140.207 222.637 139.973 223.02 139.801C223.406 139.629 223.83 139.543 224.291 139.543C225.021 139.543 225.594 139.727 226.008 140.094C226.422 140.457 226.637 140.959 226.652 141.6V144.518C226.652 145.1 226.727 145.562 226.875 145.906V146H225.738ZM223.939 145.174C224.279 145.174 224.602 145.086 224.906 144.91C225.211 144.734 225.432 144.506 225.568 144.225V142.924H224.719C223.391 142.924 222.727 143.312 222.727 144.09C222.727 144.43 222.84 144.695 223.066 144.887C223.293 145.078 223.584 145.174 223.939 145.174ZM233.549 139.66V146H232.459V140.557H230.303L230.174 142.93C230.104 144.02 229.92 144.799 229.623 145.268C229.33 145.736 228.863 145.98 228.223 146H227.789V145.045L228.1 145.021C228.451 144.982 228.703 144.779 228.855 144.412C229.008 144.045 229.105 143.365 229.148 142.373L229.266 139.66H233.549ZM236.473 142.35H237.996C238.078 141.506 238.377 140.828 238.893 140.316C239.412 139.801 240.066 139.543 240.855 139.543C241.684 139.543 242.361 139.822 242.889 140.381C243.416 140.939 243.701 141.666 243.744 142.561L243.75 142.9C243.75 143.518 243.629 144.074 243.387 144.57C243.145 145.066 242.805 145.449 242.367 145.719C241.93 145.984 241.43 146.117 240.867 146.117C240.051 146.117 239.383 145.852 238.863 145.32C238.344 144.785 238.053 144.092 237.99 143.24H236.473V146H235.389V139.66H236.473V142.35ZM239.062 142.9C239.062 143.604 239.225 144.168 239.549 144.594C239.877 145.02 240.316 145.232 240.867 145.232C241.418 145.232 241.854 145.016 242.174 144.582C242.498 144.148 242.66 143.545 242.66 142.771C242.66 142.08 242.496 141.518 242.168 141.084C241.84 140.65 241.402 140.434 240.855 140.434C240.316 140.434 239.883 140.646 239.555 141.072C239.227 141.498 239.062 142.107 239.062 142.9ZM248.736 144.564L250.893 139.66H252.246V146H251.162V141.389L249.111 146H248.361L246.27 141.289V146H245.186V139.66H246.592L248.736 144.564ZM253.705 142.771C253.705 142.15 253.826 141.592 254.068 141.096C254.314 140.6 254.654 140.217 255.088 139.947C255.525 139.678 256.023 139.543 256.582 139.543C257.445 139.543 258.143 139.842 258.674 140.439C259.209 141.037 259.477 141.832 259.477 142.824V142.9C259.477 143.518 259.357 144.072 259.119 144.564C258.885 145.053 258.547 145.434 258.105 145.707C257.668 145.98 257.164 146.117 256.594 146.117C255.734 146.117 255.037 145.818 254.502 145.221C253.971 144.623 253.705 143.832 253.705 142.848V142.771ZM254.795 142.9C254.795 143.604 254.957 144.168 255.281 144.594C255.609 145.02 256.047 145.232 256.594 145.232C257.145 145.232 257.582 145.018 257.906 144.588C258.23 144.154 258.393 143.549 258.393 142.771C258.393 142.076 258.227 141.514 257.895 141.084C257.566 140.65 257.129 140.434 256.582 140.434C256.047 140.434 255.615 140.646 255.287 141.072C254.959 141.498 254.795 142.107 254.795 142.9ZM264.486 144.564L266.643 139.66H267.996V146H266.912V141.389L264.861 146H264.111L262.02 141.289V146H260.936V139.66H262.342L264.486 144.564ZM272.373 146.117C271.514 146.117 270.814 145.836 270.275 145.273C269.736 144.707 269.467 143.951 269.467 143.006V142.807C269.467 142.178 269.586 141.617 269.824 141.125C270.066 140.629 270.402 140.242 270.832 139.965C271.266 139.684 271.734 139.543 272.238 139.543C273.062 139.543 273.703 139.814 274.16 140.357C274.617 140.9 274.846 141.678 274.846 142.689V143.141H270.551C270.566 143.766 270.748 144.271 271.096 144.658C271.447 145.041 271.893 145.232 272.432 145.232C272.814 145.232 273.139 145.154 273.404 144.998C273.67 144.842 273.902 144.635 274.102 144.377L274.764 144.893C274.232 145.709 273.436 146.117 272.373 146.117ZM272.238 140.434C271.801 140.434 271.434 140.594 271.137 140.914C270.84 141.23 270.656 141.676 270.586 142.25H273.762V142.168C273.73 141.617 273.582 141.191 273.316 140.891C273.051 140.586 272.691 140.434 272.238 140.434ZM276.053 145.115L276.428 144.652C276.85 144.105 277.09 143.285 277.148 142.191L277.248 139.66H281.332V145.115H282.146V147.863H281.062V146H276.639V147.863H275.555L275.561 145.115H276.053ZM277.336 145.115H280.248V140.662H278.297L278.232 142.174C278.166 143.436 277.867 144.416 277.336 145.115ZM288.527 146H287.443V143.293H284.531V146H283.441V139.66H284.531V142.408H287.443V139.66H288.527V146ZM294.188 146C294.125 145.875 294.074 145.652 294.035 145.332C293.531 145.855 292.93 146.117 292.23 146.117C291.605 146.117 291.092 145.941 290.689 145.59C290.291 145.234 290.092 144.785 290.092 144.242C290.092 143.582 290.342 143.07 290.842 142.707C291.346 142.34 292.053 142.156 292.963 142.156H294.018V141.658C294.018 141.279 293.904 140.979 293.678 140.756C293.451 140.529 293.117 140.416 292.676 140.416C292.289 140.416 291.965 140.514 291.703 140.709C291.441 140.904 291.311 141.141 291.311 141.418H290.221C290.221 141.102 290.332 140.797 290.555 140.504C290.781 140.207 291.086 139.973 291.469 139.801C291.855 139.629 292.279 139.543 292.74 139.543C293.471 139.543 294.043 139.727 294.457 140.094C294.871 140.457 295.086 140.959 295.102 141.6V144.518C295.102 145.1 295.176 145.562 295.324 145.906V146H294.188ZM292.389 145.174C292.729 145.174 293.051 145.086 293.355 144.91C293.66 144.734 293.881 144.506 294.018 144.225V142.924H293.168C291.84 142.924 291.176 143.312 291.176 144.09C291.176 144.43 291.289 144.695 291.516 144.887C291.742 145.078 292.033 145.174 292.389 145.174ZM301.646 139.66V146H300.557V143.533H298.922L297.428 146H296.256L297.85 143.369C297.443 143.221 297.131 142.992 296.912 142.684C296.697 142.371 296.59 142.008 296.59 141.594C296.59 141.016 296.807 140.551 297.24 140.199C297.674 139.844 298.254 139.664 298.98 139.66H301.646ZM297.68 141.605C297.68 141.914 297.785 142.164 297.996 142.355C298.207 142.543 298.486 142.639 298.834 142.643H300.557V140.539H298.998C298.596 140.539 298.275 140.639 298.037 140.838C297.799 141.033 297.68 141.289 297.68 141.605ZM186.779 159.537C186.779 158.654 186.896 157.807 187.131 156.994C187.369 156.182 187.723 155.443 188.191 154.779C188.66 154.115 189.146 153.646 189.65 153.373L189.873 154.088C189.303 154.525 188.834 155.193 188.467 156.092C188.104 156.99 187.904 157.996 187.869 159.109L187.863 159.607C187.863 161.115 188.139 162.424 188.689 163.533C189.021 164.197 189.416 164.717 189.873 165.092L189.65 165.754C189.131 165.465 188.635 164.98 188.162 164.301C187.24 162.973 186.779 161.385 186.779 159.537ZM196.102 163H195.018V160.293H192.105V163H191.016V156.66H192.105V159.408H195.018V156.66H196.102V163ZM201.762 163C201.699 162.875 201.648 162.652 201.609 162.332C201.105 162.855 200.504 163.117 199.805 163.117C199.18 163.117 198.666 162.941 198.264 162.59C197.865 162.234 197.666 161.785 197.666 161.242C197.666 160.582 197.916 160.07 198.416 159.707C198.92 159.34 199.627 159.156 200.537 159.156H201.592V158.658C201.592 158.279 201.479 157.979 201.252 157.756C201.025 157.529 200.691 157.416 200.25 157.416C199.863 157.416 199.539 157.514 199.277 157.709C199.016 157.904 198.885 158.141 198.885 158.418H197.795C197.795 158.102 197.906 157.797 198.129 157.504C198.355 157.207 198.66 156.973 199.043 156.801C199.43 156.629 199.854 156.543 200.314 156.543C201.045 156.543 201.617 156.727 202.031 157.094C202.445 157.457 202.66 157.959 202.676 158.6V161.518C202.676 162.1 202.75 162.562 202.898 162.906V163H201.762ZM199.963 162.174C200.303 162.174 200.625 162.086 200.93 161.91C201.234 161.734 201.455 161.506 201.592 161.225V159.924H200.742C199.414 159.924 198.75 160.312 198.75 161.09C198.75 161.43 198.863 161.695 199.09 161.887C199.316 162.078 199.607 162.174 199.963 162.174ZM209.326 160.299H208.535V163H207.445V156.66H208.535V159.344H209.244L211.377 156.66H212.689L210.182 159.707L212.9 163H211.523L209.326 160.299ZM213.416 159.771C213.416 159.15 213.537 158.592 213.779 158.096C214.025 157.6 214.365 157.217 214.799 156.947C215.236 156.678 215.734 156.543 216.293 156.543C217.156 156.543 217.854 156.842 218.385 157.439C218.92 158.037 219.188 158.832 219.188 159.824V159.9C219.188 160.518 219.068 161.072 218.83 161.564C218.596 162.053 218.258 162.434 217.816 162.707C217.379 162.98 216.875 163.117 216.305 163.117C215.445 163.117 214.748 162.818 214.213 162.221C213.682 161.623 213.416 160.832 213.416 159.848V159.771ZM214.506 159.9C214.506 160.604 214.668 161.168 214.992 161.594C215.32 162.02 215.758 162.232 216.305 162.232C216.855 162.232 217.293 162.018 217.617 161.588C217.941 161.154 218.104 160.549 218.104 159.771C218.104 159.076 217.938 158.514 217.605 158.084C217.277 157.65 216.84 157.434 216.293 157.434C215.758 157.434 215.326 157.646 214.998 158.072C214.67 158.498 214.506 159.107 214.506 159.9ZM225.727 163H224.643V160.293H221.73V163H220.641V156.66H221.73V159.408H224.643V156.66H225.727V163ZM232.184 157.539H230.057V163H228.973V157.539H226.887V156.66H232.184V157.539ZM237.059 163C236.996 162.875 236.945 162.652 236.906 162.332C236.402 162.855 235.801 163.117 235.102 163.117C234.477 163.117 233.963 162.941 233.561 162.59C233.162 162.234 232.963 161.785 232.963 161.242C232.963 160.582 233.213 160.07 233.713 159.707C234.217 159.34 234.924 159.156 235.834 159.156H236.889V158.658C236.889 158.279 236.775 157.979 236.549 157.756C236.322 157.529 235.988 157.416 235.547 157.416C235.16 157.416 234.836 157.514 234.574 157.709C234.312 157.904 234.182 158.141 234.182 158.418H233.092C233.092 158.102 233.203 157.797 233.426 157.504C233.652 157.207 233.957 156.973 234.34 156.801C234.727 156.629 235.15 156.543 235.611 156.543C236.342 156.543 236.914 156.727 237.328 157.094C237.742 157.457 237.957 157.959 237.973 158.6V161.518C237.973 162.1 238.047 162.562 238.195 162.906V163H237.059ZM235.26 162.174C235.6 162.174 235.922 162.086 236.227 161.91C236.531 161.734 236.752 161.506 236.889 161.225V159.924H236.039C234.711 159.924 234.047 160.312 234.047 161.09C234.047 161.43 234.16 161.695 234.387 161.887C234.613 162.078 234.904 162.174 235.26 162.174ZM241.646 160.299H240.855V163H239.766V156.66H240.855V159.344H241.564L243.697 156.66H245.01L242.502 159.707L245.221 163H243.844L241.646 160.299ZM250.863 157.539H248.736V163H247.652V157.539H245.566V156.66H250.863V157.539ZM257.098 163H256.014V160.293H253.102V163H252.012V156.66H253.102V159.408H256.014V156.66H257.098V163ZM260.918 161.412L262.395 156.66H263.555L261.006 163.979C260.611 165.033 259.984 165.561 259.125 165.561L258.92 165.543L258.516 165.467V164.588L258.809 164.611C259.176 164.611 259.461 164.537 259.664 164.389C259.871 164.24 260.041 163.969 260.174 163.574L260.414 162.93L258.152 156.66H259.336L260.918 161.412ZM265.711 159.35H267.234C267.316 158.506 267.615 157.828 268.131 157.316C268.65 156.801 269.305 156.543 270.094 156.543C270.922 156.543 271.6 156.822 272.127 157.381C272.654 157.939 272.939 158.666 272.982 159.561L272.988 159.9C272.988 160.518 272.867 161.074 272.625 161.57C272.383 162.066 272.043 162.449 271.605 162.719C271.168 162.984 270.668 163.117 270.105 163.117C269.289 163.117 268.621 162.852 268.102 162.32C267.582 161.785 267.291 161.092 267.229 160.24H265.711V163H264.627V156.66H265.711V159.35ZM268.301 159.9C268.301 160.604 268.463 161.168 268.787 161.594C269.115 162.02 269.555 162.232 270.105 162.232C270.656 162.232 271.092 162.016 271.412 161.582C271.736 161.148 271.898 160.545 271.898 159.771C271.898 159.08 271.734 158.518 271.406 158.084C271.078 157.65 270.641 157.434 270.094 157.434C269.555 157.434 269.121 157.646 268.793 158.072C268.465 158.498 268.301 159.107 268.301 159.9ZM282.088 163H280.998V160.703C280.521 160.828 280.033 160.891 279.533 160.891C278.74 160.891 278.135 160.688 277.717 160.281C277.303 159.875 277.092 159.297 277.084 158.547V156.654H278.168V158.582C278.188 159.527 278.643 160 279.533 160C280.033 160 280.521 159.938 280.998 159.812V156.66H282.088V163ZM287.742 163C287.68 162.875 287.629 162.652 287.59 162.332C287.086 162.855 286.484 163.117 285.785 163.117C285.16 163.117 284.646 162.941 284.244 162.59C283.846 162.234 283.646 161.785 283.646 161.242C283.646 160.582 283.896 160.07 284.396 159.707C284.9 159.34 285.607 159.156 286.518 159.156H287.572V158.658C287.572 158.279 287.459 157.979 287.232 157.756C287.006 157.529 286.672 157.416 286.23 157.416C285.844 157.416 285.52 157.514 285.258 157.709C284.996 157.904 284.865 158.141 284.865 158.418H283.775C283.775 158.102 283.887 157.797 284.109 157.504C284.336 157.207 284.641 156.973 285.023 156.801C285.41 156.629 285.834 156.543 286.295 156.543C287.025 156.543 287.598 156.727 288.012 157.094C288.426 157.457 288.641 157.959 288.656 158.6V161.518C288.656 162.1 288.73 162.562 288.879 162.906V163H287.742ZM285.943 162.174C286.283 162.174 286.605 162.086 286.91 161.91C287.215 161.734 287.436 161.506 287.572 161.225V159.924H286.723C285.395 159.924 284.73 160.312 284.73 161.09C284.73 161.43 284.844 161.695 285.07 161.887C285.297 162.078 285.588 162.174 285.943 162.174ZM292.898 162.232C293.285 162.232 293.623 162.115 293.912 161.881C294.201 161.646 294.361 161.354 294.393 161.002H295.418C295.398 161.365 295.273 161.711 295.043 162.039C294.812 162.367 294.504 162.629 294.117 162.824C293.734 163.02 293.328 163.117 292.898 163.117C292.035 163.117 291.348 162.83 290.836 162.256C290.328 161.678 290.074 160.889 290.074 159.889V159.707C290.074 159.09 290.188 158.541 290.414 158.061C290.641 157.58 290.965 157.207 291.387 156.941C291.812 156.676 292.314 156.543 292.893 156.543C293.604 156.543 294.193 156.756 294.662 157.182C295.135 157.607 295.387 158.16 295.418 158.84H294.393C294.361 158.43 294.205 158.094 293.924 157.832C293.646 157.566 293.303 157.434 292.893 157.434C292.342 157.434 291.914 157.633 291.609 158.031C291.309 158.426 291.158 158.998 291.158 159.748V159.953C291.158 160.684 291.309 161.246 291.609 161.641C291.91 162.035 292.34 162.232 292.898 162.232ZM301.348 157.539H299.221V163H298.137V157.539H296.051V156.66H301.348V157.539ZM303.586 158.846H305.232C305.951 158.854 306.52 159.041 306.938 159.408C307.355 159.775 307.564 160.273 307.564 160.902C307.564 161.535 307.35 162.043 306.92 162.426C306.49 162.809 305.912 163 305.186 163H302.502V156.66H303.586V158.846ZM303.586 159.73V162.115H305.197C305.604 162.115 305.918 162.012 306.141 161.805C306.363 161.594 306.475 161.307 306.475 160.943C306.475 160.592 306.365 160.305 306.146 160.082C305.932 159.855 305.629 159.738 305.238 159.73H303.586ZM192 180H190.916V177.293H188.004V180H186.914V173.66H188.004V176.408H190.916V173.66H192V180ZM197.66 180C197.598 179.875 197.547 179.652 197.508 179.332C197.004 179.855 196.402 180.117 195.703 180.117C195.078 180.117 194.564 179.941 194.162 179.59C193.764 179.234 193.564 178.785 193.564 178.242C193.564 177.582 193.814 177.07 194.314 176.707C194.818 176.34 195.525 176.156 196.436 176.156H197.49V175.658C197.49 175.279 197.377 174.979 197.15 174.756C196.924 174.529 196.59 174.416 196.148 174.416C195.762 174.416 195.438 174.514 195.176 174.709C194.914 174.904 194.783 175.141 194.783 175.418H193.693C193.693 175.102 193.805 174.797 194.027 174.504C194.254 174.207 194.559 173.973 194.941 173.801C195.328 173.629 195.752 173.543 196.213 173.543C196.943 173.543 197.516 173.727 197.93 174.094C198.344 174.457 198.559 174.959 198.574 175.6V178.518C198.574 179.1 198.648 179.562 198.797 179.906V180H197.66ZM195.861 179.174C196.201 179.174 196.523 179.086 196.828 178.91C197.133 178.734 197.354 178.506 197.49 178.225V176.924H196.641C195.312 176.924 194.648 177.312 194.648 178.09C194.648 178.43 194.762 178.695 194.988 178.887C195.215 179.078 195.506 179.174 195.861 179.174ZM205.453 180H204.369V177.293H201.457V180H200.367V173.66H201.457V176.408H204.369V173.66H205.453V180ZM206.912 176.771C206.912 176.15 207.033 175.592 207.275 175.096C207.521 174.6 207.861 174.217 208.295 173.947C208.732 173.678 209.23 173.543 209.789 173.543C210.652 173.543 211.35 173.842 211.881 174.439C212.416 175.037 212.684 175.832 212.684 176.824V176.9C212.684 177.518 212.564 178.072 212.326 178.564C212.092 179.053 211.754 179.434 211.312 179.707C210.875 179.98 210.371 180.117 209.801 180.117C208.941 180.117 208.244 179.818 207.709 179.221C207.178 178.623 206.912 177.832 206.912 176.848V176.771ZM208.002 176.9C208.002 177.604 208.164 178.168 208.488 178.594C208.816 179.02 209.254 179.232 209.801 179.232C210.352 179.232 210.789 179.018 211.113 178.588C211.438 178.154 211.6 177.549 211.6 176.771C211.6 176.076 211.434 175.514 211.102 175.084C210.773 174.65 210.336 174.434 209.789 174.434C209.254 174.434 208.822 174.646 208.494 175.072C208.166 175.498 208.002 176.107 208.002 176.9ZM216.586 179.232C216.973 179.232 217.311 179.115 217.6 178.881C217.889 178.646 218.049 178.354 218.08 178.002H219.105C219.086 178.365 218.961 178.711 218.73 179.039C218.5 179.367 218.191 179.629 217.805 179.824C217.422 180.02 217.016 180.117 216.586 180.117C215.723 180.117 215.035 179.83 214.523 179.256C214.016 178.678 213.762 177.889 213.762 176.889V176.707C213.762 176.09 213.875 175.541 214.102 175.061C214.328 174.58 214.652 174.207 215.074 173.941C215.5 173.676 216.002 173.543 216.58 173.543C217.291 173.543 217.881 173.756 218.35 174.182C218.822 174.607 219.074 175.16 219.105 175.84H218.08C218.049 175.43 217.893 175.094 217.611 174.832C217.334 174.566 216.99 174.434 216.58 174.434C216.029 174.434 215.602 174.633 215.297 175.031C214.996 175.426 214.846 175.998 214.846 176.748V176.953C214.846 177.684 214.996 178.246 215.297 178.641C215.598 179.035 216.027 179.232 216.586 179.232ZM224.426 173.66H225.51V180H224.426V175.377L221.502 180H220.418V173.66H221.502V178.289L224.426 173.66ZM231.961 174.539H229.834V180H228.75V174.539H226.664V173.66H231.961V174.539ZM235.09 179.232C235.477 179.232 235.814 179.115 236.104 178.881C236.393 178.646 236.553 178.354 236.584 178.002H237.609C237.59 178.365 237.465 178.711 237.234 179.039C237.004 179.367 236.695 179.629 236.309 179.824C235.926 180.02 235.52 180.117 235.09 180.117C234.227 180.117 233.539 179.83 233.027 179.256C232.52 178.678 232.266 177.889 232.266 176.889V176.707C232.266 176.09 232.379 175.541 232.605 175.061C232.832 174.58 233.156 174.207 233.578 173.941C234.004 173.676 234.506 173.543 235.084 173.543C235.795 173.543 236.385 173.756 236.854 174.182C237.326 174.607 237.578 175.16 237.609 175.84H236.584C236.553 175.43 236.396 175.094 236.115 174.832C235.838 174.566 235.494 174.434 235.084 174.434C234.533 174.434 234.105 174.633 233.801 175.031C233.5 175.426 233.35 175.998 233.35 176.748V176.953C233.35 177.684 233.5 178.246 233.801 178.641C234.102 179.035 234.531 179.232 235.09 179.232ZM243.674 173.66V180H242.584V177.533H240.949L239.455 180H238.283L239.877 177.369C239.471 177.221 239.158 176.992 238.939 176.684C238.725 176.371 238.617 176.008 238.617 175.594C238.617 175.016 238.834 174.551 239.268 174.199C239.701 173.844 240.281 173.664 241.008 173.66H243.674ZM239.707 175.605C239.707 175.914 239.812 176.164 240.023 176.355C240.234 176.543 240.514 176.639 240.861 176.643H242.584V174.539H241.025C240.623 174.539 240.303 174.639 240.064 174.838C239.826 175.033 239.707 175.289 239.707 175.605ZM250.934 179.232C251.32 179.232 251.658 179.115 251.947 178.881C252.236 178.646 252.396 178.354 252.428 178.002H253.453C253.434 178.365 253.309 178.711 253.078 179.039C252.848 179.367 252.539 179.629 252.152 179.824C251.77 180.02 251.363 180.117 250.934 180.117C250.07 180.117 249.383 179.83 248.871 179.256C248.363 178.678 248.109 177.889 248.109 176.889V176.707C248.109 176.09 248.223 175.541 248.449 175.061C248.676 174.58 249 174.207 249.422 173.941C249.848 173.676 250.35 173.543 250.928 173.543C251.639 173.543 252.229 173.756 252.697 174.182C253.17 174.607 253.422 175.16 253.453 175.84H252.428C252.396 175.43 252.24 175.094 251.959 174.832C251.682 174.566 251.338 174.434 250.928 174.434C250.377 174.434 249.949 174.633 249.645 175.031C249.344 175.426 249.193 175.998 249.193 176.748V176.953C249.193 177.684 249.344 178.246 249.645 178.641C249.945 179.035 250.375 179.232 250.934 179.232ZM259.857 180H258.773V174.557H255.855V180H254.766V173.66H259.857V180ZM264.229 180.117C263.369 180.117 262.67 179.836 262.131 179.273C261.592 178.707 261.322 177.951 261.322 177.006V176.807C261.322 176.178 261.441 175.617 261.68 175.125C261.922 174.629 262.258 174.242 262.688 173.965C263.121 173.684 263.59 173.543 264.094 173.543C264.918 173.543 265.559 173.814 266.016 174.357C266.473 174.9 266.701 175.678 266.701 176.689V177.141H262.406C262.422 177.766 262.604 178.271 262.951 178.658C263.303 179.041 263.748 179.232 264.287 179.232C264.67 179.232 264.994 179.154 265.26 178.998C265.525 178.842 265.758 178.635 265.957 178.377L266.619 178.893C266.088 179.709 265.291 180.117 264.229 180.117ZM264.094 174.434C263.656 174.434 263.289 174.594 262.992 174.914C262.695 175.23 262.512 175.676 262.441 176.25H265.617V176.168C265.586 175.617 265.438 175.191 265.172 174.891C264.906 174.586 264.547 174.434 264.094 174.434ZM268.055 173.66H269.145V179.115H272.062V173.66H273.146V179.115H273.902L273.797 181.881H272.824V180H268.055V173.66ZM279.176 173.66H280.26V180H279.176V175.377L276.252 180H275.168V173.66H276.252V178.289L279.176 173.66ZM285.914 180C285.852 179.875 285.801 179.652 285.762 179.332C285.258 179.855 284.656 180.117 283.957 180.117C283.332 180.117 282.818 179.941 282.416 179.59C282.018 179.234 281.818 178.785 281.818 178.242C281.818 177.582 282.068 177.07 282.568 176.707C283.072 176.34 283.779 176.156 284.689 176.156H285.744V175.658C285.744 175.279 285.631 174.979 285.404 174.756C285.178 174.529 284.844 174.416 284.402 174.416C284.016 174.416 283.691 174.514 283.43 174.709C283.168 174.904 283.037 175.141 283.037 175.418H281.947C281.947 175.102 282.059 174.797 282.281 174.504C282.508 174.207 282.812 173.973 283.195 173.801C283.582 173.629 284.006 173.543 284.467 173.543C285.197 173.543 285.77 173.727 286.184 174.094C286.598 174.457 286.812 174.959 286.828 175.6V178.518C286.828 179.1 286.902 179.562 287.051 179.906V180H285.914ZM284.115 179.174C284.455 179.174 284.777 179.086 285.082 178.91C285.387 178.734 285.607 178.506 285.744 178.225V176.924H284.895C283.566 176.924 282.902 177.312 282.902 178.09C282.902 178.43 283.016 178.695 283.242 178.887C283.469 179.078 283.76 179.174 284.115 179.174ZM293.725 173.66V180H292.635V174.557H290.479L290.35 176.93C290.279 178.02 290.096 178.799 289.799 179.268C289.506 179.736 289.039 179.98 288.398 180H287.965V179.045L288.275 179.021C288.627 178.982 288.879 178.779 289.031 178.412C289.184 178.045 289.281 177.365 289.324 176.373L289.441 173.66H293.725ZM296.648 175.846H298.295C299.014 175.854 299.582 176.041 300 176.408C300.418 176.775 300.627 177.273 300.627 177.902C300.627 178.535 300.412 179.043 299.982 179.426C299.553 179.809 298.975 180 298.248 180H295.564V173.66H296.648V175.846ZM296.648 176.73V179.115H298.26C298.666 179.115 298.98 179.012 299.203 178.805C299.426 178.594 299.537 178.307 299.537 177.943C299.537 177.592 299.428 177.305 299.209 177.082C298.994 176.855 298.691 176.738 298.301 176.73H296.648ZM307.16 180H306.076V177.293H303.164V180H302.074V173.66H303.164V176.408H306.076V173.66H307.16V180ZM310.09 175.846H311.736C312.455 175.854 313.023 176.041 313.441 176.408C313.859 176.775 314.068 177.273 314.068 177.902C314.068 178.535 313.854 179.043 313.424 179.426C312.994 179.809 312.416 180 311.689 180H309.006V173.66H310.09V175.846ZM316.33 180H315.24V173.66H316.33V180ZM310.09 176.73V179.115H311.701C312.107 179.115 312.422 179.012 312.645 178.805C312.867 178.594 312.979 178.307 312.979 177.943C312.979 177.592 312.869 177.305 312.65 177.082C312.436 176.855 312.133 176.738 311.742 176.73H310.09ZM322.324 173.66H323.408V180H322.324V175.377L319.4 180H318.316V173.66H319.4V178.289L322.324 173.66ZM322.617 171.352C322.617 171.824 322.455 172.205 322.131 172.494C321.811 172.779 321.389 172.922 320.865 172.922C320.342 172.922 319.918 172.777 319.594 172.488C319.27 172.199 319.107 171.82 319.107 171.352H319.992C319.992 171.625 320.066 171.84 320.215 171.996C320.363 172.148 320.58 172.225 320.865 172.225C321.139 172.225 321.352 172.148 321.504 171.996C321.66 171.844 321.738 171.629 321.738 171.352H322.617ZM190.471 195.564L192.627 190.66H193.98V197H192.896V192.389L190.846 197H190.096L188.004 192.289V197H186.92V190.66H188.326L190.471 195.564ZM198.357 197.117C197.498 197.117 196.799 196.836 196.26 196.273C195.721 195.707 195.451 194.951 195.451 194.006V193.807C195.451 193.178 195.57 192.617 195.809 192.125C196.051 191.629 196.387 191.242 196.816 190.965C197.25 190.684 197.719 190.543 198.223 190.543C199.047 190.543 199.688 190.814 200.145 191.357C200.602 191.9 200.83 192.678 200.83 193.689V194.141H196.535C196.551 194.766 196.732 195.271 197.08 195.658C197.432 196.041 197.877 196.232 198.416 196.232C198.799 196.232 199.123 196.154 199.389 195.998C199.654 195.842 199.887 195.635 200.086 195.377L200.748 195.893C200.217 196.709 199.42 197.117 198.357 197.117ZM198.223 191.434C197.785 191.434 197.418 191.594 197.121 191.914C196.824 192.23 196.641 192.676 196.57 193.25H199.746V193.168C199.715 192.617 199.566 192.191 199.301 191.891C199.035 191.586 198.676 191.434 198.223 191.434ZM202.037 196.115L202.412 195.652C202.834 195.105 203.074 194.285 203.133 193.191L203.232 190.66H207.316V196.115H208.131V198.863H207.047V197H202.623V198.863H201.539L201.545 196.115H202.037ZM203.32 196.115H206.232V191.662H204.281L204.217 193.174C204.15 194.436 203.852 195.416 203.32 196.115ZM214.512 197H213.428V194.293H210.516V197H209.426V190.66H210.516V193.408H213.428V190.66H214.512V197ZM217.441 192.846H219.088C219.807 192.854 220.375 193.041 220.793 193.408C221.211 193.775 221.42 194.273 221.42 194.902C221.42 195.535 221.205 196.043 220.775 196.426C220.346 196.809 219.768 197 219.041 197H216.357V190.66H217.441V192.846ZM223.682 197H222.592V190.66H223.682V197ZM217.441 193.73V196.115H219.053C219.459 196.115 219.773 196.012 219.996 195.805C220.219 195.594 220.33 195.307 220.33 194.943C220.33 194.592 220.221 194.305 220.002 194.082C219.787 193.855 219.484 193.738 219.094 193.73H217.441ZM229.676 190.66H230.76V197H229.676V192.377L226.752 197H225.668V190.66H226.752V195.289L229.676 190.66ZM229.969 188.352C229.969 188.824 229.807 189.205 229.482 189.494C229.162 189.779 228.74 189.922 228.217 189.922C227.693 189.922 227.27 189.777 226.945 189.488C226.621 189.199 226.459 188.82 226.459 188.352H227.344C227.344 188.625 227.418 188.84 227.566 188.996C227.715 189.148 227.932 189.225 228.217 189.225C228.49 189.225 228.703 189.148 228.855 188.996C229.012 188.844 229.09 188.629 229.09 188.352H229.969ZM240.662 197H239.578V191.557H236.66V197H235.57V190.66H240.662V197ZM242.115 193.771C242.115 193.15 242.236 192.592 242.479 192.096C242.725 191.6 243.064 191.217 243.498 190.947C243.936 190.678 244.434 190.543 244.992 190.543C245.855 190.543 246.553 190.842 247.084 191.439C247.619 192.037 247.887 192.832 247.887 193.824V193.9C247.887 194.518 247.768 195.072 247.529 195.564C247.295 196.053 246.957 196.434 246.516 196.707C246.078 196.98 245.574 197.117 245.004 197.117C244.145 197.117 243.447 196.818 242.912 196.221C242.381 195.623 242.115 194.832 242.115 193.848V193.771ZM243.205 193.9C243.205 194.604 243.367 195.168 243.691 195.594C244.02 196.02 244.457 196.232 245.004 196.232C245.555 196.232 245.992 196.018 246.316 195.588C246.641 195.154 246.803 194.549 246.803 193.771C246.803 193.076 246.637 192.514 246.305 192.084C245.977 191.65 245.539 191.434 244.992 191.434C244.457 191.434 244.025 191.646 243.697 192.072C243.369 192.498 243.205 193.107 243.205 193.9ZM254.602 193.9C254.602 194.865 254.381 195.643 253.939 196.232C253.498 196.822 252.9 197.117 252.146 197.117C251.377 197.117 250.771 196.873 250.33 196.385V199.438H249.246V190.66H250.236L250.289 191.363C250.73 190.816 251.344 190.543 252.129 190.543C252.891 190.543 253.492 190.83 253.934 191.404C254.379 191.979 254.602 192.777 254.602 193.801V193.9ZM253.518 193.777C253.518 193.062 253.365 192.498 253.061 192.084C252.756 191.67 252.338 191.463 251.807 191.463C251.15 191.463 250.658 191.754 250.33 192.336V195.365C250.654 195.943 251.15 196.232 251.818 196.232C252.338 196.232 252.75 196.027 253.055 195.617C253.363 195.203 253.518 194.59 253.518 193.777ZM255.697 193.771C255.697 193.15 255.818 192.592 256.061 192.096C256.307 191.6 256.646 191.217 257.08 190.947C257.518 190.678 258.016 190.543 258.574 190.543C259.438 190.543 260.135 190.842 260.666 191.439C261.201 192.037 261.469 192.832 261.469 193.824V193.9C261.469 194.518 261.35 195.072 261.111 195.564C260.877 196.053 260.539 196.434 260.098 196.707C259.66 196.98 259.156 197.117 258.586 197.117C257.727 197.117 257.029 196.818 256.494 196.221C255.963 195.623 255.697 194.832 255.697 193.848V193.771ZM256.787 193.9C256.787 194.604 256.949 195.168 257.273 195.594C257.602 196.02 258.039 196.232 258.586 196.232C259.137 196.232 259.574 196.018 259.898 195.588C260.223 195.154 260.385 194.549 260.385 193.771C260.385 193.076 260.219 192.514 259.887 192.084C259.559 191.65 259.121 191.434 258.574 191.434C258.039 191.434 257.607 191.646 257.279 192.072C256.951 192.498 256.787 193.107 256.787 193.9ZM264.012 190.66V196.115H266.332V190.66H267.416V196.115H269.73V190.66H270.82V197H262.922V190.66H264.012ZM272.244 193.771C272.244 193.15 272.365 192.592 272.607 192.096C272.854 191.6 273.193 191.217 273.627 190.947C274.064 190.678 274.562 190.543 275.121 190.543C275.984 190.543 276.682 190.842 277.213 191.439C277.748 192.037 278.016 192.832 278.016 193.824V193.9C278.016 194.518 277.896 195.072 277.658 195.564C277.424 196.053 277.086 196.434 276.645 196.707C276.207 196.98 275.703 197.117 275.133 197.117C274.273 197.117 273.576 196.818 273.041 196.221C272.51 195.623 272.244 194.832 272.244 193.848V193.771ZM273.334 193.9C273.334 194.604 273.496 195.168 273.82 195.594C274.148 196.02 274.586 196.232 275.133 196.232C275.684 196.232 276.121 196.018 276.445 195.588C276.77 195.154 276.932 194.549 276.932 193.771C276.932 193.076 276.766 192.514 276.434 192.084C276.105 191.65 275.668 191.434 275.121 191.434C274.586 191.434 274.154 191.646 273.826 192.072C273.498 192.498 273.334 193.107 273.334 193.9ZM281.35 194.299H280.559V197H279.469V190.66H280.559V193.344H281.268L283.4 190.66H284.713L282.205 193.707L284.924 197H283.547L281.35 194.299ZM288.357 193.596C288.357 194.467 288.242 195.303 288.012 196.104C287.785 196.9 287.436 197.637 286.963 198.312C286.494 198.988 286.002 199.469 285.486 199.754L285.258 199.092C285.859 198.631 286.342 197.916 286.705 196.947C287.072 195.975 287.26 194.896 287.268 193.713V193.525C287.268 192.705 287.182 191.943 287.01 191.24C286.838 190.533 286.598 189.9 286.289 189.342C285.984 188.783 285.641 188.348 285.258 188.035L285.486 187.373C286.002 187.658 286.492 188.135 286.957 188.803C287.426 189.471 287.775 190.207 288.006 191.012C288.24 191.816 288.357 192.678 288.357 193.596Z" fill="white"/>
<path d="M11.9727 7.1543H7.61719V19H4.6875V7.1543H0.390625V4.78125H11.9727V7.1543ZM17.4805 4.78125L21.1328 15.0938L24.7656 4.78125H28.6133V19H25.6738V15.1133L25.9668 8.4043L22.1289 19H20.1172L16.2891 8.41406L16.582 15.1133V19H13.6523V4.78125H17.4805ZM51.25 7.1543H46.8945V19H43.9648V7.1543H39.668V4.78125H51.25V7.1543ZM59.7852 16.0703H54.6484L53.6719 19H50.5566L55.8496 4.78125H58.5645L63.8867 19H60.7715L59.7852 16.0703ZM55.4395 13.6973H58.9941L57.207 8.375L55.4395 13.6973ZM85.293 7.1543H80.9375V19H78.0078V7.1543H73.7109V4.78125H85.293V7.1543ZM93.8281 16.0703H88.6914L87.7148 19H84.5996L89.8926 4.78125H92.6074L97.9297 19H94.8145L93.8281 16.0703ZM89.4824 13.6973H93.0371L91.25 8.375L89.4824 13.6973ZM103.086 4.78125L106.738 15.0938L110.371 4.78125H114.219V19H111.279V15.1133L111.572 8.4043L107.734 19H105.723L101.895 8.41406L102.188 15.1133V19H99.2578V4.78125H103.086Z" fill="white"/>
<path d="M98 38V54H170" stroke="white"/>
<path d="M52 38V102H170" stroke="white"/>
<path d="M17 38V150H174" stroke="white"/>
<circle cx="17" cy="38" r="4" fill="white"/>
<circle cx="52" cy="38" r="4" fill="white"/>
<circle cx="98" cy="38" r="4" fill="white"/>
<circle cx="170" cy="54" r="4" fill="white"/>
<circle cx="170" cy="102" r="4" fill="white"/>
<circle cx="170" cy="150" r="4" fill="white"/>
</svg>
