<svg width="360" height="111" viewBox="0 0 360 111" fill="none" xmlns="http://www.w3.org/2000/svg">
<path d="M230.281 51.3945H226.168V59H225.037V50.4688H230.281V51.3945ZM234.395 52.6602H235.479V59H234.395V54.377L231.471 59H230.387V52.6602H231.471V57.2891L234.395 52.6602ZM242.416 52.6602V59H241.326V53.5566H239.17L239.041 55.9297C238.971 57.0195 238.787 57.7988 238.49 58.2676C238.197 58.7363 237.73 58.9805 237.09 59H236.656V58.0449L236.967 58.0215C237.318 57.9824 237.57 57.7793 237.723 57.4121C237.875 57.0449 237.973 56.3652 238.016 55.373L238.133 52.6602H242.416ZM245.34 54.8457H246.986C247.705 54.8535 248.273 55.041 248.691 55.4082C249.109 55.7754 249.318 56.2734 249.318 56.9023C249.318 57.5352 249.104 58.043 248.674 58.4258C248.244 58.8086 247.666 59 246.939 59H244.256V52.6602H245.34V54.8457ZM245.34 55.7305V58.1152H246.951C247.357 58.1152 247.672 58.0117 247.895 57.8047C248.117 57.5938 248.229 57.3066 248.229 56.9434C248.229 56.5918 248.119 56.3047 247.9 56.082C247.686 55.8555 247.383 55.7383 246.992 55.7305H245.34ZM254.158 54.3945C254.158 54.0977 254.045 53.8633 253.818 53.6914C253.592 53.5156 253.281 53.4277 252.887 53.4277C252.504 53.4277 252.184 53.5273 251.926 53.7266C251.672 53.9258 251.545 54.1602 251.545 54.4297H250.467C250.467 53.8789 250.697 53.4277 251.158 53.0762C251.619 52.7246 252.195 52.5488 252.887 52.5488C253.629 52.5488 254.207 52.709 254.621 53.0293C255.035 53.3457 255.242 53.7988 255.242 54.3887C255.242 54.6738 255.156 54.9355 254.984 55.1738C254.812 55.4121 254.568 55.6016 254.252 55.7422C254.99 55.9922 255.359 56.4844 255.359 57.2188C255.359 57.8008 255.135 58.2617 254.686 58.6016C254.236 58.9414 253.637 59.1113 252.887 59.1113C252.156 59.1113 251.553 58.9336 251.076 58.5781C250.604 58.2188 250.367 57.7344 250.367 57.125H251.445C251.445 57.4336 251.582 57.6992 251.855 57.9219C252.133 58.1406 252.477 58.25 252.887 58.25C253.301 58.25 253.635 58.1543 253.889 57.9629C254.143 57.7715 254.27 57.5234 254.27 57.2188C254.27 56.8633 254.162 56.6094 253.947 56.457C253.736 56.3008 253.406 56.2227 252.957 56.2227H251.873V55.3086H253.051C253.789 55.2891 254.158 54.9844 254.158 54.3945ZM260.68 59C260.617 58.875 260.566 58.6523 260.527 58.332C260.023 58.8555 259.422 59.1172 258.723 59.1172C258.098 59.1172 257.584 58.9414 257.182 58.5898C256.783 58.2344 256.584 57.7852 256.584 57.2422C256.584 56.582 256.834 56.0703 257.334 55.707C257.838 55.3398 258.545 55.1562 259.455 55.1562H260.51V54.6582C260.51 54.2793 260.396 53.9785 260.17 53.7559C259.943 53.5293 259.609 53.416 259.168 53.416C258.781 53.416 258.457 53.5137 258.195 53.709C257.934 53.9043 257.803 54.1406 257.803 54.418H256.713C256.713 54.1016 256.824 53.7969 257.047 53.5039C257.273 53.207 257.578 52.9727 257.961 52.8008C258.348 52.6289 258.771 52.543 259.232 52.543C259.963 52.543 260.535 52.7266 260.949 53.0938C261.363 53.457 261.578 53.959 261.594 54.5996V57.5176C261.594 58.0996 261.668 58.5625 261.816 58.9062V59H260.68ZM258.881 58.1738C259.221 58.1738 259.543 58.0859 259.848 57.9102C260.152 57.7344 260.373 57.5059 260.51 57.2246V55.9238H259.66C258.332 55.9238 257.668 56.3125 257.668 57.0898C257.668 57.4297 257.781 57.6953 258.008 57.8867C258.234 58.0781 258.525 58.1738 258.881 58.1738ZM269.92 57.5645L272.076 52.6602H273.43V59H272.346V54.3887L270.295 59H269.545L267.453 54.2891V59H266.369V52.6602H267.775L269.92 57.5645ZM277.807 59.1172C276.947 59.1172 276.248 58.8359 275.709 58.2734C275.17 57.707 274.9 56.9512 274.9 56.0059V55.8066C274.9 55.1777 275.02 54.6172 275.258 54.125C275.5 53.6289 275.836 53.2422 276.266 52.9648C276.699 52.6836 277.168 52.543 277.672 52.543C278.496 52.543 279.137 52.8145 279.594 53.3574C280.051 53.9004 280.279 54.6777 280.279 55.6895V56.1406H275.984C276 56.7656 276.182 57.2715 276.529 57.6582C276.881 58.041 277.326 58.2324 277.865 58.2324C278.248 58.2324 278.572 58.1543 278.838 57.998C279.104 57.8418 279.336 57.6348 279.535 57.377L280.197 57.8926C279.666 58.709 278.869 59.1172 277.807 59.1172ZM277.672 53.4336C277.234 53.4336 276.867 53.5938 276.57 53.9141C276.273 54.2305 276.09 54.6758 276.02 55.25H279.195V55.168C279.164 54.6172 279.016 54.1914 278.75 53.8906C278.484 53.5859 278.125 53.4336 277.672 53.4336ZM281.486 58.1152L281.861 57.6523C282.283 57.1055 282.523 56.2852 282.582 55.1914L282.682 52.6602H286.766V58.1152H287.58V60.8633H286.496V59H282.072V60.8633H280.988L280.994 58.1152H281.486ZM282.77 58.1152H285.682V53.6621H283.73L283.666 55.1738C283.6 56.4355 283.301 57.416 282.77 58.1152ZM293.961 59H292.877V56.293H289.965V59H288.875V52.6602H289.965V55.4082H292.877V52.6602H293.961V59ZM299.621 59C299.559 58.875 299.508 58.6523 299.469 58.332C298.965 58.8555 298.363 59.1172 297.664 59.1172C297.039 59.1172 296.525 58.9414 296.123 58.5898C295.725 58.2344 295.525 57.7852 295.525 57.2422C295.525 56.582 295.775 56.0703 296.275 55.707C296.779 55.3398 297.486 55.1562 298.396 55.1562H299.451V54.6582C299.451 54.2793 299.338 53.9785 299.111 53.7559C298.885 53.5293 298.551 53.416 298.109 53.416C297.723 53.416 297.398 53.5137 297.137 53.709C296.875 53.9043 296.744 54.1406 296.744 54.418H295.654C295.654 54.1016 295.766 53.7969 295.988 53.5039C296.215 53.207 296.52 52.9727 296.902 52.8008C297.289 52.6289 297.713 52.543 298.174 52.543C298.904 52.543 299.477 52.7266 299.891 53.0938C300.305 53.457 300.52 53.959 300.535 54.5996V57.5176C300.535 58.0996 300.609 58.5625 300.758 58.9062V59H299.621ZM297.822 58.1738C298.162 58.1738 298.484 58.0859 298.789 57.9102C299.094 57.7344 299.314 57.5059 299.451 57.2246V55.9238H298.602C297.273 55.9238 296.609 56.3125 296.609 57.0898C296.609 57.4297 296.723 57.6953 296.949 57.8867C297.176 58.0781 297.467 58.1738 297.822 58.1738ZM307.08 52.6602V59H305.99V56.5332H304.355L302.861 59H301.689L303.283 56.3691C302.877 56.2207 302.564 55.9922 302.346 55.6836C302.131 55.3711 302.023 55.0078 302.023 54.5938C302.023 54.0156 302.24 53.5508 302.674 53.1992C303.107 52.8438 303.688 52.6641 304.414 52.6602H307.08ZM303.113 54.6055C303.113 54.9141 303.219 55.1641 303.43 55.3555C303.641 55.543 303.92 55.6387 304.268 55.6426H305.99V53.5391H304.432C304.029 53.5391 303.709 53.6387 303.471 53.8379C303.232 54.0332 303.113 54.2891 303.113 54.6055Z" fill="white"/>
<path d="M230.281 99.3945H226.168V107H225.037V98.4688H230.281V99.3945ZM234.395 100.66H235.479V107H234.395V102.377L231.471 107H230.387V100.66H231.471V105.289L234.395 100.66ZM242.416 100.66V107H241.326V101.557H239.17L239.041 103.93C238.971 105.02 238.787 105.799 238.49 106.268C238.197 106.736 237.73 106.98 237.09 107H236.656V106.045L236.967 106.021C237.318 105.982 237.57 105.779 237.723 105.412C237.875 105.045 237.973 104.365 238.016 103.373L238.133 100.66H242.416ZM245.34 102.846H246.986C247.705 102.854 248.273 103.041 248.691 103.408C249.109 103.775 249.318 104.273 249.318 104.902C249.318 105.535 249.104 106.043 248.674 106.426C248.244 106.809 247.666 107 246.939 107H244.256V100.66H245.34V102.846ZM245.34 103.73V106.115H246.951C247.357 106.115 247.672 106.012 247.895 105.805C248.117 105.594 248.229 105.307 248.229 104.943C248.229 104.592 248.119 104.305 247.9 104.082C247.686 103.855 247.383 103.738 246.992 103.73H245.34ZM254.158 102.395C254.158 102.098 254.045 101.863 253.818 101.691C253.592 101.516 253.281 101.428 252.887 101.428C252.504 101.428 252.184 101.527 251.926 101.727C251.672 101.926 251.545 102.16 251.545 102.43H250.467C250.467 101.879 250.697 101.428 251.158 101.076C251.619 100.725 252.195 100.549 252.887 100.549C253.629 100.549 254.207 100.709 254.621 101.029C255.035 101.346 255.242 101.799 255.242 102.389C255.242 102.674 255.156 102.936 254.984 103.174C254.812 103.412 254.568 103.602 254.252 103.742C254.99 103.992 255.359 104.484 255.359 105.219C255.359 105.801 255.135 106.262 254.686 106.602C254.236 106.941 253.637 107.111 252.887 107.111C252.156 107.111 251.553 106.934 251.076 106.578C250.604 106.219 250.367 105.734 250.367 105.125H251.445C251.445 105.434 251.582 105.699 251.855 105.922C252.133 106.141 252.477 106.25 252.887 106.25C253.301 106.25 253.635 106.154 253.889 105.963C254.143 105.771 254.27 105.523 254.27 105.219C254.27 104.863 254.162 104.609 253.947 104.457C253.736 104.301 253.406 104.223 252.957 104.223H251.873V103.309H253.051C253.789 103.289 254.158 102.984 254.158 102.395ZM260.68 107C260.617 106.875 260.566 106.652 260.527 106.332C260.023 106.855 259.422 107.117 258.723 107.117C258.098 107.117 257.584 106.941 257.182 106.59C256.783 106.234 256.584 105.785 256.584 105.242C256.584 104.582 256.834 104.07 257.334 103.707C257.838 103.34 258.545 103.156 259.455 103.156H260.51V102.658C260.51 102.279 260.396 101.979 260.17 101.756C259.943 101.529 259.609 101.416 259.168 101.416C258.781 101.416 258.457 101.514 258.195 101.709C257.934 101.904 257.803 102.141 257.803 102.418H256.713C256.713 102.102 256.824 101.797 257.047 101.504C257.273 101.207 257.578 100.973 257.961 100.801C258.348 100.629 258.771 100.543 259.232 100.543C259.963 100.543 260.535 100.727 260.949 101.094C261.363 101.457 261.578 101.959 261.594 102.6V105.518C261.594 106.1 261.668 106.562 261.816 106.906V107H260.68ZM258.881 106.174C259.221 106.174 259.543 106.086 259.848 105.91C260.152 105.734 260.373 105.506 260.51 105.225V103.924H259.66C258.332 103.924 257.668 104.312 257.668 105.09C257.668 105.43 257.781 105.695 258.008 105.887C258.234 106.078 258.525 106.174 258.881 106.174ZM269.92 105.564L272.076 100.66H273.43V107H272.346V102.389L270.295 107H269.545L267.453 102.289V107H266.369V100.66H267.775L269.92 105.564ZM277.807 107.117C276.947 107.117 276.248 106.836 275.709 106.273C275.17 105.707 274.9 104.951 274.9 104.006V103.807C274.9 103.178 275.02 102.617 275.258 102.125C275.5 101.629 275.836 101.242 276.266 100.965C276.699 100.684 277.168 100.543 277.672 100.543C278.496 100.543 279.137 100.814 279.594 101.357C280.051 101.9 280.279 102.678 280.279 103.689V104.141H275.984C276 104.766 276.182 105.271 276.529 105.658C276.881 106.041 277.326 106.232 277.865 106.232C278.248 106.232 278.572 106.154 278.838 105.998C279.104 105.842 279.336 105.635 279.535 105.377L280.197 105.893C279.666 106.709 278.869 107.117 277.807 107.117ZM277.672 101.434C277.234 101.434 276.867 101.594 276.57 101.914C276.273 102.23 276.09 102.676 276.02 103.25H279.195V103.168C279.164 102.617 279.016 102.191 278.75 101.891C278.484 101.586 278.125 101.434 277.672 101.434ZM281.486 106.115L281.861 105.652C282.283 105.105 282.523 104.285 282.582 103.191L282.682 100.66H286.766V106.115H287.58V108.863H286.496V107H282.072V108.863H280.988L280.994 106.115H281.486ZM282.77 106.115H285.682V101.662H283.73L283.666 103.174C283.6 104.436 283.301 105.416 282.77 106.115ZM293.961 107H292.877V104.293H289.965V107H288.875V100.66H289.965V103.408H292.877V100.66H293.961V107ZM299.621 107C299.559 106.875 299.508 106.652 299.469 106.332C298.965 106.855 298.363 107.117 297.664 107.117C297.039 107.117 296.525 106.941 296.123 106.59C295.725 106.234 295.525 105.785 295.525 105.242C295.525 104.582 295.775 104.07 296.275 103.707C296.779 103.34 297.486 103.156 298.396 103.156H299.451V102.658C299.451 102.279 299.338 101.979 299.111 101.756C298.885 101.529 298.551 101.416 298.109 101.416C297.723 101.416 297.398 101.514 297.137 101.709C296.875 101.904 296.744 102.141 296.744 102.418H295.654C295.654 102.102 295.766 101.797 295.988 101.504C296.215 101.207 296.52 100.973 296.902 100.801C297.289 100.629 297.713 100.543 298.174 100.543C298.904 100.543 299.477 100.727 299.891 101.094C300.305 101.457 300.52 101.959 300.535 102.6V105.518C300.535 106.1 300.609 106.562 300.758 106.906V107H299.621ZM297.822 106.174C298.162 106.174 298.484 106.086 298.789 105.91C299.094 105.734 299.314 105.506 299.451 105.225V103.924H298.602C297.273 103.924 296.609 104.312 296.609 105.09C296.609 105.43 296.723 105.695 296.949 105.887C297.176 106.078 297.467 106.174 297.822 106.174ZM307.08 100.66V107H305.99V104.533H304.355L302.861 107H301.689L303.283 104.369C302.877 104.221 302.564 103.992 302.346 103.684C302.131 103.371 302.023 103.008 302.023 102.594C302.023 102.016 302.24 101.551 302.674 101.199C303.107 100.844 303.688 100.664 304.414 100.66H307.08ZM303.113 102.605C303.113 102.914 303.219 103.164 303.43 103.355C303.641 103.543 303.92 103.639 304.268 103.643H305.99V101.539H304.432C304.029 101.539 303.709 101.639 303.471 101.838C303.232 102.033 303.113 102.289 303.113 102.605ZM316.994 100.66V107H315.904V101.557H313.748L313.619 103.93C313.549 105.02 313.365 105.799 313.068 106.268C312.775 106.736 312.309 106.98 311.668 107H311.234V106.045L311.545 106.021C311.896 105.982 312.148 105.779 312.301 105.412C312.453 105.045 312.551 104.365 312.594 103.373L312.711 100.66H316.994ZM320.809 105.412L322.285 100.66H323.445L320.896 107.979C320.502 109.033 319.875 109.561 319.016 109.561L318.811 109.543L318.406 109.467V108.588L318.699 108.611C319.066 108.611 319.352 108.537 319.555 108.389C319.762 108.24 319.932 107.969 320.064 107.574L320.305 106.93L318.043 100.66H319.227L320.809 105.412ZM329.475 104.246H328.713V107H327.629V104.246H326.867L325.092 107H323.721L325.988 103.719L323.938 100.66H325.25L326.885 103.285H327.629V100.66H328.713V103.285H329.451L331.098 100.66H332.41L330.354 103.725L332.621 107H331.25L329.475 104.246ZM336.119 107.117C335.26 107.117 334.561 106.836 334.021 106.273C333.482 105.707 333.213 104.951 333.213 104.006V103.807C333.213 103.178 333.332 102.617 333.57 102.125C333.812 101.629 334.148 101.242 334.578 100.965C335.012 100.684 335.48 100.543 335.984 100.543C336.809 100.543 337.449 100.814 337.906 101.357C338.363 101.9 338.592 102.678 338.592 103.689V104.141H334.297C334.312 104.766 334.494 105.271 334.842 105.658C335.193 106.041 335.639 106.232 336.178 106.232C336.561 106.232 336.885 106.154 337.15 105.998C337.416 105.842 337.648 105.635 337.848 105.377L338.51 105.893C337.979 106.709 337.182 107.117 336.119 107.117ZM335.984 101.434C335.547 101.434 335.18 101.594 334.883 101.914C334.586 102.23 334.402 102.676 334.332 103.25H337.508V103.168C337.477 102.617 337.328 102.191 337.062 101.891C336.797 101.586 336.438 101.434 335.984 101.434ZM345.031 107H343.947V104.293H341.035V107H339.945V100.66H341.035V103.408H343.947V100.66H345.031V107ZM350.691 107C350.629 106.875 350.578 106.652 350.539 106.332C350.035 106.855 349.434 107.117 348.734 107.117C348.109 107.117 347.596 106.941 347.193 106.59C346.795 106.234 346.596 105.785 346.596 105.242C346.596 104.582 346.846 104.07 347.346 103.707C347.85 103.34 348.557 103.156 349.467 103.156H350.521V102.658C350.521 102.279 350.408 101.979 350.182 101.756C349.955 101.529 349.621 101.416 349.18 101.416C348.793 101.416 348.469 101.514 348.207 101.709C347.945 101.904 347.814 102.141 347.814 102.418H346.725C346.725 102.102 346.836 101.797 347.059 101.504C347.285 101.207 347.59 100.973 347.973 100.801C348.359 100.629 348.783 100.543 349.244 100.543C349.975 100.543 350.547 100.727 350.961 101.094C351.375 101.457 351.59 101.959 351.605 102.6V105.518C351.605 106.1 351.68 106.562 351.828 106.906V107H350.691ZM348.893 106.174C349.232 106.174 349.555 106.086 349.859 105.91C350.164 105.734 350.385 105.506 350.521 105.225V103.924H349.672C348.344 103.924 347.68 104.312 347.68 105.09C347.68 105.43 347.793 105.695 348.02 105.887C348.246 106.078 348.537 106.174 348.893 106.174ZM358.15 100.66V107H357.061V104.533H355.426L353.932 107H352.76L354.354 104.369C353.947 104.221 353.635 103.992 353.416 103.684C353.201 103.371 353.094 103.008 353.094 102.594C353.094 102.016 353.311 101.551 353.744 101.199C354.178 100.844 354.758 100.664 355.484 100.66H358.15ZM354.184 102.605C354.184 102.914 354.289 103.164 354.5 103.355C354.711 103.543 354.99 103.639 355.338 103.643H357.061V101.539H355.502C355.1 101.539 354.779 101.639 354.541 101.838C354.303 102.033 354.184 102.289 354.184 102.605Z" fill="white"/>
<path d="M12.5195 17.2031C11.9922 17.8346 11.2467 18.3262 10.2832 18.6777C9.31966 19.0228 8.25195 19.1953 7.08008 19.1953C5.84961 19.1953 4.76888 18.9284 3.83789 18.3945C2.91341 17.8542 2.19727 17.0729 1.68945 16.0508C1.18815 15.0286 0.93099 13.8275 0.917969 12.4473V11.4805C0.917969 10.0612 1.1556 8.83398 1.63086 7.79883C2.11263 6.75716 2.80273 5.96289 3.70117 5.41602C4.60612 4.86263 5.66406 4.58594 6.875 4.58594C8.5612 4.58594 9.87956 4.98958 10.8301 5.79688C11.7806 6.59766 12.3438 7.76628 12.5195 9.30273H9.66797C9.53776 8.48893 9.24805 7.89323 8.79883 7.51562C8.35612 7.13802 7.74414 6.94922 6.96289 6.94922C5.9668 6.94922 5.20833 7.32357 4.6875 8.07227C4.16667 8.82096 3.90299 9.93424 3.89648 11.4121V12.3203C3.89648 13.8112 4.17969 14.9375 4.74609 15.6992C5.3125 16.4609 6.14258 16.8418 7.23633 16.8418C8.33659 16.8418 9.12109 16.6074 9.58984 16.1387V13.6875H6.92383V11.5293H12.5195V17.2031ZM25.6055 7.1543H21.25V19H18.3203V7.1543H14.0234V4.78125H25.6055V7.1543ZM27.2266 13.2188C27.2266 11.7279 27.4251 10.3086 27.8223 8.96094C28.2194 7.61328 28.8053 6.42188 29.5801 5.38672C30.3548 4.34505 31.1947 3.6224 32.0996 3.21875L32.6465 4.74219C31.696 5.44531 30.9538 6.53255 30.4199 8.00391C29.8861 9.47526 29.6191 11.194 29.6191 13.1602V13.4629C29.6191 15.4355 29.8828 17.1608 30.4102 18.6387C30.9375 20.1165 31.6829 21.2201 32.6465 21.9492L32.0996 23.4434C31.2142 23.0462 30.3874 22.3431 29.6191 21.334C28.8574 20.3314 28.2747 19.1725 27.8711 17.8574C27.4674 16.5423 27.2526 15.1686 27.2266 13.7363V13.2188ZM43.6426 7.1543H37.2656V19H34.3359V4.78125H43.6426V7.1543ZM49.2969 4.78125L52.9492 15.0938L56.582 4.78125H60.4297V19H57.4902V15.1133L57.7832 8.4043L53.9453 19H51.9336L48.1055 8.41406L48.3984 15.1133V19H45.4688V4.78125H49.2969ZM67.666 13.4434C67.666 14.9147 67.4544 16.3307 67.0312 17.6914C66.6081 19.0521 65.9993 20.2533 65.2051 21.2949C64.4108 22.3366 63.5612 23.0527 62.6562 23.4434L62.1094 21.9492C63.0339 21.2526 63.763 20.1784 64.2969 18.7266C64.8307 17.2747 65.1074 15.6048 65.127 13.7168V13.1992C65.127 11.2526 64.86 9.53711 64.3262 8.05273C63.7988 6.56836 63.0599 5.45508 62.1094 4.71289L62.6562 3.21875C63.5417 3.60286 64.375 4.29948 65.1562 5.30859C65.944 6.31771 66.5527 7.49284 66.9824 8.83398C67.4186 10.1751 67.6465 11.5651 67.666 13.0039V13.4434ZM101.211 17.2031C100.684 17.8346 99.9382 18.3262 98.9746 18.6777C98.0111 19.0228 96.9434 19.1953 95.7715 19.1953C94.541 19.1953 93.4603 18.9284 92.5293 18.3945C91.6048 17.8542 90.8887 17.0729 90.3809 16.0508C89.8796 15.0286 89.6224 13.8275 89.6094 12.4473V11.4805C89.6094 10.0612 89.847 8.83398 90.3223 7.79883C90.804 6.75716 91.4941 5.96289 92.3926 5.41602C93.2975 4.86263 94.3555 4.58594 95.5664 4.58594C97.2526 4.58594 98.571 4.98958 99.5215 5.79688C100.472 6.59766 101.035 7.76628 101.211 9.30273H98.3594C98.2292 8.48893 97.9395 7.89323 97.4902 7.51562C97.0475 7.13802 96.4355 6.94922 95.6543 6.94922C94.6582 6.94922 93.8997 7.32357 93.3789 8.07227C92.8581 8.82096 92.5944 9.93424 92.5879 11.4121V12.3203C92.5879 13.8112 92.8711 14.9375 93.4375 15.6992C94.0039 16.4609 94.834 16.8418 95.9277 16.8418C97.028 16.8418 97.8125 16.6074 98.2812 16.1387V13.6875H95.6152V11.5293H101.211V17.2031ZM114.297 7.1543H109.941V19H107.012V7.1543H102.715V4.78125H114.297V7.1543ZM121.035 11.1875L123.994 4.78125H127.197L122.529 13.8438V19H119.551V13.8438L114.883 4.78125H118.096L121.035 11.1875ZM128.438 13.2188C128.438 11.7279 128.636 10.3086 129.033 8.96094C129.43 7.61328 130.016 6.42188 130.791 5.38672C131.566 4.34505 132.406 3.6224 133.311 3.21875L133.857 4.74219C132.907 5.44531 132.165 6.53255 131.631 8.00391C131.097 9.47526 130.83 11.194 130.83 13.1602V13.4629C130.83 15.4355 131.094 17.1608 131.621 18.6387C132.148 20.1165 132.894 21.2201 133.857 21.9492L133.311 23.4434C132.425 23.0462 131.598 22.3431 130.83 21.334C130.068 20.3314 129.486 19.1725 129.082 17.8574C128.678 16.5423 128.464 15.1686 128.438 13.7363V13.2188ZM144.854 7.1543H138.477V19H135.547V4.78125H144.854V7.1543ZM150.508 4.78125L154.16 15.0938L157.793 4.78125H161.641V19H158.701V15.1133L158.994 8.4043L155.156 19H153.145L149.316 8.41406L149.609 15.1133V19H146.68V4.78125H150.508ZM175.938 4.78125V19H172.998V7.1543H169.209L168.975 12.1738C168.877 13.8665 168.662 15.2012 168.33 16.1777C167.998 17.1478 167.513 17.8607 166.875 18.3164C166.237 18.7656 165.365 18.9935 164.258 19H163.496V16.6465L163.984 16.5977C164.72 16.5 165.244 16.0768 165.557 15.3281C165.876 14.5729 166.077 13.2318 166.162 11.3047L166.406 4.78125H175.938ZM183.174 13.4434C183.174 14.9147 182.962 16.3307 182.539 17.6914C182.116 19.0521 181.507 20.2533 180.713 21.2949C179.919 22.3366 179.069 23.0527 178.164 23.4434L177.617 21.9492C178.542 21.2526 179.271 20.1784 179.805 18.7266C180.339 17.2747 180.615 15.6048 180.635 13.7168V13.1992C180.635 11.2526 180.368 9.53711 179.834 8.05273C179.307 6.56836 178.568 5.45508 177.617 4.71289L178.164 3.21875C179.049 3.60286 179.883 4.29948 180.664 5.30859C181.452 6.31771 182.061 7.49284 182.49 8.83398C182.926 10.1751 183.154 11.5651 183.174 13.0039V13.4434Z" fill="white"/>
<path d="M136 38V54H208" stroke="white"/>
<path d="M33 38V102H208" stroke="white"/>
<circle cx="33" cy="38" r="4" fill="white"/>
<circle cx="136" cy="38" r="4" fill="white"/>
<circle cx="208" cy="54" r="4" fill="white"/>
<circle cx="208" cy="102" r="4" fill="white"/>
</svg>
