<svg width="360" height="175" viewBox="0 0 360 175" fill="none" xmlns="http://www.w3.org/2000/svg">
<path d="M183.99 59V50.4688H186.779C187.705 50.4688 188.4 50.6602 188.865 51.043C189.334 51.4258 189.568 51.9922 189.568 52.7422C189.568 53.1406 189.455 53.4941 189.229 53.8027C189.002 54.1074 188.693 54.3438 188.303 54.5117C188.764 54.6406 189.127 54.8867 189.393 55.25C189.662 55.6094 189.797 56.0391 189.797 56.5391C189.797 57.3047 189.549 57.9062 189.053 58.3438C188.557 58.7812 187.855 59 186.949 59H183.99ZM185.115 55.0098V58.0801H186.973C187.496 58.0801 187.908 57.9453 188.209 57.6758C188.514 57.4023 188.666 57.0273 188.666 56.5508C188.666 55.5234 188.107 55.0098 186.99 55.0098H185.115ZM185.115 54.1074H186.814C187.307 54.1074 187.699 53.9844 187.992 53.7383C188.289 53.4922 188.438 53.1582 188.438 52.7363C188.438 52.2676 188.301 51.9277 188.027 51.7168C187.754 51.502 187.338 51.3945 186.779 51.3945H185.115V54.1074ZM196.477 59H195.393V56.293H192.48V59H191.391V52.6602H192.48V55.4082H195.393V52.6602H196.477V59ZM200.297 57.4121L201.773 52.6602H202.934L200.385 59.9785C199.99 61.0332 199.363 61.5605 198.504 61.5605L198.299 61.543L197.895 61.4668V60.5879L198.188 60.6113C198.555 60.6113 198.84 60.5371 199.043 60.3887C199.25 60.2402 199.42 59.9688 199.553 59.5742L199.793 58.9297L197.531 52.6602H198.715L200.297 57.4121ZM208.617 53.5391H206.49V59H205.406V53.5391H203.32V52.6602H208.617V53.5391ZM215.027 55.9004C215.027 56.8652 214.807 57.6426 214.365 58.2324C213.924 58.8223 213.326 59.1172 212.572 59.1172C211.803 59.1172 211.197 58.873 210.756 58.3848V61.4375H209.672V52.6602H210.662L210.715 53.3633C211.156 52.8164 211.77 52.543 212.555 52.543C213.316 52.543 213.918 52.8301 214.359 53.4043C214.805 53.9785 215.027 54.7773 215.027 55.8008V55.9004ZM213.943 55.7773C213.943 55.0625 213.791 54.498 213.486 54.084C213.182 53.6699 212.764 53.4629 212.232 53.4629C211.576 53.4629 211.084 53.7539 210.756 54.3359V57.3652C211.08 57.9434 211.576 58.2324 212.244 58.2324C212.764 58.2324 213.176 58.0273 213.48 57.6172C213.789 57.2031 213.943 56.5898 213.943 55.7773ZM219.041 59.1172C218.182 59.1172 217.482 58.8359 216.943 58.2734C216.404 57.707 216.135 56.9512 216.135 56.0059V55.8066C216.135 55.1777 216.254 54.6172 216.492 54.125C216.734 53.6289 217.07 53.2422 217.5 52.9648C217.934 52.6836 218.402 52.543 218.906 52.543C219.73 52.543 220.371 52.8145 220.828 53.3574C221.285 53.9004 221.514 54.6777 221.514 55.6895V56.1406H217.219C217.234 56.7656 217.416 57.2715 217.764 57.6582C218.115 58.041 218.561 58.2324 219.1 58.2324C219.482 58.2324 219.807 58.1543 220.072 57.998C220.338 57.8418 220.57 57.6348 220.77 57.377L221.432 57.8926C220.9 58.709 220.104 59.1172 219.041 59.1172ZM218.906 53.4336C218.469 53.4336 218.102 53.5938 217.805 53.9141C217.508 54.2305 217.324 54.6758 217.254 55.25H220.43V55.168C220.398 54.6172 220.25 54.1914 219.984 53.8906C219.719 53.5859 219.359 53.4336 218.906 53.4336ZM227.953 59H226.869V56.293H223.957V59H222.867V52.6602H223.957V55.4082H226.869V52.6602H227.953V59ZM234.879 59H233.795V56.293H230.883V59H229.793V52.6602H230.883V55.4082H233.795V52.6602H234.879V59ZM240.727 52.6602H241.811V59H240.727V54.377L237.803 59H236.719V52.6602H237.803V57.2891L240.727 52.6602ZM247.652 52.6602H248.736V59H247.652V54.377L244.729 59H243.645V52.6602H244.729V57.2891L247.652 52.6602ZM247.945 50.3516C247.945 50.8242 247.783 51.2051 247.459 51.4941C247.139 51.7793 246.717 51.9219 246.193 51.9219C245.67 51.9219 245.246 51.7773 244.922 51.4883C244.598 51.1992 244.436 50.8203 244.436 50.3516H245.32C245.32 50.625 245.395 50.8398 245.543 50.9961C245.691 51.1484 245.908 51.2246 246.193 51.2246C246.467 51.2246 246.68 51.1484 246.832 50.9961C246.988 50.8438 247.066 50.6289 247.066 50.3516H247.945ZM253.4 58.1152L253.775 57.6523C254.197 57.1055 254.438 56.2852 254.496 55.1914L254.596 52.6602H258.68V58.1152H259.494V60.8633H258.41V59H253.986V60.8633H252.902L252.908 58.1152H253.4ZM254.684 58.1152H257.596V53.6621H255.645L255.58 55.1738C255.514 56.4355 255.215 57.416 254.684 58.1152ZM264.797 52.6602H265.881V59H264.797V54.377L261.873 59H260.789V52.6602H261.873V57.2891L264.797 52.6602ZM271.535 59C271.473 58.875 271.422 58.6523 271.383 58.332C270.879 58.8555 270.277 59.1172 269.578 59.1172C268.953 59.1172 268.439 58.9414 268.037 58.5898C267.639 58.2344 267.439 57.7852 267.439 57.2422C267.439 56.582 267.689 56.0703 268.189 55.707C268.693 55.3398 269.4 55.1562 270.311 55.1562H271.365V54.6582C271.365 54.2793 271.252 53.9785 271.025 53.7559C270.799 53.5293 270.465 53.416 270.023 53.416C269.637 53.416 269.312 53.5137 269.051 53.709C268.789 53.9043 268.658 54.1406 268.658 54.418H267.568C267.568 54.1016 267.68 53.7969 267.902 53.5039C268.129 53.207 268.434 52.9727 268.816 52.8008C269.203 52.6289 269.627 52.543 270.088 52.543C270.818 52.543 271.391 52.7266 271.805 53.0938C272.219 53.457 272.434 53.959 272.449 54.5996V57.5176C272.449 58.0996 272.523 58.5625 272.672 58.9062V59H271.535ZM269.736 58.1738C270.076 58.1738 270.398 58.0859 270.703 57.9102C271.008 57.7344 271.229 57.5059 271.365 57.2246V55.9238H270.516C269.188 55.9238 268.523 56.3125 268.523 57.0898C268.523 57.4297 268.637 57.6953 268.863 57.8867C269.09 58.0781 269.381 58.1738 269.736 58.1738ZM277.799 57.5645L279.955 52.6602H281.309V59H280.225V54.3887L278.174 59H277.424L275.332 54.2891V59H274.248V52.6602H275.654L277.799 57.5645ZM285.686 59.1172C284.826 59.1172 284.127 58.8359 283.588 58.2734C283.049 57.707 282.779 56.9512 282.779 56.0059V55.8066C282.779 55.1777 282.898 54.6172 283.137 54.125C283.379 53.6289 283.715 53.2422 284.145 52.9648C284.578 52.6836 285.047 52.543 285.551 52.543C286.375 52.543 287.016 52.8145 287.473 53.3574C287.93 53.9004 288.158 54.6777 288.158 55.6895V56.1406H283.863C283.879 56.7656 284.061 57.2715 284.408 57.6582C284.76 58.041 285.205 58.2324 285.744 58.2324C286.127 58.2324 286.451 58.1543 286.717 57.998C286.982 57.8418 287.215 57.6348 287.414 57.377L288.076 57.8926C287.545 58.709 286.748 59.1172 285.686 59.1172ZM285.551 53.4336C285.113 53.4336 284.746 53.5938 284.449 53.9141C284.152 54.2305 283.969 54.6758 283.898 55.25H287.074V55.168C287.043 54.6172 286.895 54.1914 286.629 53.8906C286.363 53.5859 286.004 53.4336 285.551 53.4336ZM294.059 53.5391H291.932V59H290.848V53.5391H288.762V52.6602H294.059V53.5391ZM300.469 55.9004C300.469 56.8652 300.248 57.6426 299.807 58.2324C299.365 58.8223 298.768 59.1172 298.014 59.1172C297.244 59.1172 296.639 58.873 296.197 58.3848V61.4375H295.113V52.6602H296.104L296.156 53.3633C296.598 52.8164 297.211 52.543 297.996 52.543C298.758 52.543 299.359 52.8301 299.801 53.4043C300.246 53.9785 300.469 54.7773 300.469 55.8008V55.9004ZM299.385 55.7773C299.385 55.0625 299.232 54.498 298.928 54.084C298.623 53.6699 298.205 53.4629 297.674 53.4629C297.018 53.4629 296.525 53.7539 296.197 54.3359V57.3652C296.521 57.9434 297.018 58.2324 297.686 58.2324C298.205 58.2324 298.617 58.0273 298.922 57.6172C299.23 57.2031 299.385 56.5898 299.385 55.7773ZM301.816 60.6992L301.201 60.2773C301.568 59.7656 301.76 59.2383 301.775 58.6953V57.7168H302.836V58.5664C302.836 58.9609 302.738 59.3555 302.543 59.75C302.352 60.1445 302.109 60.4609 301.816 60.6992ZM310.834 57.5645L312.99 52.6602H314.344V59H313.26V54.3887L311.209 59H310.459L308.367 54.2891V59H307.283V52.6602H308.689L310.834 57.5645ZM319.74 57.5645L321.896 52.6602H323.25V59H322.166V54.3887L320.115 59H319.365L317.273 54.2891V59H316.189V52.6602H317.596L319.74 57.5645Z" fill="white"/>
<path d="M190.266 104.293C190.16 105.195 189.826 105.893 189.264 106.385C188.705 106.873 187.961 107.117 187.031 107.117C186.023 107.117 185.215 106.756 184.605 106.033C184 105.311 183.697 104.344 183.697 103.133V102.312C183.697 101.52 183.838 100.822 184.119 100.221C184.404 99.6191 184.807 99.1582 185.326 98.8379C185.846 98.5137 186.447 98.3516 187.131 98.3516C188.037 98.3516 188.764 98.6055 189.311 99.1133C189.857 99.6172 190.176 100.316 190.266 101.211H189.135C189.037 100.531 188.824 100.039 188.496 99.7344C188.172 99.4297 187.717 99.2773 187.131 99.2773C186.412 99.2773 185.848 99.543 185.438 100.074C185.031 100.605 184.828 101.361 184.828 102.342V103.168C184.828 104.094 185.021 104.83 185.408 105.377C185.795 105.924 186.336 106.197 187.031 106.197C187.656 106.197 188.135 106.057 188.467 105.775C188.803 105.49 189.025 104.996 189.135 104.293H190.266ZM194.268 107.117C193.408 107.117 192.709 106.836 192.17 106.273C191.631 105.707 191.361 104.951 191.361 104.006V103.807C191.361 103.178 191.48 102.617 191.719 102.125C191.961 101.629 192.297 101.242 192.727 100.965C193.16 100.684 193.629 100.543 194.133 100.543C194.957 100.543 195.598 100.814 196.055 101.357C196.512 101.9 196.74 102.678 196.74 103.689V104.141H192.445C192.461 104.766 192.643 105.271 192.99 105.658C193.342 106.041 193.787 106.232 194.326 106.232C194.709 106.232 195.033 106.154 195.299 105.998C195.564 105.842 195.797 105.635 195.996 105.377L196.658 105.893C196.127 106.709 195.33 107.117 194.268 107.117ZM194.133 101.434C193.695 101.434 193.328 101.594 193.031 101.914C192.734 102.23 192.551 102.676 192.48 103.25H195.656V103.168C195.625 102.617 195.477 102.191 195.211 101.891C194.945 101.586 194.586 101.434 194.133 101.434ZM202.787 107H201.697V104.703C201.221 104.828 200.732 104.891 200.232 104.891C199.439 104.891 198.834 104.688 198.416 104.281C198.002 103.875 197.791 103.297 197.783 102.547V100.654H198.867V102.582C198.887 103.527 199.342 104 200.232 104C200.732 104 201.221 103.938 201.697 103.812V100.66H202.787V107ZM207.158 107.117C206.299 107.117 205.6 106.836 205.061 106.273C204.521 105.707 204.252 104.951 204.252 104.006V103.807C204.252 103.178 204.371 102.617 204.609 102.125C204.852 101.629 205.188 101.242 205.617 100.965C206.051 100.684 206.52 100.543 207.023 100.543C207.848 100.543 208.488 100.814 208.945 101.357C209.402 101.9 209.631 102.678 209.631 103.689V104.141H205.336C205.352 104.766 205.533 105.271 205.881 105.658C206.232 106.041 206.678 106.232 207.217 106.232C207.6 106.232 207.924 106.154 208.189 105.998C208.455 105.842 208.688 105.635 208.887 105.377L209.549 105.893C209.018 106.709 208.221 107.117 207.158 107.117ZM207.023 101.434C206.586 101.434 206.219 101.594 205.922 101.914C205.625 102.23 205.441 102.676 205.371 103.25H208.547V103.168C208.516 102.617 208.367 102.191 208.102 101.891C207.836 101.586 207.477 101.434 207.023 101.434ZM216.07 107H214.986V104.293H212.074V107H210.984V100.66H212.074V103.408H214.986V100.66H216.07V107ZM221.918 100.66H223.002V107H221.918V102.377L218.994 107H217.91V100.66H218.994V105.289L221.918 100.66ZM227.373 107.117C226.514 107.117 225.814 106.836 225.275 106.273C224.736 105.707 224.467 104.951 224.467 104.006V103.807C224.467 103.178 224.586 102.617 224.824 102.125C225.066 101.629 225.402 101.242 225.832 100.965C226.266 100.684 226.734 100.543 227.238 100.543C228.062 100.543 228.703 100.814 229.16 101.357C229.617 101.9 229.846 102.678 229.846 103.689V104.141H225.551C225.566 104.766 225.748 105.271 226.096 105.658C226.447 106.041 226.893 106.232 227.432 106.232C227.814 106.232 228.139 106.154 228.404 105.998C228.67 105.842 228.902 105.635 229.102 105.377L229.764 105.893C229.232 106.709 228.436 107.117 227.373 107.117ZM227.238 101.434C226.801 101.434 226.434 101.594 226.137 101.914C225.84 102.23 225.656 102.676 225.586 103.25H228.762V103.168C228.73 102.617 228.582 102.191 228.316 101.891C228.051 101.586 227.691 101.434 227.238 101.434ZM239.268 107H238.184V101.557H235.266V107H234.176V100.66H239.268V107ZM240.721 103.771C240.721 103.15 240.842 102.592 241.084 102.096C241.33 101.6 241.67 101.217 242.104 100.947C242.541 100.678 243.039 100.543 243.598 100.543C244.461 100.543 245.158 100.842 245.689 101.439C246.225 102.037 246.492 102.832 246.492 103.824V103.9C246.492 104.518 246.373 105.072 246.135 105.564C245.9 106.053 245.562 106.434 245.121 106.707C244.684 106.98 244.18 107.117 243.609 107.117C242.75 107.117 242.053 106.818 241.518 106.221C240.986 105.623 240.721 104.832 240.721 103.848V103.771ZM241.811 103.9C241.811 104.604 241.973 105.168 242.297 105.594C242.625 106.02 243.062 106.232 243.609 106.232C244.16 106.232 244.598 106.018 244.922 105.588C245.246 105.154 245.408 104.549 245.408 103.771C245.408 103.076 245.242 102.514 244.91 102.084C244.582 101.65 244.145 101.434 243.598 101.434C243.062 101.434 242.631 101.646 242.303 102.072C241.975 102.498 241.811 103.107 241.811 103.9ZM247.377 106.115L247.752 105.652C248.174 105.105 248.414 104.285 248.473 103.191L248.572 100.66H252.656V106.115H253.471V108.863H252.387V107H247.963V108.863H246.879L246.885 106.115H247.377ZM248.66 106.115H251.572V101.662H249.621L249.557 103.174C249.49 104.436 249.191 105.416 248.66 106.115ZM256.646 104.299H255.855V107H254.766V100.66H255.855V103.344H256.564L258.697 100.66H260.01L257.502 103.707L260.221 107H258.844L256.646 104.299ZM266.35 100.66V107H265.26V101.557H263.104L262.975 103.93C262.904 105.02 262.721 105.799 262.424 106.268C262.131 106.736 261.664 106.98 261.023 107H260.59V106.045L260.9 106.021C261.252 105.982 261.504 105.779 261.656 105.412C261.809 105.045 261.906 104.365 261.949 103.373L262.066 100.66H266.35ZM269.273 103.35H270.797C270.879 102.506 271.178 101.828 271.693 101.316C272.213 100.801 272.867 100.543 273.656 100.543C274.484 100.543 275.162 100.822 275.689 101.381C276.217 101.939 276.502 102.666 276.545 103.561L276.551 103.9C276.551 104.518 276.43 105.074 276.188 105.57C275.945 106.066 275.605 106.449 275.168 106.719C274.73 106.984 274.23 107.117 273.668 107.117C272.852 107.117 272.184 106.852 271.664 106.32C271.145 105.785 270.854 105.092 270.791 104.24H269.273V107H268.189V100.66H269.273V103.35ZM271.863 103.9C271.863 104.604 272.025 105.168 272.35 105.594C272.678 106.02 273.117 106.232 273.668 106.232C274.219 106.232 274.654 106.016 274.975 105.582C275.299 105.148 275.461 104.545 275.461 103.771C275.461 103.08 275.297 102.518 274.969 102.084C274.641 101.65 274.203 101.434 273.656 101.434C273.117 101.434 272.684 101.646 272.355 102.072C272.027 102.498 271.863 103.107 271.863 103.9ZM282.674 107H281.584V104.703C281.107 104.828 280.619 104.891 280.119 104.891C279.326 104.891 278.721 104.688 278.303 104.281C277.889 103.875 277.678 103.297 277.67 102.547V100.654H278.754V102.582C278.773 103.527 279.229 104 280.119 104C280.619 104 281.107 103.938 281.584 103.812V100.66H282.674V107ZM288.328 107C288.266 106.875 288.215 106.652 288.176 106.332C287.672 106.855 287.07 107.117 286.371 107.117C285.746 107.117 285.232 106.941 284.83 106.59C284.432 106.234 284.232 105.785 284.232 105.242C284.232 104.582 284.482 104.07 284.982 103.707C285.486 103.34 286.193 103.156 287.104 103.156H288.158V102.658C288.158 102.279 288.045 101.979 287.818 101.756C287.592 101.529 287.258 101.416 286.816 101.416C286.43 101.416 286.105 101.514 285.844 101.709C285.582 101.904 285.451 102.141 285.451 102.418H284.361C284.361 102.102 284.473 101.797 284.695 101.504C284.922 101.207 285.227 100.973 285.609 100.801C285.996 100.629 286.42 100.543 286.881 100.543C287.611 100.543 288.184 100.727 288.598 101.094C289.012 101.457 289.227 101.959 289.242 102.6V105.518C289.242 106.1 289.316 106.562 289.465 106.906V107H288.328ZM286.529 106.174C286.869 106.174 287.191 106.086 287.496 105.91C287.801 105.734 288.021 105.506 288.158 105.225V103.924H287.309C285.98 103.924 285.316 104.312 285.316 105.09C285.316 105.43 285.43 105.695 285.656 105.887C285.883 106.078 286.174 106.174 286.529 106.174ZM293.572 107.117C292.713 107.117 292.014 106.836 291.475 106.273C290.936 105.707 290.666 104.951 290.666 104.006V103.807C290.666 103.178 290.785 102.617 291.023 102.125C291.266 101.629 291.602 101.242 292.031 100.965C292.465 100.684 292.934 100.543 293.438 100.543C294.262 100.543 294.902 100.814 295.359 101.357C295.816 101.9 296.045 102.678 296.045 103.689V104.141H291.75C291.766 104.766 291.947 105.271 292.295 105.658C292.646 106.041 293.092 106.232 293.631 106.232C294.014 106.232 294.338 106.154 294.604 105.998C294.869 105.842 295.102 105.635 295.301 105.377L295.963 105.893C295.432 106.709 294.635 107.117 293.572 107.117ZM293.438 101.434C293 101.434 292.633 101.594 292.336 101.914C292.039 102.23 291.855 102.676 291.785 103.25H294.961V103.168C294.93 102.617 294.781 102.191 294.516 101.891C294.25 101.586 293.891 101.434 293.438 101.434ZM300.955 105.564L303.111 100.66H304.465V107H303.381V102.389L301.33 107H300.58L298.488 102.289V107H297.404V100.66H298.811L300.955 105.564ZM305.924 103.771C305.924 103.15 306.045 102.592 306.287 102.096C306.533 101.6 306.873 101.217 307.307 100.947C307.744 100.678 308.242 100.543 308.801 100.543C309.664 100.543 310.361 100.842 310.893 101.439C311.428 102.037 311.695 102.832 311.695 103.824V103.9C311.695 104.518 311.576 105.072 311.338 105.564C311.104 106.053 310.766 106.434 310.324 106.707C309.887 106.98 309.383 107.117 308.812 107.117C307.953 107.117 307.256 106.818 306.721 106.221C306.189 105.623 305.924 104.832 305.924 103.848V103.771ZM307.014 103.9C307.014 104.604 307.176 105.168 307.5 105.594C307.828 106.02 308.266 106.232 308.812 106.232C309.363 106.232 309.801 106.018 310.125 105.588C310.449 105.154 310.611 104.549 310.611 103.771C310.611 103.076 310.445 102.514 310.113 102.084C309.785 101.65 309.348 101.434 308.801 101.434C308.266 101.434 307.834 101.646 307.506 102.072C307.178 102.498 307.014 103.107 307.014 103.9ZM317.15 101.557H314.227V107H313.137V100.66H317.15V101.557ZM317.689 103.771C317.689 103.15 317.811 102.592 318.053 102.096C318.299 101.6 318.639 101.217 319.072 100.947C319.51 100.678 320.008 100.543 320.566 100.543C321.43 100.543 322.127 100.842 322.658 101.439C323.193 102.037 323.461 102.832 323.461 103.824V103.9C323.461 104.518 323.342 105.072 323.104 105.564C322.869 106.053 322.531 106.434 322.09 106.707C321.652 106.98 321.148 107.117 320.578 107.117C319.719 107.117 319.021 106.818 318.486 106.221C317.955 105.623 317.689 104.832 317.689 103.848V103.771ZM318.779 103.9C318.779 104.604 318.941 105.168 319.266 105.594C319.594 106.02 320.031 106.232 320.578 106.232C321.129 106.232 321.566 106.018 321.891 105.588C322.215 105.154 322.377 104.549 322.377 103.771C322.377 103.076 322.211 102.514 321.879 102.084C321.551 101.65 321.113 101.434 320.566 101.434C320.031 101.434 319.6 101.646 319.271 102.072C318.943 102.498 318.779 103.107 318.779 103.9ZM189.006 124H187.922V118.557H185.004V124H183.914V117.66H189.006V124ZM196.102 120.9C196.102 121.865 195.881 122.643 195.439 123.232C194.998 123.822 194.4 124.117 193.646 124.117C192.877 124.117 192.271 123.873 191.83 123.385V126.438H190.746V117.66H191.736L191.789 118.363C192.23 117.816 192.844 117.543 193.629 117.543C194.391 117.543 194.992 117.83 195.434 118.404C195.879 118.979 196.102 119.777 196.102 120.801V120.9ZM195.018 120.777C195.018 120.062 194.865 119.498 194.561 119.084C194.256 118.67 193.838 118.463 193.307 118.463C192.65 118.463 192.158 118.754 191.83 119.336V122.365C192.154 122.943 192.65 123.232 193.318 123.232C193.838 123.232 194.25 123.027 194.555 122.617C194.863 122.203 195.018 121.59 195.018 120.777ZM197.197 120.771C197.197 120.15 197.318 119.592 197.561 119.096C197.807 118.6 198.146 118.217 198.58 117.947C199.018 117.678 199.516 117.543 200.074 117.543C200.938 117.543 201.635 117.842 202.166 118.439C202.701 119.037 202.969 119.832 202.969 120.824V120.9C202.969 121.518 202.85 122.072 202.611 122.564C202.377 123.053 202.039 123.434 201.598 123.707C201.16 123.98 200.656 124.117 200.086 124.117C199.227 124.117 198.529 123.818 197.994 123.221C197.463 122.623 197.197 121.832 197.197 120.848V120.771ZM198.287 120.9C198.287 121.604 198.449 122.168 198.773 122.594C199.102 123.02 199.539 123.232 200.086 123.232C200.637 123.232 201.074 123.018 201.398 122.588C201.723 122.154 201.885 121.549 201.885 120.771C201.885 120.076 201.719 119.514 201.387 119.084C201.059 118.65 200.621 118.434 200.074 118.434C199.539 118.434 199.107 118.646 198.779 119.072C198.451 119.498 198.287 120.107 198.287 120.9ZM204.428 124V117.66H206.9C207.744 117.66 208.391 117.809 208.84 118.105C209.293 118.398 209.52 118.83 209.52 119.4C209.52 119.693 209.432 119.959 209.256 120.197C209.08 120.432 208.82 120.611 208.477 120.736C208.859 120.826 209.166 121.002 209.396 121.264C209.631 121.525 209.748 121.838 209.748 122.201C209.748 122.783 209.533 123.229 209.104 123.537C208.678 123.846 208.074 124 207.293 124H204.428ZM205.512 121.217V123.127H207.305C207.758 123.127 208.096 123.043 208.318 122.875C208.545 122.707 208.658 122.471 208.658 122.166C208.658 121.533 208.193 121.217 207.264 121.217H205.512ZM205.512 120.35H206.912C207.928 120.35 208.436 120.053 208.436 119.459C208.436 118.865 207.955 118.559 206.994 118.539H205.512V120.35ZM210.896 120.771C210.896 120.15 211.018 119.592 211.26 119.096C211.506 118.6 211.846 118.217 212.279 117.947C212.717 117.678 213.215 117.543 213.773 117.543C214.637 117.543 215.334 117.842 215.865 118.439C216.4 119.037 216.668 119.832 216.668 120.824V120.9C216.668 121.518 216.549 122.072 216.311 122.564C216.076 123.053 215.738 123.434 215.297 123.707C214.859 123.98 214.355 124.117 213.785 124.117C212.926 124.117 212.229 123.818 211.693 123.221C211.162 122.623 210.896 121.832 210.896 120.848V120.771ZM211.986 120.9C211.986 121.604 212.148 122.168 212.473 122.594C212.801 123.02 213.238 123.232 213.785 123.232C214.336 123.232 214.773 123.018 215.098 122.588C215.422 122.154 215.584 121.549 215.584 120.771C215.584 120.076 215.418 119.514 215.086 119.084C214.758 118.65 214.32 118.434 213.773 118.434C213.238 118.434 212.807 118.646 212.479 119.072C212.15 119.498 211.986 120.107 211.986 120.9ZM217.553 123.115L217.928 122.652C218.35 122.105 218.59 121.285 218.648 120.191L218.748 117.66H222.832V123.115H223.646V125.863H222.562V124H218.139V125.863H217.055L217.061 123.115H217.553ZM218.836 123.115H221.748V118.662H219.797L219.732 120.174C219.666 121.436 219.367 122.416 218.836 123.115ZM230.027 124H228.943V121.293H226.031V124H224.941V117.66H226.031V120.408H228.943V117.66H230.027V124ZM235.875 117.66H236.959V124H235.875V119.377L232.951 124H231.867V117.66H232.951V122.289L235.875 117.66ZM240.674 121.299H239.883V124H238.793V117.66H239.883V120.344H240.592L242.725 117.66H244.037L241.529 120.707L244.248 124H242.871L240.674 121.299ZM249.094 124C249.031 123.875 248.98 123.652 248.941 123.332C248.438 123.855 247.836 124.117 247.137 124.117C246.512 124.117 245.998 123.941 245.596 123.59C245.197 123.234 244.998 122.785 244.998 122.242C244.998 121.582 245.248 121.07 245.748 120.707C246.252 120.34 246.959 120.156 247.869 120.156H248.924V119.658C248.924 119.279 248.811 118.979 248.584 118.756C248.357 118.529 248.023 118.416 247.582 118.416C247.195 118.416 246.871 118.514 246.609 118.709C246.348 118.904 246.217 119.141 246.217 119.418H245.127C245.127 119.102 245.238 118.797 245.461 118.504C245.688 118.207 245.992 117.973 246.375 117.801C246.762 117.629 247.186 117.543 247.646 117.543C248.377 117.543 248.949 117.727 249.363 118.094C249.777 118.457 249.992 118.959 250.008 119.6V122.518C250.008 123.1 250.082 123.562 250.23 123.906V124H249.094ZM247.295 123.174C247.635 123.174 247.957 123.086 248.262 122.91C248.566 122.734 248.787 122.506 248.924 122.225V120.924H248.074C246.746 120.924 246.082 121.312 246.082 122.09C246.082 122.43 246.195 122.695 246.422 122.887C246.648 123.078 246.939 123.174 247.295 123.174ZM251.672 125.699L251.057 125.277C251.424 124.766 251.615 124.238 251.631 123.695V122.717H252.691V123.566C252.691 123.961 252.594 124.355 252.398 124.75C252.207 125.145 251.965 125.461 251.672 125.699ZM260.689 122.564L262.846 117.66H264.199V124H263.115V119.389L261.064 124H260.314L258.223 119.289V124H257.139V117.66H258.545L260.689 122.564ZM269.596 122.564L271.752 117.66H273.105V124H272.021V119.389L269.971 124H269.221L267.129 119.289V124H266.045V117.66H267.451L269.596 122.564ZM278.033 120.092H274.523V119.459L276.281 117.807C276.707 117.408 276.92 117.074 276.92 116.805C276.92 116.613 276.857 116.459 276.732 116.342C276.607 116.221 276.428 116.16 276.193 116.16C275.9 116.16 275.684 116.234 275.543 116.383C275.406 116.531 275.338 116.717 275.338 116.939H274.418C274.418 116.494 274.58 116.127 274.904 115.838C275.232 115.549 275.654 115.404 276.17 115.404C276.686 115.404 277.094 115.529 277.395 115.779C277.695 116.025 277.846 116.363 277.846 116.793C277.846 117.199 277.637 117.611 277.219 118.029L276.727 118.492L275.695 119.342H278.033V120.092Z" fill="white"/>
<path d="M189.885 146.395H187.143V154H186.023V146.395H183.287V145.469H189.885V146.395ZM194.438 147.66H195.521V154H194.438V149.377L191.514 154H190.43V147.66H191.514V152.289L194.438 147.66ZM202.447 154H201.363V148.557H198.445V154H197.355V147.66H202.447V154ZM211.26 148.557H208.336V154H207.246V147.66H211.26V148.557ZM216.305 147.66H217.389V154H216.305V149.377L213.381 154H212.297V147.66H213.381V152.289L216.305 147.66ZM224.326 147.66V154H223.236V148.557H221.08L220.951 150.93C220.881 152.02 220.697 152.799 220.4 153.268C220.107 153.736 219.641 153.98 219 154H218.566V153.045L218.877 153.021C219.229 152.982 219.48 152.779 219.633 152.412C219.785 152.045 219.883 151.365 219.926 150.373L220.043 147.66H224.326ZM227.25 149.846H228.896C229.615 149.854 230.184 150.041 230.602 150.408C231.02 150.775 231.229 151.273 231.229 151.902C231.229 152.535 231.014 153.043 230.584 153.426C230.154 153.809 229.576 154 228.85 154H226.166V147.66H227.25V149.846ZM227.25 150.73V153.115H228.861C229.268 153.115 229.582 153.012 229.805 152.805C230.027 152.594 230.139 152.307 230.139 151.943C230.139 151.592 230.029 151.305 229.811 151.082C229.596 150.855 229.293 150.738 228.902 150.73H227.25ZM236.068 149.395C236.068 149.098 235.955 148.863 235.729 148.691C235.502 148.516 235.191 148.428 234.797 148.428C234.414 148.428 234.094 148.527 233.836 148.727C233.582 148.926 233.455 149.16 233.455 149.43H232.377C232.377 148.879 232.607 148.428 233.068 148.076C233.529 147.725 234.105 147.549 234.797 147.549C235.539 147.549 236.117 147.709 236.531 148.029C236.945 148.346 237.152 148.799 237.152 149.389C237.152 149.674 237.066 149.936 236.895 150.174C236.723 150.412 236.479 150.602 236.162 150.742C236.9 150.992 237.27 151.484 237.27 152.219C237.27 152.801 237.045 153.262 236.596 153.602C236.146 153.941 235.547 154.111 234.797 154.111C234.066 154.111 233.463 153.934 232.986 153.578C232.514 153.219 232.277 152.734 232.277 152.125H233.355C233.355 152.434 233.492 152.699 233.766 152.922C234.043 153.141 234.387 153.25 234.797 153.25C235.211 153.25 235.545 153.154 235.799 152.963C236.053 152.771 236.18 152.523 236.18 152.219C236.18 151.863 236.072 151.609 235.857 151.457C235.646 151.301 235.316 151.223 234.867 151.223H233.783V150.309H234.961C235.699 150.289 236.068 149.984 236.068 149.395ZM239.859 149.846H241.506C242.225 149.854 242.793 150.041 243.211 150.408C243.629 150.775 243.838 151.273 243.838 151.902C243.838 152.535 243.623 153.043 243.193 153.426C242.764 153.809 242.186 154 241.459 154H238.775V147.66H239.859V149.846ZM246.1 154H245.01V147.66H246.1V154ZM239.859 150.73V153.115H241.471C241.877 153.115 242.191 153.012 242.414 152.805C242.637 152.594 242.748 152.307 242.748 151.943C242.748 151.592 242.639 151.305 242.42 151.082C242.205 150.855 241.902 150.738 241.512 150.73H239.859ZM250.928 150.537C250.928 149.654 251.045 148.807 251.279 147.994C251.518 147.182 251.871 146.443 252.34 145.779C252.809 145.115 253.295 144.646 253.799 144.373L254.021 145.088C253.451 145.525 252.982 146.193 252.615 147.092C252.252 147.99 252.053 148.996 252.018 150.109L252.012 150.607C252.012 152.115 252.287 153.424 252.838 154.533C253.17 155.197 253.564 155.717 254.021 156.092L253.799 156.754C253.279 156.465 252.783 155.98 252.311 155.301C251.389 153.973 250.928 152.385 250.928 150.537ZM255.17 154V147.66H257.643C258.486 147.66 259.133 147.809 259.582 148.105C260.035 148.398 260.262 148.83 260.262 149.4C260.262 149.693 260.174 149.959 259.998 150.197C259.822 150.432 259.562 150.611 259.219 150.736C259.602 150.826 259.908 151.002 260.139 151.264C260.373 151.525 260.49 151.838 260.49 152.201C260.49 152.783 260.275 153.229 259.846 153.537C259.42 153.846 258.816 154 258.035 154H255.17ZM256.254 151.217V153.127H258.047C258.5 153.127 258.838 153.043 259.061 152.875C259.287 152.707 259.4 152.471 259.4 152.166C259.4 151.533 258.936 151.217 258.006 151.217H256.254ZM256.254 150.35H257.654C258.67 150.35 259.178 150.053 259.178 149.459C259.178 148.865 258.697 148.559 257.736 148.539H256.254V150.35ZM264.85 153.115L265.225 152.652C265.646 152.105 265.887 151.285 265.945 150.191L266.045 147.66H270.129V153.115H270.943V155.863H269.859V154H265.436V155.863H264.352L264.357 153.115H264.85ZM266.133 153.115H269.045V148.662H267.094L267.029 150.174C266.963 151.436 266.664 152.416 266.133 153.115ZM276.059 154C275.996 153.875 275.945 153.652 275.906 153.332C275.402 153.855 274.801 154.117 274.102 154.117C273.477 154.117 272.963 153.941 272.561 153.59C272.162 153.234 271.963 152.785 271.963 152.242C271.963 151.582 272.213 151.07 272.713 150.707C273.217 150.34 273.924 150.156 274.834 150.156H275.889V149.658C275.889 149.279 275.775 148.979 275.549 148.756C275.322 148.529 274.988 148.416 274.547 148.416C274.16 148.416 273.836 148.514 273.574 148.709C273.312 148.904 273.182 149.141 273.182 149.418H272.092C272.092 149.102 272.203 148.797 272.426 148.504C272.652 148.207 272.957 147.973 273.34 147.801C273.727 147.629 274.15 147.543 274.611 147.543C275.342 147.543 275.914 147.727 276.328 148.094C276.742 148.457 276.957 148.959 276.973 149.6V152.518C276.973 153.1 277.047 153.562 277.195 153.906V154H276.059ZM274.26 153.174C274.6 153.174 274.922 153.086 275.227 152.91C275.531 152.734 275.752 152.506 275.889 152.225V150.924H275.039C273.711 150.924 273.047 151.312 273.047 152.09C273.047 152.43 273.16 152.695 273.387 152.887C273.613 153.078 273.904 153.174 274.26 153.174ZM283.852 154H282.768V151.293H279.855V154H278.766V147.66H279.855V150.408H282.768V147.66H283.852V154ZM290.777 154H289.693V151.293H286.781V154H285.691V147.66H286.781V150.408H289.693V147.66H290.777V154ZM292.236 150.771C292.236 150.15 292.357 149.592 292.6 149.096C292.846 148.6 293.186 148.217 293.619 147.947C294.057 147.678 294.555 147.543 295.113 147.543C295.977 147.543 296.674 147.842 297.205 148.439C297.74 149.037 298.008 149.832 298.008 150.824V150.9C298.008 151.518 297.889 152.072 297.65 152.564C297.416 153.053 297.078 153.434 296.637 153.707C296.199 153.98 295.695 154.117 295.125 154.117C294.266 154.117 293.568 153.818 293.033 153.221C292.502 152.623 292.236 151.832 292.236 150.848V150.771ZM293.326 150.9C293.326 151.604 293.488 152.168 293.812 152.594C294.141 153.02 294.578 153.232 295.125 153.232C295.676 153.232 296.113 153.018 296.438 152.588C296.762 152.154 296.924 151.549 296.924 150.771C296.924 150.076 296.758 149.514 296.426 149.084C296.098 148.65 295.66 148.434 295.113 148.434C294.578 148.434 294.146 148.646 293.818 149.072C293.49 149.498 293.326 150.107 293.326 150.9ZM303.018 152.564L305.174 147.66H306.527V154H305.443V149.389L303.393 154H302.643L300.551 149.289V154H299.467V147.66H300.873L303.018 152.564ZM313.793 153.232C314.18 153.232 314.518 153.115 314.807 152.881C315.096 152.646 315.256 152.354 315.287 152.002H316.312C316.293 152.365 316.168 152.711 315.938 153.039C315.707 153.367 315.398 153.629 315.012 153.824C314.629 154.02 314.223 154.117 313.793 154.117C312.93 154.117 312.242 153.83 311.73 153.256C311.223 152.678 310.969 151.889 310.969 150.889V150.707C310.969 150.09 311.082 149.541 311.309 149.061C311.535 148.58 311.859 148.207 312.281 147.941C312.707 147.676 313.209 147.543 313.787 147.543C314.498 147.543 315.088 147.756 315.557 148.182C316.029 148.607 316.281 149.16 316.312 149.84H315.287C315.256 149.43 315.1 149.094 314.818 148.832C314.541 148.566 314.197 148.434 313.787 148.434C313.236 148.434 312.809 148.633 312.504 149.031C312.203 149.426 312.053 149.998 312.053 150.748V150.953C312.053 151.684 312.203 152.246 312.504 152.641C312.805 153.035 313.234 153.232 313.793 153.232ZM322.729 147.66V154H321.639V148.557H319.482L319.354 150.93C319.283 152.02 319.1 152.799 318.803 153.268C318.51 153.736 318.043 153.98 317.402 154H316.969V153.045L317.279 153.021C317.631 152.982 317.883 152.779 318.035 152.412C318.188 152.045 318.285 151.365 318.328 150.373L318.445 147.66H322.729ZM326.543 152.412L328.02 147.66H329.18L326.631 154.979C326.236 156.033 325.609 156.561 324.75 156.561L324.545 156.543L324.141 156.467V155.588L324.434 155.611C324.801 155.611 325.086 155.537 325.289 155.389C325.496 155.24 325.666 154.969 325.799 154.574L326.039 153.93L323.777 147.66H324.961L326.543 152.412ZM334.939 154H333.85V151.703C333.373 151.828 332.885 151.891 332.385 151.891C331.592 151.891 330.986 151.688 330.568 151.281C330.154 150.875 329.943 150.297 329.936 149.547V147.654H331.02V149.582C331.039 150.527 331.494 151 332.385 151C332.885 151 333.373 150.938 333.85 150.812V147.66H334.939V154ZM340.594 154C340.531 153.875 340.48 153.652 340.441 153.332C339.938 153.855 339.336 154.117 338.637 154.117C338.012 154.117 337.498 153.941 337.096 153.59C336.697 153.234 336.498 152.785 336.498 152.242C336.498 151.582 336.748 151.07 337.248 150.707C337.752 150.34 338.459 150.156 339.369 150.156H340.424V149.658C340.424 149.279 340.311 148.979 340.084 148.756C339.857 148.529 339.523 148.416 339.082 148.416C338.695 148.416 338.371 148.514 338.109 148.709C337.848 148.904 337.717 149.141 337.717 149.418H336.627C336.627 149.102 336.738 148.797 336.961 148.504C337.188 148.207 337.492 147.973 337.875 147.801C338.262 147.629 338.686 147.543 339.146 147.543C339.877 147.543 340.449 147.727 340.863 148.094C341.277 148.457 341.492 148.959 341.508 149.6V152.518C341.508 153.1 341.582 153.562 341.73 153.906V154H340.594ZM338.795 153.174C339.135 153.174 339.457 153.086 339.762 152.91C340.066 152.734 340.287 152.506 340.424 152.225V150.924H339.574C338.246 150.924 337.582 151.312 337.582 152.09C337.582 152.43 337.695 152.695 337.922 152.887C338.148 153.078 338.439 153.174 338.795 153.174ZM345.838 154.117C344.979 154.117 344.279 153.836 343.74 153.273C343.201 152.707 342.932 151.951 342.932 151.006V150.807C342.932 150.178 343.051 149.617 343.289 149.125C343.531 148.629 343.867 148.242 344.297 147.965C344.73 147.684 345.199 147.543 345.703 147.543C346.527 147.543 347.168 147.814 347.625 148.357C348.082 148.9 348.311 149.678 348.311 150.689V151.141H344.016C344.031 151.766 344.213 152.271 344.561 152.658C344.912 153.041 345.357 153.232 345.896 153.232C346.279 153.232 346.604 153.154 346.869 152.998C347.135 152.842 347.367 152.635 347.566 152.377L348.229 152.893C347.697 153.709 346.9 154.117 345.838 154.117ZM345.703 148.434C345.266 148.434 344.898 148.594 344.602 148.914C344.305 149.23 344.121 149.676 344.051 150.25H347.227V150.168C347.195 149.617 347.047 149.191 346.781 148.891C346.516 148.586 346.156 148.434 345.703 148.434ZM358.547 150.186H352.676V149.301H358.547V150.186ZM187.916 165.557H184.992V171H183.902V164.66H187.916V165.557ZM192.961 164.66H194.045V171H192.961V166.377L190.037 171H188.953V164.66H190.037V169.289L192.961 164.66ZM200.982 164.66V171H199.893V165.557H197.736L197.607 167.93C197.537 169.02 197.354 169.799 197.057 170.268C196.764 170.736 196.297 170.98 195.656 171H195.223V170.045L195.533 170.021C195.885 169.982 196.137 169.779 196.289 169.412C196.441 169.045 196.539 168.365 196.582 167.373L196.699 164.66H200.982ZM203.906 166.846H205.553C206.271 166.854 206.84 167.041 207.258 167.408C207.676 167.775 207.885 168.273 207.885 168.902C207.885 169.535 207.67 170.043 207.24 170.426C206.811 170.809 206.232 171 205.506 171H202.822V164.66H203.906V166.846ZM203.906 167.73V170.115H205.518C205.924 170.115 206.238 170.012 206.461 169.805C206.684 169.594 206.795 169.307 206.795 168.943C206.795 168.592 206.686 168.305 206.467 168.082C206.252 167.855 205.949 167.738 205.559 167.73H203.906ZM212.725 166.395C212.725 166.098 212.611 165.863 212.385 165.691C212.158 165.516 211.848 165.428 211.453 165.428C211.07 165.428 210.75 165.527 210.492 165.727C210.238 165.926 210.111 166.16 210.111 166.43H209.033C209.033 165.879 209.264 165.428 209.725 165.076C210.186 164.725 210.762 164.549 211.453 164.549C212.195 164.549 212.773 164.709 213.188 165.029C213.602 165.346 213.809 165.799 213.809 166.389C213.809 166.674 213.723 166.936 213.551 167.174C213.379 167.412 213.135 167.602 212.818 167.742C213.557 167.992 213.926 168.484 213.926 169.219C213.926 169.801 213.701 170.262 213.252 170.602C212.803 170.941 212.203 171.111 211.453 171.111C210.723 171.111 210.119 170.934 209.643 170.578C209.17 170.219 208.934 169.734 208.934 169.125H210.012C210.012 169.434 210.148 169.699 210.422 169.922C210.699 170.141 211.043 170.25 211.453 170.25C211.867 170.25 212.201 170.154 212.455 169.963C212.709 169.771 212.836 169.523 212.836 169.219C212.836 168.863 212.729 168.609 212.514 168.457C212.303 168.301 211.973 168.223 211.523 168.223H210.439V167.309H211.617C212.355 167.289 212.725 166.984 212.725 166.395ZM219.246 171C219.184 170.875 219.133 170.652 219.094 170.332C218.59 170.855 217.988 171.117 217.289 171.117C216.664 171.117 216.15 170.941 215.748 170.59C215.35 170.234 215.15 169.785 215.15 169.242C215.15 168.582 215.4 168.07 215.9 167.707C216.404 167.34 217.111 167.156 218.021 167.156H219.076V166.658C219.076 166.279 218.963 165.979 218.736 165.756C218.51 165.529 218.176 165.416 217.734 165.416C217.348 165.416 217.023 165.514 216.762 165.709C216.5 165.904 216.369 166.141 216.369 166.418H215.279C215.279 166.102 215.391 165.797 215.613 165.504C215.84 165.207 216.145 164.973 216.527 164.801C216.914 164.629 217.338 164.543 217.799 164.543C218.529 164.543 219.102 164.727 219.516 165.094C219.93 165.457 220.145 165.959 220.16 166.6V169.518C220.16 170.1 220.234 170.562 220.383 170.906V171H219.246ZM217.447 170.174C217.787 170.174 218.109 170.086 218.414 169.91C218.719 169.734 218.939 169.506 219.076 169.225V167.924H218.227C216.898 167.924 216.234 168.312 216.234 169.09C216.234 169.43 216.348 169.695 216.574 169.887C216.801 170.078 217.092 170.174 217.447 170.174ZM228.75 171C228.688 170.875 228.637 170.652 228.598 170.332C228.094 170.855 227.492 171.117 226.793 171.117C226.168 171.117 225.654 170.941 225.252 170.59C224.854 170.234 224.654 169.785 224.654 169.242C224.654 168.582 224.904 168.07 225.404 167.707C225.908 167.34 226.615 167.156 227.525 167.156H228.58V166.658C228.58 166.279 228.467 165.979 228.24 165.756C228.014 165.529 227.68 165.416 227.238 165.416C226.852 165.416 226.527 165.514 226.266 165.709C226.004 165.904 225.873 166.141 225.873 166.418H224.783C224.783 166.102 224.895 165.797 225.117 165.504C225.344 165.207 225.648 164.973 226.031 164.801C226.418 164.629 226.842 164.543 227.303 164.543C228.033 164.543 228.605 164.727 229.02 165.094C229.434 165.457 229.648 165.959 229.664 166.6V169.518C229.664 170.1 229.738 170.562 229.887 170.906V171H228.75ZM226.951 170.174C227.291 170.174 227.613 170.086 227.918 169.91C228.223 169.734 228.443 169.506 228.58 169.225V167.924H227.73C226.402 167.924 225.738 168.312 225.738 169.09C225.738 169.43 225.852 169.695 226.078 169.887C226.305 170.078 226.596 170.174 226.951 170.174ZM236.561 164.66V171H235.471V165.557H233.314L233.186 167.93C233.115 169.02 232.932 169.799 232.635 170.268C232.342 170.736 231.875 170.98 231.234 171H230.801V170.045L231.111 170.021C231.463 169.982 231.715 169.779 231.867 169.412C232.02 169.045 232.117 168.365 232.16 167.373L232.277 164.66H236.561ZM239.484 167.35H241.008C241.09 166.506 241.389 165.828 241.904 165.316C242.424 164.801 243.078 164.543 243.867 164.543C244.695 164.543 245.373 164.822 245.9 165.381C246.428 165.939 246.713 166.666 246.756 167.561L246.762 167.9C246.762 168.518 246.641 169.074 246.398 169.57C246.156 170.066 245.816 170.449 245.379 170.719C244.941 170.984 244.441 171.117 243.879 171.117C243.062 171.117 242.395 170.852 241.875 170.32C241.355 169.785 241.064 169.092 241.002 168.24H239.484V171H238.4V164.66H239.484V167.35ZM242.074 167.9C242.074 168.604 242.236 169.168 242.561 169.594C242.889 170.02 243.328 170.232 243.879 170.232C244.43 170.232 244.865 170.016 245.186 169.582C245.51 169.148 245.672 168.545 245.672 167.771C245.672 167.08 245.508 166.518 245.18 166.084C244.852 165.65 244.414 165.434 243.867 165.434C243.328 165.434 242.895 165.646 242.566 166.072C242.238 166.498 242.074 167.107 242.074 167.9ZM251.748 169.564L253.904 164.66H255.258V171H254.174V166.389L252.123 171H251.373L249.281 166.289V171H248.197V164.66H249.604L251.748 169.564ZM261.105 164.66H262.189V171H261.105V166.377L258.182 171H257.098V164.66H258.182V169.289L261.105 164.66ZM269.109 171H268.025V168.293H265.113V171H264.023V164.66H265.113V167.408H268.025V164.66H269.109V171ZM274.957 164.66H276.041V171H274.957V166.377L272.033 171H270.949V164.66H272.033V169.289L274.957 164.66ZM280.412 171.117C279.553 171.117 278.854 170.836 278.314 170.273C277.775 169.707 277.506 168.951 277.506 168.006V167.807C277.506 167.178 277.625 166.617 277.863 166.125C278.105 165.629 278.441 165.242 278.871 164.965C279.305 164.684 279.773 164.543 280.277 164.543C281.102 164.543 281.742 164.814 282.199 165.357C282.656 165.9 282.885 166.678 282.885 167.689V168.141H278.59C278.605 168.766 278.787 169.271 279.135 169.658C279.486 170.041 279.932 170.232 280.471 170.232C280.854 170.232 281.178 170.154 281.443 169.998C281.709 169.842 281.941 169.635 282.141 169.377L282.803 169.893C282.271 170.709 281.475 171.117 280.412 171.117ZM280.277 165.434C279.84 165.434 279.473 165.594 279.176 165.914C278.879 166.23 278.695 166.676 278.625 167.25H281.801V167.168C281.77 166.617 281.621 166.191 281.355 165.891C281.09 165.586 280.73 165.434 280.277 165.434ZM284.244 171V164.66H286.717C287.561 164.66 288.207 164.809 288.656 165.105C289.109 165.398 289.336 165.83 289.336 166.4C289.336 166.693 289.248 166.959 289.072 167.197C288.896 167.432 288.637 167.611 288.293 167.736C288.676 167.826 288.982 168.002 289.213 168.264C289.447 168.525 289.564 168.838 289.564 169.201C289.564 169.783 289.35 170.229 288.92 170.537C288.494 170.846 287.891 171 287.109 171H284.244ZM285.328 168.217V170.127H287.121C287.574 170.127 287.912 170.043 288.135 169.875C288.361 169.707 288.475 169.471 288.475 169.166C288.475 168.533 288.01 168.217 287.08 168.217H285.328ZM285.328 167.35H286.729C287.744 167.35 288.252 167.053 288.252 166.459C288.252 165.865 287.771 165.559 286.811 165.539H285.328V167.35ZM294.914 171C294.852 170.875 294.801 170.652 294.762 170.332C294.258 170.855 293.656 171.117 292.957 171.117C292.332 171.117 291.818 170.941 291.416 170.59C291.018 170.234 290.818 169.785 290.818 169.242C290.818 168.582 291.068 168.07 291.568 167.707C292.072 167.34 292.779 167.156 293.689 167.156H294.744V166.658C294.744 166.279 294.631 165.979 294.404 165.756C294.178 165.529 293.844 165.416 293.402 165.416C293.016 165.416 292.691 165.514 292.43 165.709C292.168 165.904 292.037 166.141 292.037 166.418H290.947C290.947 166.102 291.059 165.797 291.281 165.504C291.508 165.207 291.812 164.973 292.195 164.801C292.582 164.629 293.006 164.543 293.467 164.543C294.197 164.543 294.77 164.727 295.184 165.094C295.598 165.457 295.812 165.959 295.828 166.6V169.518C295.828 170.1 295.902 170.562 296.051 170.906V171H294.914ZM293.115 170.174C293.455 170.174 293.777 170.086 294.082 169.91C294.387 169.734 294.607 169.506 294.744 169.225V167.924H293.895C292.566 167.924 291.902 168.312 291.902 169.09C291.902 169.43 292.016 169.695 292.242 169.887C292.469 170.078 292.76 170.174 293.115 170.174ZM302.373 164.66V171H301.283V168.533H299.648L298.154 171H296.982L298.576 168.369C298.17 168.221 297.857 167.992 297.639 167.684C297.424 167.371 297.316 167.008 297.316 166.594C297.316 166.016 297.533 165.551 297.967 165.199C298.4 164.844 298.98 164.664 299.707 164.66H302.373ZM298.406 166.605C298.406 166.914 298.512 167.164 298.723 167.355C298.934 167.543 299.213 167.639 299.561 167.643H301.283V165.539H299.725C299.322 165.539 299.002 165.639 298.764 165.838C298.525 166.033 298.406 166.289 298.406 166.605ZM306.615 167.596C306.615 168.467 306.5 169.303 306.27 170.104C306.043 170.9 305.693 171.637 305.221 172.312C304.752 172.988 304.26 173.469 303.744 173.754L303.516 173.092C304.117 172.631 304.6 171.916 304.963 170.947C305.33 169.975 305.518 168.896 305.525 167.713V167.525C305.525 166.705 305.439 165.943 305.268 165.24C305.096 164.533 304.855 163.9 304.547 163.342C304.242 162.783 303.898 162.348 303.516 162.035L303.744 161.373C304.26 161.658 304.75 162.135 305.215 162.803C305.684 163.471 306.033 164.207 306.264 165.012C306.498 165.816 306.615 166.678 306.615 167.596Z" fill="white"/>
<path d="M10.5957 7.1543H4.21875V19H1.28906V4.78125H10.5957V7.1543ZM18.4375 16.0703H13.3008L12.3242 19H9.20898L14.502 4.78125H17.2168L22.5391 19H19.4238L18.4375 16.0703ZM14.0918 13.6973H17.6465L15.8594 8.375L14.0918 13.6973ZM53.2324 19H43.4863V17.0664L48.0859 12.1641C48.7174 11.474 49.1829 10.8717 49.4824 10.3574C49.7884 9.8431 49.9414 9.35482 49.9414 8.89258C49.9414 8.26107 49.7819 7.76628 49.4629 7.4082C49.1439 7.04362 48.6882 6.86133 48.0957 6.86133C47.4577 6.86133 46.9531 7.08268 46.582 7.52539C46.2174 7.96159 46.0352 8.53776 46.0352 9.25391H43.2031C43.2031 8.38802 43.4082 7.59701 43.8184 6.88086C44.235 6.16471 44.821 5.60482 45.5762 5.20117C46.3314 4.79102 47.1875 4.58594 48.1445 4.58594C49.6094 4.58594 50.7454 4.9375 51.5527 5.64062C52.3665 6.34375 52.7734 7.33659 52.7734 8.61914C52.7734 9.32227 52.5911 10.0384 52.2266 10.7676C51.862 11.4967 51.237 12.3464 50.3516 13.3164L47.1191 16.7246H53.2324V19ZM55.3906 12.0078L56.2109 4.78125H64.1797V7.13477H58.5254L58.1738 10.1914C58.8444 9.83333 59.5573 9.6543 60.3125 9.6543C61.6667 9.6543 62.7279 10.0742 63.4961 10.9141C64.2643 11.7539 64.6484 12.929 64.6484 14.4395C64.6484 15.3574 64.4531 16.181 64.0625 16.9102C63.6784 17.6328 63.125 18.196 62.4023 18.5996C61.6797 18.9967 60.8268 19.1953 59.8438 19.1953C58.9844 19.1953 58.1868 19.0228 57.4512 18.6777C56.7155 18.3262 56.1328 17.8346 55.7031 17.2031C55.2799 16.5716 55.0553 15.8522 55.0293 15.0449H57.8223C57.8809 15.6374 58.0859 16.0996 58.4375 16.4316C58.7956 16.7572 59.2611 16.9199 59.834 16.9199C60.472 16.9199 60.9635 16.6921 61.3086 16.2363C61.6536 15.7741 61.8262 15.123 61.8262 14.2832C61.8262 13.4759 61.6276 12.8574 61.2305 12.4277C60.8333 11.998 60.2702 11.7832 59.541 11.7832C58.8704 11.7832 58.3268 11.959 57.9102 12.3105L57.6367 12.5645L55.3906 12.0078ZM101.025 6.36328L95.5273 19H92.5488L98.0566 7.06641H90.9863V4.78125H101.025V6.36328Z" fill="white"/>
<path d="M96 38V54H167" stroke="white"/>
<path d="M54 38V102H167" stroke="white"/>
<path d="M11 38V150H167" stroke="white"/>
<circle cx="167" cy="54" r="4" fill="white"/>
<circle cx="167" cy="102" r="4" fill="white"/>
<circle cx="167" cy="150" r="4" fill="white"/>
<circle cx="11" cy="38" r="4" fill="white"/>
<circle cx="54" cy="38" r="4" fill="white"/>
<circle cx="96" cy="38" r="4" fill="white"/>
</svg>
