<?xml version="1.0" encoding="UTF-8"?>
<svg width="360" height="175" fill="none" version="1.1" viewBox="0 0 360 175" xmlns="http://www.w3.org/2000/svg"><path d="m4.1894 4.7812v11.865h3.9453v-11.865h2.9394v11.865h3.9063v-11.865h2.9297v14.219h-16.66v-14.219zm24.463 11.289h-5.1367l-0.9765 2.9297h-3.1153l5.293-14.219h2.7148l5.3223 14.219h-3.1152zm-4.3457-2.373h3.5547l-1.7871-5.3223zm13.604-8.916 3.6523 10.313 3.6328-10.313h3.8477v14.219h-2.9395v-3.8867l0.293-6.709-3.8379 10.596h-2.0117l-3.8281-10.586 0.2929 6.6992v3.8867h-2.9297v-14.219zm33.096 14.219h-9.7461v-1.9336l4.5996-4.9023c0.6315-0.6901 1.097-1.2924 1.3965-1.8067 0.3059-0.5143 0.4589-1.0026 0.4589-1.4648 0-0.63151-0.1595-1.1263-0.4785-1.4844-0.319-0.36458-0.7747-0.54687-1.3672-0.54687-0.638 0-1.1425 0.22135-1.5136 0.66406-0.3646 0.4362-0.5469 1.0124-0.5469 1.7285h-2.832c0-0.86589 0.205-1.6569 0.6152-2.373 0.4167-0.71615 1.0026-1.276 1.7578-1.6797 0.7552-0.41015 1.6113-0.61523 2.5684-0.61523 1.4648 0 2.6009 0.35156 3.4082 1.0547 0.8138 0.70313 1.2207 1.696 1.2207 2.9785 0 0.70313-0.1823 1.4193-0.5469 2.1485-0.3646 0.7291-0.9896 1.5788-1.875 2.5488l-3.2324 3.4082h6.1133zm11.006-10.439c0 0.6901-0.1725 1.3021-0.5176 1.836-0.345 0.5338-0.8203 0.9603-1.4257 1.2793 0.6901 0.332 1.2369 0.791 1.6406 1.3769 0.4036 0.5795 0.6055 1.2631 0.6055 2.0508 0 1.263-0.4297 2.2624-1.2891 2.9981-0.8594 0.7291-2.028 1.0937-3.5059 1.0937-1.4778 0-2.6497-0.3678-3.5156-1.1035s-1.2988-1.7318-1.2988-2.9883c0-0.7877 0.2018-1.4746 0.6054-2.0605 0.4037-0.586 0.9473-1.0417 1.6309-1.3672-0.6055-0.319-1.0807-0.7455-1.4258-1.2793-0.3385-0.53387-0.5078-1.1458-0.5078-1.836 0-1.2109 0.4037-2.1745 1.211-2.8906 0.8072-0.72265 1.9042-1.084 3.291-1.084 1.3802 0 2.4739 0.35807 3.2812 1.0742 0.8138 0.70963 1.2207 1.6764 1.2207 2.9004zm-2.5293 6.3378c0-0.6185-0.179-1.1132-0.5371-1.4843s-0.8398-0.5567-1.4453-0.5567c-0.599 0-1.0775 0.1856-1.4355 0.5567-0.3581 0.3645-0.5372 0.8593-0.5372 1.4843 0 0.6055 0.1758 1.0938 0.5274 1.4649 0.3515 0.3711 0.8398 0.5566 1.4648 0.5566 0.612 0 1.0905-0.179 1.4356-0.5371 0.3515-0.3581 0.5273-0.8529 0.5273-1.4844zm-0.2929-6.2011c0-0.55339-0.1465-0.9961-0.4395-1.3281-0.293-0.33854-0.7064-0.50781-1.2402-0.50781-0.5274 0-0.9375 0.16276-1.2305 0.48828s-0.4395 0.77474-0.4395 1.3477c0 0.5664 0.1465 1.0221 0.4395 1.3672 0.293 0.345 0.7064 0.5175 1.2402 0.5175 0.5339 0 0.944-0.1725 1.2305-0.5175 0.293-0.3451 0.4395-0.80083 0.4395-1.3672zm16.006 11.523h-2.0996l5.2344-15.439h2.0999zm23.291-1.2207h-2.822v-10.879l-3.369 1.0449v-2.2949l5.889-2.1094h0.302zm7.5-8.3594h1.504c0.716 0 1.247-0.179 1.592-0.5371 0.345-0.35806 0.518-0.83332 0.518-1.4258 0-0.57291-0.173-1.0189-0.518-1.3379-0.339-0.31901-0.807-0.47851-1.406-0.47851-0.541 0-0.993 0.14974-1.358 0.44922-0.364 0.29297-0.547 0.67708-0.547 1.1523h-2.822c0-0.74219 0.199-1.4062 0.596-1.9922 0.404-0.59244 0.963-1.0547 1.68-1.3867 0.722-0.33203 1.517-0.49804 2.382-0.49804 1.504 0 2.683 0.36133 3.536 1.084 0.852 0.71615 1.279 1.7057 1.279 2.9688 0 0.65104-0.199 1.25-0.596 1.7968-0.397 0.5469-0.918 0.9668-1.562 1.2598 0.8 0.2865 1.396 0.7162 1.787 1.2891 0.397 0.5729 0.595 1.25 0.595 2.0312 0 1.263-0.462 2.2754-1.386 3.0371-0.918 0.7618-2.136 1.1426-3.653 1.1426-1.419 0-2.581-0.3743-3.486-1.123-0.898-0.7487-1.348-1.7383-1.348-2.9688h2.823c0 0.5339 0.198 0.9701 0.595 1.3086 0.404 0.3386 0.899 0.5078 1.485 0.5078 0.67 0 1.194-0.1758 1.572-0.5273 0.384-0.3581 0.576-0.8301 0.576-1.416 0-1.4193-0.781-2.1289-2.344-2.1289h-1.494z" fill="#fff"/><g stroke="#fff"><path d="m123 38v16h18"/><path d="m72 38v64h69"/><path d="m26 38v112h115"/></g><g fill="#fff"><circle cx="26" cy="38" r="4"/><circle cx="72" cy="38" r="4"/><circle cx="123" cy="38" r="4"/><circle cx="141" cy="54" r="4"/><circle cx="141" cy="102" r="4"/><circle cx="141" cy="150" r="4"/><g aria-label="Inner diameter, mm"><path d="m159.15 58.943h-1.125v-8.5312h1.125z"/><path d="m162.06 52.603 0.0352 0.79688q0.72656-0.91406 1.8984-0.91406 2.0098 0 2.0273 2.2676v4.1895h-1.084v-4.1953q-6e-3 -0.68555-0.3164-1.0137-0.30469-0.32812-0.95508-0.32812-0.52734 0-0.92578 0.28125t-0.62109 0.73828v4.5176h-1.084v-6.3398z"/><path d="m168.68 52.603 0.0351 0.79688q0.72656-0.91406 1.8984-0.91406 2.0098 0 2.0273 2.2676v4.1895h-1.084v-4.1953q-6e-3 -0.68555-0.31641-1.0137-0.30469-0.32812-0.95508-0.32812-0.52734 0-0.92578 0.28125-0.39843 0.28125-0.62109 0.73828v4.5176h-1.084v-6.3398z"/><path d="m176.91 59.06q-1.2891 0-2.0977-0.84375-0.80859-0.84961-0.80859-2.2676v-0.19922q0-0.94336 0.35742-1.6816 0.36328-0.74414 1.0078-1.1602 0.65039-0.42188 1.4062-0.42188 1.2363 0 1.9219 0.81445 0.68554 0.81445 0.68554 2.332v0.45117h-4.2949q0.0234 0.9375 0.54492 1.5176 0.52735 0.57422 1.3359 0.57422 0.57422 0 0.97266-0.23438t0.69726-0.62109l0.66211 0.51562q-0.79687 1.2246-2.3906 1.2246zm-0.13477-5.6836q-0.65625 0-1.1016 0.48047-0.44531 0.47461-0.55078 1.3359h3.1758v-0.08203q-0.0469-0.82617-0.44531-1.2773-0.39844-0.45703-1.0781-0.45703z"/><path d="m183.7 53.576q-0.24609-0.04101-0.5332-0.04101-1.0664 0-1.4473 0.9082v4.5h-1.084v-6.3398h1.0547l0.0176 0.73242q0.5332-0.84961 1.5117-0.84961 0.31641 0 0.48047 0.08203z"/><path d="m187.41 55.721q0-1.459 0.6914-2.3438 0.69141-0.89062 1.8106-0.89062 1.1133 0 1.7637 0.76172v-3.3047h1.084v9h-0.9961l-0.0527-0.67969q-0.65039 0.79688-1.8106 0.79688-1.1016 0-1.7988-0.90234-0.6914-0.90234-0.6914-2.3555zm1.084 0.12305q0 1.0781 0.44532 1.6875 0.44531 0.60938 1.2305 0.60938 1.0312 0 1.5059-0.92578v-2.9121q-0.48632-0.89648-1.4941-0.89648-0.79687 0-1.2422 0.61524-0.44532 0.61523-0.44532 1.8223z"/><path d="m195.61 58.943h-1.084v-6.3398h1.084zm-1.1719-8.0215q0-0.26367 0.1582-0.44531 0.16406-0.18164 0.48047-0.18164t0.48047 0.18164 0.16406 0.44531q0 0.26367-0.16406 0.43945-0.16406 0.17578-0.48047 0.17578t-0.48047-0.17578q-0.1582-0.17578-0.1582-0.43945z"/><path d="m201.26 58.943q-0.0937-0.1875-0.15234-0.66797-0.75586 0.78516-1.8047 0.78516-0.9375 0-1.541-0.52734-0.59765-0.5332-0.59765-1.3477 0-0.99023 0.75-1.5352 0.75586-0.55078 2.1211-0.55078h1.0547v-0.49805q0-0.56836-0.33985-0.90234-0.33984-0.33984-1.002-0.33984-0.58008 0-0.97265 0.29297-0.39258 0.29297-0.39258 0.70898h-1.0898q0-0.47461 0.33399-0.91406 0.33984-0.44531 0.91406-0.70312 0.58008-0.25781 1.2715-0.25781 1.0957 0 1.7168 0.55078 0.6211 0.54492 0.64453 1.5059v2.918q0 0.87305 0.22266 1.3887v0.09375zm-1.7988-0.82617q0.50977 0 0.9668-0.26367t0.66211-0.68555v-1.3008h-0.84961q-1.9922 0-1.9922 1.166 0 0.50976 0.33985 0.79688 0.33984 0.28711 0.87304 0.28711z"/><path d="m204.9 52.603 0.0293 0.70312q0.69727-0.82031 1.8809-0.82031 1.3301 0 1.8106 1.0195 0.3164-0.45703 0.82031-0.73828 0.50976-0.28125 1.2012-0.28125 2.0859 0 2.1211 2.209v4.248h-1.084v-4.1836q0-0.67969-0.31055-1.0137-0.31054-0.33984-1.043-0.33984-0.60351 0-1.002 0.36328-0.39844 0.35742-0.46289 0.9668v4.207h-1.0898v-4.1543q0-1.3828-1.3535-1.3828-1.0664 0-1.459 0.9082v4.6289h-1.084v-6.3398z"/><path d="m217.02 59.06q-1.2891 0-2.0977-0.84375-0.80859-0.84961-0.80859-2.2676v-0.19922q0-0.94336 0.35742-1.6816 0.36328-0.74414 1.0078-1.1602 0.65039-0.42188 1.4062-0.42188 1.2363 0 1.9219 0.81445t0.68555 2.332v0.45117h-4.2949q0.0234 0.9375 0.54493 1.5176 0.52734 0.57422 1.3359 0.57422 0.57422 0 0.97266-0.23438t0.69726-0.62109l0.66211 0.51562q-0.79687 1.2246-2.3906 1.2246zm-0.13477-5.6836q-0.65625 0-1.1016 0.48047-0.44531 0.47461-0.55078 1.3359h3.1758v-0.08203q-0.0469-0.82617-0.44531-1.2773-0.39844-0.45703-1.0781-0.45703z"/><path d="m222.22 51.068v1.5352h1.1836v0.83789h-1.1836v3.9316q0 0.38086 0.15821 0.57422 0.1582 0.1875 0.53906 0.1875 0.1875 0 0.51563-0.07031v0.87891q-0.42774 0.11719-0.83204 0.11719-0.72656 0-1.0957-0.43945t-0.36914-1.248v-3.9316h-1.1543v-0.83789h1.1543v-1.5352z"/><path d="m227.3 59.06q-1.2891 0-2.0976-0.84375-0.8086-0.84961-0.8086-2.2676v-0.19922q0-0.94336 0.35742-1.6816 0.36329-0.74414 1.0078-1.1602 0.65039-0.42188 1.4062-0.42188 1.2363 0 1.9219 0.81445 0.68555 0.81445 0.68555 2.332v0.45117h-4.2949q0.0234 0.9375 0.54492 1.5176 0.52734 0.57422 1.3359 0.57422 0.57422 0 0.97265-0.23438 0.39844-0.23438 0.69727-0.62109l0.66211 0.51562q-0.79688 1.2246-2.3906 1.2246zm-0.13476-5.6836q-0.65625 0-1.1016 0.48047-0.44531 0.47461-0.55078 1.3359h3.1758v-0.08203q-0.0469-0.82617-0.44531-1.2773-0.39844-0.45703-1.0781-0.45703z"/><path d="m234.09 53.576q-0.2461-0.04101-0.5332-0.04101-1.0664 0-1.4473 0.9082v4.5h-1.084v-6.3398h1.0547l0.0176 0.73242q0.5332-0.84961 1.5117-0.84961 0.31641 0 0.48047 0.08203z"/><path d="m234.33 60.643-0.61523-0.42188q0.55078-0.76758 0.57422-1.582v-0.97852h1.0605v0.84961q0 0.5918-0.29296 1.1836-0.28711 0.5918-0.72657 0.94922z"/><path d="m240.71 52.603 0.0293 0.70312q0.69726-0.82031 1.8809-0.82031 1.3301 0 1.8106 1.0195 0.3164-0.45703 0.82031-0.73828 0.50976-0.28125 1.2012-0.28125 2.0859 0 2.1211 2.209v4.248h-1.084v-4.1836q0-0.67969-0.31055-1.0137-0.31054-0.33984-1.043-0.33984-0.60351 0-1.002 0.36328-0.39844 0.35742-0.46289 0.9668v4.207h-1.0898v-4.1543q0-1.3828-1.3535-1.3828-1.0664 0-1.459 0.9082v4.6289h-1.084v-6.3398z"/><path d="m251.23 52.603 0.0293 0.70312q0.69726-0.82031 1.8809-0.82031 1.3301 0 1.8105 1.0195 0.31641-0.45703 0.82032-0.73828 0.50976-0.28125 1.2012-0.28125 2.0859 0 2.1211 2.209v4.248h-1.084v-4.1836q0-0.67969-0.31055-1.0137-0.31055-0.33984-1.043-0.33984-0.60351 0-1.002 0.36328-0.39844 0.35742-0.46289 0.9668v4.207h-1.0898v-4.1543q0-1.3828-1.3535-1.3828-1.0664 0-1.459 0.9082v4.6289h-1.084v-6.3398z"/></g><g aria-label="Outer diameter, mm"><path d="m164.51 102.95q0 1.2539-0.42187 2.1914-0.42188 0.93164-1.1953 1.4238-0.77343 0.49219-1.8047 0.49219-1.0078 0-1.7871-0.49219-0.7793-0.49804-1.2129-1.4121-0.42774-0.91992-0.43946-2.127v-0.61523q0-1.2305 0.42774-2.1738 0.42773-0.94336 1.207-1.4414 0.78515-0.50391 1.793-0.50391 1.0254 0 1.8047 0.49805 0.78516 0.49219 1.207 1.4355 0.42187 0.9375 0.42187 2.1856zm-1.1191-0.55078q0-1.5176-0.60937-2.3262-0.60938-0.81446-1.7051-0.81446-1.0664 0-1.6816 0.81446-0.60938 0.80859-0.62696 2.25v0.62695q0 1.4707 0.61524 2.3144 0.62109 0.83789 1.7051 0.83789 1.0898 0 1.6875-0.79101 0.59765-0.79688 0.61523-2.2793z"/><path d="m169.94 106.32q-0.63281 0.74414-1.8574 0.74414-1.0137 0-1.5469-0.58594-0.52734-0.59179-0.5332-1.7461v-4.125h1.084v4.0957q0 1.4414 1.1719 1.4414 1.2422 0 1.6523-0.92578v-4.6113h1.084v6.3398h-1.0312z"/><path d="m174.11 99.068v1.5352h1.1836v0.83789h-1.1836v3.9316q0 0.38086 0.1582 0.57422 0.1582 0.1875 0.53906 0.1875 0.1875 0 0.51563-0.0703v0.8789q-0.42774 0.11719-0.83203 0.11719-0.72657 0-1.0957-0.43945-0.36914-0.43946-0.36914-1.248v-3.9316h-1.1543v-0.83789h1.1543v-1.5352z"/><path d="m179.19 107.06q-1.2891 0-2.0976-0.84375-0.8086-0.84961-0.8086-2.2676v-0.19922q0-0.94336 0.35743-1.6816 0.36328-0.74414 1.0078-1.1602 0.65039-0.42188 1.4062-0.42188 1.2363 0 1.9219 0.81446 0.68555 0.81445 0.68555 2.332v0.45117h-4.2949q0.0234 0.9375 0.54492 1.5176 0.52734 0.57422 1.3359 0.57422 0.57422 0 0.97265-0.23438 0.39844-0.23437 0.69727-0.62109l0.66211 0.51562q-0.79688 1.2246-2.3906 1.2246zm-0.13476-5.6836q-0.65625 0-1.1016 0.48047-0.44532 0.47461-0.55078 1.3359h3.1758v-0.082q-0.0469-0.82617-0.44532-1.2773-0.39843-0.45703-1.0781-0.45703z"/><path d="m185.98 101.58q-0.24609-0.041-0.5332-0.041-1.0664 0-1.4473 0.9082v4.5h-1.084v-6.3398h1.0547l0.0176 0.73242q0.53321-0.84961 1.5117-0.84961 0.31641 0 0.48047 0.082z"/><path d="m189.68 103.72q0-1.459 0.6914-2.3438 0.69141-0.89063 1.8106-0.89063 1.1133 0 1.7637 0.76172v-3.3047h1.084v9h-0.99609l-0.0527-0.67968q-0.65039 0.79687-1.8106 0.79687-1.1016 0-1.7988-0.90234-0.6914-0.90235-0.6914-2.3555zm1.084 0.12304q0 1.0781 0.44531 1.6875 0.44531 0.60938 1.2305 0.60938 1.0312 0 1.5059-0.92578v-2.9121q-0.48633-0.89649-1.4941-0.89649-0.79688 0-1.2422 0.61524-0.44531 0.61523-0.44531 1.8223z"/><path d="m197.89 106.94h-1.084v-6.3398h1.084zm-1.1719-8.0215q0-0.26367 0.15821-0.44531 0.16406-0.18164 0.48047-0.18164 0.3164 0 0.48047 0.18164 0.16406 0.18164 0.16406 0.44531t-0.16406 0.43945q-0.16407 0.17578-0.48047 0.17578-0.31641 0-0.48047-0.17578-0.15821-0.17578-0.15821-0.43945z"/><path d="m203.54 106.94q-0.0937-0.1875-0.15235-0.66797-0.75586 0.78516-1.8047 0.78516-0.9375 0-1.541-0.52734-0.59766-0.53321-0.59766-1.3477 0-0.99023 0.75-1.5352 0.75586-0.55078 2.1211-0.55078h1.0547v-0.49804q0-0.56836-0.33985-0.90235-0.33984-0.33984-1.002-0.33984-0.58008 0-0.97266 0.29297t-0.39258 0.70898h-1.0898q0-0.47461 0.33398-0.91406 0.33985-0.44531 0.91407-0.70313 0.58008-0.25781 1.2715-0.25781 1.0957 0 1.7168 0.55078 0.62109 0.54493 0.64453 1.5059v2.918q0 0.87305 0.22266 1.3887v0.0937zm-1.7988-0.82617q0.50976 0 0.9668-0.26367 0.45703-0.26367 0.66211-0.68555v-1.3008h-0.84961q-1.9922 0-1.9922 1.166 0 0.50976 0.33984 0.79687 0.33985 0.28711 0.87305 0.28711z"/><path d="m207.17 100.6 0.0293 0.70312q0.69726-0.82031 1.8809-0.82031 1.3301 0 1.8105 1.0195 0.31641-0.45703 0.82032-0.73828 0.50976-0.28125 1.2012-0.28125 2.0859 0 2.1211 2.209v4.248h-1.084v-4.1836q0-0.67969-0.31055-1.0137-0.31055-0.33985-1.043-0.33985-0.60351 0-1.002 0.36329-0.39844 0.35742-0.46289 0.96679v4.207h-1.0898v-4.1543q0-1.3828-1.3535-1.3828-1.0664 0-1.459 0.90821v4.6289h-1.084v-6.3398z"/><path d="m219.3 107.06q-1.2891 0-2.0977-0.84375-0.80859-0.84961-0.80859-2.2676v-0.19922q0-0.94336 0.35742-1.6816 0.36328-0.74414 1.0078-1.1602 0.65039-0.42188 1.4062-0.42188 1.2363 0 1.9219 0.81446 0.68554 0.81445 0.68554 2.332v0.45117h-4.2949q0.0234 0.9375 0.54492 1.5176 0.52735 0.57422 1.3359 0.57422 0.57422 0 0.97266-0.23438 0.39843-0.23437 0.69726-0.62109l0.66211 0.51562q-0.79687 1.2246-2.3906 1.2246zm-0.13477-5.6836q-0.65625 0-1.1016 0.48047-0.44531 0.47461-0.55078 1.3359h3.1758v-0.082q-0.0469-0.82617-0.44531-1.2773-0.39844-0.45703-1.0781-0.45703z"/><path d="m224.5 99.068v1.5352h1.1836v0.83789h-1.1836v3.9316q0 0.38086 0.1582 0.57422 0.15821 0.1875 0.53907 0.1875 0.1875 0 0.51562-0.0703v0.8789q-0.42773 0.11719-0.83203 0.11719-0.72656 0-1.0957-0.43945-0.36914-0.43946-0.36914-1.248v-3.9316h-1.1543v-0.83789h1.1543v-1.5352z"/><path d="m229.58 107.06q-1.2891 0-2.0977-0.84375-0.80859-0.84961-0.80859-2.2676v-0.19922q0-0.94336 0.35742-1.6816 0.36328-0.74414 1.0078-1.1602 0.65039-0.42188 1.4062-0.42188 1.2363 0 1.9219 0.81446 0.68555 0.81445 0.68555 2.332v0.45117h-4.2949q0.0234 0.9375 0.54493 1.5176 0.52734 0.57422 1.3359 0.57422 0.57422 0 0.97266-0.23438 0.39844-0.23437 0.69727-0.62109l0.6621 0.51562q-0.79687 1.2246-2.3906 1.2246zm-0.13477-5.6836q-0.65625 0-1.1016 0.48047-0.44531 0.47461-0.55078 1.3359h3.1758v-0.082q-0.0469-0.82617-0.44531-1.2773-0.39844-0.45703-1.0781-0.45703z"/><path d="m236.37 101.58q-0.2461-0.041-0.53321-0.041-1.0664 0-1.4473 0.9082v4.5h-1.084v-6.3398h1.0547l0.0176 0.73242q0.5332-0.84961 1.5117-0.84961 0.3164 0 0.48047 0.082z"/><path d="m236.61 108.64-0.61523-0.42187q0.55078-0.76758 0.57421-1.582v-0.97852h1.0606v0.84961q0 0.5918-0.29297 1.1836-0.28711 0.5918-0.72656 0.94922z"/><path d="m242.99 100.6 0.0293 0.70312q0.69726-0.82031 1.8809-0.82031 1.3301 0 1.8105 1.0195 0.31641-0.45703 0.82031-0.73828 0.50977-0.28125 1.2012-0.28125 2.0859 0 2.1211 2.209v4.248h-1.084v-4.1836q0-0.67969-0.31055-1.0137-0.31055-0.33985-1.043-0.33985-0.60352 0-1.002 0.36329-0.39844 0.35742-0.46289 0.96679v4.207h-1.0898v-4.1543q0-1.3828-1.3535-1.3828-1.0664 0-1.459 0.90821v4.6289h-1.084v-6.3398z"/><path d="m253.51 100.6 0.0293 0.70312q0.69727-0.82031 1.8809-0.82031 1.3301 0 1.8106 1.0195 0.31641-0.45703 0.82031-0.73828 0.50977-0.28125 1.2012-0.28125 2.0859 0 2.1211 2.209v4.248h-1.084v-4.1836q0-0.67969-0.31054-1.0137-0.31055-0.33985-1.043-0.33985-0.60352 0-1.002 0.36329-0.39844 0.35742-0.4629 0.96679v4.207h-1.0898v-4.1543q0-1.3828-1.3535-1.3828-1.0664 0-1.459 0.90821v4.6289h-1.084v-6.3398z"/></g><g aria-label="Product type (aluminum copper washer)"><path d="m159.07 150.66v3.3398h-1.125v-8.5312h3.1465q1.4004 0 2.1914 0.71485 0.79688 0.71484 0.79688 1.8926 0 1.2422-0.7793 1.916-0.77344 0.66797-2.2207 0.66797zm0-0.91992h2.0215q0.90234 0 1.3828-0.42188 0.48047-0.42773 0.48047-1.2305 0-0.76172-0.48047-1.2188t-1.3184-0.47461h-2.0859z"/><path d="m168.41 148.63q-0.24609-0.041-0.5332-0.041-1.0664 0-1.4473 0.9082v4.5h-1.084v-6.3398h1.0547l0.0176 0.73242q0.5332-0.84961 1.5117-0.84961 0.3164 0 0.48046 0.082z"/><path d="m169 150.77q0-0.93164 0.36328-1.6758 0.36914-0.74415 1.0195-1.1484 0.65625-0.4043 1.4941-0.4043 1.2949 0 2.0918 0.89649 0.80274 0.89648 0.80274 2.3848v0.0762q0 0.92578-0.35743 1.6641-0.35156 0.73242-1.0137 1.1426-0.65625 0.41016-1.5117 0.41016-1.2891 0-2.0918-0.89648-0.79688-0.89649-0.79688-2.373zm1.0898 0.1289q0 1.0547 0.48632 1.6934 0.49219 0.63867 1.3125 0.63867 0.82618 0 1.3125-0.64453 0.48633-0.65039 0.48633-1.8164 0-1.043-0.49805-1.6875-0.49218-0.65039-1.3125-0.65039-0.80273 0-1.2949 0.63867-0.49218 0.63867-0.49218 1.8281z"/><path d="m175.87 150.78q0-1.459 0.69141-2.3438 0.6914-0.89063 1.8105-0.89063 1.1133 0 1.7637 0.76172v-3.3047h1.084v9h-0.9961l-0.0527-0.67969q-0.65039 0.79688-1.8106 0.79688-1.1016 0-1.7988-0.90234-0.69141-0.90235-0.69141-2.3555zm1.084 0.12304q0 1.0781 0.44532 1.6875 0.44531 0.60938 1.2305 0.60938 1.0312 0 1.5059-0.92578v-2.9121q-0.48632-0.89649-1.4941-0.89649-0.79687 0-1.2422 0.61524-0.44532 0.61523-0.44532 1.8223z"/><path d="m186.81 153.37q-0.63281 0.74414-1.8574 0.74414-1.0137 0-1.5469-0.58594-0.52734-0.59179-0.5332-1.7461v-4.125h1.084v4.0957q0 1.4414 1.1719 1.4414 1.2422 0 1.6523-0.92578v-4.6113h1.084v6.3398h-1.0312z"/><path d="m192.06 153.23q0.58008 0 1.0137-0.35156 0.4336-0.35156 0.48047-0.8789h1.0254q-0.0293 0.54492-0.375 1.0371-0.3457 0.49219-0.92578 0.78516-0.57422 0.29297-1.2188 0.29297-1.2949 0-2.0625-0.86133-0.76172-0.86719-0.76172-2.3672v-0.18164q0-0.92578 0.33985-1.6465 0.33984-0.7207 0.97265-1.1191 0.63868-0.39844 1.5059-0.39844 1.0664 0 1.7695 0.63867 0.70899 0.63867 0.75586 1.6582h-1.0254q-0.0469-0.61524-0.46875-1.0078-0.41601-0.39843-1.0312-0.39843-0.82617 0-1.2832 0.59765-0.45117 0.5918-0.45117 1.7168v0.20508q0 1.0957 0.45117 1.6875 0.45117 0.59179 1.2891 0.59179z"/><path d="m197.27 146.13v1.5352h1.1836v0.83789h-1.1836v3.9316q0 0.38086 0.1582 0.57422 0.1582 0.1875 0.53906 0.1875 0.1875 0 0.51563-0.0703v0.8789q-0.42774 0.11719-0.83203 0.11719-0.72657 0-1.0957-0.43945-0.36914-0.43946-0.36914-1.248v-3.9316h-1.1543v-0.83789h1.1543v-1.5352z"/><path d="m204.16 146.13v1.5352h1.1836v0.83789h-1.1836v3.9316q0 0.38086 0.1582 0.57422 0.15821 0.1875 0.53907 0.1875 0.1875 0 0.51562-0.0703v0.8789q-0.42773 0.11719-0.83203 0.11719-0.72656 0-1.0957-0.43945-0.36914-0.43946-0.36914-1.248v-3.9316h-1.1543v-0.83789h1.1543v-1.5352z"/><path d="m208.68 152.41 1.4766-4.752h1.1602l-2.5488 7.3184q-0.5918 1.582-1.8809 1.582l-0.20508-0.0176-0.40429-0.0762v-0.87891l0.29296 0.0234q0.55079 0 0.85547-0.22266 0.31055-0.22265 0.50977-0.81445l0.24023-0.64453-2.2617-6.2695h1.1836z"/><path d="m217.64 150.9q0 1.4473-0.66211 2.332-0.66211 0.88477-1.793 0.88477-1.1543 0-1.8164-0.73242v3.0527h-1.084v-8.7773h0.99024l0.0527 0.70312q0.66211-0.82031 1.8398-0.82031 1.1426 0 1.8047 0.86133 0.66797 0.86133 0.66797 2.3965zm-1.084-0.12304q0-1.0723-0.45703-1.6934-0.45703-0.6211-1.2539-0.6211-0.98437 0-1.4766 0.87305v3.0293q0.48633 0.86718 1.4883 0.86718 0.7793 0 1.2363-0.61523 0.46289-0.62109 0.46289-1.8398z"/><path d="m221.65 154.12q-1.2891 0-2.0977-0.84375-0.80859-0.84961-0.80859-2.2676v-0.19922q0-0.94336 0.35742-1.6816 0.36328-0.74414 1.0078-1.1602 0.65039-0.42188 1.4062-0.42188 1.2363 0 1.9219 0.81445 0.68554 0.81446 0.68554 2.332v0.45117h-4.2949q0.0234 0.9375 0.54492 1.5176 0.52735 0.57421 1.3359 0.57421 0.57422 0 0.97266-0.23437 0.39843-0.23438 0.69726-0.62109l0.66211 0.51562q-0.79687 1.2246-2.3906 1.2246zm-0.13477-5.6836q-0.65625 0-1.1016 0.48046-0.44531 0.47461-0.55078 1.3359h3.1758v-0.082q-0.0469-0.82617-0.44531-1.2773-0.39844-0.45703-1.0781-0.45703z"/><path d="m228.3 150.54q0-1.3242 0.35156-2.543 0.35742-1.2188 1.0606-2.2148 0.70312-0.99609 1.459-1.4062l0.22266 0.71484q-0.85547 0.65625-1.4062 2.0039-0.54493 1.3477-0.59766 3.0176l-6e-3 0.49804q0 2.2617 0.82617 3.9258 0.49805 0.99609 1.1836 1.5586l-0.22266 0.66211q-0.7793-0.4336-1.4883-1.4531-1.3828-1.9922-1.3828-4.7637z"/><path d="m236.36 154q-0.0937-0.1875-0.15235-0.66797-0.75586 0.78516-1.8047 0.78516-0.9375 0-1.541-0.52734-0.59766-0.53321-0.59766-1.3477 0-0.99023 0.75-1.5352 0.75586-0.55078 2.1211-0.55078h1.0547v-0.49804q0-0.56836-0.33984-0.90235-0.33984-0.33984-1.002-0.33984-0.58008 0-0.97266 0.29297t-0.39258 0.70898h-1.0898q0-0.47461 0.33398-0.91406 0.33985-0.44531 0.91407-0.70313 0.58007-0.25781 1.2715-0.25781 1.0957 0 1.7168 0.55078 0.62109 0.54492 0.64453 1.5059v2.918q0 0.87305 0.22266 1.3887v0.0937zm-1.7988-0.82617q0.50976 0 0.9668-0.26367 0.45703-0.26367 0.6621-0.68555v-1.3008h-0.8496q-1.9922 0-1.9922 1.166 0 0.50976 0.33984 0.79687 0.33985 0.28711 0.87305 0.28711z"/><path d="m240.15 154h-1.084v-9h1.084z"/><path d="m245.8 153.37q-0.63281 0.74414-1.8574 0.74414-1.0137 0-1.5469-0.58594-0.52734-0.59179-0.5332-1.7461v-4.125h1.084v4.0957q0 1.4414 1.1719 1.4414 1.2422 0 1.6523-0.92578v-4.6113h1.084v6.3398h-1.0312z"/><path d="m249.52 147.66 0.0293 0.70312q0.69727-0.82031 1.8809-0.82031 1.3301 0 1.8106 1.0195 0.3164-0.45703 0.82031-0.73828 0.50976-0.28125 1.2012-0.28125 2.0859 0 2.1211 2.209v4.248h-1.084v-4.1836q0-0.67969-0.31055-1.0137-0.31054-0.33985-1.043-0.33985-0.60351 0-1.002 0.36328-0.39844 0.35743-0.46289 0.9668v4.207h-1.0898v-4.1543q0-1.3828-1.3535-1.3828-1.0664 0-1.459 0.90821v4.6289h-1.084v-6.3398z"/><path d="m260.2 154h-1.084v-6.3398h1.084zm-1.1719-8.0215q0-0.26367 0.1582-0.44531 0.16406-0.18165 0.48047-0.18165t0.48047 0.18165q0.16406 0.18164 0.16406 0.44531t-0.16406 0.43945-0.48047 0.17578-0.48047-0.17578q-0.1582-0.17578-0.1582-0.43945z"/><path d="m262.96 147.66 0.0352 0.79687q0.72656-0.91406 1.8984-0.91406 2.0098 0 2.0274 2.2676v4.1894h-1.084v-4.1953q-6e-3 -0.68555-0.3164-1.0137-0.30469-0.32813-0.95508-0.32813-0.52735 0-0.92578 0.28125-0.39844 0.28125-0.6211 0.73828v4.5176h-1.084v-6.3398z"/><path d="m272.47 153.37q-0.63282 0.74414-1.8574 0.74414-1.0137 0-1.5469-0.58594-0.52735-0.59179-0.5332-1.7461v-4.125h1.084v4.0957q0 1.4414 1.1719 1.4414 1.2422 0 1.6524-0.92578v-4.6113h1.084v6.3398h-1.0312z"/><path d="m276.19 147.66 0.0293 0.70312q0.69726-0.82031 1.8808-0.82031 1.3301 0 1.8106 1.0195 0.31641-0.45703 0.82031-0.73828 0.50977-0.28125 1.2012-0.28125 2.0859 0 2.1211 2.209v4.248h-1.084v-4.1836q0-0.67969-0.31055-1.0137-0.31055-0.33985-1.043-0.33985-0.60352 0-1.002 0.36328-0.39844 0.35743-0.46289 0.9668v4.207h-1.0898v-4.1543q0-1.3828-1.3535-1.3828-1.0664 0-1.459 0.90821v4.6289h-1.084v-6.3398z"/><path d="m291.2 153.23q0.58008 0 1.0137-0.35156t0.48047-0.8789h1.0254q-0.0293 0.54492-0.375 1.0371-0.3457 0.49219-0.92578 0.78516-0.57422 0.29297-1.2188 0.29297-1.2949 0-2.0625-0.86133-0.76172-0.86719-0.76172-2.3672v-0.18164q0-0.92578 0.33984-1.6465 0.33985-0.7207 0.97266-1.1191 0.63867-0.39844 1.5059-0.39844 1.0664 0 1.7695 0.63867 0.70898 0.63867 0.75586 1.6582h-1.0254q-0.0469-0.61524-0.46875-1.0078-0.41602-0.39843-1.0312-0.39843-0.82617 0-1.2832 0.59765-0.45117 0.5918-0.45117 1.7168v0.20508q0 1.0957 0.45117 1.6875 0.45118 0.59179 1.2891 0.59179z"/><path d="m294.65 150.77q0-0.93164 0.36328-1.6758 0.36914-0.74415 1.0195-1.1484 0.65625-0.4043 1.4941-0.4043 1.2949 0 2.0918 0.89649 0.80273 0.89648 0.80273 2.3848v0.0762q0 0.92578-0.35742 1.6641-0.35156 0.73242-1.0137 1.1426-0.65625 0.41016-1.5117 0.41016-1.2891 0-2.0918-0.89648-0.79687-0.89649-0.79687-2.373zm1.0898 0.1289q0 1.0547 0.48633 1.6934 0.49219 0.63867 1.3125 0.63867 0.82617 0 1.3125-0.64453 0.48633-0.65039 0.48633-1.8164 0-1.043-0.49805-1.6875-0.49219-0.65039-1.3125-0.65039-0.80273 0-1.2949 0.63867t-0.49219 1.8281z"/><path d="m307.14 150.9q0 1.4473-0.66211 2.332-0.66211 0.88477-1.793 0.88477-1.1543 0-1.8164-0.73242v3.0527h-1.084v-8.7773h0.99023l0.0527 0.70312q0.66211-0.82031 1.8398-0.82031 1.1426 0 1.8047 0.86133 0.66797 0.86133 0.66797 2.3965zm-1.084-0.12304q0-1.0723-0.45703-1.6934-0.45703-0.6211-1.2539-0.6211-0.98438 0-1.4766 0.87305v3.0293q0.48633 0.86718 1.4883 0.86718 0.7793 0 1.2363-0.61523 0.46289-0.62109 0.46289-1.8398z"/><path d="m313.87 150.9q0 1.4473-0.66211 2.332-0.66211 0.88477-1.793 0.88477-1.1543 0-1.8164-0.73242v3.0527h-1.084v-8.7773h0.99023l0.0527 0.70312q0.66211-0.82031 1.8398-0.82031 1.1426 0 1.8047 0.86133 0.66797 0.86133 0.66797 2.3965zm-1.084-0.12304q0-1.0723-0.45703-1.6934-0.45703-0.6211-1.2539-0.6211-0.98438 0-1.4766 0.87305v3.0293q0.48633 0.86718 1.4883 0.86718 0.77929 0 1.2363-0.61523 0.46289-0.62109 0.46289-1.8398z"/><path d="m317.88 154.12q-1.2891 0-2.0976-0.84375-0.8086-0.84961-0.8086-2.2676v-0.19922q0-0.94336 0.35742-1.6816 0.36328-0.74414 1.0078-1.1602 0.65039-0.42188 1.4062-0.42188 1.2363 0 1.9219 0.81445 0.68555 0.81446 0.68555 2.332v0.45117h-4.2949q0.0234 0.9375 0.54492 1.5176 0.52734 0.57421 1.3359 0.57421 0.57421 0 0.97265-0.23437 0.39844-0.23438 0.69727-0.62109l0.66211 0.51562q-0.79688 1.2246-2.3906 1.2246zm-0.13476-5.6836q-0.65625 0-1.1016 0.48046-0.44531 0.47461-0.55078 1.3359h3.1758v-0.082q-0.0469-0.82617-0.44531-1.2773-0.39844-0.45703-1.0781-0.45703z"/><path d="m324.67 148.63q-0.2461-0.041-0.53321-0.041-1.0664 0-1.4473 0.9082v4.5h-1.084v-6.3398h1.0547l0.0176 0.73242q0.5332-0.84961 1.5117-0.84961 0.3164 0 0.48047 0.082z"/><path d="m163.39 167.62 1.2188-4.8457h1.084l-1.8457 6.3398h-0.8789l-1.541-4.8047-1.5 4.8047h-0.87891l-1.8398-6.3398h1.0781l1.248 4.7461 1.4766-4.7461h0.87305z"/><path d="m170.71 169.12q-0.0937-0.1875-0.15234-0.66797-0.75586 0.78516-1.8047 0.78516-0.9375 0-1.541-0.52735-0.59765-0.5332-0.59765-1.3476 0-0.99024 0.75-1.5352 0.75586-0.55078 2.1211-0.55078h1.0547v-0.49805q0-0.56836-0.33985-0.90234-0.33984-0.33984-1.002-0.33984-0.58008 0-0.97266 0.29296-0.39257 0.29297-0.39257 0.70899h-1.0898q0-0.47461 0.33399-0.91406 0.33984-0.44532 0.91406-0.70313 0.58008-0.25781 1.2715-0.25781 1.0957 0 1.7168 0.55078 0.62109 0.54492 0.64453 1.5059v2.918q0 0.87304 0.22266 1.3887v0.0937zm-1.7988-0.82617q0.50977 0 0.9668-0.26367 0.45703-0.26368 0.66211-0.68555v-1.3008h-0.84961q-1.9922 0-1.9922 1.166 0 0.50977 0.33984 0.79688 0.33985 0.28711 0.87305 0.28711z"/><path d="m177.01 167.44q0-0.43945-0.33399-0.67969-0.32812-0.24609-1.1543-0.42187-0.82032-0.17578-1.3066-0.42188-0.48047-0.24609-0.71485-0.58594-0.22851-0.33984-0.22851-0.80859 0-0.7793 0.65625-1.3184 0.66211-0.53906 1.6875-0.53906 1.0781 0 1.7461 0.55664 0.67383 0.55664 0.67383 1.4238h-1.0898q0-0.44532-0.38086-0.76758-0.375-0.32227-0.94921-0.32227-0.5918 0-0.92579 0.25782-0.33398 0.25781-0.33398 0.67382 0 0.39258 0.31055 0.5918 0.31054 0.19922 1.1191 0.38086 0.81445 0.18164 1.3184 0.43359 0.5039 0.25196 0.74414 0.60938 0.24609 0.35156 0.24609 0.86133 0 0.84961-0.67969 1.3652-0.67968 0.50977-1.7637 0.50977-0.76172 0-1.3476-0.26953-0.58594-0.26954-0.91993-0.75-0.32812-0.48633-0.32812-1.0488h1.084q0.0293 0.54492 0.4336 0.86719 0.41015 0.3164 1.0781 0.3164 0.61524 0 0.98438-0.24609 0.375-0.25196 0.375-0.66797z"/><path d="m180.59 163.55q0.7207-0.88476 1.875-0.88476 2.0098 0 2.0273 2.2676v4.1894h-1.084v-4.1953q-6e-3 -0.68555-0.3164-1.0137-0.30469-0.32813-0.95508-0.32813-0.52734 0-0.92578 0.28125t-0.62109 0.73828v4.5176h-1.084v-9h1.084z"/><path d="m188.75 169.24q-1.2891 0-2.0977-0.84375-0.80859-0.84961-0.80859-2.2676v-0.19922q0-0.94336 0.35742-1.6816 0.36328-0.74414 1.0078-1.1602 0.65039-0.42187 1.4062-0.42187 1.2363 0 1.9219 0.81445 0.68555 0.81445 0.68555 2.332v0.45117h-4.2949q0.0234 0.9375 0.54492 1.5176 0.52735 0.57422 1.3359 0.57422 0.57422 0 0.97266-0.23437 0.39843-0.23438 0.69726-0.6211l0.66211 0.51563q-0.79687 1.2246-2.3906 1.2246zm-0.13477-5.6836q-0.65625 0-1.1016 0.48047-0.44532 0.47461-0.55078 1.3359h3.1758v-0.082q-0.0469-0.82617-0.44532-1.2774-0.39843-0.45703-1.0781-0.45703z"/><path d="m195.54 163.75q-0.24609-0.041-0.5332-0.041-1.0664 0-1.4473 0.9082v4.5h-1.084v-6.3398h1.0547l0.0176 0.73242q0.53321-0.84961 1.5117-0.84961 0.31641 0 0.48047 0.082z"/><path d="m199.04 165.71q0 1.3066-0.34571 2.5078-0.33984 1.1953-1.0488 2.209-0.70313 1.0137-1.4766 1.4414l-0.22851-0.66211q0.90234-0.69141 1.4473-2.1445 0.55079-1.459 0.5625-3.2344v-0.1875q0-1.2305-0.25781-2.2852-0.25781-1.0605-0.7207-1.8984-0.45703-0.83789-1.0312-1.3066l0.22851-0.66211q0.77344 0.42773 1.4707 1.4297 0.70312 1.002 1.0488 2.209 0.35156 1.207 0.35156 2.584z"/></g></g></svg>
