<?xml version="1.0" encoding="UTF-8"?>
<svg width="360" height="111" fill="none" version="1.1" viewBox="0 0 360 111" xmlns="http://www.w3.org/2000/svg"><path d="m12.52 17.203c-0.5273 0.6315-1.2728 1.1231-2.2363 1.4746-0.96354 0.3451-2.0312 0.5176-3.2031 0.5176-1.2305 0-2.3112-0.2669-3.2422-0.8008-0.92448-0.5403-1.6406-1.3216-2.1484-2.3437-0.5013-1.0222-0.75846-2.2233-0.77148-3.6035v-0.9668c0-1.4193 0.23763-2.6465 0.71289-3.6817 0.48177-1.0417 1.1719-1.8359 2.0703-2.3828 0.90495-0.55339 1.9629-0.83008 3.1738-0.83008 1.6862 0 3.0046 0.40364 3.9551 1.2109 0.9505 0.80078 1.5137 1.9694 1.6894 3.5058h-2.8515c-0.13021-0.8138-0.41992-1.4095-0.86914-1.7871-0.44271-0.3776-1.0547-0.5664-1.8359-0.5664-0.99609 0-1.7546 0.37435-2.2754 1.123-0.52083 0.74869-0.78451 1.862-0.79102 3.3398v0.9082c0 1.4909 0.28321 2.6172 0.84961 3.3789 0.56641 0.7617 1.3965 1.1426 2.4902 1.1426 1.1003 0 1.8848-0.2344 2.3535-0.7031v-2.4512h-2.666v-2.1582h5.5957v5.6738zm13.086-10.049h-4.3555v11.846h-2.9297v-11.846h-4.2969v-2.373h11.582v2.373zm1.6211 6.0645c0-1.4909 0.1985-2.9102 0.5957-4.2579 0.3971-1.3477 0.983-2.5391 1.7578-3.5742 0.7747-1.0417 1.6146-1.7643 2.5195-2.168l0.5469 1.5234c-0.9505 0.70312-1.6927 1.7904-2.2266 3.2617-0.5338 1.4714-0.8008 3.1901-0.8008 5.1563v0.3027c0 1.9726 0.2637 3.6979 0.7911 5.1758 0.5273 1.4778 1.2727 2.5814 2.2363 3.3105l-0.5469 1.4942c-0.8854-0.3972-1.7122-1.1003-2.4805-2.1094-0.7617-1.0026-1.3444-2.1615-1.748-3.4766-0.4037-1.3151-0.6185-2.6888-0.6445-4.1211v-0.5175zm16.416-6.0645h-6.377v11.846h-2.9297v-14.219h9.3067v2.373zm5.6543-2.373 3.6523 10.313 3.6328-10.313h3.8477v14.219h-2.9395v-3.8867l0.293-6.709-3.8379 10.596h-2.0117l-3.8281-10.586 0.2929 6.6992v3.8867h-2.9296v-14.219h3.8281zm18.369 8.6622c0 1.4713-0.2116 2.8873-0.6348 4.248-0.4231 1.3607-1.0319 2.5619-1.8261 3.6035-0.7943 1.0417-1.6439 1.7578-2.5489 2.1485l-0.5468-1.4942c0.9245-0.6966 1.6536-1.7708 2.1875-3.2226 0.5338-1.4519 0.8105-3.1218 0.8301-5.0098v-0.5176c0-1.9466-0.267-3.6621-0.8008-5.1465-0.5274-1.4844-1.2663-2.5976-2.2168-3.3398l0.5468-1.4941c0.8855 0.38411 1.7188 1.0807 2.5 2.0898 0.7878 1.0091 1.3965 2.1842 1.8262 3.5254 0.4362 1.3411 0.6641 2.7311 0.6836 4.1699v0.4395zm33.545 3.7597c-0.527 0.6315-1.2728 1.1231-2.2364 1.4746-0.9635 0.3451-2.0312 0.5176-3.2031 0.5176-1.2305 0-2.3112-0.2669-3.2422-0.8008-0.9245-0.5403-1.6406-1.3216-2.1484-2.3437-0.5013-1.0222-0.7585-2.2233-0.7715-3.6035v-0.9668c0-1.4193 0.2376-2.6465 0.7129-3.6817 0.4817-1.0417 1.1718-1.8359 2.0703-2.3828 0.9049-0.55339 1.9629-0.83008 3.1738-0.83008 1.6862 0 3.0046 0.40364 3.9551 1.2109 0.9505 0.80078 1.5135 1.9694 1.6895 3.5058h-2.8516c-0.1302-0.8138-0.4199-1.4095-0.8692-1.7871-0.4427-0.3776-1.0547-0.5664-1.8359-0.5664-0.9961 0-1.7546 0.37435-2.2754 1.123-0.5208 0.74869-0.7845 1.862-0.791 3.3398v0.9082c0 1.4909 0.2832 2.6172 0.8496 3.3789s1.3965 1.1426 2.4902 1.1426c1.1003 0 1.8848-0.2344 2.3535-0.7031v-2.4512h-2.666v-2.1582h5.5958v5.6738zm13.086-10.049h-4.356v11.846h-2.929v-11.846h-4.297v-2.373h11.582v2.373zm6.738 4.0332 2.959-6.4062h3.203l-4.668 9.0626v5.1562h-2.978v-5.1562l-4.668-9.0626h3.213l2.939 6.4062zm7.403 2.0313c0-1.4909 0.198-2.9102 0.595-4.2579s0.983-2.5391 1.758-3.5742c0.775-1.0417 1.615-1.7643 2.52-2.168l0.546 1.5234c-0.95 0.70312-1.692 1.7904-2.226 3.2617-0.534 1.4714-0.801 3.1901-0.801 5.1563v0.3027c0 1.9726 0.264 3.6979 0.791 5.1758 0.527 1.4778 1.273 2.5814 2.236 3.3105l-0.546 1.4942c-0.886-0.3972-1.713-1.1003-2.481-2.1094-0.762-1.0026-1.344-2.1615-1.748-3.4766s-0.618-2.6888-0.644-4.1211v-0.5175zm16.416-6.0645h-6.377v11.846h-2.93v-14.219h9.307v2.373zm5.654-2.373 3.652 10.313 3.633-10.313h3.848v14.219h-2.94v-3.8867l0.293-6.709-3.838 10.596h-2.011l-3.829-10.586 0.293 6.6992v3.8867h-2.929v-14.219h3.828zm25.43 0v14.219h-2.94v-11.846h-3.789l-0.234 5.0195c-0.098 1.6927-0.313 3.0274-0.645 4.0039-0.332 0.9701-0.817 1.683-1.455 2.1387-0.638 0.4492-1.51 0.6771-2.617 0.6836h-0.762v-2.3535l0.488-0.0488c0.736-0.0977 1.26-0.5209 1.573-1.2696 0.319-0.7552 0.52-2.0963 0.605-4.0234l0.244-6.5234h9.532zm7.236 8.6622c0 1.4713-0.212 2.8873-0.635 4.248s-1.032 2.5619-1.826 3.6035c-0.794 1.0417-1.644 1.7578-2.549 2.1485l-0.547-1.4942c0.925-0.6966 1.654-1.7708 2.188-3.2226 0.534-1.4519 0.81-3.1218 0.83-5.0098v-0.5176c0-1.9466-0.267-3.6621-0.801-5.1465-0.527-1.4844-1.266-2.5976-2.217-3.3398l0.547-1.4941c0.885 0.38411 1.719 1.0807 2.5 2.0898 0.788 1.0091 1.397 2.1842 1.826 3.5254 0.436 1.3411 0.664 2.7311 0.684 4.1699v0.4395z" fill="#fff"/><path d="m136 38v16h72" stroke="#fff"/><path d="m33 38v64h175" stroke="#fff"/><g fill="#fff"><circle cx="33" cy="38" r="4"/><circle cx="136" cy="38" r="4"/><circle cx="208" cy="54" r="4"/><circle cx="208" cy="102" r="4"/><g aria-label="Copper sleeve"><path d="m231.87 56.345q-0.1582 1.3535-1.002 2.0918-0.83789 0.73242-2.2324 0.73242-1.5117 0-2.4258-1.084-0.90821-1.084-0.90821-2.9004v-0.82031q0-1.1895 0.42188-2.0918 0.42773-0.90234 1.207-1.3828 0.7793-0.48633 1.8047-0.48633 1.3594 0 2.1797 0.76172 0.82032 0.75586 0.95508 2.0977h-1.1309q-0.14648-1.0195-0.63867-1.4766-0.48633-0.45703-1.3652-0.45703-1.0781 0-1.6934 0.79688-0.60938 0.79688-0.60938 2.2676v0.82617q0 1.3887 0.58008 2.209 0.58008 0.82031 1.623 0.82031 0.9375 0 1.4355-0.42188 0.50391-0.42774 0.66797-1.4824z"/><path d="m232.95 55.823q0-0.93164 0.36328-1.6758 0.36914-0.74414 1.0195-1.1484 0.65625-0.4043 1.4941-0.4043 1.2949 0 2.0918 0.89648 0.80273 0.89648 0.80273 2.3848v0.07617q0 0.92578-0.35742 1.6641-0.35156 0.73242-1.0137 1.1426-0.65625 0.41016-1.5117 0.41016-1.2891 0-2.0918-0.89648-0.79687-0.89648-0.79687-2.373zm1.0898 0.12891q0 1.0547 0.48633 1.6934 0.49219 0.63867 1.3125 0.63867 0.82617 0 1.3125-0.64453 0.48633-0.65039 0.48633-1.8164 0-1.043-0.49805-1.6875-0.49219-0.65039-1.3125-0.65039-0.80273 0-1.2949 0.63867t-0.49219 1.8281z"/><path d="m245.44 55.952q0 1.4473-0.66211 2.332t-1.793 0.88477q-1.1543 0-1.8164-0.73242v3.0527h-1.084v-8.7773h0.99023l0.0527 0.70312q0.66211-0.82031 1.8398-0.82031 1.1426 0 1.8047 0.86133 0.66797 0.86133 0.66797 2.3965zm-1.084-0.12305q0-1.0723-0.45703-1.6934-0.45703-0.62109-1.2539-0.62109-0.98437 0-1.4766 0.87305v3.0293q0.48633 0.86719 1.4883 0.86719 0.7793 0 1.2363-0.61523 0.46289-0.62109 0.46289-1.8398z"/><path d="m252.17 55.952q0 1.4473-0.66211 2.332t-1.793 0.88477q-1.1543 0-1.8164-0.73242v3.0527h-1.084v-8.7773h0.99023l0.0527 0.70312q0.66211-0.82031 1.8398-0.82031 1.1426 0 1.8047 0.86133 0.66797 0.86133 0.66797 2.3965zm-1.084-0.12305q0-1.0723-0.45703-1.6934-0.45703-0.62109-1.2539-0.62109-0.98438 0-1.4766 0.87305v3.0293q0.48633 0.86719 1.4883 0.86719 0.7793 0 1.2363-0.61523 0.46289-0.62109 0.46289-1.8398z"/><path d="m256.18 59.169q-1.2891 0-2.0977-0.84375-0.80859-0.84961-0.80859-2.2676v-0.19922q0-0.94336 0.35742-1.6816 0.36328-0.74414 1.0078-1.1602 0.6504-0.42188 1.4062-0.42188 1.2363 0 1.9219 0.81445t0.68555 2.332v0.45117h-4.2949q0.0234 0.9375 0.54493 1.5176 0.52734 0.57422 1.3359 0.57422 0.57422 0 0.97266-0.23438t0.69727-0.62109l0.66211 0.51562q-0.79688 1.2246-2.3906 1.2246zm-0.13477-5.6836q-0.65625 0-1.1016 0.48047-0.44531 0.47461-0.55078 1.3359h3.1758v-0.08203q-0.0469-0.82617-0.44531-1.2773-0.39844-0.45703-1.0781-0.45703z"/><path d="m262.97 53.684q-0.2461-0.04102-0.53321-0.04102-1.0664 0-1.4473 0.9082v4.5h-1.084v-6.3398h1.0547l0.0176 0.73242q0.5332-0.84961 1.5117-0.84961 0.3164 0 0.48047 0.08203z"/><path d="m270.63 57.37q0-0.43945-0.33399-0.67969-0.32812-0.24609-1.1543-0.42188-0.82031-0.17578-1.3066-0.42188-0.48047-0.24609-0.71485-0.58594-0.22851-0.33984-0.22851-0.80859 0-0.7793 0.65625-1.3184 0.66211-0.53906 1.6875-0.53906 1.0781 0 1.7461 0.55664 0.67383 0.55664 0.67383 1.4238h-1.0898q0-0.44531-0.38086-0.76758-0.375-0.32226-0.94922-0.32226-0.5918 0-0.92578 0.25781-0.33399 0.25781-0.33399 0.67383 0 0.39258 0.31055 0.5918 0.31055 0.19922 1.1191 0.38086 0.81445 0.18164 1.3184 0.43359 0.50391 0.25195 0.74414 0.60938 0.24609 0.35156 0.24609 0.86133 0 0.84961-0.67968 1.3652-0.67969 0.50977-1.7637 0.50977-0.76171 0-1.3476-0.26953-0.58594-0.26953-0.91992-0.75-0.32813-0.48633-0.32813-1.0488h1.084q0.0293 0.54492 0.43359 0.86719 0.41016 0.31641 1.0781 0.31641 0.61524 0 0.98438-0.24609 0.375-0.25195 0.375-0.66797z"/><path d="m274.3 59.052h-1.084v-9h1.084z"/><path d="m278.67 59.169q-1.2891 0-2.0976-0.84375-0.8086-0.84961-0.8086-2.2676v-0.19922q0-0.94336 0.35742-1.6816 0.36328-0.74414 1.0078-1.1602 0.65039-0.42188 1.4062-0.42188 1.2363 0 1.9219 0.81445t0.68555 2.332v0.45117h-4.2949q0.0234 0.9375 0.54492 1.5176 0.52734 0.57422 1.3359 0.57422 0.57421 0 0.97265-0.23438t0.69727-0.62109l0.66211 0.51562q-0.79688 1.2246-2.3906 1.2246zm-0.13476-5.6836q-0.65625 0-1.1016 0.48047-0.44531 0.47461-0.55078 1.3359h3.1758v-0.08203q-0.0469-0.82617-0.44531-1.2773-0.39844-0.45703-1.0781-0.45703z"/><path d="m285.03 59.169q-1.2891 0-2.0976-0.84375-0.8086-0.84961-0.8086-2.2676v-0.19922q0-0.94336 0.35743-1.6816 0.36328-0.74414 1.0078-1.1602 0.65039-0.42188 1.4062-0.42188 1.2363 0 1.9219 0.81445 0.68555 0.81445 0.68555 2.332v0.45117h-4.2949q0.0234 0.9375 0.54492 1.5176 0.52734 0.57422 1.3359 0.57422 0.57422 0 0.97265-0.23438 0.39844-0.23438 0.69727-0.62109l0.66211 0.51562q-0.79688 1.2246-2.3906 1.2246zm-0.13476-5.6836q-0.65625 0-1.1016 0.48047-0.44532 0.47461-0.55079 1.3359h3.1758v-0.08203q-0.0469-0.82617-0.44532-1.2773-0.39843-0.45703-1.0781-0.45703z"/><path d="m290.77 57.581 1.5703-4.8691h1.1074l-2.2734 6.3398h-0.82617l-2.2969-6.3398h1.1074z"/><path d="m297.04 59.169q-1.2891 0-2.0976-0.84375-0.8086-0.84961-0.8086-2.2676v-0.19922q0-0.94336 0.35742-1.6816 0.36328-0.74414 1.0078-1.1602 0.65039-0.42188 1.4062-0.42188 1.2363 0 1.9219 0.81445t0.68555 2.332v0.45117h-4.2949q0.0234 0.9375 0.54492 1.5176 0.52734 0.57422 1.3359 0.57422 0.57421 0 0.97265-0.23438t0.69727-0.62109l0.66211 0.51562q-0.79688 1.2246-2.3906 1.2246zm-0.13476-5.6836q-0.65625 0-1.1016 0.48047-0.44531 0.47461-0.55078 1.3359h3.1758v-0.08203q-0.0469-0.82617-0.44531-1.2773-0.39844-0.45703-1.0781-0.45703z"/></g><g aria-label="Tinned copper sleeve"><path d="m231.49 99.446h-2.7422v7.6055h-1.1191v-7.6055h-2.7363v-0.92578h6.5976z"/><path d="m233.77 107.05h-1.084v-6.3398h1.084zm-1.1719-8.0215q0-0.26367 0.1582-0.44531 0.16406-0.18164 0.48047-0.18164 0.3164 0 0.48047 0.18164 0.16406 0.18164 0.16406 0.44531t-0.16406 0.43945q-0.16407 0.17578-0.48047 0.17578-0.31641 0-0.48047-0.17578-0.1582-0.17578-0.1582-0.43945z"/><path d="m236.53 100.71 0.0352 0.79688q0.72657-0.91406 1.8984-0.91406 2.0098 0 2.0273 2.2676v4.1895h-1.084v-4.1953q-6e-3 -0.68554-0.31641-1.0137-0.30468-0.32812-0.95507-0.32812-0.52735 0-0.92579 0.28125-0.39843 0.28125-0.62109 0.73828v4.5176h-1.084v-6.3398z"/><path d="m243.15 100.71 0.0352 0.79688q0.72656-0.91406 1.8984-0.91406 2.0098 0 2.0274 2.2676v4.1895h-1.084v-4.1953q-6e-3 -0.68554-0.3164-1.0137-0.30469-0.32812-0.95508-0.32812-0.52734 0-0.92578 0.28125t-0.6211 0.73828v4.5176h-1.084v-6.3398z"/><path d="m251.37 107.17q-1.2891 0-2.0976-0.84375-0.8086-0.84961-0.8086-2.2676v-0.19922q0-0.94336 0.35742-1.6816 0.36329-0.74414 1.0078-1.1602 0.65039-0.42187 1.4062-0.42187 1.2363 0 1.9219 0.81445 0.68555 0.81445 0.68555 2.332v0.45117h-4.2949q0.0234 0.9375 0.54492 1.5176 0.52734 0.57422 1.3359 0.57422 0.57422 0 0.97265-0.23438 0.39844-0.23437 0.69727-0.62109l0.66211 0.51562q-0.79688 1.2246-2.3906 1.2246zm-0.13476-5.6836q-0.65625 0-1.1016 0.48047-0.44531 0.47461-0.55078 1.3359h3.1758v-0.082q-0.0469-0.82618-0.44531-1.2774-0.39844-0.45703-1.0781-0.45703z"/><path d="m254.84 103.83q0-1.459 0.69141-2.3438 0.69141-0.89062 1.8106-0.89062 1.1133 0 1.7637 0.76171v-3.3047h1.084v9h-0.99609l-0.0527-0.67969q-0.65039 0.79687-1.8105 0.79687-1.1016 0-1.7988-0.90234-0.69141-0.90234-0.69141-2.3555zm1.084 0.12305q0 1.0781 0.44531 1.6875 0.44531 0.60937 1.2305 0.60937 1.0312 0 1.5059-0.92578v-2.9121q-0.48633-0.89648-1.4941-0.89648-0.79688 0-1.2422 0.61523-0.44531 0.61524-0.44531 1.8223z"/><path d="m267.38 106.28q0.58007 0 1.0137-0.35156 0.43359-0.35157 0.48047-0.87891h1.0254q-0.0293 0.54492-0.375 1.0371-0.34571 0.49219-0.92578 0.78516-0.57422 0.29296-1.2188 0.29296-1.2949 0-2.0625-0.86132-0.76172-0.86719-0.76172-2.3672v-0.18164q0-0.92578 0.33984-1.6465 0.33984-0.7207 0.97266-1.1191 0.63867-0.39843 1.5059-0.39843 1.0664 0 1.7695 0.63867 0.70898 0.63867 0.75586 1.6582h-1.0254q-0.0469-0.61523-0.46875-1.0078-0.41602-0.39844-1.0312-0.39844-0.82618 0-1.2832 0.59766-0.45117 0.59179-0.45117 1.7168v0.20508q0 1.0957 0.45117 1.6875t1.2891 0.5918z"/><path d="m270.83 103.82q0-0.93164 0.36328-1.6758 0.36914-0.74414 1.0195-1.1484 0.65625-0.40429 1.4941-0.40429 1.2949 0 2.0918 0.89648 0.80273 0.89648 0.80273 2.3848v0.0762q0 0.92578-0.35742 1.6641-0.35156 0.73242-1.0137 1.1426-0.65625 0.41015-1.5117 0.41015-1.2891 0-2.0918-0.89648-0.79687-0.89648-0.79687-2.373zm1.0898 0.12891q0 1.0547 0.48633 1.6934 0.49219 0.63867 1.3125 0.63867 0.82617 0 1.3125-0.64453 0.48633-0.65039 0.48633-1.8164 0-1.043-0.49805-1.6875-0.49219-0.65039-1.3125-0.65039-0.80273 0-1.2949 0.63867t-0.49219 1.8281z"/><path d="m283.32 103.95q0 1.4473-0.66211 2.332-0.66211 0.88476-1.793 0.88476-1.1543 0-1.8164-0.73242v3.0527h-1.084v-8.7774h0.99023l0.0527 0.70313q0.6621-0.82031 1.8398-0.82031 1.1426 0 1.8047 0.86132 0.66797 0.86133 0.66797 2.3965zm-1.084-0.12305q0-1.0723-0.45703-1.6934t-1.2539-0.62109q-0.98437 0-1.4766 0.87304v3.0293q0.48633 0.86719 1.4883 0.86719 0.7793 0 1.2363-0.61524 0.46289-0.62109 0.46289-1.8398z"/><path d="m290.05 103.95q0 1.4473-0.66211 2.332-0.66211 0.88476-1.793 0.88476-1.1543 0-1.8164-0.73242v3.0527h-1.084v-8.7774h0.99023l0.0527 0.70313q0.66211-0.82031 1.8398-0.82031 1.1426 0 1.8047 0.86132 0.66797 0.86133 0.66797 2.3965zm-1.084-0.12305q0-1.0723-0.45703-1.6934t-1.2539-0.62109q-0.98438 0-1.4766 0.87304v3.0293q0.48633 0.86719 1.4883 0.86719 0.7793 0 1.2363-0.61524 0.46289-0.62109 0.46289-1.8398z"/><path d="m294.06 107.17q-1.2891 0-2.0977-0.84375-0.80859-0.84961-0.80859-2.2676v-0.19922q0-0.94336 0.35742-1.6816 0.36328-0.74414 1.0078-1.1602 0.65039-0.42187 1.4062-0.42187 1.2363 0 1.9219 0.81445t0.68555 2.332v0.45117h-4.2949q0.0234 0.9375 0.54493 1.5176 0.52734 0.57422 1.3359 0.57422 0.57422 0 0.97266-0.23438 0.39844-0.23437 0.69727-0.62109l0.6621 0.51562q-0.79687 1.2246-2.3906 1.2246zm-0.13477-5.6836q-0.65625 0-1.1016 0.48047-0.44531 0.47461-0.55078 1.3359h3.1758v-0.082q-0.0469-0.82618-0.44531-1.2774-0.39844-0.45703-1.0781-0.45703z"/><path d="m300.85 101.68q-0.2461-0.041-0.53321-0.041-1.0664 0-1.4473 0.90821v4.5h-1.084v-6.3398h1.0547l0.0176 0.73242q0.5332-0.8496 1.5117-0.8496 0.3164 0 0.48047 0.082z"/><path d="m308.51 105.37q0-0.43946-0.33399-0.67969-0.32812-0.2461-1.1543-0.42188-0.82032-0.17578-1.3066-0.42187-0.48047-0.2461-0.71485-0.58594-0.22851-0.33984-0.22851-0.80859 0-0.7793 0.65625-1.3184 0.66211-0.53906 1.6875-0.53906 1.0781 0 1.7461 0.55664 0.67383 0.55664 0.67383 1.4238h-1.0898q0-0.44531-0.38086-0.76757-0.375-0.32227-0.94922-0.32227-0.5918 0-0.92578 0.25781-0.33399 0.25782-0.33399 0.67383 0 0.39258 0.31055 0.5918t1.1191 0.38086q0.81445 0.18164 1.3184 0.43359 0.5039 0.25195 0.74414 0.60938 0.24609 0.35156 0.24609 0.86132 0 0.84961-0.67968 1.3652-0.67969 0.50976-1.7637 0.50976-0.76172 0-1.3476-0.26953-0.58594-0.26953-0.91992-0.75-0.32813-0.48633-0.32813-1.0488h1.084q0.0293 0.54493 0.4336 0.86719 0.41015 0.31641 1.0781 0.31641 0.61524 0 0.98438-0.2461 0.375-0.25195 0.375-0.66796z"/><path d="m312.18 107.05h-1.084v-9h1.084z"/><path d="m316.55 107.17q-1.2891 0-2.0977-0.84375-0.80859-0.84961-0.80859-2.2676v-0.19922q0-0.94336 0.35742-1.6816 0.36328-0.74414 1.0078-1.1602 0.65039-0.42187 1.4062-0.42187 1.2363 0 1.9219 0.81445t0.68555 2.332v0.45117h-4.2949q0.0234 0.9375 0.54492 1.5176 0.52734 0.57422 1.3359 0.57422 0.57422 0 0.97266-0.23438 0.39844-0.23437 0.69727-0.62109l0.66211 0.51562q-0.79688 1.2246-2.3906 1.2246zm-0.13476-5.6836q-0.65625 0-1.1016 0.48047-0.44531 0.47461-0.55078 1.3359h3.1758v-0.082q-0.0469-0.82618-0.44531-1.2774-0.39844-0.45703-1.0781-0.45703z"/><path d="m322.91 107.17q-1.2891 0-2.0976-0.84375-0.8086-0.84961-0.8086-2.2676v-0.19922q0-0.94336 0.35742-1.6816 0.36329-0.74414 1.0078-1.1602 0.65039-0.42187 1.4062-0.42187 1.2363 0 1.9219 0.81445 0.68555 0.81445 0.68555 2.332v0.45117h-4.2949q0.0234 0.9375 0.54492 1.5176 0.52734 0.57422 1.3359 0.57422 0.57422 0 0.97265-0.23438 0.39844-0.23437 0.69727-0.62109l0.66211 0.51562q-0.79688 1.2246-2.3906 1.2246zm-0.13476-5.6836q-0.65625 0-1.1016 0.48047-0.44531 0.47461-0.55078 1.3359h3.1758v-0.082q-0.0469-0.82618-0.44531-1.2774-0.39844-0.45703-1.0781-0.45703z"/><path d="m328.65 105.58 1.5703-4.8691h1.1074l-2.2734 6.3398h-0.82617l-2.2969-6.3398h1.1074z"/><path d="m334.92 107.17q-1.2891 0-2.0977-0.84375-0.80859-0.84961-0.80859-2.2676v-0.19922q0-0.94336 0.35742-1.6816 0.36328-0.74414 1.0078-1.1602 0.65039-0.42187 1.4062-0.42187 1.2363 0 1.9219 0.81445t0.68555 2.332v0.45117h-4.2949q0.0234 0.9375 0.54492 1.5176 0.52734 0.57422 1.3359 0.57422 0.57422 0 0.97266-0.23438 0.39844-0.23437 0.69727-0.62109l0.66211 0.51562q-0.79688 1.2246-2.3906 1.2246zm-0.13476-5.6836q-0.65625 0-1.1016 0.48047-0.44531 0.47461-0.55078 1.3359h3.1758v-0.082q-0.0469-0.82618-0.44531-1.2774-0.39844-0.45703-1.0781-0.45703z"/></g></g></svg>
