<?xml version="1.0" encoding="UTF-8"?>
<svg width="360" height="241" fill="none" version="1.1" viewBox="0 0 360 241" xmlns="http://www.w3.org/2000/svg"><path d="m11.973 7.1543h-4.3555v11.846h-2.9297v-11.846h-4.2969v-2.373h11.582v2.373zm5.5078-2.373 3.6523 10.313 3.6328-10.313h3.8477v14.219h-2.9395v-3.8867l0.293-6.709-3.8379 10.596h-2.0117l-3.8281-10.586 0.2929 6.6992v3.8867h-2.9297v-14.219h3.8282zm25.43 0v14.219h-2.9395v-11.846h-3.7891l-0.2343 5.0195c-0.0977 1.6927-0.3125 3.0274-0.6446 4.0039-0.332 0.9701-0.817 1.683-1.455 2.1387-0.6381 0.4492-1.5105 0.6771-2.6172 0.6836h-0.7617v-2.3535l0.4882-0.0488c0.7357-0.0977 1.2598-0.5209 1.5723-1.2696 0.319-0.7552 0.5208-2.0963 0.6055-4.0234l0.2441-6.5234h9.5313zm19.072 14.219h-2.8222v-10.879l-3.3692 1.0449v-2.2949l5.8887-2.1094h0.3027v14.238zm12.285-14.365v2.3242h-0.2735c-1.276 0.01954-2.3046 0.35157-3.0859 0.9961-0.7747 0.64453-1.2402 1.5397-1.3965 2.6855 0.7552-0.7682 1.709-1.1523 2.8613-1.1523 1.237 0 2.2201 0.44271 2.9493 1.3281 0.7291 0.8854 1.0937 2.0508 1.0937 3.4961 0 0.9245-0.2018 1.7611-0.6055 2.5098-0.3971 0.7487-0.9635 1.3313-1.6992 1.748-0.7291 0.4167-1.556 0.625-2.4804 0.625-1.4974 0-2.7084-0.5208-3.6329-1.5625-0.9179-1.0417-1.3769-2.4316-1.3769-4.1699v-1.0156c0-1.543 0.2897-2.9037 0.8691-4.0821 0.586-1.1849 1.4226-2.0996 2.5098-2.7441 1.0938-0.65104 2.36-0.97981 3.7988-0.98632h0.4688zm-2.7539 7.1191c-0.4558 0-0.8692 0.1204-1.2403 0.3613-0.3711 0.2344-0.6445 0.5469-0.8203 0.9375v0.8594c0 0.944 0.1856 1.683 0.5567 2.2168 0.3711 0.5273 0.8919 0.791 1.5625 0.791 0.6054 0 1.0937-0.2376 1.4648-0.7129 0.3776-0.4817 0.5664-1.1035 0.5664-1.8652 0-0.7747-0.1888-1.3997-0.5664-1.875s-0.8854-0.7129-1.5234-0.7129zm30.791-3.1934c0 0.6901-0.173 1.3021-0.518 1.836-0.345 0.5338-0.82 0.9603-1.426 1.2793 0.69 0.332 1.237 0.791 1.641 1.3769 0.404 0.5795 0.605 1.2631 0.605 2.0508 0 1.263-0.429 2.2624-1.289 2.9981-0.859 0.7291-2.0276 1.0937-3.5055 1.0937s-2.6497-0.3678-3.5156-1.1035-1.2989-1.7318-1.2989-2.9883c0-0.7877 0.2019-1.4746 0.6055-2.0605 0.4037-0.586 0.9473-1.0417 1.6309-1.3672-0.6055-0.319-1.0808-0.7455-1.4258-1.2793-0.3385-0.53387-0.5078-1.1458-0.5078-1.836 0-1.2109 0.4036-2.1745 1.2109-2.8906 0.8073-0.72265 1.9043-1.084 3.291-1.084 1.3802 0 2.4743 0.35807 3.2813 1.0742 0.814 0.70963 1.221 1.6764 1.221 2.9004zm-2.5296 6.3378c0-0.6185-0.179-1.1132-0.5371-1.4843s-0.8399-0.5567-1.4453-0.5567c-0.599 0-1.0775 0.1856-1.4356 0.5567-0.3581 0.3645-0.5371 0.8593-0.5371 1.4843 0 0.6055 0.1758 1.0938 0.5274 1.4649 0.3515 0.3711 0.8398 0.5566 1.4648 0.5566 0.612 0 1.0905-0.179 1.4355-0.5371 0.3516-0.3581 0.5274-0.8529 0.5274-1.4844zm-0.293-6.2011c0-0.55339-0.1465-0.9961-0.4394-1.3281-0.293-0.33854-0.7064-0.50781-1.2403-0.50781-0.5273 0-0.9375 0.16276-1.2304 0.48828-0.293 0.32552-0.4395 0.77474-0.4395 1.3477 0 0.5664 0.1465 1.0221 0.4395 1.3672 0.2929 0.345 0.7063 0.5175 1.2402 0.5175s0.944-0.1725 1.2305-0.5175c0.2929-0.3451 0.4394-0.80083 0.4394-1.3672zm32.618-4.0625v2.3242h-0.274c-1.276 0.01954-2.305 0.35157-3.086 0.9961-0.775 0.64453-1.24 1.5397-1.396 2.6855 0.755-0.7682 1.709-1.1523 2.861-1.1523 1.237 0 2.22 0.44271 2.949 1.3281 0.729 0.8854 1.094 2.0508 1.094 3.4961 0 0.9245-0.202 1.7611-0.605 2.5098-0.398 0.7487-0.964 1.3313-1.7 1.748-0.729 0.4167-1.556 0.625-2.48 0.625-1.498 0-2.708-0.5208-3.633-1.5625-0.918-1.0417-1.377-2.4316-1.377-4.1699v-1.0156c0-1.543 0.29-2.9037 0.869-4.0821 0.586-1.1849 1.423-2.0996 2.51-2.7441 1.094-0.65104 2.36-0.97981 3.799-0.98632h0.469zm-2.754 7.1191c-0.456 0-0.869 0.1204-1.241 0.3613-0.371 0.2344-0.644 0.5469-0.82 0.9375v0.8594c0 0.944 0.186 1.683 0.557 2.2168 0.371 0.5273 0.892 0.791 1.562 0.791 0.606 0 1.094-0.2376 1.465-0.7129 0.378-0.4817 0.567-1.1035 0.567-1.8652 0-0.7747-0.189-1.3997-0.567-1.875-0.377-0.4753-0.885-0.7129-1.523-0.7129z" fill="#fff"/><g stroke="#fff"><path d="m130 38v16h43"/><path d="m98 38v64h76"/><path d="m68 38v112h106"/><path d="m21 38v160h153"/></g><g fill="#fff"><circle cx="174" cy="102" r="4"/><circle cx="174" cy="54" r="4"/><circle cx="130" cy="38" r="4"/><circle cx="98" cy="38" r="4"/><circle cx="68" cy="38" r="4"/><circle cx="21" cy="38" r="4"/><circle cx="174" cy="150" r="4"/><circle cx="174" cy="198" r="4"/><g aria-label="Shank inner diameter, mm"><path d="m193.55 55.153q-1.4473-0.41602-2.1094-1.0195-0.65625-0.60938-0.65625-1.5 0-1.0078 0.80274-1.6641 0.80859-0.66211 2.0977-0.66211 0.8789 0 1.5644 0.33984 0.6914 0.33984 1.0664 0.9375 0.38086 0.59766 0.38086 1.3066h-1.1309q0-0.77344-0.49218-1.2129-0.49219-0.44531-1.3887-0.44531-0.83204 0-1.3008 0.36914-0.46289 0.36328-0.46289 1.0137 0 0.52148 0.43946 0.88476 0.44531 0.35742 1.5059 0.65625 1.0664 0.29883 1.6641 0.66211 0.60351 0.35742 0.89062 0.83789 0.29297 0.48047 0.29297 1.1309 0 1.0371-0.80859 1.6641-0.8086 0.62109-2.1621 0.62109-0.87891 0-1.6406-0.33398-0.76171-0.33984-1.1777-0.92578-0.41016-0.58594-0.41016-1.3301h1.1309q0 0.77344 0.56836 1.2246 0.57422 0.44531 1.5293 0.44531 0.89062 0 1.3652-0.36328t0.47461-0.99024q0-0.62695-0.43945-0.9668-0.43945-0.3457-1.5938-0.67969z"/><path d="m199.07 53.384q0.7207-0.88477 1.875-0.88477 2.0098 0 2.0273 2.2676v4.1895h-1.084v-4.1953q-6e-3 -0.68555-0.31641-1.0137-0.30468-0.32812-0.95507-0.32812-0.52735 0-0.92579 0.28125-0.39843 0.28125-0.62109 0.73828v4.5176h-1.084v-9h1.084z"/><path d="m208.51 58.956q-0.0937-0.1875-0.15234-0.66797-0.75586 0.78516-1.8047 0.78516-0.9375 0-1.541-0.52734-0.59766-0.5332-0.59766-1.3477 0-0.99023 0.75-1.5352 0.75586-0.55078 2.1211-0.55078h1.0547v-0.49805q0-0.56836-0.33984-0.90234-0.33985-0.33984-1.002-0.33984-0.58008 0-0.97266 0.29297t-0.39258 0.70898h-1.0898q0-0.47461 0.33398-0.91406 0.33985-0.44531 0.91406-0.70312 0.58008-0.25781 1.2715-0.25781 1.0957 0 1.7168 0.55078 0.62109 0.54492 0.64453 1.5059v2.918q0 0.87305 0.22265 1.3887v0.09375zm-1.7988-0.82617q0.50976 0 0.96679-0.26367t0.66211-0.68555v-1.3008h-0.84961q-1.9922 0-1.9922 1.166 0 0.50977 0.33984 0.79688 0.33984 0.28711 0.87305 0.28711z"/><path d="m212.15 52.616 0.0351 0.79688q0.72656-0.91406 1.8984-0.91406 2.0098 0 2.0273 2.2676v4.1895h-1.084v-4.1953q-6e-3 -0.68555-0.31641-1.0137-0.30468-0.32812-0.95508-0.32812-0.52734 0-0.92578 0.28125-0.39843 0.28125-0.62109 0.73828v4.5176h-1.084v-6.3398z"/><path d="m219.52 56.02-0.67969 0.70898v2.2266h-1.084v-9h1.084v5.4434l0.58008-0.69727 1.9746-2.0859h1.3184l-2.4668 2.6484 2.7539 3.6914h-1.2715z"/><path d="m227.98 58.956h-1.084v-6.3398h1.084zm-1.1719-8.0215q0-0.26367 0.15821-0.44531 0.16406-0.18164 0.48046-0.18164 0.31641 0 0.48047 0.18164 0.16407 0.18164 0.16407 0.44531t-0.16407 0.43945q-0.16406 0.17578-0.48047 0.17578-0.3164 0-0.48046-0.17578-0.15821-0.17578-0.15821-0.43945z"/><path d="m230.74 52.616 0.0352 0.79688q0.72656-0.91406 1.8984-0.91406 2.0098 0 2.0273 2.2676v4.1895h-1.084v-4.1953q-6e-3 -0.68555-0.31641-1.0137-0.30469-0.32812-0.95508-0.32812-0.52734 0-0.92578 0.28125t-0.62109 0.73828v4.5176h-1.084v-6.3398z"/><path d="m237.36 52.616 0.0351 0.79688q0.72657-0.91406 1.8984-0.91406 2.0098 0 2.0273 2.2676v4.1895h-1.084v-4.1953q-6e-3 -0.68555-0.31641-1.0137-0.30468-0.32812-0.95507-0.32812-0.52735 0-0.92579 0.28125-0.39843 0.28125-0.62109 0.73828v4.5176h-1.084v-6.3398z"/><path d="m245.59 59.073q-1.2891 0-2.0977-0.84375-0.80859-0.84961-0.80859-2.2676v-0.19922q0-0.94336 0.35742-1.6816 0.36328-0.74414 1.0078-1.1602 0.65039-0.42188 1.4062-0.42188 1.2363 0 1.9219 0.81445t0.68555 2.332v0.45117h-4.2949q0.0234 0.9375 0.54493 1.5176 0.52734 0.57422 1.3359 0.57422 0.57422 0 0.97266-0.23438t0.69727-0.62109l0.6621 0.51562q-0.79687 1.2246-2.3906 1.2246zm-0.13477-5.6836q-0.65625 0-1.1016 0.48047-0.44531 0.47461-0.55078 1.3359h3.1758v-0.08203q-0.0469-0.82617-0.44531-1.2773-0.39844-0.45703-1.0781-0.45703z"/><path d="m252.38 53.589q-0.2461-0.04102-0.53321-0.04102-1.0664 0-1.4473 0.9082v4.5h-1.084v-6.3398h1.0547l0.0176 0.73242q0.5332-0.84961 1.5117-0.84961 0.3164 0 0.48047 0.08203z"/><path d="m256.08 55.733q0-1.459 0.69141-2.3438 0.6914-0.89062 1.8105-0.89062 1.1133 0 1.7637 0.76172v-3.3047h1.084v9h-0.99609l-0.0527-0.67969q-0.65039 0.79688-1.8106 0.79688-1.1016 0-1.7988-0.90234-0.69141-0.90234-0.69141-2.3555zm1.084 0.12305q0 1.0781 0.44532 1.6875 0.44531 0.60938 1.2305 0.60938 1.0312 0 1.5059-0.92578v-2.9121q-0.48633-0.89648-1.4942-0.89648-0.79687 0-1.2422 0.61523-0.44532 0.61524-0.44532 1.8223z"/><path d="m264.29 58.956h-1.084v-6.3398h1.084zm-1.1719-8.0215q0-0.26367 0.1582-0.44531 0.16407-0.18164 0.48047-0.18164 0.31641 0 0.48047 0.18164 0.16406 0.18164 0.16406 0.44531t-0.16406 0.43945-0.48047 0.17578q-0.3164 0-0.48047-0.17578-0.1582-0.17578-0.1582-0.43945z"/><path d="m269.94 58.956q-0.0937-0.1875-0.15234-0.66797-0.75586 0.78516-1.8047 0.78516-0.9375 0-1.541-0.52734-0.59766-0.5332-0.59766-1.3477 0-0.99023 0.75-1.5352 0.75586-0.55078 2.1211-0.55078h1.0547v-0.49805q0-0.56836-0.33984-0.90234-0.33985-0.33984-1.002-0.33984-0.58007 0-0.97265 0.29297t-0.39258 0.70898h-1.0898q0-0.47461 0.33398-0.91406 0.33984-0.44531 0.91406-0.70312 0.58008-0.25781 1.2715-0.25781 1.0957 0 1.7168 0.55078 0.6211 0.54492 0.64453 1.5059v2.918q0 0.87305 0.22266 1.3887v0.09375zm-1.7988-0.82617q0.50977 0 0.9668-0.26367t0.66211-0.68555v-1.3008h-0.84961q-1.9922 0-1.9922 1.166 0 0.50977 0.33985 0.79688 0.33984 0.28711 0.87304 0.28711z"/><path d="m273.57 52.616 0.0293 0.70312q0.69727-0.82031 1.8809-0.82031 1.3301 0 1.8106 1.0195 0.3164-0.45703 0.82031-0.73828 0.50977-0.28125 1.2012-0.28125 2.0859 0 2.1211 2.209v4.248h-1.084v-4.1836q0-0.67969-0.31055-1.0137-0.31054-0.33984-1.043-0.33984-0.60352 0-1.002 0.36328-0.39843 0.35742-0.46289 0.9668v4.207h-1.0898v-4.1543q0-1.3828-1.3535-1.3828-1.0664 0-1.459 0.9082v4.6289h-1.084v-6.3398z"/><path d="m285.7 59.073q-1.2891 0-2.0977-0.84375-0.80859-0.84961-0.80859-2.2676v-0.19922q0-0.94336 0.35742-1.6816 0.36328-0.74414 1.0078-1.1602 0.65039-0.42188 1.4062-0.42188 1.2363 0 1.9219 0.81445t0.68555 2.332v0.45117h-4.2949q0.0234 0.9375 0.54492 1.5176 0.52734 0.57422 1.3359 0.57422 0.57422 0 0.97266-0.23438t0.69727-0.62109l0.66211 0.51562q-0.79688 1.2246-2.3906 1.2246zm-0.13476-5.6836q-0.65625 0-1.1016 0.48047-0.44531 0.47461-0.55078 1.3359h3.1758v-0.08203q-0.0469-0.82617-0.44531-1.2773-0.39844-0.45703-1.0781-0.45703z"/><path d="m290.9 51.081v1.5352h1.1836v0.83789h-1.1836v3.9316q0 0.38086 0.1582 0.57422 0.1582 0.1875 0.53906 0.1875 0.1875 0 0.51563-0.07031v0.87891q-0.42774 0.11719-0.83203 0.11719-0.72657 0-1.0957-0.43945t-0.36914-1.248v-3.9316h-1.1543v-0.83789h1.1543v-1.5352z"/><path d="m295.98 59.073q-1.2891 0-2.0976-0.84375-0.8086-0.84961-0.8086-2.2676v-0.19922q0-0.94336 0.35743-1.6816 0.36328-0.74414 1.0078-1.1602 0.65039-0.42188 1.4062-0.42188 1.2363 0 1.9219 0.81445 0.68555 0.81445 0.68555 2.332v0.45117h-4.2949q0.0234 0.9375 0.54492 1.5176 0.52734 0.57422 1.3359 0.57422 0.57422 0 0.97265-0.23438 0.39844-0.23438 0.69727-0.62109l0.66211 0.51562q-0.79688 1.2246-2.3906 1.2246zm-0.13476-5.6836q-0.65625 0-1.1016 0.48047-0.44532 0.47461-0.55078 1.3359h3.1758v-0.08203q-0.0469-0.82617-0.44532-1.2773-0.39843-0.45703-1.0781-0.45703z"/><path d="m302.77 53.589q-0.24609-0.04102-0.5332-0.04102-1.0664 0-1.4473 0.9082v4.5h-1.084v-6.3398h1.0547l0.0176 0.73242q0.53321-0.84961 1.5117-0.84961 0.31641 0 0.48047 0.08203z"/><path d="m303.01 60.655-0.61523-0.42188q0.55078-0.76758 0.57422-1.582v-0.97852h1.0606v0.84961q0 0.5918-0.29297 1.1836-0.28711 0.5918-0.72657 0.94922z"/><path d="m309.39 52.616 0.0293 0.70312q0.69727-0.82031 1.8809-0.82031 1.3301 0 1.8106 1.0195 0.3164-0.45703 0.82031-0.73828 0.50977-0.28125 1.2012-0.28125 2.0859 0 2.1211 2.209v4.248h-1.084v-4.1836q0-0.67969-0.31055-1.0137-0.31054-0.33984-1.043-0.33984-0.60352 0-1.002 0.36328-0.39844 0.35742-0.46289 0.9668v4.207h-1.0898v-4.1543q0-1.3828-1.3535-1.3828-1.0664 0-1.459 0.9082v4.6289h-1.084v-6.3398z"/><path d="m319.91 52.616 0.0293 0.70312q0.69726-0.82031 1.8809-0.82031 1.3301 0 1.8106 1.0195 0.3164-0.45703 0.82031-0.73828 0.50976-0.28125 1.2012-0.28125 2.0859 0 2.1211 2.209v4.248h-1.084v-4.1836q0-0.67969-0.31055-1.0137-0.31054-0.33984-1.043-0.33984-0.60351 0-1.002 0.36328-0.39844 0.35742-0.46289 0.9668v4.207h-1.0898v-4.1543q0-1.3828-1.3535-1.3828-1.0664 0-1.459 0.9082v4.6289h-1.084v-6.3398z"/></g><g aria-label="Bolt hole diameter, mm"><path d="m191.04 106.83v-8.5312h2.7891q1.3887 0 2.0859 0.57422 0.70312 0.57422 0.70312 1.6992 0 0.59765-0.33984 1.0605-0.33984 0.45704-0.92578 0.70899 0.6914 0.19336 1.0898 0.73828 0.4043 0.53906 0.4043 1.2891 0 1.1484-0.74414 1.8047t-2.1035 0.65625zm1.125-3.9902v3.0703h1.8574q0.78516 0 1.2363-0.4043 0.45703-0.41015 0.45703-1.125 0-1.541-1.6758-1.541zm0-0.90235h1.6992q0.73828 0 1.1777-0.36914 0.44531-0.36914 0.44531-1.002 0-0.70313-0.41015-1.0195-0.41016-0.32227-1.248-0.32227h-1.6641z"/><path d="m198.05 103.6q0-0.93164 0.36328-1.6758 0.36914-0.74414 1.0195-1.1484 0.65625-0.4043 1.4941-0.4043 1.2949 0 2.0918 0.89648 0.80273 0.89649 0.80273 2.3848v0.0762q0 0.92578-0.35742 1.6641-0.35156 0.73243-1.0137 1.1426-0.65625 0.41016-1.5117 0.41016-1.2891 0-2.0918-0.89649-0.79687-0.89648-0.79687-2.373zm1.0898 0.12891q0 1.0547 0.48633 1.6934 0.49219 0.63867 1.3125 0.63867 0.82617 0 1.3125-0.64453 0.48633-0.65039 0.48633-1.8164 0-1.043-0.49805-1.6875-0.49218-0.65039-1.3125-0.65039-0.80273 0-1.2949 0.63868-0.49219 0.63867-0.49219 1.8281z"/><path d="m206.36 106.83h-1.084v-9h1.084z"/><path d="m209.57 98.958v1.5352h1.1836v0.83789h-1.1836v3.9316q0 0.38086 0.1582 0.57422 0.15821 0.1875 0.53907 0.1875 0.1875 0 0.51562-0.0703v0.87891q-0.42773 0.11719-0.83203 0.11719-0.72656 0-1.0957-0.43946-0.36914-0.43945-0.36914-1.248v-3.9316h-1.1543v-0.83789h1.1543v-1.5352z"/><path d="m216.07 101.26q0.7207-0.88476 1.875-0.88476 2.0098 0 2.0273 2.2676v4.1894h-1.084v-4.1953q-6e-3 -0.68555-0.31641-1.0137-0.30469-0.32813-0.95508-0.32813-0.52734 0-0.92578 0.28125t-0.62109 0.73828v4.5176h-1.084v-9h1.084z"/><path d="m221.31 103.6q0-0.93164 0.36328-1.6758 0.36914-0.74414 1.0195-1.1484 0.65625-0.4043 1.4941-0.4043 1.2949 0 2.0918 0.89648 0.80273 0.89649 0.80273 2.3848v0.0762q0 0.92578-0.35742 1.6641-0.35156 0.73243-1.0137 1.1426-0.65625 0.41016-1.5117 0.41016-1.2891 0-2.0918-0.89649-0.79687-0.89648-0.79687-2.373zm1.0898 0.12891q0 1.0547 0.48633 1.6934 0.49219 0.63867 1.3125 0.63867 0.82617 0 1.3125-0.64453 0.48633-0.65039 0.48633-1.8164 0-1.043-0.49805-1.6875-0.49219-0.65039-1.3125-0.65039-0.80273 0-1.2949 0.63868-0.49219 0.63867-0.49219 1.8281z"/><path d="m229.62 106.83h-1.084v-9h1.084z"/><path d="m233.98 106.95q-1.2891 0-2.0977-0.84375-0.80859-0.84961-0.80859-2.2676v-0.19922q0-0.94336 0.35742-1.6816 0.36328-0.74414 1.0078-1.1602 0.65039-0.42187 1.4062-0.42187 1.2363 0 1.9219 0.81445 0.68554 0.81446 0.68554 2.332v0.45118h-4.2949q0.0234 0.9375 0.54492 1.5176 0.52735 0.57422 1.3359 0.57422 0.57422 0 0.97266-0.23437 0.39843-0.23438 0.69726-0.6211l0.66211 0.51563q-0.79687 1.2246-2.3906 1.2246zm-0.13477-5.6836q-0.65625 0-1.1016 0.48047-0.44531 0.47461-0.55078 1.3359h3.1758v-0.082q-0.0469-0.82617-0.44531-1.2773-0.39844-0.45704-1.0781-0.45704z"/><path d="m240.42 103.61q0-1.459 0.69141-2.3438 0.6914-0.89062 1.8105-0.89062 1.1133 0 1.7637 0.76172v-3.3047h1.084v9h-0.99609l-0.0527-0.67969q-0.65039 0.79688-1.8105 0.79688-1.1016 0-1.7988-0.90235-0.69141-0.90234-0.69141-2.3555zm1.084 0.12305q0 1.0781 0.44531 1.6875 0.44531 0.60938 1.2305 0.60938 1.0312 0 1.5059-0.92579v-2.9121q-0.48633-0.89649-1.4941-0.89649-0.79688 0-1.2422 0.61524-0.44531 0.61523-0.44531 1.8223z"/><path d="m248.63 106.83h-1.084v-6.3398h1.084zm-1.1719-8.0215q0-0.26367 0.1582-0.44531 0.16407-0.18164 0.48047-0.18164 0.31641 0 0.48047 0.18164 0.16406 0.18164 0.16406 0.44531t-0.16406 0.43945-0.48047 0.17578q-0.3164 0-0.48047-0.17578-0.1582-0.17578-0.1582-0.43945z"/><path d="m254.27 106.83q-0.0937-0.1875-0.15234-0.66797-0.75586 0.78516-1.8047 0.78516-0.9375 0-1.541-0.52735-0.59766-0.5332-0.59766-1.3476 0-0.99024 0.75-1.5352 0.75586-0.55078 2.1211-0.55078h1.0547v-0.49805q0-0.56836-0.33984-0.90234-0.33985-0.33984-1.002-0.33984-0.58007 0-0.97265 0.29296-0.39258 0.29297-0.39258 0.70899h-1.0898q0-0.47461 0.33398-0.91406 0.33984-0.44532 0.91406-0.70313 0.58008-0.25781 1.2715-0.25781 1.0957 0 1.7168 0.55078 0.6211 0.54492 0.64454 1.5059v2.918q0 0.87305 0.22265 1.3887v0.0937zm-1.7988-0.82617q0.50977 0 0.9668-0.26367 0.45703-0.26368 0.66211-0.68555v-1.3008h-0.84961q-1.9922 0-1.9922 1.166 0 0.50977 0.33985 0.79688 0.33984 0.28711 0.87304 0.28711z"/><path d="m257.91 100.49 0.0293 0.70312q0.69727-0.82031 1.8809-0.82031 1.3301 0 1.8106 1.0195 0.3164-0.45703 0.82031-0.73828 0.50977-0.28125 1.2012-0.28125 2.0859 0 2.1211 2.209v4.248h-1.084v-4.1836q0-0.67969-0.31054-1.0137-0.31055-0.33984-1.043-0.33984-0.60352 0-1.002 0.36328-0.39843 0.35742-0.46289 0.9668v4.207h-1.0898v-4.1543q0-1.3828-1.3535-1.3828-1.0664 0-1.459 0.9082v4.6289h-1.084v-6.3398z"/><path d="m270.04 106.95q-1.2891 0-2.0976-0.84375-0.8086-0.84961-0.8086-2.2676v-0.19922q0-0.94336 0.35742-1.6816 0.36328-0.74414 1.0078-1.1602 0.65039-0.42187 1.4062-0.42187 1.2363 0 1.9219 0.81445 0.68555 0.81446 0.68555 2.332v0.45118h-4.2949q0.0234 0.9375 0.54492 1.5176 0.52734 0.57422 1.3359 0.57422 0.57421 0 0.97265-0.23437 0.39844-0.23438 0.69727-0.6211l0.66211 0.51563q-0.79688 1.2246-2.3906 1.2246zm-0.13476-5.6836q-0.65625 0-1.1016 0.48047-0.44531 0.47461-0.55078 1.3359h3.1758v-0.082q-0.0469-0.82617-0.44531-1.2773-0.39844-0.45704-1.0781-0.45704z"/><path d="m275.23 98.958v1.5352h1.1836v0.83789h-1.1836v3.9316q0 0.38086 0.1582 0.57422 0.1582 0.1875 0.53906 0.1875 0.1875 0 0.51563-0.0703v0.87891q-0.42774 0.11719-0.83203 0.11719-0.72657 0-1.0957-0.43946-0.36914-0.43945-0.36914-1.248v-3.9316h-1.1543v-0.83789h1.1543v-1.5352z"/><path d="m280.31 106.95q-1.2891 0-2.0977-0.84375-0.80859-0.84961-0.80859-2.2676v-0.19922q0-0.94336 0.35742-1.6816 0.36328-0.74414 1.0078-1.1602 0.65039-0.42187 1.4062-0.42187 1.2363 0 1.9219 0.81445 0.68555 0.81446 0.68555 2.332v0.45118h-4.2949q0.0234 0.9375 0.54492 1.5176 0.52735 0.57422 1.3359 0.57422 0.57422 0 0.97266-0.23437 0.39843-0.23438 0.69726-0.6211l0.66211 0.51563q-0.79687 1.2246-2.3906 1.2246zm-0.13477-5.6836q-0.65625 0-1.1016 0.48047-0.44532 0.47461-0.55078 1.3359h3.1758v-0.082q-0.0469-0.82617-0.44532-1.2773-0.39843-0.45704-1.0781-0.45704z"/><path d="m287.11 101.47q-0.24609-0.041-0.5332-0.041-1.0664 0-1.4473 0.9082v4.5h-1.084v-6.3398h1.0547l0.0176 0.73242q0.53321-0.84961 1.5117-0.84961 0.31641 0 0.48047 0.082z"/><path d="m287.35 108.53-0.61524-0.42188q0.55078-0.76757 0.57422-1.582v-0.97851h1.0606v0.84961q0 0.59179-0.29297 1.1836-0.28711 0.5918-0.72656 0.94922z"/><path d="m293.73 100.49 0.0293 0.70312q0.69727-0.82031 1.8809-0.82031 1.3301 0 1.8106 1.0195 0.3164-0.45703 0.82031-0.73828 0.50977-0.28125 1.2012-0.28125 2.0859 0 2.1211 2.209v4.248h-1.084v-4.1836q0-0.67969-0.31055-1.0137-0.31054-0.33984-1.043-0.33984-0.60352 0-1.002 0.36328-0.39843 0.35742-0.46289 0.9668v4.207h-1.0898v-4.1543q0-1.3828-1.3535-1.3828-1.0664 0-1.459 0.9082v4.6289h-1.084v-6.3398z"/><path d="m304.24 100.49 0.0293 0.70312q0.69727-0.82031 1.8809-0.82031 1.3301 0 1.8106 1.0195 0.3164-0.45703 0.82031-0.73828 0.50976-0.28125 1.2012-0.28125 2.0859 0 2.1211 2.209v4.248h-1.084v-4.1836q0-0.67969-0.31055-1.0137-0.31054-0.33984-1.043-0.33984-0.60351 0-1.002 0.36328-0.39844 0.35742-0.46289 0.9668v4.207h-1.0898v-4.1543q0-1.3828-1.3535-1.3828-1.0664 0-1.459 0.9082v4.6289h-1.084v-6.3398z"/></g><g aria-label="Connected conductor cross-section, mm²"><path d="m197.32 152.33q-0.1582 1.3535-1.002 2.0918-0.8379 0.73242-2.2324 0.73242-1.5117 0-2.4258-1.084-0.9082-1.084-0.9082-2.9004v-0.82031q0-1.1895 0.42187-2.0918 0.42774-0.90234 1.207-1.3828 0.77929-0.48633 1.8047-0.48633 1.3594 0 2.1797 0.76172 0.82031 0.75586 0.95508 2.0976h-1.1309q-0.14649-1.0195-0.63867-1.4766-0.48633-0.45703-1.3652-0.45703-1.0781 0-1.6934 0.79688-0.60937 0.79687-0.60937 2.2676v0.82618q0 1.3887 0.58008 2.209 0.58007 0.82031 1.623 0.82031 0.9375 0 1.4356-0.42187 0.50391-0.42774 0.66797-1.4824z"/><path d="m198.39 151.8q0-0.93164 0.36328-1.6758 0.36915-0.74414 1.0195-1.1484 0.65625-0.40429 1.4941-0.40429 1.2949 0 2.0918 0.89648 0.80274 0.89648 0.80274 2.3848v0.0762q0 0.92578-0.35742 1.6641-0.35157 0.73242-1.0137 1.1426-0.65625 0.41015-1.5117 0.41015-1.2891 0-2.0918-0.89648-0.79688-0.89648-0.79688-2.373zm1.0898 0.12891q0 1.0547 0.48633 1.6934 0.49218 0.63867 1.3125 0.63867 0.82617 0 1.3125-0.64453 0.48632-0.65039 0.48632-1.8164 0-1.043-0.49804-1.6875-0.49219-0.65039-1.3125-0.65039-0.80274 0-1.2949 0.63867-0.49218 0.63867-0.49218 1.8281z"/><path d="m206.55 148.69 0.0352 0.79688q0.72656-0.91406 1.8984-0.91406 2.0098 0 2.0273 2.2676v4.1895h-1.084v-4.1953q-6e-3 -0.68554-0.31641-1.0137-0.30469-0.32812-0.95508-0.32812-0.52734 0-0.92578 0.28125t-0.62109 0.73828v4.5176h-1.084v-6.3398z"/><path d="m213.17 148.69 0.0351 0.79688q0.72657-0.91406 1.8984-0.91406 2.0098 0 2.0273 2.2676v4.1895h-1.084v-4.1953q-6e-3 -0.68554-0.31641-1.0137-0.30468-0.32812-0.95507-0.32812-0.52735 0-0.92579 0.28125-0.39843 0.28125-0.62109 0.73828v4.5176h-1.084v-6.3398z"/><path d="m221.4 155.15q-1.2891 0-2.0977-0.84375-0.80859-0.8496-0.80859-2.2676v-0.19922q0-0.94336 0.35742-1.6816 0.36328-0.74414 1.0078-1.1602 0.65039-0.42187 1.4062-0.42187 1.2363 0 1.9219 0.81445t0.68555 2.332v0.45117h-4.2949q0.0234 0.9375 0.54493 1.5176 0.52734 0.57422 1.3359 0.57422 0.57422 0 0.97266-0.23438 0.39844-0.23437 0.69727-0.62109l0.6621 0.51563q-0.79687 1.2246-2.3906 1.2246zm-0.13477-5.6836q-0.65625 0-1.1016 0.48047-0.44531 0.47461-0.55078 1.3359h3.1758v-0.082q-0.0469-0.82618-0.44531-1.2774-0.39844-0.45703-1.0781-0.45703z"/><path d="m227.67 154.26q0.58008 0 1.0137-0.35156 0.4336-0.35157 0.48047-0.87891h1.0254q-0.0293 0.54492-0.375 1.0371t-0.92578 0.78516q-0.57422 0.29296-1.2188 0.29296-1.2949 0-2.0625-0.86132-0.76172-0.86719-0.76172-2.3672v-0.18164q0-0.92578 0.33985-1.6465 0.33984-0.7207 0.97265-1.1191 0.63867-0.39843 1.5059-0.39843 1.0664 0 1.7695 0.63867 0.70899 0.63867 0.75586 1.6582h-1.0254q-0.0469-0.61523-0.46875-1.0078-0.41601-0.39844-1.0312-0.39844-0.82617 0-1.2832 0.59766-0.45117 0.59179-0.45117 1.7168v0.20508q0 1.0957 0.45117 1.6875 0.45117 0.5918 1.2891 0.5918z"/><path d="m232.88 147.16v1.5352h1.1836v0.83789h-1.1836v3.9316q0 0.38086 0.1582 0.57422 0.1582 0.1875 0.53906 0.1875 0.1875 0 0.51563-0.0703v0.87891q-0.42774 0.11718-0.83204 0.11718-0.72656 0-1.0957-0.43945t-0.36914-1.248v-3.9316h-1.1543v-0.83789h1.1543v-1.5352z"/><path d="m237.96 155.15q-1.2891 0-2.0976-0.84375-0.8086-0.8496-0.8086-2.2676v-0.19922q0-0.94336 0.35743-1.6816 0.36328-0.74414 1.0078-1.1602 0.65039-0.42187 1.4062-0.42187 1.2363 0 1.9219 0.81445 0.68555 0.81445 0.68555 2.332v0.45117h-4.2949q0.0234 0.9375 0.54492 1.5176 0.52734 0.57422 1.3359 0.57422 0.57422 0 0.97265-0.23438 0.39844-0.23437 0.69727-0.62109l0.66211 0.51563q-0.79688 1.2246-2.3906 1.2246zm-0.13476-5.6836q-0.65625 0-1.1016 0.48047-0.44532 0.47461-0.55079 1.3359h3.1758v-0.082q-0.0469-0.82618-0.44532-1.2774-0.39843-0.45703-1.0781-0.45703z"/><path d="m241.42 151.81q0-1.459 0.69141-2.3438 0.69141-0.89062 1.8106-0.89062 1.1133 0 1.7637 0.76171v-3.3047h1.084v9h-0.99609l-0.0527-0.67969q-0.6504 0.79687-1.8106 0.79687-1.1016 0-1.7988-0.90234-0.69141-0.90234-0.69141-2.3555zm1.084 0.12305q0 1.0781 0.44531 1.6875 0.44531 0.60937 1.2305 0.60937 1.0312 0 1.5059-0.92578v-2.9121q-0.48633-0.89648-1.4941-0.89648-0.79688 0-1.2422 0.61523-0.44531 0.61524-0.44531 1.8223z"/><path d="m253.96 154.26q0.58007 0 1.0137-0.35156 0.43359-0.35157 0.48047-0.87891h1.0254q-0.0293 0.54492-0.375 1.0371-0.34571 0.49219-0.92578 0.78516-0.57422 0.29296-1.2188 0.29296-1.2949 0-2.0625-0.86132-0.76172-0.86719-0.76172-2.3672v-0.18164q0-0.92578 0.33984-1.6465 0.33984-0.7207 0.97266-1.1191 0.63867-0.39843 1.5059-0.39843 1.0664 0 1.7695 0.63867 0.70898 0.63867 0.75586 1.6582h-1.0254q-0.0469-0.61523-0.46875-1.0078-0.41602-0.39844-1.0312-0.39844-0.82618 0-1.2832 0.59766-0.45117 0.59179-0.45117 1.7168v0.20508q0 1.0957 0.45117 1.6875 0.45118 0.5918 1.2891 0.5918z"/><path d="m257.42 151.8q0-0.93164 0.36328-1.6758 0.36914-0.74414 1.0195-1.1484 0.65625-0.40429 1.4941-0.40429 1.2949 0 2.0918 0.89648 0.80273 0.89648 0.80273 2.3848v0.0762q0 0.92578-0.35742 1.6641-0.35156 0.73242-1.0137 1.1426-0.65625 0.41015-1.5117 0.41015-1.2891 0-2.0918-0.89648-0.79687-0.89648-0.79687-2.373zm1.0898 0.12891q0 1.0547 0.48633 1.6934 0.49219 0.63867 1.3125 0.63867 0.82617 0 1.3125-0.64453 0.48633-0.65039 0.48633-1.8164 0-1.043-0.49805-1.6875-0.49219-0.65039-1.3125-0.65039-0.80273 0-1.2949 0.63867t-0.49219 1.8281z"/><path d="m265.57 148.69 0.0351 0.79688q0.72657-0.91406 1.8984-0.91406 2.0098 0 2.0274 2.2676v4.1895h-1.084v-4.1953q-6e-3 -0.68554-0.31641-1.0137-0.30468-0.32812-0.95507-0.32812-0.52735 0-0.92578 0.28125-0.39844 0.28125-0.6211 0.73828v4.5176h-1.084v-6.3398z"/><path d="m270.9 151.81q0-1.459 0.69141-2.3438 0.6914-0.89062 1.8105-0.89062 1.1133 0 1.7637 0.76171v-3.3047h1.084v9h-0.9961l-0.0527-0.67969q-0.65039 0.79687-1.8106 0.79687-1.1016 0-1.7988-0.90234-0.69141-0.90234-0.69141-2.3555zm1.084 0.12305q0 1.0781 0.44532 1.6875 0.44531 0.60937 1.2305 0.60937 1.0312 0 1.5059-0.92578v-2.9121q-0.48632-0.89648-1.4941-0.89648-0.79687 0-1.2422 0.61523-0.44532 0.61524-0.44532 1.8223z"/><path d="m281.85 154.41q-0.63281 0.74414-1.8574 0.74414-1.0137 0-1.5469-0.58593-0.52734-0.5918-0.5332-1.7461v-4.125h1.084v4.0957q0 1.4414 1.1719 1.4414 1.2422 0 1.6523-0.92578v-4.6113h1.084v6.3398h-1.0312z"/><path d="m287.09 154.26q0.58008 0 1.0137-0.35156 0.4336-0.35157 0.48047-0.87891h1.0254q-0.0293 0.54492-0.375 1.0371t-0.92578 0.78516q-0.57422 0.29296-1.2188 0.29296-1.2949 0-2.0625-0.86132-0.76172-0.86719-0.76172-2.3672v-0.18164q0-0.92578 0.33985-1.6465 0.33984-0.7207 0.97265-1.1191 0.63868-0.39843 1.5059-0.39843 1.0664 0 1.7695 0.63867 0.70899 0.63867 0.75586 1.6582h-1.0254q-0.0469-0.61523-0.46875-1.0078-0.41601-0.39844-1.0312-0.39844-0.82617 0-1.2832 0.59766-0.45117 0.59179-0.45117 1.7168v0.20508q0 1.0957 0.45117 1.6875 0.45117 0.5918 1.2891 0.5918z"/><path d="m292.3 147.16v1.5352h1.1836v0.83789h-1.1836v3.9316q0 0.38086 0.1582 0.57422 0.1582 0.1875 0.53906 0.1875 0.1875 0 0.51563-0.0703v0.87891q-0.42774 0.11718-0.83203 0.11718-0.72657 0-1.0957-0.43945t-0.36914-1.248v-3.9316h-1.1543v-0.83789h1.1543v-1.5352z"/><path d="m294.35 151.8q0-0.93164 0.36328-1.6758 0.36914-0.74414 1.0195-1.1484 0.65625-0.40429 1.4941-0.40429 1.2949 0 2.0918 0.89648 0.80273 0.89648 0.80273 2.3848v0.0762q0 0.92578-0.35742 1.6641-0.35156 0.73242-1.0137 1.1426-0.65625 0.41015-1.5117 0.41015-1.2891 0-2.0918-0.89648-0.79687-0.89648-0.79687-2.373zm1.0898 0.12891q0 1.0547 0.48633 1.6934 0.49219 0.63867 1.3125 0.63867 0.82617 0 1.3125-0.64453 0.48633-0.65039 0.48633-1.8164 0-1.043-0.49805-1.6875-0.49219-0.65039-1.3125-0.65039-0.80273 0-1.2949 0.63867t-0.49219 1.8281z"/><path d="m304.54 149.67q-0.24609-0.041-0.5332-0.041-1.0664 0-1.4473 0.90821v4.5h-1.084v-6.3398h1.0547l0.0176 0.73243q0.53321-0.84961 1.5117-0.84961 0.31641 0 0.48047 0.082z"/><path d="m193.41 169.38q0.58008 0 1.0137-0.35157 0.43359-0.35156 0.48047-0.8789h1.0254q-0.0293 0.54492-0.375 1.0371-0.34571 0.49218-0.92579 0.78515-0.57421 0.29297-1.2188 0.29297-1.2949 0-2.0625-0.86133-0.76171-0.86718-0.76171-2.3672v-0.18164q0-0.92579 0.33984-1.6465t0.97266-1.1191q0.63867-0.39844 1.5059-0.39844 1.0664 0 1.7695 0.63868 0.70898 0.63867 0.75586 1.6582h-1.0254q-0.0469-0.61524-0.46875-1.0078-0.41602-0.39844-1.0312-0.39844-0.82618 0-1.2832 0.59765-0.45117 0.5918-0.45117 1.7168v0.20508q0 1.0957 0.45117 1.6875t1.2891 0.5918z"/><path d="m200.22 164.78q-0.24609-0.041-0.5332-0.041-1.0664 0-1.4473 0.9082v4.5h-1.084v-6.3398h1.0547l0.0176 0.73242q0.5332-0.84961 1.5117-0.84961 0.31641 0 0.48047 0.082z"/><path d="m200.81 166.92q0-0.93164 0.36328-1.6758 0.36914-0.74414 1.0195-1.1484 0.65625-0.4043 1.4941-0.4043 1.2949 0 2.0918 0.89649 0.80273 0.89648 0.80273 2.3848v0.0762q0 0.92578-0.35742 1.6641-0.35156 0.73242-1.0137 1.1426-0.65625 0.41015-1.5117 0.41015-1.2891 0-2.0918-0.89648-0.79687-0.89649-0.79687-2.373zm1.0898 0.12891q0 1.0547 0.48633 1.6934 0.49219 0.63868 1.3125 0.63868 0.82617 0 1.3125-0.64453 0.48633-0.6504 0.48633-1.8164 0-1.043-0.49805-1.6875-0.49219-0.65039-1.3125-0.65039-0.80274 0-1.2949 0.63867-0.49219 0.63867-0.49219 1.8281z"/><path d="m211.63 168.47q0-0.43945-0.33398-0.67968-0.32813-0.2461-1.1543-0.42188-0.82031-0.17578-1.3066-0.42187-0.48047-0.2461-0.71484-0.58594-0.22852-0.33984-0.22852-0.80859 0-0.7793 0.65625-1.3184 0.66211-0.53907 1.6875-0.53907 1.0781 0 1.7461 0.55664 0.67383 0.55664 0.67383 1.4238h-1.0898q0-0.44531-0.38086-0.76758-0.375-0.32226-0.94922-0.32226-0.5918 0-0.92578 0.25781-0.33399 0.25781-0.33399 0.67383 0 0.39258 0.31055 0.5918 0.31055 0.19921 1.1191 0.38086 0.81446 0.18164 1.3184 0.43359 0.50391 0.25195 0.74414 0.60937 0.2461 0.35157 0.2461 0.86133 0 0.84961-0.67969 1.3652-0.67969 0.50976-1.7637 0.50976-0.76172 0-1.3477-0.26953t-0.91992-0.75q-0.32813-0.48633-0.32813-1.0488h1.084q0.0293 0.54492 0.43359 0.86719 0.41016 0.31641 1.0781 0.31641 0.61523 0 0.98437-0.2461 0.375-0.25195 0.375-0.66797z"/><path d="m217.82 168.47q0-0.43945-0.33398-0.67968-0.32813-0.2461-1.1543-0.42188-0.82031-0.17578-1.3066-0.42187-0.48047-0.2461-0.71484-0.58594-0.22852-0.33984-0.22852-0.80859 0-0.7793 0.65625-1.3184 0.66211-0.53907 1.6875-0.53907 1.0781 0 1.7461 0.55664 0.67383 0.55664 0.67383 1.4238h-1.0898q0-0.44531-0.38086-0.76758-0.375-0.32226-0.94922-0.32226-0.5918 0-0.92578 0.25781-0.33399 0.25781-0.33399 0.67383 0 0.39258 0.31055 0.5918 0.31055 0.19921 1.1191 0.38086 0.81446 0.18164 1.3184 0.43359 0.50391 0.25195 0.74414 0.60937 0.2461 0.35157 0.2461 0.86133 0 0.84961-0.67969 1.3652-0.67969 0.50976-1.7637 0.50976-0.76172 0-1.3477-0.26953t-0.91992-0.75q-0.32813-0.48633-0.32813-1.0488h1.084q0.0293 0.54492 0.43359 0.86719 0.41016 0.31641 1.0781 0.31641 0.61523 0 0.98437-0.2461 0.375-0.25195 0.375-0.66797z"/><path d="m222.57 166.97h-2.8594v-0.88476h2.8594z"/><path d="m227.32 168.47q0-0.43945-0.33399-0.67968-0.32812-0.2461-1.1543-0.42188-0.82032-0.17578-1.3066-0.42187-0.48047-0.2461-0.71485-0.58594-0.22851-0.33984-0.22851-0.80859 0-0.7793 0.65625-1.3184 0.66211-0.53907 1.6875-0.53907 1.0781 0 1.7461 0.55664 0.67383 0.55664 0.67383 1.4238h-1.0898q0-0.44531-0.38086-0.76758-0.375-0.32226-0.94922-0.32226-0.5918 0-0.92578 0.25781-0.33399 0.25781-0.33399 0.67383 0 0.39258 0.31055 0.5918 0.31055 0.19921 1.1191 0.38086 0.81445 0.18164 1.3184 0.43359 0.5039 0.25195 0.74414 0.60937 0.24609 0.35157 0.24609 0.86133 0 0.84961-0.67968 1.3652-0.67969 0.50976-1.7637 0.50976-0.76172 0-1.3476-0.26953-0.58594-0.26953-0.91992-0.75-0.32813-0.48633-0.32813-1.0488h1.084q0.0293 0.54492 0.4336 0.86719 0.41015 0.31641 1.0781 0.31641 0.61524 0 0.98438-0.2461 0.375-0.25195 0.375-0.66797z"/><path d="m232.44 170.27q-1.2891 0-2.0976-0.84375-0.8086-0.84961-0.8086-2.2676v-0.19921q0-0.94336 0.35742-1.6816 0.36328-0.74414 1.0078-1.1602 0.65039-0.42188 1.4062-0.42188 1.2363 0 1.9219 0.81446 0.68555 0.81445 0.68555 2.332v0.45117h-4.2949q0.0234 0.9375 0.54492 1.5176 0.52734 0.57422 1.3359 0.57422 0.57421 0 0.97265-0.23438 0.39844-0.23437 0.69727-0.62109l0.66211 0.51562q-0.79688 1.2246-2.3906 1.2246zm-0.13476-5.6836q-0.65625 0-1.1016 0.48047-0.44531 0.47461-0.55078 1.3359h3.1758v-0.082q-0.0469-0.82617-0.44531-1.2773-0.39844-0.45703-1.0781-0.45703z"/><path d="m238.71 169.38q0.58008 0 1.0137-0.35157 0.4336-0.35156 0.48047-0.8789h1.0254q-0.0293 0.54492-0.375 1.0371-0.3457 0.49218-0.92578 0.78515-0.57422 0.29297-1.2188 0.29297-1.2949 0-2.0625-0.86133-0.76172-0.86718-0.76172-2.3672v-0.18164q0-0.92579 0.33985-1.6465 0.33984-0.7207 0.97265-1.1191 0.63868-0.39844 1.5059-0.39844 1.0664 0 1.7695 0.63868 0.70899 0.63867 0.75586 1.6582h-1.0254q-0.0469-0.61524-0.46875-1.0078-0.41601-0.39844-1.0312-0.39844-0.82617 0-1.2832 0.59765-0.45117 0.5918-0.45117 1.7168v0.20508q0 1.0957 0.45117 1.6875t1.2891 0.5918z"/><path d="m243.92 162.27v1.5352h1.1836v0.83789h-1.1836v3.9316q0 0.38086 0.1582 0.57422 0.1582 0.1875 0.53906 0.1875 0.1875 0 0.51563-0.0703v0.8789q-0.42774 0.11719-0.83203 0.11719-0.72657 0-1.0957-0.43945t-0.36914-1.248v-3.9316h-1.1543v-0.83789h1.1543v-1.5352z"/><path d="m247.55 170.15h-1.084v-6.3398h1.084zm-1.1719-8.0215q0-0.26367 0.1582-0.44531 0.16406-0.18164 0.48047-0.18164 0.3164 0 0.48047 0.18164 0.16406 0.18164 0.16406 0.44531t-0.16406 0.43945q-0.16407 0.17578-0.48047 0.17578-0.31641 0-0.48047-0.17578-0.1582-0.17578-0.1582-0.43945z"/><path d="m249 166.92q0-0.93164 0.36328-1.6758 0.36914-0.74414 1.0195-1.1484 0.65625-0.4043 1.4941-0.4043 1.2949 0 2.0918 0.89649 0.80273 0.89648 0.80273 2.3848v0.0762q0 0.92578-0.35742 1.6641-0.35156 0.73242-1.0137 1.1426-0.65625 0.41015-1.5117 0.41015-1.2891 0-2.0918-0.89648-0.79687-0.89649-0.79687-2.373zm1.0898 0.12891q0 1.0547 0.48633 1.6934 0.49219 0.63868 1.3125 0.63868 0.82617 0 1.3125-0.64453 0.48633-0.6504 0.48633-1.8164 0-1.043-0.49805-1.6875-0.49219-0.65039-1.3125-0.65039-0.80274 0-1.2949 0.63867-0.49219 0.63867-0.49219 1.8281z"/><path d="m257.15 163.81 0.0352 0.79688q0.72656-0.91407 1.8984-0.91407 2.0098 0 2.0273 2.2676v4.1894h-1.084v-4.1953q-6e-3 -0.68554-0.31641-1.0137-0.30468-0.32812-0.95508-0.32812-0.52734 0-0.92578 0.28125-0.39843 0.28125-0.62109 0.73828v4.5176h-1.084v-6.3398z"/><path d="m262.71 171.85-0.61523-0.42187q0.55078-0.76758 0.57422-1.582v-0.97852h1.0605v0.84961q0 0.5918-0.29296 1.1836-0.28711 0.5918-0.72657 0.94922z"/><path d="m269.09 163.81 0.0293 0.70313q0.69726-0.82032 1.8809-0.82032 1.3301 0 1.8106 1.0195 0.3164-0.45703 0.82031-0.73828 0.50976-0.28125 1.2012-0.28125 2.0859 0 2.1211 2.209v4.248h-1.084v-4.1836q0-0.67969-0.31055-1.0137-0.31054-0.33984-1.043-0.33984-0.60351 0-1.002 0.36328-0.39844 0.35742-0.46289 0.96679v4.207h-1.0898v-4.1543q0-1.3828-1.3535-1.3828-1.0664 0-1.459 0.9082v4.6289h-1.084v-6.3398z"/><path d="m279.61 163.81 0.0293 0.70313q0.69726-0.82032 1.8809-0.82032 1.3301 0 1.8105 1.0195 0.31641-0.45703 0.82032-0.73828 0.50976-0.28125 1.2012-0.28125 2.0859 0 2.1211 2.209v4.248h-1.084v-4.1836q0-0.67969-0.31055-1.0137-0.31055-0.33984-1.043-0.33984-0.60351 0-1.002 0.36328-0.39844 0.35742-0.46289 0.96679v4.207h-1.0898v-4.1543q0-1.3828-1.3535-1.3828-1.0664 0-1.459 0.9082v4.6289h-1.084v-6.3398z"/><path d="m292.29 166.24h-3.5098v-0.63281l1.7578-1.6523q0.63868-0.59766 0.63868-1.002 0-0.28711-0.1875-0.46289-0.1875-0.18164-0.53907-0.18164-0.43945 0-0.65039 0.22266-0.20507 0.22265-0.20507 0.55664h-0.91993q0-0.66797 0.48633-1.1016 0.49219-0.4336 1.2656-0.4336 0.77343 0 1.2246 0.375 0.45117 0.36914 0.45117 1.0137 0 0.60938-0.62696 1.2363l-0.49218 0.46289-1.0312 0.84961h2.3379z"/></g><g aria-label="Tip type (in this case – tinned copper pipe)"><path d="m196.94 195.43h-2.7422v7.6055h-1.1191v-7.6055h-2.7363v-0.92578h6.5977z"/><path d="m199.21 203.03h-1.084v-6.3398h1.084zm-1.1719-8.0215q0-0.26367 0.1582-0.44531 0.16407-0.18164 0.48047-0.18164 0.31641 0 0.48047 0.18164t0.16406 0.44531-0.16406 0.43946q-0.16406 0.17578-0.48047 0.17578-0.3164 0-0.48047-0.17578-0.1582-0.17579-0.1582-0.43946z"/><path d="m206.3 199.93q0 1.4473-0.66211 2.332-0.66211 0.88476-1.793 0.88476-1.1543 0-1.8164-0.73242v3.0527h-1.084v-8.7774h0.99024l0.0527 0.70313q0.66211-0.82031 1.8398-0.82031 1.1426 0 1.8047 0.86132 0.66797 0.86133 0.66797 2.3965zm-1.084-0.12305q0-1.0723-0.45704-1.6934-0.45703-0.62109-1.2539-0.62109-0.98438 0-1.4766 0.87304v3.0293q0.48632 0.86719 1.4883 0.86719 0.77929 0 1.2363-0.61524 0.46289-0.62109 0.46289-1.8398z"/><path d="m212.12 195.16v1.5352h1.1836v0.83789h-1.1836v3.9316q0 0.38086 0.1582 0.57422 0.15821 0.1875 0.53907 0.1875 0.1875 0 0.51562-0.0703v0.87891q-0.42773 0.11718-0.83203 0.11718-0.72656 0-1.0957-0.43945t-0.36914-1.248v-3.9316h-1.1543v-0.83789h1.1543v-1.5352z"/><path d="m216.64 201.44 1.4766-4.752h1.1602l-2.5488 7.3184q-0.5918 1.582-1.8809 1.582l-0.20508-0.0176-0.4043-0.0762v-0.8789l0.29297 0.0234q0.55078 0 0.85547-0.22266 0.31055-0.22266 0.50977-0.81445l0.24023-0.64454-2.2617-6.2695h1.1836z"/><path d="m225.6 199.93q0 1.4473-0.66211 2.332-0.66211 0.88476-1.793 0.88476-1.1543 0-1.8164-0.73242v3.0527h-1.084v-8.7774h0.99024l0.0527 0.70313q0.66211-0.82031 1.8398-0.82031 1.1426 0 1.8047 0.86132 0.66797 0.86133 0.66797 2.3965zm-1.084-0.12305q0-1.0723-0.45703-1.6934-0.45704-0.62109-1.2539-0.62109-0.98438 0-1.4766 0.87304v3.0293q0.48633 0.86719 1.4883 0.86719 0.7793 0 1.2363-0.61524 0.46289-0.62109 0.46289-1.8398z"/><path d="m229.61 203.15q-1.2891 0-2.0976-0.84375-0.8086-0.8496-0.8086-2.2676v-0.19922q0-0.94336 0.35743-1.6816 0.36328-0.74414 1.0078-1.1602 0.65039-0.42187 1.4062-0.42187 1.2363 0 1.9219 0.81445 0.68555 0.81445 0.68555 2.332v0.45117h-4.2949q0.0234 0.9375 0.54492 1.5176 0.52734 0.57422 1.3359 0.57422 0.57422 0 0.97265-0.23438 0.39844-0.23437 0.69727-0.62109l0.66211 0.51563q-0.79688 1.2246-2.3906 1.2246zm-0.13476-5.6836q-0.65625 0-1.1016 0.48047-0.44532 0.47461-0.55079 1.3359h3.1758v-0.082q-0.0469-0.82618-0.44532-1.2774-0.39843-0.45703-1.0781-0.45703z"/><path d="m236.26 199.57q0-1.3242 0.35157-2.543 0.35742-1.2188 1.0605-2.2148 0.70313-0.99609 1.459-1.4062l0.22265 0.71485q-0.85546 0.65625-1.4062 2.0039-0.54492 1.3477-0.59765 3.0176l-6e-3 0.49805q0 2.2617 0.82617 3.9258 0.49805 0.99609 1.1836 1.5586l-0.22265 0.66211q-0.7793-0.43359-1.4883-1.4531-1.3828-1.9922-1.3828-4.7637z"/><path d="m241.58 203.03h-1.084v-6.3398h1.084zm-1.1719-8.0215q0-0.26367 0.1582-0.44531 0.16407-0.18164 0.48047-0.18164 0.31641 0 0.48047 0.18164t0.16406 0.44531-0.16406 0.43946q-0.16406 0.17578-0.48047 0.17578-0.3164 0-0.48047-0.17578-0.1582-0.17579-0.1582-0.43946z"/><path d="m244.34 196.69 0.0352 0.79688q0.72656-0.91406 1.8984-0.91406 2.0098 0 2.0273 2.2676v4.1895h-1.084v-4.1953q-6e-3 -0.68554-0.31641-1.0137-0.30469-0.32812-0.95508-0.32812-0.52734 0-0.92578 0.28125t-0.62109 0.73828v4.5176h-1.084v-6.3398z"/><path d="m254.38 195.16v1.5352h1.1836v0.83789h-1.1836v3.9316q0 0.38086 0.1582 0.57422 0.15821 0.1875 0.53907 0.1875 0.1875 0 0.51562-0.0703v0.87891q-0.42773 0.11718-0.83203 0.11718-0.72656 0-1.0957-0.43945t-0.36914-1.248v-3.9316h-1.1543v-0.83789h1.1543v-1.5352z"/><path d="m257.91 197.46q0.72071-0.88476 1.875-0.88476 2.0098 0 2.0274 2.2676v4.1895h-1.084v-4.1953q-6e-3 -0.68554-0.3164-1.0137-0.30469-0.32812-0.95508-0.32812-0.52734 0-0.92578 0.28125t-0.6211 0.73828v4.5176h-1.084v-9h1.084z"/><path d="m264.62 203.03h-1.084v-6.3398h1.084zm-1.1719-8.0215q0-0.26367 0.15821-0.44531 0.16406-0.18164 0.48047-0.18164 0.3164 0 0.48047 0.18164 0.16406 0.18164 0.16406 0.44531t-0.16406 0.43946q-0.16407 0.17578-0.48047 0.17578-0.31641 0-0.48047-0.17578-0.15821-0.17579-0.15821-0.43946z"/><path d="m270.04 201.35q0-0.43946-0.33398-0.67969-0.32813-0.24609-1.1543-0.42188-0.82031-0.17578-1.3066-0.42187-0.48047-0.24609-0.71484-0.58594-0.22852-0.33984-0.22852-0.80859 0-0.7793 0.65625-1.3184 0.66211-0.53906 1.6875-0.53906 1.0781 0 1.7461 0.55664 0.67383 0.55664 0.67383 1.4238h-1.0898q0-0.44531-0.38086-0.76757-0.375-0.32227-0.94922-0.32227-0.5918 0-0.92578 0.25781-0.33399 0.25782-0.33399 0.67383 0 0.39258 0.31055 0.5918t1.1191 0.38086q0.81445 0.18164 1.3184 0.43359t0.74414 0.60938q0.2461 0.35156 0.2461 0.86132 0 0.84961-0.67969 1.3652-0.67969 0.50976-1.7637 0.50976-0.76172 0-1.3477-0.26953t-0.91992-0.75q-0.32813-0.48632-0.32813-1.0488h1.084q0.0293 0.54492 0.43359 0.86718 0.41016 0.31641 1.0781 0.31641 0.61523 0 0.98437-0.24609 0.375-0.25196 0.375-0.66797z"/><path d="m278.05 202.26q0.58007 0 1.0137-0.35156 0.43359-0.35157 0.48047-0.87891h1.0254q-0.0293 0.54492-0.375 1.0371-0.34571 0.49219-0.92578 0.78516-0.57422 0.29296-1.2188 0.29296-1.2949 0-2.0625-0.86132-0.76172-0.86719-0.76172-2.3672v-0.18164q0-0.92578 0.33984-1.6465 0.33985-0.7207 0.97266-1.1191 0.63867-0.39843 1.5059-0.39843 1.0664 0 1.7695 0.63867 0.70898 0.63867 0.75586 1.6582h-1.0254q-0.0469-0.61523-0.46875-1.0078-0.41602-0.39844-1.0312-0.39844-0.82617 0-1.2832 0.59766-0.45117 0.59179-0.45117 1.7168v0.20508q0 1.0957 0.45117 1.6875 0.45118 0.5918 1.2891 0.5918z"/><path d="m285.7 203.03q-0.0937-0.1875-0.15234-0.66797-0.75586 0.78515-1.8047 0.78515-0.9375 0-1.541-0.52734-0.59765-0.5332-0.59765-1.3477 0-0.99023 0.75-1.5352 0.75586-0.55078 2.1211-0.55078h1.0547v-0.49805q0-0.56836-0.33985-0.90234-0.33984-0.33985-1.002-0.33985-0.58008 0-0.97265 0.29297-0.39258 0.29297-0.39258 0.70899h-1.0898q0-0.47461 0.33399-0.91407 0.33984-0.44531 0.91406-0.70312 0.58008-0.25781 1.2715-0.25781 1.0957 0 1.7168 0.55078 0.6211 0.54492 0.64453 1.5059v2.918q0 0.87304 0.22266 1.3887v0.0937zm-1.7988-0.82617q0.50977 0 0.9668-0.26368 0.45703-0.26367 0.66211-0.68554v-1.3008h-0.84961q-1.9922 0-1.9922 1.166 0 0.50977 0.33985 0.79688 0.33984 0.28711 0.87304 0.28711z"/><path d="m292.01 201.35q0-0.43946-0.33399-0.67969-0.32812-0.24609-1.1543-0.42188-0.82032-0.17578-1.3066-0.42187-0.48047-0.24609-0.71485-0.58594-0.22851-0.33984-0.22851-0.80859 0-0.7793 0.65625-1.3184 0.66211-0.53906 1.6875-0.53906 1.0781 0 1.7461 0.55664 0.67383 0.55664 0.67383 1.4238h-1.0898q0-0.44531-0.38085-0.76757-0.375-0.32227-0.94922-0.32227-0.5918 0-0.92578 0.25781-0.33399 0.25782-0.33399 0.67383 0 0.39258 0.31055 0.5918 0.31054 0.19922 1.1191 0.38086 0.81445 0.18164 1.3184 0.43359 0.5039 0.25195 0.74414 0.60938 0.24609 0.35156 0.24609 0.86132 0 0.84961-0.67969 1.3652-0.67968 0.50976-1.7637 0.50976-0.76172 0-1.3476-0.26953-0.58594-0.26953-0.91993-0.75-0.32812-0.48632-0.32812-1.0488h1.084q0.0293 0.54492 0.4336 0.86718 0.41015 0.31641 1.0781 0.31641 0.61524 0 0.98438-0.24609 0.375-0.25196 0.375-0.66797z"/><path d="m297.14 203.15q-1.2891 0-2.0977-0.84375-0.80859-0.8496-0.80859-2.2676v-0.19922q0-0.94336 0.35742-1.6816 0.36328-0.74414 1.0078-1.1602 0.65039-0.42187 1.4062-0.42187 1.2363 0 1.9219 0.81445t0.68555 2.332v0.45117h-4.2949q0.0234 0.9375 0.54492 1.5176 0.52734 0.57422 1.3359 0.57422 0.57422 0 0.97266-0.23438 0.39844-0.23437 0.69727-0.62109l0.66211 0.51563q-0.79688 1.2246-2.3906 1.2246zm-0.13476-5.6836q-0.65625 0-1.1016 0.48047-0.44531 0.47461-0.55078 1.3359h3.1758v-0.082q-0.0469-0.82618-0.44531-1.2774-0.39844-0.45703-1.0781-0.45703z"/><path d="m309.83 199.22h-5.8711v-0.88476h5.8711z"/><path d="m316.15 195.16v1.5352h1.1836v0.83789h-1.1836v3.9316q0 0.38086 0.15821 0.57422 0.1582 0.1875 0.53906 0.1875 0.1875 0 0.51562-0.0703v0.87891q-0.42773 0.11718-0.83203 0.11718-0.72656 0-1.0957-0.43945t-0.36914-1.248v-3.9316h-1.1543v-0.83789h1.1543v-1.5352z"/><path d="m319.78 203.03h-1.084v-6.3398h1.084zm-1.1719-8.0215q0-0.26367 0.1582-0.44531 0.16407-0.18164 0.48047-0.18164 0.31641 0 0.48047 0.18164t0.16406 0.44531-0.16406 0.43946q-0.16406 0.17578-0.48047 0.17578-0.3164 0-0.48047-0.17578-0.1582-0.17579-0.1582-0.43946z"/><path d="m322.54 196.69 0.0352 0.79688q0.72656-0.91406 1.8984-0.91406 2.0098 0 2.0273 2.2676v4.1895h-1.084v-4.1953q-6e-3 -0.68554-0.3164-1.0137-0.30469-0.32812-0.95508-0.32812-0.52734 0-0.92578 0.28125t-0.62109 0.73828v4.5176h-1.084v-6.3398z"/><path d="m329.16 196.69 0.0351 0.79688q0.72656-0.91406 1.8984-0.91406 2.0098 0 2.0273 2.2676v4.1895h-1.084v-4.1953q-6e-3 -0.68554-0.31641-1.0137-0.30469-0.32812-0.95508-0.32812-0.52734 0-0.92578 0.28125-0.39843 0.28125-0.62109 0.73828v4.5176h-1.084v-6.3398z"/><path d="m337.38 203.15q-1.2891 0-2.0977-0.84375-0.80859-0.8496-0.80859-2.2676v-0.19922q0-0.94336 0.35742-1.6816 0.36328-0.74414 1.0078-1.1602 0.65039-0.42187 1.4062-0.42187 1.2363 0 1.9219 0.81445 0.68554 0.81445 0.68554 2.332v0.45117h-4.2949q0.0234 0.9375 0.54492 1.5176 0.52735 0.57422 1.3359 0.57422 0.57422 0 0.97266-0.23438 0.39844-0.23437 0.69726-0.62109l0.66211 0.51563q-0.79687 1.2246-2.3906 1.2246zm-0.13477-5.6836q-0.65625 0-1.1016 0.48047-0.44531 0.47461-0.55078 1.3359h3.1758v-0.082q-0.0469-0.82618-0.44531-1.2774-0.39844-0.45703-1.0781-0.45703z"/><path d="m340.85 199.81q0-1.459 0.6914-2.3438 0.69141-0.89062 1.8106-0.89062 1.1133 0 1.7637 0.76171v-3.3047h1.084v9h-0.9961l-0.0527-0.67969q-0.65039 0.79687-1.8106 0.79687-1.1016 0-1.7988-0.90234-0.6914-0.90234-0.6914-2.3555zm1.084 0.12305q0 1.0781 0.44532 1.6875 0.44531 0.60937 1.2305 0.60937 1.0312 0 1.5059-0.92578v-2.9121q-0.48632-0.89648-1.4941-0.89648-0.79687 0-1.2422 0.61523-0.44532 0.61524-0.44532 1.8223z"/><path d="m193.41 217.38q0.58008 0 1.0137-0.35157 0.43359-0.35156 0.48047-0.8789h1.0254q-0.0293 0.54492-0.375 1.0371-0.34571 0.49218-0.92579 0.78515-0.57421 0.29297-1.2188 0.29297-1.2949 0-2.0625-0.86133-0.76171-0.86718-0.76171-2.3672v-0.18164q0-0.92579 0.33984-1.6465t0.97266-1.1191q0.63867-0.39844 1.5059-0.39844 1.0664 0 1.7695 0.63868 0.70898 0.63867 0.75586 1.6582h-1.0254q-0.0469-0.61524-0.46875-1.0078-0.41602-0.39844-1.0312-0.39844-0.82618 0-1.2832 0.59765-0.45117 0.5918-0.45117 1.7168v0.20508q0 1.0957 0.45117 1.6875t1.2891 0.5918z"/><path d="m196.86 214.92q0-0.93164 0.36328-1.6758 0.36914-0.74414 1.0195-1.1484 0.65625-0.4043 1.4941-0.4043 1.2949 0 2.0918 0.89649 0.80273 0.89648 0.80273 2.3848v0.0762q0 0.92578-0.35742 1.6641-0.35156 0.73242-1.0137 1.1426-0.65625 0.41015-1.5117 0.41015-1.2891 0-2.0918-0.89648-0.79687-0.89649-0.79687-2.373zm1.0898 0.12891q0 1.0547 0.48633 1.6934 0.49219 0.63868 1.3125 0.63868 0.82617 0 1.3125-0.64453 0.48633-0.6504 0.48633-1.8164 0-1.043-0.49805-1.6875-0.49219-0.65039-1.3125-0.65039-0.80273 0-1.2949 0.63867t-0.49219 1.8281z"/><path d="m209.35 215.05q0 1.4473-0.6621 2.332-0.66211 0.88476-1.793 0.88476-1.1543 0-1.8164-0.73242v3.0527h-1.084v-8.7773h0.99023l0.0527 0.70313q0.66211-0.82032 1.8398-0.82032 1.1426 0 1.8047 0.86133 0.66796 0.86133 0.66796 2.3965zm-1.084-0.12305q0-1.0723-0.45703-1.6934t-1.2539-0.62109q-0.98437 0-1.4766 0.87304v3.0293q0.48633 0.86719 1.4883 0.86719 0.7793 0 1.2363-0.61524 0.46289-0.62109 0.46289-1.8398z"/><path d="m216.08 215.05q0 1.4473-0.66211 2.332-0.66211 0.88476-1.793 0.88476-1.1543 0-1.8164-0.73242v3.0527h-1.084v-8.7773h0.99023l0.0527 0.70313q0.66211-0.82032 1.8398-0.82032 1.1426 0 1.8047 0.86133 0.66797 0.86133 0.66797 2.3965zm-1.084-0.12305q0-1.0723-0.45703-1.6934t-1.2539-0.62109q-0.98437 0-1.4766 0.87304v3.0293q0.48633 0.86719 1.4883 0.86719 0.7793 0 1.2363-0.61524 0.46289-0.62109 0.46289-1.8398z"/><path d="m220.09 218.27q-1.2891 0-2.0977-0.84375-0.80859-0.84961-0.80859-2.2676v-0.19921q0-0.94336 0.35742-1.6816 0.36328-0.74414 1.0078-1.1602 0.65039-0.42188 1.4062-0.42188 1.2363 0 1.9219 0.81446 0.68555 0.81445 0.68555 2.332v0.45117h-4.2949q0.0234 0.9375 0.54493 1.5176 0.52734 0.57422 1.3359 0.57422 0.57422 0 0.97266-0.23438 0.39844-0.23437 0.69726-0.62109l0.66211 0.51562q-0.79687 1.2246-2.3906 1.2246zm-0.13477-5.6836q-0.65625 0-1.1016 0.48047-0.44531 0.47461-0.55078 1.3359h3.1758v-0.082q-0.0469-0.82617-0.44531-1.2773-0.39844-0.45703-1.0781-0.45703z"/><path d="m226.88 212.78q-0.24609-0.041-0.5332-0.041-1.0664 0-1.4473 0.9082v4.5h-1.084v-6.3398h1.0547l0.0176 0.73242q0.5332-0.84961 1.5117-0.84961 0.3164 0 0.48046 0.082z"/><path d="m236.2 215.05q0 1.4473-0.66211 2.332-0.66211 0.88476-1.793 0.88476-1.1543 0-1.8164-0.73242v3.0527h-1.084v-8.7773h0.99024l0.0527 0.70313q0.66211-0.82032 1.8398-0.82032 1.1426 0 1.8047 0.86133 0.66797 0.86133 0.66797 2.3965zm-1.084-0.12305q0-1.0723-0.45704-1.6934-0.45703-0.62109-1.2539-0.62109-0.98438 0-1.4766 0.87304v3.0293q0.48632 0.86719 1.4883 0.86719 0.77929 0 1.2363-0.61524 0.46289-0.62109 0.46289-1.8398z"/><path d="m238.76 218.15h-1.084v-6.3398h1.084zm-1.1719-8.0215q0-0.26367 0.15821-0.44531 0.16406-0.18164 0.48046-0.18164 0.31641 0 0.48047 0.18164 0.16407 0.18164 0.16407 0.44531t-0.16407 0.43945q-0.16406 0.17578-0.48047 0.17578-0.3164 0-0.48046-0.17578-0.15821-0.17578-0.15821-0.43945z"/><path d="m245.85 215.05q0 1.4473-0.66211 2.332-0.66211 0.88476-1.793 0.88476-1.1543 0-1.8164-0.73242v3.0527h-1.084v-8.7773h0.99024l0.0527 0.70313q0.66211-0.82032 1.8398-0.82032 1.1426 0 1.8047 0.86133 0.66797 0.86133 0.66797 2.3965zm-1.084-0.12305q0-1.0723-0.45703-1.6934-0.45704-0.62109-1.2539-0.62109-0.98438 0-1.4766 0.87304v3.0293q0.48633 0.86719 1.4883 0.86719 0.7793 0 1.2363-0.61524 0.46289-0.62109 0.46289-1.8398z"/><path d="m249.86 218.27q-1.2891 0-2.0976-0.84375-0.8086-0.84961-0.8086-2.2676v-0.19921q0-0.94336 0.35743-1.6816 0.36328-0.74414 1.0078-1.1602 0.65039-0.42188 1.4062-0.42188 1.2363 0 1.9219 0.81446 0.68555 0.81445 0.68555 2.332v0.45117h-4.2949q0.0234 0.9375 0.54492 1.5176 0.52734 0.57422 1.3359 0.57422 0.57422 0 0.97265-0.23438 0.39844-0.23437 0.69727-0.62109l0.66211 0.51562q-0.79688 1.2246-2.3906 1.2246zm-0.13476-5.6836q-0.65625 0-1.1016 0.48047-0.44532 0.47461-0.55079 1.3359h3.1758v-0.082q-0.0469-0.82617-0.44532-1.2773-0.39843-0.45703-1.0781-0.45703z"/><path d="m256.09 214.75q0 1.3066-0.3457 2.5078-0.33985 1.1953-1.0488 2.209-0.70313 1.0137-1.4766 1.4414l-0.22852-0.66211q0.90234-0.6914 1.4473-2.1445 0.55078-1.459 0.5625-3.2344v-0.1875q0-1.2305-0.25782-2.2852-0.25781-1.0606-0.7207-1.8984-0.45703-0.83789-1.0312-1.3066l0.22852-0.66211q0.77343 0.42774 1.4707 1.4297 0.70312 1.002 1.0488 2.209 0.35156 1.207 0.35156 2.584z"/></g></g></svg>
