<?xml version="1.0" encoding="UTF-8"?>
<svg width="360" height="201" fill="none" version="1.1" viewBox="0 0 360 201" xmlns="http://www.w3.org/2000/svg"><path d="m11.973 7.1543h-4.3555v11.846h-2.9297v-11.846h-4.2969v-2.373h11.582v2.373zm5.5078-2.373 3.6523 10.313 3.6328-10.313h3.8477v14.219h-2.9395v-3.8867l0.293-6.709-3.8379 10.596h-2.0117l-3.8281-10.586 0.2929 6.6992v3.8867h-2.9297v-14.219h3.8282zm33.77 2.373h-4.3555v11.846h-2.9297v-11.846h-4.2968v-2.373h11.582v2.373zm8.5352 8.916h-5.1368l-0.9765 2.9297h-3.1153l5.293-14.219h2.7149l5.3222 14.219h-3.1152l-0.9863-2.9297zm-4.3457-2.373h3.5546l-1.7871-5.3223-1.7675 5.3223zm29.854-6.543h-4.3555v11.846h-2.9297v-11.846h-4.2969v-2.373h11.582v2.373zm8.5351 8.916h-5.1367l-0.9766 2.9297h-3.1152l5.293-14.219h2.7148l5.3223 14.219h-3.1152l-0.9864-2.9297zm-4.3457-2.373h3.5547l-1.7871-5.3223-1.7676 5.3223zm13.604-8.916 3.652 10.313 3.633-10.313h3.848v14.219h-2.94v-3.8867l0.293-6.709-3.838 10.596h-2.011l-3.828-10.586 0.293 6.6992v3.8867h-2.9302v-14.219h3.8282z" fill="#fff"/><g stroke="#fff"><path d="m98 38v16h72"/><path d="m52 38v64h118"/><path d="m17 38v112h157"/></g><g fill="#fff"><circle cx="17" cy="38" r="4"/><circle cx="52" cy="38" r="4"/><circle cx="98" cy="38" r="4"/><circle cx="170" cy="54" r="4"/><circle cx="170" cy="102" r="4"/><circle cx="170" cy="150" r="4"/><g aria-label="Copper pipe"><path d="m192.85 56.177q-0.1582 1.3535-1.002 2.0918-0.83789 0.73242-2.2324 0.73242-1.5117 0-2.4258-1.084-0.9082-1.084-0.9082-2.9004v-0.82031q0-1.1895 0.42187-2.0918 0.42774-0.90234 1.207-1.3828 0.77929-0.48633 1.8047-0.48633 1.3594 0 2.1797 0.76172 0.82031 0.75586 0.95508 2.0977h-1.1309q-0.14648-1.0195-0.63867-1.4766-0.48633-0.45703-1.3652-0.45703-1.0781 0-1.6934 0.79688-0.60937 0.79688-0.60937 2.2676v0.82617q0 1.3887 0.58008 2.209 0.58008 0.82031 1.623 0.82031 0.9375 0 1.4356-0.42188 0.50391-0.42774 0.66797-1.4824z"/><path d="m193.93 55.656q0-0.93164 0.36329-1.6758 0.36914-0.74414 1.0195-1.1484 0.65625-0.4043 1.4941-0.4043 1.2949 0 2.0918 0.89648 0.80274 0.89648 0.80274 2.3848v0.07617q0 0.92578-0.35742 1.6641-0.35157 0.73242-1.0137 1.1426-0.65625 0.41016-1.5117 0.41016-1.2891 0-2.0918-0.89648-0.79688-0.89648-0.79688-2.373zm1.0898 0.12891q0 1.0547 0.48633 1.6934 0.49218 0.63867 1.3125 0.63867 0.82617 0 1.3125-0.64453 0.48632-0.65039 0.48632-1.8164 0-1.043-0.49804-1.6875-0.49219-0.65039-1.3125-0.65039-0.80274 0-1.2949 0.63867-0.49219 0.63867-0.49219 1.8281z"/><path d="m206.41 55.784q0 1.4473-0.66211 2.332t-1.793 0.88477q-1.1543 0-1.8164-0.73242v3.0527h-1.084v-8.7773h0.99024l0.0527 0.70312q0.66211-0.82031 1.8398-0.82031 1.1426 0 1.8047 0.86133 0.66797 0.86133 0.66797 2.3965zm-1.084-0.12305q0-1.0723-0.45703-1.6934-0.45703-0.62109-1.2539-0.62109-0.98437 0-1.4766 0.87305v3.0293q0.48633 0.86719 1.4883 0.86719 0.7793 0 1.2363-0.61523 0.46289-0.62109 0.46289-1.8398z"/><path d="m213.14 55.784q0 1.4473-0.66211 2.332-0.6621 0.88477-1.793 0.88477-1.1543 0-1.8164-0.73242v3.0527h-1.084v-8.7773h0.99023l0.0527 0.70312q0.66211-0.82031 1.8398-0.82031 1.1426 0 1.8047 0.86133 0.66796 0.86133 0.66796 2.3965zm-1.084-0.12305q0-1.0723-0.45703-1.6934-0.45703-0.62109-1.2539-0.62109-0.98437 0-1.4766 0.87305v3.0293q0.48633 0.86719 1.4883 0.86719 0.7793 0 1.2363-0.61523 0.46289-0.62109 0.46289-1.8398z"/><path d="m217.15 59.001q-1.2891 0-2.0977-0.84375-0.80859-0.84961-0.80859-2.2676v-0.19922q0-0.94336 0.35742-1.6816 0.36328-0.74414 1.0078-1.1602 0.65039-0.42188 1.4062-0.42188 1.2363 0 1.9219 0.81445 0.68554 0.81445 0.68554 2.332v0.45117h-4.2949q0.0234 0.9375 0.54492 1.5176 0.52735 0.57422 1.3359 0.57422 0.57422 0 0.97266-0.23438 0.39843-0.23438 0.69726-0.62109l0.66211 0.51562q-0.79687 1.2246-2.3906 1.2246zm-0.13477-5.6836q-0.65625 0-1.1016 0.48047-0.44531 0.47461-0.55078 1.3359h3.1758v-0.08203q-0.0469-0.82617-0.44531-1.2773-0.39844-0.45703-1.0781-0.45703z"/><path d="m223.94 53.517q-0.24609-0.04102-0.5332-0.04102-1.0664 0-1.4473 0.9082v4.5h-1.084v-6.3398h1.0547l0.0176 0.73242q0.53321-0.84961 1.5117-0.84961 0.31641 0 0.48047 0.08203z"/><path d="m233.27 55.784q0 1.4473-0.66211 2.332t-1.793 0.88477q-1.1543 0-1.8164-0.73242v3.0527h-1.084v-8.7773h0.99023l0.0527 0.70312q0.66211-0.82031 1.8398-0.82031 1.1426 0 1.8047 0.86133 0.66797 0.86133 0.66797 2.3965zm-1.084-0.12305q0-1.0723-0.45703-1.6934-0.45703-0.62109-1.2539-0.62109-0.98438 0-1.4766 0.87305v3.0293q0.48633 0.86719 1.4883 0.86719 0.7793 0 1.2363-0.61523 0.46289-0.62109 0.46289-1.8398z"/><path d="m235.82 58.884h-1.084v-6.3398h1.084zm-1.1719-8.0215q0-0.26367 0.1582-0.44531 0.16407-0.18164 0.48047-0.18164 0.31641 0 0.48047 0.18164 0.16406 0.18164 0.16406 0.44531t-0.16406 0.43945-0.48047 0.17578q-0.3164 0-0.48047-0.17578-0.1582-0.17578-0.1582-0.43945z"/><path d="m242.91 55.784q0 1.4473-0.66211 2.332t-1.793 0.88477q-1.1543 0-1.8164-0.73242v3.0527h-1.084v-8.7773h0.99023l0.0527 0.70312q0.66211-0.82031 1.8398-0.82031 1.1426 0 1.8047 0.86133 0.66797 0.86133 0.66797 2.3965zm-1.084-0.12305q0-1.0723-0.45703-1.6934-0.45703-0.62109-1.2539-0.62109-0.98438 0-1.4766 0.87305v3.0293q0.48633 0.86719 1.4883 0.86719 0.77929 0 1.2363-0.61523 0.46289-0.62109 0.46289-1.8398z"/><path d="m246.92 59.001q-1.2891 0-2.0976-0.84375-0.8086-0.84961-0.8086-2.2676v-0.19922q0-0.94336 0.35742-1.6816 0.36328-0.74414 1.0078-1.1602 0.65039-0.42188 1.4062-0.42188 1.2363 0 1.9219 0.81445t0.68555 2.332v0.45117h-4.2949q0.0234 0.9375 0.54492 1.5176 0.52734 0.57422 1.3359 0.57422 0.57421 0 0.97265-0.23438t0.69727-0.62109l0.66211 0.51562q-0.79688 1.2246-2.3906 1.2246zm-0.13476-5.6836q-0.65625 0-1.1016 0.48047-0.44531 0.47461-0.55078 1.3359h3.1758v-0.08203q-0.0469-0.82617-0.44531-1.2773-0.39844-0.45703-1.0781-0.45703z"/></g><g aria-label="Aluminum pipe"><path d="m191.28 104.87h-3.5742l-0.80274 2.2266h-1.1602l3.2578-8.5313h0.98437l3.2637 8.5313h-1.1543zm-3.2344-0.92578h2.9004l-1.4531-3.9902z"/><path d="m195.41 107.09h-1.084v-9h1.084z"/><path d="m201.06 106.47q-0.63281 0.74414-1.8574 0.74414-1.0137 0-1.5469-0.58593-0.52735-0.5918-0.53321-1.7461v-4.125h1.084v4.0957q0 1.4414 1.1719 1.4414 1.2422 0 1.6524-0.92578v-4.6113h1.084v6.3398h-1.0312z"/><path d="m204.78 100.75 0.0293 0.70313q0.69727-0.82031 1.8809-0.82031 1.3301 0 1.8106 1.0195 0.31641-0.45703 0.82031-0.73828 0.50977-0.28125 1.2012-0.28125 2.0859 0 2.1211 2.209v4.248h-1.084v-4.1836q0-0.67968-0.31054-1.0137-0.31055-0.33984-1.043-0.33984-0.60352 0-1.002 0.36328-0.39843 0.35742-0.46289 0.9668v4.207h-1.0898v-4.1543q0-1.3828-1.3535-1.3828-1.0664 0-1.459 0.9082v4.6289h-1.084v-6.3398z"/><path d="m215.45 107.09h-1.084v-6.3398h1.084zm-1.1719-8.0215q0-0.26367 0.15821-0.44531 0.16406-0.18164 0.48046-0.18164 0.31641 0 0.48047 0.18164 0.16407 0.18164 0.16407 0.44531t-0.16407 0.43945q-0.16406 0.17578-0.48047 0.17578-0.3164 0-0.48046-0.17578-0.15821-0.17578-0.15821-0.43945z"/><path d="m218.21 100.75 0.0352 0.79688q0.72656-0.91406 1.8984-0.91406 2.0098 0 2.0273 2.2676v4.1895h-1.084v-4.1953q-6e-3 -0.68554-0.31641-1.0137-0.30469-0.32812-0.95508-0.32812-0.52734 0-0.92578 0.28125t-0.62109 0.73828v4.5176h-1.084v-6.3398z"/><path d="m227.72 106.47q-0.63281 0.74414-1.8574 0.74414-1.0137 0-1.5469-0.58593-0.52734-0.5918-0.5332-1.7461v-4.125h1.084v4.0957q0 1.4414 1.1719 1.4414 1.2422 0 1.6523-0.92578v-4.6113h1.084v6.3398h-1.0312z"/><path d="m231.44 100.75 0.0293 0.70313q0.69726-0.82031 1.8809-0.82031 1.3301 0 1.8106 1.0195 0.3164-0.45703 0.82031-0.73828 0.50976-0.28125 1.2012-0.28125 2.0859 0 2.1211 2.209v4.248h-1.084v-4.1836q0-0.67968-0.31055-1.0137-0.31054-0.33984-1.043-0.33984-0.60351 0-1.002 0.36328-0.39844 0.35742-0.46289 0.9668v4.207h-1.0898v-4.1543q0-1.3828-1.3535-1.3828-1.0664 0-1.459 0.9082v4.6289h-1.084v-6.3398z"/><path d="m249.27 103.99q0 1.4473-0.66211 2.332-0.66211 0.88476-1.793 0.88476-1.1543 0-1.8164-0.73242v3.0527h-1.084v-8.7774h0.99024l0.0527 0.70313q0.66211-0.82031 1.8398-0.82031 1.1426 0 1.8047 0.86132 0.66797 0.86133 0.66797 2.3965zm-1.084-0.12305q0-1.0723-0.45703-1.6934-0.45704-0.62109-1.2539-0.62109-0.98438 0-1.4766 0.87304v3.0293q0.48632 0.86719 1.4883 0.86719 0.77929 0 1.2363-0.61524 0.46289-0.62109 0.46289-1.8398z"/><path d="m251.82 107.09h-1.084v-6.3398h1.084zm-1.1719-8.0215q0-0.26367 0.15821-0.44531 0.16406-0.18164 0.48047-0.18164 0.3164 0 0.48046 0.18164 0.16407 0.18164 0.16407 0.44531t-0.16407 0.43945q-0.16406 0.17578-0.48046 0.17578-0.31641 0-0.48047-0.17578-0.15821-0.17578-0.15821-0.43945z"/><path d="m258.91 103.99q0 1.4473-0.66211 2.332-0.66211 0.88476-1.793 0.88476-1.1543 0-1.8164-0.73242v3.0527h-1.084v-8.7774h0.99024l0.0527 0.70313q0.66211-0.82031 1.8398-0.82031 1.1426 0 1.8047 0.86132 0.66797 0.86133 0.66797 2.3965zm-1.084-0.12305q0-1.0723-0.45703-1.6934t-1.2539-0.62109q-0.98437 0-1.4766 0.87304v3.0293q0.48633 0.86719 1.4883 0.86719 0.7793 0 1.2363-0.61524 0.46289-0.62109 0.46289-1.8398z"/><path d="m262.92 107.21q-1.2891 0-2.0976-0.84375-0.8086-0.84961-0.8086-2.2676v-0.19922q0-0.94336 0.35743-1.6816 0.36328-0.74414 1.0078-1.1602 0.65039-0.42187 1.4062-0.42187 1.2363 0 1.9219 0.81445 0.68555 0.81445 0.68555 2.332v0.45117h-4.2949q0.0234 0.9375 0.54492 1.5176 0.52734 0.57422 1.3359 0.57422 0.57422 0 0.97265-0.23438 0.39844-0.23437 0.69727-0.62109l0.66211 0.51562q-0.79688 1.2246-2.3906 1.2246zm-0.13476-5.6836q-0.65625 0-1.1016 0.48047-0.44532 0.47461-0.55078 1.3359h3.1758v-0.082q-0.0469-0.82618-0.44532-1.2774-0.39843-0.45703-1.0781-0.45703z"/></g><g aria-label="Aluminum copper pipe (contact surface is covered with special copper powder)"><path d="m191.28 143.99h-3.5742l-0.80274 2.2266h-1.1602l3.2578-8.5312h0.98437l3.2637 8.5312h-1.1543zm-3.2344-0.92578h2.9004l-1.4531-3.9902z"/><path d="m195.41 146.22h-1.084v-9h1.084z"/><path d="m201.06 145.59q-0.63281 0.74414-1.8574 0.74414-1.0137 0-1.5469-0.58594-0.52735-0.5918-0.53321-1.7461v-4.125h1.084v4.0957q0 1.4414 1.1719 1.4414 1.2422 0 1.6524-0.92578v-4.6113h1.084v6.3398h-1.0312z"/><path d="m204.78 139.88 0.0293 0.70312q0.69727-0.82031 1.8809-0.82031 1.3301 0 1.8106 1.0195 0.31641-0.45703 0.82031-0.73828 0.50977-0.28125 1.2012-0.28125 2.0859 0 2.1211 2.209v4.248h-1.084v-4.1836q0-0.67969-0.31054-1.0137-0.31055-0.33985-1.043-0.33985-0.60352 0-1.002 0.36328-0.39843 0.35743-0.46289 0.9668v4.207h-1.0898v-4.1543q0-1.3828-1.3535-1.3828-1.0664 0-1.459 0.90821v4.6289h-1.084v-6.3398z"/><path d="m215.45 146.22h-1.084v-6.3398h1.084zm-1.1719-8.0215q0-0.26367 0.15821-0.44532 0.16406-0.18164 0.48046-0.18164 0.31641 0 0.48047 0.18164 0.16407 0.18165 0.16407 0.44532t-0.16407 0.43945q-0.16406 0.17578-0.48047 0.17578-0.3164 0-0.48046-0.17578-0.15821-0.17578-0.15821-0.43945z"/><path d="m218.21 139.88 0.0352 0.79687q0.72656-0.91406 1.8984-0.91406 2.0098 0 2.0273 2.2676v4.1894h-1.084v-4.1953q-6e-3 -0.68555-0.31641-1.0137-0.30469-0.32813-0.95508-0.32813-0.52734 0-0.92578 0.28125t-0.62109 0.73828v4.5176h-1.084v-6.3398z"/><path d="m227.72 145.59q-0.63281 0.74414-1.8574 0.74414-1.0137 0-1.5469-0.58594-0.52734-0.5918-0.5332-1.7461v-4.125h1.084v4.0957q0 1.4414 1.1719 1.4414 1.2422 0 1.6523-0.92578v-4.6113h1.084v6.3398h-1.0312z"/><path d="m231.44 139.88 0.0293 0.70312q0.69726-0.82031 1.8809-0.82031 1.3301 0 1.8106 1.0195 0.3164-0.45703 0.82031-0.73828 0.50976-0.28125 1.2012-0.28125 2.0859 0 2.1211 2.209v4.248h-1.084v-4.1836q0-0.67969-0.31055-1.0137-0.31054-0.33985-1.043-0.33985-0.60351 0-1.002 0.36328-0.39844 0.35743-0.46289 0.9668v4.207h-1.0898v-4.1543q0-1.3828-1.3535-1.3828-1.0664 0-1.459 0.90821v4.6289h-1.084v-6.3398z"/><path d="m246.45 145.45q0.58008 0 1.0137-0.35156 0.4336-0.35156 0.48047-0.87891h1.0254q-0.0293 0.54493-0.375 1.0371-0.3457 0.49219-0.92578 0.78516-0.57422 0.29297-1.2188 0.29297-1.2949 0-2.0625-0.86133-0.76172-0.86719-0.76172-2.3672v-0.18164q0-0.92578 0.33985-1.6465 0.33984-0.7207 0.97265-1.1191 0.63867-0.39844 1.5059-0.39844 1.0664 0 1.7695 0.63867 0.70899 0.63867 0.75586 1.6582h-1.0254q-0.0469-0.61524-0.46875-1.0078-0.41601-0.39843-1.0312-0.39843-0.82617 0-1.2832 0.59765-0.45117 0.5918-0.45117 1.7168v0.20508q0 1.0957 0.45117 1.6875 0.45117 0.59179 1.2891 0.59179z"/><path d="m249.91 142.99q0-0.93164 0.36328-1.6758 0.36914-0.74414 1.0195-1.1484 0.65625-0.4043 1.4941-0.4043 1.2949 0 2.0918 0.89648 0.80274 0.89649 0.80274 2.3848v0.0762q0 0.92578-0.35742 1.6641-0.35157 0.73243-1.0137 1.1426-0.65625 0.41016-1.5117 0.41016-1.2891 0-2.0918-0.89649-0.79688-0.89648-0.79688-2.373zm1.0898 0.1289q0 1.0547 0.48632 1.6934 0.49219 0.63867 1.3125 0.63867 0.82618 0 1.3125-0.64453 0.48633-0.65039 0.48633-1.8164 0-1.043-0.49804-1.6875-0.49219-0.65039-1.3125-0.65039-0.80274 0-1.2949 0.63867-0.49218 0.63867-0.49218 1.8281z"/><path d="m262.39 143.12q0 1.4473-0.66211 2.332-0.66211 0.88477-1.793 0.88477-1.1543 0-1.8164-0.73242v3.0527h-1.084v-8.7773h0.99024l0.0527 0.70312q0.66211-0.82031 1.8398-0.82031 1.1426 0 1.8047 0.86133 0.66797 0.86133 0.66797 2.3965zm-1.084-0.12304q0-1.0723-0.45703-1.6934-0.45704-0.6211-1.2539-0.6211-0.98438 0-1.4766 0.87305v3.0293q0.48632 0.86718 1.4883 0.86718 0.77929 0 1.2363-0.61523 0.46289-0.62109 0.46289-1.8398z"/><path d="m269.12 143.12q0 1.4473-0.66211 2.332-0.66211 0.88477-1.793 0.88477-1.1543 0-1.8164-0.73242v3.0527h-1.084v-8.7773h0.99024l0.0527 0.70312q0.66211-0.82031 1.8398-0.82031 1.1426 0 1.8047 0.86133 0.66797 0.86133 0.66797 2.3965zm-1.084-0.12304q0-1.0723-0.45703-1.6934-0.45703-0.6211-1.2539-0.6211-0.98437 0-1.4766 0.87305v3.0293q0.48633 0.86718 1.4883 0.86718 0.7793 0 1.2363-0.61523 0.46289-0.62109 0.46289-1.8398z"/><path d="m273.13 146.33q-1.2891 0-2.0977-0.84375-0.80859-0.84961-0.80859-2.2676v-0.19922q0-0.94336 0.35742-1.6816 0.36328-0.74414 1.0078-1.1602 0.65039-0.42188 1.4062-0.42188 1.2363 0 1.9219 0.81445 0.68555 0.81446 0.68555 2.332v0.45118h-4.2949q0.0234 0.9375 0.54492 1.5176 0.52735 0.57422 1.3359 0.57422 0.57422 0 0.97266-0.23437 0.39843-0.23438 0.69726-0.6211l0.66211 0.51563q-0.79687 1.2246-2.3906 1.2246zm-0.13477-5.6836q-0.65625 0-1.1016 0.48046-0.44532 0.47461-0.55078 1.3359h3.1758v-0.082q-0.0469-0.82617-0.44532-1.2773-0.39843-0.45703-1.0781-0.45703z"/><path d="m279.92 140.85q-0.24609-0.041-0.5332-0.041-1.0664 0-1.4473 0.9082v4.5h-1.084v-6.3398h1.0547l0.0176 0.73242q0.53321-0.84961 1.5117-0.84961 0.31641 0 0.48047 0.082z"/><path d="m289.25 143.12q0 1.4473-0.66211 2.332-0.66211 0.88477-1.793 0.88477-1.1543 0-1.8164-0.73242v3.0527h-1.084v-8.7773h0.99023l0.0527 0.70312q0.66211-0.82031 1.8398-0.82031 1.1426 0 1.8047 0.86133 0.66797 0.86133 0.66797 2.3965zm-1.084-0.12304q0-1.0723-0.45703-1.6934-0.45703-0.6211-1.2539-0.6211-0.98437 0-1.4766 0.87305v3.0293q0.48633 0.86718 1.4883 0.86718 0.7793 0 1.2363-0.61523 0.46289-0.62109 0.46289-1.8398z"/><path d="m291.8 146.22h-1.084v-6.3398h1.084zm-1.1719-8.0215q0-0.26367 0.1582-0.44532 0.16406-0.18164 0.48047-0.18164t0.48047 0.18164q0.16406 0.18165 0.16406 0.44532t-0.16406 0.43945-0.48047 0.17578-0.48047-0.17578q-0.1582-0.17578-0.1582-0.43945z"/><path d="m298.89 143.12q0 1.4473-0.66211 2.332-0.66211 0.88477-1.793 0.88477-1.1543 0-1.8164-0.73242v3.0527h-1.084v-8.7773h0.99023l0.0527 0.70312q0.66211-0.82031 1.8398-0.82031 1.1426 0 1.8047 0.86133 0.66797 0.86133 0.66797 2.3965zm-1.084-0.12304q0-1.0723-0.45703-1.6934-0.45703-0.6211-1.2539-0.6211-0.98438 0-1.4766 0.87305v3.0293q0.48633 0.86718 1.4883 0.86718 0.7793 0 1.2363-0.61523 0.46289-0.62109 0.46289-1.8398z"/><path d="m302.9 146.33q-1.2891 0-2.0977-0.84375-0.80859-0.84961-0.80859-2.2676v-0.19922q0-0.94336 0.35742-1.6816 0.36328-0.74414 1.0078-1.1602 0.6504-0.42188 1.4062-0.42188 1.2363 0 1.9219 0.81445 0.68555 0.81446 0.68555 2.332v0.45118h-4.2949q0.0234 0.9375 0.54493 1.5176 0.52734 0.57422 1.3359 0.57422 0.57422 0 0.97266-0.23437 0.39844-0.23438 0.69727-0.6211l0.66211 0.51563q-0.79688 1.2246-2.3906 1.2246zm-0.13477-5.6836q-0.65625 0-1.1016 0.48046-0.44531 0.47461-0.55078 1.3359h3.1758v-0.082q-0.0469-0.82617-0.44531-1.2773-0.39844-0.45703-1.0781-0.45703z"/><path d="m186.36 157.87q0-1.3242 0.35156-2.543 0.35743-1.2188 1.0606-2.2148 0.70313-0.9961 1.459-1.4062l0.22266 0.71484q-0.85547 0.65625-1.4062 2.0039-0.54492 1.3476-0.59766 3.0176l-6e-3 0.49805q0 2.2617 0.82617 3.9258 0.49804 0.9961 1.1836 1.5586l-0.22266 0.66211q-0.77929-0.4336-1.4883-1.4531-1.3828-1.9922-1.3828-4.7637z"/><path d="m193.05 160.57q0.58008 0 1.0137-0.35156t0.48047-0.87891h1.0254q-0.0293 0.54492-0.375 1.0371t-0.92578 0.78516q-0.57422 0.29297-1.2188 0.29297-1.2949 0-2.0625-0.86133-0.76172-0.86719-0.76172-2.3672v-0.18164q0-0.92578 0.33984-1.6465 0.33985-0.72071 0.97266-1.1191 0.63867-0.39844 1.5059-0.39844 1.0664 0 1.7695 0.63867 0.70898 0.63867 0.75586 1.6582h-1.0254q-0.0469-0.61523-0.46875-1.0078-0.41602-0.39844-1.0312-0.39844-0.82617 0-1.2832 0.59766-0.45118 0.5918-0.45118 1.7168v0.20507q0 1.0957 0.45118 1.6875 0.45117 0.5918 1.2891 0.5918z"/><path d="m196.5 158.11q0-0.93164 0.36328-1.6758 0.36914-0.74414 1.0195-1.1484 0.65625-0.40429 1.4941-0.40429 1.2949 0 2.0918 0.89648 0.80273 0.89649 0.80273 2.3848v0.0762q0 0.92578-0.35742 1.6641-0.35156 0.73242-1.0137 1.1426-0.65625 0.41016-1.5117 0.41016-1.2891 0-2.0918-0.89649-0.79687-0.89648-0.79687-2.373zm1.0898 0.12891q0 1.0547 0.48633 1.6934 0.49219 0.63867 1.3125 0.63867 0.82617 0 1.3125-0.64453 0.48633-0.65039 0.48633-1.8164 0-1.043-0.49805-1.6875-0.49218-0.65039-1.3125-0.65039-0.80273 0-1.2949 0.63867-0.49219 0.63868-0.49219 1.8281z"/><path d="m204.65 155 0.0352 0.79687q0.72656-0.91406 1.8984-0.91406 2.0098 0 2.0274 2.2676v4.1894h-1.084v-4.1953q-6e-3 -0.68555-0.3164-1.0137-0.30469-0.32812-0.95508-0.32812-0.52735 0-0.92578 0.28125-0.39844 0.28125-0.6211 0.73828v4.5176h-1.084v-6.3398z"/><path d="m211.72 153.46v1.5352h1.1836v0.83789h-1.1836v3.9316q0 0.38086 0.1582 0.57422 0.1582 0.1875 0.53906 0.1875 0.1875 0 0.51563-0.0703v0.87891q-0.42774 0.11719-0.83203 0.11719-0.72657 0-1.0957-0.43946-0.36914-0.43945-0.36914-1.248v-3.9316h-1.1543v-0.83791h1.1543v-1.5352z"/><path d="m218.08 161.33q-0.0937-0.1875-0.15235-0.66797-0.75586 0.78516-1.8047 0.78516-0.9375 0-1.541-0.52735-0.59766-0.5332-0.59766-1.3476 0-0.99024 0.75-1.5352 0.75586-0.55078 2.1211-0.55078h1.0547v-0.49805q0-0.56836-0.33985-0.90234-0.33984-0.33985-1.002-0.33985-0.58008 0-0.97266 0.29297t-0.39258 0.70899h-1.0898q0-0.47461 0.33398-0.91406 0.33985-0.44532 0.91407-0.70313 0.58008-0.25781 1.2715-0.25781 1.0957 0 1.7168 0.55078 0.62109 0.54492 0.64453 1.5059v2.918q0 0.87304 0.22266 1.3887v0.0937zm-1.7988-0.82617q0.50976 0 0.9668-0.26367 0.45703-0.26368 0.66211-0.68555v-1.3008h-0.84961q-1.9922 0-1.9922 1.166 0 0.50977 0.33984 0.79688 0.33985 0.28711 0.87305 0.28711z"/><path d="m223.24 160.57q0.58008 0 1.0137-0.35156t0.48047-0.87891h1.0254q-0.0293 0.54492-0.375 1.0371t-0.92578 0.78516q-0.57422 0.29297-1.2188 0.29297-1.2949 0-2.0625-0.86133-0.76172-0.86719-0.76172-2.3672v-0.18164q0-0.92578 0.33984-1.6465 0.33985-0.72071 0.97266-1.1191 0.63867-0.39844 1.5059-0.39844 1.0664 0 1.7695 0.63867 0.70898 0.63867 0.75586 1.6582h-1.0254q-0.0469-0.61523-0.46875-1.0078-0.41602-0.39844-1.0312-0.39844-0.82617 0-1.2832 0.59766-0.45117 0.5918-0.45117 1.7168v0.20507q0 1.0957 0.45117 1.6875 0.45118 0.5918 1.2891 0.5918z"/><path d="m228.45 153.46v1.5352h1.1836v0.83789h-1.1836v3.9316q0 0.38086 0.1582 0.57422 0.15821 0.1875 0.53907 0.1875 0.1875 0 0.51562-0.0703v0.87891q-0.42773 0.11719-0.83203 0.11719-0.72656 0-1.0957-0.43946-0.36914-0.43945-0.36914-1.248v-3.9316h-1.1543v-0.83791h1.1543v-1.5352z"/><path d="m237.56 159.65q0-0.43945-0.33398-0.67969-0.32813-0.24609-1.1543-0.42187-0.82031-0.17579-1.3066-0.42188-0.48047-0.24609-0.71485-0.58594-0.22851-0.33984-0.22851-0.80859 0-0.7793 0.65625-1.3184 0.66211-0.53906 1.6875-0.53906 1.0781 0 1.7461 0.55664 0.67383 0.55664 0.67383 1.4238h-1.0898q0-0.44532-0.38086-0.76758-0.375-0.32227-0.94922-0.32227-0.5918 0-0.92578 0.25782-0.33399 0.25781-0.33399 0.67382 0 0.39258 0.31055 0.5918t1.1191 0.38086q0.81445 0.18164 1.3184 0.43359 0.50391 0.25196 0.74414 0.60938 0.24609 0.35156 0.24609 0.86133 0 0.84961-0.67968 1.3652-0.67969 0.50977-1.7637 0.50977-0.76171 0-1.3476-0.26953-0.58594-0.26954-0.91992-0.75-0.32813-0.48633-0.32813-1.0488h1.084q0.0293 0.54492 0.43359 0.86718 0.41016 0.31641 1.0781 0.31641 0.61524 0 0.98438-0.24609 0.375-0.25196 0.375-0.66797z"/><path d="m243.97 160.71q-0.63282 0.74414-1.8574 0.74414-1.0137 0-1.5469-0.58594-0.52734-0.5918-0.5332-1.7461v-4.125h1.084v4.0957q0 1.4414 1.1719 1.4414 1.2422 0 1.6523-0.92578v-4.6113h1.084v6.3398h-1.0312z"/><path d="m249.74 155.97q-0.24609-0.041-0.5332-0.041-1.0664 0-1.4473 0.9082v4.5h-1.084v-6.3398h1.0547l0.0176 0.73242q0.53321-0.84961 1.5117-0.84961 0.31641 0 0.48047 0.082z"/><path d="m251.35 161.33v-5.502h-1.002v-0.83789h1.002v-0.6504q0-1.0195 0.54492-1.5762t1.541-0.55664q0.375 0 0.74414 0.0996l-0.0586 0.87891q-0.27539-0.0527-0.58593-0.0527-0.52735 0-0.81446 0.31055-0.28711 0.30469-0.28711 0.87891v0.66797h1.3535v0.83789h-1.3535v5.502z"/><path d="m258.9 161.33q-0.0937-0.1875-0.15234-0.66797-0.75586 0.78516-1.8047 0.78516-0.9375 0-1.541-0.52735-0.59766-0.5332-0.59766-1.3476 0-0.99024 0.75-1.5352 0.75586-0.55078 2.1211-0.55078h1.0547v-0.49805q0-0.56836-0.33984-0.90234-0.33985-0.33985-1.002-0.33985-0.58007 0-0.97265 0.29297t-0.39258 0.70899h-1.0898q0-0.47461 0.33398-0.91406 0.33984-0.44532 0.91406-0.70313 0.58008-0.25781 1.2715-0.25781 1.0957 0 1.7168 0.55078 0.6211 0.54492 0.64454 1.5059v2.918q0 0.87304 0.22265 1.3887v0.0937zm-1.7988-0.82617q0.50976 0 0.96679-0.26367 0.45703-0.26368 0.66211-0.68555v-1.3008h-0.84961q-1.9922 0-1.9922 1.166 0 0.50977 0.33985 0.79688 0.33984 0.28711 0.87305 0.28711z"/><path d="m264.06 160.57q0.58008 0 1.0137-0.35156 0.43359-0.35156 0.48046-0.87891h1.0254q-0.0293 0.54492-0.375 1.0371t-0.92578 0.78516q-0.57422 0.29297-1.2188 0.29297-1.2949 0-2.0625-0.86133-0.76172-0.86719-0.76172-2.3672v-0.18164q0-0.92578 0.33985-1.6465 0.33984-0.72071 0.97265-1.1191 0.63868-0.39844 1.5059-0.39844 1.0664 0 1.7695 0.63867 0.70898 0.63867 0.75585 1.6582h-1.0254q-0.0469-0.61523-0.46875-1.0078-0.41601-0.39844-1.0312-0.39844-0.82617 0-1.2832 0.59766-0.45117 0.5918-0.45117 1.7168v0.20507q0 1.0957 0.45117 1.6875 0.45117 0.5918 1.2891 0.5918z"/><path d="m270.43 161.45q-1.2891 0-2.0976-0.84375-0.8086-0.84961-0.8086-2.2676v-0.19922q0-0.94336 0.35743-1.6816 0.36328-0.74414 1.0078-1.1602 0.65039-0.42187 1.4062-0.42187 1.2363 0 1.9219 0.81445 0.68555 0.81445 0.68555 2.332v0.45117h-4.2949q0.0234 0.9375 0.54492 1.5176 0.52734 0.57422 1.3359 0.57422 0.57422 0 0.97265-0.23437 0.39844-0.23438 0.69727-0.6211l0.66211 0.51563q-0.79688 1.2246-2.3906 1.2246zm-0.13476-5.6836q-0.65625 0-1.1016 0.48047-0.44532 0.47461-0.55079 1.3359h3.1758v-0.082q-0.0469-0.82617-0.44532-1.2774-0.39843-0.45703-1.0781-0.45703z"/><path d="m278.3 161.33h-1.084v-6.3398h1.084zm-1.1719-8.0215q0-0.26367 0.1582-0.44531 0.16406-0.18164 0.48047-0.18164t0.48047 0.18164 0.16406 0.44531q0 0.26368-0.16406 0.43946t-0.48047 0.17578-0.48047-0.17578q-0.1582-0.17578-0.1582-0.43946z"/><path d="m283.73 159.65q0-0.43945-0.33399-0.67969-0.32812-0.24609-1.1543-0.42187-0.82031-0.17579-1.3066-0.42188-0.48047-0.24609-0.71484-0.58594-0.22852-0.33984-0.22852-0.80859 0-0.7793 0.65625-1.3184 0.66211-0.53906 1.6875-0.53906 1.0781 0 1.7461 0.55664 0.67383 0.55664 0.67383 1.4238h-1.0898q0-0.44532-0.38086-0.76758-0.375-0.32227-0.94922-0.32227-0.59179 0-0.92578 0.25782-0.33398 0.25781-0.33398 0.67382 0 0.39258 0.31055 0.5918 0.31054 0.19922 1.1191 0.38086 0.81445 0.18164 1.3184 0.43359 0.5039 0.25196 0.74414 0.60938 0.24609 0.35156 0.24609 0.86133 0 0.84961-0.67969 1.3652-0.67969 0.50977-1.7637 0.50977-0.76172 0-1.3477-0.26953-0.58593-0.26954-0.91992-0.75-0.32812-0.48633-0.32812-1.0488h1.084q0.0293 0.54492 0.4336 0.86718 0.41015 0.31641 1.0781 0.31641 0.61523 0 0.98438-0.24609 0.375-0.25196 0.375-0.66797z"/><path d="m291.74 160.57q0.58008 0 1.0137-0.35156 0.4336-0.35156 0.48047-0.87891h1.0254q-0.0293 0.54492-0.375 1.0371t-0.92578 0.78516q-0.57422 0.29297-1.2188 0.29297-1.2949 0-2.0625-0.86133-0.76172-0.86719-0.76172-2.3672v-0.18164q0-0.92578 0.33985-1.6465 0.33984-0.72071 0.97265-1.1191 0.63867-0.39844 1.5059-0.39844 1.0664 0 1.7695 0.63867 0.70899 0.63867 0.75586 1.6582h-1.0254q-0.0469-0.61523-0.46875-1.0078-0.41601-0.39844-1.0312-0.39844-0.82617 0-1.2832 0.59766-0.45117 0.5918-0.45117 1.7168v0.20507q0 1.0957 0.45117 1.6875 0.45117 0.5918 1.2891 0.5918z"/><path d="m295.19 158.11q0-0.93164 0.36328-1.6758 0.36914-0.74414 1.0195-1.1484 0.65625-0.40429 1.4941-0.40429 1.2949 0 2.0918 0.89648 0.80274 0.89649 0.80274 2.3848v0.0762q0 0.92578-0.35742 1.6641-0.35157 0.73242-1.0137 1.1426-0.65625 0.41016-1.5117 0.41016-1.2891 0-2.0918-0.89649-0.79688-0.89648-0.79688-2.373zm1.0898 0.12891q0 1.0547 0.48632 1.6934 0.49219 0.63867 1.3125 0.63867 0.82618 0 1.3125-0.64453 0.48633-0.65039 0.48633-1.8164 0-1.043-0.49804-1.6875-0.49219-0.65039-1.3125-0.65039-0.80274 0-1.2949 0.63867-0.49218 0.63868-0.49218 1.8281z"/><path d="m304.32 159.86 1.5703-4.8691h1.1074l-2.2734 6.3398h-0.82618l-2.2969-6.3398h1.1074z"/><path d="m310.6 161.45q-1.2891 0-2.0977-0.84375-0.80859-0.84961-0.80859-2.2676v-0.19922q0-0.94336 0.35742-1.6816 0.36328-0.74414 1.0078-1.1602 0.65039-0.42187 1.4062-0.42187 1.2363 0 1.9219 0.81445t0.68555 2.332v0.45117h-4.2949q0.0234 0.9375 0.54493 1.5176 0.52734 0.57422 1.3359 0.57422 0.57422 0 0.97266-0.23437 0.39844-0.23438 0.69726-0.6211l0.66211 0.51563q-0.79687 1.2246-2.3906 1.2246zm-0.13477-5.6836q-0.65625 0-1.1016 0.48047-0.44531 0.47461-0.55078 1.3359h3.1758v-0.082q-0.0469-0.82617-0.44531-1.2774-0.39844-0.45703-1.0781-0.45703z"/><path d="m317.39 155.97q-0.24609-0.041-0.5332-0.041-1.0664 0-1.4473 0.9082v4.5h-1.084v-6.3398h1.0547l0.0176 0.73242q0.5332-0.84961 1.5117-0.84961 0.3164 0 0.48046 0.082z"/><path d="m320.9 161.45q-1.2891 0-2.0977-0.84375-0.80859-0.84961-0.80859-2.2676v-0.19922q0-0.94336 0.35742-1.6816 0.36328-0.74414 1.0078-1.1602 0.65039-0.42187 1.4062-0.42187 1.2363 0 1.9219 0.81445t0.68555 2.332v0.45117h-4.2949q0.0234 0.9375 0.54493 1.5176 0.52734 0.57422 1.3359 0.57422 0.57422 0 0.97266-0.23437 0.39844-0.23438 0.69727-0.6211l0.6621 0.51563q-0.79687 1.2246-2.3906 1.2246zm-0.13477-5.6836q-0.65625 0-1.1016 0.48047-0.44531 0.47461-0.55078 1.3359h3.1758v-0.082q-0.0469-0.82617-0.44531-1.2774-0.39844-0.45703-1.0781-0.45703z"/><path d="m324.37 158.11q0-1.459 0.69141-2.3438 0.6914-0.89062 1.8105-0.89062 1.1133 0 1.7637 0.76172v-3.3047h1.084v9h-0.99609l-0.0527-0.67969q-0.65039 0.79688-1.8106 0.79688-1.1016 0-1.7988-0.90235-0.69141-0.90234-0.69141-2.3555zm1.084 0.12305q0 1.0781 0.44532 1.6875 0.44531 0.60937 1.2305 0.60937 1.0312 0 1.5059-0.92578v-2.9121q-0.48633-0.89648-1.4942-0.89648-0.79687 0-1.2422 0.61523-0.44532 0.61524-0.44532 1.8223z"/><path d="m192.02 174.96 1.2188-4.8457h1.084l-1.8457 6.3398h-0.87891l-1.541-4.8047-1.5 4.8047h-0.87891l-1.8398-6.3398h1.0781l1.248 4.7461 1.4766-4.7461h0.87305z"/><path d="m196.6 176.45h-1.084v-6.3398h1.084zm-1.1719-8.0215q0-0.26367 0.15821-0.44531 0.16406-0.18164 0.48047-0.18164 0.3164 0 0.48046 0.18164 0.16407 0.18164 0.16407 0.44531t-0.16407 0.43946q-0.16406 0.17578-0.48046 0.17578-0.31641 0-0.48047-0.17578-0.15821-0.17579-0.15821-0.43946z"/><path d="m199.8 168.58v1.5352h1.1836v0.83789h-1.1836v3.9316q0 0.38086 0.1582 0.57422 0.1582 0.1875 0.53906 0.1875 0.1875 0 0.51563-0.0703v0.87891q-0.42774 0.11718-0.83203 0.11718-0.72657 0-1.0957-0.43945t-0.36914-1.248v-3.9316h-1.1543v-0.83789h1.1543v-1.5352z"/><path d="m203.34 170.88q0.7207-0.88476 1.875-0.88476 2.0098 0 2.0273 2.2676v4.1895h-1.084v-4.1953q-6e-3 -0.68554-0.31641-1.0137-0.30468-0.32812-0.95507-0.32812-0.52735 0-0.92579 0.28125-0.39843 0.28125-0.62109 0.73828v4.5176h-1.084v-9h1.084z"/><path d="m215.52 174.77q0-0.43946-0.33398-0.67969-0.32813-0.2461-1.1543-0.42188-0.82031-0.17578-1.3066-0.42187-0.48047-0.2461-0.71485-0.58594-0.22851-0.33984-0.22851-0.80859 0-0.7793 0.65625-1.3184 0.66211-0.53906 1.6875-0.53906 1.0781 0 1.7461 0.55664 0.67383 0.55664 0.67383 1.4238h-1.0898q0-0.44531-0.38086-0.76757-0.375-0.32227-0.94922-0.32227-0.5918 0-0.92578 0.25781-0.33399 0.25782-0.33399 0.67383 0 0.39258 0.31055 0.5918t1.1191 0.38086q0.81445 0.18164 1.3184 0.43359t0.74414 0.60938q0.24609 0.35156 0.24609 0.86132 0 0.84961-0.67968 1.3652-0.67969 0.50976-1.7637 0.50976-0.76172 0-1.3477-0.26953t-0.91992-0.75q-0.32813-0.48633-0.32813-1.0488h1.084q0.0293 0.54493 0.43359 0.86719 0.41016 0.31641 1.0781 0.31641 0.61523 0 0.98437-0.2461 0.375-0.25195 0.375-0.66796z"/><path d="m223.37 173.35q0 1.4473-0.66211 2.332-0.66211 0.88476-1.793 0.88476-1.1543 0-1.8164-0.73242v3.0527h-1.084v-8.7774h0.99024l0.0527 0.70313q0.66211-0.82031 1.8398-0.82031 1.1426 0 1.8047 0.86132 0.66797 0.86133 0.66797 2.3965zm-1.084-0.12305q0-1.0723-0.45703-1.6934t-1.2539-0.62109q-0.98437 0-1.4766 0.87304v3.0293q0.48633 0.86719 1.4883 0.86719 0.7793 0 1.2363-0.61524 0.46289-0.62109 0.46289-1.8398z"/><path d="m227.38 176.57q-1.2891 0-2.0977-0.84375-0.80859-0.84961-0.80859-2.2676v-0.19922q0-0.94336 0.35742-1.6816 0.36328-0.74414 1.0078-1.1602 0.65039-0.42187 1.4062-0.42187 1.2363 0 1.9219 0.81445 0.68555 0.81445 0.68555 2.332v0.45117h-4.2949q0.0234 0.9375 0.54492 1.5176 0.52735 0.57422 1.3359 0.57422 0.57422 0 0.97266-0.23438 0.39843-0.23437 0.69726-0.62109l0.66211 0.51562q-0.79687 1.2246-2.3906 1.2246zm-0.13477-5.6836q-0.65625 0-1.1016 0.48047-0.44532 0.47461-0.55078 1.3359h3.1758v-0.082q-0.0469-0.82618-0.44532-1.2774-0.39843-0.45703-1.0781-0.45703z"/><path d="m233.65 175.68q0.58007 0 1.0137-0.35156 0.43359-0.35157 0.48047-0.87891h1.0254q-0.0293 0.54492-0.375 1.0371-0.34571 0.49219-0.92578 0.78516-0.57422 0.29296-1.2188 0.29296-1.2949 0-2.0625-0.86132-0.76172-0.86719-0.76172-2.3672v-0.18164q0-0.92578 0.33984-1.6465 0.33985-0.7207 0.97266-1.1191 0.63867-0.39843 1.5059-0.39843 1.0664 0 1.7695 0.63867 0.70898 0.63867 0.75586 1.6582h-1.0254q-0.0469-0.61523-0.46875-1.0078-0.41602-0.39844-1.0312-0.39844-0.82617 0-1.2832 0.59766-0.45117 0.59179-0.45117 1.7168v0.20508q0 1.0957 0.45117 1.6875 0.45118 0.5918 1.2891 0.5918z"/><path d="m238.57 176.45h-1.084v-6.3398h1.084zm-1.1719-8.0215q0-0.26367 0.1582-0.44531 0.16406-0.18164 0.48047-0.18164t0.48047 0.18164 0.16406 0.44531-0.16406 0.43946q-0.16406 0.17578-0.48047 0.17578t-0.48047-0.17578q-0.1582-0.17579-0.1582-0.43946z"/><path d="m244.22 176.45q-0.0937-0.1875-0.15234-0.66797-0.75586 0.78515-1.8047 0.78515-0.9375 0-1.541-0.52734-0.59765-0.5332-0.59765-1.3477 0-0.99023 0.75-1.5352 0.75586-0.55078 2.1211-0.55078h1.0547v-0.49805q0-0.56836-0.33985-0.90234-0.33984-0.33985-1.002-0.33985-0.58008 0-0.97266 0.29297-0.39257 0.29297-0.39257 0.70899h-1.0898q0-0.47461 0.33399-0.91407 0.33984-0.44531 0.91406-0.70312 0.58008-0.25781 1.2715-0.25781 1.0957 0 1.7168 0.55078 0.62109 0.54492 0.64453 1.5059v2.918q0 0.87305 0.22266 1.3887v0.0937zm-1.7988-0.82618q0.50977 0 0.9668-0.26367t0.66211-0.68554v-1.3008h-0.84961q-1.9922 0-1.9922 1.166 0 0.50977 0.33984 0.79688 0.33985 0.2871 0.87305 0.2871z"/><path d="m248.01 176.45h-1.084v-9h1.084z"/><path d="m255.26 175.68q0.58008 0 1.0137-0.35156 0.4336-0.35157 0.48047-0.87891h1.0254q-0.0293 0.54492-0.375 1.0371t-0.92578 0.78516q-0.57422 0.29296-1.2188 0.29296-1.2949 0-2.0625-0.86132-0.76172-0.86719-0.76172-2.3672v-0.18164q0-0.92578 0.33985-1.6465 0.33984-0.7207 0.97265-1.1191 0.63868-0.39843 1.5059-0.39843 1.0664 0 1.7695 0.63867 0.70899 0.63867 0.75586 1.6582h-1.0254q-0.0469-0.61523-0.46875-1.0078-0.41601-0.39844-1.0312-0.39844-0.82617 0-1.2832 0.59766-0.45117 0.59179-0.45117 1.7168v0.20508q0 1.0957 0.45117 1.6875t1.2891 0.5918z"/><path d="m258.71 173.22q0-0.93164 0.36329-1.6758 0.36914-0.74414 1.0195-1.1484 0.65625-0.40429 1.4941-0.40429 1.2949 0 2.0918 0.89648 0.80274 0.89648 0.80274 2.3848v0.0762q0 0.92578-0.35742 1.6641-0.35157 0.73242-1.0137 1.1426-0.65625 0.41015-1.5117 0.41015-1.2891 0-2.0918-0.89648-0.79688-0.89648-0.79688-2.373zm1.0898 0.12891q0 1.0547 0.48633 1.6934 0.49218 0.63867 1.3125 0.63867 0.82617 0 1.3125-0.64453 0.48632-0.65039 0.48632-1.8164 0-1.043-0.49804-1.6875-0.49219-0.65039-1.3125-0.65039-0.80274 0-1.2949 0.63867-0.49219 0.63867-0.49219 1.8281z"/><path d="m271.19 173.35q0 1.4473-0.66211 2.332-0.66211 0.88476-1.793 0.88476-1.1543 0-1.8164-0.73242v3.0527h-1.084v-8.7774h0.99024l0.0527 0.70313q0.66211-0.82031 1.8398-0.82031 1.1426 0 1.8047 0.86132 0.66797 0.86133 0.66797 2.3965zm-1.084-0.12305q0-1.0723-0.45703-1.6934t-1.2539-0.62109q-0.98437 0-1.4766 0.87304v3.0293q0.48633 0.86719 1.4883 0.86719 0.7793 0 1.2363-0.61524 0.46289-0.62109 0.46289-1.8398z"/><path d="m277.93 173.35q0 1.4473-0.66211 2.332-0.6621 0.88476-1.793 0.88476-1.1543 0-1.8164-0.73242v3.0527h-1.084v-8.7774h0.99023l0.0527 0.70313q0.66211-0.82031 1.8398-0.82031 1.1426 0 1.8047 0.86132 0.66796 0.86133 0.66796 2.3965zm-1.084-0.12305q0-1.0723-0.45703-1.6934t-1.2539-0.62109q-0.98437 0-1.4766 0.87304v3.0293q0.48633 0.86719 1.4883 0.86719 0.7793 0 1.2363-0.61524 0.46289-0.62109 0.46289-1.8398z"/><path d="m281.93 176.57q-1.2891 0-2.0977-0.84375-0.80859-0.84961-0.80859-2.2676v-0.19922q0-0.94336 0.35742-1.6816 0.36328-0.74414 1.0078-1.1602 0.65039-0.42187 1.4062-0.42187 1.2363 0 1.9219 0.81445 0.68554 0.81445 0.68554 2.332v0.45117h-4.2949q0.0234 0.9375 0.54492 1.5176 0.52735 0.57422 1.3359 0.57422 0.57422 0 0.97266-0.23438 0.39843-0.23437 0.69726-0.62109l0.66211 0.51562q-0.79687 1.2246-2.3906 1.2246zm-0.13477-5.6836q-0.65625 0-1.1016 0.48047-0.44531 0.47461-0.55078 1.3359h3.1758v-0.082q-0.0469-0.82618-0.44531-1.2774-0.39844-0.45703-1.0781-0.45703z"/><path d="m288.72 171.08q-0.24609-0.041-0.5332-0.041-1.0664 0-1.4473 0.90821v4.5h-1.084v-6.3398h1.0547l0.0176 0.73242q0.53321-0.8496 1.5117-0.8496 0.31641 0 0.48047 0.082z"/><path d="m298.05 173.35q0 1.4473-0.66211 2.332-0.66211 0.88476-1.793 0.88476-1.1543 0-1.8164-0.73242v3.0527h-1.084v-8.7774h0.99023l0.0527 0.70313q0.66211-0.82031 1.8398-0.82031 1.1426 0 1.8047 0.86132 0.66797 0.86133 0.66797 2.3965zm-1.084-0.12305q0-1.0723-0.45703-1.6934t-1.2539-0.62109q-0.98438 0-1.4766 0.87304v3.0293q0.48633 0.86719 1.4883 0.86719 0.7793 0 1.2363-0.61524 0.46289-0.62109 0.46289-1.8398z"/><path d="m299.14 173.22q0-0.93164 0.36328-1.6758 0.36914-0.74414 1.0195-1.1484 0.65625-0.40429 1.4941-0.40429 1.2949 0 2.0918 0.89648 0.80274 0.89648 0.80274 2.3848v0.0762q0 0.92578-0.35743 1.6641-0.35156 0.73242-1.0137 1.1426-0.65625 0.41015-1.5117 0.41015-1.2891 0-2.0918-0.89648-0.79688-0.89648-0.79688-2.373zm1.0898 0.12891q0 1.0547 0.48632 1.6934 0.49219 0.63867 1.3125 0.63867 0.82618 0 1.3125-0.64453 0.48633-0.65039 0.48633-1.8164 0-1.043-0.49805-1.6875-0.49218-0.65039-1.3125-0.65039-0.80273 0-1.2949 0.63867-0.49218 0.63867-0.49218 1.8281z"/><path d="m311.88 174.96 1.2188-4.8457h1.084l-1.8457 6.3398h-0.8789l-1.541-4.8047-1.5 4.8047h-0.8789l-1.8398-6.3398h1.0781l1.248 4.7461 1.4766-4.7461h0.87304z"/><path d="m315.02 173.23q0-1.459 0.6914-2.3438 0.69141-0.89062 1.8106-0.89062 1.1133 0 1.7637 0.76171v-3.3047h1.084v9h-0.9961l-0.0527-0.67969q-0.65039 0.79687-1.8106 0.79687-1.1016 0-1.7988-0.90234-0.6914-0.90234-0.6914-2.3555zm1.084 0.12305q0 1.0781 0.44531 1.6875 0.44532 0.60937 1.2305 0.60937 1.0312 0 1.5059-0.92578v-2.9121q-0.48633-0.89648-1.4941-0.89648-0.79687 0-1.2422 0.61523-0.44531 0.61524-0.44531 1.8223z"/><path d="m324.68 176.57q-1.2891 0-2.0977-0.84375-0.80859-0.84961-0.80859-2.2676v-0.19922q0-0.94336 0.35742-1.6816 0.36328-0.74414 1.0078-1.1602 0.65039-0.42187 1.4062-0.42187 1.2363 0 1.9219 0.81445 0.68554 0.81445 0.68554 2.332v0.45117h-4.2949q0.0234 0.9375 0.54492 1.5176 0.52735 0.57422 1.3359 0.57422 0.57422 0 0.97266-0.23438 0.39843-0.23437 0.69726-0.62109l0.66211 0.51562q-0.79687 1.2246-2.3906 1.2246zm-0.13477-5.6836q-0.65625 0-1.1016 0.48047-0.44531 0.47461-0.55078 1.3359h3.1758v-0.082q-0.0469-0.82618-0.44531-1.2774-0.39844-0.45703-1.0781-0.45703z"/><path d="m331.47 171.08q-0.24609-0.041-0.5332-0.041-1.0664 0-1.4473 0.90821v4.5h-1.084v-6.3398h1.0547l0.0176 0.73242q0.53321-0.8496 1.5117-0.8496 0.31641 0 0.48047 0.082z"/><path d="m334.97 173.05q0 1.3066-0.3457 2.5078-0.33985 1.1953-1.0488 2.209-0.70313 1.0137-1.4766 1.4414l-0.22852-0.66211q0.90234-0.6914 1.4473-2.1445 0.55078-1.459 0.5625-3.2344v-0.1875q0-1.2305-0.25782-2.2852-0.25781-1.0606-0.7207-1.8984-0.45703-0.83789-1.0312-1.3066l0.22852-0.66211q0.77343 0.42774 1.4707 1.4297 0.70312 1.002 1.0488 2.209 0.35156 1.207 0.35156 2.584z"/></g></g></svg>
