<svg width="360" height="241" viewBox="0 0 360 241" fill="none" xmlns="http://www.w3.org/2000/svg">
<path d="M190.99 59V50.4688H193.779C194.705 50.4688 195.4 50.6602 195.865 51.043C196.334 51.4258 196.568 51.9922 196.568 52.7422C196.568 53.1406 196.455 53.4941 196.229 53.8027C196.002 54.1074 195.693 54.3438 195.303 54.5117C195.764 54.6406 196.127 54.8867 196.393 55.25C196.662 55.6094 196.797 56.0391 196.797 56.5391C196.797 57.3047 196.549 57.9062 196.053 58.3438C195.557 58.7812 194.855 59 193.949 59H190.99ZM192.115 55.0098V58.0801H193.973C194.496 58.0801 194.908 57.9453 195.209 57.6758C195.514 57.4023 195.666 57.0273 195.666 56.5508C195.666 55.5234 195.107 55.0098 193.99 55.0098H192.115ZM192.115 54.1074H193.814C194.307 54.1074 194.699 53.9844 194.992 53.7383C195.289 53.4922 195.438 53.1582 195.438 52.7363C195.438 52.2676 195.301 51.9277 195.027 51.7168C194.754 51.502 194.338 51.3945 193.779 51.3945H192.115V54.1074ZM203.477 59H202.393V56.293H199.48V59H198.391V52.6602H199.48V55.4082H202.393V52.6602H203.477V59ZM207.297 57.4121L208.773 52.6602H209.934L207.385 59.9785C206.99 61.0332 206.363 61.5605 205.504 61.5605L205.299 61.543L204.895 61.4668V60.5879L205.188 60.6113C205.555 60.6113 205.84 60.5371 206.043 60.3887C206.25 60.2402 206.42 59.9688 206.553 59.5742L206.793 58.9297L204.531 52.6602H205.715L207.297 57.4121ZM215.617 53.5391H213.49V59H212.406V53.5391H210.32V52.6602H215.617V53.5391ZM222.027 55.9004C222.027 56.8652 221.807 57.6426 221.365 58.2324C220.924 58.8223 220.326 59.1172 219.572 59.1172C218.803 59.1172 218.197 58.873 217.756 58.3848V61.4375H216.672V52.6602H217.662L217.715 53.3633C218.156 52.8164 218.77 52.543 219.555 52.543C220.316 52.543 220.918 52.8301 221.359 53.4043C221.805 53.9785 222.027 54.7773 222.027 55.8008V55.9004ZM220.943 55.7773C220.943 55.0625 220.791 54.498 220.486 54.084C220.182 53.6699 219.764 53.4629 219.232 53.4629C218.576 53.4629 218.084 53.7539 217.756 54.3359V57.3652C218.08 57.9434 218.576 58.2324 219.244 58.2324C219.764 58.2324 220.176 58.0273 220.48 57.6172C220.789 57.2031 220.943 56.5898 220.943 55.7773ZM226.041 59.1172C225.182 59.1172 224.482 58.8359 223.943 58.2734C223.404 57.707 223.135 56.9512 223.135 56.0059V55.8066C223.135 55.1777 223.254 54.6172 223.492 54.125C223.734 53.6289 224.07 53.2422 224.5 52.9648C224.934 52.6836 225.402 52.543 225.906 52.543C226.73 52.543 227.371 52.8145 227.828 53.3574C228.285 53.9004 228.514 54.6777 228.514 55.6895V56.1406H224.219C224.234 56.7656 224.416 57.2715 224.764 57.6582C225.115 58.041 225.561 58.2324 226.1 58.2324C226.482 58.2324 226.807 58.1543 227.072 57.998C227.338 57.8418 227.57 57.6348 227.77 57.377L228.432 57.8926C227.9 58.709 227.104 59.1172 226.041 59.1172ZM225.906 53.4336C225.469 53.4336 225.102 53.5938 224.805 53.9141C224.508 54.2305 224.324 54.6758 224.254 55.25H227.43V55.168C227.398 54.6172 227.25 54.1914 226.984 53.8906C226.719 53.5859 226.359 53.4336 225.906 53.4336ZM234.953 59H233.869V56.293H230.957V59H229.867V52.6602H230.957V55.4082H233.869V52.6602H234.953V59ZM241.879 59H240.795V56.293H237.883V59H236.793V52.6602H237.883V55.4082H240.795V52.6602H241.879V59ZM247.727 52.6602H248.811V59H247.727V54.377L244.803 59H243.719V52.6602H244.803V57.2891L247.727 52.6602ZM254.652 52.6602H255.736V59H254.652V54.377L251.729 59H250.645V52.6602H251.729V57.2891L254.652 52.6602ZM254.945 50.3516C254.945 50.8242 254.783 51.2051 254.459 51.4941C254.139 51.7793 253.717 51.9219 253.193 51.9219C252.67 51.9219 252.246 51.7773 251.922 51.4883C251.598 51.1992 251.436 50.8203 251.436 50.3516H252.32C252.32 50.625 252.395 50.8398 252.543 50.9961C252.691 51.1484 252.908 51.2246 253.193 51.2246C253.467 51.2246 253.68 51.1484 253.832 50.9961C253.988 50.8438 254.066 50.6289 254.066 50.3516H254.945ZM260.4 58.1152L260.775 57.6523C261.197 57.1055 261.438 56.2852 261.496 55.1914L261.596 52.6602H265.68V58.1152H266.494V60.8633H265.41V59H260.986V60.8633H259.902L259.908 58.1152H260.4ZM261.684 58.1152H264.596V53.6621H262.645L262.58 55.1738C262.514 56.4355 262.215 57.416 261.684 58.1152ZM271.797 52.6602H272.881V59H271.797V54.377L268.873 59H267.789V52.6602H268.873V57.2891L271.797 52.6602ZM278.535 59C278.473 58.875 278.422 58.6523 278.383 58.332C277.879 58.8555 277.277 59.1172 276.578 59.1172C275.953 59.1172 275.439 58.9414 275.037 58.5898C274.639 58.2344 274.439 57.7852 274.439 57.2422C274.439 56.582 274.689 56.0703 275.189 55.707C275.693 55.3398 276.4 55.1562 277.311 55.1562H278.365V54.6582C278.365 54.2793 278.252 53.9785 278.025 53.7559C277.799 53.5293 277.465 53.416 277.023 53.416C276.637 53.416 276.312 53.5137 276.051 53.709C275.789 53.9043 275.658 54.1406 275.658 54.418H274.568C274.568 54.1016 274.68 53.7969 274.902 53.5039C275.129 53.207 275.434 52.9727 275.816 52.8008C276.203 52.6289 276.627 52.543 277.088 52.543C277.818 52.543 278.391 52.7266 278.805 53.0938C279.219 53.457 279.434 53.959 279.449 54.5996V57.5176C279.449 58.0996 279.523 58.5625 279.672 58.9062V59H278.535ZM276.736 58.1738C277.076 58.1738 277.398 58.0859 277.703 57.9102C278.008 57.7344 278.229 57.5059 278.365 57.2246V55.9238H277.516C276.188 55.9238 275.523 56.3125 275.523 57.0898C275.523 57.4297 275.637 57.6953 275.863 57.8867C276.09 58.0781 276.381 58.1738 276.736 58.1738ZM284.799 57.5645L286.955 52.6602H288.309V59H287.225V54.3887L285.174 59H284.424L282.332 54.2891V59H281.248V52.6602H282.654L284.799 57.5645ZM292.686 59.1172C291.826 59.1172 291.127 58.8359 290.588 58.2734C290.049 57.707 289.779 56.9512 289.779 56.0059V55.8066C289.779 55.1777 289.898 54.6172 290.137 54.125C290.379 53.6289 290.715 53.2422 291.145 52.9648C291.578 52.6836 292.047 52.543 292.551 52.543C293.375 52.543 294.016 52.8145 294.473 53.3574C294.93 53.9004 295.158 54.6777 295.158 55.6895V56.1406H290.863C290.879 56.7656 291.061 57.2715 291.408 57.6582C291.76 58.041 292.205 58.2324 292.744 58.2324C293.127 58.2324 293.451 58.1543 293.717 57.998C293.982 57.8418 294.215 57.6348 294.414 57.377L295.076 57.8926C294.545 58.709 293.748 59.1172 292.686 59.1172ZM292.551 53.4336C292.113 53.4336 291.746 53.5938 291.449 53.9141C291.152 54.2305 290.969 54.6758 290.898 55.25H294.074V55.168C294.043 54.6172 293.895 54.1914 293.629 53.8906C293.363 53.5859 293.004 53.4336 292.551 53.4336ZM301.059 53.5391H298.932V59H297.848V53.5391H295.762V52.6602H301.059V53.5391ZM307.469 55.9004C307.469 56.8652 307.248 57.6426 306.807 58.2324C306.365 58.8223 305.768 59.1172 305.014 59.1172C304.244 59.1172 303.639 58.873 303.197 58.3848V61.4375H302.113V52.6602H303.104L303.156 53.3633C303.598 52.8164 304.211 52.543 304.996 52.543C305.758 52.543 306.359 52.8301 306.801 53.4043C307.246 53.9785 307.469 54.7773 307.469 55.8008V55.9004ZM306.385 55.7773C306.385 55.0625 306.232 54.498 305.928 54.084C305.623 53.6699 305.205 53.4629 304.674 53.4629C304.018 53.4629 303.525 53.7539 303.197 54.3359V57.3652C303.521 57.9434 304.018 58.2324 304.686 58.2324C305.205 58.2324 305.617 58.0273 305.922 57.6172C306.23 57.2031 306.385 56.5898 306.385 55.7773ZM192.947 71.9746L194.354 69.6602H195.619L193.545 72.7949L195.684 76H194.43L192.965 73.627L191.5 76H190.24L192.379 72.7949L190.305 69.6602H191.559L192.947 71.9746ZM196.873 76V69.6602H199.346C200.189 69.6602 200.836 69.8086 201.285 70.1055C201.738 70.3984 201.965 70.8301 201.965 71.4004C201.965 71.6934 201.877 71.959 201.701 72.1973C201.525 72.4316 201.266 72.6113 200.922 72.7363C201.305 72.8262 201.611 73.002 201.842 73.2637C202.076 73.5254 202.193 73.8379 202.193 74.2012C202.193 74.7832 201.979 75.2285 201.549 75.5371C201.123 75.8457 200.52 76 199.738 76H196.873ZM197.957 73.2168V75.127H199.75C200.203 75.127 200.541 75.043 200.764 74.875C200.99 74.707 201.104 74.4707 201.104 74.166C201.104 73.5332 200.639 73.2168 199.709 73.2168H197.957ZM197.957 72.3496H199.357C200.373 72.3496 200.881 72.0527 200.881 71.459C200.881 70.8652 200.4 70.5586 199.439 70.5391H197.957V72.3496ZM203.342 72.7715C203.342 72.1504 203.463 71.5918 203.705 71.0957C203.951 70.5996 204.291 70.2168 204.725 69.9473C205.162 69.6777 205.66 69.543 206.219 69.543C207.082 69.543 207.779 69.8418 208.311 70.4395C208.846 71.0371 209.113 71.832 209.113 72.8242V72.9004C209.113 73.5176 208.994 74.0723 208.756 74.5645C208.521 75.0527 208.184 75.4336 207.742 75.707C207.305 75.9805 206.801 76.1172 206.23 76.1172C205.371 76.1172 204.674 75.8184 204.139 75.2207C203.607 74.623 203.342 73.832 203.342 72.8477V72.7715ZM204.432 72.9004C204.432 73.6035 204.594 74.168 204.918 74.5938C205.246 75.0195 205.684 75.2324 206.23 75.2324C206.781 75.2324 207.219 75.0176 207.543 74.5879C207.867 74.1543 208.029 73.5488 208.029 72.7715C208.029 72.0762 207.863 71.5137 207.531 71.084C207.203 70.6504 206.766 70.4336 206.219 70.4336C205.684 70.4336 205.252 70.6465 204.924 71.0723C204.596 71.498 204.432 72.1074 204.432 72.9004ZM213.016 75.2324C213.402 75.2324 213.74 75.1152 214.029 74.8809C214.318 74.6465 214.479 74.3535 214.51 74.002H215.535C215.516 74.3652 215.391 74.7109 215.16 75.0391C214.93 75.3672 214.621 75.6289 214.234 75.8242C213.852 76.0195 213.445 76.1172 213.016 76.1172C212.152 76.1172 211.465 75.8301 210.953 75.2559C210.445 74.6777 210.191 73.8887 210.191 72.8887V72.707C210.191 72.0898 210.305 71.541 210.531 71.0605C210.758 70.5801 211.082 70.207 211.504 69.9414C211.93 69.6758 212.432 69.543 213.01 69.543C213.721 69.543 214.311 69.7559 214.779 70.1816C215.252 70.6074 215.504 71.1602 215.535 71.8398H214.51C214.479 71.4297 214.322 71.0938 214.041 70.832C213.764 70.5664 213.42 70.4336 213.01 70.4336C212.459 70.4336 212.031 70.6328 211.727 71.0312C211.426 71.4258 211.275 71.998 211.275 72.748V72.9531C211.275 73.6836 211.426 74.2461 211.727 74.6406C212.027 75.0352 212.457 75.2324 213.016 75.2324ZM221.465 70.5391H219.338V76H218.254V70.5391H216.168V69.6602H221.465V70.5391ZM221.986 72.7715C221.986 72.1504 222.107 71.5918 222.35 71.0957C222.596 70.5996 222.936 70.2168 223.369 69.9473C223.807 69.6777 224.305 69.543 224.863 69.543C225.727 69.543 226.424 69.8418 226.955 70.4395C227.49 71.0371 227.758 71.832 227.758 72.8242V72.9004C227.758 73.5176 227.639 74.0723 227.4 74.5645C227.166 75.0527 226.828 75.4336 226.387 75.707C225.949 75.9805 225.445 76.1172 224.875 76.1172C224.016 76.1172 223.318 75.8184 222.783 75.2207C222.252 74.623 221.986 73.832 221.986 72.8477V72.7715ZM223.076 72.9004C223.076 73.6035 223.238 74.168 223.562 74.5938C223.891 75.0195 224.328 75.2324 224.875 75.2324C225.426 75.2324 225.863 75.0176 226.188 74.5879C226.512 74.1543 226.674 73.5488 226.674 72.7715C226.674 72.0762 226.508 71.5137 226.176 71.084C225.848 70.6504 225.41 70.4336 224.863 70.4336C224.328 70.4336 223.896 70.6465 223.568 71.0723C223.24 71.498 223.076 72.1074 223.076 72.9004ZM229.217 76V69.6602H231.689C232.533 69.6602 233.18 69.8086 233.629 70.1055C234.082 70.3984 234.309 70.8301 234.309 71.4004C234.309 71.6934 234.221 71.959 234.045 72.1973C233.869 72.4316 233.609 72.6113 233.266 72.7363C233.648 72.8262 233.955 73.002 234.186 73.2637C234.42 73.5254 234.537 73.8379 234.537 74.2012C234.537 74.7832 234.322 75.2285 233.893 75.5371C233.467 75.8457 232.863 76 232.082 76H229.217ZM230.301 73.2168V75.127H232.094C232.547 75.127 232.885 75.043 233.107 74.875C233.334 74.707 233.447 74.4707 233.447 74.166C233.447 73.5332 232.982 73.2168 232.053 73.2168H230.301ZM230.301 72.3496H231.701C232.717 72.3496 233.225 72.0527 233.225 71.459C233.225 70.8652 232.744 70.5586 231.783 70.5391H230.301V72.3496ZM240.074 69.6602H241.158V76H240.074V71.377L237.15 76H236.066V69.6602H237.15V74.2891L240.074 69.6602ZM244.873 73.2988H244.082V76H242.992V69.6602H244.082V72.3438H244.791L246.924 69.6602H248.236L245.729 72.707L248.447 76H247.07L244.873 73.2988ZM253.293 76C253.23 75.875 253.18 75.6523 253.141 75.332C252.637 75.8555 252.035 76.1172 251.336 76.1172C250.711 76.1172 250.197 75.9414 249.795 75.5898C249.396 75.2344 249.197 74.7852 249.197 74.2422C249.197 73.582 249.447 73.0703 249.947 72.707C250.451 72.3398 251.158 72.1562 252.068 72.1562H253.123V71.6582C253.123 71.2793 253.01 70.9785 252.783 70.7559C252.557 70.5293 252.223 70.416 251.781 70.416C251.395 70.416 251.07 70.5137 250.809 70.709C250.547 70.9043 250.416 71.1406 250.416 71.418H249.326C249.326 71.1016 249.438 70.7969 249.66 70.5039C249.887 70.207 250.191 69.9727 250.574 69.8008C250.961 69.6289 251.385 69.543 251.846 69.543C252.576 69.543 253.148 69.7266 253.562 70.0938C253.977 70.457 254.191 70.959 254.207 71.5996V74.5176C254.207 75.0996 254.281 75.5625 254.43 75.9062V76H253.293ZM251.494 75.1738C251.834 75.1738 252.156 75.0859 252.461 74.9102C252.766 74.7344 252.986 74.5059 253.123 74.2246V72.9238H252.273C250.945 72.9238 250.281 73.3125 250.281 74.0898C250.281 74.4297 250.395 74.6953 250.621 74.8867C250.848 75.0781 251.139 75.1738 251.494 75.1738ZM255.871 77.6992L255.256 77.2773C255.623 76.7656 255.814 76.2383 255.83 75.6953V74.7168H256.891V75.5664C256.891 75.9609 256.793 76.3555 256.598 76.75C256.406 77.1445 256.164 77.4609 255.871 77.6992ZM264.889 74.5645L267.045 69.6602H268.398V76H267.314V71.3887L265.264 76H264.514L262.422 71.2891V76H261.338V69.6602H262.744L264.889 74.5645ZM273.795 74.5645L275.951 69.6602H277.305V76H276.221V71.3887L274.17 76H273.42L271.328 71.2891V76H270.244V69.6602H271.65L273.795 74.5645Z" fill="white"/>
<path d="M198.666 109.092H197.547V107H191.424V109.098H190.299L190.293 106.08H190.99C191.357 105.666 191.648 105.111 191.863 104.416C192.082 103.717 192.219 102.951 192.273 102.119L192.461 98.4688H197.564V106.08H198.678L198.666 109.092ZM192.273 106.08H196.434V99.3945H193.545L193.422 101.902C193.371 102.883 193.24 103.719 193.029 104.41C192.822 105.102 192.57 105.658 192.273 106.08ZM203.945 100.66H205.029V107H203.945V102.377L201.021 107H199.938V100.66H201.021V105.289L203.945 100.66ZM210.684 107C210.621 106.875 210.57 106.652 210.531 106.332C210.027 106.855 209.426 107.117 208.727 107.117C208.102 107.117 207.588 106.941 207.186 106.59C206.787 106.234 206.588 105.785 206.588 105.242C206.588 104.582 206.838 104.07 207.338 103.707C207.842 103.34 208.549 103.156 209.459 103.156H210.514V102.658C210.514 102.279 210.4 101.979 210.174 101.756C209.947 101.529 209.613 101.416 209.172 101.416C208.785 101.416 208.461 101.514 208.199 101.709C207.938 101.904 207.807 102.141 207.807 102.418H206.717C206.717 102.102 206.828 101.797 207.051 101.504C207.277 101.207 207.582 100.973 207.965 100.801C208.352 100.629 208.775 100.543 209.236 100.543C209.967 100.543 210.539 100.727 210.953 101.094C211.367 101.457 211.582 101.959 211.598 102.6V105.518C211.598 106.1 211.672 106.562 211.82 106.906V107H210.684ZM208.885 106.174C209.225 106.174 209.547 106.086 209.852 105.91C210.156 105.734 210.377 105.506 210.514 105.225V103.924H209.664C208.336 103.924 207.672 104.312 207.672 105.09C207.672 105.43 207.785 105.695 208.012 105.887C208.238 106.078 208.529 106.174 208.885 106.174ZM216.947 105.564L219.104 100.66H220.457V107H219.373V102.389L217.322 107H216.572L214.48 102.289V107H213.396V100.66H214.803L216.947 105.564ZM224.834 107.117C223.975 107.117 223.275 106.836 222.736 106.273C222.197 105.707 221.928 104.951 221.928 104.006V103.807C221.928 103.178 222.047 102.617 222.285 102.125C222.527 101.629 222.863 101.242 223.293 100.965C223.727 100.684 224.195 100.543 224.699 100.543C225.523 100.543 226.164 100.814 226.621 101.357C227.078 101.9 227.307 102.678 227.307 103.689V104.141H223.012C223.027 104.766 223.209 105.271 223.557 105.658C223.908 106.041 224.354 106.232 224.893 106.232C225.275 106.232 225.6 106.154 225.865 105.998C226.131 105.842 226.363 105.635 226.562 105.377L227.225 105.893C226.693 106.709 225.896 107.117 224.834 107.117ZM224.699 101.434C224.262 101.434 223.895 101.594 223.598 101.914C223.301 102.23 223.117 102.676 223.047 103.25H226.223V103.168C226.191 102.617 226.043 102.191 225.777 101.891C225.512 101.586 225.152 101.434 224.699 101.434ZM233.207 101.539H231.08V107H229.996V101.539H227.91V100.66H233.207V101.539ZM239.617 103.9C239.617 104.865 239.396 105.643 238.955 106.232C238.514 106.822 237.916 107.117 237.162 107.117C236.393 107.117 235.787 106.873 235.346 106.385V109.438H234.262V100.66H235.252L235.305 101.363C235.746 100.816 236.359 100.543 237.145 100.543C237.906 100.543 238.508 100.83 238.949 101.404C239.395 101.979 239.617 102.777 239.617 103.801V103.9ZM238.533 103.777C238.533 103.062 238.381 102.498 238.076 102.084C237.771 101.67 237.354 101.463 236.822 101.463C236.166 101.463 235.674 101.754 235.346 102.336V105.365C235.67 105.943 236.166 106.232 236.834 106.232C237.354 106.232 237.766 106.027 238.07 105.617C238.379 105.203 238.533 104.59 238.533 103.777ZM243.689 103.771C243.689 103.15 243.811 102.592 244.053 102.096C244.299 101.6 244.639 101.217 245.072 100.947C245.51 100.678 246.008 100.543 246.566 100.543C247.43 100.543 248.127 100.842 248.658 101.439C249.193 102.037 249.461 102.832 249.461 103.824V103.9C249.461 104.518 249.342 105.072 249.104 105.564C248.869 106.053 248.531 106.434 248.09 106.707C247.652 106.98 247.148 107.117 246.578 107.117C245.719 107.117 245.021 106.818 244.486 106.221C243.955 105.623 243.689 104.832 243.689 103.848V103.771ZM244.779 103.9C244.779 104.604 244.941 105.168 245.266 105.594C245.594 106.02 246.031 106.232 246.578 106.232C247.129 106.232 247.566 106.018 247.891 105.588C248.215 105.154 248.377 104.549 248.377 103.771C248.377 103.076 248.211 102.514 247.879 102.084C247.551 101.65 247.113 101.434 246.566 101.434C246.031 101.434 245.6 101.646 245.271 102.072C244.943 102.498 244.779 103.107 244.779 103.9ZM255.402 101.539H253.275V107H252.191V101.539H250.105V100.66H255.402V101.539ZM256.557 107V100.66H259.029C259.873 100.66 260.52 100.809 260.969 101.105C261.422 101.398 261.648 101.83 261.648 102.4C261.648 102.693 261.561 102.959 261.385 103.197C261.209 103.432 260.949 103.611 260.605 103.736C260.988 103.826 261.295 104.002 261.525 104.264C261.76 104.525 261.877 104.838 261.877 105.201C261.877 105.783 261.662 106.229 261.232 106.537C260.807 106.846 260.203 107 259.422 107H256.557ZM257.641 104.217V106.127H259.434C259.887 106.127 260.225 106.043 260.447 105.875C260.674 105.707 260.787 105.471 260.787 105.166C260.787 104.533 260.322 104.217 259.393 104.217H257.641ZM257.641 103.35H259.041C260.057 103.35 260.564 103.053 260.564 102.459C260.564 101.865 260.084 101.559 259.123 101.539H257.641V103.35ZM265.943 107.117C265.084 107.117 264.385 106.836 263.846 106.273C263.307 105.707 263.037 104.951 263.037 104.006V103.807C263.037 103.178 263.156 102.617 263.395 102.125C263.637 101.629 263.973 101.242 264.402 100.965C264.836 100.684 265.305 100.543 265.809 100.543C266.633 100.543 267.273 100.814 267.73 101.357C268.188 101.9 268.416 102.678 268.416 103.689V104.141H264.121C264.137 104.766 264.318 105.271 264.666 105.658C265.018 106.041 265.463 106.232 266.002 106.232C266.385 106.232 266.709 106.154 266.975 105.998C267.24 105.842 267.473 105.635 267.672 105.377L268.334 105.893C267.803 106.709 267.006 107.117 265.943 107.117ZM265.809 101.434C265.371 101.434 265.004 101.594 264.707 101.914C264.41 102.23 264.227 102.676 264.156 103.25H267.332V103.168C267.301 102.617 267.152 102.191 266.887 101.891C266.621 101.586 266.262 101.434 265.809 101.434ZM275.031 103.9C275.031 104.865 274.811 105.643 274.369 106.232C273.928 106.822 273.33 107.117 272.576 107.117C271.807 107.117 271.201 106.873 270.76 106.385V109.438H269.676V100.66H270.666L270.719 101.363C271.16 100.816 271.773 100.543 272.559 100.543C273.32 100.543 273.922 100.83 274.363 101.404C274.809 101.979 275.031 102.777 275.031 103.801V103.9ZM273.947 103.777C273.947 103.062 273.795 102.498 273.49 102.084C273.186 101.67 272.768 101.463 272.236 101.463C271.58 101.463 271.088 101.754 270.76 102.336V105.365C271.084 105.943 271.58 106.232 272.248 106.232C272.768 106.232 273.18 106.027 273.484 105.617C273.793 105.203 273.947 104.59 273.947 103.777ZM278.957 106.232C279.344 106.232 279.682 106.115 279.971 105.881C280.26 105.646 280.42 105.354 280.451 105.002H281.477C281.457 105.365 281.332 105.711 281.102 106.039C280.871 106.367 280.562 106.629 280.176 106.824C279.793 107.02 279.387 107.117 278.957 107.117C278.094 107.117 277.406 106.83 276.895 106.256C276.387 105.678 276.133 104.889 276.133 103.889V103.707C276.133 103.09 276.246 102.541 276.473 102.061C276.699 101.58 277.023 101.207 277.445 100.941C277.871 100.676 278.373 100.543 278.951 100.543C279.662 100.543 280.252 100.756 280.721 101.182C281.193 101.607 281.445 102.16 281.477 102.84H280.451C280.42 102.43 280.264 102.094 279.982 101.832C279.705 101.566 279.361 101.434 278.951 101.434C278.4 101.434 277.973 101.633 277.668 102.031C277.367 102.426 277.217 102.998 277.217 103.748V103.953C277.217 104.684 277.367 105.246 277.668 105.641C277.969 106.035 278.398 106.232 278.957 106.232ZM287.406 101.539H285.279V107H284.195V101.539H282.109V100.66H287.406V101.539ZM292.562 100.66H293.646V107H292.562V102.377L289.639 107H288.555V100.66H289.639V105.289L292.562 100.66ZM300.232 100.66V107H299.143V104.533H297.508L296.014 107H294.842L296.436 104.369C296.029 104.221 295.717 103.992 295.498 103.684C295.283 103.371 295.176 103.008 295.176 102.594C295.176 102.016 295.393 101.551 295.826 101.199C296.26 100.844 296.84 100.664 297.566 100.66H300.232ZM296.266 102.605C296.266 102.914 296.371 103.164 296.582 103.355C296.793 103.543 297.072 103.639 297.42 103.643H299.143V101.539H297.584C297.182 101.539 296.861 101.639 296.623 101.838C296.385 102.033 296.266 102.289 296.266 102.605ZM196.006 124H194.922V118.557H192.004V124H190.914V117.66H196.006V124ZM197.459 120.771C197.459 120.15 197.58 119.592 197.822 119.096C198.068 118.6 198.408 118.217 198.842 117.947C199.279 117.678 199.777 117.543 200.336 117.543C201.199 117.543 201.896 117.842 202.428 118.439C202.963 119.037 203.23 119.832 203.23 120.824V120.9C203.23 121.518 203.111 122.072 202.873 122.564C202.639 123.053 202.301 123.434 201.859 123.707C201.422 123.98 200.918 124.117 200.348 124.117C199.488 124.117 198.791 123.818 198.256 123.221C197.725 122.623 197.459 121.832 197.459 120.848V120.771ZM198.549 120.9C198.549 121.604 198.711 122.168 199.035 122.594C199.363 123.02 199.801 123.232 200.348 123.232C200.898 123.232 201.336 123.018 201.66 122.588C201.984 122.154 202.146 121.549 202.146 120.771C202.146 120.076 201.98 119.514 201.648 119.084C201.32 118.65 200.883 118.434 200.336 118.434C199.801 118.434 199.369 118.646 199.041 119.072C198.713 119.498 198.549 120.107 198.549 120.9ZM204.115 123.115L204.49 122.652C204.912 122.105 205.152 121.285 205.211 120.191L205.311 117.66H209.395V123.115H210.209V125.863H209.125V124H204.701V125.863H203.617L203.623 123.115H204.115ZM205.398 123.115H208.311V118.662H206.359L206.295 120.174C206.229 121.436 205.93 122.416 205.398 123.115ZM217.17 118.023C217.967 118.023 218.604 118.291 219.08 118.826C219.561 119.357 219.801 120.059 219.801 120.93V121.029C219.801 121.627 219.686 122.162 219.455 122.635C219.225 123.104 218.893 123.469 218.459 123.73C218.029 123.988 217.533 124.117 216.971 124.117C216.119 124.117 215.434 123.834 214.914 123.268C214.395 122.697 214.135 121.934 214.135 120.977V120.449C214.135 119.117 214.381 118.059 214.873 117.273C215.369 116.488 216.1 116.01 217.064 115.838C217.611 115.74 217.98 115.621 218.172 115.48C218.363 115.34 218.459 115.146 218.459 114.9H219.35C219.35 115.389 219.238 115.77 219.016 116.043C218.797 116.316 218.445 116.51 217.961 116.623L217.152 116.805C216.508 116.957 216.023 117.215 215.699 117.578C215.379 117.938 215.17 118.418 215.072 119.02C215.646 118.355 216.346 118.023 217.17 118.023ZM216.959 118.914C216.428 118.914 216.006 119.094 215.693 119.453C215.381 119.809 215.225 120.303 215.225 120.936V121.029C215.225 121.709 215.381 122.248 215.693 122.646C216.01 123.041 216.436 123.238 216.971 123.238C217.51 123.238 217.936 123.039 218.248 122.641C218.561 122.242 218.717 121.66 218.717 120.895C218.717 120.297 218.559 119.818 218.242 119.459C217.93 119.096 217.502 118.914 216.959 118.914ZM220.732 120.771C220.732 120.15 220.854 119.592 221.096 119.096C221.342 118.6 221.682 118.217 222.115 117.947C222.553 117.678 223.051 117.543 223.609 117.543C224.473 117.543 225.17 117.842 225.701 118.439C226.236 119.037 226.504 119.832 226.504 120.824V120.9C226.504 121.518 226.385 122.072 226.146 122.564C225.912 123.053 225.574 123.434 225.133 123.707C224.695 123.98 224.191 124.117 223.621 124.117C222.762 124.117 222.064 123.818 221.529 123.221C220.998 122.623 220.732 121.832 220.732 120.848V120.771ZM221.822 120.9C221.822 121.604 221.984 122.168 222.309 122.594C222.637 123.02 223.074 123.232 223.621 123.232C224.172 123.232 224.609 123.018 224.934 122.588C225.258 122.154 225.42 121.549 225.42 120.771C225.42 120.076 225.254 119.514 224.922 119.084C224.594 118.65 224.156 118.434 223.609 118.434C223.074 118.434 222.643 118.646 222.314 119.072C221.986 119.498 221.822 120.107 221.822 120.9ZM232.967 117.66V124H231.877V118.557H229.721L229.592 120.93C229.521 122.02 229.338 122.799 229.041 123.268C228.748 123.736 228.281 123.98 227.641 124H227.207V123.045L227.518 123.021C227.869 122.982 228.121 122.779 228.273 122.412C228.426 122.045 228.523 121.365 228.566 120.373L228.684 117.66H232.967ZM239.418 118.539H237.291V124H236.207V118.539H234.121V117.66H239.418V118.539ZM239.939 120.771C239.939 120.15 240.061 119.592 240.303 119.096C240.549 118.6 240.889 118.217 241.322 117.947C241.76 117.678 242.258 117.543 242.816 117.543C243.68 117.543 244.377 117.842 244.908 118.439C245.443 119.037 245.711 119.832 245.711 120.824V120.9C245.711 121.518 245.592 122.072 245.354 122.564C245.119 123.053 244.781 123.434 244.34 123.707C243.902 123.98 243.398 124.117 242.828 124.117C241.969 124.117 241.271 123.818 240.736 123.221C240.205 122.623 239.939 121.832 239.939 120.848V120.771ZM241.029 120.9C241.029 121.604 241.191 122.168 241.516 122.594C241.844 123.02 242.281 123.232 242.828 123.232C243.379 123.232 243.816 123.018 244.141 122.588C244.465 122.154 244.627 121.549 244.627 120.771C244.627 120.076 244.461 119.514 244.129 119.084C243.801 118.65 243.363 118.434 242.816 118.434C242.281 118.434 241.85 118.646 241.521 119.072C241.193 119.498 241.029 120.107 241.029 120.9ZM247.17 124V117.66H249.643C250.486 117.66 251.133 117.809 251.582 118.105C252.035 118.398 252.262 118.83 252.262 119.4C252.262 119.693 252.174 119.959 251.998 120.197C251.822 120.432 251.562 120.611 251.219 120.736C251.602 120.826 251.908 121.002 252.139 121.264C252.373 121.525 252.49 121.838 252.49 122.201C252.49 122.783 252.275 123.229 251.846 123.537C251.42 123.846 250.816 124 250.035 124H247.17ZM248.254 121.217V123.127H250.047C250.5 123.127 250.838 123.043 251.061 122.875C251.287 122.707 251.4 122.471 251.4 122.166C251.4 121.533 250.936 121.217 250.006 121.217H248.254ZM248.254 120.35H249.654C250.67 120.35 251.178 120.053 251.178 119.459C251.178 118.865 250.697 118.559 249.736 118.539H248.254V120.35ZM253.639 120.771C253.639 120.15 253.76 119.592 254.002 119.096C254.248 118.6 254.588 118.217 255.021 117.947C255.459 117.678 255.957 117.543 256.516 117.543C257.379 117.543 258.076 117.842 258.607 118.439C259.143 119.037 259.41 119.832 259.41 120.824V120.9C259.41 121.518 259.291 122.072 259.053 122.564C258.818 123.053 258.48 123.434 258.039 123.707C257.602 123.98 257.098 124.117 256.527 124.117C255.668 124.117 254.971 123.818 254.436 123.221C253.904 122.623 253.639 121.832 253.639 120.848V120.771ZM254.729 120.9C254.729 121.604 254.891 122.168 255.215 122.594C255.543 123.02 255.98 123.232 256.527 123.232C257.078 123.232 257.516 123.018 257.84 122.588C258.164 122.154 258.326 121.549 258.326 120.771C258.326 120.076 258.16 119.514 257.828 119.084C257.5 118.65 257.062 118.434 256.516 118.434C255.98 118.434 255.549 118.646 255.221 119.072C254.893 119.498 254.729 120.107 254.729 120.9ZM263.4 124.117C262.541 124.117 261.842 123.836 261.303 123.273C260.764 122.707 260.494 121.951 260.494 121.006V120.807C260.494 120.178 260.613 119.617 260.852 119.125C261.094 118.629 261.43 118.242 261.859 117.965C262.293 117.684 262.762 117.543 263.266 117.543C264.09 117.543 264.73 117.814 265.188 118.357C265.645 118.9 265.873 119.678 265.873 120.689V121.141H261.578C261.594 121.766 261.775 122.271 262.123 122.658C262.475 123.041 262.92 123.232 263.459 123.232C263.842 123.232 264.166 123.154 264.432 122.998C264.697 122.842 264.93 122.635 265.129 122.377L265.791 122.893C265.26 123.709 264.463 124.117 263.4 124.117ZM263.266 118.434C262.828 118.434 262.461 118.594 262.164 118.914C261.867 119.23 261.684 119.676 261.613 120.25H264.789V120.168C264.758 119.617 264.609 119.191 264.344 118.891C264.078 118.586 263.719 118.434 263.266 118.434ZM272.652 123.232C273.039 123.232 273.377 123.115 273.666 122.881C273.955 122.646 274.115 122.354 274.146 122.002H275.172C275.152 122.365 275.027 122.711 274.797 123.039C274.566 123.367 274.258 123.629 273.871 123.824C273.488 124.02 273.082 124.117 272.652 124.117C271.789 124.117 271.102 123.83 270.59 123.256C270.082 122.678 269.828 121.889 269.828 120.889V120.707C269.828 120.09 269.941 119.541 270.168 119.061C270.395 118.58 270.719 118.207 271.141 117.941C271.566 117.676 272.068 117.543 272.646 117.543C273.357 117.543 273.947 117.756 274.416 118.182C274.889 118.607 275.141 119.16 275.172 119.84H274.146C274.115 119.43 273.959 119.094 273.678 118.832C273.4 118.566 273.057 118.434 272.646 118.434C272.096 118.434 271.668 118.633 271.363 119.031C271.062 119.426 270.912 119.998 270.912 120.748V120.953C270.912 121.684 271.062 122.246 271.363 122.641C271.664 123.035 272.094 123.232 272.652 123.232ZM276.104 120.771C276.104 120.15 276.225 119.592 276.467 119.096C276.713 118.6 277.053 118.217 277.486 117.947C277.924 117.678 278.422 117.543 278.98 117.543C279.844 117.543 280.541 117.842 281.072 118.439C281.607 119.037 281.875 119.832 281.875 120.824V120.9C281.875 121.518 281.756 122.072 281.518 122.564C281.283 123.053 280.945 123.434 280.504 123.707C280.066 123.98 279.562 124.117 278.992 124.117C278.133 124.117 277.436 123.818 276.9 123.221C276.369 122.623 276.104 121.832 276.104 120.848V120.771ZM277.193 120.9C277.193 121.604 277.355 122.168 277.68 122.594C278.008 123.02 278.445 123.232 278.992 123.232C279.543 123.232 279.98 123.018 280.305 122.588C280.629 122.154 280.791 121.549 280.791 120.771C280.791 120.076 280.625 119.514 280.293 119.084C279.965 118.65 279.527 118.434 278.98 118.434C278.445 118.434 278.014 118.646 277.686 119.072C277.357 119.498 277.193 120.107 277.193 120.9ZM285.865 124.117C285.006 124.117 284.307 123.836 283.768 123.273C283.229 122.707 282.959 121.951 282.959 121.006V120.807C282.959 120.178 283.078 119.617 283.316 119.125C283.559 118.629 283.895 118.242 284.324 117.965C284.758 117.684 285.227 117.543 285.73 117.543C286.555 117.543 287.195 117.814 287.652 118.357C288.109 118.9 288.338 119.678 288.338 120.689V121.141H284.043C284.059 121.766 284.24 122.271 284.588 122.658C284.939 123.041 285.385 123.232 285.924 123.232C286.307 123.232 286.631 123.154 286.896 122.998C287.162 122.842 287.395 122.635 287.594 122.377L288.256 122.893C287.725 123.709 286.928 124.117 285.865 124.117ZM285.73 118.434C285.293 118.434 284.926 118.594 284.629 118.914C284.332 119.23 284.148 119.676 284.078 120.25H287.254V120.168C287.223 119.617 287.074 119.191 286.809 118.891C286.543 118.586 286.184 118.434 285.73 118.434ZM289.545 123.115L289.92 122.652C290.342 122.105 290.582 121.285 290.641 120.191L290.74 117.66H294.824V123.115H295.639V125.863H294.555V124H290.131V125.863H289.047L289.053 123.115H289.545ZM290.828 123.115H293.74V118.662H291.789L291.725 120.174C291.658 121.436 291.359 122.416 290.828 123.115ZM300.941 117.66H302.025V124H300.941V119.377L298.018 124H296.934V117.66H298.018V122.289L300.941 117.66ZM308.945 124H307.861V121.293H304.949V124H303.859V117.66H304.949V120.408H307.861V117.66H308.945V124ZM313.322 124.117C312.463 124.117 311.764 123.836 311.225 123.273C310.686 122.707 310.416 121.951 310.416 121.006V120.807C310.416 120.178 310.535 119.617 310.773 119.125C311.016 118.629 311.352 118.242 311.781 117.965C312.215 117.684 312.684 117.543 313.188 117.543C314.012 117.543 314.652 117.814 315.109 118.357C315.566 118.9 315.795 119.678 315.795 120.689V121.141H311.5C311.516 121.766 311.697 122.271 312.045 122.658C312.396 123.041 312.842 123.232 313.381 123.232C313.764 123.232 314.088 123.154 314.354 122.998C314.619 122.842 314.852 122.635 315.051 122.377L315.713 122.893C315.182 123.709 314.385 124.117 313.322 124.117ZM313.188 118.434C312.75 118.434 312.383 118.594 312.086 118.914C311.789 119.23 311.605 119.676 311.535 120.25H314.711V120.168C314.68 119.617 314.531 119.191 314.266 118.891C314 118.586 313.641 118.434 313.188 118.434ZM322.234 124H321.15V121.293H318.238V124H317.148V117.66H318.238V120.408H321.15V117.66H322.234V124ZM328.082 117.66H329.166V124H328.082V119.377L325.158 124H324.074V117.66H325.158V122.289L328.082 117.66ZM333.537 124.117C332.678 124.117 331.979 123.836 331.439 123.273C330.9 122.707 330.631 121.951 330.631 121.006V120.807C330.631 120.178 330.75 119.617 330.988 119.125C331.23 118.629 331.566 118.242 331.996 117.965C332.43 117.684 332.898 117.543 333.402 117.543C334.227 117.543 334.867 117.814 335.324 118.357C335.781 118.9 336.01 119.678 336.01 120.689V121.141H331.715C331.73 121.766 331.912 122.271 332.26 122.658C332.611 123.041 333.057 123.232 333.596 123.232C333.979 123.232 334.303 123.154 334.568 122.998C334.834 122.842 335.066 122.635 335.266 122.377L335.928 122.893C335.396 123.709 334.6 124.117 333.537 124.117ZM333.402 118.434C332.965 118.434 332.598 118.594 332.301 118.914C332.004 119.23 331.82 119.676 331.75 120.25H334.926V120.168C334.895 119.617 334.746 119.191 334.48 118.891C334.215 118.586 333.855 118.434 333.402 118.434ZM337.234 125.699L336.619 125.277C336.986 124.766 337.178 124.238 337.193 123.695V122.717H338.254V123.566C338.254 123.961 338.156 124.355 337.961 124.75C337.77 125.145 337.527 125.461 337.234 125.699ZM346.252 122.564L348.408 117.66H349.762V124H348.678V119.389L346.627 124H345.877L343.785 119.289V124H342.701V117.66H344.107L346.252 122.564ZM355.158 122.564L357.314 117.66H358.668V124H357.584V119.389L355.533 124H354.783L352.691 119.289V124H351.607V117.66H353.014L355.158 122.564Z" fill="white"/>
<path d="M197.266 152.293C197.16 153.195 196.826 153.893 196.264 154.385C195.705 154.873 194.961 155.117 194.031 155.117C193.023 155.117 192.215 154.756 191.605 154.033C191 153.311 190.697 152.344 190.697 151.133V150.312C190.697 149.52 190.838 148.822 191.119 148.221C191.404 147.619 191.807 147.158 192.326 146.838C192.846 146.514 193.447 146.352 194.131 146.352C195.037 146.352 195.764 146.605 196.311 147.113C196.857 147.617 197.176 148.316 197.266 149.211H196.135C196.037 148.531 195.824 148.039 195.496 147.734C195.172 147.43 194.717 147.277 194.131 147.277C193.412 147.277 192.848 147.543 192.438 148.074C192.031 148.605 191.828 149.361 191.828 150.342V151.168C191.828 152.094 192.021 152.83 192.408 153.377C192.795 153.924 193.336 154.197 194.031 154.197C194.656 154.197 195.135 154.057 195.467 153.775C195.803 153.49 196.025 152.996 196.135 152.293H197.266ZM201.268 155.117C200.408 155.117 199.709 154.836 199.17 154.273C198.631 153.707 198.361 152.951 198.361 152.006V151.807C198.361 151.178 198.48 150.617 198.719 150.125C198.961 149.629 199.297 149.242 199.727 148.965C200.16 148.684 200.629 148.543 201.133 148.543C201.957 148.543 202.598 148.814 203.055 149.357C203.512 149.9 203.74 150.678 203.74 151.689V152.141H199.445C199.461 152.766 199.643 153.271 199.99 153.658C200.342 154.041 200.787 154.232 201.326 154.232C201.709 154.232 202.033 154.154 202.299 153.998C202.564 153.842 202.797 153.635 202.996 153.377L203.658 153.893C203.127 154.709 202.33 155.117 201.268 155.117ZM201.133 149.434C200.695 149.434 200.328 149.594 200.031 149.914C199.734 150.23 199.551 150.676 199.48 151.25H202.656V151.168C202.625 150.617 202.477 150.191 202.211 149.891C201.945 149.586 201.586 149.434 201.133 149.434ZM209.787 155H208.697V152.703C208.221 152.828 207.732 152.891 207.232 152.891C206.439 152.891 205.834 152.688 205.416 152.281C205.002 151.875 204.791 151.297 204.783 150.547V148.654H205.867V150.582C205.887 151.527 206.342 152 207.232 152C207.732 152 208.221 151.938 208.697 151.812V148.66H209.787V155ZM214.158 155.117C213.299 155.117 212.6 154.836 212.061 154.273C211.521 153.707 211.252 152.951 211.252 152.006V151.807C211.252 151.178 211.371 150.617 211.609 150.125C211.852 149.629 212.188 149.242 212.617 148.965C213.051 148.684 213.52 148.543 214.023 148.543C214.848 148.543 215.488 148.814 215.945 149.357C216.402 149.9 216.631 150.678 216.631 151.689V152.141H212.336C212.352 152.766 212.533 153.271 212.881 153.658C213.232 154.041 213.678 154.232 214.217 154.232C214.6 154.232 214.924 154.154 215.189 153.998C215.455 153.842 215.688 153.635 215.887 153.377L216.549 153.893C216.018 154.709 215.221 155.117 214.158 155.117ZM214.023 149.434C213.586 149.434 213.219 149.594 212.922 149.914C212.625 150.23 212.441 150.676 212.371 151.25H215.547V151.168C215.516 150.617 215.367 150.191 215.102 149.891C214.836 149.586 214.477 149.434 214.023 149.434ZM223.07 155H221.986V152.293H219.074V155H217.984V148.66H219.074V151.408H221.986V148.66H223.07V155ZM228.918 148.66H230.002V155H228.918V150.377L225.994 155H224.91V148.66H225.994V153.289L228.918 148.66ZM234.373 155.117C233.514 155.117 232.814 154.836 232.275 154.273C231.736 153.707 231.467 152.951 231.467 152.006V151.807C231.467 151.178 231.586 150.617 231.824 150.125C232.066 149.629 232.402 149.242 232.832 148.965C233.266 148.684 233.734 148.543 234.238 148.543C235.062 148.543 235.703 148.814 236.16 149.357C236.617 149.9 236.846 150.678 236.846 151.689V152.141H232.551C232.566 152.766 232.748 153.271 233.096 153.658C233.447 154.041 233.893 154.232 234.432 154.232C234.814 154.232 235.139 154.154 235.404 153.998C235.67 153.842 235.902 153.635 236.102 153.377L236.764 153.893C236.232 154.709 235.436 155.117 234.373 155.117ZM234.238 149.434C233.801 149.434 233.434 149.594 233.137 149.914C232.84 150.23 232.656 150.676 232.586 151.25H235.762V151.168C235.73 150.617 235.582 150.191 235.316 149.891C235.051 149.586 234.691 149.434 234.238 149.434ZM246.268 155H245.184V149.557H242.266V155H241.176V148.66H246.268V155ZM247.721 151.771C247.721 151.15 247.842 150.592 248.084 150.096C248.33 149.6 248.67 149.217 249.104 148.947C249.541 148.678 250.039 148.543 250.598 148.543C251.461 148.543 252.158 148.842 252.689 149.439C253.225 150.037 253.492 150.832 253.492 151.824V151.9C253.492 152.518 253.373 153.072 253.135 153.564C252.9 154.053 252.562 154.434 252.121 154.707C251.684 154.98 251.18 155.117 250.609 155.117C249.75 155.117 249.053 154.818 248.518 154.221C247.986 153.623 247.721 152.832 247.721 151.848V151.771ZM248.811 151.9C248.811 152.604 248.973 153.168 249.297 153.594C249.625 154.02 250.062 154.232 250.609 154.232C251.16 154.232 251.598 154.018 251.922 153.588C252.246 153.154 252.408 152.549 252.408 151.771C252.408 151.076 252.242 150.514 251.91 150.084C251.582 149.65 251.145 149.434 250.598 149.434C250.062 149.434 249.631 149.646 249.303 150.072C248.975 150.498 248.811 151.107 248.811 151.9ZM254.377 154.115L254.752 153.652C255.174 153.105 255.414 152.285 255.473 151.191L255.572 148.66H259.656V154.115H260.471V156.863H259.387V155H254.963V156.863H253.879L253.885 154.115H254.377ZM255.66 154.115H258.572V149.662H256.621L256.557 151.174C256.49 152.436 256.191 153.416 255.66 154.115ZM263.646 152.299H262.855V155H261.766V148.66H262.855V151.344H263.564L265.697 148.66H267.01L264.502 151.707L267.221 155H265.844L263.646 152.299ZM273.35 148.66V155H272.26V149.557H270.104L269.975 151.93C269.904 153.02 269.721 153.799 269.424 154.268C269.131 154.736 268.664 154.98 268.023 155H267.59V154.045L267.9 154.021C268.252 153.982 268.504 153.779 268.656 153.412C268.809 153.045 268.906 152.365 268.949 151.373L269.066 148.66H273.35ZM276.273 151.35H277.797C277.879 150.506 278.178 149.828 278.693 149.316C279.213 148.801 279.867 148.543 280.656 148.543C281.484 148.543 282.162 148.822 282.689 149.381C283.217 149.939 283.502 150.666 283.545 151.561L283.551 151.9C283.551 152.518 283.43 153.074 283.188 153.57C282.945 154.066 282.605 154.449 282.168 154.719C281.73 154.984 281.23 155.117 280.668 155.117C279.852 155.117 279.184 154.852 278.664 154.32C278.145 153.785 277.854 153.092 277.791 152.24H276.273V155H275.189V148.66H276.273V151.35ZM278.863 151.9C278.863 152.604 279.025 153.168 279.35 153.594C279.678 154.02 280.117 154.232 280.668 154.232C281.219 154.232 281.654 154.016 281.975 153.582C282.299 153.148 282.461 152.545 282.461 151.771C282.461 151.08 282.297 150.518 281.969 150.084C281.641 149.65 281.203 149.434 280.656 149.434C280.117 149.434 279.684 149.646 279.355 150.072C279.027 150.498 278.863 151.107 278.863 151.9ZM289.674 155H288.584V152.703C288.107 152.828 287.619 152.891 287.119 152.891C286.326 152.891 285.721 152.688 285.303 152.281C284.889 151.875 284.678 151.297 284.67 150.547V148.654H285.754V150.582C285.773 151.527 286.229 152 287.119 152C287.619 152 288.107 151.938 288.584 151.812V148.66H289.674V155ZM295.328 155C295.266 154.875 295.215 154.652 295.176 154.332C294.672 154.855 294.07 155.117 293.371 155.117C292.746 155.117 292.232 154.941 291.83 154.59C291.432 154.234 291.232 153.785 291.232 153.242C291.232 152.582 291.482 152.07 291.982 151.707C292.486 151.34 293.193 151.156 294.104 151.156H295.158V150.658C295.158 150.279 295.045 149.979 294.818 149.756C294.592 149.529 294.258 149.416 293.816 149.416C293.43 149.416 293.105 149.514 292.844 149.709C292.582 149.904 292.451 150.141 292.451 150.418H291.361C291.361 150.102 291.473 149.797 291.695 149.504C291.922 149.207 292.227 148.973 292.609 148.801C292.996 148.629 293.42 148.543 293.881 148.543C294.611 148.543 295.184 148.727 295.598 149.094C296.012 149.457 296.227 149.959 296.242 150.6V153.518C296.242 154.1 296.316 154.562 296.465 154.906V155H295.328ZM293.529 154.174C293.869 154.174 294.191 154.086 294.496 153.91C294.801 153.734 295.021 153.506 295.158 153.225V151.924H294.309C292.98 151.924 292.316 152.312 292.316 153.09C292.316 153.43 292.43 153.695 292.656 153.887C292.883 154.078 293.174 154.174 293.529 154.174ZM300.572 155.117C299.713 155.117 299.014 154.836 298.475 154.273C297.936 153.707 297.666 152.951 297.666 152.006V151.807C297.666 151.178 297.785 150.617 298.023 150.125C298.266 149.629 298.602 149.242 299.031 148.965C299.465 148.684 299.934 148.543 300.438 148.543C301.262 148.543 301.902 148.814 302.359 149.357C302.816 149.9 303.045 150.678 303.045 151.689V152.141H298.75C298.766 152.766 298.947 153.271 299.295 153.658C299.646 154.041 300.092 154.232 300.631 154.232C301.014 154.232 301.338 154.154 301.604 153.998C301.869 153.842 302.102 153.635 302.301 153.377L302.963 153.893C302.432 154.709 301.635 155.117 300.572 155.117ZM300.438 149.434C300 149.434 299.633 149.594 299.336 149.914C299.039 150.23 298.855 150.676 298.785 151.25H301.961V151.168C301.93 150.617 301.781 150.191 301.516 149.891C301.25 149.586 300.891 149.434 300.438 149.434ZM307.955 153.564L310.111 148.66H311.465V155H310.381V150.389L308.33 155H307.58L305.488 150.289V155H304.404V148.66H305.811L307.955 153.564ZM312.924 151.771C312.924 151.15 313.045 150.592 313.287 150.096C313.533 149.6 313.873 149.217 314.307 148.947C314.744 148.678 315.242 148.543 315.801 148.543C316.664 148.543 317.361 148.842 317.893 149.439C318.428 150.037 318.695 150.832 318.695 151.824V151.9C318.695 152.518 318.576 153.072 318.338 153.564C318.104 154.053 317.766 154.434 317.324 154.707C316.887 154.98 316.383 155.117 315.812 155.117C314.953 155.117 314.256 154.818 313.721 154.221C313.189 153.623 312.924 152.832 312.924 151.848V151.771ZM314.014 151.9C314.014 152.604 314.176 153.168 314.5 153.594C314.828 154.02 315.266 154.232 315.812 154.232C316.363 154.232 316.801 154.018 317.125 153.588C317.449 153.154 317.611 152.549 317.611 151.771C317.611 151.076 317.445 150.514 317.113 150.084C316.785 149.65 316.348 149.434 315.801 149.434C315.266 149.434 314.834 149.646 314.506 150.072C314.178 150.498 314.014 151.107 314.014 151.9ZM324.15 149.557H321.227V155H320.137V148.66H324.15V149.557ZM324.689 151.771C324.689 151.15 324.811 150.592 325.053 150.096C325.299 149.6 325.639 149.217 326.072 148.947C326.51 148.678 327.008 148.543 327.566 148.543C328.43 148.543 329.127 148.842 329.658 149.439C330.193 150.037 330.461 150.832 330.461 151.824V151.9C330.461 152.518 330.342 153.072 330.104 153.564C329.869 154.053 329.531 154.434 329.09 154.707C328.652 154.98 328.148 155.117 327.578 155.117C326.719 155.117 326.021 154.818 325.486 154.221C324.955 153.623 324.689 152.832 324.689 151.848V151.771ZM325.779 151.9C325.779 152.604 325.941 153.168 326.266 153.594C326.594 154.02 327.031 154.232 327.578 154.232C328.129 154.232 328.566 154.018 328.891 153.588C329.215 153.154 329.377 152.549 329.377 151.771C329.377 151.076 329.211 150.514 328.879 150.084C328.551 149.65 328.113 149.434 327.566 149.434C327.031 149.434 326.6 149.646 326.271 150.072C325.943 150.498 325.779 151.107 325.779 151.9ZM196.006 172H194.922V166.557H192.004V172H190.914V165.66H196.006V172ZM203.102 168.9C203.102 169.865 202.881 170.643 202.439 171.232C201.998 171.822 201.4 172.117 200.646 172.117C199.877 172.117 199.271 171.873 198.83 171.385V174.438H197.746V165.66H198.736L198.789 166.363C199.23 165.816 199.844 165.543 200.629 165.543C201.391 165.543 201.992 165.83 202.434 166.404C202.879 166.979 203.102 167.777 203.102 168.801V168.9ZM202.018 168.777C202.018 168.062 201.865 167.498 201.561 167.084C201.256 166.67 200.838 166.463 200.307 166.463C199.65 166.463 199.158 166.754 198.83 167.336V170.365C199.154 170.943 199.65 171.232 200.318 171.232C200.838 171.232 201.25 171.027 201.555 170.617C201.863 170.203 202.018 169.59 202.018 168.777ZM204.197 168.771C204.197 168.15 204.318 167.592 204.561 167.096C204.807 166.6 205.146 166.217 205.58 165.947C206.018 165.678 206.516 165.543 207.074 165.543C207.938 165.543 208.635 165.842 209.166 166.439C209.701 167.037 209.969 167.832 209.969 168.824V168.9C209.969 169.518 209.85 170.072 209.611 170.564C209.377 171.053 209.039 171.434 208.598 171.707C208.16 171.98 207.656 172.117 207.086 172.117C206.227 172.117 205.529 171.818 204.994 171.221C204.463 170.623 204.197 169.832 204.197 168.848V168.771ZM205.287 168.9C205.287 169.604 205.449 170.168 205.773 170.594C206.102 171.02 206.539 171.232 207.086 171.232C207.637 171.232 208.074 171.018 208.398 170.588C208.723 170.154 208.885 169.549 208.885 168.771C208.885 168.076 208.719 167.514 208.387 167.084C208.059 166.65 207.621 166.434 207.074 166.434C206.539 166.434 206.107 166.646 205.779 167.072C205.451 167.498 205.287 168.107 205.287 168.9ZM211.428 172V165.66H213.9C214.744 165.66 215.391 165.809 215.84 166.105C216.293 166.398 216.52 166.83 216.52 167.4C216.52 167.693 216.432 167.959 216.256 168.197C216.08 168.432 215.82 168.611 215.477 168.736C215.859 168.826 216.166 169.002 216.396 169.264C216.631 169.525 216.748 169.838 216.748 170.201C216.748 170.783 216.533 171.229 216.104 171.537C215.678 171.846 215.074 172 214.293 172H211.428ZM212.512 169.217V171.127H214.305C214.758 171.127 215.096 171.043 215.318 170.875C215.545 170.707 215.658 170.471 215.658 170.166C215.658 169.533 215.193 169.217 214.264 169.217H212.512ZM212.512 168.35H213.912C214.928 168.35 215.436 168.053 215.436 167.459C215.436 166.865 214.955 166.559 213.994 166.539H212.512V168.35ZM217.896 168.771C217.896 168.15 218.018 167.592 218.26 167.096C218.506 166.6 218.846 166.217 219.279 165.947C219.717 165.678 220.215 165.543 220.773 165.543C221.637 165.543 222.334 165.842 222.865 166.439C223.4 167.037 223.668 167.832 223.668 168.824V168.9C223.668 169.518 223.549 170.072 223.311 170.564C223.076 171.053 222.738 171.434 222.297 171.707C221.859 171.98 221.355 172.117 220.785 172.117C219.926 172.117 219.229 171.818 218.693 171.221C218.162 170.623 217.896 169.832 217.896 168.848V168.771ZM218.986 168.9C218.986 169.604 219.148 170.168 219.473 170.594C219.801 171.02 220.238 171.232 220.785 171.232C221.336 171.232 221.773 171.018 222.098 170.588C222.422 170.154 222.584 169.549 222.584 168.771C222.584 168.076 222.418 167.514 222.086 167.084C221.758 166.65 221.32 166.434 220.773 166.434C220.238 166.434 219.807 166.646 219.479 167.072C219.15 167.498 218.986 168.107 218.986 168.9ZM224.553 171.115L224.928 170.652C225.35 170.105 225.59 169.285 225.648 168.191L225.748 165.66H229.832V171.115H230.646V173.863H229.562V172H225.139V173.863H224.055L224.061 171.115H224.553ZM225.836 171.115H228.748V166.662H226.797L226.732 168.174C226.666 169.436 226.367 170.416 225.836 171.115ZM237.027 172H235.943V169.293H233.031V172H231.941V165.66H233.031V168.408H235.943V165.66H237.027V172ZM242.875 165.66H243.959V172H242.875V167.377L239.951 172H238.867V165.66H239.951V170.289L242.875 165.66ZM247.674 169.299H246.883V172H245.793V165.66H246.883V168.344H247.592L249.725 165.66H251.037L248.529 168.707L251.248 172H249.871L247.674 169.299ZM256.094 172C256.031 171.875 255.98 171.652 255.941 171.332C255.438 171.855 254.836 172.117 254.137 172.117C253.512 172.117 252.998 171.941 252.596 171.59C252.197 171.234 251.998 170.785 251.998 170.242C251.998 169.582 252.248 169.07 252.748 168.707C253.252 168.34 253.959 168.156 254.869 168.156H255.924V167.658C255.924 167.279 255.811 166.979 255.584 166.756C255.357 166.529 255.023 166.416 254.582 166.416C254.195 166.416 253.871 166.514 253.609 166.709C253.348 166.904 253.217 167.141 253.217 167.418H252.127C252.127 167.102 252.238 166.797 252.461 166.504C252.688 166.207 252.992 165.973 253.375 165.801C253.762 165.629 254.186 165.543 254.646 165.543C255.377 165.543 255.949 165.727 256.363 166.094C256.777 166.457 256.992 166.959 257.008 167.6V170.518C257.008 171.1 257.082 171.562 257.23 171.906V172H256.094ZM254.295 171.174C254.635 171.174 254.957 171.086 255.262 170.91C255.566 170.734 255.787 170.506 255.924 170.225V168.924H255.074C253.746 168.924 253.082 169.312 253.082 170.09C253.082 170.43 253.195 170.695 253.422 170.887C253.648 171.078 253.939 171.174 254.295 171.174ZM258.672 173.699L258.057 173.277C258.424 172.766 258.615 172.238 258.631 171.695V170.717H259.691V171.566C259.691 171.961 259.594 172.355 259.398 172.75C259.207 173.145 258.965 173.461 258.672 173.699ZM267.689 170.564L269.846 165.66H271.199V172H270.115V167.389L268.064 172H267.314L265.223 167.289V172H264.139V165.66H265.545L267.689 170.564ZM276.596 170.564L278.752 165.66H280.105V172H279.021V167.389L276.971 172H276.221L274.129 167.289V172H273.045V165.66H274.451L276.596 170.564ZM285.033 168.092H281.523V167.459L283.281 165.807C283.707 165.408 283.92 165.074 283.92 164.805C283.92 164.613 283.857 164.459 283.732 164.342C283.607 164.221 283.428 164.16 283.193 164.16C282.9 164.16 282.684 164.234 282.543 164.383C282.406 164.531 282.338 164.717 282.338 164.939H281.418C281.418 164.494 281.58 164.127 281.904 163.838C282.232 163.549 282.654 163.404 283.17 163.404C283.686 163.404 284.094 163.529 284.395 163.779C284.695 164.025 284.846 164.363 284.846 164.793C284.846 165.199 284.637 165.611 284.219 166.029L283.727 166.492L282.695 167.342H285.033V168.092Z" fill="white"/>
<path d="M196.885 195.395H194.143V203H193.023V195.395H190.287V194.469H196.885V195.395ZM201.438 196.66H202.521V203H201.438V198.377L198.514 203H197.43V196.66H198.514V201.289L201.438 196.66ZM209.447 203H208.363V197.557H205.445V203H204.355V196.66H209.447V203ZM219.344 203H218.26V200.293H215.348V203H214.258V196.66H215.348V199.408H218.26V196.66H219.344V203ZM225.004 203C224.941 202.875 224.891 202.652 224.852 202.332C224.348 202.855 223.746 203.117 223.047 203.117C222.422 203.117 221.908 202.941 221.506 202.59C221.107 202.234 220.908 201.785 220.908 201.242C220.908 200.582 221.158 200.07 221.658 199.707C222.162 199.34 222.869 199.156 223.779 199.156H224.834V198.658C224.834 198.279 224.721 197.979 224.494 197.756C224.268 197.529 223.934 197.416 223.492 197.416C223.105 197.416 222.781 197.514 222.52 197.709C222.258 197.904 222.127 198.141 222.127 198.418H221.037C221.037 198.102 221.148 197.797 221.371 197.504C221.598 197.207 221.902 196.973 222.285 196.801C222.672 196.629 223.096 196.543 223.557 196.543C224.287 196.543 224.859 196.727 225.273 197.094C225.688 197.457 225.902 197.959 225.918 198.6V201.518C225.918 202.1 225.992 202.562 226.141 202.906V203H225.004ZM223.205 202.174C223.545 202.174 223.867 202.086 224.172 201.91C224.477 201.734 224.697 201.506 224.834 201.225V199.924H223.984C222.656 199.924 221.992 200.312 221.992 201.09C221.992 201.43 222.105 201.695 222.332 201.887C222.559 202.078 222.85 202.174 223.205 202.174ZM229.592 200.299H228.801V203H227.711V196.66H228.801V199.344H229.51L231.643 196.66H232.955L230.447 199.707L233.166 203H231.789L229.592 200.299ZM233.682 199.771C233.682 199.15 233.803 198.592 234.045 198.096C234.291 197.6 234.631 197.217 235.064 196.947C235.502 196.678 236 196.543 236.559 196.543C237.422 196.543 238.119 196.842 238.65 197.439C239.186 198.037 239.453 198.832 239.453 199.824V199.9C239.453 200.518 239.334 201.072 239.096 201.564C238.861 202.053 238.523 202.434 238.082 202.707C237.645 202.98 237.141 203.117 236.57 203.117C235.711 203.117 235.014 202.818 234.479 202.221C233.947 201.623 233.682 200.832 233.682 199.848V199.771ZM234.771 199.9C234.771 200.604 234.934 201.168 235.258 201.594C235.586 202.02 236.023 202.232 236.57 202.232C237.121 202.232 237.559 202.018 237.883 201.588C238.207 201.154 238.369 200.549 238.369 199.771C238.369 199.076 238.203 198.514 237.871 198.084C237.543 197.65 237.105 197.434 236.559 197.434C236.023 197.434 235.592 197.646 235.264 198.072C234.936 198.498 234.771 199.107 234.771 199.9ZM245.992 203H244.908V200.293H241.996V203H240.906V196.66H241.996V199.408H244.908V196.66H245.992V203ZM250.369 203.117C249.51 203.117 248.811 202.836 248.271 202.273C247.732 201.707 247.463 200.951 247.463 200.006V199.807C247.463 199.178 247.582 198.617 247.82 198.125C248.062 197.629 248.398 197.242 248.828 196.965C249.262 196.684 249.73 196.543 250.234 196.543C251.059 196.543 251.699 196.814 252.156 197.357C252.613 197.9 252.842 198.678 252.842 199.689V200.141H248.547C248.562 200.766 248.744 201.271 249.092 201.658C249.443 202.041 249.889 202.232 250.428 202.232C250.811 202.232 251.135 202.154 251.4 201.998C251.666 201.842 251.898 201.635 252.098 201.377L252.76 201.893C252.229 202.709 251.432 203.117 250.369 203.117ZM250.234 197.434C249.797 197.434 249.43 197.594 249.133 197.914C248.836 198.23 248.652 198.676 248.582 199.25H251.758V199.168C251.727 198.617 251.578 198.191 251.312 197.891C251.047 197.586 250.688 197.434 250.234 197.434ZM258.889 203H257.799V200.703C257.322 200.828 256.834 200.891 256.334 200.891C255.541 200.891 254.936 200.688 254.518 200.281C254.104 199.875 253.893 199.297 253.885 198.547V196.654H254.969V198.582C254.988 199.527 255.443 200 256.334 200C256.834 200 257.322 199.938 257.799 199.812V196.66H258.889V203ZM265.809 203H264.725V200.293H261.812V203H260.723V196.66H261.812V199.408H264.725V196.66H265.809V203ZM271.656 196.66H272.74V203H271.656V198.377L268.732 203H267.648V196.66H268.732V201.289L271.656 196.66ZM276.455 200.299H275.664V203H274.574V196.66H275.664V199.344H276.373L278.506 196.66H279.818L277.311 199.707L280.029 203H278.652L276.455 200.299ZM284.875 203C284.812 202.875 284.762 202.652 284.723 202.332C284.219 202.855 283.617 203.117 282.918 203.117C282.293 203.117 281.779 202.941 281.377 202.59C280.979 202.234 280.779 201.785 280.779 201.242C280.779 200.582 281.029 200.07 281.529 199.707C282.033 199.34 282.74 199.156 283.65 199.156H284.705V198.658C284.705 198.279 284.592 197.979 284.365 197.756C284.139 197.529 283.805 197.416 283.363 197.416C282.977 197.416 282.652 197.514 282.391 197.709C282.129 197.904 281.998 198.141 281.998 198.418H280.908C280.908 198.102 281.02 197.797 281.242 197.504C281.469 197.207 281.773 196.973 282.156 196.801C282.543 196.629 282.967 196.543 283.428 196.543C284.158 196.543 284.73 196.727 285.145 197.094C285.559 197.457 285.773 197.959 285.789 198.6V201.518C285.789 202.1 285.863 202.562 286.012 202.906V203H284.875ZM283.076 202.174C283.416 202.174 283.738 202.086 284.043 201.91C284.348 201.734 284.568 201.506 284.705 201.225V199.924H283.855C282.527 199.924 281.863 200.312 281.863 201.09C281.863 201.43 281.977 201.695 282.203 201.887C282.43 202.078 282.721 202.174 283.076 202.174ZM290.424 199.537C290.424 198.654 290.541 197.807 290.775 196.994C291.014 196.182 291.367 195.443 291.836 194.779C292.305 194.115 292.791 193.646 293.295 193.373L293.518 194.088C292.947 194.525 292.479 195.193 292.111 196.092C291.748 196.99 291.549 197.996 291.514 199.109L291.508 199.607C291.508 201.115 291.783 202.424 292.334 203.533C292.666 204.197 293.061 204.717 293.518 205.092L293.295 205.754C292.775 205.465 292.279 204.98 291.807 204.301C290.885 202.973 290.424 201.385 290.424 199.537ZM294.666 203V196.66H297.139C297.982 196.66 298.629 196.809 299.078 197.105C299.531 197.398 299.758 197.83 299.758 198.4C299.758 198.693 299.67 198.959 299.494 199.197C299.318 199.432 299.059 199.611 298.715 199.736C299.098 199.826 299.404 200.002 299.635 200.264C299.869 200.525 299.986 200.838 299.986 201.201C299.986 201.783 299.771 202.229 299.342 202.537C298.916 202.846 298.312 203 297.531 203H294.666ZM295.75 200.217V202.127H297.543C297.996 202.127 298.334 202.043 298.557 201.875C298.783 201.707 298.896 201.471 298.896 201.166C298.896 200.533 298.432 200.217 297.502 200.217H295.75ZM295.75 199.35H297.15C298.166 199.35 298.674 199.053 298.674 198.459C298.674 197.865 298.193 197.559 297.232 197.539H295.75V199.35ZM304.346 202.115L304.721 201.652C305.143 201.105 305.383 200.285 305.441 199.191L305.541 196.66H309.625V202.115H310.439V204.863H309.355V203H304.932V204.863H303.848L303.854 202.115H304.346ZM305.629 202.115H308.541V197.662H306.59L306.525 199.174C306.459 200.436 306.16 201.416 305.629 202.115ZM315.555 203C315.492 202.875 315.441 202.652 315.402 202.332C314.898 202.855 314.297 203.117 313.598 203.117C312.973 203.117 312.459 202.941 312.057 202.59C311.658 202.234 311.459 201.785 311.459 201.242C311.459 200.582 311.709 200.07 312.209 199.707C312.713 199.34 313.42 199.156 314.33 199.156H315.385V198.658C315.385 198.279 315.271 197.979 315.045 197.756C314.818 197.529 314.484 197.416 314.043 197.416C313.656 197.416 313.332 197.514 313.07 197.709C312.809 197.904 312.678 198.141 312.678 198.418H311.588C311.588 198.102 311.699 197.797 311.922 197.504C312.148 197.207 312.453 196.973 312.836 196.801C313.223 196.629 313.646 196.543 314.107 196.543C314.838 196.543 315.41 196.727 315.824 197.094C316.238 197.457 316.453 197.959 316.469 198.6V201.518C316.469 202.1 316.543 202.562 316.691 202.906V203H315.555ZM313.756 202.174C314.096 202.174 314.418 202.086 314.723 201.91C315.027 201.734 315.248 201.506 315.385 201.225V199.924H314.535C313.207 199.924 312.543 200.312 312.543 201.09C312.543 201.43 312.656 201.695 312.883 201.887C313.109 202.078 313.4 202.174 313.756 202.174ZM323.348 203H322.264V200.293H319.352V203H318.262V196.66H319.352V199.408H322.264V196.66H323.348V203ZM330.273 203H329.189V200.293H326.277V203H325.188V196.66H326.277V199.408H329.189V196.66H330.273V203ZM331.732 199.771C331.732 199.15 331.854 198.592 332.096 198.096C332.342 197.6 332.682 197.217 333.115 196.947C333.553 196.678 334.051 196.543 334.609 196.543C335.473 196.543 336.17 196.842 336.701 197.439C337.236 198.037 337.504 198.832 337.504 199.824V199.9C337.504 200.518 337.385 201.072 337.146 201.564C336.912 202.053 336.574 202.434 336.133 202.707C335.695 202.98 335.191 203.117 334.621 203.117C333.762 203.117 333.064 202.818 332.529 202.221C331.998 201.623 331.732 200.832 331.732 199.848V199.771ZM332.822 199.9C332.822 200.604 332.984 201.168 333.309 201.594C333.637 202.02 334.074 202.232 334.621 202.232C335.172 202.232 335.609 202.018 335.934 201.588C336.258 201.154 336.42 200.549 336.42 199.771C336.42 199.076 336.254 198.514 335.922 198.084C335.594 197.65 335.156 197.434 334.609 197.434C334.074 197.434 333.643 197.646 333.314 198.072C332.986 198.498 332.822 199.107 332.822 199.9ZM342.514 201.564L344.67 196.66H346.023V203H344.939V198.389L342.889 203H342.139L340.047 198.289V203H338.963V196.66H340.369L342.514 201.564ZM193.363 219.232C193.75 219.232 194.088 219.115 194.377 218.881C194.666 218.646 194.826 218.354 194.857 218.002H195.883C195.863 218.365 195.738 218.711 195.508 219.039C195.277 219.367 194.969 219.629 194.582 219.824C194.199 220.02 193.793 220.117 193.363 220.117C192.5 220.117 191.812 219.83 191.301 219.256C190.793 218.678 190.539 217.889 190.539 216.889V216.707C190.539 216.09 190.652 215.541 190.879 215.061C191.105 214.58 191.43 214.207 191.852 213.941C192.277 213.676 192.779 213.543 193.357 213.543C194.068 213.543 194.658 213.756 195.127 214.182C195.6 214.607 195.852 215.16 195.883 215.84H194.857C194.826 215.43 194.67 215.094 194.389 214.832C194.111 214.566 193.768 214.434 193.357 214.434C192.807 214.434 192.379 214.633 192.074 215.031C191.773 215.426 191.623 215.998 191.623 216.748V216.953C191.623 217.684 191.773 218.246 192.074 218.641C192.375 219.035 192.805 219.232 193.363 219.232ZM202.299 213.66V220H201.209V214.557H199.053L198.924 216.93C198.854 218.02 198.67 218.799 198.373 219.268C198.08 219.736 197.613 219.98 196.973 220H196.539V219.045L196.85 219.021C197.201 218.982 197.453 218.779 197.605 218.412C197.758 218.045 197.855 217.365 197.898 216.373L198.016 213.66H202.299ZM206.113 218.412L207.59 213.66H208.75L206.201 220.979C205.807 222.033 205.18 222.561 204.32 222.561L204.115 222.543L203.711 222.467V221.588L204.004 221.611C204.371 221.611 204.656 221.537 204.859 221.389C205.066 221.24 205.236 220.969 205.369 220.574L205.609 219.93L203.348 213.66H204.531L206.113 218.412ZM214.51 220H213.42V217.703C212.943 217.828 212.455 217.891 211.955 217.891C211.162 217.891 210.557 217.688 210.139 217.281C209.725 216.875 209.514 216.297 209.506 215.547V213.654H210.59V215.582C210.609 216.527 211.064 217 211.955 217C212.455 217 212.943 216.938 213.42 216.812V213.66H214.51V220ZM220.164 220C220.102 219.875 220.051 219.652 220.012 219.332C219.508 219.855 218.906 220.117 218.207 220.117C217.582 220.117 217.068 219.941 216.666 219.59C216.268 219.234 216.068 218.785 216.068 218.242C216.068 217.582 216.318 217.07 216.818 216.707C217.322 216.34 218.029 216.156 218.939 216.156H219.994V215.658C219.994 215.279 219.881 214.979 219.654 214.756C219.428 214.529 219.094 214.416 218.652 214.416C218.266 214.416 217.941 214.514 217.68 214.709C217.418 214.904 217.287 215.141 217.287 215.418H216.197C216.197 215.102 216.309 214.797 216.531 214.504C216.758 214.207 217.062 213.973 217.445 213.801C217.832 213.629 218.256 213.543 218.717 213.543C219.447 213.543 220.02 213.727 220.434 214.094C220.848 214.457 221.062 214.959 221.078 215.6V218.518C221.078 219.1 221.152 219.562 221.301 219.906V220H220.164ZM218.365 219.174C218.705 219.174 219.027 219.086 219.332 218.91C219.637 218.734 219.857 218.506 219.994 218.225V216.924H219.145C217.816 216.924 217.152 217.312 217.152 218.09C217.152 218.43 217.266 218.695 217.492 218.887C217.719 219.078 218.01 219.174 218.365 219.174ZM225.408 220.117C224.549 220.117 223.85 219.836 223.311 219.273C222.771 218.707 222.502 217.951 222.502 217.006V216.807C222.502 216.178 222.621 215.617 222.859 215.125C223.102 214.629 223.438 214.242 223.867 213.965C224.301 213.684 224.77 213.543 225.273 213.543C226.098 213.543 226.738 213.814 227.195 214.357C227.652 214.9 227.881 215.678 227.881 216.689V217.141H223.586C223.602 217.766 223.783 218.271 224.131 218.658C224.482 219.041 224.928 219.232 225.467 219.232C225.85 219.232 226.174 219.154 226.439 218.998C226.705 218.842 226.938 218.635 227.137 218.377L227.799 218.893C227.268 219.709 226.471 220.117 225.408 220.117ZM225.273 214.434C224.836 214.434 224.469 214.594 224.172 214.914C223.875 215.23 223.691 215.676 223.621 216.25H226.797V216.168C226.766 215.617 226.617 215.191 226.352 214.891C226.086 214.586 225.727 214.434 225.273 214.434ZM238.117 216.186H232.246V215.301H238.117V216.186ZM247.68 214.539H245.553V220H244.469V214.539H242.383V213.66H247.68V214.539ZM254.09 216.9C254.09 217.865 253.869 218.643 253.428 219.232C252.986 219.822 252.389 220.117 251.635 220.117C250.865 220.117 250.26 219.873 249.818 219.385V222.438H248.734V213.66H249.725L249.777 214.363C250.219 213.816 250.832 213.543 251.617 213.543C252.379 213.543 252.98 213.83 253.422 214.404C253.867 214.979 254.09 215.777 254.09 216.801V216.9ZM253.006 216.777C253.006 216.062 252.854 215.498 252.549 215.084C252.244 214.67 251.826 214.463 251.295 214.463C250.639 214.463 250.146 214.754 249.818 215.336V218.365C250.143 218.943 250.639 219.232 251.307 219.232C251.826 219.232 252.238 219.027 252.543 218.617C252.852 218.203 253.006 217.59 253.006 216.777ZM257.477 218.412L258.953 213.66H260.113L257.564 220.979C257.17 222.033 256.543 222.561 255.684 222.561L255.479 222.543L255.074 222.467V221.588L255.367 221.611C255.734 221.611 256.02 221.537 256.223 221.389C256.43 221.24 256.6 220.969 256.732 220.574L256.973 219.93L254.711 213.66H255.895L257.477 218.412ZM263.869 214.023C264.666 214.023 265.303 214.291 265.779 214.826C266.26 215.357 266.5 216.059 266.5 216.93V217.029C266.5 217.627 266.385 218.162 266.154 218.635C265.924 219.104 265.592 219.469 265.158 219.73C264.729 219.988 264.232 220.117 263.67 220.117C262.818 220.117 262.133 219.834 261.613 219.268C261.094 218.697 260.834 217.934 260.834 216.977V216.449C260.834 215.117 261.08 214.059 261.572 213.273C262.068 212.488 262.799 212.01 263.764 211.838C264.311 211.74 264.68 211.621 264.871 211.48C265.062 211.34 265.158 211.146 265.158 210.9H266.049C266.049 211.389 265.938 211.77 265.715 212.043C265.496 212.316 265.145 212.51 264.66 212.623L263.852 212.805C263.207 212.957 262.723 213.215 262.398 213.578C262.078 213.938 261.869 214.418 261.771 215.02C262.346 214.355 263.045 214.023 263.869 214.023ZM263.658 214.914C263.127 214.914 262.705 215.094 262.393 215.453C262.08 215.809 261.924 216.303 261.924 216.936V217.029C261.924 217.709 262.08 218.248 262.393 218.646C262.709 219.041 263.135 219.238 263.67 219.238C264.209 219.238 264.635 219.039 264.947 218.641C265.26 218.242 265.416 217.66 265.416 216.895C265.416 216.297 265.258 215.818 264.941 215.459C264.629 215.096 264.201 214.914 263.658 214.914ZM271.633 220C271.57 219.875 271.52 219.652 271.48 219.332C270.977 219.855 270.375 220.117 269.676 220.117C269.051 220.117 268.537 219.941 268.135 219.59C267.736 219.234 267.537 218.785 267.537 218.242C267.537 217.582 267.787 217.07 268.287 216.707C268.791 216.34 269.498 216.156 270.408 216.156H271.463V215.658C271.463 215.279 271.35 214.979 271.123 214.756C270.896 214.529 270.562 214.416 270.121 214.416C269.734 214.416 269.41 214.514 269.148 214.709C268.887 214.904 268.756 215.141 268.756 215.418H267.666C267.666 215.102 267.777 214.797 268 214.504C268.227 214.207 268.531 213.973 268.914 213.801C269.301 213.629 269.725 213.543 270.186 213.543C270.916 213.543 271.488 213.727 271.902 214.094C272.316 214.457 272.531 214.959 272.547 215.6V218.518C272.547 219.1 272.621 219.562 272.77 219.906V220H271.633ZM269.834 219.174C270.174 219.174 270.496 219.086 270.801 218.91C271.105 218.734 271.326 218.506 271.463 218.225V216.924H270.613C269.285 216.924 268.621 217.312 268.621 218.09C268.621 218.43 268.734 218.695 268.961 218.887C269.188 219.078 269.479 219.174 269.834 219.174ZM280.873 218.564L283.029 213.66H284.383V220H283.299V215.389L281.248 220H280.498L278.406 215.289V220H277.322V213.66H278.729L280.873 218.564ZM288.76 220.117C287.9 220.117 287.201 219.836 286.662 219.273C286.123 218.707 285.854 217.951 285.854 217.006V216.807C285.854 216.178 285.973 215.617 286.211 215.125C286.453 214.629 286.789 214.242 287.219 213.965C287.652 213.684 288.121 213.543 288.625 213.543C289.449 213.543 290.09 213.814 290.547 214.357C291.004 214.9 291.232 215.678 291.232 216.689V217.141H286.938C286.953 217.766 287.135 218.271 287.482 218.658C287.834 219.041 288.279 219.232 288.818 219.232C289.201 219.232 289.525 219.154 289.791 218.998C290.057 218.842 290.289 218.635 290.488 218.377L291.15 218.893C290.619 219.709 289.822 220.117 288.76 220.117ZM288.625 214.434C288.188 214.434 287.82 214.594 287.523 214.914C287.227 215.23 287.043 215.676 286.973 216.25H290.148V216.168C290.117 215.617 289.969 215.191 289.703 214.891C289.438 214.586 289.078 214.434 288.625 214.434ZM292.439 219.115L292.814 218.652C293.236 218.105 293.477 217.285 293.535 216.191L293.635 213.66H297.719V219.115H298.533V221.863H297.449V220H293.025V221.863H291.941L291.947 219.115H292.439ZM293.723 219.115H296.635V214.662H294.684L294.619 216.174C294.553 217.436 294.254 218.416 293.723 219.115ZM304.914 220H303.83V217.293H300.918V220H299.828V213.66H300.918V216.408H303.83V213.66H304.914V220ZM310.574 220C310.512 219.875 310.461 219.652 310.422 219.332C309.918 219.855 309.316 220.117 308.617 220.117C307.992 220.117 307.479 219.941 307.076 219.59C306.678 219.234 306.479 218.785 306.479 218.242C306.479 217.582 306.729 217.07 307.229 216.707C307.732 216.34 308.439 216.156 309.35 216.156H310.404V215.658C310.404 215.279 310.291 214.979 310.064 214.756C309.838 214.529 309.504 214.416 309.062 214.416C308.676 214.416 308.352 214.514 308.09 214.709C307.828 214.904 307.697 215.141 307.697 215.418H306.607C306.607 215.102 306.719 214.797 306.941 214.504C307.168 214.207 307.473 213.973 307.855 213.801C308.242 213.629 308.666 213.543 309.127 213.543C309.857 213.543 310.43 213.727 310.844 214.094C311.258 214.457 311.473 214.959 311.488 215.6V218.518C311.488 219.1 311.562 219.562 311.711 219.906V220H310.574ZM308.775 219.174C309.115 219.174 309.438 219.086 309.742 218.91C310.047 218.734 310.268 218.506 310.404 218.225V216.924H309.555C308.227 216.924 307.562 217.312 307.562 218.09C307.562 218.43 307.676 218.695 307.902 218.887C308.129 219.078 308.42 219.174 308.775 219.174ZM318.033 213.66V220H316.943V217.533H315.309L313.814 220H312.643L314.236 217.369C313.83 217.221 313.518 216.992 313.299 216.684C313.084 216.371 312.977 216.008 312.977 215.594C312.977 215.016 313.193 214.551 313.627 214.199C314.061 213.844 314.641 213.664 315.367 213.66H318.033ZM314.066 215.605C314.066 215.914 314.172 216.164 314.383 216.355C314.594 216.543 314.873 216.639 315.221 216.643H316.943V214.539H315.385C314.982 214.539 314.662 214.639 314.424 214.838C314.186 215.033 314.066 215.289 314.066 215.605ZM196.018 230.66V237H194.928V231.557H192.771L192.643 233.93C192.572 235.02 192.389 235.799 192.092 236.268C191.799 236.736 191.332 236.98 190.691 237H190.258V236.045L190.568 236.021C190.92 235.982 191.172 235.779 191.324 235.412C191.477 235.045 191.574 234.365 191.617 233.373L191.734 230.66H196.018ZM199.832 235.412L201.309 230.66H202.469L199.92 237.979C199.525 239.033 198.898 239.561 198.039 239.561L197.834 239.543L197.43 239.467V238.588L197.723 238.611C198.09 238.611 198.375 238.537 198.578 238.389C198.785 238.24 198.955 237.969 199.088 237.574L199.328 236.93L197.066 230.66H198.25L199.832 235.412ZM208.498 234.246H207.736V237H206.652V234.246H205.891L204.115 237H202.744L205.012 233.719L202.961 230.66H204.273L205.908 233.285H206.652V230.66H207.736V233.285H208.475L210.121 230.66H211.434L209.377 233.725L211.645 237H210.273L208.498 234.246ZM215.143 237.117C214.283 237.117 213.584 236.836 213.045 236.273C212.506 235.707 212.236 234.951 212.236 234.006V233.807C212.236 233.178 212.355 232.617 212.594 232.125C212.836 231.629 213.172 231.242 213.602 230.965C214.035 230.684 214.504 230.543 215.008 230.543C215.832 230.543 216.473 230.814 216.93 231.357C217.387 231.9 217.615 232.678 217.615 233.689V234.141H213.32C213.336 234.766 213.518 235.271 213.865 235.658C214.217 236.041 214.662 236.232 215.201 236.232C215.584 236.232 215.908 236.154 216.174 235.998C216.439 235.842 216.672 235.635 216.871 235.377L217.533 235.893C217.002 236.709 216.205 237.117 215.143 237.117ZM215.008 231.434C214.57 231.434 214.203 231.594 213.906 231.914C213.609 232.23 213.426 232.676 213.355 233.25H216.531V233.168C216.5 232.617 216.352 232.191 216.086 231.891C215.82 231.586 215.461 231.434 215.008 231.434ZM224.055 237H222.971V234.293H220.059V237H218.969V230.66H220.059V233.408H222.971V230.66H224.055V237ZM229.715 237C229.652 236.875 229.602 236.652 229.562 236.332C229.059 236.855 228.457 237.117 227.758 237.117C227.133 237.117 226.619 236.941 226.217 236.59C225.818 236.234 225.619 235.785 225.619 235.242C225.619 234.582 225.869 234.07 226.369 233.707C226.873 233.34 227.58 233.156 228.49 233.156H229.545V232.658C229.545 232.279 229.432 231.979 229.205 231.756C228.979 231.529 228.645 231.416 228.203 231.416C227.816 231.416 227.492 231.514 227.23 231.709C226.969 231.904 226.838 232.141 226.838 232.418H225.748C225.748 232.102 225.859 231.797 226.082 231.504C226.309 231.207 226.613 230.973 226.996 230.801C227.383 230.629 227.807 230.543 228.268 230.543C228.998 230.543 229.57 230.727 229.984 231.094C230.398 231.457 230.613 231.959 230.629 232.6V235.518C230.629 236.1 230.703 236.562 230.852 236.906V237H229.715ZM227.916 236.174C228.256 236.174 228.578 236.086 228.883 235.91C229.188 235.734 229.408 235.506 229.545 235.225V233.924H228.695C227.367 233.924 226.703 234.312 226.703 235.09C226.703 235.43 226.816 235.695 227.043 235.887C227.27 236.078 227.561 236.174 227.916 236.174ZM237.174 230.66V237H236.084V234.533H234.449L232.955 237H231.783L233.377 234.369C232.971 234.221 232.658 233.992 232.439 233.684C232.225 233.371 232.117 233.008 232.117 232.594C232.117 232.016 232.334 231.551 232.768 231.199C233.201 230.844 233.781 230.664 234.508 230.66H237.174ZM233.207 232.605C233.207 232.914 233.312 233.164 233.523 233.355C233.734 233.543 234.014 233.639 234.361 233.643H236.084V231.539H234.525C234.123 231.539 233.803 231.639 233.564 231.838C233.326 232.033 233.207 232.289 233.207 232.605ZM241.416 233.596C241.416 234.467 241.301 235.303 241.07 236.104C240.844 236.9 240.494 237.637 240.021 238.312C239.553 238.988 239.061 239.469 238.545 239.754L238.316 239.092C238.918 238.631 239.4 237.916 239.764 236.947C240.131 235.975 240.318 234.896 240.326 233.713V233.525C240.326 232.705 240.24 231.943 240.068 231.24C239.896 230.533 239.656 229.9 239.348 229.342C239.043 228.783 238.699 228.348 238.316 228.035L238.545 227.373C239.061 227.658 239.551 228.135 240.016 228.803C240.484 229.471 240.834 230.207 241.064 231.012C241.299 231.816 241.416 232.678 241.416 233.596Z" fill="white"/>
<path d="M11.9727 7.1543H7.61719V19H4.6875V7.1543H0.390625V4.78125H11.9727V7.1543ZM17.4805 4.78125L21.1328 15.0938L24.7656 4.78125H28.6133V19H25.6738V15.1133L25.9668 8.4043L22.1289 19H20.1172L16.2891 8.41406L16.582 15.1133V19H13.6523V4.78125H17.4805ZM42.9102 4.78125V19H39.9707V7.1543H36.1816L35.9473 12.1738C35.8496 13.8665 35.6348 15.2012 35.3027 16.1777C34.9707 17.1478 34.4857 17.8607 33.8477 18.3164C33.2096 18.7656 32.3372 18.9935 31.2305 19H30.4688V16.6465L30.957 16.5977C31.6927 16.5 32.2168 16.0768 32.5293 15.3281C32.8483 14.5729 33.0501 13.2318 33.1348 11.3047L33.3789 4.78125H42.9102ZM61.9824 19H59.1602V8.12109L55.791 9.16602V6.87109L61.6797 4.76172H61.9824V19ZM74.2676 4.63477V6.95898H73.9941C72.7181 6.97852 71.6895 7.31055 70.9082 7.95508C70.1335 8.59961 69.668 9.49479 69.5117 10.6406C70.2669 9.8724 71.2207 9.48828 72.373 9.48828C73.61 9.48828 74.5931 9.93099 75.3223 10.8164C76.0514 11.7018 76.416 12.8672 76.416 14.3125C76.416 15.237 76.2142 16.0736 75.8105 16.8223C75.4134 17.571 74.847 18.1536 74.1113 18.5703C73.3822 18.987 72.5553 19.1953 71.6309 19.1953C70.1335 19.1953 68.9225 18.6745 67.998 17.6328C67.0801 16.5911 66.6211 15.2012 66.6211 13.4629V12.4473C66.6211 10.9043 66.9108 9.54362 67.4902 8.36523C68.0762 7.18034 68.9128 6.26562 70 5.62109C71.0938 4.97005 72.36 4.64128 73.7988 4.63477H74.2676ZM71.5137 11.7539C71.0579 11.7539 70.6445 11.8743 70.2734 12.1152C69.9023 12.3496 69.6289 12.6621 69.4531 13.0527V13.9121C69.4531 14.8561 69.6387 15.5951 70.0098 16.1289C70.3809 16.6562 70.9017 16.9199 71.5723 16.9199C72.1777 16.9199 72.666 16.6823 73.0371 16.207C73.4147 15.7253 73.6035 15.1035 73.6035 14.3418C73.6035 13.5671 73.4147 12.9421 73.0371 12.4668C72.6595 11.9915 72.1517 11.7539 71.5137 11.7539ZM102.305 8.56055C102.305 9.25065 102.132 9.86263 101.787 10.3965C101.442 10.9303 100.967 11.3568 100.361 11.6758C101.051 12.0078 101.598 12.4668 102.002 13.0527C102.406 13.6322 102.607 14.3158 102.607 15.1035C102.607 16.3665 102.178 17.3659 101.318 18.1016C100.459 18.8307 99.2904 19.1953 97.8125 19.1953C96.3346 19.1953 95.1628 18.8275 94.2969 18.0918C93.431 17.3561 92.998 16.36 92.998 15.1035C92.998 14.3158 93.1999 13.6289 93.6035 13.043C94.0072 12.457 94.5508 12.0013 95.2344 11.6758C94.6289 11.3568 94.1536 10.9303 93.8086 10.3965C93.4701 9.86263 93.3008 9.25065 93.3008 8.56055C93.3008 7.34961 93.7044 6.38607 94.5117 5.66992C95.319 4.94727 96.416 4.58594 97.8027 4.58594C99.1829 4.58594 100.277 4.94401 101.084 5.66016C101.898 6.36979 102.305 7.33659 102.305 8.56055ZM99.7754 14.8984C99.7754 14.2799 99.5964 13.7852 99.2383 13.4141C98.8802 13.043 98.3984 12.8574 97.793 12.8574C97.194 12.8574 96.7155 13.043 96.3574 13.4141C95.9993 13.7786 95.8203 14.2734 95.8203 14.8984C95.8203 15.5039 95.9961 15.9922 96.3477 16.3633C96.6992 16.7344 97.1875 16.9199 97.8125 16.9199C98.4245 16.9199 98.903 16.7409 99.248 16.3828C99.5996 16.0247 99.7754 15.5299 99.7754 14.8984ZM99.4824 8.69727C99.4824 8.14388 99.3359 7.70117 99.043 7.36914C98.75 7.0306 98.3366 6.86133 97.8027 6.86133C97.2754 6.86133 96.8652 7.02409 96.5723 7.34961C96.2793 7.67513 96.1328 8.12435 96.1328 8.69727C96.1328 9.26367 96.2793 9.7194 96.5723 10.0645C96.8652 10.4095 97.2786 10.582 97.8125 10.582C98.3464 10.582 98.7565 10.4095 99.043 10.0645C99.3359 9.7194 99.4824 9.26367 99.4824 8.69727ZM132.1 4.63477V6.95898H131.826C130.55 6.97852 129.521 7.31055 128.74 7.95508C127.965 8.59961 127.5 9.49479 127.344 10.6406C128.099 9.8724 129.053 9.48828 130.205 9.48828C131.442 9.48828 132.425 9.93099 133.154 10.8164C133.883 11.7018 134.248 12.8672 134.248 14.3125C134.248 15.237 134.046 16.0736 133.643 16.8223C133.245 17.571 132.679 18.1536 131.943 18.5703C131.214 18.987 130.387 19.1953 129.463 19.1953C127.965 19.1953 126.755 18.6745 125.83 17.6328C124.912 16.5911 124.453 15.2012 124.453 13.4629V12.4473C124.453 10.9043 124.743 9.54362 125.322 8.36523C125.908 7.18034 126.745 6.26562 127.832 5.62109C128.926 4.97005 130.192 4.64128 131.631 4.63477H132.1ZM129.346 11.7539C128.89 11.7539 128.477 11.8743 128.105 12.1152C127.734 12.3496 127.461 12.6621 127.285 13.0527V13.9121C127.285 14.8561 127.471 15.5951 127.842 16.1289C128.213 16.6562 128.734 16.9199 129.404 16.9199C130.01 16.9199 130.498 16.6823 130.869 16.207C131.247 15.7253 131.436 15.1035 131.436 14.3418C131.436 13.5671 131.247 12.9421 130.869 12.4668C130.492 11.9915 129.984 11.7539 129.346 11.7539Z" fill="white"/>
<path d="M130 38V54H173" stroke="white"/>
<path d="M98 38V102H174" stroke="white"/>
<path d="M68 38V150H174" stroke="white"/>
<path d="M21 38V198H174" stroke="white"/>
<circle cx="174" cy="102" r="4" fill="white"/>
<circle cx="174" cy="54" r="4" fill="white"/>
<circle cx="130" cy="38" r="4" fill="white"/>
<circle cx="98" cy="38" r="4" fill="white"/>
<circle cx="68" cy="38" r="4" fill="white"/>
<circle cx="21" cy="38" r="4" fill="white"/>
<circle cx="174" cy="150" r="4" fill="white"/>
<circle cx="174" cy="198" r="4" fill="white"/>
</svg>
