<svg width="360" height="158" viewBox="0 0 360 158" fill="none" xmlns="http://www.w3.org/2000/svg">
<path d="M157.99 59V50.4688H160.779C161.705 50.4688 162.4 50.6602 162.865 51.043C163.334 51.4258 163.568 51.9922 163.568 52.7422C163.568 53.1406 163.455 53.4941 163.229 53.8027C163.002 54.1074 162.693 54.3438 162.303 54.5117C162.764 54.6406 163.127 54.8867 163.393 55.25C163.662 55.6094 163.797 56.0391 163.797 56.5391C163.797 57.3047 163.549 57.9062 163.053 58.3438C162.557 58.7812 161.855 59 160.949 59H157.99ZM159.115 55.0098V58.0801H160.973C161.496 58.0801 161.908 57.9453 162.209 57.6758C162.514 57.4023 162.666 57.0273 162.666 56.5508C162.666 55.5234 162.107 55.0098 160.99 55.0098H159.115ZM159.115 54.1074H160.814C161.307 54.1074 161.699 53.9844 161.992 53.7383C162.289 53.4922 162.438 53.1582 162.438 52.7363C162.438 52.2676 162.301 51.9277 162.027 51.7168C161.754 51.502 161.338 51.3945 160.779 51.3945H159.115V54.1074ZM170.477 59H169.393V56.293H166.48V59H165.391V52.6602H166.48V55.4082H169.393V52.6602H170.477V59ZM174.297 57.4121L175.773 52.6602H176.934L174.385 59.9785C173.99 61.0332 173.363 61.5605 172.504 61.5605L172.299 61.543L171.895 61.4668V60.5879L172.188 60.6113C172.555 60.6113 172.84 60.5371 173.043 60.3887C173.25 60.2402 173.42 59.9688 173.553 59.5742L173.793 58.9297L171.531 52.6602H172.715L174.297 57.4121ZM182.617 53.5391H180.49V59H179.406V53.5391H177.32V52.6602H182.617V53.5391ZM189.027 55.9004C189.027 56.8652 188.807 57.6426 188.365 58.2324C187.924 58.8223 187.326 59.1172 186.572 59.1172C185.803 59.1172 185.197 58.873 184.756 58.3848V61.4375H183.672V52.6602H184.662L184.715 53.3633C185.156 52.8164 185.77 52.543 186.555 52.543C187.316 52.543 187.918 52.8301 188.359 53.4043C188.805 53.9785 189.027 54.7773 189.027 55.8008V55.9004ZM187.943 55.7773C187.943 55.0625 187.791 54.498 187.486 54.084C187.182 53.6699 186.764 53.4629 186.232 53.4629C185.576 53.4629 185.084 53.7539 184.756 54.3359V57.3652C185.08 57.9434 185.576 58.2324 186.244 58.2324C186.764 58.2324 187.176 58.0273 187.48 57.6172C187.789 57.2031 187.943 56.5898 187.943 55.7773ZM193.041 59.1172C192.182 59.1172 191.482 58.8359 190.943 58.2734C190.404 57.707 190.135 56.9512 190.135 56.0059V55.8066C190.135 55.1777 190.254 54.6172 190.492 54.125C190.734 53.6289 191.07 53.2422 191.5 52.9648C191.934 52.6836 192.402 52.543 192.906 52.543C193.73 52.543 194.371 52.8145 194.828 53.3574C195.285 53.9004 195.514 54.6777 195.514 55.6895V56.1406H191.219C191.234 56.7656 191.416 57.2715 191.764 57.6582C192.115 58.041 192.561 58.2324 193.1 58.2324C193.482 58.2324 193.807 58.1543 194.072 57.998C194.338 57.8418 194.57 57.6348 194.77 57.377L195.432 57.8926C194.9 58.709 194.104 59.1172 193.041 59.1172ZM192.906 53.4336C192.469 53.4336 192.102 53.5938 191.805 53.9141C191.508 54.2305 191.324 54.6758 191.254 55.25H194.43V55.168C194.398 54.6172 194.25 54.1914 193.984 53.8906C193.719 53.5859 193.359 53.4336 192.906 53.4336ZM201.953 59H200.869V56.293H197.957V59H196.867V52.6602H197.957V55.4082H200.869V52.6602H201.953V59ZM208.879 59H207.795V56.293H204.883V59H203.793V52.6602H204.883V55.4082H207.795V52.6602H208.879V59ZM214.727 52.6602H215.811V59H214.727V54.377L211.803 59H210.719V52.6602H211.803V57.2891L214.727 52.6602ZM221.652 52.6602H222.736V59H221.652V54.377L218.729 59H217.645V52.6602H218.729V57.2891L221.652 52.6602ZM221.945 50.3516C221.945 50.8242 221.783 51.2051 221.459 51.4941C221.139 51.7793 220.717 51.9219 220.193 51.9219C219.67 51.9219 219.246 51.7773 218.922 51.4883C218.598 51.1992 218.436 50.8203 218.436 50.3516H219.32C219.32 50.625 219.395 50.8398 219.543 50.9961C219.691 51.1484 219.908 51.2246 220.193 51.2246C220.467 51.2246 220.68 51.1484 220.832 50.9961C220.988 50.8438 221.066 50.6289 221.066 50.3516H221.945ZM227.4 58.1152L227.775 57.6523C228.197 57.1055 228.438 56.2852 228.496 55.1914L228.596 52.6602H232.68V58.1152H233.494V60.8633H232.41V59H227.986V60.8633H226.902L226.908 58.1152H227.4ZM228.684 58.1152H231.596V53.6621H229.645L229.58 55.1738C229.514 56.4355 229.215 57.416 228.684 58.1152ZM238.797 52.6602H239.881V59H238.797V54.377L235.873 59H234.789V52.6602H235.873V57.2891L238.797 52.6602ZM245.535 59C245.473 58.875 245.422 58.6523 245.383 58.332C244.879 58.8555 244.277 59.1172 243.578 59.1172C242.953 59.1172 242.439 58.9414 242.037 58.5898C241.639 58.2344 241.439 57.7852 241.439 57.2422C241.439 56.582 241.689 56.0703 242.189 55.707C242.693 55.3398 243.4 55.1562 244.311 55.1562H245.365V54.6582C245.365 54.2793 245.252 53.9785 245.025 53.7559C244.799 53.5293 244.465 53.416 244.023 53.416C243.637 53.416 243.312 53.5137 243.051 53.709C242.789 53.9043 242.658 54.1406 242.658 54.418H241.568C241.568 54.1016 241.68 53.7969 241.902 53.5039C242.129 53.207 242.434 52.9727 242.816 52.8008C243.203 52.6289 243.627 52.543 244.088 52.543C244.818 52.543 245.391 52.7266 245.805 53.0938C246.219 53.457 246.434 53.959 246.449 54.5996V57.5176C246.449 58.0996 246.523 58.5625 246.672 58.9062V59H245.535ZM243.736 58.1738C244.076 58.1738 244.398 58.0859 244.703 57.9102C245.008 57.7344 245.229 57.5059 245.365 57.2246V55.9238H244.516C243.188 55.9238 242.523 56.3125 242.523 57.0898C242.523 57.4297 242.637 57.6953 242.863 57.8867C243.09 58.0781 243.381 58.1738 243.736 58.1738ZM251.799 57.5645L253.955 52.6602H255.309V59H254.225V54.3887L252.174 59H251.424L249.332 54.2891V59H248.248V52.6602H249.654L251.799 57.5645ZM259.686 59.1172C258.826 59.1172 258.127 58.8359 257.588 58.2734C257.049 57.707 256.779 56.9512 256.779 56.0059V55.8066C256.779 55.1777 256.898 54.6172 257.137 54.125C257.379 53.6289 257.715 53.2422 258.145 52.9648C258.578 52.6836 259.047 52.543 259.551 52.543C260.375 52.543 261.016 52.8145 261.473 53.3574C261.93 53.9004 262.158 54.6777 262.158 55.6895V56.1406H257.863C257.879 56.7656 258.061 57.2715 258.408 57.6582C258.76 58.041 259.205 58.2324 259.744 58.2324C260.127 58.2324 260.451 58.1543 260.717 57.998C260.982 57.8418 261.215 57.6348 261.414 57.377L262.076 57.8926C261.545 58.709 260.748 59.1172 259.686 59.1172ZM259.551 53.4336C259.113 53.4336 258.746 53.5938 258.449 53.9141C258.152 54.2305 257.969 54.6758 257.898 55.25H261.074V55.168C261.043 54.6172 260.895 54.1914 260.629 53.8906C260.363 53.5859 260.004 53.4336 259.551 53.4336ZM268.059 53.5391H265.932V59H264.848V53.5391H262.762V52.6602H268.059V53.5391ZM274.469 55.9004C274.469 56.8652 274.248 57.6426 273.807 58.2324C273.365 58.8223 272.768 59.1172 272.014 59.1172C271.244 59.1172 270.639 58.873 270.197 58.3848V61.4375H269.113V52.6602H270.104L270.156 53.3633C270.598 52.8164 271.211 52.543 271.996 52.543C272.758 52.543 273.359 52.8301 273.801 53.4043C274.246 53.9785 274.469 54.7773 274.469 55.8008V55.9004ZM273.385 55.7773C273.385 55.0625 273.232 54.498 272.928 54.084C272.623 53.6699 272.205 53.4629 271.674 53.4629C271.018 53.4629 270.525 53.7539 270.197 54.3359V57.3652C270.521 57.9434 271.018 58.2324 271.686 58.2324C272.205 58.2324 272.617 58.0273 272.922 57.6172C273.23 57.2031 273.385 56.5898 273.385 55.7773ZM275.816 60.6992L275.201 60.2773C275.568 59.7656 275.76 59.2383 275.775 58.6953V57.7168H276.836V58.5664C276.836 58.9609 276.738 59.3555 276.543 59.75C276.352 60.1445 276.109 60.4609 275.816 60.6992ZM284.834 57.5645L286.99 52.6602H288.344V59H287.26V54.3887L285.209 59H284.459L282.367 54.2891V59H281.283V52.6602H282.689L284.834 57.5645ZM293.74 57.5645L295.896 52.6602H297.25V59H296.166V54.3887L294.115 59H293.365L291.273 54.2891V59H290.189V52.6602H291.596L293.74 57.5645Z" fill="white"/>
<path d="M157.99 107V98.4688H160.779C161.705 98.4688 162.4 98.6602 162.865 99.043C163.334 99.4258 163.568 99.9922 163.568 100.742C163.568 101.141 163.455 101.494 163.229 101.803C163.002 102.107 162.693 102.344 162.303 102.512C162.764 102.641 163.127 102.887 163.393 103.25C163.662 103.609 163.797 104.039 163.797 104.539C163.797 105.305 163.549 105.906 163.053 106.344C162.557 106.781 161.855 107 160.949 107H157.99ZM159.115 103.01V106.08H160.973C161.496 106.08 161.908 105.945 162.209 105.676C162.514 105.402 162.666 105.027 162.666 104.551C162.666 103.523 162.107 103.01 160.99 103.01H159.115ZM159.115 102.107H160.814C161.307 102.107 161.699 101.984 161.992 101.738C162.289 101.492 162.438 101.158 162.438 100.736C162.438 100.268 162.301 99.9277 162.027 99.7168C161.754 99.502 161.338 99.3945 160.779 99.3945H159.115V102.107ZM170.477 107H169.393V104.293H166.48V107H165.391V100.66H166.48V103.408H169.393V100.66H170.477V107ZM174.854 107.117C173.994 107.117 173.295 106.836 172.756 106.273C172.217 105.707 171.947 104.951 171.947 104.006V103.807C171.947 103.178 172.066 102.617 172.305 102.125C172.547 101.629 172.883 101.242 173.312 100.965C173.746 100.684 174.215 100.543 174.719 100.543C175.543 100.543 176.184 100.814 176.641 101.357C177.098 101.9 177.326 102.678 177.326 103.689V104.141H173.031C173.047 104.766 173.229 105.271 173.576 105.658C173.928 106.041 174.373 106.232 174.912 106.232C175.295 106.232 175.619 106.154 175.885 105.998C176.15 105.842 176.383 105.635 176.582 105.377L177.244 105.893C176.713 106.709 175.916 107.117 174.854 107.117ZM174.719 101.434C174.281 101.434 173.914 101.594 173.617 101.914C173.32 102.23 173.137 102.676 173.066 103.25H176.242V103.168C176.211 102.617 176.062 102.191 175.797 101.891C175.531 101.586 175.172 101.434 174.719 101.434ZM179.77 100.66V106.115H182.09V100.66H183.174V106.115H185.488V100.66H186.578V107H178.68V100.66H179.77ZM193.469 107H192.385V104.293H189.473V107H188.383V100.66H189.473V103.408H192.385V100.66H193.469V107ZM199.316 100.66H200.4V107H199.316V102.377L196.393 107H195.309V100.66H196.393V105.289L199.316 100.66ZM206.242 100.66H207.326V107H206.242V102.377L203.318 107H202.234V100.66H203.318V105.289L206.242 100.66ZM206.535 98.3516C206.535 98.8242 206.373 99.2051 206.049 99.4941C205.729 99.7793 205.307 99.9219 204.783 99.9219C204.26 99.9219 203.836 99.7773 203.512 99.4883C203.188 99.1992 203.025 98.8203 203.025 98.3516H203.91C203.91 98.625 203.984 98.8398 204.133 98.9961C204.281 99.1484 204.498 99.2246 204.783 99.2246C205.057 99.2246 205.27 99.1484 205.422 98.9961C205.578 98.8438 205.656 98.6289 205.656 98.3516H206.535ZM211.99 106.115L212.365 105.652C212.787 105.105 213.027 104.285 213.086 103.191L213.186 100.66H217.27V106.115H218.084V108.863H217V107H212.576V108.863H211.492L211.498 106.115H211.99ZM213.273 106.115H216.186V101.662H214.234L214.17 103.174C214.104 104.436 213.805 105.416 213.273 106.115ZM223.387 100.66H224.471V107H223.387V102.377L220.463 107H219.379V100.66H220.463V105.289L223.387 100.66ZM230.125 107C230.062 106.875 230.012 106.652 229.973 106.332C229.469 106.855 228.867 107.117 228.168 107.117C227.543 107.117 227.029 106.941 226.627 106.59C226.229 106.234 226.029 105.785 226.029 105.242C226.029 104.582 226.279 104.07 226.779 103.707C227.283 103.34 227.99 103.156 228.9 103.156H229.955V102.658C229.955 102.279 229.842 101.979 229.615 101.756C229.389 101.529 229.055 101.416 228.613 101.416C228.227 101.416 227.902 101.514 227.641 101.709C227.379 101.904 227.248 102.141 227.248 102.418H226.158C226.158 102.102 226.27 101.797 226.492 101.504C226.719 101.207 227.023 100.973 227.406 100.801C227.793 100.629 228.217 100.543 228.678 100.543C229.408 100.543 229.98 100.727 230.395 101.094C230.809 101.457 231.023 101.959 231.039 102.6V105.518C231.039 106.1 231.113 106.562 231.262 106.906V107H230.125ZM228.326 106.174C228.666 106.174 228.988 106.086 229.293 105.91C229.598 105.734 229.818 105.506 229.955 105.225V103.924H229.105C227.777 103.924 227.113 104.312 227.113 105.09C227.113 105.43 227.227 105.695 227.453 105.887C227.68 106.078 227.971 106.174 228.326 106.174ZM236.389 105.564L238.545 100.66H239.898V107H238.814V102.389L236.764 107H236.014L233.922 102.289V107H232.838V100.66H234.244L236.389 105.564ZM244.275 107.117C243.416 107.117 242.717 106.836 242.178 106.273C241.639 105.707 241.369 104.951 241.369 104.006V103.807C241.369 103.178 241.488 102.617 241.727 102.125C241.969 101.629 242.305 101.242 242.734 100.965C243.168 100.684 243.637 100.543 244.141 100.543C244.965 100.543 245.605 100.814 246.062 101.357C246.52 101.9 246.748 102.678 246.748 103.689V104.141H242.453C242.469 104.766 242.65 105.271 242.998 105.658C243.35 106.041 243.795 106.232 244.334 106.232C244.717 106.232 245.041 106.154 245.307 105.998C245.572 105.842 245.805 105.635 246.004 105.377L246.666 105.893C246.135 106.709 245.338 107.117 244.275 107.117ZM244.141 101.434C243.703 101.434 243.336 101.594 243.039 101.914C242.742 102.23 242.559 102.676 242.488 103.25H245.664V103.168C245.633 102.617 245.484 102.191 245.219 101.891C244.953 101.586 244.594 101.434 244.141 101.434ZM252.648 101.539H250.521V107H249.438V101.539H247.352V100.66H252.648V101.539ZM259.059 103.9C259.059 104.865 258.838 105.643 258.396 106.232C257.955 106.822 257.357 107.117 256.604 107.117C255.834 107.117 255.229 106.873 254.787 106.385V109.438H253.703V100.66H254.693L254.746 101.363C255.188 100.816 255.801 100.543 256.586 100.543C257.348 100.543 257.949 100.83 258.391 101.404C258.836 101.979 259.059 102.777 259.059 103.801V103.9ZM257.975 103.777C257.975 103.062 257.822 102.498 257.518 102.084C257.213 101.67 256.795 101.463 256.264 101.463C255.607 101.463 255.115 101.754 254.787 102.336V105.365C255.111 105.943 255.607 106.232 256.275 106.232C256.795 106.232 257.207 106.027 257.512 105.617C257.82 105.203 257.975 104.59 257.975 103.777ZM260.406 108.699L259.791 108.277C260.158 107.766 260.35 107.238 260.365 106.695V105.717H261.426V106.566C261.426 106.961 261.328 107.355 261.133 107.75C260.941 108.145 260.699 108.461 260.406 108.699ZM269.424 105.564L271.58 100.66H272.934V107H271.85V102.389L269.799 107H269.049L266.957 102.289V107H265.873V100.66H267.279L269.424 105.564ZM278.33 105.564L280.486 100.66H281.84V107H280.756V102.389L278.705 107H277.955L275.863 102.289V107H274.779V100.66H276.186L278.33 105.564ZM286.768 103.092H283.258V102.459L285.016 100.807C285.441 100.408 285.654 100.074 285.654 99.8047C285.654 99.6133 285.592 99.459 285.467 99.3418C285.342 99.2207 285.162 99.1602 284.928 99.1602C284.635 99.1602 284.418 99.2344 284.277 99.3828C284.141 99.5312 284.072 99.7168 284.072 99.9395H283.152C283.152 99.4941 283.314 99.127 283.639 98.8379C283.967 98.5488 284.389 98.4043 284.904 98.4043C285.42 98.4043 285.828 98.5293 286.129 98.7793C286.43 99.0254 286.58 99.3633 286.58 99.793C286.58 100.199 286.371 100.611 285.953 101.029L285.461 101.492L284.43 102.342H286.768V103.092Z" fill="white"/>
<path d="M163.885 146.395H161.143V154H160.023V146.395H157.287V145.469H163.885V146.395ZM168.438 147.66H169.521V154H168.438V149.377L165.514 154H164.43V147.66H165.514V152.289L168.438 147.66ZM176.447 154H175.363V148.557H172.445V154H171.355V147.66H176.447V154ZM185.266 147.66H186.35V154H185.266V149.377L182.342 154H181.258V147.66H182.342V152.289L185.266 147.66ZM191.576 149.395C191.576 149.098 191.463 148.863 191.236 148.691C191.01 148.516 190.699 148.428 190.305 148.428C189.922 148.428 189.602 148.527 189.344 148.727C189.09 148.926 188.963 149.16 188.963 149.43H187.885C187.885 148.879 188.115 148.428 188.576 148.076C189.037 147.725 189.613 147.549 190.305 147.549C191.047 147.549 191.625 147.709 192.039 148.029C192.453 148.346 192.66 148.799 192.66 149.389C192.66 149.674 192.574 149.936 192.402 150.174C192.23 150.412 191.986 150.602 191.67 150.742C192.408 150.992 192.777 151.484 192.777 152.219C192.777 152.801 192.553 153.262 192.104 153.602C191.654 153.941 191.055 154.111 190.305 154.111C189.574 154.111 188.971 153.934 188.494 153.578C188.021 153.219 187.785 152.734 187.785 152.125H188.863C188.863 152.434 189 152.699 189.273 152.922C189.551 153.141 189.895 153.25 190.305 153.25C190.719 153.25 191.053 153.154 191.307 152.963C191.561 152.771 191.688 152.523 191.688 152.219C191.688 151.863 191.58 151.609 191.365 151.457C191.154 151.301 190.824 151.223 190.375 151.223H189.291V150.309H190.469C191.207 150.289 191.576 149.984 191.576 149.395ZM194.131 153.115L194.506 152.652C194.928 152.105 195.168 151.285 195.227 150.191L195.326 147.66H199.41V153.115H200.225V155.863H199.141V154H194.717V155.863H193.633L193.639 153.115H194.131ZM195.414 153.115H198.326V148.662H196.375L196.311 150.174C196.244 151.436 195.945 152.416 195.414 153.115ZM204.057 154.117C203.197 154.117 202.498 153.836 201.959 153.273C201.42 152.707 201.15 151.951 201.15 151.006V150.807C201.15 150.178 201.27 149.617 201.508 149.125C201.75 148.629 202.086 148.242 202.516 147.965C202.949 147.684 203.418 147.543 203.922 147.543C204.746 147.543 205.387 147.814 205.844 148.357C206.301 148.9 206.529 149.678 206.529 150.689V151.141H202.234C202.25 151.766 202.432 152.271 202.779 152.658C203.131 153.041 203.576 153.232 204.115 153.232C204.498 153.232 204.822 153.154 205.088 152.998C205.354 152.842 205.586 152.635 205.785 152.377L206.447 152.893C205.916 153.709 205.119 154.117 204.057 154.117ZM203.922 148.434C203.484 148.434 203.117 148.594 202.82 148.914C202.523 149.23 202.34 149.676 202.27 150.25H205.445V150.168C205.414 149.617 205.266 149.191 205 148.891C204.734 148.586 204.375 148.434 203.922 148.434ZM212.986 147.66V154H211.896V148.557H209.74L209.611 150.93C209.541 152.02 209.357 152.799 209.061 153.268C208.768 153.736 208.301 153.98 207.66 154H207.227V153.045L207.537 153.021C207.889 152.982 208.141 152.779 208.293 152.412C208.445 152.045 208.543 151.365 208.586 150.373L208.703 147.66H212.986ZM218.828 147.66H219.912V154H218.828V149.377L215.904 154H214.82V147.66H215.904V152.289L218.828 147.66ZM226.498 147.66V154H225.408V151.533H223.773L222.279 154H221.107L222.701 151.369C222.295 151.221 221.982 150.992 221.764 150.684C221.549 150.371 221.441 150.008 221.441 149.594C221.441 149.016 221.658 148.551 222.092 148.199C222.525 147.844 223.105 147.664 223.832 147.66H226.498ZM222.531 149.605C222.531 149.914 222.637 150.164 222.848 150.355C223.059 150.543 223.338 150.639 223.686 150.643H225.408V148.539H223.85C223.447 148.539 223.127 148.639 222.889 148.838C222.65 149.033 222.531 149.289 222.531 149.605ZM231.174 150.537C231.174 149.654 231.291 148.807 231.525 147.994C231.764 147.182 232.117 146.443 232.586 145.779C233.055 145.115 233.541 144.646 234.045 144.373L234.268 145.088C233.697 145.525 233.229 146.193 232.861 147.092C232.498 147.99 232.299 148.996 232.264 150.109L232.258 150.607C232.258 152.115 232.533 153.424 233.084 154.533C233.416 155.197 233.811 155.717 234.268 156.092L234.045 156.754C233.525 156.465 233.029 155.98 232.557 155.301C231.635 153.973 231.174 152.385 231.174 150.537ZM236.5 147.66V153.115H238.82V147.66H239.904V153.115H242.219V147.66H243.309V154H235.41V147.66H236.5ZM248.934 154C248.871 153.875 248.82 153.652 248.781 153.332C248.277 153.855 247.676 154.117 246.977 154.117C246.352 154.117 245.838 153.941 245.436 153.59C245.037 153.234 244.838 152.785 244.838 152.242C244.838 151.582 245.088 151.07 245.588 150.707C246.092 150.34 246.799 150.156 247.709 150.156H248.764V149.658C248.764 149.279 248.65 148.979 248.424 148.756C248.197 148.529 247.863 148.416 247.422 148.416C247.035 148.416 246.711 148.514 246.449 148.709C246.188 148.904 246.057 149.141 246.057 149.418H244.967C244.967 149.102 245.078 148.797 245.301 148.504C245.527 148.207 245.832 147.973 246.215 147.801C246.602 147.629 247.025 147.543 247.486 147.543C248.217 147.543 248.789 147.727 249.203 148.094C249.617 148.457 249.832 148.959 249.848 149.6V152.518C249.848 153.1 249.922 153.562 250.07 153.906V154H248.934ZM247.135 153.174C247.475 153.174 247.797 153.086 248.102 152.91C248.406 152.734 248.627 152.506 248.764 152.225V150.924H247.914C246.586 150.924 245.922 151.312 245.922 152.09C245.922 152.43 246.035 152.695 246.262 152.887C246.488 153.078 246.779 153.174 247.135 153.174ZM255.648 147.66H256.732V154H255.648V149.377L252.725 154H251.641V147.66H252.725V152.289L255.648 147.66ZM255.941 145.352C255.941 145.824 255.779 146.205 255.455 146.494C255.135 146.779 254.713 146.922 254.189 146.922C253.666 146.922 253.242 146.777 252.918 146.488C252.594 146.199 252.432 145.82 252.432 145.352H253.316C253.316 145.625 253.391 145.84 253.539 145.996C253.688 146.148 253.904 146.225 254.189 146.225C254.463 146.225 254.676 146.148 254.828 145.996C254.984 145.844 255.062 145.629 255.062 145.352H255.941ZM261.256 148.023C262.053 148.023 262.689 148.291 263.166 148.826C263.646 149.357 263.887 150.059 263.887 150.93V151.029C263.887 151.627 263.771 152.162 263.541 152.635C263.311 153.104 262.979 153.469 262.545 153.73C262.115 153.988 261.619 154.117 261.057 154.117C260.205 154.117 259.52 153.834 259 153.268C258.48 152.697 258.221 151.934 258.221 150.977V150.449C258.221 149.117 258.467 148.059 258.959 147.273C259.455 146.488 260.186 146.01 261.15 145.838C261.697 145.74 262.066 145.621 262.258 145.48C262.449 145.34 262.545 145.146 262.545 144.9H263.436C263.436 145.389 263.324 145.77 263.102 146.043C262.883 146.316 262.531 146.51 262.047 146.623L261.238 146.805C260.594 146.957 260.109 147.215 259.785 147.578C259.465 147.938 259.256 148.418 259.158 149.02C259.732 148.355 260.432 148.023 261.256 148.023ZM261.045 148.914C260.514 148.914 260.092 149.094 259.779 149.453C259.467 149.809 259.311 150.303 259.311 150.936V151.029C259.311 151.709 259.467 152.248 259.779 152.646C260.096 153.041 260.521 153.238 261.057 153.238C261.596 153.238 262.021 153.039 262.334 152.641C262.646 152.242 262.803 151.66 262.803 150.895C262.803 150.297 262.645 149.818 262.328 149.459C262.016 149.096 261.588 148.914 261.045 148.914ZM269.02 154C268.957 153.875 268.906 153.652 268.867 153.332C268.363 153.855 267.762 154.117 267.062 154.117C266.438 154.117 265.924 153.941 265.521 153.59C265.123 153.234 264.924 152.785 264.924 152.242C264.924 151.582 265.174 151.07 265.674 150.707C266.178 150.34 266.885 150.156 267.795 150.156H268.85V149.658C268.85 149.279 268.736 148.979 268.51 148.756C268.283 148.529 267.949 148.416 267.508 148.416C267.121 148.416 266.797 148.514 266.535 148.709C266.273 148.904 266.143 149.141 266.143 149.418H265.053C265.053 149.102 265.164 148.797 265.387 148.504C265.613 148.207 265.918 147.973 266.301 147.801C266.688 147.629 267.111 147.543 267.572 147.543C268.303 147.543 268.875 147.727 269.289 148.094C269.703 148.457 269.918 148.959 269.934 149.6V152.518C269.934 153.1 270.008 153.562 270.156 153.906V154H269.02ZM267.221 153.174C267.561 153.174 267.883 153.086 268.188 152.91C268.492 152.734 268.713 152.506 268.85 152.225V150.924H268C266.672 150.924 266.008 151.312 266.008 152.09C266.008 152.43 266.121 152.695 266.348 152.887C266.574 153.078 266.865 153.174 267.221 153.174ZM278.523 154C278.461 153.875 278.41 153.652 278.371 153.332C277.867 153.855 277.266 154.117 276.566 154.117C275.941 154.117 275.428 153.941 275.025 153.59C274.627 153.234 274.428 152.785 274.428 152.242C274.428 151.582 274.678 151.07 275.178 150.707C275.682 150.34 276.389 150.156 277.299 150.156H278.354V149.658C278.354 149.279 278.24 148.979 278.014 148.756C277.787 148.529 277.453 148.416 277.012 148.416C276.625 148.416 276.301 148.514 276.039 148.709C275.777 148.904 275.646 149.141 275.646 149.418H274.557C274.557 149.102 274.668 148.797 274.891 148.504C275.117 148.207 275.422 147.973 275.805 147.801C276.191 147.629 276.615 147.543 277.076 147.543C277.807 147.543 278.379 147.727 278.793 148.094C279.207 148.457 279.422 148.959 279.438 149.6V152.518C279.438 153.1 279.512 153.562 279.66 153.906V154H278.523ZM276.725 153.174C277.064 153.174 277.387 153.086 277.691 152.91C277.996 152.734 278.217 152.506 278.354 152.225V150.924H277.504C276.176 150.924 275.512 151.312 275.512 152.09C275.512 152.43 275.625 152.695 275.852 152.887C276.078 153.078 276.369 153.174 276.725 153.174ZM286.334 147.66V154H285.244V148.557H283.088L282.959 150.93C282.889 152.02 282.705 152.799 282.408 153.268C282.115 153.736 281.648 153.98 281.008 154H280.574V153.045L280.885 153.021C281.236 152.982 281.488 152.779 281.641 152.412C281.793 152.045 281.891 151.365 281.934 150.373L282.051 147.66H286.334ZM289.258 150.35H290.781C290.863 149.506 291.162 148.828 291.678 148.316C292.197 147.801 292.852 147.543 293.641 147.543C294.469 147.543 295.146 147.822 295.674 148.381C296.201 148.939 296.486 149.666 296.529 150.561L296.535 150.9C296.535 151.518 296.414 152.074 296.172 152.57C295.93 153.066 295.59 153.449 295.152 153.719C294.715 153.984 294.215 154.117 293.652 154.117C292.836 154.117 292.168 153.852 291.648 153.32C291.129 152.785 290.838 152.092 290.775 151.24H289.258V154H288.174V147.66H289.258V150.35ZM291.848 150.9C291.848 151.604 292.01 152.168 292.334 152.594C292.662 153.02 293.102 153.232 293.652 153.232C294.203 153.232 294.639 153.016 294.959 152.582C295.283 152.148 295.445 151.545 295.445 150.771C295.445 150.08 295.281 149.518 294.953 149.084C294.625 148.65 294.188 148.434 293.641 148.434C293.102 148.434 292.668 148.646 292.34 149.072C292.012 149.498 291.848 150.107 291.848 150.9ZM301.521 152.564L303.678 147.66H305.031V154H303.947V149.389L301.896 154H301.146L299.055 149.289V154H297.971V147.66H299.377L301.521 152.564ZM306.49 150.771C306.49 150.15 306.611 149.592 306.854 149.096C307.1 148.6 307.439 148.217 307.873 147.947C308.311 147.678 308.809 147.543 309.367 147.543C310.23 147.543 310.928 147.842 311.459 148.439C311.994 149.037 312.262 149.832 312.262 150.824V150.9C312.262 151.518 312.143 152.072 311.904 152.564C311.67 153.053 311.332 153.434 310.891 153.707C310.453 153.98 309.949 154.117 309.379 154.117C308.52 154.117 307.822 153.818 307.287 153.221C306.756 152.623 306.49 151.832 306.49 150.848V150.771ZM307.58 150.9C307.58 151.604 307.742 152.168 308.066 152.594C308.395 153.02 308.832 153.232 309.379 153.232C309.93 153.232 310.367 153.018 310.691 152.588C311.016 152.154 311.178 151.549 311.178 150.771C311.178 150.076 311.012 149.514 310.68 149.084C310.352 148.65 309.914 148.434 309.367 148.434C308.832 148.434 308.4 148.646 308.072 149.072C307.744 149.498 307.58 150.107 307.58 150.9ZM317.271 152.564L319.428 147.66H320.781V154H319.697V149.389L317.646 154H316.896L314.805 149.289V154H313.721V147.66H315.127L317.271 152.564ZM325.158 154.117C324.299 154.117 323.6 153.836 323.061 153.273C322.521 152.707 322.252 151.951 322.252 151.006V150.807C322.252 150.178 322.371 149.617 322.609 149.125C322.852 148.629 323.188 148.242 323.617 147.965C324.051 147.684 324.52 147.543 325.023 147.543C325.848 147.543 326.488 147.814 326.945 148.357C327.402 148.9 327.631 149.678 327.631 150.689V151.141H323.336C323.352 151.766 323.533 152.271 323.881 152.658C324.232 153.041 324.678 153.232 325.217 153.232C325.6 153.232 325.924 153.154 326.189 152.998C326.455 152.842 326.688 152.635 326.887 152.377L327.549 152.893C327.018 153.709 326.221 154.117 325.158 154.117ZM325.023 148.434C324.586 148.434 324.219 148.594 323.922 148.914C323.625 149.23 323.441 149.676 323.371 150.25H326.547V150.168C326.516 149.617 326.367 149.191 326.102 148.891C325.836 148.586 325.477 148.434 325.023 148.434ZM328.838 153.115L329.213 152.652C329.635 152.105 329.875 151.285 329.934 150.191L330.033 147.66H334.117V153.115H334.932V155.863H333.848V154H329.424V155.863H328.34L328.346 153.115H328.838ZM330.121 153.115H333.033V148.662H331.082L331.018 150.174C330.951 151.436 330.652 152.416 330.121 153.115ZM341.312 154H340.229V151.293H337.316V154H336.227V147.66H337.316V150.408H340.229V147.66H341.312V154ZM346.973 154C346.91 153.875 346.859 153.652 346.82 153.332C346.316 153.855 345.715 154.117 345.016 154.117C344.391 154.117 343.877 153.941 343.475 153.59C343.076 153.234 342.877 152.785 342.877 152.242C342.877 151.582 343.127 151.07 343.627 150.707C344.131 150.34 344.838 150.156 345.748 150.156H346.803V149.658C346.803 149.279 346.689 148.979 346.463 148.756C346.236 148.529 345.902 148.416 345.461 148.416C345.074 148.416 344.75 148.514 344.488 148.709C344.227 148.904 344.096 149.141 344.096 149.418H343.006C343.006 149.102 343.117 148.797 343.34 148.504C343.566 148.207 343.871 147.973 344.254 147.801C344.641 147.629 345.064 147.543 345.525 147.543C346.256 147.543 346.828 147.727 347.242 148.094C347.656 148.457 347.871 148.959 347.887 149.6V152.518C347.887 153.1 347.961 153.562 348.109 153.906V154H346.973ZM345.174 153.174C345.514 153.174 345.836 153.086 346.141 152.91C346.445 152.734 346.666 152.506 346.803 152.225V150.924H345.953C344.625 150.924 343.961 151.312 343.961 152.09C343.961 152.43 344.074 152.695 344.301 152.887C344.527 153.078 344.818 153.174 345.174 153.174ZM354.432 147.66V154H353.342V151.533H351.707L350.213 154H349.041L350.635 151.369C350.229 151.221 349.916 150.992 349.697 150.684C349.482 150.371 349.375 150.008 349.375 149.594C349.375 149.016 349.592 148.551 350.025 148.199C350.459 147.844 351.039 147.664 351.766 147.66H354.432ZM350.465 149.605C350.465 149.914 350.57 150.164 350.781 150.355C350.992 150.543 351.271 150.639 351.619 150.643H353.342V148.539H351.783C351.381 148.539 351.061 148.639 350.822 148.838C350.584 149.033 350.465 149.289 350.465 149.605ZM358.674 150.596C358.674 151.467 358.559 152.303 358.328 153.104C358.102 153.9 357.752 154.637 357.279 155.312C356.811 155.988 356.318 156.469 355.803 156.754L355.574 156.092C356.176 155.631 356.658 154.916 357.021 153.947C357.389 152.975 357.576 151.896 357.584 150.713V150.525C357.584 149.705 357.498 148.943 357.326 148.24C357.154 147.533 356.914 146.9 356.605 146.342C356.301 145.783 355.957 145.348 355.574 145.035L355.803 144.373C356.318 144.658 356.809 145.135 357.273 145.803C357.742 146.471 358.092 147.207 358.322 148.012C358.557 148.816 358.674 149.678 358.674 150.596Z" fill="white"/>
<path d="M4.18945 4.78125V16.6465H8.13477V4.78125H11.0742V16.6465H14.9805V4.78125H17.9102V19H1.25V4.78125H4.18945ZM28.6523 16.0703H23.5156L22.5391 19H19.4238L24.7168 4.78125H27.4316L32.7539 19H29.6387L28.6523 16.0703ZM24.3066 13.6973H27.8613L26.0742 8.375L24.3066 13.6973ZM37.9102 4.78125L41.5625 15.0938L45.1953 4.78125H49.043V19H46.1035V15.1133L46.3965 8.4043L42.5586 19H40.5469L36.7188 8.41406L37.0117 15.1133V19H34.082V4.78125H37.9102ZM71.0059 19H61.2598V17.0664L65.8594 12.1641C66.4909 11.474 66.9564 10.8717 67.2559 10.3574C67.5618 9.8431 67.7148 9.35482 67.7148 8.89258C67.7148 8.26107 67.5553 7.76628 67.2363 7.4082C66.9173 7.04362 66.4616 6.86133 65.8691 6.86133C65.2311 6.86133 64.7266 7.08268 64.3555 7.52539C63.9909 7.96159 63.8086 8.53776 63.8086 9.25391H60.9766C60.9766 8.38802 61.1816 7.59701 61.5918 6.88086C62.0085 6.16471 62.5944 5.60482 63.3496 5.20117C64.1048 4.79102 64.9609 4.58594 65.918 4.58594C67.3828 4.58594 68.5189 4.9375 69.3262 5.64062C70.14 6.34375 70.5469 7.33659 70.5469 8.61914C70.5469 9.32227 70.3646 10.0384 70 10.7676C69.6354 11.4967 69.0104 12.3464 68.125 13.3164L64.8926 16.7246H71.0059V19ZM82.0117 8.56055C82.0117 9.25065 81.8392 9.86263 81.4941 10.3965C81.1491 10.9303 80.6738 11.3568 80.0684 11.6758C80.7585 12.0078 81.3053 12.4668 81.709 13.0527C82.1126 13.6322 82.3145 14.3158 82.3145 15.1035C82.3145 16.3665 81.8848 17.3659 81.0254 18.1016C80.166 18.8307 78.9974 19.1953 77.5195 19.1953C76.0417 19.1953 74.8698 18.8275 74.0039 18.0918C73.138 17.3561 72.7051 16.36 72.7051 15.1035C72.7051 14.3158 72.9069 13.6289 73.3105 13.043C73.7142 12.457 74.2578 12.0013 74.9414 11.6758C74.3359 11.3568 73.8607 10.9303 73.5156 10.3965C73.1771 9.86263 73.0078 9.25065 73.0078 8.56055C73.0078 7.34961 73.4115 6.38607 74.2188 5.66992C75.026 4.94727 76.123 4.58594 77.5098 4.58594C78.89 4.58594 79.9837 4.94401 80.791 5.66016C81.6048 6.36979 82.0117 7.33659 82.0117 8.56055ZM79.4824 14.8984C79.4824 14.2799 79.3034 13.7852 78.9453 13.4141C78.5872 13.043 78.1055 12.8574 77.5 12.8574C76.901 12.8574 76.4225 13.043 76.0645 13.4141C75.7064 13.7786 75.5273 14.2734 75.5273 14.8984C75.5273 15.5039 75.7031 15.9922 76.0547 16.3633C76.4062 16.7344 76.8945 16.9199 77.5195 16.9199C78.1315 16.9199 78.61 16.7409 78.9551 16.3828C79.3066 16.0247 79.4824 15.5299 79.4824 14.8984ZM79.1895 8.69727C79.1895 8.14388 79.043 7.70117 78.75 7.36914C78.457 7.0306 78.0436 6.86133 77.5098 6.86133C76.9824 6.86133 76.5723 7.02409 76.2793 7.34961C75.9863 7.67513 75.8398 8.12435 75.8398 8.69727C75.8398 9.26367 75.9863 9.7194 76.2793 10.0645C76.5723 10.4095 76.9857 10.582 77.5195 10.582C78.0534 10.582 78.4635 10.4095 78.75 10.0645C79.043 9.7194 79.1895 9.26367 79.1895 8.69727ZM95.1953 20.2207H93.0957L98.3301 4.78125H100.43L95.1953 20.2207ZM118.486 19H115.664V8.12109L112.295 9.16602V6.87109L118.184 4.76172H118.486V19ZM125.986 10.6406H127.49C128.206 10.6406 128.737 10.4616 129.082 10.1035C129.427 9.74544 129.6 9.27018 129.6 8.67773C129.6 8.10482 129.427 7.65885 129.082 7.33984C128.743 7.02083 128.275 6.86133 127.676 6.86133C127.135 6.86133 126.683 7.01107 126.318 7.31055C125.954 7.60352 125.771 7.98763 125.771 8.46289H122.949C122.949 7.7207 123.148 7.05664 123.545 6.4707C123.949 5.87826 124.508 5.41602 125.225 5.08398C125.947 4.75195 126.742 4.58594 127.607 4.58594C129.111 4.58594 130.29 4.94727 131.143 5.66992C131.995 6.38607 132.422 7.37565 132.422 8.63867C132.422 9.28971 132.223 9.88867 131.826 10.4355C131.429 10.9824 130.908 11.4023 130.264 11.6953C131.064 11.9818 131.66 12.4115 132.051 12.9844C132.448 13.5573 132.646 14.2344 132.646 15.0156C132.646 16.2786 132.184 17.291 131.26 18.0527C130.342 18.8145 129.124 19.1953 127.607 19.1953C126.188 19.1953 125.026 18.821 124.121 18.0723C123.223 17.3236 122.773 16.334 122.773 15.1035H125.596C125.596 15.6374 125.794 16.0736 126.191 16.4121C126.595 16.7507 127.09 16.9199 127.676 16.9199C128.346 16.9199 128.87 16.7441 129.248 16.3926C129.632 16.0345 129.824 15.5625 129.824 14.9766C129.824 13.5573 129.043 12.8477 127.48 12.8477H125.986V10.6406Z" fill="white"/>
<path d="M123 38V54H141" stroke="white"/>
<path d="M72 38V102H141" stroke="white"/>
<path d="M26 38V150H141" stroke="white"/>
<circle cx="26" cy="38" r="4" fill="white"/>
<circle cx="72" cy="38" r="4" fill="white"/>
<circle cx="123" cy="38" r="4" fill="white"/>
<circle cx="141" cy="54" r="4" fill="white"/>
<circle cx="141" cy="102" r="4" fill="white"/>
<circle cx="141" cy="150" r="4" fill="white"/>
</svg>
