<?xml version="1.0" encoding="UTF-8"?>
<svg width="80" height="80" version="1.1" viewBox="0 0 80 80" xmlns="http://www.w3.org/2000/svg"><path d="m28 12.998c-2.1987 0-4 1.8013-4 4v46c0 2.1987 1.8013 4 4 4h24c2.1987 0 4-1.8013 4-4v-46c0-2.1987-1.8013-4-4-4zm0 2h24c1.1253 0 2 0.8747 2 2v46c0 1.1253-0.8747 2-2 2h-24c-1.1253 0-2-0.8747-2-2v-46c0-1.1253 0.8747-2 2-2zm2 4c-0.554 0-1 0.446-1 1s0.446 1 1 1h20c0.554 0 1-0.446 1-1s-0.446-1-1-1zm0 7c-0.554 0-1 0.446-1 1s0.446 1 1 1h20c0.554 0 1-0.446 1-1s-0.446-1-1-1zm0 7c-0.554 0-1 0.446-1 1s0.446 1 1 1h20c0.554 0 1-0.446 1-1s-0.446-1-1-1zm10 17c-2.7496 0-5 2.2504-5 5s2.2504 5 5 5 5-2.2504 5-5-2.2504-5-5-5zm0 2c1.6687 0 3 1.3313 3 3s-1.3313 3-3 3-3-1.3313-3-3 1.3313-3 3-3zm34.514 1.4336c-2.2094 0-4.0039 1.8416-4.0039 4.0625a1.0001 1.0001 0 1 0 2 0c0-1.1591 0.89832-2.0625 2.0039-2.0625h1.0762c1.1056 0 2.0039 0.90339 2.0039 2.0625 0 0.55209-0.21181 1.0794-0.5918 1.4668l-6.1172 6.2363a1.0001 1.0001 0 0 0-0.36914 0.97656 1.0001 1.0001 0 0 0 0.0039 0.02734 1.0001 1.0001 0 0 0 0 0.0039 1.0001 1.0001 0 0 0 0.02539 0.09375 1.0001 1.0001 0 0 0 0 2e-3 1.0001 1.0001 0 0 0 1.0996 0.6875h6.9492a1.0001 1.0001 0 1 0 0-2h-4.7031l4.5391-4.627c0.75341-0.76817 1.1641-1.8015 1.1641-2.8672 0-2.2209-1.7945-4.0625-4.0039-4.0625zm-11.504 5.7676a1.0001 1.0001 0 0 0-0.71289 1.7109l2.1465 2.1895-2.1465 2.1875a1.0001 1.0001 0 1 0 1.4277 1.4004l2.1191-2.1602 2.1191 2.1602a1.0001 1.0001 0 1 0 1.4277-1.4004l-2.1465-2.1875 2.1465-2.1895a1.0001 1.0001 0 0 0-0.74414-1.709 1.0001 1.0001 0 0 0-0.68359 0.30859l-2.1191 2.1602-2.1191-2.1602a1.0001 1.0001 0 0 0-0.71484-0.31055z" fill="#fff" /></svg>
