<?xml version="1.0" encoding="UTF-8"?>
<svg width="80" height="80" version="1.1" viewBox="0 0 80 80" xmlns="http://www.w3.org/2000/svg"><path d="m56.777 12.504c-4.4064 0-8 3.5936-8 8 0 1.0973 0.22423 2.1441 0.62695 3.0977l-17.428 10.062c-1.9945-2.8162-5.2724-4.6641-8.9766-4.6641-6.0633 0-11 4.9367-11 11s4.9367 11 11 11c3.7041 0 6.982-1.8479 8.9766-4.6641l17.428 10.062c-0.40272 0.95352-0.62695 2.0004-0.62695 3.0977 0 4.4064 3.5936 8 8 8s8-3.5936 8-8-3.5936-8-8-8c-2.5948 0-4.902 1.2513-6.3652 3.1758l-17.436-10.066c0.65076-1.4032 1.0234-2.9603 1.0234-4.6055s-0.37267-3.2023-1.0234-4.6055l17.436-10.066c1.4632 1.9244 3.7704 3.1758 6.3652 3.1758 4.4064 0 8-3.5936 8-8s-3.5936-8-8-8zm0 2c3.3256 0 6 2.6744 6 6s-2.6744 6-6 6-6-2.6744-6-6 2.6744-6 6-6zm-33.777 16.496c4.9824 0 9 4.0176 9 9s-4.0176 9-9 9-9-4.0176-9-9 4.0176-9 9-9zm33.777 22.496c3.3256 0 6 2.6744 6 6s-2.6744 6-6 6-6-2.6744-6-6 2.6744-6 6-6z" fill="#fff" /></svg>
