<?xml version="1.0" encoding="UTF-8"?>
<svg width="80" height="80" version="1.1" viewBox="0 0 80 80" xmlns="http://www.w3.org/2000/svg"><path d="m6 12c-2.1987 0-4 1.8013-4 4v48c0 2.1987 1.8013 4 4 4h26c2.1987 0 4-1.8013 4-4v-48c0-2.1987-1.8013-4-4-4zm51 0c-1.6447 0-3 1.3553-3 3v34c0 1.6447 1.3553 3 3 3h18c1.6447 0 3-1.3553 3-3v-34c0-1.6447-1.3553-3-3-3zm-51 2h26c1.1253 0 2 0.8747 2 2v48c0 1.1253-0.8747 2-2 2h-26c-1.1253 0-2-0.8747-2-2v-48c0-1.1253 0.8747-2 2-2zm51 0h18c0.5713 0 1 0.4287 1 1v34c0 0.5713-0.4287 1-1 1h-18c-0.5713 0-1-0.4287-1-1v-34c0-0.5713 0.4287-1 1-1zm2 3c-0.554 0-1 0.446-1 1s0.446 1 1 1h14c0.554 0 1-0.446 1-1s-0.446-1-1-1zm-51 1c-0.554 0-1 0.446-1 1s0.446 1 1 1h22c0.554 0 1-0.446 1-1s-0.446-1-1-1zm51 4c-0.554 0-1 0.446-1 1s0.446 1 1 1h14c0.554 0 1-0.446 1-1s-0.446-1-1-1zm-51 3c-0.554 0-1 0.446-1 1s0.446 1 1 1h22c0.554 0 1-0.446 1-1s-0.446-1-1-1zm51 2c-0.554 0-1 0.446-1 1s0.446 1 1 1h14c0.554 0 1-0.446 1-1s-0.446-1-1-1zm-51 5c-0.554 0-1 0.446-1 1s0.446 1 1 1h22c0.554 0 1-0.446 1-1s-0.446-1-1-1zm58 8c-2.1973 0-4 1.8027-4 4s1.8027 4 4 4 4-1.8027 4-4-1.8027-4-4-4zm0 2c1.1164 0 2 0.88359 2 2s-0.88359 2-2 2-2-0.88359-2-2 0.88359-2 2-2zm-47 9c-2.7496 0-5 2.2504-5 5s2.2504 5 5 5 5-2.2504 5-5-2.2504-5-5-5zm0 2c1.6687 0 3 1.3313 3 3s-1.3313 3-3 3-3-1.3313-3-3 1.3313-3 3-3z" fill="#fff" /></svg>
