<?xml version="1.0" encoding="UTF-8"?>
<svg width="80" height="80" version="1.1" viewBox="0 0 80 80" xmlns="http://www.w3.org/2000/svg"><path d="m40.029 12c-1.1982 0.0011-2.3928 0.61144-2.9746 1.832-4.32e-4 9.05e-4 -0.0015 1e-3 -2e-3 2e-3l-7.1797 14.65-16.043 2.3555c-2.6756 0.37987-3.794 3.8199-1.8477 5.7109l11.602 11.422-2.7422 16.117a1.0001 1.0001 0 0 0 0 0.0059c-0.44113 2.6655 2.4564 4.7971 4.8457 3.5273l14.344-7.6133 14.363 7.5879c2.3896 1.2718 5.2889-0.8612 4.8477-3.5273a1.0001 1.0001 0 0 0 0-0.0039l-2.7441-16.117 11.604-11.398c1.9464-1.891 0.82599-5.3311-1.8496-5.7109l-16.041-2.3555-7.1855-14.66c-0.59564-1.2167-1.797-1.8253-2.9961-1.8242zm0.0078 1.9121c0.46612 0.0011 0.93509 0.26345 1.1934 0.79102l7.416 15.135a1.0001 1.0001 0 0 0 0.75391 0.54883l16.566 2.4316a1.0001 1.0001 0 0 0 0.0039 2e-3c1.1306 0.16052 1.5734 1.4855 0.73828 2.2969a1.0001 1.0001 0 0 0-0.0039 0.0039l-11.98 11.768a1.0001 1.0001 0 0 0-0.28516 0.88086l2.8301 16.629c0.19128 1.1651-0.90999 1.9794-1.9355 1.4336a1.0001 1.0001 0 0 0-2e-3 -2e-3l-14.836-7.8359a1.0001 1.0001 0 0 0-0.93555 0l-14.811 7.8613a1.0001 1.0001 0 0 0 0 2e-3c-1.0256 0.54583-2.1268-0.26846-1.9355-1.4336 1.21e-4 -7.34e-4 -1.21e-4 -0.0012 0-2e-3l2.8301-16.627a1.0001 1.0001 0 0 0-0.28516-0.88086l-11.979-11.793a1.0001 1.0001 0 0 0-0.0059-0.0039c-0.83509-0.81134-0.3943-2.1364 0.73633-2.2969a1.0001 1.0001 0 0 0 0.0059-2e-3l16.566-2.4316a1.0001 1.0001 0 0 0 0.75195-0.54883l7.418-15.135a1.0001 1.0001 0 0 0 0.0059-0.0098c0.2482-0.52187 0.71162-0.78238 1.1777-0.78125z" fill="#fff" /></svg>
