<?xml version="1.0" encoding="UTF-8"?>
<svg width="80" height="80" version="1.1" viewBox="0 0 80 80" xmlns="http://www.w3.org/2000/svg"><path d="m28 2c-2.1987 0-4 1.8013-4 4v46c0 2.1987 1.8013 4 4 4h24c2.1987 0 4-1.8013 4-4v-46c0-2.1987-1.8013-4-4-4h-24zm0 2h24c1.1253 0 2 0.8747 2 2v46c0 1.1253-0.8747 2-2 2h-24c-1.1253 0-2-0.8747-2-2v-46c0-1.1253 0.8747-2 2-2zm2 4c-0.554 0-1 0.446-1 1s0.446 1 1 1h20c0.554 0 1-0.446 1-1s-0.446-1-1-1h-20zm0 7c-0.554 0-1 0.446-1 1s0.446 1 1 1h20c0.554 0 1-0.446 1-1s-0.446-1-1-1h-20zm0 7c-0.554 0-1 0.446-1 1s0.446 1 1 1h20c0.554 0 1-0.446 1-1s-0.446-1-1-1h-20zm46.443 6.0898a1.0001 1.0001 0 0 0-0.11133 0.009765h-6.8594a1.0001 1.0001 0 1 0 0 2h4.5508l-12.24 12.1a1.0001 1.0001 0 1 0 1.4062 1.4219l12.268-12.127v4.5098a1.0001 1.0001 0 1 0 2 0v-6.7852a1.0001 1.0001 0 0 0-1.0137-1.1289zm-36.443 10.91c-2.7496 0-5 2.2504-5 5s2.2504 5 5 5 5-2.2504 5-5-2.2504-5-5-5zm0 2c1.6687 0 3 1.3313 3 3s-1.3313 3-3 3-3-1.3313-3-3 1.3313-3 3-3zm34.113 3.2012a1.0001 1.0001 0 0 0-0.6875 1.7207l2.9258 2.8926h-13.865a1.0001 1.0001 0 1 0 0 2h13.865l-2.9258 2.8926a1.0001 1.0001 0 1 0 1.4062 1.4219l4.5684-4.5156a1.0001 1.0001 0 0 0-0.001953-1.5977l-4.5664-4.5156a1.0001 1.0001 0 0 0-0.71875-0.29883zm-11.643 11.508a1.0001 1.0001 0 0 0-0.6875 1.7207l12.24 12.1h-4.5508a1.0001 1.0001 0 1 0 0 2h6.9844a1.0006 1.0006 0 0 0 0.09961-0.005859 1.0001 1.0001 0 0 0 0.021484-0.001954 1.0006 1.0006 0 0 0 0.023437-0.003906 1.0001 1.0001 0 0 0 0.074219-0.013672 1.0006 1.0006 0 0 0 0.076172-0.019531 1.0001 1.0001 0 0 0 0.001953-0.001953 1.0006 1.0006 0 0 0 0.054688-0.017578 1.0001 1.0001 0 0 0 0.05664-0.023438 1.0006 1.0006 0 0 0 0.11914-0.064453 1.0001 1.0001 0 0 0 0.054687-0.035156 1.0006 1.0006 0 0 0 0.0625-0.046875 1.0001 1.0001 0 0 0 0.015626-0.013672 1.0006 1.0006 0 0 0 0.05664-0.054688 1.0001 1.0001 0 0 0 0.001953-0.001953 1.0006 1.0006 0 0 0 0.12305-0.1543 1.0001 1.0001 0 0 0 0.011719-0.019531 1.0006 1.0006 0 0 0 0.078125-0.16016 1.0001 1.0001 0 0 0 0.007812-0.019531 1.0006 1.0006 0 0 0 0.023438-0.074219 1.0001 1.0001 0 0 0 0.005859-0.021484 1.0006 1.0006 0 0 0 0.017578-0.076172 1.0001 1.0001 0 0 0 0-0.007813 1.0006 1.0006 0 0 0 0.011719-0.091797 1.0001 1.0001 0 0 0 0-0.001953 1.0006 1.0006 0 0 0 0.001953-0.068359v-6.9062a1.0001 1.0001 0 0 0-1.0156-1.0137 1.0001 1.0001 0 0 0-0.98438 1.0137v4.5098l-12.268-12.125a1.0001 1.0001 0 0 0-0.71875-0.29883zm-4.6133 1.7461a1.0001 1.0001 0 0 0-0.98047 1.0176l0.082031 17.125-3.25-3.1836a1.0001 1.0001 0 1 0-1.3984 1.4297l4.877 4.7754a1.0001 1.0001 0 0 0 1.584-0.021485l4.8184-4.8066a1.0001 1.0001 0 0 0-0.72656-1.7168 1.0001 1.0001 0 0 0-0.6875 0.30078l-3.2168 3.2109-0.082031-17.123a1.0001 1.0001 0 0 0-1.0195-1.0078z" fill="#fff" /></svg>
