<?xml version="1.0" encoding="UTF-8"?>
<svg width="80" height="80" version="1.1" viewBox="0 0 80 80" xmlns="http://www.w3.org/2000/svg"><path d="m54.064 24.002a1.0001 1.0001 0 0 0-0.67969 0.32422l-28.227 29.98a1.0004 1.0004 0 1 0 1.457 1.3711l28.227-29.98a1.0001 1.0001 0 0 0-0.67774-1.6953 1.0001 1.0001 0 0 0-0.09961 0zm19.955 0a1.0001 1.0001 0 0 0-0.70117 0.26758l-16.568 14.99a1.0001 1.0001 0 0 0 0 1.4844l16.568 14.99a1.0005 1.0005 0 1 0 1.3418-1.4844l-15.748-14.248 15.748-14.248a1.0001 1.0001 0 0 0-0.64062-1.752zm-68.07 2e-3a1.0001 1.0001 0 0 0-0.60938 1.75l15.75 14.248-15.75 14.248a1.0005 1.0005 0 1 0 1.3418 1.4844l16.568-14.99a1.0001 1.0001 0 0 0 0-1.4844l-16.568-14.99a1.0001 1.0001 0 0 0-0.73242-0.26567z" fill="#fff" /></svg>
