<?xml version="1.0" encoding="UTF-8"?>
<svg width="80" height="80" version="1.1" viewBox="0 0 80 80" xmlns="http://www.w3.org/2000/svg"><path d="m36.869 15.01a1.0001 1.0001 0 0 0-0.98438 0.82812l-1.0977 6.2754c-1.3252 0.38282-2.5794 0.90917-3.752 1.5566l-5.2168-3.6582a1.0001 1.0001 0 0 0-1.2793 0.11328l-4.4258 4.4238a1.0001 1.0001 0 0 0-0.10938 1.2832l3.6758 5.2148c-0.65955 1.1798-1.1873 2.432-1.5762 3.75l-6.2754 1.0977a1.0001 1.0001 0 0 0-0.82812 0.98633v6.2598a1.0001 1.0001 0 0 0 0.82812 0.98438l6.2734 1.0996c0.38897 1.3186 0.91024 2.5727 1.5566 3.75l-3.6758 5.2148a1.0001 1.0001 0 0 0 0.11133 1.2832l4.4238 4.4238a1.0001 1.0001 0 0 0 1.2832 0.11133l5.2148-3.6758c1.1822 0.64634 2.436 1.1697 3.75 1.5527l1.0977 6.2773a1.0001 1.0001 0 0 0 0.98633 0.82812h6.2598a1.0001 1.0001 0 0 0 0.98438-0.82812l1.0977-6.2754c1.324-0.38243 2.5784-0.90806 3.75-1.5547l5.2168 3.6758a1.0001 1.0001 0 0 0 1.2832-0.11133l4.4238-4.4238a1.0001 1.0001 0 0 0 0.11133-1.2832l-3.6758-5.2148c0.64634-1.1822 1.1697-2.436 1.5527-3.75l6.3184-1.0977a1.0001 1.0001 0 0 0 0.82812-0.98633v-6.2598a1.0001 1.0001 0 0 0-0.82812-0.98633l-6.2754-1.0977c-0.38261-1.3245-0.90764-2.5779-1.5547-3.75l3.6758-5.2148a1.0001 1.0001 0 0 0-0.11133-1.2832l-4.4238-4.4238a1.0001 1.0001 0 0 0-1.2832-0.11133l-5.2148 3.6758c-1.1827-0.64666-2.4373-1.1716-3.752-1.5547l-1.1172-6.2988a1.0001 1.0001 0 0 0-0.98438-0.82617h-6.2617zm0.83984 2h4.584l1.0625 6a1.0001 1.0001 0 0 0 0.74609 0.79492c1.585 0.39138 3.1031 1.041 4.5098 1.873a1.0001 1.0001 0 0 0 1.084-0.042968l4.9688-3.502 3.2344 3.2344-3.502 4.9688a1.0001 1.0001 0 0 0-0.041015 1.0898c0.82896 1.3816 1.4776 2.8967 1.8691 4.502a1.0001 1.0001 0 0 0 0.79883 0.74805l5.9766 1.0449v4.5801l-6.0156 1.0449a1.0001 1.0001 0 0 0-0.80078 0.74414c-0.39134 1.5851-1.041 3.1031-1.873 4.5098a1.0001 1.0001 0 0 0 0.044922 1.0859l3.5 4.9688-3.2344 3.2324-4.9668-3.5a1.0001 1.0001 0 0 0-1.0898-0.041016c-1.3817 0.82898-2.8967 1.4776-4.502 1.8691a1.0001 1.0001 0 0 0-0.74805 0.79883l-1.0449 5.9766h-4.5801l-1.0449-5.9766a1.0001 1.0001 0 0 0-0.74609-0.79883c-1.585-0.39134-3.1031-1.039-4.5098-1.8711a1.0001 1.0001 0 0 0-1.084 0.042969l-4.9688 3.5-3.2344-3.2324 3.502-4.9688a1.0001 1.0001 0 0 0 0.041015-1.0898c-0.82537-1.3756-1.458-2.8931-1.873-4.5137a1.0001 1.0001 0 0 0-0.79492-0.73633l-5.9766-1.0449v-4.5801l5.9766-1.0449a1.0001 1.0001 0 0 0 0.79492-0.73633c0.41502-1.6205 1.0447-3.1331 1.8867-4.5039a1.0001 1.0001 0 0 0-0.033203-1.0996l-3.502-4.9688 3.2363-3.2344 4.9668 3.4824a1.0001 1.0001 0 0 0 1.0898 0.039063c1.3816-0.82897 2.8966-1.4776 4.502-1.8691a1.0001 1.0001 0 0 0 0.74805-0.79883l1.043-5.9766zm2.291 10.521c-6.8797 0-12.479 5.5988-12.479 12.479 0 6.8797 5.5988 12.479 12.479 12.479s12.479-5.5988 12.479-12.479c0-6.8797-5.5988-12.479-12.479-12.479zm0 2c5.7988 0 10.479 4.6797 10.479 10.479 0 5.7988-4.6797 10.479-10.479 10.479s-10.479-4.6797-10.479-10.479c0-5.7988 4.6797-10.479 10.479-10.479zm0 4.2617c-3.422 0-6.2168 2.7948-6.2168 6.2168 0 3.4219 2.7948 6.2188 6.2168 6.2188 3.4219 0 6.2168-2.7968 6.2168-6.2188 0-3.422-2.7949-6.2168-6.2168-6.2168zm0 2c2.341 0 4.2168 1.8757 4.2168 4.2168 0 2.341-1.8758 4.2188-4.2168 4.2188-2.3411 0-4.2168-1.8778-4.2168-4.2188 0-2.3411 1.8757-4.2168 4.2168-4.2168z" fill="#fff" /></svg>
