<?xml version="1.0" encoding="UTF-8"?>
<svg width="80" height="80" version="1.1" viewBox="0 0 80 80" xmlns="http://www.w3.org/2000/svg"><path d="m33.217 13c-2.4148 0-4.3926 1.9759-4.3926 4.3906v12.715c-0.95807-0.79783-2.1873-1.2793-3.5215-1.2793-1.789 0-3.2617 1.4727-3.2617 3.2617v16.955c0 9.9011 8.0571 17.957 17.959 17.957s17.959-8.0559 17.959-17.957v-15.826c0-2.4147-1.9778-4.3906-4.3926-4.3906-0.97356 0-1.8675 0.33144-2.5977 0.87305-0.54712-1.8034-2.2102-3.1348-4.1855-3.1348-0.97356 0-1.8675 0.33302-2.5977 0.875-0.54655-1.8039-2.2096-3.1348-4.1855-3.1348-0.88196 0-1.7023 0.26845-2.3926 0.7207v-7.6348c0-2.4147-1.9758-4.3906-4.3906-4.3906zm0 2c1.3386 0 2.3906 1.0523 2.3906 2.3906v19.219a1.0001 1.0001 0 1 0 2 0v-7.9141c0-1.3383 1.054-2.3906 2.3926-2.3906s2.3926 1.0523 2.3926 2.3906v7.9141a1.0001 1.0001 0 0 0 0.91602 1.0098 1.0001 1.0001 0 0 0 0.09961 0.0039 1.0001 1.0001 0 0 0 0.98438-1.0137v-5.6523c0-1.3383 1.052-2.3926 2.3906-2.3926s2.3926 1.0543 2.3926 2.3926v5.6523a1.0001 1.0001 0 0 0 0.91602 1.0098 1.0001 1.0001 0 0 0 0.09961 0.0039 1.0001 1.0001 0 0 0 0.98438-1.0137v-3.3926c0-1.3383 1.052-2.3906 2.3906-2.3906s2.3926 1.0523 2.3926 2.3906v15.826c0 8.8189-7.1391 15.957-15.959 15.957s-15.959-7.1381-15.959-15.957v-16.955c0-0.69797 0.56352-1.2617 1.2617-1.2617 1.9418 0 3.5215 1.58 3.5215 3.5215v11.305a1.0001 1.0001 0 1 0 2 0v-28.262c0-1.3383 1.054-2.3906 2.3926-2.3906z" fill="#fff" /></svg>
