<?xml version="1.0" encoding="UTF-8"?>
<svg width="116" height="28" version="1.1" viewBox="0 0 116 28" xmlns="http://www.w3.org/2000/svg"><path d="m33.025 0-0.14062 2.7383c-0.041 0.624-0.14264 1.1983-0.30664 1.7227-0.1612 0.5215-0.3789 0.9375-0.6543 1.248h-0.52344l0.003906 2.2617h0.84375v-1.5723h4.5918v1.5684h0.83984l0.009765-2.2578h-0.83594v-5.709h-3.8281zm-31.508 0.5 12.219 12.244 3.6348-3.6875-15.32-8.3867c-0.16362-0.089629-0.34808-0.14553-0.5332-0.16992zm-0.90039 0.15234c-0.36291 0.2147-0.62069 0.65062-0.61719 1.3652l0.11328 22.602c0.003322 0.65249 0.19857 1.1553 0.56445 1.3887l12.539-12.732-12.6-12.623zm33.223 0.041016h2.166v5.0156h-3.1211c0.2226-0.3164 0.41306-0.73532 0.56836-1.2539 0.1582-0.5185 0.25487-1.1436 0.29297-1.8789l0.09375-1.8828zm6.666 0.86133c-0.419 0-0.79298 0.10254-1.1211 0.30469-0.3252 0.20215-0.57907 0.48924-0.76367 0.86133-0.1816 0.372-0.27344 0.79002-0.27344 1.2559v0.056641c0 0.7383 0.19926 1.333 0.59766 1.7812 0.4014 0.4483 0.92382 0.67188 1.5684 0.67188 0.4277 0 0.80654-0.10349 1.1348-0.30859 0.331-0.2051 0.58396-0.48917 0.75976-0.85547 0.1787-0.3691 0.26758-0.7852 0.26758-1.248v-0.058594c0-0.7442-0.20016-1.3389-0.60156-1.7871-0.3984-0.44824-0.92082-0.67383-1.5684-0.67383zm5.0938 0c-0.4336 0-0.81152 0.099616-1.1309 0.29883-0.3164 0.19922-0.55862 0.4795-0.72852 0.83984-0.17 0.3604-0.25586 0.77146-0.25586 1.2344v0.13672c0 0.75 0.19137 1.3418 0.57227 1.7754 0.3838 0.4307 0.89936 0.64648 1.5469 0.64648 0.3222 0 0.62696-0.074306 0.91406-0.2207 0.2901-0.1465 0.52056-0.34179 0.69336-0.58789 0.1729-0.2461 0.26665-0.50494 0.28125-0.77734h-0.76758c-0.0235 0.2636-0.14453 0.4825-0.36133 0.6582-0.2168 0.1758-0.46976 0.26367-0.75976 0.26367-0.419 0-0.7413-0.14746-0.9668-0.44336-0.2256-0.2959-0.33789-0.71774-0.33789-1.2656v-0.1543c0-0.5625 0.11229-0.99122 0.33789-1.2871 0.2285-0.29879 0.54979-0.44922 0.96289-0.44922 0.3076 0 0.56544 0.099626 0.77344 0.29883 0.2109 0.1963 0.32806 0.45021 0.35156 0.75781h0.76758c-0.023401-0.50983-0.21191-0.92484-0.56641-1.2441-0.3516-0.31934-0.79294-0.48047-1.3262-0.48047zm23.777 0c-0.419 0-0.79108 0.10254-1.1191 0.30469-0.3252 0.20215-0.58102 0.48924-0.76562 0.86133-0.1816 0.372-0.27148 0.79002-0.27148 1.2559v0.056641c0 0.7383 0.19926 1.333 0.59766 1.7812 0.4014 0.4483 0.92372 0.67188 1.5684 0.67188 0.4277 0 0.80472-0.10349 1.1328-0.30859 0.3311-0.2051 0.58592-0.48917 0.76172-0.85547 0.1787-0.3691 0.26758-0.7852 0.26758-1.248v-0.058594c0-0.7442-0.20016-1.3389-0.60156-1.7871-0.3984-0.44824-0.92292-0.67383-1.5703-0.67383zm-21.41 0.087891v0.66016h1.5645v4.0957h0.81445v-4.0957h1.5938v-0.66016h-3.9727zm4.2988 0 1.6953 4.7031-0.17969 0.48242c-0.0996 0.2959-0.22761 0.50003-0.38281 0.61133-0.1524 0.1113-0.36523 0.16797-0.64063 0.16797l-0.2207-0.017578v0.6582l0.30469 0.056641 0.15234 0.013672c0.6445 0 1.1162-0.3946 1.4121-1.1855l1.9102-5.4902h-0.86914l-1.1074 3.5645-1.1875-3.5645h-0.88672zm4.8516 0v4.7559h0.81641v-4.082h2.1895v4.082h0.8125v-4.7559h-3.8184zm5.1934 0v4.7559h0.81836v-2.0312h2.1836v2.0312h0.8125v-4.7559h-0.8125v2.0625h-2.1836v-2.0625h-0.81836zm12.564 0v4.7559h2.1484c0.5859 0 1.04-0.11616 1.3594-0.34766 0.3222-0.2314 0.48242-0.5654 0.48242-1.002 0-0.2725-0.087871-0.50692-0.26367-0.70312-0.1729-0.1963-0.40225-0.32713-0.68945-0.39453 0.2579-0.0937 0.45218-0.2285 0.58398-0.4043 0.1319-0.1787 0.19726-0.37796 0.19726-0.59766 0-0.4277-0.16986-0.75293-0.50976-0.97266-0.3369-0.22265-0.82034-0.33398-1.4531-0.33398h-1.8555zm-34.369 0.58008c0.4102 0 0.73828 0.16307 0.98438 0.48828 0.249 0.3223 0.37305 0.74414 0.37305 1.2656 0 0.583-0.12212 1.0381-0.36523 1.3633-0.2432 0.3223-0.57128 0.48242-0.98438 0.48242-0.4102 0-0.73828-0.15922-0.98438-0.47852-0.2432-0.3193-0.36328-0.74226-0.36328-1.2695 0-0.5947 0.12304-1.0518 0.36914-1.3711 0.2461-0.31934 0.5693-0.48047 0.9707-0.48047zm28.871 0c0.4101 0 0.73828 0.16307 0.98438 0.48828 0.2491 0.3223 0.375 0.74414 0.375 1.2656 0 0.583-0.12203 1.0381-0.36523 1.3633-0.2431 0.3223-0.57138 0.48242-0.98438 0.48242-0.4102 0-0.73828-0.15922-0.98438-0.47852-0.2432-0.3193-0.36524-0.74226-0.36524-1.2695 0-0.5947 0.12304-1.0518 0.36914-1.3711 0.2461-0.31934 0.5693-0.48047 0.9707-0.48047zm6.3105 0.080078h1.1133c0.7207 0.01465 1.0801 0.24415 1.0801 0.68945 0 0.4454-0.38086 0.66797-1.1426 0.66797h-1.0508v-1.3574zm0 2.0078h1.3145c0.6972 0 1.0469 0.23829 1.0469 0.71289 0 0.2285-0.085959 0.40535-0.25586 0.53125-0.167 0.126-0.41987 0.18945-0.75977 0.18945h-1.3457v-1.4336zm-57.639 5.1152-3.7852 3.8457 3.7871 3.7969 5.2129-2.8613c0.62744-0.34449 1.2845-1.225 0-1.9277l-5.2148-2.8535zm19.871 0.97266c-2.421-0.094201-4.699 1.1442-5.9375 3.2266-1.2386 2.0824-1.2386 4.6754 0 6.7578 1.2385 2.0823 3.5165 3.3188 5.9375 3.2246 1.7318 0.0783 3.4121-0.59592 4.6094-1.8496 1.0477-1.1511 1.6075-2.6628 1.5605-4.2188 0.0032-0.379-0.02991-0.75822-0.09961-1.1309l-6.0703 0.050781v1.7988h4.3203c-0.0677 0.8478-0.4201 1.6473-1 2.2695-0.874 0.8902-2.0836 1.37-3.3301 1.3203-2.651 0-4.8008-2.1478-4.8008-4.7988s2.1498-4.8008 4.8008-4.8008c1.2178-0.0198 2.3933 0.44514 3.2695 1.291l1.2695-1.2715c-1.1951-1.2101-2.8286-1.8838-4.5293-1.8691zm54.621 0.49805c-0.17852-0.01202-0.35939-0.011137-0.54102 0.001954h-0.009766-4.4707v12.5h1.8711v-4.7402h2.6094c1.453 0.1044 2.8416-0.61194 3.5996-1.8555s0.758-2.8052 0-4.0488c-0.66325-1.0881-1.809-1.7733-3.0586-1.8574zm-19.73 0.001954v12.5h1.8691v-12.5h-1.8691zm24.299 0v12.5h1.8711v-12.5h-1.8711zm-7.7285 1.7402h2.6484c1.185 0 2.1465 0.95996 2.1465 2.1445 0 1.1847-0.96146 2.1445-2.1465 2.1445l-0.039063-0.029296h-2.6094v-4.2598zm-75.639 1.1602-12.025 12.213c0.10681-0.04028 0.21826-0.091299 0.33398-0.15625l15.322-8.416-3.6309-3.6406zm53.697 1.2988c-2.2698 0.1101-4.0527 1.9834-4.0527 4.2559s1.7829 4.1438 4.0527 4.2539c0.8578 0.0144 1.6782-0.3517 2.2402-1h0.060546v0.61133c0 1.63-0.86956 2.5-2.2695 2.5-0.9537-0.0223-1.7999-0.61874-2.1406-1.5098l-1.6309 0.67969c0.6277 1.5268 2.1207 2.5197 3.7715 2.5098 2.19 0 4-1.2897 4-4.4297v-7.5703h-1.7207v0.69922h-0.070312c-0.57-0.6373-1.3851-1.0011-2.2402-1zm36.08 0c-1.391-0.0831-2.6991 0.66722-3.3301 1.9102l1.6602 0.68945c0.334-0.6163 1.0022-0.97702 1.7012-0.91992 0.48-0.056 0.96088 0.084019 1.3379 0.38672 0.376 0.3028 0.61411 0.74422 0.66211 1.2246v0.12891c-0.601-0.318-1.2712-0.48337-1.9512-0.48047-1.79 0-3.5996 1.0005-3.5996 2.8105 0.036 0.7797 0.38475 1.5113 0.96875 2.0293s1.3529 0.7782 2.1309 0.7207c0.959 0.0689 1.8804-0.39054 2.4004-1.1992h0.06055v1h1.7988v-4.8105c0-2.19-1.6591-3.459-3.7891-3.459l-0.05078-0.03125zm-54.52 0.050782c-2.3413 0.010839-4.2342 1.9133-4.2305 4.2559 0.0037 2.3459 1.908 4.2459 4.2539 4.2441 2.3459-0.0018 4.2461-1.9041 4.2461-4.25 0.0165-1.1356-0.42946-2.23-1.2344-3.0312-0.80268-0.79889-1.8934-1.2378-3.0254-1.2188h-0.009766zm9.3203 0c-2.3446 0.010999-4.2378 1.9191-4.2305 4.2637 0.0074 2.3446 1.9113 4.2399 4.2559 4.2363 2.3446-0.0037 4.2441-1.9054 4.2441-4.25 0.0165-1.1356-0.42946-2.23-1.2344-3.0312-0.805-0.8012-1.8997-1.2406-3.0352-1.2188zm21.27 0c-1.1056-0.002101-2.1621 0.45272-2.9199 1.2578-0.7578 0.8052-1.1492 1.8887-1.0801 2.9922-0.0246 1.1293 0.41116 2.2199 1.207 3.0215 0.7958 0.8015 1.8843 1.2451 3.0137 1.2285 1.4209 0.007699 2.7497-0.69932 3.5391-1.8809l-1.4492-1c-0.4402 0.734-1.2339 1.1819-2.0898 1.1797-0.8864 0.0338-1.7039-0.47682-2.0605-1.2891l5.6895-2.3496-0.20898-0.45117c-0.5339-1.5708-1.9827-2.6479-3.6406-2.709zm27.91 0.25 3.3301 7.5801-1.9004 4.209h1.9512l5.1191-11.789h-2.0801l-2.1406 5.4199h-0.0586l-2.2207-5.4199h-2zm-27.85 1.4004c0.6594-0.0434 1.2812 0.30914 1.5801 0.89844l-3.8008 1.5801c-0.0409-0.6248 0.17214-1.2385 0.58984-1.7051 0.4176-0.4665 1.0054-0.74524 1.6309-0.77344zm-12.041 0.019531c0.6461 0.0332 1.2523 0.32485 1.6797 0.81055 0.4273 0.4857 0.6412 1.1244 0.5918 1.7695 0.0551 0.6481-0.15719 1.2899-0.58789 1.7773-0.42877 0.48511-1.037 0.77552-1.6836 0.80274h-0.001953c-1.3356-0.1193-2.3594-1.2388-2.3594-2.5801 0-1.3423 1.0242-2.4622 2.3613-2.5801zm-9.2852 0.011719c0.2552 0.01825 0.50926 0.075245 0.75586 0.17188 0.9863 0.3864 1.638 1.3372 1.6406 2.3965 0.0325 0.6627-0.20435 1.3111-0.65625 1.7969-0.4518 0.4858-1.0808 0.7678-1.7441 0.7832-1.0568 0.0739-2.0511-0.50518-2.5078-1.4609-0.4566-0.9559-0.2841-2.0955 0.4375-2.8711 0.54112-0.58178 1.3086-0.87116 2.0742-0.81641zm-9.3242 0.001953c0.25542 0.0179 0.51091 0.073522 0.75781 0.16992 0.9876 0.3856 1.6397 1.3363 1.6426 2.3965 0.0325 0.6627-0.20435 1.3111-0.65625 1.7969-0.4518 0.4858-1.0808 0.7678-1.7441 0.7832-1.0536 0.0738-2.0455-0.50273-2.5039-1.4551-0.4599-0.9553-0.28886-2.0933 0.43164-2.8711 0.54038-0.58335 1.306-0.87402 2.0723-0.82031zm54.83 2.7266c0.594-0.0146 1.1802 0.13032 1.6992 0.41992-0.129 1.1194-1.0625 1.9726-2.1895 2l-0.04882-0.03125c-0.61 0-1.4609-0.30858-1.4609-1.0586 0-1 1.06-1.3301 2-1.3301z"/></svg>
