<svg width="162" height="38" viewBox="0 0 162 38" fill="none" xmlns="http://www.w3.org/2000/svg">
<path d="M12.4579 20.3071L11.9589 19.1666L11.4599 20.3071L11.4275 20.3849H12.4903L12.4579 20.3071Z" fill="white"/>
<path fill-rule="evenodd" clip-rule="evenodd" d="M5.77695 5.51202H20.5785C23.6698 5.51202 26.1778 8.01352 26.1778 11.1112V25.9128C26.1778 29.004 23.6698 31.512 20.5785 31.512H5.77695C2.68572 31.512 0.177734 29.004 0.177734 25.9128V11.1112C0.177734 8.02 2.68572 5.51202 5.77695 5.51202ZM6.23652 8.23385C6.23652 8.23385 6.22357 7.85798 6.48279 7.84501C6.54111 7.83853 6.61887 7.85797 6.69664 7.90982C8.1094 10.2558 10.4813 11.6297 13.0865 11.6297C15.6917 11.6232 18.07 10.2363 19.4828 7.89038C20.0207 7.7154 19.9688 8.22089 19.9688 8.22089C18.595 10.9038 16.0222 12.2388 13.093 12.2453C10.1638 12.2453 7.61688 10.9233 6.23652 8.23385ZM15.0501 20.6441L15.8342 18.3046H16.4175L17.2016 20.6441L17.9663 18.3046H18.6922L17.4868 21.7069H16.9035L16.1194 19.4711L15.3287 21.7069H14.7455L13.5401 18.3046H14.2854L15.0501 20.6441ZM10.1378 21.7069L11.6607 18.3046V18.2982H12.2829L12.2959 18.3176L13.8058 21.7005H13.067L12.756 20.9941H11.1682L11.1488 21.0459L10.8572 21.7069H10.1378ZM22.7036 21.7069V18.3046H23.3971V21.7069H22.7036ZM2.83423 21.7069V18.3046H3.53414V19.6785H5.12187V18.3046H5.82178V21.7069H5.12187V20.3266H3.53414V21.7069H2.83423ZM9.07501 20.2553V18.2982H9.78139V20.2164C9.78139 21.195 9.23703 21.7523 8.28438 21.7523C7.3447 21.7523 6.80033 21.2079 6.80033 20.2488V18.3046H7.50024V20.2294C7.50024 20.7997 7.77891 21.1042 8.29087 21.1042C8.79635 21.1042 9.07501 20.8126 9.07501 20.2553ZM19.256 21.7069V18.3046H21.7964V18.9268H19.9429V19.6202H21.2196V20.2423H19.9429V21.0848H21.8676V21.7069H19.256Z" fill="white"/>
<path d="M38.178 11.62V8.652H39.228C39.4053 8.29733 39.55 7.86333 39.662 7.35C39.7833 6.82733 39.8767 6.26267 39.942 5.656C40.0167 5.04 40.068 4.41933 40.096 3.794C40.124 3.15933 40.138 2.548 40.138 1.96V0H46.508V8.652H47.698V11.62H46.438V9.8H39.438V11.62H38.178ZM40.628 8.652H45.192V1.148H41.426V2.24C41.426 3.65867 41.3607 4.886 41.23 5.922C41.1087 6.958 40.908 7.868 40.628 8.652Z" fill="white"/>
<path d="M52.1878 9.94C51.5625 9.94 50.9745 9.80467 50.4238 9.534C49.8825 9.254 49.4438 8.834 49.1078 8.274C48.7812 7.714 48.6178 7.00933 48.6178 6.16V5.88C48.6178 5.07733 48.7812 4.40533 49.1078 3.864C49.4438 3.32267 49.8825 2.91667 50.4238 2.646C50.9745 2.37533 51.5625 2.24 52.1878 2.24C52.8225 2.24 53.4105 2.37533 53.9518 2.646C54.4932 2.91667 54.9272 3.32267 55.2538 3.864C55.5898 4.40533 55.7578 5.07733 55.7578 5.88V6.16C55.7578 7.00933 55.5898 7.714 55.2538 8.274C54.9272 8.834 54.4932 9.254 53.9518 9.534C53.4105 9.80467 52.8225 9.94 52.1878 9.94ZM52.1878 8.82C52.5705 8.82 52.9345 8.736 53.2798 8.568C53.6345 8.39067 53.9238 8.106 54.1478 7.714C54.3812 7.322 54.4978 6.804 54.4978 6.16V5.88C54.4978 5.28267 54.3812 4.802 54.1478 4.438C53.9238 4.06467 53.6345 3.794 53.2798 3.626C52.9345 3.44867 52.5705 3.36 52.1878 3.36C51.8145 3.36 51.4505 3.44867 51.0958 3.626C50.7412 3.794 50.4472 4.06467 50.2138 4.438C49.9898 4.802 49.8778 5.28267 49.8778 5.88V6.16C49.8778 6.804 49.9898 7.322 50.2138 7.714C50.4472 8.106 50.7412 8.39067 51.0958 8.568C51.4505 8.736 51.8145 8.82 52.1878 8.82Z" fill="white"/>
<path d="M60.3724 9.94C59.7377 9.94 59.1637 9.80467 58.6504 9.534C58.1464 9.254 57.745 8.834 57.4464 8.274C57.157 7.714 57.0124 7.00933 57.0124 6.16V5.88C57.0124 5.07733 57.171 4.40533 57.4884 3.864C57.8057 3.32267 58.221 2.91667 58.7344 2.646C59.2477 2.37533 59.7937 2.24 60.3724 2.24C60.9604 2.24 61.4644 2.34733 61.8844 2.562C62.3137 2.76733 62.659 3.052 62.9204 3.416C63.1817 3.77067 63.359 4.172 63.4524 4.62H62.1924C62.043 4.26533 61.833 3.96667 61.5624 3.724C61.301 3.48133 60.9044 3.36 60.3724 3.36C60.0084 3.36 59.6677 3.44867 59.3504 3.626C59.033 3.794 58.7717 4.06467 58.5664 4.438C58.3704 4.802 58.2724 5.28267 58.2724 5.88V6.16C58.2724 6.79467 58.3704 7.308 58.5664 7.7C58.7717 8.092 59.033 8.37667 59.3504 8.554C59.6677 8.73133 60.0084 8.82 60.3724 8.82C60.8297 8.82 61.2124 8.708 61.5204 8.484C61.8377 8.26 62.0617 7.952 62.1924 7.56H63.4524C63.3404 8.04533 63.1397 8.47 62.8504 8.834C62.561 9.18867 62.2064 9.464 61.7864 9.66C61.3664 9.84667 60.895 9.94 60.3724 9.94Z" fill="white"/>
<path d="M66.8253 9.8V3.472H64.2913V2.38H70.5913V3.472H68.0573V9.8H66.8253Z" fill="white"/>
<path d="M73.248 12.74C73.108 12.74 72.968 12.726 72.828 12.698V11.578C72.968 11.606 73.108 11.62 73.248 11.62C73.4347 11.62 73.5887 11.5733 73.71 11.48C73.8407 11.396 73.9713 11.2233 74.102 10.962C74.2327 10.7007 74.3913 10.3133 74.578 9.8L71.428 2.38H72.8L75.208 8.4L77.392 2.38H78.708L75.908 9.8C75.6467 10.5 75.3947 11.0647 75.152 11.494C74.9187 11.9233 74.6527 12.236 74.354 12.432C74.0647 12.6373 73.696 12.74 73.248 12.74Z" fill="white"/>
<path d="M80.102 9.8V2.38H86.262V9.8H85.03V3.472H81.334V9.8H80.102Z" fill="white"/>
<path d="M88.4965 9.8V2.38H89.7285V5.474H93.5645V2.38H94.7965V9.8H93.5645V6.566H89.7285V9.8H88.4965Z" fill="white"/>
<path d="M100.121 9.94C99.4961 9.94 98.9081 9.80467 98.3574 9.534C97.8161 9.254 97.3774 8.834 97.0414 8.274C96.7148 7.714 96.5514 7.00933 96.5514 6.16V5.88C96.5514 5.07733 96.7148 4.40533 97.0414 3.864C97.3774 3.32267 97.8161 2.91667 98.3574 2.646C98.9081 2.37533 99.4961 2.24 100.121 2.24C100.756 2.24 101.344 2.37533 101.885 2.646C102.427 2.91667 102.861 3.32267 103.187 3.864C103.523 4.40533 103.691 5.07733 103.691 5.88V6.16C103.691 7.00933 103.523 7.714 103.187 8.274C102.861 8.834 102.427 9.254 101.885 9.534C101.344 9.80467 100.756 9.94 100.121 9.94ZM100.121 8.82C100.504 8.82 100.868 8.736 101.213 8.568C101.568 8.39067 101.857 8.106 102.081 7.714C102.315 7.322 102.431 6.804 102.431 6.16V5.88C102.431 5.28267 102.315 4.802 102.081 4.438C101.857 4.06467 101.568 3.794 101.213 3.626C100.868 3.44867 100.504 3.36 100.121 3.36C99.7481 3.36 99.3841 3.44867 99.0294 3.626C98.6748 3.794 98.3808 4.06467 98.1474 4.438C97.9234 4.802 97.8114 5.28267 97.8114 5.88V6.16C97.8114 6.804 97.9234 7.322 98.1474 7.714C98.3808 8.106 98.6748 8.39067 99.0294 8.568C99.3841 8.736 99.7481 8.82 100.121 8.82Z" fill="white"/>
<path d="M108.936 9.8V2.38H112.156C112.772 2.38 113.276 2.46867 113.668 2.646C114.06 2.814 114.349 3.052 114.536 3.36C114.723 3.65867 114.816 4.00867 114.816 4.41C114.816 4.73667 114.709 5.04933 114.494 5.348C114.289 5.63733 114.023 5.838 113.696 5.95C114.153 6.062 114.499 6.27667 114.732 6.594C114.975 6.902 115.096 7.266 115.096 7.686C115.096 8.33 114.881 8.84333 114.452 9.226C114.023 9.60867 113.351 9.8 112.436 9.8H108.936ZM110.168 8.708H112.436C112.959 8.708 113.327 8.61467 113.542 8.428C113.757 8.24133 113.864 7.97533 113.864 7.63C113.864 7.27533 113.757 7.00467 113.542 6.818C113.327 6.622 112.959 6.524 112.436 6.524H110.168V8.708ZM110.168 5.516H112.156C112.688 5.516 113.057 5.42267 113.262 5.236C113.477 5.04933 113.584 4.79267 113.584 4.466C113.584 4.158 113.477 3.91533 113.262 3.738C113.057 3.56067 112.688 3.472 112.156 3.472H110.168V5.516Z" fill="white"/>
<path d="M38.178 32.382L44.008 16.982H46.648L52.478 32.382H49.662L48.364 28.906H42.116L40.818 32.382H38.178ZM42.974 26.618H47.506L45.262 20.282L42.974 26.618Z" fill="white"/>
<path d="M54.3411 36.782V20.722H56.5851V22.68C56.9371 22.0053 57.4578 21.47 58.1471 21.074C58.8511 20.678 59.6431 20.48 60.5231 20.48C62.0484 20.48 63.2511 20.9567 64.1311 21.91C65.0111 22.8633 65.4511 24.3007 65.4511 26.222V26.662C65.4511 27.982 65.2458 29.0893 64.8351 29.984C64.4244 30.864 63.8524 31.524 63.1191 31.964C62.3858 32.404 61.5204 32.624 60.5231 32.624C59.6871 32.624 58.9244 32.4407 58.2351 32.074C57.5458 31.7073 57.0545 31.194 56.7611 30.534V36.782H54.3411ZM59.9511 30.512C60.8604 30.512 61.5938 30.1967 62.1511 29.566C62.7085 28.9353 62.9871 27.9673 62.9871 26.662V26.222C62.9871 24.99 62.7158 24.0807 62.1731 23.494C61.6304 22.8927 60.8898 22.592 59.9511 22.592C59.4084 22.592 58.8878 22.7093 58.3891 22.944C57.9051 23.1787 57.5091 23.5233 57.2011 23.978C56.9078 24.4327 56.7611 24.9973 56.7611 25.672V27.212C56.7611 27.9453 56.9078 28.5613 57.2011 29.06C57.5091 29.544 57.9051 29.9107 58.3891 30.16C58.8731 30.3947 59.3938 30.512 59.9511 30.512Z" fill="white"/>
<path d="M67.8763 36.782V20.722H70.1203V22.68C70.4723 22.0053 70.9929 21.47 71.6823 21.074C72.3863 20.678 73.1783 20.48 74.0583 20.48C75.5836 20.48 76.7863 20.9567 77.6663 21.91C78.5463 22.8633 78.9863 24.3007 78.9863 26.222V26.662C78.9863 27.982 78.7809 29.0893 78.3703 29.984C77.9596 30.864 77.3876 31.524 76.6543 31.964C75.9209 32.404 75.0556 32.624 74.0583 32.624C73.2223 32.624 72.4596 32.4407 71.7703 32.074C71.0809 31.7073 70.5896 31.194 70.2963 30.534V36.782H67.8763ZM73.4863 30.512C74.3956 30.512 75.1289 30.1967 75.6863 29.566C76.2436 28.9353 76.5223 27.9673 76.5223 26.662V26.222C76.5223 24.99 76.2509 24.0807 75.7083 23.494C75.1656 22.8927 74.4249 22.592 73.4863 22.592C72.9436 22.592 72.4229 22.7093 71.9243 22.944C71.4403 23.1787 71.0443 23.5233 70.7363 23.978C70.4429 24.4327 70.2963 24.9973 70.2963 25.672V27.212C70.2963 27.9453 70.4429 28.5613 70.7363 29.06C71.0443 29.544 71.4403 29.9107 71.9243 30.16C72.4083 30.3947 72.9289 30.512 73.4863 30.512Z" fill="white"/>
<path d="M93.5114 32.624C92.1034 32.624 90.8788 32.3307 89.8374 31.744C88.7961 31.1573 87.9894 30.2847 87.4174 29.126C86.8601 27.9527 86.5814 26.508 86.5814 24.792V24.352C86.5814 23.1347 86.7428 22.0567 87.0654 21.118C87.4028 20.1793 87.8721 19.3873 88.4734 18.742C89.0894 18.082 89.8228 17.5833 90.6734 17.246C91.5241 16.9087 92.4701 16.74 93.5114 16.74C94.3034 16.74 95.0368 16.85 95.7114 17.07C96.4008 17.2753 97.0094 17.5833 97.5374 17.994C98.0654 18.39 98.5054 18.896 98.8574 19.512C99.2241 20.1133 99.4954 20.81 99.6714 21.602H96.8114C96.6061 20.9567 96.3274 20.4507 95.9754 20.084C95.6234 19.7173 95.2348 19.4607 94.8094 19.314C94.3841 19.1527 93.9514 19.072 93.5114 19.072C92.6901 19.072 91.9641 19.2627 91.3334 19.644C90.7028 20.0253 90.2114 20.6047 89.8594 21.382C89.5221 22.1593 89.3534 23.1493 89.3534 24.352V24.792C89.3534 25.7307 89.4561 26.5447 89.6614 27.234C89.8668 27.9233 90.1528 28.4953 90.5194 28.95C90.9008 29.4047 91.3408 29.742 91.8394 29.962C92.3528 30.182 92.9101 30.292 93.5114 30.292C94.2741 30.292 94.9341 30.16 95.4914 29.896C96.0488 29.632 96.4961 29.2213 96.8334 28.664C97.1708 28.1067 97.3761 27.4027 97.4494 26.552H93.9514V24.352H100.001V25.232C100.001 26.464 99.8474 27.542 99.5394 28.466C99.2461 29.39 98.8208 30.16 98.2634 30.776C97.7061 31.392 97.0241 31.854 96.2174 32.162C95.4254 32.47 94.5234 32.624 93.5114 32.624Z" fill="white"/>
<path d="M106.048 32.624C105.212 32.624 104.493 32.47 103.892 32.162C103.305 31.8393 102.858 31.3993 102.55 30.842C102.242 30.2847 102.088 29.6613 102.088 28.972C102.088 27.8133 102.433 26.9553 103.122 26.398C103.811 25.826 104.823 25.54 106.158 25.54H109.788V24.902C109.788 24.022 109.59 23.4207 109.194 23.098C108.813 22.7607 108.204 22.592 107.368 22.592C106.62 22.592 106.07 22.7093 105.718 22.944C105.366 23.1787 105.161 23.5013 105.102 23.912H102.748C102.792 23.2373 103.005 22.6433 103.386 22.13C103.767 21.6167 104.303 21.2133 104.992 20.92C105.696 20.6267 106.525 20.48 107.478 20.48C108.431 20.48 109.26 20.6267 109.964 20.92C110.683 21.2133 111.233 21.6753 111.614 22.306C112.01 22.922 112.208 23.7433 112.208 24.77V29.412C112.208 30.028 112.215 30.5707 112.23 31.04C112.245 31.4947 112.281 31.942 112.34 32.382H110.14C110.096 32.0447 110.059 31.7587 110.03 31.524C110.015 31.2893 110.008 30.996 110.008 30.644C109.729 31.1867 109.245 31.656 108.556 32.052C107.881 32.4333 107.045 32.624 106.048 32.624ZM106.708 30.512C107.265 30.512 107.771 30.4167 108.226 30.226C108.695 30.0353 109.069 29.7493 109.348 29.368C109.641 28.9867 109.788 28.5247 109.788 27.982V27.344H106.598C105.982 27.344 105.483 27.476 105.102 27.74C104.735 28.004 104.552 28.3927 104.552 28.906C104.552 29.39 104.721 29.7787 105.058 30.072C105.41 30.3653 105.96 30.512 106.708 30.512Z" fill="white"/>
<path d="M118.925 32.492C118.089 32.492 117.4 32.3747 116.857 32.14C116.329 31.8907 115.933 31.4873 115.669 30.93C115.42 30.358 115.295 29.6027 115.295 28.664V16.982H117.715V28.488C117.715 29.2067 117.832 29.7053 118.067 29.984C118.302 30.248 118.734 30.38 119.365 30.38C119.526 30.38 119.666 30.38 119.783 30.38C119.9 30.3653 120.018 30.3507 120.135 30.336V32.426C120.062 32.4407 119.944 32.4553 119.783 32.47C119.636 32.4847 119.482 32.492 119.321 32.492C119.174 32.492 119.042 32.492 118.925 32.492Z" fill="white"/>
<path d="M126.079 32.492C125.243 32.492 124.554 32.3747 124.011 32.14C123.483 31.8907 123.087 31.4873 122.823 30.93C122.574 30.358 122.449 29.6027 122.449 28.664V16.982H124.869V28.488C124.869 29.2067 124.986 29.7053 125.221 29.984C125.456 30.248 125.888 30.38 126.519 30.38C126.68 30.38 126.82 30.38 126.937 30.38C127.054 30.3653 127.172 30.3507 127.289 30.336V32.426C127.216 32.4407 127.098 32.4553 126.937 32.47C126.79 32.4847 126.636 32.492 126.475 32.492C126.328 32.492 126.196 32.492 126.079 32.492Z" fill="white"/>
<path d="M134.339 32.624C133.312 32.624 132.366 32.4113 131.501 31.986C130.635 31.546 129.939 30.886 129.411 30.006C128.883 29.126 128.619 28.0113 128.619 26.662V26.222C128.619 24.9313 128.868 23.8607 129.367 23.01C129.88 22.1593 130.555 21.5287 131.391 21.118C132.227 20.6927 133.136 20.48 134.119 20.48C135.893 20.48 137.25 20.9567 138.189 21.91C139.142 22.8633 139.619 24.2273 139.619 26.002V27.234H131.083C131.112 28.026 131.281 28.664 131.589 29.148C131.897 29.632 132.293 29.984 132.777 30.204C133.261 30.4093 133.781 30.512 134.339 30.512C135.175 30.512 135.783 30.38 136.165 30.116C136.561 29.852 136.832 29.5073 136.979 29.082H139.399C139.164 30.2407 138.585 31.1207 137.661 31.722C136.751 32.3233 135.644 32.624 134.339 32.624ZM134.229 22.592C133.686 22.592 133.18 22.6873 132.711 22.878C132.241 23.0687 131.86 23.3693 131.567 23.78C131.273 24.1907 131.112 24.7407 131.083 25.43H137.199C137.184 24.6967 137.045 24.1247 136.781 23.714C136.517 23.3033 136.165 23.0173 135.725 22.856C135.285 22.68 134.786 22.592 134.229 22.592Z" fill="white"/>
<path d="M142.04 32.382V20.722H144.284V22.702C144.446 22.2913 144.666 21.9247 144.944 21.602C145.238 21.2647 145.59 20.9933 146 20.788C146.426 20.5827 146.902 20.48 147.43 20.48C147.797 20.48 148.068 20.4947 148.244 20.524C148.435 20.5533 148.567 20.5827 148.64 20.612V22.812C148.391 22.7387 148.164 22.6873 147.958 22.658C147.753 22.614 147.504 22.592 147.21 22.592C146.58 22.592 146.059 22.7387 145.648 23.032C145.238 23.3107 144.937 23.6773 144.746 24.132C144.556 24.572 144.46 25.0487 144.46 25.562V32.382H142.04Z" fill="white"/>
<path d="M152.912 37.024C152.692 37.024 152.472 37.002 152.252 36.958V34.846C152.472 34.89 152.692 34.912 152.912 34.912C153.235 34.912 153.499 34.8313 153.704 34.67C153.91 34.5233 154.1 34.2667 154.276 33.9C154.452 33.5333 154.658 33.0273 154.892 32.382L149.942 20.722H152.582L156.146 29.742L159.358 20.722H161.822L157.312 32.382C156.887 33.4673 156.484 34.3547 156.102 35.044C155.721 35.7333 155.288 36.232 154.804 36.54C154.32 36.8627 153.69 37.024 152.912 37.024Z" fill="white"/>
</svg>
