<?xml version="1.0" encoding="UTF-8"?>
<svg width="116" height="28" version="1.1" viewBox="0 0 116 28" xmlns="http://www.w3.org/2000/svg"><path d="m61.434 0.013672c-0.90796 0-1.6745 0.31804-2.2773 0.94336-0.61031 0.61281-0.91992 1.3859-0.91992 2.2988-0.015007 0.85544 0.31961 1.693 0.91992 2.3008 0.60531 0.62532 1.3713 0.94336 2.2793 0.94336s1.6726-0.31499 2.2754-0.94531c0.60031-0.61031 0.91182-1.3834 0.92187-2.2988 0-0.89296-0.31156-1.666-0.92187-2.2988-0.61531-0.62532-1.3794-0.94336-2.2773-0.94336zm-27.014 0.0039062c-0.90046 0-1.6712 0.31187-2.2891 0.92969-0.62532 0.61532-0.94336 1.3926-0.94336 2.3105 0 0.91797 0.31804 1.6972 0.94336 2.3125 0.63032 0.61782 1.4011 0.92969 2.2891 0.92969 0.92547 0 1.6901-0.30961 2.2754-0.91992 0.51526-0.51526 0.77539-1.2132 0.77539-2.0762 0-0.15008-0.022402-0.31312-0.044922-0.4707l-0.011719-0.083984h-3.1074v0.93555h2.1738c-0.055027 0.44273-0.21081 0.79284-0.46094 1.043-0.42272 0.42522-0.96405 0.63867-1.6094 0.63867-0.60531 0-1.1331-0.21345-1.5684-0.63867-0.43772-0.42772-0.66211-0.98817-0.66211-1.666 0-0.67785 0.22438-1.2383 0.66211-1.666 0.43522-0.42522 0.96305-0.64062 1.5684-0.64062 0.67785 1e-8 1.1896 0.2225 1.5723 0.67773l0.070312 0.082031 0.67774-0.66406-0.060547-0.074219c-0.24262-0.28765-0.56995-0.52272-0.97266-0.69531-0.41021-0.17759-0.83712-0.26367-1.2773-0.26367zm3.957 0.13281v6.207h3.7109v-0.93555h-2.7402v-1.7051h2.4727v-0.92578h-2.4727v-1.7051h2.7402v-0.93555h-3.7109zm4.3242 0v0.93555h1.6836v5.2812h0.9668v-5.2812h1.6836v-0.93555h-4.334zm7.123 0v6.2168h0.96875v-6.2168h-0.96875zm1.7598 0v0.93555h1.6816v5.2812h0.96875v-5.2812h1.6836v-0.93555h-4.334zm13.932 0v6.2148h0.95703v-3.8477l-0.02539-0.8457 2.9355 4.6953h0.95703v-6.2168h-0.9668v3.627l0.023437 0.8418-2.7578-4.4219-0.03125-0.046875h-1.0918zm-63.998 0.34961 12.219 12.244 3.6348-3.6875-15.32-8.3867c-0.16362-0.089629-0.34808-0.14553-0.5332-0.16992zm-0.90234 0.15234c-0.36219 0.21498-0.61873 0.65155-0.61523 1.3652l0.11328 22.602c0.003322 0.65249 0.19857 1.1553 0.56445 1.3887l12.539-12.732-12.6-12.623h-0.0019531zm60.822 0.30078c0.60781 0 1.1356 0.21767 1.5684 0.65039 0.42272 0.42272 0.63867 0.98145 0.63867 1.6543 0 0.67284-0.21541 1.231-0.64062 1.6562-0.42772 0.43772-0.94054 0.65039-1.5684 0.65039-0.61031 0-1.1356-0.21767-1.5684-0.65039-0.42272-0.42272-0.63477-0.98341-0.63477-1.6562 0-0.67284 0.21541-1.2291 0.64062-1.6543 0.42522-0.43772 0.93663-0.65039 1.5645-0.65039zm-43.391 8.4727-3.7852 3.8457 3.7871 3.7969 5.2129-2.8613c0.62744-0.34449 1.2845-1.225 0-1.9277l-5.2148-2.8535zm19.672 0.88672c-3.6544 0-6.7207 2.9767-6.7207 6.6211 0 3.6544 3.0638 6.6211 6.7207 6.6211 1.9735 0 3.4544-0.64571 4.625-1.8613 1.1931-1.1931 1.5703-2.8762 1.5703-4.2344 0-0.42272-0.032073-0.80429-0.099609-1.127h-6.1191c0.002401-0.0024 0.003907 0.021485 0.003907 0.021485v1.8047h4.334c-0.13257 1.013-0.46771 1.7607-0.98047 2.2734-0.63532 0.63532-1.6154 1.3262-3.3438 1.3262-2.6639 0-4.748-2.1506-4.748-4.8145 0-2.6639 2.0842-4.8145 4.748-4.8145 1.4382 0 2.4858 0.5676 3.2637 1.293l1.2812-1.2812c-1.0806-1.0355-2.5191-1.8281-4.5352-1.8281zm34.973 0.4707v12.535h1.873v-12.535h-1.873zm14.744 0v12.535h1.875v-4.7461h2.6074c2.0736 0 4.1133-1.5044 4.1133-3.8906 0-2.3862-2.0317-3.8984-4.1152-3.8984h-4.4805zm9.6289 0v12.535h1.873v-12.535h-1.873zm-7.7578 1.7344h2.6641c1.4032 0 2.1973 1.1593 2.1973 2.1523 0 0.983-0.80405 2.1504-2.1973 2.1504h-2.6641v-4.3027zm-75.566 1.2812-12.023 12.213c0.10681-0.04028 0.21826-0.0913 0.33398-0.15625l15.322-8.416-3.6309-3.6406h-0.001954zm89.799 1.2285c-1.3607 0-2.7634 0.60284-3.3438 1.916l1.6602 0.68945c0.35768-0.69035 1.0142-0.92383 1.707-0.92383 0.9705 0 1.9502 0.5797 1.9727 1.6152v0.13281c-0.33516-0.1901-1.0707-0.48047-1.9512-0.48047-1.7934 0-3.6113 0.97992-3.6113 2.8184 0 1.6834 1.471 2.7637 3.1094 2.7637 1.2582 0 1.9501-0.56677 2.3828-1.2246h0.06836v0.9707h1.8066v-4.8027c0-2.2361-1.6622-3.4746-3.8008-3.4746zm-36.242 0.011718c-2.1286 0-4.0898 1.875-4.0898 4.2812 0 2.3962 1.9512 4.2461 4.0898 4.2461 1.013 0 1.8273-0.45794 2.25-0.9707h0.068359v0.61328c0 1.6283-0.87022 2.5059-2.2734 2.5059-1.1481 0-1.8622-0.82527-2.1523-1.5156l-1.627 0.67969c0.46774 1.1256 1.7143 2.5195 3.7754 2.5195 2.1961 0 4.0586-1.2932 4.0586-4.4473v-7.6562h-1.7715v0.70312h-0.009766-0.068359c-0.42272-0.50276-1.2245-0.95898-2.25-0.95898zm12.193 0c-2.1961 0-4.0215 1.7288-4.0215 4.2676 0 2.3962 1.8056 4.2676 4.2344 4.2676 1.951 0 3.085-1.1942 3.5527-1.8945l-1.4473-0.96875c-0.48025 0.71286-1.1477 1.1797-2.0957 1.1797-0.95798 0-1.629-0.43503-2.0742-1.293l5.7051-2.3633c0 0.0024-0.19922-0.47656-0.19922-0.47656-0.35768-0.95799-1.4382-2.7187-3.6543-2.7188zm-30.682 0.009766c-2.3637 0-4.2793 1.7938-4.2793 4.2676 0 2.4513 1.9281 4.2676 4.2793 4.2676 2.3637 0 4.2793-1.8063 4.2793-4.2676 0-2.4738-1.9181-4.2676-4.2793-4.2676zm9.3379 0c-2.3637 0-4.2793 1.7938-4.2793 4.2676 0 2.4513 1.9281 4.2676 4.2793 4.2676 2.3637 0 4.2793-1.8063 4.2793-4.2676 0-2.4738-1.9156-4.2676-4.2793-4.2676zm49.318 0.24609 3.3438 7.6016-1.9062 4.2246h1.9512l5.1445-11.826h-2.0703l-2.1504 5.4375h-0.06836l-2.2285-5.4375h-2.0156zm-27.91 1.4023c0.74787 0 1.3714 0.36902 1.584 0.9043l-3.8125 1.582c-0.045-1.6483 1.2805-2.4863 2.2285-2.4863zm-30.746 0.023437c1.2932 0 2.4062 1.0477 2.4062 2.5859 0 1.5258-1.1131 2.5859-2.4062 2.5859-1.2932 0-2.4062-1.0702-2.4062-2.5859 0-1.5383 1.1156-2.5859 2.4062-2.5859zm9.3379 0c1.2932 0 2.4062 1.0477 2.4062 2.5859 0.0024 1.5258-1.1131 2.5859-2.4062 2.5859-1.2932 0-2.4062-1.0702-2.4062-2.5859 0-1.5383 1.1156-2.5859 2.4062-2.5859zm9.3164 0.001953c1.2807 0 2.2754 1.1044 2.2754 2.5977 0.01251 1.4933-0.99223 2.5723-2.2754 2.5723-1.2932 0-2.373-1.079-2.373-2.5723 0-1.5058 1.0799-2.5977 2.373-2.5977zm36.354 2.7617c0.82541 0 1.2168 0.17675 1.707 0.42188-0.13501 1.1256-1.0857 1.9763-2.2188 1.9863-0.61282 0-1.4707-0.29992-1.4707-1.0703 0-0.9705 1.0695-1.3379 1.9824-1.3379z"/></svg>
