<?xml version="1.0" encoding="UTF-8"?>
<svg width="100" height="28" version="1.1" viewBox="0 0 100 28" xmlns="http://www.w3.org/2000/svg"><path d="m49.123 2.4453v6.2617h0.88867v-6.2617h-0.88867zm15.57 0v2.4746h-0.066406a1.484 1.484 0 0 0-1.3809-0.79102c-1.1377 1e-7 -1.8691 0.90137-1.8691 2.3242 0 1.4263 0.72363 2.3282 1.8691 2.3281a1.5628 1.5628 0 0 0 1.4141-0.78516h0.070313v0.71094h0.85156v-6.2617h-0.88867zm21.039 0v6.2617h0.88867v-2.6309a1.0519 1.0519 0 0 1 1.1348-1.1406c0.62789 0 0.96289 0.36474 0.96289 1.084v2.6875h0.88867v-2.9082a1.4834 1.4834 0 0 0-1.5508-1.6777 1.3856 1.3856 0 0 0-1.373 0.80664h-0.070313v-2.4824h-0.88086zm-72.553 0.28516a4.9575 4.9575 0 0 0-3.207 1.6582 4.6363 4.6363 0 0 0-1.1445 3.3613 4.099 4.099 0 0 0 3.2383-1.5293 4.8725 4.8725 0 0 0 1.1133-3.4902zm14.83 0.0039062a2.6396 2.6396 0 0 0-0.1543 0.0058594h-2.1562v5.9668h2.1562c1.7774 0 2.8066-1.0957 2.8066-3.002a2.6396 2.6396 0 0 0-2.6523-2.9707zm54.645 0.34961v1.1406h-0.71484v0.74805h0.71484v2.543c0 0.86816 0.39258 1.2168 1.3809 1.2168a2.9155 2.9155 0 0 0 0.48438-0.046875v-0.73828a2.9666 2.9666 0 0 1-0.33984 0.019531c-0.44238 0-0.63672-0.20605-0.63672-0.67773v-2.3164h0.97656v-0.74805h-0.97656v-1.1406h-0.88867zm-54.771 0.49609a1.881 1.881 0 0 1 1.8359 2.1367 1.8759 1.8759 0 0 1-1.9668 2.1465h-1.125v-4.2793h1.125a1.881 1.881 0 0 1 0.13086-0.0039063zm18.369 0.5332a1.4646 1.4646 0 0 0-0.10352 0.0039063 1.348 1.348 0 0 0-1.3438 0.80273h-0.066407v-0.71484h-0.85547v4.502h0.88867v-2.6348a1.0329 1.0329 0 0 1 1.0742-1.1406c0.65723 0 0.97266 0.36035 0.97266 1.084v2.6914h0.88867v-2.916a1.4646 1.4646 0 0 0-1.4551-1.6777zm30.816 0a1.4646 1.4646 0 0 0-0.10547 0.0039063 1.348 1.348 0 0 0-1.3438 0.80273h-0.066407v-0.71484h-0.85547v4.502h0.88867v-2.6348a1.0329 1.0329 0 0 1 1.0762-1.1406c0.65723 0 0.9707 0.36035 0.9707 1.084v2.6914h0.88867v-2.916a1.4646 1.4646 0 0 0-1.4531-1.6777zm-43.236 0.0039063a2.1332 2.1332 0 0 0-2.123 2.3359 2.1336 2.1336 0 1 0 4.248 0 2.1332 2.1332 0 0 0-2.125-2.3359zm19.537 0a2.1335 2.1335 0 0 0-2.123 2.3359 2.1338 2.1338 0 1 0 4.248 0 2.1335 2.1335 0 0 0-2.125-2.3359zm5.0742 0c-1.0215 0-1.749 0.49609-1.8398 1.2695h0.85938c0.09864-0.31836 0.44336-0.5 0.93945-0.5 0.60742 0 0.92188 0.26855 0.92188 0.74414v0.38867l-1.2207 0.070313c-1.0713 0.06641-1.6738 0.5332-1.6738 1.3438a1.3603 1.3603 0 0 0 1.5 1.3477 1.515 1.515 0 0 0 1.3535-0.70703h0.070313v0.63281h0.85547v-3.0762c0-0.95118-0.63672-1.5137-1.7656-1.5137zm12.939 0a2.1332 2.1332 0 0 0-2.125 2.3359 2.1336 2.1336 0 1 0 4.248 0 2.1332 2.1332 0 0 0-2.123-2.3359zm21.451 0a2.0768 2.0768 0 0 0-2.0762 2.3535 2.0453 2.0453 0 0 0 2.0801 2.3223 1.828 1.828 0 0 0 1.9512-1.3008l-0.85547-0.0019531a1.0793 1.0793 0 0 1-1.0703 0.54688 1.1902 1.1902 0 0 1-1.1992-1.2891v-0.050781h3.1797v-0.31055c0-1.414-0.75684-2.2695-2.0098-2.2695zm-56.236 0.087891 1.2422 4.502h0.91211l0.92774-3.3164h0.070312l0.92969 3.3164h0.92187l1.2363-4.502h-0.88867l-0.80274 3.4355h-0.070312l-0.92578-3.4355h-0.85156l-0.92578 3.4355h-0.066406l-0.80664-3.4355h-0.90234zm56.232 0.66797a1.0865 1.0865 0 0 1 1.1074 1.168h-2.2734a1.1516 1.1516 0 0 1 1.166-1.168zm-58.996 0.033203c0.76952 0 1.209 0.5708 1.209 1.5469 0 0.97998-0.43944 1.5508-1.209 1.5508-0.77243 0-1.207-0.56689-1.207-1.5508 0-0.97608 0.43457-1.5469 1.207-1.5469zm19.537 0c0.76952 0 1.209 0.5708 1.209 1.5469 0 0.97998-0.43945 1.5508-1.209 1.5508-0.77243 0-1.207-0.56689-1.207-1.5508 1e-6 -0.97608 0.43457-1.5469 1.207-1.5469zm18.012 0c0.76952 0 1.209 0.5708 1.209 1.5469 0 0.97998-0.43945 1.5508-1.209 1.5508-0.77243 0-1.207-0.56689-1.207-1.5508 0-0.97608 0.43457-1.5469 1.207-1.5469zm-7.8848 0.021484c0.74414 0 1.2109 0.59082 1.2109 1.5293 0 0.94288-0.46194 1.5273-1.2109 1.5273-0.75293 0-1.2031-0.57617-1.2031-1.5312 0-0.94727 0.45504-1.5254 1.2031-1.5254zm-4.1738 1.7441v0.37695a1.0615 1.0615 0 0 1-1.166 0.98438c-0.48344 0-0.83594-0.23536-0.83594-0.64062 0-0.39697 0.28222-0.60889 0.90234-0.65039l1.0996-0.070312zm-46.477 1.3105c-1.5656-0.015475-3.0454 1.0234-3.8477 1.0234-0.87227 0-2.1906-0.98817-3.6094-0.95898a5.3153 5.3153 0 0 0-4.4727 2.7285c-1.934 3.3484-0.49128 8.268 1.3613 10.975 0.9269 1.3254 2.0103 2.8064 3.4277 2.7539 1.3871-0.05753 1.9058-0.88476 3.5801-0.88476 1.6588 0 2.1436 0.88494 3.5898 0.85156 1.4884-0.02416 2.4259-1.332 3.3203-2.6699a10.962 10.962 0 0 0 1.5195-3.0918 4.782 4.782 0 0 1-2.9199-4.3984 4.9488 4.9488 0 0 1 2.3574-4.1523 5.0657 5.0657 0 0 0-3.9922-2.1582c-0.10495-0.011016-0.21008-0.016546-0.31445-0.017578zm51.834 3.8984c-2.6514 0-4.5176 1.4707-4.5176 3.6133 0 1.7305 1.0576 2.7969 3.3379 3.3477l1.6094 0.38867c1.6094 0.39552 2.2891 0.97168 2.2891 1.9355 0 1.1104-1.127 1.9199-2.6934 1.9199-1.6348-1e-6 -2.831-0.80957-2.9688-2.041h-1.9023c0.12012 2.2461 1.9805 3.668 4.7344 3.668 2.9434 0 4.793-1.4561 4.793-3.7793 0-1.8164-1.0576-2.8389-3.6055-3.4414l-1.3691-0.33594c-1.6006-0.39547-2.2539-0.91309-2.2539-1.791 0-1.1016 1.0244-1.8574 2.5215-1.8574 1.4971 1e-6 2.5205 0.74707 2.6328 1.9863h1.877c-0.06055-2.1426-1.8604-3.6133-4.4844-3.6133zm-35.742 0.20703-4.4844 12.418h2.0059l1.1367-3.3574h4.7324l1.1367 3.3574h2.0391l-4.4844-12.418h-2.082zm42.568 1.2207v2.1426h-1.3164v1.4727h1.3164v5.1895c0 1.7559 0.71388 2.4434 2.5469 2.4434a5.1035 5.1035 0 0 0 1.0332-0.085938v-1.4629a5.8075 5.8075 0 0 1-0.61133 0.042969c-0.75683 0-1.1016-0.36133-1.1016-1.1367v-4.9902h1.7207v-1.4727h-1.7207v-2.1426h-1.8672zm-41.57 0.84375h0.052734l1.8496 5.4473h-3.752l1.8496-5.4473zm50.449 1.1875c-2.6162 0-4.293 1.79-4.293 4.6387 0 2.8564 1.6601 4.6387 4.293 4.6387 2.6338 0 4.2949-1.7822 4.2949-4.6387 0-2.8487-1.6699-4.6387-4.2949-4.6387zm15.049 0c-2.5469 0-4.1895 1.8418-4.1895 4.6816 0 2.831 1.6338 4.5957 4.2676 4.5957 2.0478-1e-6 3.6484-1.1279 3.8984-2.7715h-1.7637a2.0483 2.0483 0 0 1-2.0918 1.2734 2.358 2.358 0 0 1-2.4355-2.5645v-0.11133h6.3945v-0.63672c0-2.7451-1.5752-4.4668-4.0801-4.4668zm-54.061 0.017578a3.2116 3.2116 0 0 0-2.8828 1.5996h-0.033204v-1.5059h-1.7988v12.049h1.8574v-4.4844h0.042969a3.0693 3.0693 0 0 0 2.8496 1.584c2.2725 0 3.7773-1.8076 3.7773-4.6211 0-2.8057-1.5147-4.6211-3.8125-4.6211zm9.9648 0a3.2116 3.2116 0 0 0-2.8828 1.5996h-0.033203v-1.5059h-1.7988v12.049h1.8574v-4.4844h0.042969a3.0693 3.0693 0 0 0 2.8496 1.584c2.2725 0 3.7773-1.8076 3.7773-4.6211 0-2.8057-1.5146-4.6211-3.8125-4.6211zm38.867 0a2.1594 2.1594 0 0 0-2.1777 1.6348h-0.042969v-1.541h-1.7715v9.0547h1.8574v-5.3711a1.8726 1.8726 0 0 1 1.9375-2.082 2.5979 2.5979 0 0 1 0.83398 0.11133v-1.7383a2.8662 2.8662 0 0 0-0.63672-0.068359zm5.2285 1.4883a2.1773 2.1773 0 0 1 2.2207 2.2988h-4.5254a2.292 2.292 0 0 1 2.3047-2.2988zm-15.049 0.025391c1.5059 0 2.4023 1.1533 2.4023 3.1074 0 1.9619-0.89648 3.1074-2.4023 3.1074s-2.4004-1.1455-2.4004-3.1074c0-1.9453 0.89453-3.1074 2.4004-3.1074zm-39.502 0.070312c1.4453 0 2.3926 1.2041 2.3926 3.0371 0 1.8496-0.94726 3.0469-2.3926 3.0469-1.4199 0-2.375-1.2227-2.375-3.0469 0-1.8076 0.95508-3.0371 2.375-3.0371zm9.9648 0c1.4453 0 2.3926 1.2041 2.3926 3.0371 0 1.8496-0.94726 3.0469-2.3926 3.0469-1.4199 0-2.375-1.2227-2.375-3.0469 0-1.8076 0.95508-3.0371 2.375-3.0371z"/></svg>
