<?xml version="1.0" encoding="UTF-8"?>
<svg width="83" height="20" fill="none" version="1.1" viewBox="0 0 83 20" xmlns="http://www.w3.org/2000/svg"><g transform="translate(-5,-6.5)" fill="#fff"><path d="m11.302 17.421-0.2561-0.5853-0.256 0.5853-0.0167 0.0399h0.5454z"/><path d="m7.8734 9.8287h7.5959c1.5864 0 2.8734 1.2837 2.8734 2.8734v7.5959c0 1.5863-1.287 2.8734-2.8734 2.8734h-7.5959c-1.5864 0-2.8734-1.2871-2.8734-2.8734v-7.5959c0-1.5864 1.287-2.8734 2.8734-2.8734zm0.23584 1.3968s-0.00665-0.1929 0.12638-0.1996c0.02993-0.0033 0.06984 0.0067 0.10974 0.0333 0.72501 1.2039 1.9422 1.9089 3.2791 1.9089 1.3369-0.0033 2.5575-0.715 3.2825-1.9189 0.276-0.0898 0.2494 0.1696 0.2494 0.1696-0.705 1.3768-2.0253 2.0619-3.5286 2.0653-1.5032 0-2.8102-0.6785-3.5186-2.0586zm4.523 6.3687 0.4024-1.2006h0.2993l0.4024 1.2006 0.3925-1.2006h0.3724l-0.6185 1.746h-0.2994l-0.4024-1.1474-0.4057 1.1474h-0.2993l-0.6186-1.746h0.3825zm-2.5209 0.5454 0.7816-1.746v-0.0033h0.3192l0.0067 0.0099 0.7749 1.7361h-0.3792l-0.1596-0.3626h-0.8148l-0.01 0.0267-0.1496 0.3392zm6.4486 0v-1.746h0.3558v1.746zm-10.197 0v-1.746h0.35918v0.705h0.81479v-0.705h0.35918v1.746h-0.35918v-0.7084h-0.81479v0.7084zm3.2026-0.745v-1.0043h0.3625v0.9844c0 0.5021-0.27936 0.7882-0.76824 0.7882-0.48222 0-0.76158-0.2794-0.76158-0.7716v-0.9977h0.35918v0.9877c0 0.2927 0.143 0.449 0.40573 0.449 0.25941 0 0.40241-0.1497 0.40241-0.4357zm5.2247 0.745v-1.746h1.3037v0.3193h-0.9512v0.3558h0.6552v0.3193h-0.6552v0.4323h0.9877v0.3193z" clip-rule="evenodd" fill-rule="evenodd"/><path d="m24.501 12.963v-1.5232h0.5388c0.091-0.182 0.1653-0.4047 0.2228-0.6681 0.0622-0.2682 0.1101-0.558 0.1436-0.86935 0.0384-0.31612 0.0647-0.63463 0.0791-0.95554 0.0143-0.3257 0.0215-0.63943 0.0215-0.94118v-1.0058h3.269v4.44h0.6107v1.5232h-0.6466v-0.934h-3.5923v0.934zm1.2573-1.5232h2.3421v-3.8509h-1.9326v0.56039c0 0.72804-0.0335 1.3579-0.1006 1.8896-0.0622 0.5316-0.1652 0.9986-0.3089 1.4009z"/><path d="m31.691 12.101c-0.3209 0-0.6227-0.0694-0.9053-0.2083-0.2778-0.1437-0.5029-0.3593-0.6753-0.6466-0.1677-0.2874-0.2515-0.649-0.2515-1.0849v-0.1437c0-0.41191 0.0838-0.75677 0.2515-1.0346 0.1724-0.2778 0.3975-0.48615 0.6753-0.62505 0.2826-0.1389 0.5844-0.20836 0.9053-0.20836 0.3257 0 0.6274 0.06946 0.9052 0.20836s0.5005 0.34725 0.6682 0.62505c0.1724 0.2778 0.2586 0.62266 0.2586 1.0346v0.1437c0 0.4359-0.0862 0.7975-0.2586 1.0849-0.1677 0.2873-0.3904 0.5029-0.6682 0.6466-0.2778 0.1389-0.5795 0.2083-0.9052 0.2083zm0-0.5747c0.1964 0 0.3831-0.0432 0.5604-0.1294 0.182-0.091 0.3305-0.2371 0.4454-0.4382 0.1197-0.2012 0.1796-0.467 0.1796-0.7975v-0.1437c0-0.30654-0.0599-0.55321-0.1796-0.74-0.1149-0.19159-0.2634-0.33049-0.4454-0.41671-0.1773-0.091-0.364-0.1365-0.5604-0.1365-0.1916 0-0.3784 0.0455-0.5604 0.1365-0.182 0.08622-0.3329 0.22512-0.4526 0.41671-0.115 0.18679-0.1725 0.43346-0.1725 0.74v0.1437c0 0.3305 0.0575 0.5963 0.1725 0.7975 0.1197 0.2011 0.2706 0.3472 0.4526 0.4382 0.182 0.0862 0.3688 0.1294 0.5604 0.1294z"/><path d="m35.891 12.101c-0.3257 0-0.6202-0.0694-0.8837-0.2083-0.2586-0.1437-0.4646-0.3593-0.6178-0.6466-0.1485-0.2874-0.2228-0.649-0.2228-1.0849v-0.1437c0-0.41191 0.0815-0.75677 0.2443-1.0346 0.1629-0.2778 0.376-0.48615 0.6394-0.62505 0.2635-0.1389 0.5437-0.20836 0.8406-0.20836 0.3018 0 0.5604 0.05509 0.7759 0.16525 0.2204 0.10537 0.3976 0.25146 0.5317 0.43826 0.1341 0.182 0.2251 0.38796 0.273 0.61786h-0.6466c-0.0766-0.182-0.1844-0.33527-0.3233-0.45981-0.1341-0.12453-0.3377-0.18679-0.6107-0.18679-0.1868 0-0.3616 0.0455-0.5245 0.1365-0.1628 0.08622-0.2969 0.22512-0.4023 0.41671-0.1006 0.18679-0.1509 0.43346-0.1509 0.74v0.1437c0 0.3257 0.0503 0.5891 0.1509 0.7903 0.1054 0.2012 0.2395 0.3472 0.4023 0.4382 0.1629 0.0911 0.3377 0.1366 0.5245 0.1366 0.2347 0 0.4311-0.0575 0.5891-0.1725 0.1629-0.1149 0.2779-0.273 0.3449-0.4742h0.6466c-0.0575 0.2491-0.1604 0.467-0.3089 0.6538-0.1485 0.182-0.3305 0.3233-0.546 0.4239-0.2156 0.0958-0.4575 0.1437-0.7257 0.1437z"/><path d="m39.202 12.029v-3.2474h-1.3004v-0.56039h3.2331v0.56039h-1.3004v3.2474z"/><path d="m42.498 13.538c-0.0718 0-0.1437-0.0072-0.2155-0.0215v-0.5748c0.0718 0.0144 0.1437 0.0216 0.2155 0.0216 0.0958 0 0.1749-0.024 0.2371-0.0719 0.0671-0.0431 0.1341-0.1317 0.2012-0.2658 0.067-0.1341 0.1485-0.3329 0.2443-0.5963l-1.6166-3.8078h0.7041l1.2358 3.0893 1.1208-3.0893h0.6753l-1.4369 3.8078c-0.1341 0.3592-0.2634 0.649-0.388 0.8693-0.1197 0.2203-0.2562 0.3808-0.4095 0.4814-0.1485 0.1053-0.3377 0.158-0.5676 0.158z"/><path d="m46.016 12.029v-3.8078h3.1612v3.8078h-0.6323v-3.2474h-1.8967v3.2474z"/><path d="m50.324 12.029v-3.8078h0.6322v1.5878h1.9686v-1.5878h0.6322v3.8078h-0.6322v-1.6597h-1.9686v1.6597z"/><path d="m56.289 12.101c-0.3209 0-0.6227-0.0694-0.9053-0.2083-0.2778-0.1437-0.5029-0.3593-0.6753-0.6466-0.1677-0.2874-0.2515-0.649-0.2515-1.0849v-0.1437c0-0.41191 0.0838-0.75677 0.2515-1.0346 0.1724-0.2778 0.3975-0.48615 0.6753-0.62505 0.2826-0.1389 0.5844-0.20836 0.9053-0.20836 0.3257 0 0.6274 0.06946 0.9052 0.20836s0.5005 0.34725 0.6682 0.62505c0.1724 0.2778 0.2586 0.62266 0.2586 1.0346v0.1437c0 0.4359-0.0862 0.7975-0.2586 1.0849-0.1677 0.2873-0.3904 0.5029-0.6682 0.6466-0.2778 0.1389-0.5795 0.2083-0.9052 0.2083zm0-0.5747c0.1963 0 0.3831-0.0432 0.5604-0.1294 0.182-0.091 0.3304-0.2371 0.4454-0.4382 0.1197-0.2012 0.1796-0.467 0.1796-0.7975v-0.1437c0-0.30654-0.0599-0.55321-0.1796-0.74-0.115-0.19159-0.2634-0.33049-0.4454-0.41671-0.1773-0.091-0.3641-0.1365-0.5604-0.1365-0.1916 0-0.3784 0.0455-0.5604 0.1365-0.182 0.08622-0.3329 0.22512-0.4527 0.41671-0.1149 0.18679-0.1724 0.43346-0.1724 0.74v0.1437c0 0.3305 0.0575 0.5963 0.1724 0.7975 0.1198 0.2011 0.2707 0.3472 0.4527 0.4382 0.182 0.0862 0.3688 0.1294 0.5604 0.1294z"/><path d="m60.813 12.029v-3.8078h1.6524c0.3162 0 0.5748 0.0455 0.776 0.13651 0.2012 0.08621 0.3496 0.20835 0.4454 0.36641 0.0958 0.15327 0.1437 0.33288 0.1437 0.53884 0 0.16764-0.0551 0.32809-0.1652 0.48136-0.1054 0.14848-0.2419 0.25146-0.4096 0.30891 0.2347 0.0575 0.412 0.1677 0.5317 0.3305 0.1245 0.1581 0.1868 0.3449 0.1868 0.5604 0 0.3305-0.1102 0.5939-0.3305 0.7903s-0.5652 0.2946-1.0346 0.2946zm0.6322-0.5604h1.1639c0.2683 0 0.4575-0.0479 0.5676-0.1437 0.1102-0.0958 0.1653-0.2323 0.1653-0.4095 0-0.182-0.0551-0.3209-0.1653-0.4167-0.1101-0.1006-0.2993-0.1509-0.5676-0.1509h-1.1639zm0-1.6381h1.0202c0.2731 0 0.4623-0.04789 0.5676-0.14369 0.1102-0.09579 0.1653-0.22751 0.1653-0.39515 0-0.15805-0.0551-0.28259-0.1653-0.37359-0.1053-0.091-0.2945-0.13651-0.5676-0.13651h-1.0202z"/><path d="m24.501 23.618 2.9918-7.903h1.3548l2.9919 7.903h-1.4451l-0.6661-1.7838h-3.2064l-0.6661 1.7838zm2.4612-2.958h2.3257l-1.1515-3.2515z"/><path d="m32.796 25.876v-8.2417h1.1516v1.0048c0.1806-0.3462 0.4478-0.6209 0.8016-0.8241 0.3612-0.2033 0.7677-0.3049 1.2193-0.3049 0.7828 0 1.3999 0.2447 1.8515 0.7339s0.6774 1.2268 0.6774 2.2128v0.2258c0 0.6774-0.1053 1.2457-0.3161 1.7048-0.2107 0.4516-0.5043 0.7903-0.8806 1.0161s-0.8204 0.3387-1.3322 0.3387c-0.429 0-0.8204-0.0941-1.1742-0.2822-0.3537-0.1882-0.6059-0.4516-0.7564-0.7903v3.2063zm2.8789-3.2176c0.4667 0 0.843-0.1619 1.129-0.4855 0.2861-0.3236 0.4291-0.8204 0.4291-1.4903v-0.2258c0-0.6322-0.1393-1.0989-0.4178-1.3999-0.2785-0.3086-0.6586-0.4629-1.1403-0.4629-0.2784 0-0.5456 0.0602-0.8015 0.1806-0.2484 0.1204-0.4516 0.2973-0.6097 0.5306-0.1505 0.2334-0.2258 0.5231-0.2258 0.8694v0.7903c0 0.3763 0.0753 0.6924 0.2258 0.9483 0.1581 0.2484 0.3613 0.4366 0.6097 0.5645 0.2483 0.1205 0.5155 0.1807 0.8015 0.1807z"/><path d="m39.742 25.876v-8.2417h1.1516v1.0048c0.1806-0.3462 0.4478-0.6209 0.8015-0.8241 0.3613-0.2033 0.7678-0.3049 1.2194-0.3049 0.7827 0 1.3999 0.2447 1.8515 0.7339s0.6774 1.2268 0.6774 2.2128v0.2258c0 0.6774-0.1054 1.2457-0.3161 1.7048-0.2108 0.4516-0.5043 0.7903-0.8806 1.0161-0.3764 0.2258-0.8204 0.3387-1.3322 0.3387-0.4291 0-0.8204-0.0941-1.1742-0.2822-0.3537-0.1882-0.6059-0.4516-0.7564-0.7903v3.2063zm2.8789-3.2176c0.4667 0 0.843-0.1619 1.129-0.4855s0.429-0.8204 0.429-1.4903v-0.2258c0-0.6322-0.1392-1.0989-0.4177-1.3999-0.2785-0.3086-0.6586-0.4629-1.1403-0.4629-0.2785 0-0.5457 0.0602-0.8016 0.1806-0.2483 0.1204-0.4516 0.2973-0.6096 0.5306-0.1506 0.2334-0.2258 0.5231-0.2258 0.8694v0.7903c0 0.3763 0.0752 0.6924 0.2258 0.9483 0.158 0.2484 0.3613 0.4366 0.6096 0.5645 0.2484 0.1205 0.5156 0.1807 0.8016 0.1807z"/><path d="m52.897 23.742c-0.7225 0-1.351-0.1505-1.8854-0.4516s-0.9483-0.7489-1.2419-1.3435c-0.286-0.6021-0.429-1.3435-0.429-2.2241v-0.2258c0-0.6247 0.0828-1.1779 0.2484-1.6597 0.1731-0.4817 0.4139-0.8881 0.7225-1.2193 0.3162-0.3387 0.6925-0.5946 1.129-0.7677 0.4366-0.1731 0.922-0.2597 1.4564-0.2597 0.4065 0 0.7828 0.0565 1.129 0.1694 0.3538 0.1054 0.6662 0.2634 0.9371 0.4742 0.271 0.2032 0.4968 0.4629 0.6774 0.779 0.1882 0.3086 0.3274 0.6661 0.4177 1.0725h-1.4677c-0.1053-0.3311-0.2483-0.5908-0.429-0.779-0.1806-0.1881-0.3801-0.3199-0.5984-0.3951-0.2182-0.0828-0.4403-0.1242-0.6661-0.1242-0.4215 0-0.794 0.0978-1.1177 0.2935-0.3236 0.1957-0.5758 0.493-0.7564 0.8919-0.1731 0.3989-0.2597 0.907-0.2597 1.5242v0.2258c0 0.4817 0.0527 0.8994 0.1581 1.2532 0.1054 0.3537 0.2521 0.6473 0.4403 0.8806 0.1957 0.2333 0.4215 0.4064 0.6774 0.5193 0.2634 0.1129 0.5494 0.1694 0.858 0.1694 0.3914 0 0.7301-0.0678 1.0161-0.2033 0.2861-0.1354 0.5156-0.3462 0.6887-0.6322s0.2785-0.6473 0.3161-1.0838h-1.7951v-1.129h3.1048v0.4516c0 0.6322-0.079 1.1854-0.2371 1.6596-0.1505 0.4742-0.3688 0.8693-0.6548 1.1854-0.286 0.3162-0.636 0.5533-1.05 0.7113-0.4064 0.1581-0.8693 0.2371-1.3887 0.2371z"/><path d="m59.331 23.742c-0.4291 0-0.7979-0.079-1.1065-0.2371-0.301-0.1656-0.5306-0.3914-0.6886-0.6774-0.1581-0.286-0.2371-0.6059-0.2371-0.9596 0-0.5946 0.1768-1.0349 0.5306-1.321 0.3537-0.2935 0.8731-0.4403 1.558-0.4403h1.8629v-0.3274c0-0.4516-0.1017-0.7602-0.3049-0.9258-0.1957-0.1731-0.508-0.2596-0.937-0.2596-0.3839 0-0.6661 0.0602-0.8468 0.1806-0.1806 0.1204-0.286 0.286-0.3161 0.4968h-1.208c0.0225-0.3462 0.1317-0.6511 0.3274-0.9145s0.4704-0.4704 0.8241-0.621c0.3613-0.1505 0.7866-0.2258 1.2758-0.2258s0.9145 0.0753 1.2758 0.2258c0.3688 0.1506 0.651 0.3877 0.8467 0.7113 0.2032 0.3161 0.3049 0.7376 0.3049 1.2645v2.3822c0 0.3161 0.0037 0.5946 0.0112 0.8354 0.0076 0.2334 0.0264 0.4629 0.0565 0.6887h-1.129c-0.0226-0.1731-0.0414-0.3199-0.0565-0.4403-0.0075-0.1204-0.0112-0.271-0.0112-0.4516-0.143 0.2785-0.3914 0.5193-0.7452 0.7226-0.3462 0.1957-0.7752 0.2935-1.287 0.2935zm0.3387-1.0838c0.286 0 0.5456-0.049 0.779-0.1468 0.2408-0.0978 0.4328-0.2446 0.5758-0.4403 0.1505-0.1957 0.2258-0.4328 0.2258-0.7113v-0.3274h-1.6371c-0.3161 0-0.572 0.0678-0.7677 0.2032-0.1882 0.1355-0.2823 0.335-0.2823 0.5984 0 0.2484 0.0866 0.4478 0.2597 0.5984 0.1807 0.1505 0.4629 0.2258 0.8468 0.2258z"/><path d="m65.939 23.674c-0.429 0-0.7827-0.0602-1.0612-0.1807-0.271-0.1279-0.4742-0.3349-0.6097-0.6209-0.1279-0.2936-0.1919-0.6812-0.1919-1.1629v-5.995h1.2419v5.9047c0 0.3688 0.0602 0.6247 0.1806 0.7677 0.1204 0.1355 0.3425 0.2032 0.6661 0.2032h0.2145c0.0602-0.0075 0.1205-0.015 0.1807-0.0226v1.0726c-0.0377 0.0075-0.0979 0.015-0.1807 0.0226-0.0752 0.0075-0.1543 0.0113-0.2371 0.0113h-0.2032z"/><path d="m69.61 23.674c-0.429 0-0.7828-0.0602-1.0613-0.1807-0.2709-0.1279-0.4742-0.3349-0.6096-0.6209-0.128-0.2936-0.192-0.6812-0.192-1.1629v-5.995h1.2419v5.9047c0 0.3688 0.0602 0.6247 0.1807 0.7677 0.1204 0.1355 0.3424 0.2032 0.6661 0.2032h0.2145c0.0602-0.0075 0.1204-0.015 0.1806-0.0226v1.0726c-0.0376 0.0075-0.0978 0.015-0.1806 0.0226-0.0753 0.0075-0.1543 0.0113-0.2371 0.0113h-0.2032z"/><path d="m73.849 23.742c-0.5269 0-1.0124-0.1091-1.4564-0.3274-0.4441-0.2258-0.8016-0.5645-1.0726-1.0161-0.2709-0.4516-0.4064-1.0236-0.4064-1.7161v-0.2258c0-0.6623 0.1279-1.2118 0.3838-1.6483 0.2635-0.4366 0.6097-0.7602 1.0387-0.971 0.429-0.2182 0.8957-0.3274 1.4-0.3274 0.9107 0 1.6069 0.2447 2.0886 0.7339 0.4892 0.4892 0.7339 1.1892 0.7339 2.0999v0.6323h-4.3806c0.0151 0.4064 0.1017 0.7338 0.2597 0.9822 0.1581 0.2484 0.3613 0.429 0.6097 0.5419 0.2484 0.1054 0.5156 0.1581 0.8016 0.1581 0.429 0 0.7413-0.0678 0.937-0.2033 0.2032-0.1354 0.3425-0.3123 0.4178-0.5306h1.2419c-0.1205 0.5946-0.4178 1.0462-0.8919 1.3548-0.4667 0.3086-1.035 0.4629-1.7048 0.4629zm-0.0565-5.1482c-0.2785 0-0.5381 0.0489-0.779 0.1467-0.2408 0.0979-0.4365 0.2522-0.5871 0.4629-0.1505 0.2108-0.2333 0.493-0.2484 0.8468h3.1387c-0.0076-0.3763-0.0791-0.6699-0.2146-0.8806-0.1354-0.2108-0.3161-0.3575-0.5419-0.4403-0.2258-0.0904-0.4817-0.1355-0.7677-0.1355z"/><path d="m77.801 23.618v-5.9837h1.1516v1.0161c0.0828-0.2107 0.1957-0.3989 0.3387-0.5645 0.1505-0.1731 0.3312-0.3123 0.5419-0.4177 0.2183-0.1054 0.4629-0.1581 0.7339-0.1581 0.1881 0 0.3274 0.0076 0.4177 0.0226 0.0979 0.0151 0.1656 0.0301 0.2032 0.0452v1.129c-0.1279-0.0377-0.2446-0.064-0.35-0.0791-0.1053-0.0225-0.2333-0.0338-0.3838-0.0338-0.3237 0-0.5909 0.0752-0.8016 0.2258-0.2108 0.143-0.365 0.3311-0.4629 0.5645-0.0978 0.2258-0.1468 0.4704-0.1468 0.7338v3.4999z"/><path d="m83.38 26c-0.1129 0-0.2258-0.0113-0.3387-0.0339v-1.0838c0.1129 0.0226 0.2258 0.0339 0.3387 0.0339 0.1656 0 0.3011-0.0414 0.4064-0.1242 0.1054-0.0753 0.2033-0.207 0.2936-0.3952 0.0903-0.1881 0.1957-0.4478 0.3161-0.779l-2.5402-5.9837h1.3548l1.8289 4.6289 1.6484-4.6289h1.2645l-2.3145 5.9837c-0.2183 0.557-0.4252 1.0123-0.6209 1.3661s-0.4178 0.6097-0.6662 0.7677c-0.2483 0.1656-0.572 0.2484-0.9709 0.2484z"/></g></svg>
