<?xml version="1.0" encoding="UTF-8"?>
<svg width="100" height="28" version="1.1" viewBox="0 0 100 28" xmlns="http://www.w3.org/2000/svg"><path d="m26.66 0.5c-0.40462 0-0.77511 0.076044-1.1094 0.22852-0.33427 0.14953-0.59555 0.35915-0.7832 0.62891-0.18475 0.26974-0.27734 0.57589-0.27734 0.91602h0.84375c0-0.30493 0.12681-0.56233 0.37891-0.76758 0.2551-0.20818 0.57197-0.31055 0.94726-0.31055 0.44856 0 0.79472 0.10042 1.041 0.30273 0.2492 0.19938 0.37305 0.47044 0.37305 0.81055 0 0.33719-0.1102 0.59648-0.33008 0.78125-0.21988 0.18465-0.54266 0.28221-0.9707 0.29102h-0.78711v0.69336h0.79102c0.92944 0.014712 1.3945 0.39784 1.3945 1.1484 0 0.35188-0.13844 0.63564-0.41406 0.84961-0.27272 0.21407-0.63739 0.32031-1.0977 0.32031-0.41053 0-0.75076-0.11121-1.0176-0.33398-0.26681-0.22578-0.40039-0.50658-0.40039-0.84375h-0.84375c0 0.38411 0.09747 0.71367 0.29102 0.99219 0.19355 0.27852 0.46262 0.49592 0.80859 0.64844 0.34888 0.14952 0.73687 0.22461 1.1621 0.22461 0.71537 0 1.2868-0.17064 1.7148-0.50781 0.42814-0.33717 0.64258-0.79253 0.64258-1.3672 0-0.74759-0.37921-1.2479-1.1328-1.5 0.32546-0.14071 0.58183-0.33278 0.76367-0.57617 0.18174-0.24335 0.27148-0.51246 0.27148-0.80859 0-0.5717-0.19598-1.0163-0.5918-1.3359-0.39582-0.32253-0.9526-0.48438-1.668-0.48438zm5.2012 1.6465c-0.34598 1e-7 -0.66289 0.064346-0.95312 0.19336-0.28733 0.129-0.51746 0.30451-0.6875 0.52734-0.16713 0.21994-0.25 0.44806-0.25 0.68555h0.81836c0-0.20817 0.09857-0.38659 0.29492-0.5332 0.19646-0.14657 0.44024-0.21875 0.73047-0.21875 0.33136 0 0.57997 0.083841 0.75 0.25391 0.17004 0.16713 0.25586 0.39331 0.25586 0.67773v0.37305h-0.79102c-0.68314 0-1.2136 0.1404-1.5918 0.41602-0.3753 0.27262-0.5625 0.6549-0.5625 1.1504 0 0.40762 0.14823 0.74686 0.44727 1.0137 0.30204 0.26391 0.68903 0.39453 1.1582 0.39453 0.52482-1e-7 0.97521-0.19888 1.3535-0.5918 0.02932 0.24049 0.06644 0.41003 0.11328 0.50391h0.85547v-0.070312c-0.11149-0.25801-0.16797-0.60612-0.16797-1.043v-2.1914c-0.01171-0.48089-0.17167-0.85623-0.48242-1.1289-0.31085-0.27561-0.74278-0.41211-1.291-0.41211zm8.9961 0c-0.58937 0-1.0514 0.20475-1.3828 0.61523l-0.039062-0.52734h-0.74219v6.5859h0.8125v-2.291c0.33126 0.36649 0.78562 0.55078 1.3633 0.55078 0.56585-1e-7 1.0144-0.22326 1.3457-0.66602 0.33136-0.44275 0.49609-1.0239 0.49609-1.748v-0.074219c0-0.76821-0.16574-1.3698-0.5-1.8008-0.33126-0.431-0.78176-0.64453-1.3535-0.64453zm8.7676 0.00391c-0.51901 0-0.9509 0.13062-1.2969 0.39453-0.34598 0.26391-0.51953 0.6022-0.51953 1.0156h0.81055c0-0.20236 0.0946-0.37782 0.28516-0.52734 0.19345-0.14951 0.43337-0.22461 0.7207-0.22461 0.29614 0 0.53114 0.067234 0.70117 0.19922 0.1695 0.1286 0.25338 0.30546 0.25391 0.52734-8.95e-4 0.44134-0.27869 0.67096-0.83203 0.68555h-0.88281v0.68554h0.8125c0.33717-1e-7 0.58582 0.058488 0.74414 0.17578 0.16123 0.11429 0.24219 0.30545 0.24219 0.57227 0 0.22868-0.0946 0.41488-0.28516 0.55859-0.19065 0.14361-0.44316 0.21484-0.75391 0.21484-0.30785 0-0.56527-0.081863-0.77344-0.24609-0.20526-0.16713-0.30664-0.36607-0.30664-0.59766h-0.81055c0 0.45736 0.17842 0.82208 0.5332 1.0918 0.35768 0.26681 0.80909 0.40039 1.3574 0.40039 0.56295 0 1.0144-0.12771 1.3516-0.38281 0.33717-0.2551 0.50586-0.60221 0.50586-1.0391 0-0.55124-0.27789-0.91977-0.83203-1.1074 0.23749-0.10548 0.42178-0.24889 0.55078-0.42773s0.19336-0.37577 0.19336-0.58984c0-0.44272-0.15605-0.78203-0.4668-1.0195-0.31085-0.24042-0.74569-0.35938-1.3027-0.35938zm12.512 0.082031v4.7598h2.0156c0.54544 0 0.98018-0.14627 1.3027-0.43359 0.32256-0.28733 0.48242-0.66565 0.48242-1.1406 0-0.47208-0.155-0.84557-0.46875-1.1211-0.31375-0.27562-0.74182-0.41802-1.2812-0.42383h-1.2344v-1.6406zm7.127 0v4.7598h2.1504c0.58637 0 1.0398-0.11597 1.3594-0.34766 0.32256-0.23158 0.48242-0.56706 0.48242-1.0039 0-0.27272-0.08773-0.50677-0.26367-0.70312-0.17294-0.19646-0.40408-0.32708-0.69141-0.39453 0.258-0.093775 0.45589-0.23031 0.58789-0.40625 0.1319-0.17884 0.19726-0.37778 0.19727-0.59766 0-0.42804-0.1697-0.75275-0.50977-0.97266-0.33727-0.22282-0.82373-0.33398-1.457-0.33398zm-34.293 0.00195v4.7578h0.82031v-4.0859h2.1934v-0.67188zm8.209 0 1.6953 4.7051-0.17969 0.48438c-0.09968 0.29614-0.22739 0.49799-0.38281 0.60938-0.15242 0.11139-0.36501 0.16797-0.64062 0.16797l-0.2207-0.017578v0.6582l0.30273 0.056641 0.1543 0.013672c0.64501 0 1.114-0.39392 1.4102-1.1855l1.9141-5.4922h-0.86914l-1.1094 3.5645-1.1875-3.5645zm9.4277 0v4.7578h0.81445l2.1953-3.4707v3.4707h0.8125v-4.7578h-0.8125l-2.1953 3.4727v-3.4727zm4.6875 0v0.6582h1.5664v4.0996h0.8125v-4.0996h1.5977v-0.6582zm-44.105 0.47461c-1.2409 0.1303-2.3858 0.72456-3.209 1.6621-0.81285 0.92504-1.2245 2.1345-1.1445 3.3633 1.2574 0.01291 2.4523-0.55312 3.2402-1.5332 0.81225-0.97498 1.2102-2.227 1.1133-3.4922zm27.426 0.12695c0.39872 0 0.71077 0.154 0.93945 0.46484 0.22868 0.31075 0.34375 0.73691 0.34375 1.2734 0 0.60989-0.11597 1.0681-0.34766 1.3789-0.22868 0.30784-0.53782 0.46094-0.92773 0.46094-0.5014 1e-7 -0.8739-0.21645-1.1172-0.65039v-2.2734c0.2463-0.43695 0.61678-0.6543 1.1094-0.6543zm29.463 0.056641h1.1113c0.72127 0.014661 1.0801 0.2438 1.0801 0.68945 0 0.44575-0.37832 0.66992-1.1406 0.66992h-1.0508zm-7.125 1.6465h1.2383c0.29313 0.00581 0.52041 0.091684 0.68164 0.26172 0.16423 0.16713 0.24805 0.38257 0.24805 0.64648 0 0.27272-0.08482 0.48816-0.25195 0.64648-0.16713 0.15542-0.40404 0.23242-0.70898 0.23242h-1.207zm-30.77 0.14453h0.63672v0.97461c-0.10258 0.21107-0.26741 0.38372-0.49609 0.51562-0.22868 0.132-0.47146 0.19727-0.72656 0.19727-0.26681 0-0.48426-0.073082-0.6543-0.2168-0.17004-0.14361-0.25391-0.3406-0.25391-0.5957 0-0.58346 0.49725-0.875 1.4941-0.875zm37.895 0.21875h1.3125c0.69786 0 1.0488 0.23791 1.0488 0.71289 0 0.22868-0.08768 0.40525-0.25781 0.53125-0.16703 0.1261-0.4197 0.18945-0.75977 0.18945h-1.3438zm-56.906 3.082c-1.028-0.10789-2.0349 0.29188-2.8594 0.61914-0.52332 0.20767-0.97212 0.38477-1.3047 0.38477-0.3783 0-0.84166-0.18461-1.3594-0.39258-0.67684-0.27182-1.4494-0.58302-2.2539-0.56641-1.8682 0.060348-3.5677 1.0973-4.4766 2.7305-1.9355 3.351-0.49089 8.2776 1.3633 10.986 0.92764 1.3265 2.0111 2.8064 3.4297 2.7539 0.64351-0.02672 1.1006-0.21756 1.5723-0.41602 0.54573-0.22968 1.1128-0.46875 2.0117-0.46875 0.84758 0 1.3884 0.23175 1.9082 0.45312 0.4983 0.21227 0.97513 0.41485 1.6836 0.39844 1.4896-0.02412 2.4291-1.331 3.3242-2.6699 0.66653-0.94515 1.1793-1.9924 1.5195-3.0977-1.7691-0.7483-2.9199-2.4795-2.9219-4.4004 0.02182-1.6979 0.91292-3.2669 2.3594-4.1562-0.91663-1.3091-2.3987-2.1083-3.9961-2.1582zm51.561 3.8828c-2.6535 0-4.5195 1.4709-4.5195 3.6152 0 1.7318 1.0578 2.7985 3.3398 3.3496l1.6113 0.39062c1.6107 0.39592 2.2891 0.97088 2.2891 1.9355 0 1.1112-1.1277 1.9219-2.6953 1.9219-1.6361 0-2.8329-0.81049-2.9707-2.043h-1.9043c0.1202 2.2479 1.9822 3.6719 4.7383 3.6719 2.9456 0 4.7969-1.4582 4.7969-3.7832 0-1.8178-1.0576-2.8403-3.6074-3.4434l-1.3711-0.33594c-1.6019-0.39582-2.2559-0.91437-2.2559-1.793 0-1.1025 1.0251-1.8594 2.5234-1.8594 1.4983 0 2.5224 0.74799 2.6348 1.9883h1.8789c-0.06054-2.1443-1.8622-3.6152-4.4883-3.6152zm-35.77 0.20703-4.4883 12.428h2.0078l1.1367-3.3613h4.7363l1.1387 3.3613h2.0391l-4.4863-12.428zm42.602 1.2207v2.1445h-1.3164v1.4746h1.3164v5.1934c0 1.7572 0.71437 2.4453 2.5488 2.4453 0.34637 0.0064 0.69459-0.02239 1.0352-0.08594v-1.4648c-0.20306 0.02502-0.40872 0.03936-0.61328 0.04297-0.7574 0-1.1016-0.3607-1.1016-1.1367v-4.9941h1.7227v-1.4746h-1.7227v-2.1445zm-41.604 0.8457h0.05273l1.8516 5.4512h-3.7559zm50.49 1.1875c-2.6183 0-4.2969 1.7917-4.2969 4.6426 0 2.8587 1.662 4.6426 4.2969 4.6426 2.6359 0 4.2988-1.7838 4.2988-4.6426 0-2.851-1.6717-4.6426-4.2988-4.6426zm15.061 0c-2.549 0-4.1934 1.8434-4.1934 4.6855 0 2.8333 1.6354 4.5996 4.2715 4.5996 2.0496 0 3.6521-1.1286 3.9023-2.7734h-1.7656c-0.33927 0.84077-1.191 1.358-2.0938 1.2734-0.67654 0.02492-1.3325-0.24133-1.7988-0.73242-0.46637-0.49099-0.69772-1.1594-0.63867-1.834v-0.11133h6.4004v-0.63672c0-2.7473-1.577-4.4707-4.084-4.4707zm-54.104 0.01758c-1.1833-0.03814-2.2915 0.57705-2.8848 1.6016h-0.0332v-1.5078h-1.8027v12.061h1.8613v-4.4883h0.04297c0.56805 1.031 1.6741 1.6474 2.8496 1.5859v-2e-3c2.2743 0 3.7812-1.8093 3.7812-4.625 0-2.8079-1.5148-4.625-3.8145-4.625zm9.9727 0c-1.1833-0.03814-2.2915 0.57705-2.8848 1.6016h-0.03516v-1.5078h-1.8008v12.061h1.8613v-4.4883h0.04297c0.56795 1.031 1.6741 1.6474 2.8496 1.5859v-2e-3c2.2742 0 3.7812-1.8093 3.7812-4.625 0-2.8079-1.5147-4.625-3.8145-4.625zm38.898 0c-1.0218-0.03903-1.9323 0.64383-2.1797 1.6367h-0.04297v-1.543h-1.7734v9.0625h1.8594v-5.375c-0.06185-0.54373 0.11568-1.0875 0.48828-1.4883 0.3726-0.40082 0.90474-0.61782 1.4512-0.5957 0.28323-0.0082 0.56377 0.02866 0.83398 0.11133v-1.7402c-0.20917-0.04694-0.42255-0.06907-0.63672-0.06836zm5.2324 1.4902c0.60648-0.01301 1.1939 0.22752 1.6152 0.66406 0.42234 0.43655 0.64145 1.0306 0.60742 1.6367h-4.5293c-2e-3 -0.61169 0.24048-1.199 0.67383-1.6309 0.43334-0.43184 1.0203-0.67362 1.6328-0.66992zm-15.061 0.02539c1.5071 0 2.4043 1.1537 2.4043 3.1094 0 1.9635-0.8972 3.1094-2.4043 3.1094-1.507 0-2.4023-1.1459-2.4023-3.1094 0-1.9468 0.89534-3.1094 2.4023-3.1094zm-39.533 0.07031c1.4465 0 2.3945 1.2046 2.3945 3.0391 0 1.8511-0.94808 3.0488-2.3945 3.0488-1.421 0-2.377-1.2232-2.377-3.0488 0-1.809 0.95592-3.0391 2.377-3.0391zm9.9727 0c1.4465 0 2.3945 1.2046 2.3945 3.0391 1e-4 1.8511-0.94808 3.0488-2.3945 3.0488-1.4211 0-2.377-1.2232-2.377-3.0488 0-1.809 0.95582-3.0391 2.377-3.0391z"/></svg>
