<?xml version="1.0" encoding="UTF-8"?>
<svg width="24" height="24" version="1.1" viewBox="0 0 24 24" xmlns="http://www.w3.org/2000/svg"><path d="m12.152 4.5c-4.2311 0-7.6523 3.3536-7.6523 7.5 0 4.1464 3.4213 7.5 7.6523 7.5 4.4169 0 7.3477-3.0424 7.3477-7.3281 0-0.4928-0.055494-0.86914-0.12109-1.2441h-7.2266v2.5723h4.3418c-0.1749 1.1036-1.3134 3.2363-4.3418 3.2363-2.613 0-4.7441-2.122-4.7441-4.7363 0-2.6143 2.1311-4.7363 4.7441-4.7363 1.4868 0 2.4822 0.62248 3.0508 1.1582l2.0781-1.9609c-1.3338-1.2214-3.0626-1.9609-5.1289-1.9609z"/></svg>
