<?xml version="1.0" encoding="UTF-8"?>
<svg width="16" height="16" version="1.1" viewBox="0 0 16 16" xmlns="http://www.w3.org/2000/svg"><path d="m8 2.666c-1.4484 0-1.6303 0.0073131-2.1992 0.033203-0.56778 0.026-0.95385 0.11616-1.293 0.24805-0.35078 0.13622-0.64887 0.31867-0.94531 0.61523-0.29667 0.29644-0.47856 0.59269-0.61523 0.94336-0.13222 0.33923-0.22249 0.72736-0.24805 1.2949-0.02544 0.5689-0.033203 0.75076-0.033203 2.1992s0.0074332 1.6303 0.033203 2.1992c0.02612 0.5678 0.11627 0.95582 0.24805 1.2949 0.13633 0.3508 0.31867 0.64686 0.61523 0.94336 0.29634 0.2966 0.5928 0.47903 0.94336 0.61523 0.33933 0.1319 0.72724 0.22205 1.2949 0.24805 0.56889 0.0259 0.75087 0.033203 2.1992 0.033203 1.4486 0 1.6304-0.007303 2.1992-0.033203 0.5678-0.026 0.95552-0.11615 1.2949-0.24805 0.3506-0.1362 0.64706-0.31863 0.94336-0.61523 0.2967-0.2965 0.47853-0.59266 0.61523-0.94336 0.1311-0.3392 0.22145-0.72732 0.24805-1.2949 0.0256-0.56887 0.033203-0.75076 0.033203-2.1992s-0.007603-1.6303-0.033203-2.1992c-0.0266-0.56778-0.11695-0.9558-0.24805-1.2949-0.1367-0.35078-0.31853-0.64692-0.61523-0.94336-0.2967-0.29667-0.59216-0.47912-0.94336-0.61523-0.34-0.13189-0.72908-0.22205-1.2969-0.24805-0.56892-0.02589-0.74837-0.033203-2.1973-0.033203zm2.8477 1.8477c0.3533 0 0.64062 0.28533 0.64062 0.63867 0 0.35334-0.28732 0.64062-0.64062 0.64062-0.3534 0-0.64062-0.28728-0.64062-0.64062 0-0.35345 0.28722-0.63867 0.64062-0.63867zm-2.8477 0.74805c1.5126 0 2.7402 1.2257 2.7402 2.7383s-1.2277 2.7383-2.7402 2.7383-2.7383-1.2257-2.7383-2.7383 1.2257-2.7383 2.7383-2.7383zm0 0.96094c-0.9819 0-1.7773 0.79544-1.7773 1.7773 1e-7 0.98178 0.79544 1.7773 1.7773 1.7773 0.98179-2e-7 1.7793-0.79556 1.7793-1.7773 0-0.9819-0.79751-1.7773-1.7793-1.7773z"/></svg>
