<?xml version="1.0" encoding="UTF-8"?>
<svg width="24" height="24" version="1.1" viewBox="0 0 24 24" xmlns="http://www.w3.org/2000/svg"><path d="m11.998 4c-2.1691 1.12e-5 -2.444 0.010021-3.2969 0.048828-0.85168 0.039-1.4327 0.17326-1.9414 0.37109-0.52617 0.20434-0.97135 0.47704-1.416 0.92188-0.445 0.44468-0.71883 0.89196-0.92383 1.418-0.19834 0.50884-0.33276 1.0901-0.37109 1.9414-0.03817 0.85334-0.048828 1.1261-0.048828 3.2988 0 2.1727 0.010168 2.4454 0.048828 3.2988 0.03917 0.8516 0.17343 1.4328 0.37109 1.9414 0.20451 0.5262 0.47704 0.97132 0.92188 1.416 0.44451 0.445 0.89213 0.71943 1.418 0.92383 0.50901 0.1978 1.0899 0.33209 1.9414 0.37109 0.85334 0.0389 1.1263 0.048828 3.2988 0.048828 2.1728 0 2.4435-0.009928 3.2969-0.048828 0.8517-0.039 1.4344-0.17329 1.9434-0.37109 0.526-0.2044 0.97142-0.47883 1.416-0.92383 0.445-0.4447 0.71883-0.89002 0.92383-1.416 0.1967-0.5088 0.33109-1.09 0.37109-1.9414 0.0383-0.8533 0.048828-1.1261 0.048828-3.2988 0-2.1727-0.010528-2.4455-0.048828-3.2988-0.04-0.85167-0.17439-1.4327-0.37109-1.9414-0.205-0.52618-0.47883-0.97329-0.92383-1.418-0.4451-0.445-0.88942-0.7177-1.416-0.92188-0.51-0.19783-1.0917-0.33209-1.9434-0.37109-0.8528-0.038807-1.1271-0.048817-3.2969-0.048828h-0.001953zm4.2734 2.7695c0.53 2e-7 0.95898 0.43093 0.95898 0.96094 0 0.53-0.42898 0.95898-0.95898 0.95898s-0.96094-0.42898-0.96094-0.95898c0-0.53018 0.43094-0.96094 0.96094-0.96094zm-4.2715 1.123c2.2688 0 4.1094 1.8386 4.1094 4.1074 0 2.2688-1.8405 4.1074-4.1094 4.1074-2.2688 0-4.1074-1.8386-4.1074-4.1074 0-2.2689 1.8386-4.1074 4.1074-4.1074zm0 1.4414c-1.4728 0-2.666 1.1931-2.666 2.666 0 1.4727 1.1932 2.666 2.666 2.666 1.4727 0 2.668-1.1933 2.668-2.666 0-1.4729-1.1953-2.666-2.668-2.666z"/></svg>
