<?xml version="1.0" encoding="UTF-8"?>
<svg width="24" height="24" version="1.1" viewBox="0 0 24 24" xmlns="http://www.w3.org/2000/svg"><path d="m12.01 3.8398c-2.406 0-4.3613 1.8884-4.3613 4.2109 0 2.3218 1.9553 4.2109 4.3613 4.2109 2.4066 0 4.3633-1.8891 4.3633-4.2109 0-2.3225-1.9567-4.2109-4.3633-4.2109zm0.16406 2.7207c0.9961 0 1.8066 0.78059 1.8066 1.7422 0 0.9608-0.81054 1.7441-1.8066 1.7441-0.9954 0-1.8066-0.78334-1.8066-1.7441 0-0.9616 0.81124-1.7422 1.8066-1.7422zm-3.832 5.8477c-0.41009 0.01298-0.80658 0.21524-1.041 0.57617-0.3762 0.5768-0.19661 1.3398 0.40039 1.7031 0.7889 0.4778 1.6451 0.81642 2.5332 1.0117l-2.4395 2.3555c-0.4986 0.4818-0.4991 1.2623 0 1.7441 0.2498 0.2406 0.5774 0.36133 0.9043 0.36133 0.3273 0 0.6545-0.12073 0.9043-0.36133l2.3945-2.3145 2.3984 2.3145c0.4986 0.4817 1.3074 0.4817 1.8066 0 0.4996-0.4818 0.4996-1.2628 0-1.7441l-2.4375-2.3555c0.8881-0.1953 1.7443-0.53342 2.5332-1.0117 0.597-0.3633 0.77649-1.1268 0.40039-1.7031-0.3759-0.5775-1.1657-0.75012-1.7637-0.38672-1.7871 1.0848-4.0869 1.0845-5.873 0-0.22425-0.13627-0.47465-0.19724-0.7207-0.18945z"/></svg>
