<?xml version="1.0" encoding="UTF-8"?>
<svg width="24" height="24" version="1.1" viewBox="0 0 24 24" xmlns="http://www.w3.org/2000/svg"><path d="m3.1035 11.532s7.961-3.2928 10.722-4.4522c1.0584-0.46378 4.6478-1.9479 4.6478-1.9479s1.6566-0.64928 1.5185 0.92756c-0.046 0.64929-0.4141 2.9218-0.7823 5.3798-0.5522 3.4783-1.1504 7.2813-1.1504 7.2813s-0.092 1.0667-0.8743 1.2522-2.0708-0.6493-2.3009-0.8348c-0.184-0.1391-3.4513-2.2261-4.6477-3.2465-0.32213-0.2782-0.69026-0.8348 0.046-1.484 1.6566-1.5305 3.6354-3.432 4.8318-4.6378 0.5522-0.55653 1.1044-1.8551-1.1964-0.27826-3.2673 2.2725-6.4884 4.4059-6.4884 4.4059s-0.73628 0.4638-2.1168 0.0464c-1.3805-0.4174-2.9911-0.9739-2.9911-0.9739s-1.1044-0.6957 0.78229-1.4378z"/></svg>
