<?xml version="1.0" encoding="UTF-8"?>
<svg width="24" height="24" version="1.1" viewBox="0 0 24 24" xmlns="http://www.w3.org/2000/svg"><path d="m19 5.82c0-0.45287-0.3713-0.81999-0.8292-0.81999h-12.342c-0.45795 0-0.82919 0.36712-0.82919 0.81999v2.8897c0 0.45286 0.37124 0.81998 0.82919 0.81998h2.8711c0.45797 0 0.82913 0.36712 0.82913 0.81994v7.8305c0 0.4529 0.37127 0.8199 0.82926 0.8199h3.2828c0.4579 0 0.8291-0.367 0.8291-0.8199v-7.8305c0-0.45282 0.3713-0.81994 0.8292-0.81994h2.871c0.4579 0 0.8292-0.36712 0.8292-0.81998v-2.8897z"/></svg>
