<svg width="24" height="24" viewBox="0 0 24 24" xmlns="http://www.w3.org/2000/svg">
<path d="M19.0497 8.00618C18.1352 8.00618 17.2914 7.70321 16.6138 7.19211C15.8366 6.60621 15.2783 5.74676 15.0811 4.75617C15.0323 4.51141 15.006 4.25884 15.0035 4H12.391V11.1385L12.3879 15.0486C12.3879 16.094 11.7071 16.9803 10.7635 17.2921C10.4896 17.3825 10.1939 17.4254 9.88589 17.4085C9.49279 17.3869 9.1244 17.2683 8.80422 17.0767C8.12286 16.6692 7.6609 15.93 7.64838 15.0843C7.62866 13.7626 8.69718 12.685 10.018 12.685C10.2787 12.685 10.5291 12.7275 10.7635 12.8048V10.8537V10.1523C10.5162 10.1157 10.2646 10.0966 10.0101 10.0966C8.56448 10.0966 7.21239 10.6975 6.2459 11.7801C5.5154 12.5983 5.07722 13.6421 5.00962 14.7366C4.92104 16.1744 5.44717 17.5412 6.46749 18.5496C6.61741 18.6977 6.77484 18.8351 6.93947 18.9618C7.81426 19.6351 8.88372 20 10.0101 20C10.2646 20 10.5162 19.9812 10.7635 19.9446C11.8157 19.7887 12.7866 19.3071 13.5528 18.5496C14.4943 17.6191 15.0144 16.3838 15.0201 15.069L15.0066 9.22995C15.4557 9.57642 15.9468 9.86311 16.4739 10.0856C17.2936 10.4315 18.1627 10.6068 19.0572 10.6064V8.70945V8.00556C19.0579 8.00618 19.0503 8.00618 19.0497 8.00618Z"/>
</svg>
