<?xml version="1.0" encoding="UTF-8"?>
<svg width="16" height="16" version="1.1" viewBox="0 0 16 16" xmlns="http://www.w3.org/2000/svg"><path d="m9.6641 4c-0.22121 0.0052962-0.43873 0.037255-0.59961 0.09375-0.87435 0.31778-1.4262 1.1383-1.3633 2.0352l0.019531 0.3457-0.34961-0.042969c-1.2731-0.16242-2.3838-0.71359-3.3281-1.6387l-0.46289-0.45898-0.11914 0.33984c-0.25182 0.7556-0.091016 1.5532 0.43359 2.0898 0.2798 0.29659 0.21702 0.33865-0.26562 0.16211-0.16787-0.0565-0.31414-0.099315-0.32812-0.078125-0.04897 0.04943 0.11905 0.69305 0.25195 0.94727 0.18186 0.35309 0.55328 0.69951 0.95898 0.9043l0.3418 0.16211-0.40625 0.0058594c-0.39171 0-0.40525 0.00795-0.36328 0.15625 0.1399 0.45901 0.69305 0.94638 1.3086 1.1582l0.43359 0.14844-0.37891 0.22656c-0.55959 0.3248-1.2155 0.50728-1.873 0.52148-0.31476 7e-3 -0.57422 0.035441-0.57422 0.056641 0 0.0706 0.85297 0.46569 1.3496 0.62109 1.4899 0.459 3.2608 0.26242 4.5898-0.52148 0.9443-0.5578 1.8875-1.6669 2.3281-2.7402 0.2379-0.572 0.47656-1.6178 0.47656-2.1191 0-0.32483 0.020409-0.36746 0.41211-0.75586 0.2308-0.22597 0.44833-0.47235 0.49023-0.54297 0.07-0.13417 0.061879-0.13372-0.29492-0.013672-0.5945 0.21185-0.67856 0.183-0.38476-0.13477 0.2169-0.22598 0.47656-0.63581 0.47656-0.75586 0-0.02119-0.10571 0.014565-0.22461 0.078125-0.1259 0.07061-0.40543 0.17668-0.61523 0.24023l-0.37695 0.11914-0.34375-0.23242c-0.1888-0.12711-0.45385-0.26818-0.59375-0.31055-0.17838-0.04943-0.40379-0.071702-0.625-0.066406z"/></svg>
