<?xml version="1.0" encoding="UTF-8"?>
<svg width="24" height="24" version="1.1" viewBox="0 0 24 24" xmlns="http://www.w3.org/2000/svg"><path d="m14.496 6.002c-0.33182 0.007945-0.65709 0.053932-0.89844 0.13867-1.3115 0.47666-2.1414 1.7055-2.0469 3.0508l0.03125 0.51953-0.52539-0.0625c-1.9096-0.24363-3.5777-1.0714-4.9941-2.459l-0.69141-0.6875-0.17773 0.50781c-0.37771 1.1334-0.13652 2.3297 0.65039 3.1348 0.41969 0.4449 0.32357 0.50904-0.40039 0.24414-0.25182-0.0847-0.4712-0.14704-0.49219-0.11523-0.07344 0.074199 0.1776 1.0367 0.37695 1.418 0.2728 0.5297 0.82896 1.0502 1.4375 1.3574l0.51562 0.24219-0.60938 0.011718c-0.58756 0-0.60787 0.010022-0.54492 0.23242 0.20984 0.6885 1.0376 1.4185 1.9609 1.7363l0.65039 0.22266-0.56641 0.33984c-0.83938 0.4873-1.8243 0.7621-2.8105 0.7832-0.47215 0.0106-0.86133 0.054137-0.86133 0.085937 0 0.1059 1.2805 0.69864 2.0254 0.93164 2.2348 0.6885 4.8893 0.3926 6.8828-0.7832 1.4164-0.8368 2.8331-2.5013 3.4941-4.1113 0.3567-0.858 0.71289-2.4257 0.71289-3.1777 0-0.48726 0.031541-0.55022 0.61914-1.1328 0.3462-0.33897 0.67148-0.71048 0.73438-0.81641 0.105-0.20126 0.093694-0.20156-0.44141-0.021484-0.8919 0.31777-1.0169 0.27549-0.57617-0.20117 0.3252-0.33896 0.71289-0.95274 0.71289-1.1328 0-0.03178-0.15754 0.021848-0.33594 0.11719-0.1889 0.10592-0.60708 0.26404-0.92188 0.35938l-0.56836 0.17969-0.51367-0.34961c-0.2833-0.19066-0.68082-0.40128-0.89062-0.46484-0.26755-0.07415-0.60568-0.1056-0.9375-0.097656z"/></svg>
