<?xml version="1.0" encoding="UTF-8"?>
<svg width="16" height="16" version="1.1" viewBox="0 0 16 16" xmlns="http://www.w3.org/2000/svg"><path d="m7.7715 4.668c-0.64355-0.0068101-1.1893 0.0033699-1.498 0.15625-0.20507 0.10218-0.36452 0.32894-0.26758 0.3418 0.11932 0.0159 0.39002 0.073944 0.5332 0.27148 0.18494 0.25505 0.17773 0.82812 0.17773 0.82812s0.10616 1.5794-0.24805 1.7754c-0.2431 0.13472-0.57709-0.14013-1.293-1.3965-0.36689-0.64331-0.64453-1.3535-0.64453-1.3535s-0.053728-0.13394-0.14844-0.20508c-0.11558-0.08628-0.27734-0.11328-0.27734-0.11328l-1.7148 0.011719s-0.25685 0.0075637-0.35156 0.12109c-0.08426 0.10141-0.0058594 0.31055-0.0058594 0.31055s1.3416 3.1862 2.8613 4.793c1.3952 1.4728 2.9785 1.377 2.9785 1.377h0.7168s0.21506-0.025385 0.32617-0.14648c0.10216-0.1112 0.099609-0.31836 0.099609-0.31836s-0.015029-0.97658 0.43164-1.1211c0.44072-0.14153 1.0067 0.94363 1.6055 1.3613 0.4534 0.3156 0.79688 0.24609 0.79688 0.24609l1.6035-0.021484s0.83695-0.053657 0.43945-0.72266c-0.0328-0.0545-0.23091-0.49404-1.1914-1.3984-1.0052-0.9468-0.87036-0.79385 0.33984-2.4316 0.7368-0.99751 1.032-1.6068 0.93945-1.8672-0.088-0.24825-0.62891-0.18164-0.62891-0.18164l-1.8047 0.011719s-0.13322-0.018774-0.23242 0.041016c-0.0969 0.05903-0.16016 0.19727-0.16016 0.19727s-0.28492 0.77079-0.66602 1.4277c-0.80309 1.3842-1.1246 1.4566-1.2559 1.3711-0.30574-0.20056-0.22852-0.80524-0.22852-1.2344 0-1.3419 0.20072-1.8996-0.39062-2.0449-0.19612-0.04768-0.34069-0.080637-0.8418-0.085937z"/></svg>
