<?xml version="1.0" encoding="UTF-8"?>
<svg width="24" height="24" version="1.1" viewBox="0 0 24 24" xmlns="http://www.w3.org/2000/svg"><path d="m11.656 7.002c-0.9654-0.01021-1.783 0.0031019-2.2461 0.23242-0.30761 0.15326-0.5458 0.49437-0.40039 0.51367 0.17897 0.02384 0.58406 0.1119 0.79883 0.4082 0.27739 0.38258 0.26758 1.2422 0.26758 1.2422s0.15829 2.3701-0.37305 2.6641c-0.36465 0.2021-0.86563-0.21115-1.9395-2.0957-0.55034-0.96497-0.9668-2.0312-0.9668-2.0312s-0.080606-0.19992-0.22266-0.30664c-0.17338-0.12942-0.41602-0.16992-0.41602-0.16992l-2.5723 0.017578s-0.38528 0.011351-0.52734 0.18164c-0.1264 0.15212-0.0097657 0.46484-0.0097657 0.46484s2.0133 4.7812 4.293 7.1914c2.0928 2.2092 4.4668 2.0625 4.4668 2.0625h1.0762s0.32353-0.035197 0.49023-0.2168c0.1532-0.1669 0.14844-0.48047 0.14844-0.48047s-0.021563-1.4629 0.64844-1.6797c0.6611-0.2123 1.508 1.4144 2.4062 2.041 0.68 0.4734 1.1973 0.37109 1.1973 0.37109l2.4023-0.035156s1.2582-0.078531 0.66211-1.082c-0.0493-0.0818-0.34641-0.74106-1.7871-2.0977-1.5078-1.4202-1.3057-1.1898 0.50977-3.6465 1.1051-1.4962 1.5469-2.4103 1.4082-2.8008-0.1319-0.37237-0.94336-0.27344-0.94336-0.27344l-2.707 0.015625s-0.20091-0.02718-0.34961 0.0625c-0.1455 0.08855-0.23828 0.29492-0.23828 0.29492s-0.4284 1.1572-1 2.1426c-1.2047 2.0764-1.6879 2.1869-1.8848 2.0586-0.4586-0.3008-0.3418-1.2079-0.3418-1.8516 0-2.0128 0.30106-2.8523-0.58594-3.0703-0.2942-0.07152-0.51207-0.119-1.2637-0.12695z"/></svg>
