<?xml version="1.0" encoding="UTF-8"?>
<svg width="16" height="16" version="1.1" viewBox="0 0 16 16" xmlns="http://www.w3.org/2000/svg"><path d="m7.998 4s-2.52 2.4e-4 -4.1992 0.125c-0.02296 0.00279-0.048232 0.0050525-0.076172 0.0078125-0.25771 0.02553-0.71488 0.070742-1.127 0.51367-0.35963 0.3739-0.47656 1.2227-0.47656 1.2227s-0.11914 0.9972-0.11914 1.9941v0.93555c0 0.99731 0.11914 1.9941 0.11914 1.9941s0.11693 0.84876 0.47656 1.2227c0.37894 0.4073 0.85802 0.46641 1.1621 0.50391 0.06244 0.0077 0.11663 0.014738 0.16211 0.023438 0.96 0.0947 4.0801 0.12305 4.0801 0.12305s2.5219-0.002253 4.2012-0.12695c0.0232-0.002899 0.047772-0.006965 0.076172-0.009765 0.2576-0.0259 0.7138-0.071372 1.125-0.51367 0.3596-0.3739 0.47852-1.2227 0.47852-1.2227s0.11914-0.99683 0.11914-1.9941v-0.93555c0-0.99694-0.11914-1.9941-0.11914-1.9941s-0.11892-0.84876-0.47852-1.2227c-0.4117-0.44286-0.8675-0.48814-1.125-0.51367-0.028-0.00278-0.053272-0.0050225-0.076172-0.0078125-1.6793-0.12476-4.1992-0.125-4.1992-0.125h-0.0039062zm-1.2383 2.4688 3.2422 1.7383-3.2402 1.7246-0.0019532-3.4629z"/></svg>
