<?xml version="1.0" encoding="UTF-8"?>
<svg width="24" height="24" version="1.1" viewBox="0 0 24 24" xmlns="http://www.w3.org/2000/svg"><path d="m11.996 6s-3.778 3.6e-4 -6.2969 0.1875c-0.03444 0.00418-0.073324 0.0075687-0.11523 0.011719-0.38657 0.03829-1.0713 0.10707-1.6895 0.77148-0.53944 0.56084-0.71484 1.834-0.71484 1.834s-0.17969 1.4948-0.17969 2.9902v1.4023c0 1.496 0.17969 2.9922 0.17969 2.9922s0.1754 1.2731 0.71484 1.834c0.56841 0.6109 1.2841 0.69966 1.7402 0.75586 0.09366 0.0115 0.17786 0.022056 0.24609 0.035156 1.44 0.1421 6.1191 0.18555 6.1191 0.18555s3.7819-0.006259 6.3008-0.19336c0.0349-0.0043 0.074688-0.007419 0.11719-0.011719 0.3865-0.0387 1.0708-0.10808 1.6875-0.77148 0.5394-0.5609 0.71484-1.834 0.71484-1.834s0.17969-1.4962 0.17969-2.9922v-1.4023c0-1.4954-0.17969-2.9902-0.17969-2.9902s-0.17544-1.2731-0.71484-1.834c-0.6175-0.6643-1.3032-0.73318-1.6895-0.77148-0.0419-0.00416-0.080735-0.0075288-0.11524-0.011719-2.5189-0.18714-6.2969-0.1875-6.2969-0.1875h-0.007812zm-1.8555 3.7051 4.8633 2.6055-4.8633 2.5859v-5.1914z"/></svg>
