<?xml version="1.0" encoding="UTF-8"?>
<svg width="24" height="24" version="1.1" viewBox="0 0 24 24" xmlns="http://www.w3.org/2000/svg"><path d="m13.543 13.543c-1.2572 1.2971-1.3486 2.9142-1.4572 6.4571 3.3029 0 5.5829-0.0114 6.76-1.1543 1.1429-1.1771 1.1543-3.5657 1.1543-6.76-3.5429 0.1143-5.16 0.2-6.4571 1.4572zm-9.5429-1.4572c0 3.1943 0.0114 5.5829 1.1543 6.76 1.1771 1.1429 3.4571 1.1543 6.76 1.1543-0.1143-3.5429-0.2-5.16-1.4572-6.4571-1.2971-1.2572-2.9142-1.3486-6.4571-1.4572zm7.9143-8.0857c-3.2972 0-5.5829 0.0114-6.76 1.1543-1.1429 1.1771-1.1543 3.5657-1.1543 6.76 3.5429-0.1143 5.16-0.2 6.4571-1.4572 1.2572-1.2971 1.3486-2.9142 1.4572-6.4571zm1.6286 6.4571c-1.2572-1.2971-1.3486-2.9142-1.4572-6.4571 3.3029 0 5.5829 0.0114 6.76 1.1543 1.1429 1.1771 1.1543 3.5657 1.1543 6.76-3.5429-0.1143-5.16-0.2-6.4571-1.4572z"/></svg>
