<svg width="203" height="56" viewBox="0 0 203 56" fill="none" xmlns="http://www.w3.org/2000/svg">
<g clip-path="url(#clip0_18569_97906)">
<path d="M175.831 0.978516H27.1692C12.1641 0.978516 0 13.1756 0 28.2215C0 43.2674 12.1641 55.4644 27.1692 55.4644H175.831C190.836 55.4644 203 43.2674 203 28.2215C203 13.1756 190.836 0.978516 175.831 0.978516Z" fill="url(#paint0_linear_18569_97906)"/>
<path d="M22.5426 38.5015L17.4297 18.97H20.7836L24.712 33.9712L28.9223 18.9688L32.0487 18.97L36.2737 34.0509L40.2198 18.9738L43.5736 18.9688L38.4585 38.498L34.571 38.4939L30.4868 23.9081L26.3988 38.4977L22.5426 38.5015Z" fill="white"/>
<path d="M46.1348 18.9688H49.2105V38.5015H46.1348V18.9688Z" fill="white"/>
<path d="M55.8888 35.4376H63.5659V38.5015H52.8008V18.9688H55.8888V35.4376Z" fill="white"/>
<path d="M73.7574 18.9688C76.42 18.9688 78.6356 19.9375 80.381 21.8074C82.1486 23.6773 83.0436 25.9978 83.0436 28.7464C83.0436 31.4724 82.1486 33.7929 80.381 35.6853C78.6356 37.5552 76.42 38.5015 73.7574 38.5015H66.127V18.9688H73.7574ZM73.7574 35.46C75.5921 35.46 77.0915 34.8292 78.2101 33.5676C79.3737 32.3059 79.9556 30.6838 79.9556 28.7689C79.9556 26.8089 79.3737 25.2318 78.2101 23.9702C77.069 22.7085 75.57 22.0777 73.7574 22.0777H69.3268V35.46H73.7574Z" fill="white"/>
<path d="M99.962 32.9142C99.962 34.5138 99.4145 35.843 98.2975 36.9019C97.1805 37.9608 95.8666 38.5015 94.2462 38.5015H86.1211V18.9688H93.6546C95.2094 18.9688 96.5238 19.5094 97.5967 20.5232C98.6917 21.5596 99.2172 22.8437 99.2172 24.3757C99.2172 26.0879 98.5605 27.3946 97.2902 28.3634C98.9547 29.2645 99.962 30.8866 99.962 32.9142ZM89.2527 21.9876V27.1243H93.6767C95.0562 27.1243 96.1076 25.9978 96.1076 24.5559C96.1076 23.1141 95.0562 21.9876 93.6767 21.9876H89.2527ZM94.2677 35.5051C95.7134 35.5051 96.8524 34.2885 96.8524 32.7565C96.8524 31.2245 95.7134 30.0305 94.2677 30.0305H89.2527V35.5051H94.2677Z" fill="white"/>
<path d="M106.22 35.4376H114.828V38.5015H103.037V18.9688H114.693V22.0328H106.22V27.1018H113.998V30.1432H106.22V35.4376Z" fill="white"/>
<path d="M128.284 38.5015L124.227 31.3822H120.524V38.5015H117.393V18.9688H125.044C126.763 18.9688 128.218 19.577 129.387 20.8161C130.577 22.0101 131.195 23.4971 131.195 25.2543C131.195 27.7326 129.674 30.008 127.403 30.9091L131.746 38.5015H128.284ZM120.524 21.9876V28.5211H125.021C126.697 28.5211 128.02 27.0792 128.02 25.2543C128.02 23.452 126.675 21.9876 125.021 21.9876H120.524Z" fill="white"/>
<path d="M145.178 38.5015L141.143 31.3822H137.44V38.5015H134.309V18.9688H141.96C143.679 18.9688 145.134 19.577 146.303 20.8161C147.493 22.0101 148.111 23.4971 148.111 25.2543C148.111 27.7326 146.59 30.008 144.319 30.9091L148.662 38.5015H145.178ZM137.44 21.9876V28.5211H141.937C143.613 28.5211 144.936 27.0792 144.936 25.2543C144.936 23.452 143.591 21.9876 141.937 21.9876H137.44Z" fill="white"/>
<path d="M151.225 18.9688H154.3V38.5015H151.225V18.9688Z" fill="white"/>
<path d="M161.072 35.4375H169.679V38.5015H157.889V18.9688H169.545V22.0327H161.072V27.1018H168.85V30.1432H161.072V35.4375Z" fill="white"/>
<path d="M171.73 33.7351L174.48 32.1314C175.263 34.3142 176.851 35.3834 179.287 35.3834C181.702 35.3834 182.887 34.3588 182.887 32.8442C182.887 32.0423 182.551 31.4631 181.926 31.0622C181.3 30.639 180.137 30.1713 178.482 29.6812C176.627 29.1244 175.71 28.768 174.414 27.9216C173.161 27.0306 172.535 25.761 172.535 24.0236C172.535 22.3085 173.139 20.972 174.368 19.9697C175.576 18.9451 177.052 18.4551 178.773 18.4551C181.881 18.4551 184.273 20.0588 185.525 22.7094L182.842 24.2463C182.037 22.4644 180.673 21.5512 178.773 21.5512C176.917 21.5512 175.733 22.4867 175.733 23.9568C175.733 25.3823 176.672 26.0505 179.645 26.9638C180.383 27.2088 180.919 27.387 181.255 27.5206C181.612 27.632 182.082 27.8325 182.686 28.0775C183.312 28.3225 183.803 28.6121 184.094 28.8571C185.123 29.6589 186.084 30.9376 186.084 32.8219C186.084 34.5593 185.458 35.9625 184.184 36.9871C182.931 38.0117 181.277 38.5018 179.22 38.5018C175.464 38.4795 172.737 36.6976 171.73 33.7351Z" fill="white"/>
</g>
<defs>
<linearGradient id="paint0_linear_18569_97906" x1="0" y1="28.2186" x2="202.998" y2="28.2186" gradientUnits="userSpaceOnUse">
<stop stop-color="#CB11AB"/>
<stop offset="1" stop-color="#481173"/>
</linearGradient>
<clipPath id="clip0_18569_97906">
<rect width="203" height="55" fill="white" transform="translate(0 0.5)"/>
</clipPath>
</defs>
</svg>
