<svg width="128" height="128" viewBox="0 0 128 128" fill="none" xmlns="http://www.w3.org/2000/svg">
<circle cx="64" cy="64" r="51" stroke="#DA1F24" stroke-width="3"/>
<rect x="39" y="67" width="50" height="10" stroke="#DA1F24" stroke-width="3"/>
<path d="M40 77H88L84 93H44L40 77Z" stroke="#DA1F24" stroke-width="3"/>
<line x1="62.5" y1="57" x2="62.5" y2="67" stroke="#DA1F24" stroke-width="3"/>
<line x1="66.5" y1="57" x2="66.5" y2="67" stroke="#DA1F24" stroke-width="3"/>
<path d="M57 67C56.8333 63.6667 54.6 57 47 57C39.4 57 35.8333 57 35 57C35 60.3333 37.2 67 46 67" stroke="#DA1F24" stroke-width="3"/>
<path d="M44 61L53 67" stroke="#DA1F24" stroke-width="3"/>
<path d="M71 67C71.1667 63.6667 73.4 57 81 57C88.6 57 92.1667 57 93 57C93 60.3333 90.8 67 82 67" stroke="#DA1F24" stroke-width="3"/>
<path d="M84 61L75 67" stroke="#DA1F24" stroke-width="3"/>
<circle cx="64" cy="46" r="11" stroke="#DA1F24" stroke-width="3"/>
<circle cx="64" cy="46" r="4" stroke="#DA1F24" stroke-width="3"/>
</svg>
