<svg width="128" height="128" viewBox="0 0 128 128" fill="none" xmlns="http://www.w3.org/2000/svg">
<circle cx="64" cy="64" r="51" stroke="#DA1F24" stroke-width="3"/>
<path d="M54 34H74V45H54V34Z" stroke="#DA1F24" stroke-width="3"/>
<path d="M52 45V43.5H50.5V45H52ZM76 45H77.5V43.5H76V45ZM52 46.5H76V43.5H52V46.5ZM74.5 45V46H77.5V45H74.5ZM72 48.5H56V51.5H72V48.5ZM53.5 46V45H50.5V46H53.5ZM56 48.5C54.6193 48.5 53.5 47.3807 53.5 46H50.5C50.5 49.0376 52.9624 51.5 56 51.5V48.5ZM74.5 46C74.5 47.3807 73.3807 48.5 72 48.5V51.5C75.0376 51.5 77.5 49.0376 77.5 46H74.5Z" fill="#DA1F24"/>
<path d="M54 80H74V91H54V80Z" stroke="#DA1F24" stroke-width="3"/>
<path d="M34 57H54V68H34V57Z" stroke="#DA1F24" stroke-width="3"/>
<path d="M74 57H94V68H74V57Z" stroke="#DA1F24" stroke-width="3"/>
<path d="M96 68L72 68C72 68 72 73 76.3636 73L91.6364 73C96 73 96 68 96 68Z" stroke="#DA1F24" stroke-width="3"/>
<path d="M56 68L32 68C32 68 32 73 36.3636 73L51.6364 73C56 73 56 68 56 68Z" stroke="#DA1F24" stroke-width="3"/>
<path d="M76 91L52 91C52 91 52 96 56.3636 96L71.6364 96C76 96 76 91 76 91Z" stroke="#DA1F24" stroke-width="3"/>
<path d="M74 83.6008C78.7716 81.1616 82.5351 77.0312 84.5 72.0002M54 83.6008C49.2284 81.1616 45.4649 77.0312 43.5 72.0002M43.5 55.999C45.4649 50.968 49.2284 46.8376 54 44.3984M74 44.3984C78.7716 46.8376 82.5351 50.968 84.5 55.999" stroke="#DA1F24" stroke-width="3"/>
</svg>
