<?xml version="1.0" encoding="UTF-8"?>
<svg width="64" height="14" version="1.1" viewBox="0 0 64 14" xmlns="http://www.w3.org/2000/svg"><path d="m57 0.41211c-0.25562 0-0.51116 0.099053-0.70703 0.29492-0.39174 0.39174-0.39174 1.0223 0 1.4141l3.8809 3.8789h-42.174v2h42.174l-3.8809 3.8789c-0.39174 0.39174-0.39174 1.0223 0 1.4141s1.0243 0.39174 1.416 0l5.5859-5.5859c0.39174-0.39174 0.39174-1.0223 0-1.4141l-5.5859-5.5859c-0.19587-0.19587-0.45336-0.29492-0.70898-0.29492zm-54 3.5879a3 3 0 0 0-3 3 3 3 0 0 0 3 3 3 3 0 0 0 3-3 3 3 0 0 0-3-3z" fill="#fff"/></svg>