<?xml version="1.0" encoding="UTF-8"?>
<svg width="60" height="60" version="1.1" viewBox="0 0 60 60" xmlns="http://www.w3.org/2000/svg"><path d="m29.996 4.9062a0.50004 0.50004 0 0 0-0.43945 0.26953l-3.0195 5.832-5.3828-3.7402a0.50004 0.50004 0 0 0-0.78516 0.41406l0.021484 6.5938-6.5039-0.80274a0.50004 0.50004 0 0 0-0.50195 0.73047l3.0645 5.8145-6.1289 2.3477a0.50004 0.50004 0 0 0-0.10547 0.87695l5.3867 3.7207-4.3516 4.9277a0.50004 0.50004 0 0 0 0.3125 0.82617l6.5059 0.80469-1.584 6.3848a0.50004 0.50004 0 0 0 0.66406 0.58789l6.0996-2.3438 1.5625 6.4023a0.50004 0.50004 0 0 0 0.86328 0.21094l4.3262-4.9414 4.3262 4.9414a0.50004 0.50004 0 0 0 0.86328-0.21094l1.5625-6.4023 6.0996 2.3438a0.50004 0.50004 0 0 0 0.66406-0.58789l-1.584-6.3848 6.5059-0.80469a0.50004 0.50004 0 0 0 0.3125-0.82617l-4.3516-4.9277 5.3848-3.7207a0.50004 0.50004 0 0 0-0.10352-0.87695l-6.1289-2.3477 3.0645-5.8145a0.50004 0.50004 0 0 0-0.50391-0.73047l-6.502 0.80274 0.021484-6.5938a0.50004 0.50004 0 0 0-0.78516-0.41406l-5.3828 3.7402-3.0195-5.832a0.50004 0.50004 0 0 0-0.44726-0.26953zm0.003906 1.5879 2.8359 5.4785a0.50004 0.50004 0 0 0 0.73047 0.18164l5.0605-3.5176-0.019531 6.2031a0.50004 0.50004 0 0 0 0.56055 0.49805l6.1172-0.75586-2.8809 5.4688a0.50004 0.50004 0 0 0 0.26367 0.69922l5.7676 2.209-5.0703 3.502a0.50004 0.50004 0 0 0-0.089843 0.74219l4.0977 4.6387-6.125 0.75586a0.50004 0.50004 0 0 0-0.42383 0.61719l1.4902 6-5.7344-2.2031a0.50004 0.50004 0 0 0-0.66602 0.34766l-1.4688 6.0215-4.0684-4.6484a0.50004 0.50004 0 0 0-0.75391 0l-4.0684 4.6484-1.4688-6.0215a0.50004 0.50004 0 0 0-0.66602-0.34766l-5.7344 2.2031 1.4902-6a0.50004 0.50004 0 0 0-0.42383-0.61719l-6.125-0.75586 4.0977-4.6387a0.50004 0.50004 0 0 0-0.089843-0.74219l-5.0703-3.502 5.7676-2.209a0.50004 0.50004 0 0 0 0.26367-0.69922l-2.8809-5.4688 6.1172 0.75586a0.50004 0.50004 0 0 0 0.56055-0.49805l-0.019531-6.2031 5.0605 3.5176a0.50004 0.50004 0 0 0 0.73047-0.18164l2.8359-5.4785zm0 9.6875c-4.8176 0-8.7344 3.9178-8.7344 8.7383s3.9168 8.7402 8.7344 8.7402 8.7324-3.9198 8.7324-8.7402-3.9149-8.7383-8.7324-8.7383zm0 1c4.2767 0 7.7324 3.4578 7.7324 7.7383s-3.4557 7.7402-7.7324 7.7402-7.7344-3.4598-7.7344-7.7402 3.4576-7.7383 7.7344-7.7383zm-9.1074 28.48a0.50004 0.50004 0 0 0-0.49219 0.50781v9.2852a0.50029 0.50029 0 0 0 0.005859 0.11719 0.50004 0.50004 0 0 0 0.78711 0.33008l8.373-4.5039 8.3711 4.5039a0.50004 0.50004 0 0 0 0.76367-0.23047 0.50029 0.50029 0 0 0 0.03125-0.21289v-8.9336a0.50004 0.50004 0 0 0-0.50586-0.50781 0.50004 0.50004 0 0 0-0.49414 0.50781v8.1309l-7.9297-4.2656a0.50004 0.50004 0 0 0-0.24023-0.058594 0.50004 0.50004 0 0 0-0.23242 0.058594l-7.9297 4.2656v-8.4863a0.50004 0.50004 0 0 0-0.50781-0.50781z"/></svg>