<?xml version="1.0" encoding="UTF-8"?>
<svg width="60" height="60" version="1.1" viewBox="0 0 60 60" xmlns="http://www.w3.org/2000/svg"><path d="m29.992 5.6523a0.50005 0.50005 0 0 0-0.49219 0.50781v1.998c-11.355 0.26623-20.5 9.5449-20.5 20.937v1.1055a0.50005 0.50005 0 0 0 0.75977 0.42773c1.0509-0.63646 2.5271-1.0332 4.127-1.0332 2.1462 0 4.0031 0.7178 5.0254 1.7012a0.50005 0.50005 0 0 0 0.69336 0c1.02-0.98128 2.8988-1.7012 5.0234-1.7012 2.0492 0 3.8243 0.65719 4.8711 1.5723v17.002c0 1.1501-0.45615 2.1839-1.2246 2.9316a0.50005 0.50005 0 0 0-0.009766 0.009766c-0.74771 0.76854-1.7817 1.2266-2.9316 1.2266-2.294 0-4.1133-1.8669-4.1133-4.168a0.50005 0.50005 0 0 0 0-0.03125l-0.16602-2.666a0.50005 0.50005 0 1 0-0.99805 0.0625l0.16406 2.6348c0 2.8323 2.2739 5.168 5.1133 5.168 1.4141 0 2.7106-0.5702 3.6426-1.5254 0.9551-0.93196 1.5234-2.2284 1.5234-3.6426v-17.004c1.0473-0.91415 2.8233-1.5703 4.8711-1.5703 2.1246 0 4.0033 0.71986 5.0234 1.7012a0.50005 0.50005 0 0 0 0.69336 0c1.0223-0.98337 2.8793-1.7012 5.0254-1.7012 1.6 0 3.0761 0.39674 4.127 1.0332a0.50005 0.50005 0 0 0 0.75977-0.42773v-1.1055c0-5.7799-2.3539-11.021-6.1543-14.812-3.6905-3.6816-8.7515-5.9939-14.346-6.125v-1.998a0.50005 0.50005 0 0 0-0.50781-0.50781zm0.007812 3.4941c5.5231 0 10.52 2.2339 14.141 5.8457 3.6205 3.6117 5.8594 8.5948 5.8594 14.104v0.36719c-1.1314-0.52015-2.4387-0.86719-3.8867-0.86719-2.1969 0-4.0858 0.69963-5.373 1.7754-1.291-1.0768-3.1907-1.7754-5.3691-1.7754-2.1969 0-4.0839 0.69971-5.3711 1.7754-1.2872-1.0757-3.1742-1.7754-5.3711-1.7754-2.1784 0-4.0782 0.69856-5.3691 1.7754-1.2872-1.0758-3.1761-1.7754-5.373-1.7754-1.448 0-2.7553 0.34704-3.8867 0.86719v-0.36719c0-11.017 8.9539-19.949 20-19.949z"/></svg>