<?xml version="1.0" encoding="UTF-8"?>
<svg width="60" height="60" version="1.1" viewBox="0 0 60 60" xmlns="http://www.w3.org/2000/svg"><path d="m42.492 11.992c-0.0249 7.52e-4 -0.04971 0.0034-0.07422 0.0078h-33.918c-0.27613 2.8e-5 -0.49997 0.22387-0.5 0.5v30c2.76e-5 0.27613 0.22387 0.49997 0.5 0.5h22.682c0.1545 0.65063 0.40612 1.2613 0.74023 1.8203l-2.8789 6.4766c-0.14697 0.33072 0.095141 0.70319 0.45703 0.70314h6c0.27613-2.8e-5 0.49997-0.22387 0.5-0.5v-3.6816c0.48226 0.11452 0.98323 0.18164 1.5 0.18164s1.0177-0.06712 1.5-0.18164v3.6816c2.8e-5 0.27613 0.22387 0.49997 0.5 0.5h6c0.36189 5.3e-5 0.604-0.37242 0.45703-0.70312l-2.8789-6.4766c0.33411-0.55899 0.58574-1.1697 0.74023-1.8203h8.6816c0.27613-2.8e-5 0.49997-0.22387 0.5-0.5v-18.92c0.02976-0.18123-0.04223-0.3642-0.1875-0.47656l-9.8945-10.887c-0.094179-0.14275-0.25478-0.22748-0.42578-0.22461zm-33.493 1.0078h33v10.5c2.8e-5 0.27613 0.22387 0.49997 0.5 0.5h9.5v18h-8.0254c0.012683-0.16547 0.025391-0.33134 0.025391-0.5 0-3.5839-2.9161-6.5-6.5-6.5s-6.5 2.9161-6.5 6.5c0 0.16866 0.01271 0.33453 0.02539 0.5h-22.026zm34 0.79297 8.3691 9.207h-8.3691zm-28.493 3.711c-0.67616-0.0096-0.67616 1.0096 0 1h16.985c0.67616 0.0096 0.67616-1.0096 0-1zm0 6c-0.67616-0.0096-0.67616 1.0096 0 1h16.985c0.67616 0.0096 0.67616-1.0096 0-1zm0 6c-0.67616-0.0096-0.67616 1.0096 0 1h16.985c0.67616 0.0096 0.67616-1.0096 0-1zm0.04492 6c-0.67616-0.0096-0.67616 1.0096 0 1h8.8949c0.67616 0.0096 0.67616-1.0096 0-1zm22.948 0.49609c3.0435 0 5.5 2.4565 5.5 5.5 0 1.097-0.32233 2.1157-0.87305 2.9727-0.0104 0.01254-0.02017 0.02557-0.0293 0.03906-0.65968 1.0055-1.6299 1.7669-2.7637 2.168-0.01595 0.0057-0.03159 0.01223-0.04687 0.01953-0.5606 0.19199-1.1604 0.30078-1.7871 0.30078-0.62167 0-1.2167-0.10782-1.7734-0.29688-0.0196-0.0098-0.03983-0.01826-0.06055-0.02539-1.1332-0.40016-2.1034-1.1618-2.7637-2.166-0.0096-0.01487-0.02008-0.02921-0.03125-0.04297-0.54927-0.85617-0.87109-1.8733-0.87109-2.9688 0-3.0435 2.4565-5.5 5.5-5.5zm-4.9004 9.7578c0.6524 0.74993 1.4703 1.351 2.4004 1.7402v3.502h-4.7305zm9.8008 0 2.3301 5.2422h-4.7305v-3.502c0.93012-0.38919 1.748-0.99031 2.4004-1.7402z"/></svg>