<?xml version="1.0" encoding="UTF-8"?>
<svg width="60" height="60" version="1.1" viewBox="0 0 60 60" xmlns="http://www.w3.org/2000/svg"><path d="m27.326 9.0098a0.50005 0.50005 0 0 0-0.49219 0.41211l-0.96875 5.5469c-1.2681 0.34324-2.4628 0.85104-3.5684 1.4824l-4.6133-3.2344a0.50005 0.50005 0 0 0-0.64062 0.056641l-3.7793 3.7793a0.50005 0.50005 0 0 0-0.054688 0.64062l3.248 4.6113c-0.64438 1.1097-1.1435 2.3057-1.4961 3.5684l-5.5469 0.96875a0.50005 0.50005 0 0 0-0.41406 0.49414v5.3477a0.50005 0.50005 0 0 0 0.41406 0.49219l5.5469 0.96875c0.35279 1.2635 0.84962 2.4599 1.4805 3.5684l-3.25 4.6113a0.50005 0.50005 0 0 0 0.054688 0.64062l3.7793 3.7793a0.50005 0.50005 0 0 0 0.64258 0.054687l4.6094-3.248c1.1173 0.63089 2.3126 1.137 3.5684 1.4805l0.9707 5.5469a0.50005 0.50005 0 0 0 0.49219 0.41211h5.3477a0.50005 0.50005 0 0 0 0.49219-0.41211l0.96875-5.5469c1.2681-0.3432 2.4628-0.85104 3.5684-1.4824l4.6113 3.25a0.50005 0.50005 0 0 0 0.64258-0.054687l3.7793-3.7793a0.50005 0.50005 0 0 0 0.054688-0.64062l-3.25-4.6113c0.63103-1.1175 1.1369-2.3123 1.4805-3.5684l5.582-0.96875a0.50005 0.50005 0 0 0 0.41406-0.49219v-5.3477a0.50005 0.50005 0 0 0-0.41406-0.49414l-5.5488-0.9707c-0.34323-1.2664-0.84788-2.4601-1.4785-3.5645l3.25-4.6133a0.50005 0.50005 0 0 0-0.054688-0.64062l-3.7793-3.7793a0.50005 0.50005 0 0 0-0.64258-0.054688l-4.6094 3.25c-1.1181-0.63132-2.3137-1.1369-3.5703-1.4805l-0.98633-5.5664a0.50005 0.50005 0 0 0-0.49219-0.41211h-5.3477zm0.41992 1h4.5078l0.96094 5.416a0.50005 0.50005 0 0 0 0.37305 0.39844c1.3912 0.34351 2.7191 0.91024 3.9473 1.6367a0.50005 0.50005 0 0 0 0.54297-0.021485l4.4863-3.1621 3.1836 3.1836-3.1621 4.4883a0.50005 0.50005 0 0 0-0.019532 0.54492c0.72492 1.2083 1.2931 2.5346 1.6367 3.9434a0.50005 0.50005 0 0 0 0.40039 0.37305l5.3965 0.94531v4.5059l-5.4316 0.94531a0.50005 0.50005 0 0 0-0.40039 0.37109c-0.34345 1.3913-0.91219 2.7211-1.6387 3.9492a0.50005 0.50005 0 0 0 0.021484 0.54102l3.1621 4.4883-3.1836 3.1836-4.4863-3.1621a0.50005 0.50005 0 0 0-0.54492-0.021484c-1.2082 0.72491-2.5366 1.2932-3.9453 1.6367a0.50005 0.50005 0 0 0-0.37305 0.40039l-0.94336 5.3965h-4.5078l-0.94336-5.3965a0.50005 0.50005 0 0 0-0.37305-0.40039c-1.3912-0.34345-2.7192-0.91025-3.9473-1.6367a0.50005 0.50005 0 0 0-0.54297 0.021484l-4.4863 3.1621-3.1836-3.1836 3.1621-4.4883a0.50005 0.50005 0 0 0 0.019532-0.54492c-0.7231-1.2051-1.2759-2.5329-1.6387-3.9492a0.50005 0.50005 0 0 0-0.39844-0.36719l-5.3965-0.94336v-4.5078l5.3965-0.94531a0.50005 0.50005 0 0 0 0.39844-0.36719c0.36272-1.4163 0.91546-2.7425 1.6543-3.9453a0.50005 0.50005 0 0 0-0.017578-0.54883l-3.1621-4.4883 3.1836-3.1836 4.4883 3.1465a0.50005 0.50005 0 0 0 0.54297 0.019531c1.2082-0.72491 2.5346-1.2931 3.9434-1.6367a0.50005 0.50005 0 0 0 0.375-0.40039l0.94336-5.3965zm2.2539 9.6953c-5.685 0-10.305 4.6197-10.305 10.305 0 5.6849 4.6197 10.303 10.305 10.303 5.685 0 10.305-4.6178 10.305-10.303 0-5.685-4.6196-10.305-10.305-10.305zm0 1c5.1446 0 9.3047 4.1601 9.3047 9.3047 0 5.1445-4.1601 9.3027-9.3047 9.3027-5.1445 0-9.3047-4.1582-9.3047-9.3027 0-5.1446 4.1602-9.3047 9.3047-9.3047zm0 4.3477c-2.7315 0-4.957 2.2255-4.957 4.957s2.2255 4.9551 4.957 4.9551c2.7315 0 4.957-2.2236 4.957-4.9551s-2.2255-4.957-4.957-4.957zm0 1c2.191 0 3.957 1.766 3.957 3.957s-1.766 3.9551-3.957 3.9551c-2.1911 0-3.957-1.764-3.957-3.9551 0-2.1911 1.766-3.957 3.957-3.957z"/></svg>