<?xml version="1.0" encoding="UTF-8"?>
<svg width="60" height="60" version="1.1" viewBox="0 0 60 60" xmlns="http://www.w3.org/2000/svg"><path d="m29.992 8.1113a0.50005 0.50005 0 0 0-0.49219 0.50586v1.875a0.50005 0.50005 0 1 0 1 0v-1.875a0.50005 0.50005 0 0 0-0.50781-0.50586zm0.007812 5.3887c-6.187 0-12.022 4.7353-12 12.002 0.01102 3.6288 1.42 6.5637 2.7852 9.4277 1.3652 2.8641 2.6876 5.6579 2.7148 9.084a0.50005 0.50005 0 0 0 0.5 0.49609h12a0.50005 0.50005 0 0 0 0.5-0.5v-0.019532c0-3.3642 1.3261-6.1515 2.7012-9.0254 1.375-2.8739 2.7988-5.8339 2.7988-9.4648 0-7.265-5.813-12-12-12zm-13.498 0.1582a0.50005 0.50005 0 0 0-0.35156 0.85742l1.3184 1.332a0.50064 0.50064 0 0 0 0.71094-0.70508l-1.3203-1.3301a0.50005 0.50005 0 0 0-0.35742-0.1543zm26.309 0a0.50005 0.50005 0 0 0-0.3418 0.1543l-1.3184 1.3301a0.50005 0.50005 0 1 0 0.70898 0.70508l1.3203-1.332a0.50005 0.50005 0 0 0-0.36914-0.85742zm-12.811 0.8418c5.6814 0 11 4.265 11 11 0 3.369-1.3262 6.1594-2.7012 9.0332-1.3091 2.736-2.5881 5.5837-2.7148 8.9766h-11.172c-0.15398-3.4331-1.4262-6.2858-2.7246-9.0098-1.3653-2.8644-2.6773-5.6307-2.6875-9.002-0.020453-6.7333 5.3186-10.998 11-10.998zm-3.168 3.668a0.50005 0.50005 0 0 0-0.22656 0.052734c-0.49847 0.24156-0.97314 0.54144-1.4082 0.88086a0.50028 0.50028 0 0 0 0.61523 0.78906c0.38194-0.29798 0.80034-0.56109 1.2305-0.76953a0.50005 0.50005 0 0 0-0.21094-0.95312zm-3.4766 3.207a0.50005 0.50005 0 0 0-0.42969 0.27539c-0.39532 0.7584-0.67377 1.579-0.8125 2.4395a0.50005 0.50005 0 0 0 0 0.001953c-0.09693 0.6267-0.13829 1.2272-0.097656 1.8008 0.0397 0.56184 0.13785 1.0781 0.25391 1.5469a0.50005 0.50005 0 0 0 0.00586 0.017578c0.13558 0.46933 0.29093 0.90558 0.47266 1.293 0.17287 0.36861 0.3513 0.70848 0.55664 1.0195a0.50005 0.50005 0 1 0 0.83398-0.55078c-0.16606-0.25155-0.32305-0.54859-0.48438-0.89258-0.15193-0.32386-0.29192-0.71374-0.41602-1.1426-4.43e-4 -0.0015-0.001453-0.002406-0.001953-0.003906-0.10465-0.42579-0.18865-0.87622-0.22266-1.3574a0.50005 0.50005 0 0 0 0-0.001954c-0.03372-0.47585-5.33e-4 -0.99979 0.08789-1.5723v-0.001953c0.12137-0.7515 0.36375-1.4668 0.71094-2.1328a0.50005 0.50005 0 0 0-0.45703-0.73828zm-11.848 5.625a0.50005 0.50005 0 1 0 0 1h1.8574a0.50005 0.50005 0 1 0 0-1h-1.8574zm35 0a0.50005 0.50005 0 1 0 0 1h1.8555a0.50005 0.50005 0 1 0 0-1h-1.8555zm-28.697 11.658a0.50005 0.50005 0 0 0-0.3418 0.1543l-1.3184 1.3301a0.50005 0.50005 0 1 0 0.70898 0.70508l1.3203-1.332a0.50005 0.50005 0 0 0-0.36914-0.85742zm23.691 0a0.50005 0.50005 0 0 0-0.35156 0.85742l1.3184 1.332a0.50064 0.50064 0 0 0 0.71094-0.70508l-1.3203-1.3301a0.50005 0.50005 0 0 0-0.35742-0.1543zm-17.502 8.8418a0.50005 0.50005 0 1 0 0 1h12a0.50005 0.50005 0 1 0 0-1h-12zm2 3.5a0.50005 0.50005 0 1 0 0 1h8a0.50005 0.50005 0 1 0 0-1h-8z"/></svg>