<?xml version="1.0" encoding="UTF-8"?>
<svg width="60" height="60" version="1.1" viewBox="0 0 60 60" xmlns="http://www.w3.org/2000/svg"><path d="m10.584 7.9414c-2.37-0.04991-4.6112 1.7605-4.584 4.3203l0.27344 29.361c0.019711 3.428 4.0655 5.4366 6.9883 3.498l18.596-12.293 8.125-0.074219c0.23989 0.91419 1.0671 1.6039 2.0547 1.5859 1.1508-0.02102 2.1011-0.96965 2.0801-2.1309l-0.11328-11.246a0.50005 0.50005 0 0 0 0-0.003907c-0.02089-1.1512-0.96998-2.1032-2.1309-2.082-0.97803 0.01777-1.8062 0.70814-2.0215 1.627l-8.1016 0.089844-18.832-11.941h-0.001953c-0.73905-0.4704-1.5426-0.69431-2.332-0.71094zm-0.035156 0.98633c0.6163 0.016938 1.2472 0.19577 1.832 0.56836a0.50005 0.50005 0 0 0 0 0.0019531l18.959 12.02a0.50005 0.50005 0 0 0 0.27344 0.078125l8.1855-0.089844 0.10156 10.248-8.2012 0.076172a0.50005 0.50005 0 0 0-0.26953 0.082031l-18.719 12.375a0.50005 0.50005 0 0 0-0.001954 0c-2.3102 1.5323-5.4216-0.02435-5.4355-2.6699a0.50005 0.50005 0 0 0 0-0.001954l-0.27344-29.363c-0.020958-1.9722 1.6999-3.375 3.5488-3.3242zm2.4375 8.6309c-1.1571 0-2.1055 0.94988-2.1055 2.1074 0 1.1575 0.94831 2.1074 2.1055 2.1074s2.1055-0.94995 2.1055-2.1074c0-1.1575-0.94834-2.1074-2.1055-2.1074zm0 1c0.61612 0 1.1055 0.48971 1.1055 1.1074 0 0.61759-0.48938 1.1074-1.1055 1.1074s-1.1055-0.48983-1.1055-1.1074c0-0.61771 0.48935-1.1074 1.1055-1.1074zm28.906 1.3184c0.60515-0.01105 1.1001 0.48308 1.1113 1.0996l0.11328 11.246a0.50005 0.50005 0 0 0 0 0.003906c0.011009 0.60673-0.48459 1.102-1.0996 1.1133-0.60505 0.01099-1.1001-0.48311-1.1113-1.0996l-0.11328-11.195a0.50005 0.50005 0 0 0 0.003906-0.070313c-0.001668-0.59897 0.48643-1.0866 1.0957-1.0977zm-18.408 3.998c-1.6005 0-2.9062 1.3089-2.9062 2.9102 0 1.6013 1.3058 2.9102 2.9062 2.9102s2.9082-1.3088 2.9082-2.9102c0-1.6013-1.3077-2.9102-2.9082-2.9102zm0 1c1.0594 0 1.9082 0.84873 1.9082 1.9102 0 1.0615-0.84875 1.9102-1.9082 1.9102s-1.9062-0.84862-1.9062-1.9102c0-1.0614 0.8468-1.9102 1.9062-1.9102zm-8.7637 5.5254c-1.1571 0-2.1055 0.94793-2.1055 2.1055 0 1.1575 0.94831 2.1074 2.1055 2.1074 1.1572 0 2.1035-0.94996 2.1035-2.1074 0-1.1575-0.94638-2.1055-2.1035-2.1055zm0 1c0.61615 0 1.1035 0.48774 1.1035 1.1055 0 0.6176-0.4874 1.1074-1.1035 1.1074-0.61609 0-1.1055-0.48983-1.1055-1.1074 0-0.61771 0.48935-1.1055 1.1055-1.1055zm33.166 2.9219a0.50005 0.50005 0 0 0-0.44336 0.27148l-5.0254 9.8027c-1.8902 3.6792 0.58508 8.22 4.8496 8.5859a0.50005 0.50005 0 0 0 0.001953 0c0.21776 0.018137 0.4109 0.017578 0.60352 0.017578 0.19209 0 0.39501 0.001202 0.60352-0.017578 4.2942-0.36547 6.7709-4.9067 4.8809-8.5859l-5.0234-9.8027a0.50005 0.50005 0 0 0-0.44726-0.27148zm0.001953 1.5977 4.5801 8.9336c1.5775 3.0707-0.43976 6.8233-4.0762 7.1328a0.50005 0.50005 0 0 0-0.003906 0c-0.14401 0.013077-0.32291 0.013672-0.51562 0.013672-0.1919 0-0.35278 1.16e-4 -0.51953-0.013672h-0.001954c-3.6005-0.31025-5.6202-4.0627-4.043-7.1328l4.5801-8.9336z"/></svg>